#VRML V2.0 utf8
# HAL2041SO
# Hallwee HAL2041 SO / SOT-23 hall sensor, body 2.90x1.30x1.05 mm
# Units: inches (KiCad 3D viewer convention, scale 1 1 1)
# Z-up, XY = KiCad footprint coordinates, z=0 PCB top
WorldInfo {
  title "HAL2041SO"
  info [ "Hallwee HAL2041 SO / SOT-23 hall sensor, body 2.90x1.30x1.05 mm" ]
}
Group { children [
  # body  material=black_epoxy
  Shape {
    appearance Appearance {
      material Material {
        diffuseColor 0.0400 0.0400 0.0450
        specularColor 0.1600 0.1600 0.1800
        shininess 0.140
        ambientIntensity 0.140
        emissiveColor 0 0 0
        transparency 0.000
      }
    }
    geometry IndexedFaceSet {
      solid TRUE
      creaseAngle 0.9
      coord Coordinate { point [
        -0.0216535 -0.0570866 0.0039370
        0.0216535 -0.0570866 0.0039370
        -0.0216535 -0.0570866 0.0342520
        -0.0106299 -0.0570866 0.0342520
        -0.0106299 -0.0570866 0.0385827
        0.0216535 -0.0570866 0.0385827
        -0.0216535 -0.0570866 0.0039370
        0.0216535 -0.0570866 0.0039370
        0.0218467 -0.0570819 0.0039370
        0.0220394 -0.0570677 0.0039370
        0.0222312 -0.0570440 0.0039370
        0.0224216 -0.0570110 0.0039370
        0.0226102 -0.0569686 0.0039370
        0.0227964 -0.0569171 0.0039370
        0.0229799 -0.0568565 0.0039370
        0.0231602 -0.0567869 0.0039370
        0.0233368 -0.0567086 0.0039370
        0.0235094 -0.0566217 0.0039370
        0.0236776 -0.0565265 0.0039370
        0.0238408 -0.0564231 0.0039370
        0.0239988 -0.0563118 0.0039370
        0.0241512 -0.0561930 0.0039370
        0.0242975 -0.0560667 0.0039370
        0.0244374 -0.0559335 0.0039370
        0.0245707 -0.0557935 0.0039370
        0.0246969 -0.0556472 0.0039370
        0.0248158 -0.0554949 0.0039370
        0.0249270 -0.0553369 0.0039370
        0.0250304 -0.0551736 0.0039370
        0.0251257 -0.0550055 0.0039370
        0.0252126 -0.0548329 0.0039370
        0.0252909 -0.0546562 0.0039370
        0.0253604 -0.0544759 0.0039370
        0.0254210 -0.0542925 0.0039370
        0.0254726 -0.0541062 0.0039370
        0.0255149 -0.0539177 0.0039370
        0.0255479 -0.0537273 0.0039370
        0.0255716 -0.0535355 0.0039370
        0.0255858 -0.0533428 0.0039370
        0.0255906 -0.0531496 0.0039370
        0.0255906 0.0531496 0.0039370
        0.0255858 0.0533428 0.0039370
        0.0255716 0.0535355 0.0039370
        0.0255479 0.0537273 0.0039370
        0.0255149 0.0539177 0.0039370
        0.0254726 0.0541062 0.0039370
        0.0254210 0.0542925 0.0039370
        0.0253604 0.0544759 0.0039370
        0.0252909 0.0546562 0.0039370
        0.0252126 0.0548329 0.0039370
        0.0251257 0.0550055 0.0039370
        0.0250304 0.0551736 0.0039370
        0.0249270 0.0553369 0.0039370
        0.0248158 0.0554949 0.0039370
        0.0246969 0.0556472 0.0039370
        0.0245707 0.0557935 0.0039370
        0.0244374 0.0559335 0.0039370
        0.0242975 0.0560667 0.0039370
        0.0241512 0.0561930 0.0039370
        0.0239988 0.0563118 0.0039370
        0.0238408 0.0564231 0.0039370
        0.0236776 0.0565265 0.0039370
        0.0235094 0.0566217 0.0039370
        0.0233368 0.0567086 0.0039370
        0.0231602 0.0567869 0.0039370
        0.0229799 0.0568565 0.0039370
        0.0227964 0.0569171 0.0039370
        0.0226102 0.0569686 0.0039370
        0.0224216 0.0570110 0.0039370
        0.0222312 0.0570440 0.0039370
        0.0220394 0.0570677 0.0039370
        0.0218467 0.0570819 0.0039370
        0.0216535 0.0570866 0.0039370
        -0.0216535 0.0570866 0.0039370
        -0.0218467 0.0570819 0.0039370
        -0.0220394 0.0570677 0.0039370
        -0.0222312 0.0570440 0.0039370
        -0.0224216 0.0570110 0.0039370
        -0.0226102 0.0569686 0.0039370
        -0.0227964 0.0569171 0.0039370
        -0.0229799 0.0568565 0.0039370
        -0.0231602 0.0567869 0.0039370
        -0.0233368 0.0567086 0.0039370
        -0.0235094 0.0566217 0.0039370
        -0.0236776 0.0565265 0.0039370
        -0.0238408 0.0564231 0.0039370
        -0.0239988 0.0563118 0.0039370
        -0.0241512 0.0561930 0.0039370
        -0.0242975 0.0560667 0.0039370
        -0.0244374 0.0559335 0.0039370
        -0.0245707 0.0557935 0.0039370
        -0.0246969 0.0556472 0.0039370
        -0.0248158 0.0554949 0.0039370
        -0.0249270 0.0553369 0.0039370
        -0.0250304 0.0551736 0.0039370
        -0.0251257 0.0550055 0.0039370
        -0.0252126 0.0548329 0.0039370
        -0.0252909 0.0546562 0.0039370
        -0.0253604 0.0544759 0.0039370
        -0.0254210 0.0542925 0.0039370
        -0.0254726 0.0541062 0.0039370
        -0.0255149 0.0539177 0.0039370
        -0.0255479 0.0537273 0.0039370
        -0.0255716 0.0535355 0.0039370
        -0.0255858 0.0533428 0.0039370
        -0.0255906 0.0531496 0.0039370
        -0.0255906 -0.0531496 0.0039370
        -0.0218467 -0.0570819 0.0039370
        -0.0220394 -0.0570677 0.0039370
        -0.0222312 -0.0570440 0.0039370
        -0.0224216 -0.0570110 0.0039370
        -0.0226102 -0.0569686 0.0039370
        -0.0227964 -0.0569171 0.0039370
        -0.0229799 -0.0568565 0.0039370
        -0.0231602 -0.0567869 0.0039370
        -0.0233368 -0.0567086 0.0039370
        -0.0235094 -0.0566217 0.0039370
        -0.0236776 -0.0565265 0.0039370
        -0.0238408 -0.0564231 0.0039370
        -0.0239988 -0.0563118 0.0039370
        -0.0241512 -0.0561930 0.0039370
        -0.0242975 -0.0560667 0.0039370
        -0.0244374 -0.0559335 0.0039370
        -0.0245707 -0.0557935 0.0039370
        -0.0246969 -0.0556472 0.0039370
        -0.0248158 -0.0554949 0.0039370
        -0.0249270 -0.0553369 0.0039370
        -0.0250304 -0.0551736 0.0039370
        -0.0251257 -0.0550055 0.0039370
        -0.0252126 -0.0548329 0.0039370
        -0.0252909 -0.0546562 0.0039370
        -0.0253604 -0.0544759 0.0039370
        -0.0254210 -0.0542925 0.0039370
        -0.0254726 -0.0541062 0.0039370
        -0.0255149 -0.0539177 0.0039370
        -0.0255479 -0.0537273 0.0039370
        -0.0255716 -0.0535355 0.0039370
        -0.0255858 -0.0533428 0.0039370
        0.0216535 -0.0570866 0.0039370
        0.0216535 -0.0570866 0.0385827
        0.0218467 -0.0570819 0.0039370
        0.0220394 -0.0570677 0.0039370
        0.0222312 -0.0570440 0.0039370
        0.0224216 -0.0570110 0.0039370
        0.0226102 -0.0569686 0.0039370
        0.0227964 -0.0569171 0.0039370
        0.0229799 -0.0568565 0.0039370
        0.0231602 -0.0567869 0.0039370
        0.0233368 -0.0567086 0.0039370
        0.0235094 -0.0566217 0.0039370
        0.0236776 -0.0565265 0.0039370
        0.0238408 -0.0564231 0.0039370
        0.0239988 -0.0563118 0.0039370
        0.0241512 -0.0561930 0.0039370
        0.0242975 -0.0560667 0.0039370
        0.0244374 -0.0559335 0.0039370
        0.0245707 -0.0557935 0.0039370
        0.0246969 -0.0556472 0.0039370
        0.0248158 -0.0554949 0.0039370
        0.0249270 -0.0553369 0.0039370
        0.0250304 -0.0551736 0.0039370
        0.0251257 -0.0550055 0.0039370
        0.0252126 -0.0548329 0.0039370
        0.0252909 -0.0546562 0.0039370
        0.0253604 -0.0544759 0.0039370
        0.0254210 -0.0542925 0.0039370
        0.0254726 -0.0541062 0.0039370
        0.0255149 -0.0539177 0.0039370
        0.0255479 -0.0537273 0.0039370
        0.0255716 -0.0535355 0.0039370
        0.0255858 -0.0533428 0.0039370
        0.0255906 -0.0531496 0.0039370
        0.0255906 -0.0531496 0.0385827
        0.0218467 -0.0570819 0.0385827
        0.0220394 -0.0570677 0.0385827
        0.0222312 -0.0570440 0.0385827
        0.0224216 -0.0570110 0.0385827
        0.0226102 -0.0569686 0.0385827
        0.0227964 -0.0569171 0.0385827
        0.0229799 -0.0568565 0.0385827
        0.0231602 -0.0567869 0.0385827
        0.0233368 -0.0567086 0.0385827
        0.0235094 -0.0566217 0.0385827
        0.0236776 -0.0565265 0.0385827
        0.0238408 -0.0564231 0.0385827
        0.0239988 -0.0563118 0.0385827
        0.0241512 -0.0561930 0.0385827
        0.0242975 -0.0560667 0.0385827
        0.0244374 -0.0559335 0.0385827
        0.0245707 -0.0557935 0.0385827
        0.0246969 -0.0556472 0.0385827
        0.0248158 -0.0554949 0.0385827
        0.0249270 -0.0553369 0.0385827
        0.0250304 -0.0551736 0.0385827
        0.0251257 -0.0550055 0.0385827
        0.0252126 -0.0548329 0.0385827
        0.0252909 -0.0546562 0.0385827
        0.0253604 -0.0544759 0.0385827
        0.0254210 -0.0542925 0.0385827
        0.0254726 -0.0541062 0.0385827
        0.0255149 -0.0539177 0.0385827
        0.0255479 -0.0537273 0.0385827
        0.0255716 -0.0535355 0.0385827
        0.0255858 -0.0533428 0.0385827
        -0.0133858 -0.0543307 0.0413386
        -0.0106299 -0.0570866 0.0385827
        0.0216535 -0.0570866 0.0385827
        0.0216535 -0.0543307 0.0413386
        -0.0106299 -0.0570866 0.0342520
        -0.0255906 -0.0421260 0.0342520
        -0.0106299 -0.0570866 0.0385827
        -0.0133858 -0.0543307 0.0413386
        -0.0228346 -0.0448819 0.0413386
        -0.0255906 -0.0421260 0.0385827
        -0.0255906 -0.0531496 0.0342520
        -0.0255858 -0.0533428 0.0342520
        -0.0255716 -0.0535355 0.0342520
        -0.0255479 -0.0537273 0.0342520
        -0.0255149 -0.0539177 0.0342520
        -0.0254726 -0.0541062 0.0342520
        -0.0254210 -0.0542925 0.0342520
        -0.0253604 -0.0544759 0.0342520
        -0.0252909 -0.0546562 0.0342520
        -0.0252126 -0.0548329 0.0342520
        -0.0251257 -0.0550055 0.0342520
        -0.0250304 -0.0551736 0.0342520
        -0.0249270 -0.0553369 0.0342520
        -0.0248158 -0.0554949 0.0342520
        -0.0246969 -0.0556472 0.0342520
        -0.0245707 -0.0557935 0.0342520
        -0.0244374 -0.0559335 0.0342520
        -0.0242975 -0.0560667 0.0342520
        -0.0241512 -0.0561930 0.0342520
        -0.0239988 -0.0563118 0.0342520
        -0.0238408 -0.0564231 0.0342520
        -0.0236776 -0.0565265 0.0342520
        -0.0235094 -0.0566217 0.0342520
        -0.0233368 -0.0567086 0.0342520
        -0.0231602 -0.0567869 0.0342520
        -0.0229799 -0.0568565 0.0342520
        -0.0227964 -0.0569171 0.0342520
        -0.0226102 -0.0569686 0.0342520
        -0.0224216 -0.0570110 0.0342520
        -0.0222312 -0.0570440 0.0342520
        -0.0220394 -0.0570677 0.0342520
        -0.0218467 -0.0570819 0.0342520
        -0.0216535 -0.0570866 0.0342520
        -0.0106299 -0.0570866 0.0342520
        -0.0255906 -0.0421260 0.0342520
        -0.0216535 -0.0570866 0.0039370
        -0.0216535 -0.0570866 0.0342520
        -0.0218467 -0.0570819 0.0039370
        -0.0220394 -0.0570677 0.0039370
        -0.0222312 -0.0570440 0.0039370
        -0.0224216 -0.0570110 0.0039370
        -0.0226102 -0.0569686 0.0039370
        -0.0227964 -0.0569171 0.0039370
        -0.0229799 -0.0568565 0.0039370
        -0.0231602 -0.0567869 0.0039370
        -0.0233368 -0.0567086 0.0039370
        -0.0235094 -0.0566217 0.0039370
        -0.0236776 -0.0565265 0.0039370
        -0.0238408 -0.0564231 0.0039370
        -0.0239988 -0.0563118 0.0039370
        -0.0241512 -0.0561930 0.0039370
        -0.0242975 -0.0560667 0.0039370
        -0.0244374 -0.0559335 0.0039370
        -0.0245707 -0.0557935 0.0039370
        -0.0246969 -0.0556472 0.0039370
        -0.0248158 -0.0554949 0.0039370
        -0.0249270 -0.0553369 0.0039370
        -0.0250304 -0.0551736 0.0039370
        -0.0251257 -0.0550055 0.0039370
        -0.0252126 -0.0548329 0.0039370
        -0.0252909 -0.0546562 0.0039370
        -0.0253604 -0.0544759 0.0039370
        -0.0254210 -0.0542925 0.0039370
        -0.0254726 -0.0541062 0.0039370
        -0.0255149 -0.0539177 0.0039370
        -0.0255479 -0.0537273 0.0039370
        -0.0255716 -0.0535355 0.0039370
        -0.0255858 -0.0533428 0.0039370
        -0.0255906 -0.0531496 0.0039370
        -0.0255906 -0.0531496 0.0342520
        -0.0255858 -0.0533428 0.0342520
        -0.0255716 -0.0535355 0.0342520
        -0.0255479 -0.0537273 0.0342520
        -0.0255149 -0.0539177 0.0342520
        -0.0254726 -0.0541062 0.0342520
        -0.0254210 -0.0542925 0.0342520
        -0.0253604 -0.0544759 0.0342520
        -0.0252909 -0.0546562 0.0342520
        -0.0252126 -0.0548329 0.0342520
        -0.0251257 -0.0550055 0.0342520
        -0.0250304 -0.0551736 0.0342520
        -0.0249270 -0.0553369 0.0342520
        -0.0248158 -0.0554949 0.0342520
        -0.0246969 -0.0556472 0.0342520
        -0.0245707 -0.0557935 0.0342520
        -0.0244374 -0.0559335 0.0342520
        -0.0242975 -0.0560667 0.0342520
        -0.0241512 -0.0561930 0.0342520
        -0.0239988 -0.0563118 0.0342520
        -0.0238408 -0.0564231 0.0342520
        -0.0236776 -0.0565265 0.0342520
        -0.0235094 -0.0566217 0.0342520
        -0.0233368 -0.0567086 0.0342520
        -0.0231602 -0.0567869 0.0342520
        -0.0229799 -0.0568565 0.0342520
        -0.0227964 -0.0569171 0.0342520
        -0.0226102 -0.0569686 0.0342520
        -0.0224216 -0.0570110 0.0342520
        -0.0222312 -0.0570440 0.0342520
        -0.0220394 -0.0570677 0.0342520
        -0.0218467 -0.0570819 0.0342520
        -0.0255906 0.0531496 0.0039370
        -0.0255906 0.0531496 0.0385827
        -0.0255906 -0.0421260 0.0385827
        -0.0255906 -0.0421260 0.0342520
        -0.0255906 -0.0531496 0.0342520
        -0.0255906 -0.0531496 0.0039370
        0.0255906 -0.0531496 0.0039370
        0.0255906 -0.0531496 0.0385827
        0.0255906 0.0531496 0.0385827
        0.0255906 0.0531496 0.0039370
        -0.0216535 0.0570866 0.0039370
        -0.0216535 0.0570866 0.0385827
        -0.0218467 0.0570819 0.0039370
        -0.0220394 0.0570677 0.0039370
        -0.0222312 0.0570440 0.0039370
        -0.0224216 0.0570110 0.0039370
        -0.0226102 0.0569686 0.0039370
        -0.0227964 0.0569171 0.0039370
        -0.0229799 0.0568565 0.0039370
        -0.0231602 0.0567869 0.0039370
        -0.0233368 0.0567086 0.0039370
        -0.0235094 0.0566217 0.0039370
        -0.0236776 0.0565265 0.0039370
        -0.0238408 0.0564231 0.0039370
        -0.0239988 0.0563118 0.0039370
        -0.0241512 0.0561930 0.0039370
        -0.0242975 0.0560667 0.0039370
        -0.0244374 0.0559335 0.0039370
        -0.0245707 0.0557935 0.0039370
        -0.0246969 0.0556472 0.0039370
        -0.0248158 0.0554949 0.0039370
        -0.0249270 0.0553369 0.0039370
        -0.0250304 0.0551736 0.0039370
        -0.0251257 0.0550055 0.0039370
        -0.0252126 0.0548329 0.0039370
        -0.0252909 0.0546562 0.0039370
        -0.0253604 0.0544759 0.0039370
        -0.0254210 0.0542925 0.0039370
        -0.0254726 0.0541062 0.0039370
        -0.0255149 0.0539177 0.0039370
        -0.0255479 0.0537273 0.0039370
        -0.0255716 0.0535355 0.0039370
        -0.0255858 0.0533428 0.0039370
        -0.0255906 0.0531496 0.0039370
        -0.0255906 0.0531496 0.0385827
        -0.0218467 0.0570819 0.0385827
        -0.0220394 0.0570677 0.0385827
        -0.0222312 0.0570440 0.0385827
        -0.0224216 0.0570110 0.0385827
        -0.0226102 0.0569686 0.0385827
        -0.0227964 0.0569171 0.0385827
        -0.0229799 0.0568565 0.0385827
        -0.0231602 0.0567869 0.0385827
        -0.0233368 0.0567086 0.0385827
        -0.0235094 0.0566217 0.0385827
        -0.0236776 0.0565265 0.0385827
        -0.0238408 0.0564231 0.0385827
        -0.0239988 0.0563118 0.0385827
        -0.0241512 0.0561930 0.0385827
        -0.0242975 0.0560667 0.0385827
        -0.0244374 0.0559335 0.0385827
        -0.0245707 0.0557935 0.0385827
        -0.0246969 0.0556472 0.0385827
        -0.0248158 0.0554949 0.0385827
        -0.0249270 0.0553369 0.0385827
        -0.0250304 0.0551736 0.0385827
        -0.0251257 0.0550055 0.0385827
        -0.0252126 0.0548329 0.0385827
        -0.0252909 0.0546562 0.0385827
        -0.0253604 0.0544759 0.0385827
        -0.0254210 0.0542925 0.0385827
        -0.0254726 0.0541062 0.0385827
        -0.0255149 0.0539177 0.0385827
        -0.0255479 0.0537273 0.0385827
        -0.0255716 0.0535355 0.0385827
        -0.0255858 0.0533428 0.0385827
        0.0255906 0.0531496 0.0039370
        0.0255906 0.0531496 0.0385827
        0.0255858 0.0533428 0.0039370
        0.0255716 0.0535355 0.0039370
        0.0255479 0.0537273 0.0039370
        0.0255149 0.0539177 0.0039370
        0.0254726 0.0541062 0.0039370
        0.0254210 0.0542925 0.0039370
        0.0253604 0.0544759 0.0039370
        0.0252909 0.0546562 0.0039370
        0.0252126 0.0548329 0.0039370
        0.0251257 0.0550055 0.0039370
        0.0250304 0.0551736 0.0039370
        0.0249270 0.0553369 0.0039370
        0.0248158 0.0554949 0.0039370
        0.0246969 0.0556472 0.0039370
        0.0245707 0.0557935 0.0039370
        0.0244374 0.0559335 0.0039370
        0.0242975 0.0560667 0.0039370
        0.0241512 0.0561930 0.0039370
        0.0239988 0.0563118 0.0039370
        0.0238408 0.0564231 0.0039370
        0.0236776 0.0565265 0.0039370
        0.0235094 0.0566217 0.0039370
        0.0233368 0.0567086 0.0039370
        0.0231602 0.0567869 0.0039370
        0.0229799 0.0568565 0.0039370
        0.0227964 0.0569171 0.0039370
        0.0226102 0.0569686 0.0039370
        0.0224216 0.0570110 0.0039370
        0.0222312 0.0570440 0.0039370
        0.0220394 0.0570677 0.0039370
        0.0218467 0.0570819 0.0039370
        0.0216535 0.0570866 0.0039370
        0.0216535 0.0570866 0.0385827
        0.0255858 0.0533428 0.0385827
        0.0255716 0.0535355 0.0385827
        0.0255479 0.0537273 0.0385827
        0.0255149 0.0539177 0.0385827
        0.0254726 0.0541062 0.0385827
        0.0254210 0.0542925 0.0385827
        0.0253604 0.0544759 0.0385827
        0.0252909 0.0546562 0.0385827
        0.0252126 0.0548329 0.0385827
        0.0251257 0.0550055 0.0385827
        0.0250304 0.0551736 0.0385827
        0.0249270 0.0553369 0.0385827
        0.0248158 0.0554949 0.0385827
        0.0246969 0.0556472 0.0385827
        0.0245707 0.0557935 0.0385827
        0.0244374 0.0559335 0.0385827
        0.0242975 0.0560667 0.0385827
        0.0241512 0.0561930 0.0385827
        0.0239988 0.0563118 0.0385827
        0.0238408 0.0564231 0.0385827
        0.0236776 0.0565265 0.0385827
        0.0235094 0.0566217 0.0385827
        0.0233368 0.0567086 0.0385827
        0.0231602 0.0567869 0.0385827
        0.0229799 0.0568565 0.0385827
        0.0227964 0.0569171 0.0385827
        0.0226102 0.0569686 0.0385827
        0.0224216 0.0570110 0.0385827
        0.0222312 0.0570440 0.0385827
        0.0220394 0.0570677 0.0385827
        0.0218467 0.0570819 0.0385827
        0.0216535 0.0570866 0.0039370
        0.0216535 0.0570866 0.0385827
        -0.0216535 0.0570866 0.0385827
        -0.0216535 0.0570866 0.0039370
        0.0216535 -0.0570866 0.0385827
        0.0216535 -0.0543307 0.0413386
        0.0218467 -0.0570819 0.0385827
        0.0220394 -0.0570677 0.0385827
        0.0222312 -0.0570440 0.0385827
        0.0224216 -0.0570110 0.0385827
        0.0226102 -0.0569686 0.0385827
        0.0227964 -0.0569171 0.0385827
        0.0229799 -0.0568565 0.0385827
        0.0231602 -0.0567869 0.0385827
        0.0233368 -0.0567086 0.0385827
        0.0235094 -0.0566217 0.0385827
        0.0236776 -0.0565265 0.0385827
        0.0238408 -0.0564231 0.0385827
        0.0239988 -0.0563118 0.0385827
        0.0241512 -0.0561930 0.0385827
        0.0242975 -0.0560667 0.0385827
        0.0244374 -0.0559335 0.0385827
        0.0245707 -0.0557935 0.0385827
        0.0246969 -0.0556472 0.0385827
        0.0248158 -0.0554949 0.0385827
        0.0249270 -0.0553369 0.0385827
        0.0250304 -0.0551736 0.0385827
        0.0251257 -0.0550055 0.0385827
        0.0252126 -0.0548329 0.0385827
        0.0252909 -0.0546562 0.0385827
        0.0253604 -0.0544759 0.0385827
        0.0254210 -0.0542925 0.0385827
        0.0254726 -0.0541062 0.0385827
        0.0255149 -0.0539177 0.0385827
        0.0255479 -0.0537273 0.0385827
        0.0255716 -0.0535355 0.0385827
        0.0255858 -0.0533428 0.0385827
        0.0255906 -0.0531496 0.0385827
        0.0228346 -0.0531496 0.0413386
        0.0217858 -0.0543233 0.0413386
        0.0219164 -0.0543011 0.0413386
        0.0220436 -0.0542644 0.0413386
        0.0221660 -0.0542137 0.0413386
        0.0222819 -0.0541497 0.0413386
        0.0223899 -0.0540730 0.0413386
        0.0224887 -0.0539848 0.0413386
        0.0225770 -0.0538860 0.0413386
        0.0226536 -0.0537780 0.0413386
        0.0227177 -0.0536621 0.0413386
        0.0227684 -0.0535397 0.0413386
        0.0228050 -0.0534124 0.0413386
        0.0228272 -0.0532818 0.0413386
        0.0219944 -0.0566106 0.0390420
        0.0223320 -0.0565605 0.0390420
        0.0226631 -0.0564775 0.0390420
        0.0219494 -0.0561534 0.0395013
        0.0229844 -0.0563626 0.0390420
        0.0222424 -0.0561100 0.0395013
        0.0232929 -0.0562167 0.0390420
        0.0225297 -0.0560380 0.0395013
        0.0235856 -0.0560412 0.0390420
        0.0219044 -0.0556963 0.0399606
        0.0228086 -0.0559382 0.0395013
        0.0238598 -0.0558379 0.0390420
        0.0221528 -0.0556595 0.0399606
        0.0230764 -0.0558116 0.0395013
        0.0241126 -0.0556087 0.0390420
        0.0223964 -0.0555985 0.0399606
        0.0233305 -0.0556593 0.0395013
        0.0218594 -0.0552392 0.0404199
        0.0243418 -0.0553558 0.0390420
        0.0226329 -0.0555139 0.0399606
        0.0235684 -0.0554828 0.0395013
        0.0220632 -0.0552090 0.0404199
        0.0245451 -0.0550817 0.0390420
        0.0228599 -0.0554065 0.0399606
        0.0237879 -0.0552839 0.0395013
        0.0222631 -0.0551589 0.0404199
        0.0247206 -0.0547890 0.0390420
        0.0230753 -0.0552774 0.0399606
        0.0218143 -0.0547821 0.0408793
        0.0239868 -0.0550644 0.0395013
        0.0224571 -0.0550895 0.0404199
        0.0248665 -0.0544805 0.0390420
        0.0232770 -0.0551278 0.0399606
        0.0219736 -0.0547585 0.0408793
        0.0241632 -0.0548265 0.0395013
        0.0226434 -0.0550014 0.0404199
        0.0249815 -0.0541591 0.0390420
        0.0234631 -0.0549591 0.0399606
        0.0221297 -0.0547194 0.0408793
        0.0243155 -0.0545725 0.0395013
        0.0228201 -0.0548955 0.0404199
        0.0250644 -0.0538281 0.0390420
        0.0236317 -0.0547731 0.0399606
        0.0222813 -0.0546652 0.0408793
        0.0244422 -0.0543047 0.0395013
        0.0229856 -0.0547727 0.0404199
        0.0251145 -0.0534905 0.0390420
        0.0237813 -0.0545713 0.0399606
        0.0224268 -0.0545963 0.0408793
        0.0245419 -0.0540258 0.0395013
        0.0231383 -0.0546343 0.0404199
        0.0239104 -0.0543559 0.0399606
        0.0225649 -0.0545136 0.0408793
        0.0246139 -0.0537385 0.0395013
        0.0232767 -0.0544817 0.0404199
        0.0240178 -0.0541289 0.0399606
        0.0226942 -0.0544177 0.0408793
        0.0246574 -0.0534455 0.0395013
        0.0233994 -0.0543162 0.0404199
        0.0241024 -0.0538925 0.0399606
        0.0228135 -0.0543096 0.0408793
        0.0235053 -0.0541394 0.0404199
        0.0241634 -0.0536489 0.0399606
        0.0229216 -0.0541903 0.0408793
        0.0235934 -0.0539531 0.0404199
        0.0242003 -0.0534004 0.0399606
        0.0230175 -0.0540610 0.0408793
        0.0236629 -0.0537591 0.0404199
        0.0231003 -0.0539229 0.0408793
        0.0237129 -0.0535592 0.0404199
        0.0231691 -0.0537774 0.0408793
        0.0237432 -0.0533554 0.0404199
        0.0232233 -0.0536258 0.0408793
        0.0232624 -0.0534696 0.0408793
        0.0232861 -0.0533104 0.0408793
        -0.0228346 -0.0448819 0.0413386
        -0.0133858 -0.0543307 0.0413386
        0.0216535 -0.0543307 0.0413386
        0.0217858 -0.0543233 0.0413386
        0.0219164 -0.0543011 0.0413386
        0.0220436 -0.0542644 0.0413386
        0.0221660 -0.0542137 0.0413386
        0.0222819 -0.0541497 0.0413386
        0.0223899 -0.0540730 0.0413386
        0.0224887 -0.0539848 0.0413386
        0.0225770 -0.0538860 0.0413386
        0.0226536 -0.0537780 0.0413386
        0.0227177 -0.0536621 0.0413386
        0.0227684 -0.0535397 0.0413386
        0.0228050 -0.0534124 0.0413386
        0.0228272 -0.0532818 0.0413386
        0.0228346 -0.0531496 0.0413386
        0.0228346 0.0531496 0.0413386
        0.0228272 0.0532818 0.0413386
        0.0228050 0.0534124 0.0413386
        0.0227684 0.0535397 0.0413386
        0.0227177 0.0536621 0.0413386
        0.0226536 0.0537780 0.0413386
        0.0225770 0.0538860 0.0413386
        0.0224887 0.0539848 0.0413386
        0.0223899 0.0540730 0.0413386
        0.0222819 0.0541497 0.0413386
        0.0221660 0.0542137 0.0413386
        0.0220436 0.0542644 0.0413386
        0.0219164 0.0543011 0.0413386
        0.0217858 0.0543233 0.0413386
        0.0216535 0.0543307 0.0413386
        -0.0216535 0.0543307 0.0413386
        -0.0217858 0.0543233 0.0413386
        -0.0219164 0.0543011 0.0413386
        -0.0220436 0.0542644 0.0413386
        -0.0221660 0.0542137 0.0413386
        -0.0222819 0.0541497 0.0413386
        -0.0223899 0.0540730 0.0413386
        -0.0224887 0.0539848 0.0413386
        -0.0225770 0.0538860 0.0413386
        -0.0226536 0.0537780 0.0413386
        -0.0227177 0.0536621 0.0413386
        -0.0227684 0.0535397 0.0413386
        -0.0228050 0.0534124 0.0413386
        -0.0228272 0.0532818 0.0413386
        -0.0228346 0.0531496 0.0413386
        -0.0255906 0.0531496 0.0385827
        -0.0228346 0.0531496 0.0413386
        -0.0255906 -0.0421260 0.0385827
        -0.0228346 -0.0448819 0.0413386
        0.0255906 -0.0531496 0.0385827
        0.0228346 -0.0531496 0.0413386
        0.0255906 0.0531496 0.0385827
        0.0228346 0.0531496 0.0413386
        -0.0216535 0.0570866 0.0385827
        -0.0216535 0.0543307 0.0413386
        -0.0218467 0.0570819 0.0385827
        -0.0220394 0.0570677 0.0385827
        -0.0222312 0.0570440 0.0385827
        -0.0224216 0.0570110 0.0385827
        -0.0226102 0.0569686 0.0385827
        -0.0227964 0.0569171 0.0385827
        -0.0229799 0.0568565 0.0385827
        -0.0231602 0.0567869 0.0385827
        -0.0233368 0.0567086 0.0385827
        -0.0235094 0.0566217 0.0385827
        -0.0236776 0.0565265 0.0385827
        -0.0238408 0.0564231 0.0385827
        -0.0239988 0.0563118 0.0385827
        -0.0241512 0.0561930 0.0385827
        -0.0242975 0.0560667 0.0385827
        -0.0244374 0.0559335 0.0385827
        -0.0245707 0.0557935 0.0385827
        -0.0246969 0.0556472 0.0385827
        -0.0248158 0.0554949 0.0385827
        -0.0249270 0.0553369 0.0385827
        -0.0250304 0.0551736 0.0385827
        -0.0251257 0.0550055 0.0385827
        -0.0252126 0.0548329 0.0385827
        -0.0252909 0.0546562 0.0385827
        -0.0253604 0.0544759 0.0385827
        -0.0254210 0.0542925 0.0385827
        -0.0254726 0.0541062 0.0385827
        -0.0255149 0.0539177 0.0385827
        -0.0255479 0.0537273 0.0385827
        -0.0255716 0.0535355 0.0385827
        -0.0255858 0.0533428 0.0385827
        -0.0255906 0.0531496 0.0385827
        -0.0228346 0.0531496 0.0413386
        -0.0217858 0.0543233 0.0413386
        -0.0219164 0.0543011 0.0413386
        -0.0220436 0.0542644 0.0413386
        -0.0221660 0.0542137 0.0413386
        -0.0222819 0.0541497 0.0413386
        -0.0223899 0.0540730 0.0413386
        -0.0224887 0.0539848 0.0413386
        -0.0225770 0.0538860 0.0413386
        -0.0226536 0.0537780 0.0413386
        -0.0227177 0.0536621 0.0413386
        -0.0227684 0.0535397 0.0413386
        -0.0228050 0.0534124 0.0413386
        -0.0228272 0.0532818 0.0413386
        -0.0219944 0.0566106 0.0390420
        -0.0223320 0.0565605 0.0390420
        -0.0226631 0.0564775 0.0390420
        -0.0219494 0.0561534 0.0395013
        -0.0229844 0.0563626 0.0390420
        -0.0222424 0.0561100 0.0395013
        -0.0232929 0.0562167 0.0390420
        -0.0225297 0.0560380 0.0395013
        -0.0235856 0.0560412 0.0390420
        -0.0219044 0.0556963 0.0399606
        -0.0228086 0.0559382 0.0395013
        -0.0238598 0.0558379 0.0390420
        -0.0221528 0.0556595 0.0399606
        -0.0230764 0.0558116 0.0395013
        -0.0241126 0.0556087 0.0390420
        -0.0223964 0.0555985 0.0399606
        -0.0233305 0.0556593 0.0395013
        -0.0218594 0.0552392 0.0404199
        -0.0243418 0.0553558 0.0390420
        -0.0226329 0.0555139 0.0399606
        -0.0235684 0.0554828 0.0395013
        -0.0220632 0.0552090 0.0404199
        -0.0245451 0.0550817 0.0390420
        -0.0228599 0.0554065 0.0399606
        -0.0237879 0.0552839 0.0395013
        -0.0222631 0.0551589 0.0404199
        -0.0247206 0.0547890 0.0390420
        -0.0230753 0.0552774 0.0399606
        -0.0218143 0.0547821 0.0408793
        -0.0239868 0.0550644 0.0395013
        -0.0224571 0.0550895 0.0404199
        -0.0248665 0.0544805 0.0390420
        -0.0232770 0.0551278 0.0399606
        -0.0219736 0.0547585 0.0408793
        -0.0241632 0.0548265 0.0395013
        -0.0226434 0.0550014 0.0404199
        -0.0249815 0.0541591 0.0390420
        -0.0234631 0.0549591 0.0399606
        -0.0221297 0.0547194 0.0408793
        -0.0243155 0.0545725 0.0395013
        -0.0228201 0.0548955 0.0404199
        -0.0250644 0.0538281 0.0390420
        -0.0236317 0.0547731 0.0399606
        -0.0222813 0.0546652 0.0408793
        -0.0244422 0.0543047 0.0395013
        -0.0229856 0.0547727 0.0404199
        -0.0251145 0.0534905 0.0390420
        -0.0237813 0.0545713 0.0399606
        -0.0224268 0.0545963 0.0408793
        -0.0245419 0.0540258 0.0395013
        -0.0231383 0.0546343 0.0404199
        -0.0239104 0.0543559 0.0399606
        -0.0225649 0.0545136 0.0408793
        -0.0246139 0.0537385 0.0395013
        -0.0232767 0.0544817 0.0404199
        -0.0240178 0.0541289 0.0399606
        -0.0226942 0.0544177 0.0408793
        -0.0246574 0.0534455 0.0395013
        -0.0233994 0.0543162 0.0404199
        -0.0241024 0.0538925 0.0399606
        -0.0228135 0.0543096 0.0408793
        -0.0235053 0.0541394 0.0404199
        -0.0241634 0.0536489 0.0399606
        -0.0229216 0.0541903 0.0408793
        -0.0235934 0.0539531 0.0404199
        -0.0242003 0.0534004 0.0399606
        -0.0230175 0.0540610 0.0408793
        -0.0236629 0.0537591 0.0404199
        -0.0231003 0.0539229 0.0408793
        -0.0237129 0.0535592 0.0404199
        -0.0231691 0.0537774 0.0408793
        -0.0237432 0.0533554 0.0404199
        -0.0232233 0.0536258 0.0408793
        -0.0232624 0.0534696 0.0408793
        -0.0232861 0.0533104 0.0408793
        0.0255906 0.0531496 0.0385827
        0.0228346 0.0531496 0.0413386
        0.0255858 0.0533428 0.0385827
        0.0255716 0.0535355 0.0385827
        0.0255479 0.0537273 0.0385827
        0.0255149 0.0539177 0.0385827
        0.0254726 0.0541062 0.0385827
        0.0254210 0.0542925 0.0385827
        0.0253604 0.0544759 0.0385827
        0.0252909 0.0546562 0.0385827
        0.0252126 0.0548329 0.0385827
        0.0251257 0.0550055 0.0385827
        0.0250304 0.0551736 0.0385827
        0.0249270 0.0553369 0.0385827
        0.0248158 0.0554949 0.0385827
        0.0246969 0.0556472 0.0385827
        0.0245707 0.0557935 0.0385827
        0.0244374 0.0559335 0.0385827
        0.0242975 0.0560667 0.0385827
        0.0241512 0.0561930 0.0385827
        0.0239988 0.0563118 0.0385827
        0.0238408 0.0564231 0.0385827
        0.0236776 0.0565265 0.0385827
        0.0235094 0.0566217 0.0385827
        0.0233368 0.0567086 0.0385827
        0.0231602 0.0567869 0.0385827
        0.0229799 0.0568565 0.0385827
        0.0227964 0.0569171 0.0385827
        0.0226102 0.0569686 0.0385827
        0.0224216 0.0570110 0.0385827
        0.0222312 0.0570440 0.0385827
        0.0220394 0.0570677 0.0385827
        0.0218467 0.0570819 0.0385827
        0.0216535 0.0570866 0.0385827
        0.0216535 0.0543307 0.0413386
        0.0228272 0.0532818 0.0413386
        0.0228050 0.0534124 0.0413386
        0.0227684 0.0535397 0.0413386
        0.0227177 0.0536621 0.0413386
        0.0226536 0.0537780 0.0413386
        0.0225770 0.0538860 0.0413386
        0.0224887 0.0539848 0.0413386
        0.0223899 0.0540730 0.0413386
        0.0222819 0.0541497 0.0413386
        0.0221660 0.0542137 0.0413386
        0.0220436 0.0542644 0.0413386
        0.0219164 0.0543011 0.0413386
        0.0217858 0.0543233 0.0413386
        0.0251145 0.0534905 0.0390420
        0.0250644 0.0538281 0.0390420
        0.0249815 0.0541591 0.0390420
        0.0246574 0.0534455 0.0395013
        0.0248665 0.0544805 0.0390420
        0.0246139 0.0537385 0.0395013
        0.0247206 0.0547890 0.0390420
        0.0245419 0.0540258 0.0395013
        0.0245451 0.0550817 0.0390420
        0.0242003 0.0534004 0.0399606
        0.0244422 0.0543047 0.0395013
        0.0243418 0.0553558 0.0390420
        0.0241634 0.0536489 0.0399606
        0.0243155 0.0545725 0.0395013
        0.0241126 0.0556087 0.0390420
        0.0241024 0.0538925 0.0399606
        0.0241632 0.0548265 0.0395013
        0.0237432 0.0533554 0.0404199
        0.0238598 0.0558379 0.0390420
        0.0240178 0.0541289 0.0399606
        0.0239868 0.0550644 0.0395013
        0.0237129 0.0535592 0.0404199
        0.0235856 0.0560412 0.0390420
        0.0239104 0.0543559 0.0399606
        0.0237879 0.0552839 0.0395013
        0.0236629 0.0537591 0.0404199
        0.0232929 0.0562167 0.0390420
        0.0237813 0.0545713 0.0399606
        0.0232861 0.0533104 0.0408793
        0.0235684 0.0554828 0.0395013
        0.0235934 0.0539531 0.0404199
        0.0229844 0.0563626 0.0390420
        0.0236317 0.0547731 0.0399606
        0.0232624 0.0534696 0.0408793
        0.0233305 0.0556593 0.0395013
        0.0235053 0.0541394 0.0404199
        0.0226631 0.0564775 0.0390420
        0.0234631 0.0549591 0.0399606
        0.0232233 0.0536258 0.0408793
        0.0230764 0.0558116 0.0395013
        0.0233994 0.0543162 0.0404199
        0.0223320 0.0565605 0.0390420
        0.0232770 0.0551278 0.0399606
        0.0231691 0.0537774 0.0408793
        0.0228086 0.0559382 0.0395013
        0.0232767 0.0544817 0.0404199
        0.0219944 0.0566106 0.0390420
        0.0230753 0.0552774 0.0399606
        0.0231003 0.0539229 0.0408793
        0.0225297 0.0560380 0.0395013
        0.0231383 0.0546343 0.0404199
        0.0228599 0.0554065 0.0399606
        0.0230175 0.0540610 0.0408793
        0.0222424 0.0561100 0.0395013
        0.0229856 0.0547727 0.0404199
        0.0226329 0.0555139 0.0399606
        0.0229216 0.0541903 0.0408793
        0.0219494 0.0561534 0.0395013
        0.0228201 0.0548955 0.0404199
        0.0223964 0.0555985 0.0399606
        0.0228135 0.0543096 0.0408793
        0.0226434 0.0550014 0.0404199
        0.0221528 0.0556595 0.0399606
        0.0226942 0.0544177 0.0408793
        0.0224571 0.0550895 0.0404199
        0.0219044 0.0556963 0.0399606
        0.0225649 0.0545136 0.0408793
        0.0222631 0.0551589 0.0404199
        0.0224268 0.0545963 0.0408793
        0.0220632 0.0552090 0.0404199
        0.0222813 0.0546652 0.0408793
        0.0218594 0.0552392 0.0404199
        0.0221297 0.0547194 0.0408793
        0.0219736 0.0547585 0.0408793
        0.0218143 0.0547821 0.0408793
        0.0216535 0.0570866 0.0385827
        0.0216535 0.0543307 0.0413386
        -0.0216535 0.0570866 0.0385827
        -0.0216535 0.0543307 0.0413386
      ] }
      coordIndex [
        0 3 2 -1
        5 4 3 -1
        1 3 0 -1
        1 5 3 -1
        108 109 110 -1
        108 110 111 -1
        6 107 108 -1
        6 111 112 -1
        6 112 113 -1
        6 113 114 -1
        6 114 115 -1
        6 115 116 -1
        6 116 117 -1
        6 117 118 -1
        6 118 119 -1
        6 119 120 -1
        6 120 121 -1
        6 108 111 -1
        106 121 122 -1
        106 122 123 -1
        106 123 124 -1
        106 124 125 -1
        106 125 126 -1
        106 126 127 -1
        106 127 128 -1
        106 128 129 -1
        106 129 130 -1
        106 130 131 -1
        106 131 132 -1
        106 132 133 -1
        106 133 134 -1
        106 134 135 -1
        106 135 136 -1
        106 136 137 -1
        106 6 121 -1
        10 8 7 -1
        10 9 8 -1
        12 11 10 -1
        13 10 7 -1
        13 12 10 -1
        16 15 14 -1
        17 13 7 -1
        17 14 13 -1
        17 16 14 -1
        20 18 17 -1
        20 19 18 -1
        21 17 7 -1
        21 20 17 -1
        23 22 21 -1
        24 23 21 -1
        26 25 24 -1
        27 24 21 -1
        27 26 24 -1
        28 27 21 -1
        29 28 21 -1
        31 30 29 -1
        33 32 31 -1
        33 29 21 -1
        33 31 29 -1
        36 34 33 -1
        36 35 34 -1
        38 37 36 -1
        39 6 106 -1
        39 7 6 -1
        39 21 7 -1
        39 33 21 -1
        39 36 33 -1
        39 38 36 -1
        103 105 104 -1
        101 105 103 -1
        101 103 102 -1
        99 105 101 -1
        99 101 100 -1
        97 105 99 -1
        97 99 98 -1
        95 97 96 -1
        94 97 95 -1
        93 97 94 -1
        92 97 93 -1
        90 92 91 -1
        90 97 92 -1
        87 89 88 -1
        86 89 87 -1
        86 90 89 -1
        85 90 86 -1
        85 97 90 -1
        83 85 84 -1
        82 85 83 -1
        80 85 82 -1
        80 82 81 -1
        79 85 80 -1
        77 85 79 -1
        77 79 78 -1
        74 76 75 -1
        74 77 76 -1
        73 97 85 -1
        73 85 77 -1
        73 77 74 -1
        73 105 97 -1
        40 105 73 -1
        40 39 106 -1
        40 73 72 -1
        40 106 105 -1
        41 40 72 -1
        41 72 71 -1
        43 42 41 -1
        68 70 69 -1
        45 44 43 -1
        45 43 41 -1
        67 70 68 -1
        67 71 70 -1
        65 71 67 -1
        65 67 66 -1
        48 46 45 -1
        48 47 46 -1
        50 49 48 -1
        62 64 63 -1
        51 45 41 -1
        51 50 48 -1
        51 48 45 -1
        61 65 64 -1
        61 64 62 -1
        61 71 65 -1
        60 71 61 -1
        53 52 51 -1
        58 60 59 -1
        58 71 60 -1
        55 54 53 -1
        55 53 51 -1
        56 41 71 -1
        56 58 57 -1
        56 51 41 -1
        56 71 58 -1
        56 55 51 -1
        173 139 138 -1
        173 138 140 -1
        174 140 141 -1
        174 173 140 -1
        175 141 142 -1
        175 142 143 -1
        175 174 141 -1
        176 175 143 -1
        177 143 144 -1
        177 176 143 -1
        178 144 145 -1
        178 145 146 -1
        178 177 144 -1
        179 146 147 -1
        179 178 146 -1
        180 179 147 -1
        180 147 148 -1
        181 180 148 -1
        182 148 149 -1
        182 181 148 -1
        183 149 150 -1
        183 182 149 -1
        184 150 151 -1
        184 183 150 -1
        185 151 152 -1
        185 184 151 -1
        186 152 153 -1
        186 185 152 -1
        187 153 154 -1
        187 154 155 -1
        187 186 153 -1
        188 187 155 -1
        189 155 156 -1
        189 188 155 -1
        190 156 157 -1
        190 189 156 -1
        191 157 158 -1
        191 190 157 -1
        192 158 159 -1
        192 191 158 -1
        193 159 160 -1
        193 160 161 -1
        193 192 159 -1
        194 193 161 -1
        195 161 162 -1
        195 162 163 -1
        195 194 161 -1
        196 195 163 -1
        197 163 164 -1
        197 196 163 -1
        198 164 165 -1
        198 165 166 -1
        198 197 164 -1
        199 198 166 -1
        200 166 167 -1
        200 199 166 -1
        201 167 168 -1
        201 200 167 -1
        202 168 169 -1
        202 201 168 -1
        203 169 170 -1
        203 170 171 -1
        203 202 169 -1
        172 203 171 -1
        207 204 205 -1
        207 205 206 -1
        208 210 211 -1
        209 211 212 -1
        209 212 213 -1
        209 208 211 -1
        246 232 233 -1
        246 233 234 -1
        246 234 235 -1
        246 235 236 -1
        246 236 237 -1
        246 237 238 -1
        246 238 239 -1
        246 239 240 -1
        246 240 241 -1
        246 241 242 -1
        246 242 243 -1
        246 243 244 -1
        246 244 245 -1
        214 215 216 -1
        214 216 217 -1
        214 217 218 -1
        214 218 219 -1
        214 219 220 -1
        214 220 221 -1
        214 221 222 -1
        214 222 223 -1
        214 223 224 -1
        214 224 225 -1
        214 225 226 -1
        214 226 227 -1
        214 227 228 -1
        214 228 229 -1
        214 229 230 -1
        214 230 231 -1
        214 231 232 -1
        214 232 246 -1
        248 246 247 -1
        248 214 246 -1
        250 251 249 -1
        314 252 251 -1
        314 251 250 -1
        313 253 252 -1
        313 252 314 -1
        312 254 253 -1
        312 253 313 -1
        311 255 254 -1
        311 254 312 -1
        310 256 255 -1
        310 255 311 -1
        309 257 256 -1
        309 256 310 -1
        308 258 257 -1
        308 257 309 -1
        307 258 308 -1
        307 259 258 -1
        306 259 307 -1
        306 260 259 -1
        305 261 260 -1
        305 260 306 -1
        304 262 261 -1
        304 261 305 -1
        303 263 262 -1
        303 262 304 -1
        302 264 263 -1
        302 263 303 -1
        301 265 264 -1
        301 264 302 -1
        300 266 265 -1
        300 265 301 -1
        299 267 266 -1
        299 266 300 -1
        298 268 267 -1
        298 267 299 -1
        297 269 268 -1
        297 268 298 -1
        296 270 269 -1
        296 269 297 -1
        295 271 270 -1
        295 270 296 -1
        294 272 271 -1
        294 271 295 -1
        293 273 272 -1
        293 272 294 -1
        292 273 293 -1
        291 274 273 -1
        291 275 274 -1
        291 273 292 -1
        290 276 275 -1
        290 275 291 -1
        289 276 290 -1
        288 277 276 -1
        288 276 289 -1
        287 278 277 -1
        287 277 288 -1
        286 279 278 -1
        286 278 287 -1
        285 280 279 -1
        285 279 286 -1
        284 281 280 -1
        284 280 285 -1
        283 282 281 -1
        283 281 284 -1
        318 316 315 -1
        318 317 316 -1
        320 319 318 -1
        320 318 315 -1
        324 322 321 -1
        324 323 322 -1
        326 325 327 -1
        360 327 328 -1
        360 326 327 -1
        361 328 329 -1
        361 360 328 -1
        362 329 330 -1
        362 361 329 -1
        363 330 331 -1
        363 362 330 -1
        364 331 332 -1
        364 363 331 -1
        365 332 333 -1
        365 364 332 -1
        366 333 334 -1
        366 365 333 -1
        367 366 334 -1
        367 334 335 -1
        368 367 335 -1
        368 335 336 -1
        369 336 337 -1
        369 368 336 -1
        370 337 338 -1
        370 369 337 -1
        371 338 339 -1
        371 370 338 -1
        372 339 340 -1
        372 371 339 -1
        373 340 341 -1
        373 372 340 -1
        374 341 342 -1
        374 373 341 -1
        375 342 343 -1
        375 374 342 -1
        376 343 344 -1
        376 375 343 -1
        377 344 345 -1
        377 376 344 -1
        378 345 346 -1
        378 377 345 -1
        379 346 347 -1
        379 378 346 -1
        380 347 348 -1
        380 379 347 -1
        381 348 349 -1
        381 380 348 -1
        382 349 350 -1
        382 381 349 -1
        383 350 351 -1
        383 382 350 -1
        384 383 351 -1
        385 351 352 -1
        385 352 353 -1
        385 384 351 -1
        386 353 354 -1
        386 385 353 -1
        387 354 355 -1
        387 386 354 -1
        388 387 355 -1
        389 355 356 -1
        389 356 357 -1
        389 388 355 -1
        390 357 358 -1
        390 389 357 -1
        359 390 358 -1
        426 392 391 -1
        426 391 393 -1
        427 393 394 -1
        427 426 393 -1
        428 394 395 -1
        428 427 394 -1
        429 395 396 -1
        429 428 395 -1
        430 396 397 -1
        430 429 396 -1
        431 397 398 -1
        431 430 397 -1
        432 398 399 -1
        432 431 398 -1
        433 399 400 -1
        433 432 399 -1
        434 433 400 -1
        434 400 401 -1
        435 401 402 -1
        435 434 401 -1
        436 402 403 -1
        436 435 402 -1
        436 403 404 -1
        437 436 404 -1
        438 404 405 -1
        438 437 404 -1
        439 405 406 -1
        439 438 405 -1
        440 406 407 -1
        440 407 408 -1
        440 439 406 -1
        441 408 409 -1
        441 440 408 -1
        442 409 410 -1
        442 441 409 -1
        443 410 411 -1
        443 442 410 -1
        444 411 412 -1
        444 443 411 -1
        445 412 413 -1
        445 444 412 -1
        446 413 414 -1
        446 445 413 -1
        447 414 415 -1
        447 446 414 -1
        448 415 416 -1
        448 447 415 -1
        449 448 416 -1
        450 416 417 -1
        450 417 418 -1
        450 449 416 -1
        451 418 419 -1
        451 450 418 -1
        452 451 419 -1
        453 419 420 -1
        453 420 421 -1
        453 452 419 -1
        454 453 421 -1
        455 421 422 -1
        455 422 423 -1
        455 454 421 -1
        456 423 424 -1
        456 455 423 -1
        425 456 424 -1
        460 458 457 -1
        460 459 458 -1
        509 461 463 -1
        509 463 464 -1
        509 464 465 -1
        510 465 466 -1
        510 466 467 -1
        510 509 465 -1
        511 510 467 -1
        511 467 468 -1
        511 468 469 -1
        512 461 509 -1
        513 469 470 -1
        513 470 471 -1
        513 511 469 -1
        514 509 510 -1
        514 512 509 -1
        515 471 472 -1
        515 472 473 -1
        515 513 471 -1
        516 514 510 -1
        516 510 511 -1
        517 473 474 -1
        517 474 475 -1
        517 515 473 -1
        518 462 461 -1
        518 461 512 -1
        519 511 513 -1
        519 516 511 -1
        520 475 476 -1
        520 476 477 -1
        520 517 475 -1
        521 518 512 -1
        521 512 514 -1
        522 513 515 -1
        522 519 513 -1
        523 520 477 -1
        523 477 478 -1
        523 478 479 -1
        524 521 514 -1
        524 514 516 -1
        525 522 515 -1
        525 515 517 -1
        526 462 518 -1
        527 479 480 -1
        527 480 481 -1
        527 523 479 -1
        528 524 516 -1
        528 516 519 -1
        529 525 517 -1
        529 517 520 -1
        530 518 521 -1
        530 526 518 -1
        531 481 482 -1
        531 482 483 -1
        531 527 481 -1
        532 528 519 -1
        532 519 522 -1
        533 520 523 -1
        533 529 520 -1
        534 521 524 -1
        534 530 521 -1
        535 483 484 -1
        535 484 485 -1
        535 531 483 -1
        536 522 525 -1
        536 532 522 -1
        537 496 462 -1
        537 462 526 -1
        538 523 527 -1
        538 533 523 -1
        539 524 528 -1
        539 534 524 -1
        540 485 486 -1
        540 486 487 -1
        540 535 485 -1
        541 525 529 -1
        541 536 525 -1
        542 537 526 -1
        542 526 530 -1
        542 497 496 -1
        542 496 537 -1
        543 538 527 -1
        543 527 531 -1
        544 528 532 -1
        544 539 528 -1
        545 487 488 -1
        545 488 489 -1
        545 540 487 -1
        546 541 529 -1
        546 529 533 -1
        547 498 497 -1
        547 530 534 -1
        547 497 542 -1
        547 542 530 -1
        548 531 535 -1
        548 543 531 -1
        549 532 536 -1
        549 544 532 -1
        550 545 489 -1
        550 489 490 -1
        550 490 491 -1
        551 533 538 -1
        551 546 533 -1
        552 499 498 -1
        552 534 539 -1
        552 547 534 -1
        552 498 547 -1
        553 548 535 -1
        553 535 540 -1
        554 549 536 -1
        554 536 541 -1
        555 491 492 -1
        555 492 493 -1
        555 493 494 -1
        555 550 491 -1
        556 551 538 -1
        556 538 543 -1
        557 499 552 -1
        557 552 539 -1
        557 500 499 -1
        557 539 544 -1
        558 553 540 -1
        558 540 545 -1
        559 554 541 -1
        559 541 546 -1
        560 556 543 -1
        560 543 548 -1
        561 557 544 -1
        561 501 500 -1
        561 544 549 -1
        561 500 557 -1
        562 558 545 -1
        562 545 550 -1
        563 546 551 -1
        563 559 546 -1
        564 560 548 -1
        564 548 553 -1
        565 501 561 -1
        565 502 501 -1
        565 561 549 -1
        565 549 554 -1
        566 550 555 -1
        566 555 494 -1
        566 562 550 -1
        567 563 551 -1
        567 551 556 -1
        568 553 558 -1
        568 564 553 -1
        569 554 559 -1
        569 565 554 -1
        569 502 565 -1
        570 556 560 -1
        570 567 556 -1
        571 568 558 -1
        571 558 562 -1
        572 503 502 -1
        572 559 563 -1
        572 502 569 -1
        572 569 559 -1
        573 570 560 -1
        573 560 564 -1
        574 566 494 -1
        574 494 495 -1
        574 562 566 -1
        574 571 562 -1
        575 503 572 -1
        575 504 503 -1
        575 563 567 -1
        575 572 563 -1
        576 564 568 -1
        576 573 564 -1
        577 505 504 -1
        577 504 575 -1
        577 567 570 -1
        577 575 567 -1
        578 576 568 -1
        578 568 571 -1
        579 506 505 -1
        579 570 573 -1
        579 577 570 -1
        579 505 577 -1
        580 574 495 -1
        580 571 574 -1
        580 578 571 -1
        581 506 579 -1
        581 579 573 -1
        581 507 506 -1
        581 573 576 -1
        582 581 576 -1
        582 508 507 -1
        582 576 578 -1
        582 507 581 -1
        583 578 580 -1
        583 582 578 -1
        583 508 582 -1
        583 495 508 -1
        583 580 495 -1
        588 586 587 -1
        589 586 588 -1
        592 590 591 -1
        594 592 593 -1
        594 590 592 -1
        597 595 596 -1
        598 594 595 -1
        598 595 597 -1
        598 590 594 -1
        599 589 590 -1
        599 590 598 -1
        600 584 585 -1
        600 585 586 -1
        600 586 589 -1
        600 589 599 -1
        626 627 628 -1
        626 628 629 -1
        625 629 630 -1
        625 626 629 -1
        623 624 625 -1
        623 625 630 -1
        622 623 630 -1
        618 619 620 -1
        618 620 621 -1
        618 621 622 -1
        618 622 630 -1
        616 618 630 -1
        616 617 618 -1
        601 630 584 -1
        601 584 600 -1
        615 616 630 -1
        615 630 601 -1
        611 612 613 -1
        606 601 602 -1
        606 602 603 -1
        606 603 604 -1
        606 604 605 -1
        610 613 614 -1
        610 614 615 -1
        610 611 613 -1
        608 615 601 -1
        608 606 607 -1
        608 609 610 -1
        608 601 606 -1
        608 610 615 -1
        633 632 631 -1
        634 632 633 -1
        638 636 635 -1
        638 635 637 -1
        687 639 641 -1
        687 641 642 -1
        687 642 643 -1
        688 643 644 -1
        688 644 645 -1
        688 687 643 -1
        689 688 645 -1
        689 645 646 -1
        689 646 647 -1
        690 639 687 -1
        691 647 648 -1
        691 648 649 -1
        691 689 647 -1
        692 687 688 -1
        692 690 687 -1
        693 649 650 -1
        693 650 651 -1
        693 691 649 -1
        694 692 688 -1
        694 688 689 -1
        695 651 652 -1
        695 652 653 -1
        695 693 651 -1
        696 640 639 -1
        696 639 690 -1
        697 689 691 -1
        697 694 689 -1
        698 653 654 -1
        698 654 655 -1
        698 695 653 -1
        699 696 690 -1
        699 690 692 -1
        700 691 693 -1
        700 697 691 -1
        701 698 655 -1
        701 655 656 -1
        701 656 657 -1
        702 699 692 -1
        702 692 694 -1
        703 700 693 -1
        703 693 695 -1
        704 640 696 -1
        705 657 658 -1
        705 658 659 -1
        705 701 657 -1
        706 702 694 -1
        706 694 697 -1
        707 703 695 -1
        707 695 698 -1
        708 696 699 -1
        708 704 696 -1
        709 659 660 -1
        709 660 661 -1
        709 705 659 -1
        710 706 697 -1
        710 697 700 -1
        711 698 701 -1
        711 707 698 -1
        712 699 702 -1
        712 708 699 -1
        713 661 662 -1
        713 662 663 -1
        713 709 661 -1
        714 700 703 -1
        714 710 700 -1
        715 674 640 -1
        715 640 704 -1
        716 701 705 -1
        716 711 701 -1
        717 702 706 -1
        717 712 702 -1
        718 663 664 -1
        718 664 665 -1
        718 713 663 -1
        719 703 707 -1
        719 714 703 -1
        720 715 704 -1
        720 704 708 -1
        720 675 674 -1
        720 674 715 -1
        721 716 705 -1
        721 705 709 -1
        722 706 710 -1
        722 717 706 -1
        723 665 666 -1
        723 666 667 -1
        723 718 665 -1
        724 719 707 -1
        724 707 711 -1
        725 676 675 -1
        725 708 712 -1
        725 675 720 -1
        725 720 708 -1
        726 709 713 -1
        726 721 709 -1
        727 710 714 -1
        727 722 710 -1
        728 723 667 -1
        728 667 668 -1
        728 668 669 -1
        729 711 716 -1
        729 724 711 -1
        730 677 676 -1
        730 712 717 -1
        730 725 712 -1
        730 676 725 -1
        731 726 713 -1
        731 713 718 -1
        732 727 714 -1
        732 714 719 -1
        733 669 670 -1
        733 670 671 -1
        733 671 672 -1
        733 728 669 -1
        734 729 716 -1
        734 716 721 -1
        735 677 730 -1
        735 730 717 -1
        735 678 677 -1
        735 717 722 -1
        736 731 718 -1
        736 718 723 -1
        737 732 719 -1
        737 719 724 -1
        738 734 721 -1
        738 721 726 -1
        739 735 722 -1
        739 679 678 -1
        739 722 727 -1
        739 678 735 -1
        740 736 723 -1
        740 723 728 -1
        741 724 729 -1
        741 737 724 -1
        742 738 726 -1
        742 726 731 -1
        743 679 739 -1
        743 680 679 -1
        743 739 727 -1
        743 727 732 -1
        744 728 733 -1
        744 733 672 -1
        744 740 728 -1
        745 741 729 -1
        745 729 734 -1
        746 731 736 -1
        746 742 731 -1
        747 732 737 -1
        747 743 732 -1
        747 680 743 -1
        748 734 738 -1
        748 745 734 -1
        749 746 736 -1
        749 736 740 -1
        750 681 680 -1
        750 737 741 -1
        750 680 747 -1
        750 747 737 -1
        751 748 738 -1
        751 738 742 -1
        752 744 672 -1
        752 672 673 -1
        752 740 744 -1
        752 749 740 -1
        753 681 750 -1
        753 682 681 -1
        753 741 745 -1
        753 750 741 -1
        754 742 746 -1
        754 751 742 -1
        755 683 682 -1
        755 682 753 -1
        755 745 748 -1
        755 753 745 -1
        756 754 746 -1
        756 746 749 -1
        757 684 683 -1
        757 748 751 -1
        757 755 748 -1
        757 683 755 -1
        758 752 673 -1
        758 749 752 -1
        758 756 749 -1
        759 684 757 -1
        759 757 751 -1
        759 685 684 -1
        759 751 754 -1
        760 759 754 -1
        760 686 685 -1
        760 754 756 -1
        760 685 759 -1
        761 756 758 -1
        761 760 756 -1
        761 686 760 -1
        761 673 686 -1
        761 758 673 -1
        810 762 764 -1
        810 764 765 -1
        810 765 766 -1
        811 766 767 -1
        811 767 768 -1
        811 810 766 -1
        812 811 768 -1
        812 768 769 -1
        812 769 770 -1
        813 762 810 -1
        814 770 771 -1
        814 771 772 -1
        814 812 770 -1
        815 810 811 -1
        815 813 810 -1
        816 772 773 -1
        816 773 774 -1
        816 814 772 -1
        817 815 811 -1
        817 811 812 -1
        818 774 775 -1
        818 775 776 -1
        818 816 774 -1
        819 763 762 -1
        819 762 813 -1
        820 812 814 -1
        820 817 812 -1
        821 776 777 -1
        821 777 778 -1
        821 818 776 -1
        822 819 813 -1
        822 813 815 -1
        823 814 816 -1
        823 820 814 -1
        824 821 778 -1
        824 778 779 -1
        824 779 780 -1
        825 822 815 -1
        825 815 817 -1
        826 823 816 -1
        826 816 818 -1
        827 763 819 -1
        828 780 781 -1
        828 781 782 -1
        828 824 780 -1
        829 825 817 -1
        829 817 820 -1
        830 826 818 -1
        830 818 821 -1
        831 819 822 -1
        831 827 819 -1
        832 782 783 -1
        832 783 784 -1
        832 828 782 -1
        833 829 820 -1
        833 820 823 -1
        834 821 824 -1
        834 830 821 -1
        835 822 825 -1
        835 831 822 -1
        836 784 785 -1
        836 785 786 -1
        836 832 784 -1
        837 823 826 -1
        837 833 823 -1
        838 797 763 -1
        838 763 827 -1
        839 824 828 -1
        839 834 824 -1
        840 825 829 -1
        840 835 825 -1
        841 786 787 -1
        841 787 788 -1
        841 836 786 -1
        842 826 830 -1
        842 837 826 -1
        843 838 827 -1
        843 827 831 -1
        843 798 797 -1
        843 797 838 -1
        844 839 828 -1
        844 828 832 -1
        845 829 833 -1
        845 840 829 -1
        846 788 789 -1
        846 789 790 -1
        846 841 788 -1
        847 842 830 -1
        847 830 834 -1
        848 799 798 -1
        848 831 835 -1
        848 798 843 -1
        848 843 831 -1
        849 832 836 -1
        849 844 832 -1
        850 833 837 -1
        850 845 833 -1
        851 846 790 -1
        851 790 791 -1
        851 791 792 -1
        852 834 839 -1
        852 847 834 -1
        853 800 799 -1
        853 835 840 -1
        853 848 835 -1
        853 799 848 -1
        854 849 836 -1
        854 836 841 -1
        855 850 837 -1
        855 837 842 -1
        856 792 793 -1
        856 793 794 -1
        856 794 795 -1
        856 851 792 -1
        857 852 839 -1
        857 839 844 -1
        858 800 853 -1
        858 853 840 -1
        858 801 800 -1
        858 840 845 -1
        859 854 841 -1
        859 841 846 -1
        860 855 842 -1
        860 842 847 -1
        861 857 844 -1
        861 844 849 -1
        862 858 845 -1
        862 802 801 -1
        862 845 850 -1
        862 801 858 -1
        863 859 846 -1
        863 846 851 -1
        864 847 852 -1
        864 860 847 -1
        865 861 849 -1
        865 849 854 -1
        866 802 862 -1
        866 803 802 -1
        866 862 850 -1
        866 850 855 -1
        867 851 856 -1
        867 856 795 -1
        867 863 851 -1
        868 864 852 -1
        868 852 857 -1
        869 854 859 -1
        869 865 854 -1
        870 855 860 -1
        870 866 855 -1
        870 803 866 -1
        871 857 861 -1
        871 868 857 -1
        872 869 859 -1
        872 859 863 -1
        873 804 803 -1
        873 860 864 -1
        873 803 870 -1
        873 870 860 -1
        874 871 861 -1
        874 861 865 -1
        875 867 795 -1
        875 795 796 -1
        875 863 867 -1
        875 872 863 -1
        876 804 873 -1
        876 805 804 -1
        876 864 868 -1
        876 873 864 -1
        877 865 869 -1
        877 874 865 -1
        878 806 805 -1
        878 805 876 -1
        878 868 871 -1
        878 876 868 -1
        879 877 869 -1
        879 869 872 -1
        880 807 806 -1
        880 871 874 -1
        880 878 871 -1
        880 806 878 -1
        881 875 796 -1
        881 872 875 -1
        881 879 872 -1
        882 807 880 -1
        882 880 874 -1
        882 808 807 -1
        882 874 877 -1
        883 882 877 -1
        883 809 808 -1
        883 877 879 -1
        883 808 882 -1
        884 879 881 -1
        884 883 879 -1
        884 809 883 -1
        884 796 809 -1
        884 881 796 -1
        888 886 885 -1
        888 885 887 -1
      ]
    }
  }
  # leads  material=tin
  Shape {
    appearance Appearance {
      material Material {
        diffuseColor 0.7800 0.7800 0.8100
        specularColor 0.9300 0.9300 0.9500
        shininess 0.840
        ambientIntensity 0.320
        emissiveColor 0 0 0
        transparency 0.000
      }
    }
    geometry IndexedFaceSet {
      solid TRUE
      creaseAngle 0.9
      coord Coordinate { point [
        -0.0188976 -0.0295276 0.0019685
        -0.0188976 -0.0452756 0.0019685
        -0.0322835 -0.0452756 0.0019685
        -0.0322835 -0.0295276 0.0019685
        -0.0322835 -0.0295276 0.0019685
        -0.0322835 -0.0452756 0.0019685
        -0.0314961 -0.0452756 0.0000000
        -0.0314961 -0.0295276 0.0000000
        -0.0314961 -0.0295276 0.0000000
        -0.0314961 -0.0452756 0.0000000
        -0.0472441 -0.0452756 0.0000000
        -0.0472441 -0.0295276 0.0000000
        -0.0472441 -0.0295276 0.0000000
        -0.0472441 -0.0452756 0.0000000
        -0.0472441 -0.0452756 0.0047244
        -0.0472441 -0.0295276 0.0047244
        -0.0472441 -0.0295276 0.0047244
        -0.0472441 -0.0452756 0.0047244
        -0.0314961 -0.0452756 0.0047244
        -0.0314961 -0.0295276 0.0047244
        -0.0314961 -0.0295276 0.0047244
        -0.0314961 -0.0452756 0.0047244
        -0.0322835 -0.0452756 0.0086614
        -0.0322835 -0.0295276 0.0086614
        -0.0322835 -0.0295276 0.0086614
        -0.0322835 -0.0452756 0.0086614
        -0.0188976 -0.0452756 0.0110236
        -0.0188976 -0.0295276 0.0110236
        -0.0188976 -0.0295276 0.0110236
        -0.0188976 -0.0452756 0.0110236
        -0.0188976 -0.0452756 0.0019685
        -0.0188976 -0.0295276 0.0019685
        -0.0188976 -0.0295276 0.0019685
        -0.0322835 -0.0295276 0.0019685
        -0.0314961 -0.0295276 0.0000000
        -0.0472441 -0.0295276 0.0000000
        -0.0472441 -0.0295276 0.0047244
        -0.0314961 -0.0295276 0.0047244
        -0.0322835 -0.0295276 0.0086614
        -0.0188976 -0.0295276 0.0110236
        -0.0188976 -0.0452756 0.0019685
        -0.0322835 -0.0452756 0.0019685
        -0.0314961 -0.0452756 0.0000000
        -0.0472441 -0.0452756 0.0000000
        -0.0472441 -0.0452756 0.0047244
        -0.0314961 -0.0452756 0.0047244
        -0.0322835 -0.0452756 0.0086614
        -0.0188976 -0.0452756 0.0110236
        -0.0188976 0.0452756 0.0019685
        -0.0188976 0.0295276 0.0019685
        -0.0322835 0.0295276 0.0019685
        -0.0322835 0.0452756 0.0019685
        -0.0322835 0.0452756 0.0019685
        -0.0322835 0.0295276 0.0019685
        -0.0314961 0.0295276 0.0000000
        -0.0314961 0.0452756 0.0000000
        -0.0314961 0.0452756 0.0000000
        -0.0314961 0.0295276 0.0000000
        -0.0472441 0.0295276 0.0000000
        -0.0472441 0.0452756 0.0000000
        -0.0472441 0.0452756 0.0000000
        -0.0472441 0.0295276 0.0000000
        -0.0472441 0.0295276 0.0047244
        -0.0472441 0.0452756 0.0047244
        -0.0472441 0.0452756 0.0047244
        -0.0472441 0.0295276 0.0047244
        -0.0314961 0.0295276 0.0047244
        -0.0314961 0.0452756 0.0047244
        -0.0314961 0.0452756 0.0047244
        -0.0314961 0.0295276 0.0047244
        -0.0322835 0.0295276 0.0086614
        -0.0322835 0.0452756 0.0086614
        -0.0322835 0.0452756 0.0086614
        -0.0322835 0.0295276 0.0086614
        -0.0188976 0.0295276 0.0110236
        -0.0188976 0.0452756 0.0110236
        -0.0188976 0.0452756 0.0110236
        -0.0188976 0.0295276 0.0110236
        -0.0188976 0.0295276 0.0019685
        -0.0188976 0.0452756 0.0019685
        -0.0188976 0.0452756 0.0019685
        -0.0322835 0.0452756 0.0019685
        -0.0314961 0.0452756 0.0000000
        -0.0472441 0.0452756 0.0000000
        -0.0472441 0.0452756 0.0047244
        -0.0314961 0.0452756 0.0047244
        -0.0322835 0.0452756 0.0086614
        -0.0188976 0.0452756 0.0110236
        -0.0188976 0.0295276 0.0019685
        -0.0322835 0.0295276 0.0019685
        -0.0314961 0.0295276 0.0000000
        -0.0472441 0.0295276 0.0000000
        -0.0472441 0.0295276 0.0047244
        -0.0314961 0.0295276 0.0047244
        -0.0322835 0.0295276 0.0086614
        -0.0188976 0.0295276 0.0110236
        0.0188976 0.0078740 0.0110236
        0.0188976 -0.0078740 0.0110236
        0.0322835 -0.0078740 0.0086614
        0.0322835 0.0078740 0.0086614
        0.0322835 0.0078740 0.0086614
        0.0322835 -0.0078740 0.0086614
        0.0314961 -0.0078740 0.0047244
        0.0314961 0.0078740 0.0047244
        0.0314961 0.0078740 0.0047244
        0.0314961 -0.0078740 0.0047244
        0.0472441 -0.0078740 0.0047244
        0.0472441 0.0078740 0.0047244
        0.0472441 0.0078740 0.0047244
        0.0472441 -0.0078740 0.0047244
        0.0472441 -0.0078740 0.0000000
        0.0472441 0.0078740 0.0000000
        0.0472441 0.0078740 0.0000000
        0.0472441 -0.0078740 0.0000000
        0.0314961 -0.0078740 0.0000000
        0.0314961 0.0078740 0.0000000
        0.0314961 0.0078740 0.0000000
        0.0314961 -0.0078740 0.0000000
        0.0322835 -0.0078740 0.0019685
        0.0322835 0.0078740 0.0019685
        0.0322835 0.0078740 0.0019685
        0.0322835 -0.0078740 0.0019685
        0.0188976 -0.0078740 0.0019685
        0.0188976 0.0078740 0.0019685
        0.0188976 0.0078740 0.0019685
        0.0188976 -0.0078740 0.0019685
        0.0188976 -0.0078740 0.0110236
        0.0188976 0.0078740 0.0110236
        0.0188976 0.0078740 0.0110236
        0.0322835 0.0078740 0.0086614
        0.0314961 0.0078740 0.0047244
        0.0472441 0.0078740 0.0047244
        0.0472441 0.0078740 0.0000000
        0.0314961 0.0078740 0.0000000
        0.0322835 0.0078740 0.0019685
        0.0188976 0.0078740 0.0019685
        0.0188976 -0.0078740 0.0110236
        0.0322835 -0.0078740 0.0086614
        0.0314961 -0.0078740 0.0047244
        0.0472441 -0.0078740 0.0047244
        0.0472441 -0.0078740 0.0000000
        0.0314961 -0.0078740 0.0000000
        0.0322835 -0.0078740 0.0019685
        0.0188976 -0.0078740 0.0019685
      ] }
      coordIndex [
        3 0 1 -1
        3 1 2 -1
        7 4 5 -1
        7 5 6 -1
        11 8 9 -1
        11 9 10 -1
        15 12 13 -1
        15 13 14 -1
        19 16 17 -1
        19 17 18 -1
        23 20 21 -1
        23 21 22 -1
        27 24 25 -1
        27 25 26 -1
        31 28 29 -1
        31 29 30 -1
        33 34 35 -1
        33 35 36 -1
        39 37 38 -1
        39 32 37 -1
        32 33 37 -1
        36 37 33 -1
        41 43 42 -1
        41 44 43 -1
        47 46 45 -1
        47 45 40 -1
        40 45 41 -1
        44 41 45 -1
        51 48 49 -1
        51 49 50 -1
        55 52 53 -1
        55 53 54 -1
        59 56 57 -1
        59 57 58 -1
        63 60 61 -1
        63 61 62 -1
        67 64 65 -1
        67 65 66 -1
        71 68 69 -1
        71 69 70 -1
        75 72 73 -1
        75 73 74 -1
        79 76 77 -1
        79 77 78 -1
        81 82 83 -1
        81 83 84 -1
        87 85 86 -1
        87 80 85 -1
        80 81 85 -1
        84 85 81 -1
        89 91 90 -1
        89 92 91 -1
        95 94 93 -1
        95 93 88 -1
        88 93 89 -1
        92 89 93 -1
        99 96 97 -1
        99 97 98 -1
        103 100 101 -1
        103 101 102 -1
        107 104 105 -1
        107 105 106 -1
        111 108 109 -1
        111 109 110 -1
        115 112 113 -1
        115 113 114 -1
        119 116 117 -1
        119 117 118 -1
        123 120 121 -1
        123 121 122 -1
        127 124 125 -1
        127 125 126 -1
        130 135 128 -1
        129 130 128 -1
        132 133 134 -1
        131 132 134 -1
        130 131 134 -1
        130 134 135 -1
        138 136 143 -1
        137 136 138 -1
        140 142 141 -1
        139 142 140 -1
        138 142 139 -1
        138 143 142 -1
      ]
    }
  }
  # pin1_dot  material=pin1
  Shape {
    appearance Appearance {
      material Material {
        diffuseColor 0.8800 0.8800 0.9000
        specularColor 0.5500 0.5500 0.5800
        shininess 0.400
        ambientIntensity 0.220
        emissiveColor 0 0 0
        transparency 0.000
      }
    }
    geometry IndexedFaceSet {
      solid TRUE
      creaseAngle 0.9
      coord Coordinate { point [
        -0.0082677 -0.0413386 0.0413386
        -0.0082677 -0.0413386 0.0421260
        -0.0082731 -0.0411227 0.0421260
        -0.0082892 -0.0409074 0.0421260
        -0.0083161 -0.0406931 0.0421260
        -0.0083536 -0.0404805 0.0421260
        -0.0084016 -0.0402699 0.0421260
        -0.0084601 -0.0400621 0.0421260
        -0.0085289 -0.0398574 0.0421260
        -0.0086078 -0.0396564 0.0421260
        -0.0086966 -0.0394596 0.0421260
        -0.0087951 -0.0392674 0.0421260
        -0.0089031 -0.0390804 0.0421260
        -0.0090202 -0.0388990 0.0421260
        -0.0091463 -0.0387237 0.0421260
        -0.0092809 -0.0385549 0.0421260
        -0.0094238 -0.0383930 0.0421260
        -0.0095746 -0.0382384 0.0421260
        -0.0097329 -0.0380915 0.0421260
        -0.0098983 -0.0379527 0.0421260
        -0.0100704 -0.0378223 0.0421260
        -0.0102488 -0.0377007 0.0421260
        -0.0104331 -0.0375881 0.0421260
        -0.0106227 -0.0374848 0.0421260
        -0.0108173 -0.0373911 0.0421260
        -0.0110162 -0.0373072 0.0421260
        -0.0112192 -0.0372334 0.0421260
        -0.0114255 -0.0371697 0.0421260
        -0.0116348 -0.0371165 0.0421260
        -0.0118464 -0.0370737 0.0421260
        -0.0120599 -0.0370415 0.0421260
        -0.0122748 -0.0370200 0.0421260
        -0.0124905 -0.0370092 0.0421260
        -0.0127064 -0.0370092 0.0421260
        -0.0129221 -0.0370200 0.0421260
        -0.0131369 -0.0370415 0.0421260
        -0.0133504 -0.0370737 0.0421260
        -0.0135621 -0.0371165 0.0421260
        -0.0137714 -0.0371697 0.0421260
        -0.0139777 -0.0372334 0.0421260
        -0.0141806 -0.0373072 0.0421260
        -0.0143796 -0.0373911 0.0421260
        -0.0145741 -0.0374848 0.0421260
        -0.0147638 -0.0375881 0.0421260
        -0.0149480 -0.0377007 0.0421260
        -0.0151264 -0.0378223 0.0421260
        -0.0152986 -0.0379527 0.0421260
        -0.0154640 -0.0380915 0.0421260
        -0.0156223 -0.0382384 0.0421260
        -0.0157731 -0.0383930 0.0421260
        -0.0159159 -0.0385549 0.0421260
        -0.0160506 -0.0387237 0.0421260
        -0.0161766 -0.0388990 0.0421260
        -0.0162938 -0.0390804 0.0421260
        -0.0164017 -0.0392674 0.0421260
        -0.0165003 -0.0394596 0.0421260
        -0.0165891 -0.0396564 0.0421260
        -0.0166680 -0.0398574 0.0421260
        -0.0167367 -0.0400621 0.0421260
        -0.0167952 -0.0402699 0.0421260
        -0.0168433 -0.0404805 0.0421260
        -0.0168808 -0.0406931 0.0421260
        -0.0169076 -0.0409074 0.0421260
        -0.0169238 -0.0411227 0.0421260
        -0.0169291 -0.0413386 0.0421260
        -0.0169238 -0.0415545 0.0421260
        -0.0169076 -0.0417698 0.0421260
        -0.0168808 -0.0419840 0.0421260
        -0.0168433 -0.0421967 0.0421260
        -0.0167952 -0.0424072 0.0421260
        -0.0167367 -0.0426151 0.0421260
        -0.0166680 -0.0428198 0.0421260
        -0.0165891 -0.0430208 0.0421260
        -0.0165003 -0.0432176 0.0421260
        -0.0164017 -0.0434098 0.0421260
        -0.0162938 -0.0435968 0.0421260
        -0.0161766 -0.0437782 0.0421260
        -0.0160506 -0.0439535 0.0421260
        -0.0159159 -0.0441223 0.0421260
        -0.0157731 -0.0442842 0.0421260
        -0.0156223 -0.0444388 0.0421260
        -0.0154640 -0.0445857 0.0421260
        -0.0152986 -0.0447245 0.0421260
        -0.0151264 -0.0448548 0.0421260
        -0.0149480 -0.0449765 0.0421260
        -0.0147638 -0.0450891 0.0421260
        -0.0145741 -0.0451924 0.0421260
        -0.0143796 -0.0452860 0.0421260
        -0.0141806 -0.0453699 0.0421260
        -0.0139777 -0.0454438 0.0421260
        -0.0137714 -0.0455074 0.0421260
        -0.0135621 -0.0455607 0.0421260
        -0.0133504 -0.0456035 0.0421260
        -0.0131369 -0.0456357 0.0421260
        -0.0129221 -0.0456572 0.0421260
        -0.0127064 -0.0456679 0.0421260
        -0.0124905 -0.0456679 0.0421260
        -0.0122748 -0.0456572 0.0421260
        -0.0120599 -0.0456357 0.0421260
        -0.0118464 -0.0456035 0.0421260
        -0.0116348 -0.0455607 0.0421260
        -0.0114255 -0.0455074 0.0421260
        -0.0112192 -0.0454438 0.0421260
        -0.0110162 -0.0453699 0.0421260
        -0.0108173 -0.0452860 0.0421260
        -0.0106227 -0.0451924 0.0421260
        -0.0104331 -0.0450891 0.0421260
        -0.0102488 -0.0449765 0.0421260
        -0.0100704 -0.0448548 0.0421260
        -0.0098983 -0.0447245 0.0421260
        -0.0097329 -0.0445857 0.0421260
        -0.0095746 -0.0444388 0.0421260
        -0.0094238 -0.0442842 0.0421260
        -0.0092809 -0.0441223 0.0421260
        -0.0091463 -0.0439535 0.0421260
        -0.0090202 -0.0437782 0.0421260
        -0.0089031 -0.0435968 0.0421260
        -0.0087951 -0.0434098 0.0421260
        -0.0086966 -0.0432176 0.0421260
        -0.0086078 -0.0430208 0.0421260
        -0.0085289 -0.0428198 0.0421260
        -0.0084601 -0.0426151 0.0421260
        -0.0084016 -0.0424072 0.0421260
        -0.0083536 -0.0421967 0.0421260
        -0.0083161 -0.0419840 0.0421260
        -0.0082892 -0.0417698 0.0421260
        -0.0082731 -0.0415545 0.0421260
        -0.0082677 -0.0413386 0.0421260
        -0.0082677 -0.0413386 0.0413386
        -0.0082731 -0.0411227 0.0413386
        -0.0082892 -0.0409074 0.0413386
        -0.0083161 -0.0406931 0.0413386
        -0.0083536 -0.0404805 0.0413386
        -0.0084016 -0.0402699 0.0413386
        -0.0084601 -0.0400621 0.0413386
        -0.0085289 -0.0398574 0.0413386
        -0.0086078 -0.0396564 0.0413386
        -0.0086966 -0.0394596 0.0413386
        -0.0087951 -0.0392674 0.0413386
        -0.0089031 -0.0390804 0.0413386
        -0.0090202 -0.0388990 0.0413386
        -0.0091463 -0.0387237 0.0413386
        -0.0092809 -0.0385549 0.0413386
        -0.0094238 -0.0383930 0.0413386
        -0.0095746 -0.0382384 0.0413386
        -0.0097329 -0.0380915 0.0413386
        -0.0098983 -0.0379527 0.0413386
        -0.0100704 -0.0378223 0.0413386
        -0.0102488 -0.0377007 0.0413386
        -0.0104331 -0.0375881 0.0413386
        -0.0106227 -0.0374848 0.0413386
        -0.0108173 -0.0373911 0.0413386
        -0.0110162 -0.0373072 0.0413386
        -0.0112192 -0.0372334 0.0413386
        -0.0114255 -0.0371697 0.0413386
        -0.0116348 -0.0371165 0.0413386
        -0.0118464 -0.0370737 0.0413386
        -0.0120599 -0.0370415 0.0413386
        -0.0122748 -0.0370200 0.0413386
        -0.0124905 -0.0370092 0.0413386
        -0.0127064 -0.0370092 0.0413386
        -0.0129221 -0.0370200 0.0413386
        -0.0131369 -0.0370415 0.0413386
        -0.0133504 -0.0370737 0.0413386
        -0.0135621 -0.0371165 0.0413386
        -0.0137714 -0.0371697 0.0413386
        -0.0139777 -0.0372334 0.0413386
        -0.0141806 -0.0373072 0.0413386
        -0.0143796 -0.0373911 0.0413386
        -0.0145741 -0.0374848 0.0413386
        -0.0147638 -0.0375881 0.0413386
        -0.0149480 -0.0377007 0.0413386
        -0.0151264 -0.0378223 0.0413386
        -0.0152986 -0.0379527 0.0413386
        -0.0154640 -0.0380915 0.0413386
        -0.0156223 -0.0382384 0.0413386
        -0.0157731 -0.0383930 0.0413386
        -0.0159159 -0.0385549 0.0413386
        -0.0160506 -0.0387237 0.0413386
        -0.0161766 -0.0388990 0.0413386
        -0.0162938 -0.0390804 0.0413386
        -0.0164017 -0.0392674 0.0413386
        -0.0165003 -0.0394596 0.0413386
        -0.0165891 -0.0396564 0.0413386
        -0.0166680 -0.0398574 0.0413386
        -0.0167367 -0.0400621 0.0413386
        -0.0167952 -0.0402699 0.0413386
        -0.0168433 -0.0404805 0.0413386
        -0.0168808 -0.0406931 0.0413386
        -0.0169076 -0.0409074 0.0413386
        -0.0169238 -0.0411227 0.0413386
        -0.0169291 -0.0413386 0.0413386
        -0.0169238 -0.0415545 0.0413386
        -0.0169076 -0.0417698 0.0413386
        -0.0168808 -0.0419840 0.0413386
        -0.0168433 -0.0421967 0.0413386
        -0.0167952 -0.0424072 0.0413386
        -0.0167367 -0.0426151 0.0413386
        -0.0166680 -0.0428198 0.0413386
        -0.0165891 -0.0430208 0.0413386
        -0.0165003 -0.0432176 0.0413386
        -0.0164017 -0.0434098 0.0413386
        -0.0162938 -0.0435968 0.0413386
        -0.0161766 -0.0437782 0.0413386
        -0.0160506 -0.0439535 0.0413386
        -0.0159159 -0.0441223 0.0413386
        -0.0157731 -0.0442842 0.0413386
        -0.0156223 -0.0444388 0.0413386
        -0.0154640 -0.0445857 0.0413386
        -0.0152986 -0.0447245 0.0413386
        -0.0151264 -0.0448548 0.0413386
        -0.0149480 -0.0449765 0.0413386
        -0.0147638 -0.0450891 0.0413386
        -0.0145741 -0.0451924 0.0413386
        -0.0143796 -0.0452860 0.0413386
        -0.0141806 -0.0453699 0.0413386
        -0.0139777 -0.0454438 0.0413386
        -0.0137714 -0.0455074 0.0413386
        -0.0135621 -0.0455607 0.0413386
        -0.0133504 -0.0456035 0.0413386
        -0.0131369 -0.0456357 0.0413386
        -0.0129221 -0.0456572 0.0413386
        -0.0127064 -0.0456679 0.0413386
        -0.0124905 -0.0456679 0.0413386
        -0.0122748 -0.0456572 0.0413386
        -0.0120599 -0.0456357 0.0413386
        -0.0118464 -0.0456035 0.0413386
        -0.0116348 -0.0455607 0.0413386
        -0.0114255 -0.0455074 0.0413386
        -0.0112192 -0.0454438 0.0413386
        -0.0110162 -0.0453699 0.0413386
        -0.0108173 -0.0452860 0.0413386
        -0.0106227 -0.0451924 0.0413386
        -0.0104331 -0.0450891 0.0413386
        -0.0102488 -0.0449765 0.0413386
        -0.0100704 -0.0448548 0.0413386
        -0.0098983 -0.0447245 0.0413386
        -0.0097329 -0.0445857 0.0413386
        -0.0095746 -0.0444388 0.0413386
        -0.0094238 -0.0442842 0.0413386
        -0.0092809 -0.0441223 0.0413386
        -0.0091463 -0.0439535 0.0413386
        -0.0090202 -0.0437782 0.0413386
        -0.0089031 -0.0435968 0.0413386
        -0.0087951 -0.0434098 0.0413386
        -0.0086966 -0.0432176 0.0413386
        -0.0086078 -0.0430208 0.0413386
        -0.0085289 -0.0428198 0.0413386
        -0.0084601 -0.0426151 0.0413386
        -0.0084016 -0.0424072 0.0413386
        -0.0083536 -0.0421967 0.0413386
        -0.0083161 -0.0419840 0.0413386
        -0.0082892 -0.0417698 0.0413386
        -0.0082731 -0.0415545 0.0413386
        -0.0082677 -0.0413386 0.0413386
        -0.0082731 -0.0411227 0.0413386
        -0.0082892 -0.0409074 0.0413386
        -0.0083161 -0.0406931 0.0413386
        -0.0083536 -0.0404805 0.0413386
        -0.0084016 -0.0402699 0.0413386
        -0.0084601 -0.0400621 0.0413386
        -0.0085289 -0.0398574 0.0413386
        -0.0086078 -0.0396564 0.0413386
        -0.0086966 -0.0394596 0.0413386
        -0.0087951 -0.0392674 0.0413386
        -0.0089031 -0.0390804 0.0413386
        -0.0090202 -0.0388990 0.0413386
        -0.0091463 -0.0387237 0.0413386
        -0.0092809 -0.0385549 0.0413386
        -0.0094238 -0.0383930 0.0413386
        -0.0095746 -0.0382384 0.0413386
        -0.0097329 -0.0380915 0.0413386
        -0.0098983 -0.0379527 0.0413386
        -0.0100704 -0.0378223 0.0413386
        -0.0102488 -0.0377007 0.0413386
        -0.0104331 -0.0375881 0.0413386
        -0.0106227 -0.0374848 0.0413386
        -0.0108173 -0.0373911 0.0413386
        -0.0110162 -0.0373072 0.0413386
        -0.0112192 -0.0372334 0.0413386
        -0.0114255 -0.0371697 0.0413386
        -0.0116348 -0.0371165 0.0413386
        -0.0118464 -0.0370737 0.0413386
        -0.0120599 -0.0370415 0.0413386
        -0.0122748 -0.0370200 0.0413386
        -0.0124905 -0.0370092 0.0413386
        -0.0127064 -0.0370092 0.0413386
        -0.0129221 -0.0370200 0.0413386
        -0.0131369 -0.0370415 0.0413386
        -0.0133504 -0.0370737 0.0413386
        -0.0135621 -0.0371165 0.0413386
        -0.0137714 -0.0371697 0.0413386
        -0.0139777 -0.0372334 0.0413386
        -0.0141806 -0.0373072 0.0413386
        -0.0143796 -0.0373911 0.0413386
        -0.0145741 -0.0374848 0.0413386
        -0.0147638 -0.0375881 0.0413386
        -0.0149480 -0.0377007 0.0413386
        -0.0151264 -0.0378223 0.0413386
        -0.0152986 -0.0379527 0.0413386
        -0.0154640 -0.0380915 0.0413386
        -0.0156223 -0.0382384 0.0413386
        -0.0157731 -0.0383930 0.0413386
        -0.0159159 -0.0385549 0.0413386
        -0.0160506 -0.0387237 0.0413386
        -0.0161766 -0.0388990 0.0413386
        -0.0162938 -0.0390804 0.0413386
        -0.0164017 -0.0392674 0.0413386
        -0.0165003 -0.0394596 0.0413386
        -0.0165891 -0.0396564 0.0413386
        -0.0166680 -0.0398574 0.0413386
        -0.0167367 -0.0400621 0.0413386
        -0.0167952 -0.0402699 0.0413386
        -0.0168433 -0.0404805 0.0413386
        -0.0168808 -0.0406931 0.0413386
        -0.0169076 -0.0409074 0.0413386
        -0.0169238 -0.0411227 0.0413386
        -0.0169291 -0.0413386 0.0413386
        -0.0169238 -0.0415545 0.0413386
        -0.0169076 -0.0417698 0.0413386
        -0.0168808 -0.0419840 0.0413386
        -0.0168433 -0.0421967 0.0413386
        -0.0167952 -0.0424072 0.0413386
        -0.0167367 -0.0426151 0.0413386
        -0.0166680 -0.0428198 0.0413386
        -0.0165891 -0.0430208 0.0413386
        -0.0165003 -0.0432176 0.0413386
        -0.0164017 -0.0434098 0.0413386
        -0.0162938 -0.0435968 0.0413386
        -0.0161766 -0.0437782 0.0413386
        -0.0160506 -0.0439535 0.0413386
        -0.0159159 -0.0441223 0.0413386
        -0.0157731 -0.0442842 0.0413386
        -0.0156223 -0.0444388 0.0413386
        -0.0154640 -0.0445857 0.0413386
        -0.0152986 -0.0447245 0.0413386
        -0.0151264 -0.0448548 0.0413386
        -0.0149480 -0.0449765 0.0413386
        -0.0147638 -0.0450891 0.0413386
        -0.0145741 -0.0451924 0.0413386
        -0.0143796 -0.0452860 0.0413386
        -0.0141806 -0.0453699 0.0413386
        -0.0139777 -0.0454438 0.0413386
        -0.0137714 -0.0455074 0.0413386
        -0.0135621 -0.0455607 0.0413386
        -0.0133504 -0.0456035 0.0413386
        -0.0131369 -0.0456357 0.0413386
        -0.0129221 -0.0456572 0.0413386
        -0.0127064 -0.0456679 0.0413386
        -0.0124905 -0.0456679 0.0413386
        -0.0122748 -0.0456572 0.0413386
        -0.0120599 -0.0456357 0.0413386
        -0.0118464 -0.0456035 0.0413386
        -0.0116348 -0.0455607 0.0413386
        -0.0114255 -0.0455074 0.0413386
        -0.0112192 -0.0454438 0.0413386
        -0.0110162 -0.0453699 0.0413386
        -0.0108173 -0.0452860 0.0413386
        -0.0106227 -0.0451924 0.0413386
        -0.0104331 -0.0450891 0.0413386
        -0.0102488 -0.0449765 0.0413386
        -0.0100704 -0.0448548 0.0413386
        -0.0098983 -0.0447245 0.0413386
        -0.0097329 -0.0445857 0.0413386
        -0.0095746 -0.0444388 0.0413386
        -0.0094238 -0.0442842 0.0413386
        -0.0092809 -0.0441223 0.0413386
        -0.0091463 -0.0439535 0.0413386
        -0.0090202 -0.0437782 0.0413386
        -0.0089031 -0.0435968 0.0413386
        -0.0087951 -0.0434098 0.0413386
        -0.0086966 -0.0432176 0.0413386
        -0.0086078 -0.0430208 0.0413386
        -0.0085289 -0.0428198 0.0413386
        -0.0084601 -0.0426151 0.0413386
        -0.0084016 -0.0424072 0.0413386
        -0.0083536 -0.0421967 0.0413386
        -0.0083161 -0.0419840 0.0413386
        -0.0082892 -0.0417698 0.0413386
        -0.0082731 -0.0415545 0.0413386
        -0.0082677 -0.0413386 0.0421260
        -0.0082731 -0.0411227 0.0421260
        -0.0082892 -0.0409074 0.0421260
        -0.0083161 -0.0406931 0.0421260
        -0.0083536 -0.0404805 0.0421260
        -0.0084016 -0.0402699 0.0421260
        -0.0084601 -0.0400621 0.0421260
        -0.0085289 -0.0398574 0.0421260
        -0.0086078 -0.0396564 0.0421260
        -0.0086966 -0.0394596 0.0421260
        -0.0087951 -0.0392674 0.0421260
        -0.0089031 -0.0390804 0.0421260
        -0.0090202 -0.0388990 0.0421260
        -0.0091463 -0.0387237 0.0421260
        -0.0092809 -0.0385549 0.0421260
        -0.0094238 -0.0383930 0.0421260
        -0.0095746 -0.0382384 0.0421260
        -0.0097329 -0.0380915 0.0421260
        -0.0098983 -0.0379527 0.0421260
        -0.0100704 -0.0378223 0.0421260
        -0.0102488 -0.0377007 0.0421260
        -0.0104331 -0.0375881 0.0421260
        -0.0106227 -0.0374848 0.0421260
        -0.0108173 -0.0373911 0.0421260
        -0.0110162 -0.0373072 0.0421260
        -0.0112192 -0.0372334 0.0421260
        -0.0114255 -0.0371697 0.0421260
        -0.0116348 -0.0371165 0.0421260
        -0.0118464 -0.0370737 0.0421260
        -0.0120599 -0.0370415 0.0421260
        -0.0122748 -0.0370200 0.0421260
        -0.0124905 -0.0370092 0.0421260
        -0.0127064 -0.0370092 0.0421260
        -0.0129221 -0.0370200 0.0421260
        -0.0131369 -0.0370415 0.0421260
        -0.0133504 -0.0370737 0.0421260
        -0.0135621 -0.0371165 0.0421260
        -0.0137714 -0.0371697 0.0421260
        -0.0139777 -0.0372334 0.0421260
        -0.0141806 -0.0373072 0.0421260
        -0.0143796 -0.0373911 0.0421260
        -0.0145741 -0.0374848 0.0421260
        -0.0147638 -0.0375881 0.0421260
        -0.0149480 -0.0377007 0.0421260
        -0.0151264 -0.0378223 0.0421260
        -0.0152986 -0.0379527 0.0421260
        -0.0154640 -0.0380915 0.0421260
        -0.0156223 -0.0382384 0.0421260
        -0.0157731 -0.0383930 0.0421260
        -0.0159159 -0.0385549 0.0421260
        -0.0160506 -0.0387237 0.0421260
        -0.0161766 -0.0388990 0.0421260
        -0.0162938 -0.0390804 0.0421260
        -0.0164017 -0.0392674 0.0421260
        -0.0165003 -0.0394596 0.0421260
        -0.0165891 -0.0396564 0.0421260
        -0.0166680 -0.0398574 0.0421260
        -0.0167367 -0.0400621 0.0421260
        -0.0167952 -0.0402699 0.0421260
        -0.0168433 -0.0404805 0.0421260
        -0.0168808 -0.0406931 0.0421260
        -0.0169076 -0.0409074 0.0421260
        -0.0169238 -0.0411227 0.0421260
        -0.0169291 -0.0413386 0.0421260
        -0.0169238 -0.0415545 0.0421260
        -0.0169076 -0.0417698 0.0421260
        -0.0168808 -0.0419840 0.0421260
        -0.0168433 -0.0421967 0.0421260
        -0.0167952 -0.0424072 0.0421260
        -0.0167367 -0.0426151 0.0421260
        -0.0166680 -0.0428198 0.0421260
        -0.0165891 -0.0430208 0.0421260
        -0.0165003 -0.0432176 0.0421260
        -0.0164017 -0.0434098 0.0421260
        -0.0162938 -0.0435968 0.0421260
        -0.0161766 -0.0437782 0.0421260
        -0.0160506 -0.0439535 0.0421260
        -0.0159159 -0.0441223 0.0421260
        -0.0157731 -0.0442842 0.0421260
        -0.0156223 -0.0444388 0.0421260
        -0.0154640 -0.0445857 0.0421260
        -0.0152986 -0.0447245 0.0421260
        -0.0151264 -0.0448548 0.0421260
        -0.0149480 -0.0449765 0.0421260
        -0.0147638 -0.0450891 0.0421260
        -0.0145741 -0.0451924 0.0421260
        -0.0143796 -0.0452860 0.0421260
        -0.0141806 -0.0453699 0.0421260
        -0.0139777 -0.0454438 0.0421260
        -0.0137714 -0.0455074 0.0421260
        -0.0135621 -0.0455607 0.0421260
        -0.0133504 -0.0456035 0.0421260
        -0.0131369 -0.0456357 0.0421260
        -0.0129221 -0.0456572 0.0421260
        -0.0127064 -0.0456679 0.0421260
        -0.0124905 -0.0456679 0.0421260
        -0.0122748 -0.0456572 0.0421260
        -0.0120599 -0.0456357 0.0421260
        -0.0118464 -0.0456035 0.0421260
        -0.0116348 -0.0455607 0.0421260
        -0.0114255 -0.0455074 0.0421260
        -0.0112192 -0.0454438 0.0421260
        -0.0110162 -0.0453699 0.0421260
        -0.0108173 -0.0452860 0.0421260
        -0.0106227 -0.0451924 0.0421260
        -0.0104331 -0.0450891 0.0421260
        -0.0102488 -0.0449765 0.0421260
        -0.0100704 -0.0448548 0.0421260
        -0.0098983 -0.0447245 0.0421260
        -0.0097329 -0.0445857 0.0421260
        -0.0095746 -0.0444388 0.0421260
        -0.0094238 -0.0442842 0.0421260
        -0.0092809 -0.0441223 0.0421260
        -0.0091463 -0.0439535 0.0421260
        -0.0090202 -0.0437782 0.0421260
        -0.0089031 -0.0435968 0.0421260
        -0.0087951 -0.0434098 0.0421260
        -0.0086966 -0.0432176 0.0421260
        -0.0086078 -0.0430208 0.0421260
        -0.0085289 -0.0428198 0.0421260
        -0.0084601 -0.0426151 0.0421260
        -0.0084016 -0.0424072 0.0421260
        -0.0083536 -0.0421967 0.0421260
        -0.0083161 -0.0419840 0.0421260
        -0.0082892 -0.0417698 0.0421260
        -0.0082731 -0.0415545 0.0421260
      ] }
      coordIndex [
        129 1 0 -1
        129 2 1 -1
        130 3 2 -1
        130 2 129 -1
        131 4 3 -1
        131 3 130 -1
        132 5 4 -1
        132 4 131 -1
        133 6 5 -1
        133 5 132 -1
        134 7 6 -1
        134 6 133 -1
        135 8 7 -1
        135 7 134 -1
        136 9 8 -1
        136 8 135 -1
        137 10 9 -1
        137 9 136 -1
        138 11 10 -1
        138 10 137 -1
        139 11 138 -1
        139 12 11 -1
        140 12 139 -1
        140 13 12 -1
        141 13 140 -1
        141 14 13 -1
        142 14 141 -1
        142 15 14 -1
        143 16 15 -1
        143 15 142 -1
        144 17 16 -1
        144 16 143 -1
        145 18 17 -1
        145 17 144 -1
        146 19 18 -1
        146 18 145 -1
        147 20 19 -1
        147 19 146 -1
        148 21 20 -1
        148 20 147 -1
        149 22 21 -1
        149 21 148 -1
        150 23 22 -1
        150 22 149 -1
        151 24 23 -1
        151 23 150 -1
        152 25 24 -1
        152 24 151 -1
        153 26 25 -1
        153 25 152 -1
        154 27 26 -1
        154 26 153 -1
        155 28 27 -1
        155 27 154 -1
        156 29 28 -1
        156 28 155 -1
        157 30 29 -1
        157 29 156 -1
        158 31 30 -1
        158 30 157 -1
        159 32 31 -1
        159 31 158 -1
        160 33 32 -1
        160 32 159 -1
        161 34 33 -1
        161 33 160 -1
        162 35 34 -1
        162 34 161 -1
        163 36 35 -1
        163 35 162 -1
        164 37 36 -1
        164 36 163 -1
        165 37 164 -1
        165 38 37 -1
        166 38 165 -1
        166 39 38 -1
        167 39 166 -1
        167 40 39 -1
        168 40 167 -1
        168 41 40 -1
        169 41 168 -1
        169 42 41 -1
        170 42 169 -1
        170 43 42 -1
        171 43 170 -1
        171 44 43 -1
        172 44 171 -1
        172 45 44 -1
        173 45 172 -1
        173 46 45 -1
        174 46 173 -1
        174 47 46 -1
        175 47 174 -1
        175 48 47 -1
        176 49 48 -1
        176 48 175 -1
        177 50 49 -1
        177 49 176 -1
        178 51 50 -1
        178 50 177 -1
        179 52 51 -1
        179 51 178 -1
        180 53 52 -1
        180 52 179 -1
        181 54 53 -1
        181 53 180 -1
        182 55 54 -1
        182 54 181 -1
        183 56 55 -1
        183 55 182 -1
        184 57 56 -1
        184 56 183 -1
        185 58 57 -1
        185 57 184 -1
        186 59 58 -1
        186 58 185 -1
        187 60 59 -1
        187 59 186 -1
        188 61 60 -1
        188 60 187 -1
        189 62 61 -1
        189 61 188 -1
        190 62 189 -1
        190 63 62 -1
        191 63 190 -1
        191 64 63 -1
        192 64 191 -1
        192 65 64 -1
        193 65 192 -1
        193 66 65 -1
        194 66 193 -1
        194 67 66 -1
        195 67 194 -1
        195 68 67 -1
        196 68 195 -1
        196 69 68 -1
        197 69 196 -1
        197 70 69 -1
        198 70 197 -1
        198 71 70 -1
        199 71 198 -1
        199 72 71 -1
        200 72 199 -1
        200 73 72 -1
        201 73 200 -1
        201 74 73 -1
        202 74 201 -1
        202 75 74 -1
        203 75 202 -1
        203 76 75 -1
        203 77 76 -1
        204 77 203 -1
        205 77 204 -1
        205 78 77 -1
        206 78 205 -1
        206 79 78 -1
        206 80 79 -1
        207 80 206 -1
        208 80 207 -1
        208 81 80 -1
        208 82 81 -1
        209 82 208 -1
        210 82 209 -1
        210 83 82 -1
        211 84 83 -1
        211 83 210 -1
        211 85 84 -1
        212 85 211 -1
        213 86 85 -1
        213 85 212 -1
        214 87 86 -1
        214 88 87 -1
        214 86 213 -1
        215 88 214 -1
        215 89 88 -1
        216 89 215 -1
        217 89 216 -1
        217 90 89 -1
        218 90 217 -1
        218 91 90 -1
        219 91 218 -1
        219 92 91 -1
        220 92 219 -1
        220 93 92 -1
        221 93 220 -1
        221 94 93 -1
        221 95 94 -1
        222 95 221 -1
        222 96 95 -1
        223 96 222 -1
        224 96 223 -1
        224 97 96 -1
        225 97 224 -1
        225 98 97 -1
        226 98 225 -1
        226 99 98 -1
        227 99 226 -1
        227 100 99 -1
        228 101 100 -1
        228 100 227 -1
        229 102 101 -1
        229 101 228 -1
        230 103 102 -1
        230 102 229 -1
        231 104 103 -1
        231 103 230 -1
        232 105 104 -1
        232 104 231 -1
        233 106 105 -1
        233 105 232 -1
        234 107 106 -1
        234 106 233 -1
        235 108 107 -1
        235 107 234 -1
        236 109 108 -1
        236 108 235 -1
        237 110 109 -1
        237 109 236 -1
        238 111 110 -1
        238 110 237 -1
        239 112 111 -1
        239 111 238 -1
        240 113 112 -1
        240 112 239 -1
        241 113 240 -1
        241 114 113 -1
        242 114 241 -1
        242 115 114 -1
        242 116 115 -1
        243 116 242 -1
        243 117 116 -1
        244 117 243 -1
        245 118 117 -1
        245 117 244 -1
        246 119 118 -1
        246 118 245 -1
        247 120 119 -1
        247 119 246 -1
        248 121 120 -1
        248 120 247 -1
        249 122 121 -1
        249 121 248 -1
        250 123 122 -1
        250 122 249 -1
        251 124 123 -1
        251 123 250 -1
        252 125 124 -1
        252 124 251 -1
        253 126 125 -1
        253 125 252 -1
        128 126 253 -1
        128 127 126 -1
        259 258 257 -1
        260 259 257 -1
        262 261 260 -1
        264 263 262 -1
        358 357 356 -1
        267 266 265 -1
        367 366 365 -1
        271 273 272 -1
        372 370 369 -1
        372 371 370 -1
        270 255 254 -1
        270 265 264 -1
        270 268 267 -1
        270 269 268 -1
        270 274 273 -1
        270 275 274 -1
        270 276 275 -1
        270 277 276 -1
        270 278 277 -1
        270 279 278 -1
        270 280 279 -1
        270 281 280 -1
        270 282 281 -1
        270 283 282 -1
        270 284 283 -1
        270 285 284 -1
        270 286 285 -1
        270 287 286 -1
        270 288 287 -1
        270 289 288 -1
        270 290 289 -1
        270 291 290 -1
        270 292 291 -1
        270 293 292 -1
        270 294 293 -1
        270 295 294 -1
        270 296 295 -1
        270 297 296 -1
        270 298 297 -1
        270 299 298 -1
        270 300 299 -1
        270 301 300 -1
        270 302 301 -1
        270 303 302 -1
        270 304 303 -1
        270 305 304 -1
        270 306 305 -1
        270 307 306 -1
        270 308 307 -1
        270 309 308 -1
        270 310 309 -1
        270 311 310 -1
        270 312 311 -1
        270 313 312 -1
        270 314 313 -1
        270 315 314 -1
        270 316 315 -1
        270 317 316 -1
        270 318 317 -1
        270 319 318 -1
        270 320 319 -1
        270 321 320 -1
        270 322 321 -1
        270 323 322 -1
        270 324 323 -1
        270 325 324 -1
        270 326 325 -1
        270 327 326 -1
        270 328 327 -1
        270 329 328 -1
        270 330 329 -1
        270 331 330 -1
        270 332 331 -1
        270 333 332 -1
        270 334 333 -1
        270 335 334 -1
        270 336 335 -1
        270 337 336 -1
        270 338 337 -1
        270 339 338 -1
        270 340 339 -1
        270 341 340 -1
        270 342 341 -1
        270 343 342 -1
        270 344 343 -1
        270 345 344 -1
        270 346 345 -1
        270 347 346 -1
        270 348 347 -1
        270 349 348 -1
        270 350 349 -1
        270 351 350 -1
        270 352 351 -1
        270 353 352 -1
        270 354 353 -1
        270 355 354 -1
        270 356 355 -1
        270 359 358 -1
        270 360 359 -1
        270 361 360 -1
        270 362 361 -1
        270 363 362 -1
        270 364 363 -1
        270 365 364 -1
        270 368 367 -1
        270 369 368 -1
        270 373 372 -1
        270 374 373 -1
        270 375 374 -1
        270 379 378 -1
        270 254 379 -1
        270 367 365 -1
        270 358 356 -1
        270 260 257 -1
        270 262 260 -1
        270 372 369 -1
        270 378 375 -1
        270 273 271 -1
        270 257 255 -1
        270 264 262 -1
        270 267 265 -1
        378 376 375 -1
        378 377 376 -1
        257 256 255 -1
        385 383 384 -1
        386 383 385 -1
        388 386 387 -1
        390 388 389 -1
        484 482 483 -1
        393 391 392 -1
        493 491 492 -1
        397 398 399 -1
        498 495 496 -1
        498 496 497 -1
        396 380 381 -1
        396 390 391 -1
        396 393 394 -1
        396 394 395 -1
        396 399 400 -1
        396 400 401 -1
        396 401 402 -1
        396 402 403 -1
        396 403 404 -1
        396 404 405 -1
        396 405 406 -1
        396 406 407 -1
        396 407 408 -1
        396 408 409 -1
        396 409 410 -1
        396 410 411 -1
        396 411 412 -1
        396 412 413 -1
        396 413 414 -1
        396 414 415 -1
        396 415 416 -1
        396 416 417 -1
        396 417 418 -1
        396 418 419 -1
        396 419 420 -1
        396 420 421 -1
        396 421 422 -1
        396 422 423 -1
        396 423 424 -1
        396 424 425 -1
        396 425 426 -1
        396 426 427 -1
        396 427 428 -1
        396 428 429 -1
        396 429 430 -1
        396 430 431 -1
        396 431 432 -1
        396 432 433 -1
        396 433 434 -1
        396 434 435 -1
        396 435 436 -1
        396 436 437 -1
        396 437 438 -1
        396 438 439 -1
        396 439 440 -1
        396 440 441 -1
        396 441 442 -1
        396 442 443 -1
        396 443 444 -1
        396 444 445 -1
        396 445 446 -1
        396 446 447 -1
        396 447 448 -1
        396 448 449 -1
        396 449 450 -1
        396 450 451 -1
        396 451 452 -1
        396 452 453 -1
        396 453 454 -1
        396 454 455 -1
        396 455 456 -1
        396 456 457 -1
        396 457 458 -1
        396 458 459 -1
        396 459 460 -1
        396 460 461 -1
        396 461 462 -1
        396 462 463 -1
        396 463 464 -1
        396 464 465 -1
        396 465 466 -1
        396 466 467 -1
        396 467 468 -1
        396 468 469 -1
        396 469 470 -1
        396 470 471 -1
        396 471 472 -1
        396 472 473 -1
        396 473 474 -1
        396 474 475 -1
        396 475 476 -1
        396 476 477 -1
        396 477 478 -1
        396 478 479 -1
        396 479 480 -1
        396 480 481 -1
        396 481 482 -1
        396 484 485 -1
        396 485 486 -1
        396 486 487 -1
        396 487 488 -1
        396 488 489 -1
        396 489 490 -1
        396 490 491 -1
        396 493 494 -1
        396 494 495 -1
        396 498 499 -1
        396 499 500 -1
        396 500 501 -1
        396 504 505 -1
        396 505 380 -1
        396 491 493 -1
        396 482 484 -1
        396 383 386 -1
        396 386 388 -1
        396 495 498 -1
        396 501 504 -1
        396 397 399 -1
        396 381 383 -1
        396 388 390 -1
        396 391 393 -1
        504 501 502 -1
        504 502 503 -1
        383 381 382 -1
      ]
    }
  }
] }
