%TF.GenerationSoftware,KiCad,Pcbnew,9.0.7*%
%TF.CreationDate,2026-03-07T18:13:34+01:00*%
%TF.ProjectId,halo-90,68616c6f-2d39-4302-9e6b-696361645f70,0V8*%
%TF.SameCoordinates,Original*%
%TF.FileFunction,Legend,Top*%
%TF.FilePolarity,Positive*%
%FSLAX46Y46*%
G04 Gerber Fmt 4.6, Leading zero omitted, Abs format (unit mm)*
G04 Created by KiCad (PCBNEW 9.0.7) date 2026-03-07 18:13:34*
%MOMM*%
%LPD*%
G01*
G04 APERTURE LIST*
%ADD10C,0.150000*%
%ADD11C,0.120000*%
%ADD12C,0.100000*%
%ADD13C,0.059995*%
G04 APERTURE END LIST*
D10*
X13666375Y6262480D02*
X13315678Y6981516D01*
X13315678Y6981516D02*
X13486877Y7065015D01*
X13486877Y7065015D02*
X13606296Y7080875D01*
X13606296Y7080875D02*
X13708175Y7045795D01*
X13708175Y7045795D02*
X13775815Y6994015D01*
X13775815Y6994015D02*
X13876854Y6873756D01*
X13876854Y6873756D02*
X13926953Y6771037D01*
X13926953Y6771037D02*
X13959513Y6617378D01*
X13959513Y6617378D02*
X13958673Y6532198D01*
X13958673Y6532198D02*
X13923593Y6430319D01*
X13923593Y6430319D02*
X13837574Y6345980D01*
X13837574Y6345980D02*
X13666375Y6262480D01*
X13966234Y7298813D02*
X14411351Y7515911D01*
X14411351Y7515911D02*
X14305271Y7125094D01*
X14305271Y7125094D02*
X14407990Y7175193D01*
X14407990Y7175193D02*
X14493170Y7174353D01*
X14493170Y7174353D02*
X14544109Y7156813D01*
X14544109Y7156813D02*
X14611749Y7105034D01*
X14611749Y7105034D02*
X14695248Y6933835D01*
X14695248Y6933835D02*
X14694408Y6848655D01*
X14694408Y6848655D02*
X14676868Y6797716D01*
X14676868Y6797716D02*
X14625088Y6730076D01*
X14625088Y6730076D02*
X14419650Y6629877D01*
X14419650Y6629877D02*
X14334470Y6630717D01*
X14334470Y6630717D02*
X14283531Y6648257D01*
X14856468Y7733009D02*
X14924947Y7766409D01*
X14924947Y7766409D02*
X15010127Y7765569D01*
X15010127Y7765569D02*
X15061067Y7748029D01*
X15061067Y7748029D02*
X15128706Y7696249D01*
X15128706Y7696249D02*
X15229745Y7575990D01*
X15229745Y7575990D02*
X15313244Y7404791D01*
X15313244Y7404791D02*
X15345804Y7251132D01*
X15345804Y7251132D02*
X15344964Y7165953D01*
X15344964Y7165953D02*
X15327424Y7115013D01*
X15327424Y7115013D02*
X15275644Y7047374D01*
X15275644Y7047374D02*
X15207165Y7013974D01*
X15207165Y7013974D02*
X15121985Y7014814D01*
X15121985Y7014814D02*
X15071046Y7032354D01*
X15071046Y7032354D02*
X15003406Y7084134D01*
X15003406Y7084134D02*
X14902367Y7204393D01*
X14902367Y7204393D02*
X14818868Y7375592D01*
X14818868Y7375592D02*
X14786308Y7529251D01*
X14786308Y7529251D02*
X14787148Y7614430D01*
X14787148Y7614430D02*
X14804688Y7665370D01*
X14804688Y7665370D02*
X14856468Y7733009D01*
X-16840544Y-2134294D02*
X-16924166Y-1338676D01*
X-16924166Y-1338676D02*
X-16734734Y-1318766D01*
X-16734734Y-1318766D02*
X-16617092Y-1344707D01*
X-16617092Y-1344707D02*
X-16533355Y-1412516D01*
X-16533355Y-1412516D02*
X-16487504Y-1484307D01*
X-16487504Y-1484307D02*
X-16433689Y-1631871D01*
X-16433689Y-1631871D02*
X-16421743Y-1745531D01*
X-16421743Y-1745531D02*
X-16443702Y-1901059D01*
X-16443702Y-1901059D02*
X-16473624Y-1980814D01*
X-16473624Y-1980814D02*
X-16541433Y-2064551D01*
X-16541433Y-2064551D02*
X-16651111Y-2114384D01*
X-16651111Y-2114384D02*
X-16840544Y-2134294D01*
X-16204322Y-1263018D02*
X-15673910Y-1207269D01*
X-15673910Y-1207269D02*
X-15931266Y-2038725D01*
X-15219271Y-1159485D02*
X-15143498Y-1151521D01*
X-15143498Y-1151521D02*
X-15063743Y-1181443D01*
X-15063743Y-1181443D02*
X-15021875Y-1215348D01*
X-15021875Y-1215348D02*
X-14976024Y-1287139D01*
X-14976024Y-1287139D02*
X-14922209Y-1434703D01*
X-14922209Y-1434703D02*
X-14902299Y-1624136D01*
X-14902299Y-1624136D02*
X-14924257Y-1779664D01*
X-14924257Y-1779664D02*
X-14954180Y-1859419D01*
X-14954180Y-1859419D02*
X-14988084Y-1901288D01*
X-14988084Y-1901288D02*
X-15059876Y-1947138D01*
X-15059876Y-1947138D02*
X-15135649Y-1955102D01*
X-15135649Y-1955102D02*
X-15215404Y-1925180D01*
X-15215404Y-1925180D02*
X-15257272Y-1891275D01*
X-15257272Y-1891275D02*
X-15303123Y-1819484D01*
X-15303123Y-1819484D02*
X-15356938Y-1671920D01*
X-15356938Y-1671920D02*
X-15376848Y-1482487D01*
X-15376848Y-1482487D02*
X-15354889Y-1326959D01*
X-15354889Y-1326959D02*
X-15324967Y-1247204D01*
X-15324967Y-1247204D02*
X-15291062Y-1205335D01*
X-15291062Y-1205335D02*
X-15219271Y-1159485D01*
X-3882907Y16525213D02*
X-3100389Y16691542D01*
X-3100389Y16691542D02*
X-3060787Y16505228D01*
X-3060787Y16505228D02*
X-3074288Y16385520D01*
X-3074288Y16385520D02*
X-3132973Y16295153D01*
X-3132973Y16295153D02*
X-3199578Y16242050D01*
X-3199578Y16242050D02*
X-3340709Y16173105D01*
X-3340709Y16173105D02*
X-3452497Y16149344D01*
X-3452497Y16149344D02*
X-3609468Y16154925D01*
X-3609468Y16154925D02*
X-3691914Y16176347D01*
X-3691914Y16176347D02*
X-3782281Y16235031D01*
X-3782281Y16235031D02*
X-3843305Y16338899D01*
X-3843305Y16338899D02*
X-3882907Y16525213D01*
X-3123615Y15518216D02*
X-3645294Y15407330D01*
X-2865115Y15767893D02*
X-3463659Y15835401D01*
X-3463659Y15835401D02*
X-3360693Y15350985D01*
X-3550248Y14960176D02*
X-3518567Y14811125D01*
X-3518567Y14811125D02*
X-3465463Y14744520D01*
X-3465463Y14744520D02*
X-3420280Y14715178D01*
X-3420280Y14715178D02*
X-3292651Y14664414D01*
X-3292651Y14664414D02*
X-3135679Y14658833D01*
X-3135679Y14658833D02*
X-2837577Y14722196D01*
X-2837577Y14722196D02*
X-2770972Y14775300D01*
X-2770972Y14775300D02*
X-2741629Y14820483D01*
X-2741629Y14820483D02*
X-2720208Y14902929D01*
X-2720208Y14902929D02*
X-2751889Y15051980D01*
X-2751889Y15051980D02*
X-2804993Y15118585D01*
X-2804993Y15118585D02*
X-2850176Y15147928D01*
X-2850176Y15147928D02*
X-2932622Y15169350D01*
X-2932622Y15169350D02*
X-3118936Y15129747D01*
X-3118936Y15129747D02*
X-3185541Y15076644D01*
X-3185541Y15076644D02*
X-3214883Y15031460D01*
X-3214883Y15031460D02*
X-3236305Y14949014D01*
X-3236305Y14949014D02*
X-3204624Y14799963D01*
X-3204624Y14799963D02*
X-3151520Y14733358D01*
X-3151520Y14733358D02*
X-3106337Y14704016D01*
X-3106337Y14704016D02*
X-3023891Y14682594D01*
X10179067Y-11062283D02*
X10754539Y-10506556D01*
X10754539Y-10506556D02*
X10886855Y-10643573D01*
X10886855Y-10643573D02*
X10938841Y-10752246D01*
X10938841Y-10752246D02*
X10936960Y-10859980D01*
X10936960Y-10859980D02*
X10908617Y-10940309D01*
X10908617Y-10940309D02*
X10825466Y-11073565D01*
X10825466Y-11073565D02*
X10743256Y-11152955D01*
X10743256Y-11152955D02*
X10607179Y-11231404D01*
X10607179Y-11231404D02*
X10525909Y-11256927D01*
X10525909Y-11256927D02*
X10418176Y-11255047D01*
X10418176Y-11255047D02*
X10311383Y-11199300D01*
X10311383Y-11199300D02*
X10179067Y-11062283D01*
X11025889Y-11939192D02*
X10708330Y-11610351D01*
X10867110Y-11774771D02*
X11442581Y-11219045D01*
X11442581Y-11219045D02*
X11307445Y-11243627D01*
X11307445Y-11243627D02*
X11199712Y-11241747D01*
X11199712Y-11241747D02*
X11119382Y-11213403D01*
X11758259Y-11655619D02*
X11812126Y-11656559D01*
X11812126Y-11656559D02*
X11892456Y-11684903D01*
X11892456Y-11684903D02*
X12024771Y-11821920D01*
X12024771Y-11821920D02*
X12050294Y-11903190D01*
X12050294Y-11903190D02*
X12049354Y-11957057D01*
X12049354Y-11957057D02*
X12021010Y-12037387D01*
X12021010Y-12037387D02*
X11966204Y-12090313D01*
X11966204Y-12090313D02*
X11857530Y-12142299D01*
X11857530Y-12142299D02*
X11211131Y-12131016D01*
X11211131Y-12131016D02*
X11555152Y-12487261D01*
X-14516561Y-8799471D02*
X-14916561Y-8106650D01*
X-14916561Y-8106650D02*
X-14751604Y-8011412D01*
X-14751604Y-8011412D02*
X-14633582Y-7987261D01*
X-14633582Y-7987261D02*
X-14529504Y-8015149D01*
X-14529504Y-8015149D02*
X-14458417Y-8062084D01*
X-14458417Y-8062084D02*
X-14349235Y-8175002D01*
X-14349235Y-8175002D02*
X-14292092Y-8273976D01*
X-14292092Y-8273976D02*
X-14248893Y-8424990D01*
X-14248893Y-8424990D02*
X-14243789Y-8510020D01*
X-14243789Y-8510020D02*
X-14271677Y-8614098D01*
X-14271677Y-8614098D02*
X-14351604Y-8704233D01*
X-14351604Y-8704233D02*
X-14516561Y-8799471D01*
X-14289723Y-7744746D02*
X-13827843Y-7478079D01*
X-13827843Y-7478079D02*
X-13724766Y-8342328D01*
X-13266989Y-7154269D02*
X-13398954Y-7230460D01*
X-13398954Y-7230460D02*
X-13445890Y-7301547D01*
X-13445890Y-7301547D02*
X-13459833Y-7353586D01*
X-13459833Y-7353586D02*
X-13468673Y-7490655D01*
X-13468673Y-7490655D02*
X-13425474Y-7641669D01*
X-13425474Y-7641669D02*
X-13273093Y-7905600D01*
X-13273093Y-7905600D02*
X-13202007Y-7952535D01*
X-13202007Y-7952535D02*
X-13149968Y-7966479D01*
X-13149968Y-7966479D02*
X-13064937Y-7961375D01*
X-13064937Y-7961375D02*
X-12932971Y-7885185D01*
X-12932971Y-7885185D02*
X-12886036Y-7814098D01*
X-12886036Y-7814098D02*
X-12872092Y-7762059D01*
X-12872092Y-7762059D02*
X-12877196Y-7677029D01*
X-12877196Y-7677029D02*
X-12972434Y-7512071D01*
X-12972434Y-7512071D02*
X-13043521Y-7465136D01*
X-13043521Y-7465136D02*
X-13095560Y-7451192D01*
X-13095560Y-7451192D02*
X-13180590Y-7456296D01*
X-13180590Y-7456296D02*
X-13312556Y-7532487D01*
X-13312556Y-7532487D02*
X-13359491Y-7603573D01*
X-13359491Y-7603573D02*
X-13373435Y-7655612D01*
X-13373435Y-7655612D02*
X-13368332Y-7740643D01*
X3478964Y14624811D02*
X2696446Y14791141D01*
X2696446Y14791141D02*
X2736048Y14977455D01*
X2736048Y14977455D02*
X2797073Y15081322D01*
X2797073Y15081322D02*
X2887439Y15140007D01*
X2887439Y15140007D02*
X2969885Y15161429D01*
X2969885Y15161429D02*
X3126856Y15167010D01*
X3126856Y15167010D02*
X3238645Y15143249D01*
X3238645Y15143249D02*
X3379775Y15074304D01*
X3379775Y15074304D02*
X3446380Y15021200D01*
X3446380Y15021200D02*
X3505065Y14930834D01*
X3505065Y14930834D02*
X3518567Y14811125D01*
X3518567Y14811125D02*
X3478964Y14624811D01*
X3194899Y15853581D02*
X3716578Y15742694D01*
X2857195Y15730630D02*
X3376534Y15425510D01*
X3376534Y15425510D02*
X3479500Y15909926D01*
X3005344Y16244389D02*
X3108309Y16728805D01*
X3108309Y16728805D02*
X3350968Y16404602D01*
X3350968Y16404602D02*
X3374730Y16516390D01*
X3374730Y16516390D02*
X3427833Y16582995D01*
X3427833Y16582995D02*
X3473017Y16612338D01*
X3473017Y16612338D02*
X3555463Y16633759D01*
X3555463Y16633759D02*
X3741776Y16594157D01*
X3741776Y16594157D02*
X3808382Y16541054D01*
X3808382Y16541054D02*
X3837724Y16495870D01*
X3837724Y16495870D02*
X3859146Y16413424D01*
X3859146Y16413424D02*
X3811623Y16189848D01*
X3811623Y16189848D02*
X3758519Y16123243D01*
X3758519Y16123243D02*
X3713336Y16093900D01*
X14737356Y-2966445D02*
X14876275Y-2178599D01*
X14876275Y-2178599D02*
X15063857Y-2211674D01*
X15063857Y-2211674D02*
X15169791Y-2269036D01*
X15169791Y-2269036D02*
X15231594Y-2357300D01*
X15231594Y-2357300D02*
X15255880Y-2438948D01*
X15255880Y-2438948D02*
X15266936Y-2595629D01*
X15266936Y-2595629D02*
X15247090Y-2708178D01*
X15247090Y-2708178D02*
X15183113Y-2851629D01*
X15183113Y-2851629D02*
X15132366Y-2920047D01*
X15132366Y-2920047D02*
X15044103Y-2981850D01*
X15044103Y-2981850D02*
X14924938Y-2999521D01*
X14924938Y-2999521D02*
X14737356Y-2966445D01*
X15613374Y-2385935D02*
X15657506Y-2355034D01*
X15657506Y-2355034D02*
X15739154Y-2330747D01*
X15739154Y-2330747D02*
X15926736Y-2363823D01*
X15926736Y-2363823D02*
X15995154Y-2414570D01*
X15995154Y-2414570D02*
X16026055Y-2458702D01*
X16026055Y-2458702D02*
X16050341Y-2540350D01*
X16050341Y-2540350D02*
X16037111Y-2615383D01*
X16037111Y-2615383D02*
X15979749Y-2721317D01*
X15979749Y-2721317D02*
X15450169Y-3092133D01*
X15450169Y-3092133D02*
X15937884Y-3178130D01*
X16688213Y-3310434D02*
X16238016Y-3231052D01*
X16463115Y-3270743D02*
X16602033Y-2482896D01*
X16602033Y-2482896D02*
X16507155Y-2582216D01*
X16507155Y-2582216D02*
X16418891Y-2644018D01*
X16418891Y-2644018D02*
X16337243Y-2668304D01*
X-16916284Y1413673D02*
X-16832661Y2209290D01*
X-16832661Y2209290D02*
X-16643228Y2189380D01*
X-16643228Y2189380D02*
X-16533551Y2139548D01*
X-16533551Y2139548D02*
X-16465742Y2055810D01*
X-16465742Y2055810D02*
X-16435819Y1976055D01*
X-16435819Y1976055D02*
X-16413861Y1820527D01*
X-16413861Y1820527D02*
X-16425807Y1706867D01*
X-16425807Y1706867D02*
X-16479622Y1559303D01*
X-16479622Y1559303D02*
X-16525472Y1487512D01*
X-16525472Y1487512D02*
X-16609209Y1419703D01*
X-16609209Y1419703D02*
X-16726851Y1393763D01*
X-16726851Y1393763D02*
X-16916284Y1413673D01*
X-15696065Y2089829D02*
X-15847611Y2105757D01*
X-15847611Y2105757D02*
X-15927366Y2075835D01*
X-15927366Y2075835D02*
X-15969235Y2041930D01*
X-15969235Y2041930D02*
X-16056954Y1936235D01*
X-16056954Y1936235D02*
X-16110768Y1788671D01*
X-16110768Y1788671D02*
X-16142625Y1485578D01*
X-16142625Y1485578D02*
X-16112702Y1405823D01*
X-16112702Y1405823D02*
X-16078798Y1363955D01*
X-16078798Y1363955D02*
X-16007007Y1318104D01*
X-16007007Y1318104D02*
X-15855461Y1302176D01*
X-15855461Y1302176D02*
X-15775705Y1332098D01*
X-15775705Y1332098D02*
X-15733837Y1366003D01*
X-15733837Y1366003D02*
X-15687986Y1437794D01*
X-15687986Y1437794D02*
X-15668076Y1627227D01*
X-15668076Y1627227D02*
X-15697998Y1706982D01*
X-15697998Y1706982D02*
X-15731903Y1748850D01*
X-15731903Y1748850D02*
X-15803694Y1794701D01*
X-15803694Y1794701D02*
X-15955240Y1810629D01*
X-15955240Y1810629D02*
X-16034995Y1780707D01*
X-16034995Y1780707D02*
X-16076864Y1746802D01*
X-16076864Y1746802D02*
X-16122715Y1675011D01*
X-15355085Y2053991D02*
X-14824674Y1998242D01*
X-14824674Y1998242D02*
X-15249276Y1238463D01*
X-1545258Y16904810D02*
X-747206Y16960615D01*
X-747206Y16960615D02*
X-733919Y16770602D01*
X-733919Y16770602D02*
X-763950Y16653938D01*
X-763950Y16653938D02*
X-834640Y16572618D01*
X-834640Y16572618D02*
X-907987Y16529301D01*
X-907987Y16529301D02*
X-1057340Y16480669D01*
X-1057340Y16480669D02*
X-1171347Y16472697D01*
X-1171347Y16472697D02*
X-1326014Y16500070D01*
X-1326014Y16500070D02*
X-1404676Y16532757D01*
X-1404676Y16532757D02*
X-1485996Y16603447D01*
X-1485996Y16603447D02*
X-1531971Y16714797D01*
X-1531971Y16714797D02*
X-1545258Y16904810D01*
X-933502Y15801940D02*
X-1465536Y15764736D01*
X-642769Y16013211D02*
X-1226093Y16163362D01*
X-1226093Y16163362D02*
X-1191547Y15669331D01*
X-643568Y15478519D02*
X-606365Y14946485D01*
X-606365Y14946485D02*
X-1428332Y15232702D01*
X-8686231Y-14584545D02*
X-9364669Y-14160610D01*
X-9364669Y-14160610D02*
X-9263732Y-13999077D01*
X-9263732Y-13999077D02*
X-9170863Y-13922344D01*
X-9170863Y-13922344D02*
X-9065875Y-13898106D01*
X-9065875Y-13898106D02*
X-8981075Y-13906174D01*
X-8981075Y-13906174D02*
X-8831661Y-13954617D01*
X-8831661Y-13954617D02*
X-8734741Y-14015179D01*
X-8734741Y-14015179D02*
X-8625702Y-14128236D01*
X-8625702Y-14128236D02*
X-8581276Y-14200917D01*
X-8581276Y-14200917D02*
X-8557038Y-14305905D01*
X-8557038Y-14305905D02*
X-8585294Y-14423012D01*
X-8585294Y-14423012D02*
X-8686231Y-14584545D01*
X-8589412Y-13566938D02*
X-8662093Y-13611364D01*
X-8662093Y-13611364D02*
X-8714587Y-13623483D01*
X-8714587Y-13623483D02*
X-8799388Y-13615415D01*
X-8799388Y-13615415D02*
X-8831695Y-13595227D01*
X-8831695Y-13595227D02*
X-8876120Y-13522546D01*
X-8876120Y-13522546D02*
X-8888240Y-13470052D01*
X-8888240Y-13470052D02*
X-8880171Y-13385251D01*
X-8880171Y-13385251D02*
X-8799422Y-13256025D01*
X-8799422Y-13256025D02*
X-8726740Y-13211599D01*
X-8726740Y-13211599D02*
X-8674246Y-13199480D01*
X-8674246Y-13199480D02*
X-8589446Y-13207548D01*
X-8589446Y-13207548D02*
X-8557139Y-13227736D01*
X-8557139Y-13227736D02*
X-8512713Y-13300417D01*
X-8512713Y-13300417D02*
X-8500594Y-13352911D01*
X-8500594Y-13352911D02*
X-8508662Y-13437712D01*
X-8508662Y-13437712D02*
X-8589412Y-13566938D01*
X-8589412Y-13566938D02*
X-8597480Y-13651739D01*
X-8597480Y-13651739D02*
X-8585361Y-13704233D01*
X-8585361Y-13704233D02*
X-8540935Y-13776914D01*
X-8540935Y-13776914D02*
X-8411709Y-13857664D01*
X-8411709Y-13857664D02*
X-8326908Y-13865732D01*
X-8326908Y-13865732D02*
X-8274414Y-13853613D01*
X-8274414Y-13853613D02*
X-8201733Y-13809187D01*
X-8201733Y-13809187D02*
X-8120983Y-13679960D01*
X-8120983Y-13679960D02*
X-8112915Y-13595160D01*
X-8112915Y-13595160D02*
X-8125034Y-13542666D01*
X-8125034Y-13542666D02*
X-8169460Y-13469984D01*
X-8169460Y-13469984D02*
X-8298686Y-13389235D01*
X-8298686Y-13389235D02*
X-8383487Y-13381167D01*
X-8383487Y-13381167D02*
X-8435981Y-13393286D01*
X-8435981Y-13393286D02*
X-8508662Y-13437712D01*
X-8577360Y-12900652D02*
X-8314924Y-12480667D01*
X-8314924Y-12480667D02*
X-8197783Y-12868312D01*
X-8197783Y-12868312D02*
X-8137221Y-12771392D01*
X-8137221Y-12771392D02*
X-8064540Y-12726966D01*
X-8064540Y-12726966D02*
X-8012046Y-12714847D01*
X-8012046Y-12714847D02*
X-7927245Y-12722915D01*
X-7927245Y-12722915D02*
X-7765712Y-12823852D01*
X-7765712Y-12823852D02*
X-7721286Y-12896534D01*
X-7721286Y-12896534D02*
X-7709167Y-12949028D01*
X-7709167Y-12949028D02*
X-7717235Y-13033828D01*
X-7717235Y-13033828D02*
X-7838360Y-13227668D01*
X-7838360Y-13227668D02*
X-7911041Y-13272094D01*
X-7911041Y-13272094D02*
X-7963535Y-13284213D01*
X-822432Y-16955354D02*
X-1620483Y-16899549D01*
X-1620483Y-16899549D02*
X-1607197Y-16709537D01*
X-1607197Y-16709537D02*
X-1561222Y-16598187D01*
X-1561222Y-16598187D02*
X-1479902Y-16527497D01*
X-1479902Y-16527497D02*
X-1401240Y-16494809D01*
X-1401240Y-16494809D02*
X-1246573Y-16467436D01*
X-1246573Y-16467436D02*
X-1132566Y-16475409D01*
X-1132566Y-16475409D02*
X-983213Y-16524041D01*
X-983213Y-16524041D02*
X-909866Y-16567358D01*
X-909866Y-16567358D02*
X-839176Y-16648677D01*
X-839176Y-16648677D02*
X-809145Y-16765342D01*
X-809145Y-16765342D02*
X-822432Y-16955354D01*
X-763970Y-16119301D02*
X-753340Y-15967291D01*
X-753340Y-15967291D02*
X-786028Y-15888629D01*
X-786028Y-15888629D02*
X-821373Y-15847969D01*
X-821373Y-15847969D02*
X-930065Y-15763992D01*
X-930065Y-15763992D02*
X-1079418Y-15715360D01*
X-1079418Y-15715360D02*
X-1383437Y-15694101D01*
X-1383437Y-15694101D02*
X-1462100Y-15726788D01*
X-1462100Y-15726788D02*
X-1502759Y-15762133D01*
X-1502759Y-15762133D02*
X-1546077Y-15835481D01*
X-1546077Y-15835481D02*
X-1556706Y-15987491D01*
X-1556706Y-15987491D02*
X-1524018Y-16066153D01*
X-1524018Y-16066153D02*
X-1488673Y-16106813D01*
X-1488673Y-16106813D02*
X-1415326Y-16150130D01*
X-1415326Y-16150130D02*
X-1225314Y-16163417D01*
X-1225314Y-16163417D02*
X-1146651Y-16130729D01*
X-1146651Y-16130729D02*
X-1105992Y-16095384D01*
X-1105992Y-16095384D02*
X-1062674Y-16022037D01*
X-1062674Y-16022037D02*
X-1052045Y-15870027D01*
X-1052045Y-15870027D02*
X-1084733Y-15791365D01*
X-1084733Y-15791365D02*
X-1120078Y-15750705D01*
X-1120078Y-15750705D02*
X-1193425Y-15707388D01*
X-1500901Y-15189439D02*
X-1495586Y-15113434D01*
X-1495586Y-15113434D02*
X-1452269Y-15040087D01*
X-1452269Y-15040087D02*
X-1411609Y-15004742D01*
X-1411609Y-15004742D02*
X-1332947Y-14972054D01*
X-1332947Y-14972054D02*
X-1178280Y-14944681D01*
X-1178280Y-14944681D02*
X-988267Y-14957968D01*
X-988267Y-14957968D02*
X-838915Y-15006600D01*
X-838915Y-15006600D02*
X-765568Y-15049917D01*
X-765568Y-15049917D02*
X-730223Y-15090577D01*
X-730223Y-15090577D02*
X-697535Y-15169239D01*
X-697535Y-15169239D02*
X-702850Y-15245244D01*
X-702850Y-15245244D02*
X-746167Y-15318592D01*
X-746167Y-15318592D02*
X-786827Y-15353937D01*
X-786827Y-15353937D02*
X-865489Y-15386625D01*
X-865489Y-15386625D02*
X-1020156Y-15413997D01*
X-1020156Y-15413997D02*
X-1210168Y-15400710D01*
X-1210168Y-15400710D02*
X-1359521Y-15352078D01*
X-1359521Y-15352078D02*
X-1432868Y-15308761D01*
X-1432868Y-15308761D02*
X-1468213Y-15268101D01*
X-1468213Y-15268101D02*
X-1500901Y-15189439D01*
X13196292Y7200528D02*
X12796292Y7893349D01*
X12796292Y7893349D02*
X12961249Y7988587D01*
X12961249Y7988587D02*
X13079271Y8012738D01*
X13079271Y8012738D02*
X13183349Y7984850D01*
X13183349Y7984850D02*
X13254436Y7937915D01*
X13254436Y7937915D02*
X13363618Y7824997D01*
X13363618Y7824997D02*
X13420761Y7726023D01*
X13420761Y7726023D02*
X13463960Y7575009D01*
X13463960Y7575009D02*
X13469064Y7489979D01*
X13469064Y7489979D02*
X13441176Y7385901D01*
X13441176Y7385901D02*
X13361249Y7295766D01*
X13361249Y7295766D02*
X13196292Y7200528D01*
X13423130Y8255253D02*
X13852018Y8502872D01*
X13852018Y8502872D02*
X13773459Y8105607D01*
X13773459Y8105607D02*
X13872433Y8162750D01*
X13872433Y8162750D02*
X13957464Y8167854D01*
X13957464Y8167854D02*
X14009503Y8153910D01*
X14009503Y8153910D02*
X14080590Y8106975D01*
X14080590Y8106975D02*
X14175828Y7942018D01*
X14175828Y7942018D02*
X14180932Y7856987D01*
X14180932Y7856987D02*
X14166988Y7804948D01*
X14166988Y7804948D02*
X14120053Y7733862D01*
X14120053Y7733862D02*
X13922104Y7619576D01*
X13922104Y7619576D02*
X13837073Y7614472D01*
X13837073Y7614472D02*
X13785034Y7628416D01*
X14911847Y8191005D02*
X14515950Y7962433D01*
X14713899Y8076719D02*
X14313899Y8769539D01*
X14313899Y8769539D02*
X14305059Y8632470D01*
X14305059Y8632470D02*
X14277171Y8528391D01*
X14277171Y8528391D02*
X14230236Y8457305D01*
X-5026209Y16214143D02*
X-4257200Y16434653D01*
X-4257200Y16434653D02*
X-4204697Y16251555D01*
X-4204697Y16251555D02*
X-4209815Y16131196D01*
X-4209815Y16131196D02*
X-4262054Y16036956D01*
X-4262054Y16036956D02*
X-4324792Y15979336D01*
X-4324792Y15979336D02*
X-4460770Y15900714D01*
X-4460770Y15900714D02*
X-4570628Y15869213D01*
X-4570628Y15869213D02*
X-4727606Y15863831D01*
X-4727606Y15863831D02*
X-4811346Y15879449D01*
X-4811346Y15879449D02*
X-4905586Y15931687D01*
X-4905586Y15931687D02*
X-4973707Y16031045D01*
X-4973707Y16031045D02*
X-5026209Y16214143D01*
X-3931685Y15299448D02*
X-4036690Y15665643D01*
X-4036690Y15665643D02*
X-4413385Y15597258D01*
X-4413385Y15597258D02*
X-4366265Y15571139D01*
X-4366265Y15571139D02*
X-4308645Y15508400D01*
X-4308645Y15508400D02*
X-4256143Y15325303D01*
X-4256143Y15325303D02*
X-4271761Y15241564D01*
X-4271761Y15241564D02*
X-4297880Y15194444D01*
X-4297880Y15194444D02*
X-4360619Y15136823D01*
X-4360619Y15136823D02*
X-4543716Y15084321D01*
X-4543716Y15084321D02*
X-4627456Y15099939D01*
X-4627456Y15099939D02*
X-4674575Y15126058D01*
X-4674575Y15126058D02*
X-4732196Y15188797D01*
X-4732196Y15188797D02*
X-4784698Y15371894D01*
X-4784698Y15371894D02*
X-4769080Y15455634D01*
X-4769080Y15455634D02*
X-4742961Y15502754D01*
X-3784678Y14786775D02*
X-3763678Y14713536D01*
X-3763678Y14713536D02*
X-3779296Y14629797D01*
X-3779296Y14629797D02*
X-3805415Y14582677D01*
X-3805415Y14582677D02*
X-3868154Y14525056D01*
X-3868154Y14525056D02*
X-4004131Y14446435D01*
X-4004131Y14446435D02*
X-4187229Y14393933D01*
X-4187229Y14393933D02*
X-4344207Y14388550D01*
X-4344207Y14388550D02*
X-4427947Y14404169D01*
X-4427947Y14404169D02*
X-4475066Y14430288D01*
X-4475066Y14430288D02*
X-4532687Y14493026D01*
X-4532687Y14493026D02*
X-4553688Y14566265D01*
X-4553688Y14566265D02*
X-4538069Y14650005D01*
X-4538069Y14650005D02*
X-4511950Y14697125D01*
X-4511950Y14697125D02*
X-4449212Y14754745D01*
X-4449212Y14754745D02*
X-4313234Y14833367D01*
X-4313234Y14833367D02*
X-4130137Y14885869D01*
X-4130137Y14885869D02*
X-3973158Y14891251D01*
X-3973158Y14891251D02*
X-3889419Y14875633D01*
X-3889419Y14875633D02*
X-3842299Y14849514D01*
X-3842299Y14849514D02*
X-3784678Y14786775D01*
X-6144995Y15823995D02*
X-5393241Y16097611D01*
X-5393241Y16097611D02*
X-5328094Y15918622D01*
X-5328094Y15918622D02*
X-5324804Y15798199D01*
X-5324804Y15798199D02*
X-5370341Y15700545D01*
X-5370341Y15700545D02*
X-5428907Y15638688D01*
X-5428907Y15638688D02*
X-5559069Y15550773D01*
X-5559069Y15550773D02*
X-5666462Y15511685D01*
X-5666462Y15511685D02*
X-5822683Y15495365D01*
X-5822683Y15495365D02*
X-5907308Y15505105D01*
X-5907308Y15505105D02*
X-6004962Y15550642D01*
X-6004962Y15550642D02*
X-6079848Y15645006D01*
X-6079848Y15645006D02*
X-6144995Y15823995D01*
X-4989331Y14987879D02*
X-5119625Y15345857D01*
X-5119625Y15345857D02*
X-5490632Y15251361D01*
X-5490632Y15251361D02*
X-5441805Y15228593D01*
X-5441805Y15228593D02*
X-5379949Y15170026D01*
X-5379949Y15170026D02*
X-5314802Y14991037D01*
X-5314802Y14991037D02*
X-5324541Y14906412D01*
X-5324541Y14906412D02*
X-5347309Y14857585D01*
X-5347309Y14857585D02*
X-5405876Y14795729D01*
X-5405876Y14795729D02*
X-5584865Y14730582D01*
X-5584865Y14730582D02*
X-5669490Y14740321D01*
X-5669490Y14740321D02*
X-5718317Y14763090D01*
X-5718317Y14763090D02*
X-5780173Y14821656D01*
X-5780173Y14821656D02*
X-5845320Y15000645D01*
X-5845320Y15000645D02*
X-5835581Y15085270D01*
X-5835581Y15085270D02*
X-5812812Y15134097D01*
X-5467469Y13962508D02*
X-5623821Y14392082D01*
X-5545645Y14177295D02*
X-4793891Y14450911D01*
X-4793891Y14450911D02*
X-4927343Y14483419D01*
X-4927343Y14483419D02*
X-5024998Y14528956D01*
X-5024998Y14528956D02*
X-5086854Y14587522D01*
X12661829Y8103492D02*
X12214475Y8766722D01*
X12214475Y8766722D02*
X12372387Y8873235D01*
X12372387Y8873235D02*
X12488437Y8905560D01*
X12488437Y8905560D02*
X12594207Y8885001D01*
X12594207Y8885001D02*
X12668394Y8843139D01*
X12668394Y8843139D02*
X12785187Y8738112D01*
X12785187Y8738112D02*
X12849095Y8643365D01*
X12849095Y8643365D02*
X12902723Y8495732D01*
X12902723Y8495732D02*
X12913746Y8411265D01*
X12913746Y8411265D02*
X12893186Y8305495D01*
X12893186Y8305495D02*
X12819741Y8210005D01*
X12819741Y8210005D02*
X12661829Y8103492D01*
X12814540Y9171471D02*
X13225111Y9448405D01*
X13225111Y9448405D02*
X13174455Y9046628D01*
X13174455Y9046628D02*
X13269203Y9110535D01*
X13269203Y9110535D02*
X13353670Y9121558D01*
X13353670Y9121558D02*
X13406555Y9111278D01*
X13406555Y9111278D02*
X13480742Y9069416D01*
X13480742Y9069416D02*
X13587255Y8911504D01*
X13587255Y8911504D02*
X13598278Y8827037D01*
X13598278Y8827037D02*
X13587998Y8774152D01*
X13587998Y8774152D02*
X13546136Y8699964D01*
X13546136Y8699964D02*
X13356642Y8572149D01*
X13356642Y8572149D02*
X13272175Y8561126D01*
X13272175Y8561126D02*
X13219290Y8571406D01*
X13520376Y9555661D02*
X13530656Y9608546D01*
X13530656Y9608546D02*
X13572518Y9682733D01*
X13572518Y9682733D02*
X13730430Y9789246D01*
X13730430Y9789246D02*
X13814897Y9800269D01*
X13814897Y9800269D02*
X13867782Y9789989D01*
X13867782Y9789989D02*
X13941970Y9748127D01*
X13941970Y9748127D02*
X13984575Y9684962D01*
X13984575Y9684962D02*
X14016900Y9568913D01*
X14016900Y9568913D02*
X13893543Y8934293D01*
X13893543Y8934293D02*
X14304114Y9211227D01*
X6443640Y13581923D02*
X5712804Y13907313D01*
X5712804Y13907313D02*
X5790277Y14081321D01*
X5790277Y14081321D02*
X5871563Y14170232D01*
X5871563Y14170232D02*
X5972156Y14208846D01*
X5972156Y14208846D02*
X6057254Y14212658D01*
X6057254Y14212658D02*
X6211956Y14185481D01*
X6211956Y14185481D02*
X6316361Y14138997D01*
X6316361Y14138997D02*
X6440073Y14042216D01*
X6440073Y14042216D02*
X6494182Y13976425D01*
X6494182Y13976425D02*
X6532796Y13875832D01*
X6532796Y13875832D02*
X6521114Y13755932D01*
X6521114Y13755932D02*
X6443640Y13581923D01*
X6421258Y14842902D02*
X6908482Y14625975D01*
X6065370Y14792851D02*
X6509922Y14386421D01*
X6509922Y14386421D02*
X6711354Y14838844D01*
X6410067Y15473391D02*
X6441056Y15542994D01*
X6441056Y15542994D02*
X6506847Y15597103D01*
X6506847Y15597103D02*
X6557144Y15616410D01*
X6557144Y15616410D02*
X6642242Y15620222D01*
X6642242Y15620222D02*
X6796943Y15593045D01*
X6796943Y15593045D02*
X6970952Y15515571D01*
X6970952Y15515571D02*
X7094664Y15418791D01*
X7094664Y15418791D02*
X7148773Y15353000D01*
X7148773Y15353000D02*
X7168080Y15302703D01*
X7168080Y15302703D02*
X7171892Y15217605D01*
X7171892Y15217605D02*
X7140903Y15148002D01*
X7140903Y15148002D02*
X7075112Y15093893D01*
X7075112Y15093893D02*
X7024815Y15074586D01*
X7024815Y15074586D02*
X6939717Y15070774D01*
X6939717Y15070774D02*
X6785015Y15097951D01*
X6785015Y15097951D02*
X6611007Y15175424D01*
X6611007Y15175424D02*
X6487295Y15272205D01*
X6487295Y15272205D02*
X6433186Y15337996D01*
X6433186Y15337996D02*
X6413879Y15388293D01*
X6413879Y15388293D02*
X6410067Y15473391D01*
X14863180Y2252862D02*
X14724261Y3040709D01*
X14724261Y3040709D02*
X14911844Y3073785D01*
X14911844Y3073785D02*
X15031008Y3056114D01*
X15031008Y3056114D02*
X15119272Y2994311D01*
X15119272Y2994311D02*
X15170018Y2925893D01*
X15170018Y2925893D02*
X15233996Y2782442D01*
X15233996Y2782442D02*
X15253841Y2669893D01*
X15253841Y2669893D02*
X15242785Y2513212D01*
X15242785Y2513212D02*
X15218499Y2431564D01*
X15218499Y2431564D02*
X15156697Y2343300D01*
X15156697Y2343300D02*
X15050762Y2285938D01*
X15050762Y2285938D02*
X14863180Y2252862D01*
X15487821Y3097979D02*
X15518723Y3142111D01*
X15518723Y3142111D02*
X15587140Y3192858D01*
X15587140Y3192858D02*
X15774723Y3225933D01*
X15774723Y3225933D02*
X15856371Y3201647D01*
X15856371Y3201647D02*
X15900503Y3170746D01*
X15900503Y3170746D02*
X15951249Y3102328D01*
X15951249Y3102328D02*
X15964480Y3027295D01*
X15964480Y3027295D02*
X15946809Y2908131D01*
X15946809Y2908131D02*
X15575993Y2378551D01*
X15575993Y2378551D02*
X16063707Y2464548D01*
X16600086Y3371467D02*
X16450020Y3345007D01*
X16450020Y3345007D02*
X16381602Y3294260D01*
X16381602Y3294260D02*
X16350701Y3250128D01*
X16350701Y3250128D02*
X16295513Y3124348D01*
X16295513Y3124348D02*
X16284457Y2967667D01*
X16284457Y2967667D02*
X16337379Y2667535D01*
X16337379Y2667535D02*
X16388126Y2599117D01*
X16388126Y2599117D02*
X16432257Y2568216D01*
X16432257Y2568216D02*
X16513905Y2543930D01*
X16513905Y2543930D02*
X16663971Y2570391D01*
X16663971Y2570391D02*
X16732389Y2621137D01*
X16732389Y2621137D02*
X16763290Y2665269D01*
X16763290Y2665269D02*
X16787577Y2746917D01*
X16787577Y2746917D02*
X16754501Y2934500D01*
X16754501Y2934500D02*
X16703754Y3002917D01*
X16703754Y3002917D02*
X16659622Y3033819D01*
X16659622Y3033819D02*
X16577974Y3058105D01*
X16577974Y3058105D02*
X16427908Y3031644D01*
X16427908Y3031644D02*
X16359490Y2980897D01*
X16359490Y2980897D02*
X16328589Y2936766D01*
X16328589Y2936766D02*
X16304303Y2855118D01*
X12065708Y8967043D02*
X11573179Y9597451D01*
X11573179Y9597451D02*
X11723276Y9714720D01*
X11723276Y9714720D02*
X11836789Y9755062D01*
X11836789Y9755062D02*
X11943735Y9741931D01*
X11943735Y9741931D02*
X12020662Y9705345D01*
X12020662Y9705345D02*
X12144497Y9608721D01*
X12144497Y9608721D02*
X12214858Y9518663D01*
X12214858Y9518663D02*
X12278654Y9375131D01*
X12278654Y9375131D02*
X12295542Y9291639D01*
X12295542Y9291639D02*
X12282410Y9184692D01*
X12282410Y9184692D02*
X12215806Y9084312D01*
X12215806Y9084312D02*
X12065708Y8967043D01*
X12143549Y10043073D02*
X12533802Y10347972D01*
X12533802Y10347972D02*
X12511296Y9943640D01*
X12511296Y9943640D02*
X12601354Y10014001D01*
X12601354Y10014001D02*
X12684847Y10030889D01*
X12684847Y10030889D02*
X12738320Y10024324D01*
X12738320Y10024324D02*
X12815247Y9987738D01*
X12815247Y9987738D02*
X12932516Y9837641D01*
X12932516Y9837641D02*
X12949404Y9754148D01*
X12949404Y9754148D02*
X12942838Y9700675D01*
X12942838Y9700675D02*
X12906253Y9623748D01*
X12906253Y9623748D02*
X12726136Y9483026D01*
X12726136Y9483026D02*
X12642644Y9466138D01*
X12642644Y9466138D02*
X12589171Y9472703D01*
X12743938Y10512148D02*
X13134191Y10817047D01*
X13134191Y10817047D02*
X13111685Y10412715D01*
X13111685Y10412715D02*
X13201743Y10483077D01*
X13201743Y10483077D02*
X13285236Y10499965D01*
X13285236Y10499965D02*
X13338709Y10493399D01*
X13338709Y10493399D02*
X13415636Y10456814D01*
X13415636Y10456814D02*
X13532905Y10306717D01*
X13532905Y10306717D02*
X13549793Y10223224D01*
X13549793Y10223224D02*
X13543228Y10169751D01*
X13543228Y10169751D02*
X13506643Y10092824D01*
X13506643Y10092824D02*
X13326526Y9952101D01*
X13326526Y9952101D02*
X13243033Y9935213D01*
X13243033Y9935213D02*
X13189560Y9941779D01*
X9937749Y11279685D02*
X9324914Y11793915D01*
X9324914Y11793915D02*
X9447350Y11939828D01*
X9447350Y11939828D02*
X9549994Y12002889D01*
X9549994Y12002889D02*
X9657333Y12012280D01*
X9657333Y12012280D02*
X9740186Y11992488D01*
X9740186Y11992488D02*
X9881403Y11923722D01*
X9881403Y11923722D02*
X9968951Y11850261D01*
X9968951Y11850261D02*
X10061195Y11723130D01*
X10061195Y11723130D02*
X10095073Y11644973D01*
X10095073Y11644973D02*
X10104464Y11537633D01*
X10104464Y11537633D02*
X10060185Y11425598D01*
X10060185Y11425598D02*
X9937749Y11279685D01*
X9790170Y12348385D02*
X10108503Y12727760D01*
X10108503Y12727760D02*
X10170554Y12327584D01*
X10170554Y12327584D02*
X10244015Y12415132D01*
X10244015Y12415132D02*
X10322172Y12449010D01*
X10322172Y12449010D02*
X10375842Y12453706D01*
X10375842Y12453706D02*
X10458694Y12433914D01*
X10458694Y12433914D02*
X10604607Y12311478D01*
X10604607Y12311478D02*
X10638486Y12233321D01*
X10638486Y12233321D02*
X10643181Y12179651D01*
X10643181Y12179651D02*
X10623389Y12096799D01*
X10623389Y12096799D02*
X10476467Y11921703D01*
X10476467Y11921703D02*
X10398310Y11887825D01*
X10398310Y11887825D02*
X10344640Y11883130D01*
X10549271Y13253048D02*
X10451323Y13136317D01*
X10451323Y13136317D02*
X10431531Y13053464D01*
X10431531Y13053464D02*
X10436227Y12999795D01*
X10436227Y12999795D02*
X10474800Y12867968D01*
X10474800Y12867968D02*
X10567044Y12740837D01*
X10567044Y12740837D02*
X10800505Y12544940D01*
X10800505Y12544940D02*
X10883357Y12525148D01*
X10883357Y12525148D02*
X10937027Y12529843D01*
X10937027Y12529843D02*
X11015184Y12563722D01*
X11015184Y12563722D02*
X11113133Y12680452D01*
X11113133Y12680452D02*
X11132924Y12763305D01*
X11132924Y12763305D02*
X11128229Y12816974D01*
X11128229Y12816974D02*
X11094351Y12895131D01*
X11094351Y12895131D02*
X10948437Y13017567D01*
X10948437Y13017567D02*
X10865585Y13037359D01*
X10865585Y13037359D02*
X10811915Y13032663D01*
X10811915Y13032663D02*
X10733758Y12998785D01*
X10733758Y12998785D02*
X10635810Y12882054D01*
X10635810Y12882054D02*
X10616018Y12799202D01*
X10616018Y12799202D02*
X10620713Y12745532D01*
X10620713Y12745532D02*
X10654592Y12667375D01*
X11410834Y9786802D02*
X10875530Y10381318D01*
X10875530Y10381318D02*
X11017081Y10508771D01*
X11017081Y10508771D02*
X11127502Y10556933D01*
X11127502Y10556933D02*
X11235104Y10551294D01*
X11235104Y10551294D02*
X11314396Y10520164D01*
X11314396Y10520164D02*
X11444669Y10432414D01*
X11444669Y10432414D02*
X11521141Y10347483D01*
X11521141Y10347483D02*
X11594794Y10208751D01*
X11594794Y10208751D02*
X11617465Y10126640D01*
X11617465Y10126640D02*
X11611826Y10019038D01*
X11611826Y10019038D02*
X11552385Y9914255D01*
X11552385Y9914255D02*
X11410834Y9786802D01*
X11413425Y10865641D02*
X11781458Y11197020D01*
X11781458Y11197020D02*
X11787212Y10792103D01*
X11787212Y10792103D02*
X11872143Y10868575D01*
X11872143Y10868575D02*
X11954254Y10891246D01*
X11954254Y10891246D02*
X12008055Y10888426D01*
X12008055Y10888426D02*
X12087347Y10857297D01*
X12087347Y10857297D02*
X12214800Y10715745D01*
X12214800Y10715745D02*
X12237471Y10633634D01*
X12237471Y10633634D02*
X12234652Y10579833D01*
X12234652Y10579833D02*
X12203522Y10500541D01*
X12203522Y10500541D02*
X12033660Y10347597D01*
X12033660Y10347597D02*
X11951549Y10324926D01*
X11951549Y10324926D02*
X11897748Y10327746D01*
X12469479Y11457680D02*
X12826348Y11061337D01*
X12124002Y11556709D02*
X12364811Y11004602D01*
X12364811Y11004602D02*
X12732844Y11335981D01*
X14494558Y-3987232D02*
X14688096Y-3210996D01*
X14688096Y-3210996D02*
X14872914Y-3257076D01*
X14872914Y-3257076D02*
X14974589Y-3321688D01*
X14974589Y-3321688D02*
X15030084Y-3414047D01*
X15030084Y-3414047D02*
X15048615Y-3497191D01*
X15048615Y-3497191D02*
X15048715Y-3654261D01*
X15048715Y-3654261D02*
X15021067Y-3765152D01*
X15021067Y-3765152D02*
X14947239Y-3903791D01*
X14947239Y-3903791D02*
X14891843Y-3968502D01*
X14891843Y-3968502D02*
X14799483Y-4023997D01*
X14799483Y-4023997D02*
X14679376Y-4033312D01*
X14679376Y-4033312D02*
X14494558Y-3987232D01*
X15408936Y-3469244D02*
X15455116Y-3441497D01*
X15455116Y-3441497D02*
X15538260Y-3422965D01*
X15538260Y-3422965D02*
X15723078Y-3469046D01*
X15723078Y-3469046D02*
X15787789Y-3524441D01*
X15787789Y-3524441D02*
X15815537Y-3570621D01*
X15815537Y-3570621D02*
X15834068Y-3653764D01*
X15834068Y-3653764D02*
X15815636Y-3727692D01*
X15815636Y-3727692D02*
X15751024Y-3829367D01*
X15751024Y-3829367D02*
X15196867Y-4162337D01*
X15196867Y-4162337D02*
X15677395Y-4282146D01*
X16351460Y-3625719D02*
X16425387Y-3644151D01*
X16425387Y-3644151D02*
X16490098Y-3699547D01*
X16490098Y-3699547D02*
X16517846Y-3745727D01*
X16517846Y-3745727D02*
X16536378Y-3828870D01*
X16536378Y-3828870D02*
X16536477Y-3985941D01*
X16536477Y-3985941D02*
X16490397Y-4170759D01*
X16490397Y-4170759D02*
X16416569Y-4309397D01*
X16416569Y-4309397D02*
X16361173Y-4374108D01*
X16361173Y-4374108D02*
X16314993Y-4401856D01*
X16314993Y-4401856D02*
X16231850Y-4420388D01*
X16231850Y-4420388D02*
X16157922Y-4401955D01*
X16157922Y-4401955D02*
X16093211Y-4346560D01*
X16093211Y-4346560D02*
X16065464Y-4300380D01*
X16065464Y-4300380D02*
X16046932Y-4217237D01*
X16046932Y-4217237D02*
X16046833Y-4060166D01*
X16046833Y-4060166D02*
X16092913Y-3875348D01*
X16092913Y-3875348D02*
X16166741Y-3736709D01*
X16166741Y-3736709D02*
X16222137Y-3671998D01*
X16222137Y-3671998D02*
X16268317Y-3644250D01*
X16268317Y-3644250D02*
X16351460Y-3625719D01*
X-4329688Y-16413867D02*
X-5098697Y-16193357D01*
X-5098697Y-16193357D02*
X-5046195Y-16010260D01*
X-5046195Y-16010260D02*
X-4978074Y-15910902D01*
X-4978074Y-15910902D02*
X-4883834Y-15858664D01*
X-4883834Y-15858664D02*
X-4800095Y-15843045D01*
X-4800095Y-15843045D02*
X-4643116Y-15848427D01*
X-4643116Y-15848427D02*
X-4533258Y-15879929D01*
X-4533258Y-15879929D02*
X-4397280Y-15958550D01*
X-4397280Y-15958550D02*
X-4334542Y-16016171D01*
X-4334542Y-16016171D02*
X-4282304Y-16110410D01*
X-4282304Y-16110410D02*
X-4277186Y-16230769D01*
X-4277186Y-16230769D02*
X-4329688Y-16413867D01*
X-4517111Y-15408993D02*
X-4574731Y-15471732D01*
X-4574731Y-15471732D02*
X-4621851Y-15497851D01*
X-4621851Y-15497851D02*
X-4705591Y-15513470D01*
X-4705591Y-15513470D02*
X-4742210Y-15502969D01*
X-4742210Y-15502969D02*
X-4804949Y-15445349D01*
X-4804949Y-15445349D02*
X-4831068Y-15398229D01*
X-4831068Y-15398229D02*
X-4846686Y-15314489D01*
X-4846686Y-15314489D02*
X-4804684Y-15168011D01*
X-4804684Y-15168011D02*
X-4747064Y-15105273D01*
X-4747064Y-15105273D02*
X-4699944Y-15079154D01*
X-4699944Y-15079154D02*
X-4616204Y-15063535D01*
X-4616204Y-15063535D02*
X-4579585Y-15074036D01*
X-4579585Y-15074036D02*
X-4516846Y-15131656D01*
X-4516846Y-15131656D02*
X-4490727Y-15178776D01*
X-4490727Y-15178776D02*
X-4475109Y-15262515D01*
X-4475109Y-15262515D02*
X-4517111Y-15408993D01*
X-4517111Y-15408993D02*
X-4501492Y-15492733D01*
X-4501492Y-15492733D02*
X-4475373Y-15539853D01*
X-4475373Y-15539853D02*
X-4412635Y-15597473D01*
X-4412635Y-15597473D02*
X-4266157Y-15639475D01*
X-4266157Y-15639475D02*
X-4182417Y-15623857D01*
X-4182417Y-15623857D02*
X-4135297Y-15597738D01*
X-4135297Y-15597738D02*
X-4077677Y-15534999D01*
X-4077677Y-15534999D02*
X-4035675Y-15388521D01*
X-4035675Y-15388521D02*
X-4051293Y-15304782D01*
X-4051293Y-15304782D02*
X-4077412Y-15257662D01*
X-4077412Y-15257662D02*
X-4140151Y-15200041D01*
X-4140151Y-15200041D02*
X-4286629Y-15158039D01*
X-4286629Y-15158039D02*
X-4370368Y-15173658D01*
X-4370368Y-15173658D02*
X-4417488Y-15199777D01*
X-4417488Y-15199777D02*
X-4475109Y-15262515D01*
X-4689179Y-14765197D02*
X-4542172Y-14252524D01*
X-4542172Y-14252524D02*
X-3867667Y-14802609D01*
X-15412604Y7114173D02*
X-15061907Y7833208D01*
X-15061907Y7833208D02*
X-14890708Y7749709D01*
X-14890708Y7749709D02*
X-14804688Y7665370D01*
X-14804688Y7665370D02*
X-14769609Y7563490D01*
X-14769609Y7563490D02*
X-14768769Y7478311D01*
X-14768769Y7478311D02*
X-14801328Y7324652D01*
X-14801328Y7324652D02*
X-14851428Y7221933D01*
X-14851428Y7221933D02*
X-14952467Y7101674D01*
X-14952467Y7101674D02*
X-15020106Y7049894D01*
X-15020106Y7049894D02*
X-15121986Y7014814D01*
X-15121986Y7014814D02*
X-15241405Y7030674D01*
X-15241405Y7030674D02*
X-15412604Y7114173D01*
X-14034714Y7332213D02*
X-14171673Y7399012D01*
X-14171673Y7399012D02*
X-14256852Y7398172D01*
X-14256852Y7398172D02*
X-14307792Y7380632D01*
X-14307792Y7380632D02*
X-14426371Y7311313D01*
X-14426371Y7311313D02*
X-14527410Y7191053D01*
X-14527410Y7191053D02*
X-14661009Y6917135D01*
X-14661009Y6917135D02*
X-14660169Y6831956D01*
X-14660169Y6831956D02*
X-14642629Y6781016D01*
X-14642629Y6781016D02*
X-14590849Y6713377D01*
X-14590849Y6713377D02*
X-14453890Y6646577D01*
X-14453890Y6646577D02*
X-14368711Y6647417D01*
X-14368711Y6647417D02*
X-14317771Y6664957D01*
X-14317771Y6664957D02*
X-14250132Y6716737D01*
X-14250132Y6716737D02*
X-14166632Y6887936D01*
X-14166632Y6887936D02*
X-14167472Y6973115D01*
X-14167472Y6973115D02*
X-14185012Y7024055D01*
X-14185012Y7024055D02*
X-14236792Y7091694D01*
X-14236792Y7091694D02*
X-14373751Y7158494D01*
X-14373751Y7158494D02*
X-14458930Y7157654D01*
X-14458930Y7157654D02*
X-14509870Y7140114D01*
X-14509870Y7140114D02*
X-14577510Y7088334D01*
X-13725715Y7096735D02*
X-13674776Y7114274D01*
X-13674776Y7114274D02*
X-13589596Y7115115D01*
X-13589596Y7115115D02*
X-13418397Y7031615D01*
X-13418397Y7031615D02*
X-13366618Y6963976D01*
X-13366618Y6963976D02*
X-13349078Y6913036D01*
X-13349078Y6913036D02*
X-13348238Y6827857D01*
X-13348238Y6827857D02*
X-13381637Y6759377D01*
X-13381637Y6759377D02*
X-13465977Y6673358D01*
X-13465977Y6673358D02*
X-14077252Y6462879D01*
X-14077252Y6462879D02*
X-13632135Y6245781D01*
X-2003193Y-16856636D02*
X-2795407Y-16745298D01*
X-2795407Y-16745298D02*
X-2768898Y-16556675D01*
X-2768898Y-16556675D02*
X-2715268Y-16448804D01*
X-2715268Y-16448804D02*
X-2629215Y-16383958D01*
X-2629215Y-16383958D02*
X-2548465Y-16356837D01*
X-2548465Y-16356837D02*
X-2392265Y-16340320D01*
X-2392265Y-16340320D02*
X-2279091Y-16356226D01*
X-2279091Y-16356226D02*
X-2133495Y-16415158D01*
X-2133495Y-16415158D02*
X-2063348Y-16463486D01*
X-2063348Y-16463486D02*
X-1998503Y-16549538D01*
X-1998503Y-16549538D02*
X-1976684Y-16668014D01*
X-1976684Y-16668014D02*
X-2003193Y-16856636D01*
X-2328643Y-15887626D02*
X-2376971Y-15957773D01*
X-2376971Y-15957773D02*
X-2419997Y-15990196D01*
X-2419997Y-15990196D02*
X-2500748Y-16017317D01*
X-2500748Y-16017317D02*
X-2538473Y-16012015D01*
X-2538473Y-16012015D02*
X-2608620Y-15963687D01*
X-2608620Y-15963687D02*
X-2641042Y-15920661D01*
X-2641042Y-15920661D02*
X-2668163Y-15839910D01*
X-2668163Y-15839910D02*
X-2646956Y-15689012D01*
X-2646956Y-15689012D02*
X-2598628Y-15618865D01*
X-2598628Y-15618865D02*
X-2555602Y-15586442D01*
X-2555602Y-15586442D02*
X-2474851Y-15559321D01*
X-2474851Y-15559321D02*
X-2437126Y-15564623D01*
X-2437126Y-15564623D02*
X-2366979Y-15612951D01*
X-2366979Y-15612951D02*
X-2334556Y-15655977D01*
X-2334556Y-15655977D02*
X-2307436Y-15736728D01*
X-2307436Y-15736728D02*
X-2328643Y-15887626D01*
X-2328643Y-15887626D02*
X-2301522Y-15968377D01*
X-2301522Y-15968377D02*
X-2269099Y-16011403D01*
X-2269099Y-16011403D02*
X-2198952Y-16059732D01*
X-2198952Y-16059732D02*
X-2048054Y-16080939D01*
X-2048054Y-16080939D02*
X-1967303Y-16053818D01*
X-1967303Y-16053818D02*
X-1924277Y-16021395D01*
X-1924277Y-16021395D02*
X-1875949Y-15951248D01*
X-1875949Y-15951248D02*
X-1854742Y-15800350D01*
X-1854742Y-15800350D02*
X-1881862Y-15719599D01*
X-1881862Y-15719599D02*
X-1914285Y-15676573D01*
X-1914285Y-15676573D02*
X-1984432Y-15628245D01*
X-1984432Y-15628245D02*
X-2135330Y-15607038D01*
X-2135330Y-15607038D02*
X-2216081Y-15634158D01*
X-2216081Y-15634158D02*
X-2259107Y-15666581D01*
X-2259107Y-15666581D02*
X-2307436Y-15736728D01*
X-1780516Y-15272207D02*
X-1759309Y-15121309D01*
X-1759309Y-15121309D02*
X-1786429Y-15040558D01*
X-1786429Y-15040558D02*
X-1818852Y-14997532D01*
X-1818852Y-14997532D02*
X-1921422Y-14906177D01*
X-1921422Y-14906177D02*
X-2067018Y-14847246D01*
X-2067018Y-14847246D02*
X-2368814Y-14804831D01*
X-2368814Y-14804831D02*
X-2449565Y-14831952D01*
X-2449565Y-14831952D02*
X-2492591Y-14864374D01*
X-2492591Y-14864374D02*
X-2540919Y-14934522D01*
X-2540919Y-14934522D02*
X-2562127Y-15085420D01*
X-2562127Y-15085420D02*
X-2535006Y-15166170D01*
X-2535006Y-15166170D02*
X-2502583Y-15209197D01*
X-2502583Y-15209197D02*
X-2432436Y-15257525D01*
X-2432436Y-15257525D02*
X-2243813Y-15284034D01*
X-2243813Y-15284034D02*
X-2163063Y-15256913D01*
X-2163063Y-15256913D02*
X-2120036Y-15224491D01*
X-2120036Y-15224491D02*
X-2071708Y-15154343D01*
X-2071708Y-15154343D02*
X-2050501Y-15003445D01*
X-2050501Y-15003445D02*
X-2077622Y-14922695D01*
X-2077622Y-14922695D02*
X-2110044Y-14879668D01*
X-2110044Y-14879668D02*
X-2180192Y-14831340D01*
X14984069Y1210589D02*
X14900447Y2006207D01*
X14900447Y2006207D02*
X15089879Y2026117D01*
X15089879Y2026117D02*
X15207521Y2000176D01*
X15207521Y2000176D02*
X15291258Y1932367D01*
X15291258Y1932367D02*
X15337109Y1860576D01*
X15337109Y1860576D02*
X15390924Y1713012D01*
X15390924Y1713012D02*
X15402870Y1599352D01*
X15402870Y1599352D02*
X15380911Y1443824D01*
X15380911Y1443824D02*
X15350989Y1364069D01*
X15350989Y1364069D02*
X15283180Y1280332D01*
X15283180Y1280332D02*
X15173502Y1230499D01*
X15173502Y1230499D02*
X14984069Y1210589D01*
X15666142Y2010074D02*
X15700046Y2051943D01*
X15700046Y2051943D02*
X15771837Y2097793D01*
X15771837Y2097793D02*
X15961270Y2117704D01*
X15961270Y2117704D02*
X16041025Y2087781D01*
X16041025Y2087781D02*
X16082894Y2053877D01*
X16082894Y2053877D02*
X16128744Y1982085D01*
X16128744Y1982085D02*
X16136708Y1906312D01*
X16136708Y1906312D02*
X16110768Y1788671D01*
X16110768Y1788671D02*
X15703914Y1286248D01*
X15703914Y1286248D02*
X16196439Y1338014D01*
X16832661Y2209290D02*
X16453795Y2169470D01*
X16453795Y2169470D02*
X16455729Y1786623D01*
X16455729Y1786623D02*
X16489634Y1828491D01*
X16489634Y1828491D02*
X16561425Y1874342D01*
X16561425Y1874342D02*
X16750858Y1894252D01*
X16750858Y1894252D02*
X16830613Y1864329D01*
X16830613Y1864329D02*
X16872481Y1830425D01*
X16872481Y1830425D02*
X16918332Y1758634D01*
X16918332Y1758634D02*
X16938242Y1569201D01*
X16938242Y1569201D02*
X16908320Y1489446D01*
X16908320Y1489446D02*
X16874415Y1447577D01*
X16874415Y1447577D02*
X16802624Y1401727D01*
X16802624Y1401727D02*
X16613191Y1381817D01*
X16613191Y1381817D02*
X16533436Y1411739D01*
X16533436Y1411739D02*
X16491568Y1445644D01*
X14404954Y4299533D02*
X14157741Y5060378D01*
X14157741Y5060378D02*
X14338894Y5119239D01*
X14338894Y5119239D02*
X14459358Y5118324D01*
X14459358Y5118324D02*
X14555364Y5069407D01*
X14555364Y5069407D02*
X14615139Y5008718D01*
X14615139Y5008718D02*
X14698458Y4875567D01*
X14698458Y4875567D02*
X14733774Y4766875D01*
X14733774Y4766875D02*
X14744632Y4610180D01*
X14744632Y4610180D02*
X14731945Y4525946D01*
X14731945Y4525946D02*
X14683028Y4429941D01*
X14683028Y4429941D02*
X14586108Y4358394D01*
X14586108Y4358394D02*
X14404954Y4299533D01*
X14905899Y5223359D02*
X14930358Y5271361D01*
X14930358Y5271361D02*
X14991047Y5331136D01*
X14991047Y5331136D02*
X15172201Y5389997D01*
X15172201Y5389997D02*
X15256434Y5377310D01*
X15256434Y5377310D02*
X15304437Y5352851D01*
X15304437Y5352851D02*
X15364212Y5292162D01*
X15364212Y5292162D02*
X15387756Y5219701D01*
X15387756Y5219701D02*
X15386842Y5099236D01*
X15386842Y5099236D02*
X15093338Y4523203D01*
X15093338Y4523203D02*
X15564337Y4676240D01*
X15857841Y5252273D02*
X15773608Y5264960D01*
X15773608Y5264960D02*
X15725605Y5289419D01*
X15725605Y5289419D02*
X15665830Y5350108D01*
X15665830Y5350108D02*
X15654058Y5386339D01*
X15654058Y5386339D02*
X15666745Y5470572D01*
X15666745Y5470572D02*
X15691203Y5518575D01*
X15691203Y5518575D02*
X15751893Y5578350D01*
X15751893Y5578350D02*
X15896816Y5625438D01*
X15896816Y5625438D02*
X15981049Y5612752D01*
X15981049Y5612752D02*
X16029052Y5588293D01*
X16029052Y5588293D02*
X16088827Y5527604D01*
X16088827Y5527604D02*
X16100599Y5491373D01*
X16100599Y5491373D02*
X16087912Y5407139D01*
X16087912Y5407139D02*
X16063454Y5359137D01*
X16063454Y5359137D02*
X16002764Y5299362D01*
X16002764Y5299362D02*
X15857841Y5252273D01*
X15857841Y5252273D02*
X15797152Y5192498D01*
X15797152Y5192498D02*
X15772693Y5144496D01*
X15772693Y5144496D02*
X15760007Y5060262D01*
X15760007Y5060262D02*
X15807095Y4915339D01*
X15807095Y4915339D02*
X15866870Y4854650D01*
X15866870Y4854650D02*
X15914873Y4830191D01*
X15914873Y4830191D02*
X15999106Y4817505D01*
X15999106Y4817505D02*
X16144029Y4864593D01*
X16144029Y4864593D02*
X16204719Y4924368D01*
X16204719Y4924368D02*
X16229177Y4972371D01*
X16229177Y4972371D02*
X16241864Y5056604D01*
X16241864Y5056604D02*
X16194775Y5201527D01*
X16194775Y5201527D02*
X16135001Y5262216D01*
X16135001Y5262216D02*
X16086998Y5286675D01*
X16086998Y5286675D02*
X16002764Y5299362D01*
X-16650697Y-3303819D02*
X-16789616Y-2515972D01*
X-16789616Y-2515972D02*
X-16602033Y-2482896D01*
X-16602033Y-2482896D02*
X-16482869Y-2500567D01*
X-16482869Y-2500567D02*
X-16394605Y-2562370D01*
X-16394605Y-2562370D02*
X-16343859Y-2630788D01*
X-16343859Y-2630788D02*
X-16279881Y-2774239D01*
X-16279881Y-2774239D02*
X-16260036Y-2886788D01*
X-16260036Y-2886788D02*
X-16271092Y-3043469D01*
X-16271092Y-3043469D02*
X-16295378Y-3125117D01*
X-16295378Y-3125117D02*
X-16357180Y-3213381D01*
X-16357180Y-3213381D02*
X-16463115Y-3270743D01*
X-16463115Y-3270743D02*
X-16650697Y-3303819D01*
X-16076803Y-2390284D02*
X-15551572Y-2297672D01*
X-15551572Y-2297672D02*
X-15750302Y-3145054D01*
X-14699840Y-2959830D02*
X-15150038Y-3039212D01*
X-14924939Y-2999521D02*
X-15063857Y-2211674D01*
X-15063857Y-2211674D02*
X-15119045Y-2337454D01*
X-15119045Y-2337454D02*
X-15180847Y-2425718D01*
X-15180847Y-2425718D02*
X-15249265Y-2476464D01*
X4490685Y14346548D02*
X3721676Y14567058D01*
X3721676Y14567058D02*
X3774178Y14750155D01*
X3774178Y14750155D02*
X3842299Y14849513D01*
X3842299Y14849513D02*
X3936539Y14901751D01*
X3936539Y14901751D02*
X4020278Y14917370D01*
X4020278Y14917370D02*
X4177257Y14911988D01*
X4177257Y14911988D02*
X4287115Y14880486D01*
X4287115Y14880486D02*
X4423093Y14801865D01*
X4423093Y14801865D02*
X4485831Y14744244D01*
X4485831Y14744244D02*
X4538069Y14650005D01*
X4538069Y14650005D02*
X4543187Y14529646D01*
X4543187Y14529646D02*
X4490685Y14346548D01*
X4293026Y15592139D02*
X4805699Y15445133D01*
X3947568Y15493046D02*
X4444358Y15152441D01*
X4444358Y15152441D02*
X4580864Y15628495D01*
X4214933Y16010837D02*
X4188814Y16057957D01*
X4188814Y16057957D02*
X4173196Y16141696D01*
X4173196Y16141696D02*
X4225698Y16324794D01*
X4225698Y16324794D02*
X4283319Y16387532D01*
X4283319Y16387532D02*
X4330439Y16413651D01*
X4330439Y16413651D02*
X4414178Y16429270D01*
X4414178Y16429270D02*
X4487417Y16408269D01*
X4487417Y16408269D02*
X4586775Y16340148D01*
X4586775Y16340148D02*
X4900203Y15774709D01*
X4900203Y15774709D02*
X5036710Y16250762D01*
X-13596701Y10163185D02*
X-13104172Y10793594D01*
X-13104172Y10793594D02*
X-12954075Y10676325D01*
X-12954075Y10676325D02*
X-12887470Y10575944D01*
X-12887470Y10575944D02*
X-12874339Y10468998D01*
X-12874339Y10468998D02*
X-12891227Y10385505D01*
X-12891227Y10385505D02*
X-12955022Y10241973D01*
X-12955022Y10241973D02*
X-13025384Y10151915D01*
X-13025384Y10151915D02*
X-13149218Y10055291D01*
X-13149218Y10055291D02*
X-13226145Y10018706D01*
X-13226145Y10018706D02*
X-13333092Y10005575D01*
X-13333092Y10005575D02*
X-13446604Y10045916D01*
X-13446604Y10045916D02*
X-13596701Y10163185D01*
X-12173569Y10066527D02*
X-12473763Y10301065D01*
X-12473763Y10301065D02*
X-12738320Y10024324D01*
X-12738320Y10024324D02*
X-12684847Y10030890D01*
X-12684847Y10030890D02*
X-12601355Y10014001D01*
X-12601355Y10014001D02*
X-12451257Y9896733D01*
X-12451257Y9896733D02*
X-12414672Y9819806D01*
X-12414672Y9819806D02*
X-12408106Y9766332D01*
X-12408106Y9766332D02*
X-12424995Y9682840D01*
X-12424995Y9682840D02*
X-12542263Y9532742D01*
X-12542263Y9532742D02*
X-12619190Y9496157D01*
X-12619190Y9496157D02*
X-12672664Y9489592D01*
X-12672664Y9489592D02*
X-12756156Y9506480D01*
X-12756156Y9506480D02*
X-12906254Y9623749D01*
X-12906254Y9623749D02*
X-12942839Y9700676D01*
X-12942839Y9700676D02*
X-12949404Y9754149D01*
X-12335884Y9178127D02*
X-12215806Y9084312D01*
X-12215806Y9084312D02*
X-12132313Y9067424D01*
X-12132313Y9067424D02*
X-12078840Y9073989D01*
X-12078840Y9073989D02*
X-11948440Y9117140D01*
X-11948440Y9117140D02*
X-11824605Y9213764D01*
X-11824605Y9213764D02*
X-11636975Y9453920D01*
X-11636975Y9453920D02*
X-11620087Y9537412D01*
X-11620087Y9537412D02*
X-11626653Y9590886D01*
X-11626653Y9590886D02*
X-11663238Y9667813D01*
X-11663238Y9667813D02*
X-11783316Y9761628D01*
X-11783316Y9761628D02*
X-11866808Y9778516D01*
X-11866808Y9778516D02*
X-11920281Y9771950D01*
X-11920281Y9771950D02*
X-11997208Y9735365D01*
X-11997208Y9735365D02*
X-12114477Y9585268D01*
X-12114477Y9585268D02*
X-12131365Y9501775D01*
X-12131365Y9501775D02*
X-12124800Y9448302D01*
X-12124800Y9448302D02*
X-12088215Y9371375D01*
X-12088215Y9371375D02*
X-11968137Y9277560D01*
X-11968137Y9277560D02*
X-11884644Y9260672D01*
X-11884644Y9260672D02*
X-11831171Y9267237D01*
X-11831171Y9267237D02*
X-11754244Y9303823D01*
X-6571925Y-15651530D02*
X-7302761Y-15326140D01*
X-7302761Y-15326140D02*
X-7225288Y-15152132D01*
X-7225288Y-15152132D02*
X-7144002Y-15063221D01*
X-7144002Y-15063221D02*
X-7043409Y-15024607D01*
X-7043409Y-15024607D02*
X-6958311Y-15020795D01*
X-6958311Y-15020795D02*
X-6803609Y-15047972D01*
X-6803609Y-15047972D02*
X-6699204Y-15094456D01*
X-6699204Y-15094456D02*
X-6575492Y-15191237D01*
X-6575492Y-15191237D02*
X-6521383Y-15257028D01*
X-6521383Y-15257028D02*
X-6482769Y-15357621D01*
X-6482769Y-15357621D02*
X-6494451Y-15477521D01*
X-6494451Y-15477521D02*
X-6571925Y-15651530D01*
X-6617672Y-14630351D02*
X-6683463Y-14684460D01*
X-6683463Y-14684460D02*
X-6733760Y-14703767D01*
X-6733760Y-14703767D02*
X-6818858Y-14707579D01*
X-6818858Y-14707579D02*
X-6853660Y-14692085D01*
X-6853660Y-14692085D02*
X-6907769Y-14626293D01*
X-6907769Y-14626293D02*
X-6927076Y-14575997D01*
X-6927076Y-14575997D02*
X-6930888Y-14490899D01*
X-6930888Y-14490899D02*
X-6868909Y-14351692D01*
X-6868909Y-14351692D02*
X-6803118Y-14297583D01*
X-6803118Y-14297583D02*
X-6752821Y-14278276D01*
X-6752821Y-14278276D02*
X-6667723Y-14274464D01*
X-6667723Y-14274464D02*
X-6632921Y-14289959D01*
X-6632921Y-14289959D02*
X-6578813Y-14355750D01*
X-6578813Y-14355750D02*
X-6559506Y-14406046D01*
X-6559506Y-14406046D02*
X-6555693Y-14491144D01*
X-6555693Y-14491144D02*
X-6617672Y-14630351D01*
X-6617672Y-14630351D02*
X-6613860Y-14715450D01*
X-6613860Y-14715450D02*
X-6594553Y-14765746D01*
X-6594553Y-14765746D02*
X-6540444Y-14831537D01*
X-6540444Y-14831537D02*
X-6401237Y-14893516D01*
X-6401237Y-14893516D02*
X-6316139Y-14889704D01*
X-6316139Y-14889704D02*
X-6265843Y-14870397D01*
X-6265843Y-14870397D02*
X-6200052Y-14816288D01*
X-6200052Y-14816288D02*
X-6138073Y-14677081D01*
X-6138073Y-14677081D02*
X-6141885Y-14591983D01*
X-6141885Y-14591983D02*
X-6161192Y-14541686D01*
X-6161192Y-14541686D02*
X-6215301Y-14475895D01*
X-6215301Y-14475895D02*
X-6354508Y-14413916D01*
X-6354508Y-14413916D02*
X-6439606Y-14417729D01*
X-6439606Y-14417729D02*
X-6489902Y-14437036D01*
X-6489902Y-14437036D02*
X-6555693Y-14491144D01*
X-6512530Y-13551252D02*
X-6667477Y-13899269D01*
X-6667477Y-13899269D02*
X-6334955Y-14089018D01*
X-6334955Y-14089018D02*
X-6354262Y-14038722D01*
X-6354262Y-14038722D02*
X-6358074Y-13953623D01*
X-6358074Y-13953623D02*
X-6280600Y-13779615D01*
X-6280600Y-13779615D02*
X-6214809Y-13725506D01*
X-6214809Y-13725506D02*
X-6164513Y-13706199D01*
X-6164513Y-13706199D02*
X-6079415Y-13702387D01*
X-6079415Y-13702387D02*
X-5905406Y-13779860D01*
X-5905406Y-13779860D02*
X-5851297Y-13845652D01*
X-5851297Y-13845652D02*
X-5831990Y-13895948D01*
X-5831990Y-13895948D02*
X-5828178Y-13981046D01*
X-5828178Y-13981046D02*
X-5905652Y-14155055D01*
X-5905652Y-14155055D02*
X-5971443Y-14209164D01*
X-5971443Y-14209164D02*
X-6021739Y-14228471D01*
X9382681Y-11745443D02*
X9995516Y-11231213D01*
X9995516Y-11231213D02*
X10117952Y-11377126D01*
X10117952Y-11377126D02*
X10162231Y-11489161D01*
X10162231Y-11489161D02*
X10152840Y-11596501D01*
X10152840Y-11596501D02*
X10118962Y-11674657D01*
X10118962Y-11674657D02*
X10026718Y-11801789D01*
X10026718Y-11801789D02*
X9939170Y-11875250D01*
X9939170Y-11875250D02*
X9797953Y-11944016D01*
X9797953Y-11944016D02*
X9715100Y-11963808D01*
X9715100Y-11963808D02*
X9607761Y-11954417D01*
X9607761Y-11954417D02*
X9505117Y-11891356D01*
X9505117Y-11891356D02*
X9382681Y-11745443D01*
X10166270Y-12679287D02*
X9872424Y-12329096D01*
X10019347Y-12504192D02*
X10632182Y-11989961D01*
X10632182Y-11989961D02*
X10495660Y-12005058D01*
X10495660Y-12005058D02*
X10388320Y-11995667D01*
X10388320Y-11995667D02*
X10310163Y-11961788D01*
X10656013Y-13262940D02*
X10362167Y-12912749D01*
X10509090Y-13087845D02*
X11121925Y-12573615D01*
X11121925Y-12573615D02*
X10985403Y-12588711D01*
X10985403Y-12588711D02*
X10878063Y-12579320D01*
X10878063Y-12579320D02*
X10799907Y-12545442D01*
X2450338Y14831843D02*
X1658124Y14943181D01*
X1658124Y14943181D02*
X1684633Y15131804D01*
X1684633Y15131804D02*
X1738263Y15239675D01*
X1738263Y15239675D02*
X1824316Y15304521D01*
X1824316Y15304521D02*
X1905066Y15331642D01*
X1905066Y15331642D02*
X2061266Y15348159D01*
X2061266Y15348159D02*
X2174440Y15332253D01*
X2174440Y15332253D02*
X2320036Y15273321D01*
X2320036Y15273321D02*
X2390183Y15224993D01*
X2390183Y15224993D02*
X2455028Y15138941D01*
X2455028Y15138941D02*
X2476847Y15020465D01*
X2476847Y15020465D02*
X2450338Y14831843D01*
X2081250Y16037803D02*
X2609393Y15963578D01*
X1752945Y15891596D02*
X2292303Y15623446D01*
X2292303Y15623446D02*
X2361227Y16113864D01*
X2187287Y16792294D02*
X2715430Y16718068D01*
X1858982Y16646086D02*
X2398340Y16377936D01*
X2398340Y16377936D02*
X2467264Y16868354D01*
X13798507Y-5965743D02*
X14098192Y-5223996D01*
X14098192Y-5223996D02*
X14274799Y-5295350D01*
X14274799Y-5295350D02*
X14366492Y-5373483D01*
X14366492Y-5373483D02*
X14408593Y-5472667D01*
X14408593Y-5472667D02*
X14415373Y-5557581D01*
X14415373Y-5557581D02*
X14393611Y-5713136D01*
X14393611Y-5713136D02*
X14350799Y-5819100D01*
X14350799Y-5819100D02*
X14258395Y-5946115D01*
X14258395Y-5946115D02*
X14194532Y-6002487D01*
X14194532Y-6002487D02*
X14095348Y-6044588D01*
X14095348Y-6044588D02*
X13975114Y-6037097D01*
X13975114Y-6037097D02*
X13798507Y-5965743D01*
X14928788Y-6422406D02*
X14504933Y-6251158D01*
X14716861Y-6336782D02*
X15016546Y-5595035D01*
X15016546Y-5595035D02*
X14903091Y-5672457D01*
X14903091Y-5672457D02*
X14803907Y-5714559D01*
X14803907Y-5714559D02*
X14718994Y-5721338D01*
X15523893Y-6169800D02*
X15467521Y-6105937D01*
X15467521Y-6105937D02*
X15446470Y-6056345D01*
X15446470Y-6056345D02*
X15439691Y-5971432D01*
X15439691Y-5971432D02*
X15453961Y-5936110D01*
X15453961Y-5936110D02*
X15517824Y-5879739D01*
X15517824Y-5879739D02*
X15567416Y-5858688D01*
X15567416Y-5858688D02*
X15652329Y-5851908D01*
X15652329Y-5851908D02*
X15793615Y-5908991D01*
X15793615Y-5908991D02*
X15849986Y-5972854D01*
X15849986Y-5972854D02*
X15871037Y-6022446D01*
X15871037Y-6022446D02*
X15877817Y-6107359D01*
X15877817Y-6107359D02*
X15863546Y-6142680D01*
X15863546Y-6142680D02*
X15799683Y-6199052D01*
X15799683Y-6199052D02*
X15750091Y-6220103D01*
X15750091Y-6220103D02*
X15665178Y-6226883D01*
X15665178Y-6226883D02*
X15523893Y-6169800D01*
X15523893Y-6169800D02*
X15438980Y-6176580D01*
X15438980Y-6176580D02*
X15389388Y-6197630D01*
X15389388Y-6197630D02*
X15325525Y-6254002D01*
X15325525Y-6254002D02*
X15268442Y-6395287D01*
X15268442Y-6395287D02*
X15275222Y-6480200D01*
X15275222Y-6480200D02*
X15296272Y-6529793D01*
X15296272Y-6529793D02*
X15352644Y-6593655D01*
X15352644Y-6593655D02*
X15493929Y-6650738D01*
X15493929Y-6650738D02*
X15578843Y-6643958D01*
X15578843Y-6643958D02*
X15628435Y-6622908D01*
X15628435Y-6622908D02*
X15692297Y-6566536D01*
X15692297Y-6566536D02*
X15749380Y-6425251D01*
X15749380Y-6425251D02*
X15742600Y-6340337D01*
X15742600Y-6340337D02*
X15721550Y-6290745D01*
X15721550Y-6290745D02*
X15665178Y-6226883D01*
X12833997Y-7828042D02*
X13233997Y-7135222D01*
X13233997Y-7135222D02*
X13398954Y-7230460D01*
X13398954Y-7230460D02*
X13478881Y-7320594D01*
X13478881Y-7320594D02*
X13506768Y-7424672D01*
X13506768Y-7424672D02*
X13501665Y-7509703D01*
X13501665Y-7509703D02*
X13458466Y-7660716D01*
X13458466Y-7660716D02*
X13401323Y-7759690D01*
X13401323Y-7759690D02*
X13292141Y-7872609D01*
X13292141Y-7872609D02*
X13221054Y-7919544D01*
X13221054Y-7919544D02*
X13116976Y-7947431D01*
X13116976Y-7947431D02*
X12998954Y-7923280D01*
X12998954Y-7923280D02*
X12833997Y-7828042D01*
X13889723Y-8437566D02*
X13493826Y-8208994D01*
X13691774Y-8323280D02*
X14091774Y-7630460D01*
X14091774Y-7630460D02*
X13968649Y-7691339D01*
X13968649Y-7691339D02*
X13864571Y-7719226D01*
X13864571Y-7719226D02*
X13779540Y-7714123D01*
X14883569Y-8087603D02*
X14751603Y-8011412D01*
X14751603Y-8011412D02*
X14666573Y-8006308D01*
X14666573Y-8006308D02*
X14614534Y-8020252D01*
X14614534Y-8020252D02*
X14491408Y-8081131D01*
X14491408Y-8081131D02*
X14382226Y-8194050D01*
X14382226Y-8194050D02*
X14229845Y-8457981D01*
X14229845Y-8457981D02*
X14224742Y-8543012D01*
X14224742Y-8543012D02*
X14238685Y-8595051D01*
X14238685Y-8595051D02*
X14285621Y-8666137D01*
X14285621Y-8666137D02*
X14417586Y-8742328D01*
X14417586Y-8742328D02*
X14502617Y-8747432D01*
X14502617Y-8747432D02*
X14554656Y-8733488D01*
X14554656Y-8733488D02*
X14625743Y-8686553D01*
X14625743Y-8686553D02*
X14720981Y-8521595D01*
X14720981Y-8521595D02*
X14726085Y-8436565D01*
X14726085Y-8436565D02*
X14712141Y-8384526D01*
X14712141Y-8384526D02*
X14665205Y-8313439D01*
X14665205Y-8313439D02*
X14533240Y-8237249D01*
X14533240Y-8237249D02*
X14448209Y-8232145D01*
X14448209Y-8232145D02*
X14396170Y-8246089D01*
X14396170Y-8246089D02*
X14325083Y-8293024D01*
X-10268620Y13517235D02*
X-9621406Y13987463D01*
X-9621406Y13987463D02*
X-9509447Y13833365D01*
X-9509447Y13833365D02*
X-9473092Y13718514D01*
X-9473092Y13718514D02*
X-9489947Y13612091D01*
X-9489947Y13612091D02*
X-9529195Y13536488D01*
X-9529195Y13536488D02*
X-9630082Y13416101D01*
X-9630082Y13416101D02*
X-9722541Y13348925D01*
X-9722541Y13348925D02*
X-9868212Y13290178D01*
X-9868212Y13290178D02*
X-9952243Y13276214D01*
X-9952243Y13276214D02*
X-10058666Y13293069D01*
X-10058666Y13293069D02*
X-10156661Y13363137D01*
X-10156661Y13363137D02*
X-10268620Y13517235D01*
X-8927260Y13032053D02*
X-9151178Y13340250D01*
X-9151178Y13340250D02*
X-9481767Y13147151D01*
X-9481767Y13147151D02*
X-9428555Y13138723D01*
X-9428555Y13138723D02*
X-9352952Y13099476D01*
X-9352952Y13099476D02*
X-9240993Y12945377D01*
X-9240993Y12945377D02*
X-9227029Y12861346D01*
X-9227029Y12861346D02*
X-9235457Y12808135D01*
X-9235457Y12808135D02*
X-9274705Y12732531D01*
X-9274705Y12732531D02*
X-9428803Y12620572D01*
X-9428803Y12620572D02*
X-9512834Y12606608D01*
X-9512834Y12606608D02*
X-9566046Y12615036D01*
X-9566046Y12615036D02*
X-9641649Y12654284D01*
X-9641649Y12654284D02*
X-9753608Y12808382D01*
X-9753608Y12808382D02*
X-9767572Y12892413D01*
X-9767572Y12892413D02*
X-9759144Y12945625D01*
X-8479424Y12415659D02*
X-8703342Y12723856D01*
X-8703342Y12723856D02*
X-9033930Y12530757D01*
X-9033930Y12530757D02*
X-8980719Y12522329D01*
X-8980719Y12522329D02*
X-8905116Y12483082D01*
X-8905116Y12483082D02*
X-8793157Y12328983D01*
X-8793157Y12328983D02*
X-8779193Y12244952D01*
X-8779193Y12244952D02*
X-8787620Y12191740D01*
X-8787620Y12191740D02*
X-8826868Y12116137D01*
X-8826868Y12116137D02*
X-8980967Y12004178D01*
X-8980967Y12004178D02*
X-9064998Y11990214D01*
X-9064998Y11990214D02*
X-9118209Y11998642D01*
X-9118209Y11998642D02*
X-9193813Y12037890D01*
X-9193813Y12037890D02*
X-9305772Y12191988D01*
X-9305772Y12191988D02*
X-9319736Y12276019D01*
X-9319736Y12276019D02*
X-9311308Y12329231D01*
X-7233871Y15356812D02*
X-6503035Y15682201D01*
X-6503035Y15682201D02*
X-6425561Y15508193D01*
X-6425561Y15508193D02*
X-6413879Y15388293D01*
X-6413879Y15388293D02*
X-6452493Y15287700D01*
X-6452493Y15287700D02*
X-6506602Y15221909D01*
X-6506602Y15221909D02*
X-6630314Y15125128D01*
X-6630314Y15125128D02*
X-6734719Y15078644D01*
X-6734719Y15078644D02*
X-6889421Y15051467D01*
X-6889421Y15051467D02*
X-6974519Y15055279D01*
X-6974519Y15055279D02*
X-7075112Y15093893D01*
X-7075112Y15093893D02*
X-7156398Y15182803D01*
X-7156398Y15182803D02*
X-7233871Y15356812D01*
X-6022698Y14603348D02*
X-6177646Y14951365D01*
X-6177646Y14951365D02*
X-6541158Y14831220D01*
X-6541158Y14831220D02*
X-6490861Y14811913D01*
X-6490861Y14811913D02*
X-6425070Y14757804D01*
X-6425070Y14757804D02*
X-6347596Y14583795D01*
X-6347596Y14583795D02*
X-6351409Y14498697D01*
X-6351409Y14498697D02*
X-6370716Y14448400D01*
X-6370716Y14448400D02*
X-6424824Y14382609D01*
X-6424824Y14382609D02*
X-6598833Y14305136D01*
X-6598833Y14305136D02*
X-6683931Y14308948D01*
X-6683931Y14308948D02*
X-6734228Y14328255D01*
X-6734228Y14328255D02*
X-6800019Y14382364D01*
X-6800019Y14382364D02*
X-6877493Y14556372D01*
X-6877493Y14556372D02*
X-6873680Y14641470D01*
X-6873680Y14641470D02*
X-6854373Y14691767D01*
X-5952849Y14259142D02*
X-5902553Y14239835D01*
X-5902553Y14239835D02*
X-5836762Y14185727D01*
X-5836762Y14185727D02*
X-5759288Y14011718D01*
X-5759288Y14011718D02*
X-5763100Y13926620D01*
X-5763100Y13926620D02*
X-5782407Y13876323D01*
X-5782407Y13876323D02*
X-5836516Y13810532D01*
X-5836516Y13810532D02*
X-5906119Y13779543D01*
X-5906119Y13779543D02*
X-6026019Y13767860D01*
X-6026019Y13767860D02*
X-6629577Y13999544D01*
X-6629577Y13999544D02*
X-6428145Y13547122D01*
X8540431Y-12371334D02*
X9187645Y-11901106D01*
X9187645Y-11901106D02*
X9299604Y-12055204D01*
X9299604Y-12055204D02*
X9335959Y-12170055D01*
X9335959Y-12170055D02*
X9319104Y-12276478D01*
X9319104Y-12276478D02*
X9279856Y-12352081D01*
X9279856Y-12352081D02*
X9178969Y-12472468D01*
X9178969Y-12472468D02*
X9086510Y-12539644D01*
X9086510Y-12539644D02*
X8940839Y-12598391D01*
X8940839Y-12598391D02*
X8856808Y-12612355D01*
X8856808Y-12612355D02*
X8750385Y-12595500D01*
X8750385Y-12595500D02*
X8652390Y-12525432D01*
X8652390Y-12525432D02*
X8540431Y-12371334D01*
X9256969Y-13357564D02*
X8988267Y-12987728D01*
X9122618Y-13172646D02*
X9769832Y-12702418D01*
X9769832Y-12702418D02*
X9632589Y-12707954D01*
X9632589Y-12707954D02*
X9526166Y-12691098D01*
X9526166Y-12691098D02*
X9450563Y-12651850D01*
X10195277Y-13287992D02*
X10240060Y-13349632D01*
X10240060Y-13349632D02*
X10254024Y-13433663D01*
X10254024Y-13433663D02*
X10245596Y-13486874D01*
X10245596Y-13486874D02*
X10206349Y-13562478D01*
X10206349Y-13562478D02*
X10105462Y-13682865D01*
X10105462Y-13682865D02*
X9951363Y-13794824D01*
X9951363Y-13794824D02*
X9805693Y-13853571D01*
X9805693Y-13853571D02*
X9721661Y-13867535D01*
X9721661Y-13867535D02*
X9668450Y-13859107D01*
X9668450Y-13859107D02*
X9592847Y-13819860D01*
X9592847Y-13819860D02*
X9548063Y-13758220D01*
X9548063Y-13758220D02*
X9534099Y-13674189D01*
X9534099Y-13674189D02*
X9542527Y-13620978D01*
X9542527Y-13620978D02*
X9581774Y-13545374D01*
X9581774Y-13545374D02*
X9682661Y-13424987D01*
X9682661Y-13424987D02*
X9836760Y-13313028D01*
X9836760Y-13313028D02*
X9982431Y-13254281D01*
X9982431Y-13254281D02*
X10066462Y-13240317D01*
X10066462Y-13240317D02*
X10119673Y-13248745D01*
X10119673Y-13248745D02*
X10195277Y-13287992D01*
X3446303Y-1962295D02*
X3179636Y-1581342D01*
X2989160Y-1962295D02*
X2989160Y-1162295D01*
X2989160Y-1162295D02*
X3293922Y-1162295D01*
X3293922Y-1162295D02*
X3370112Y-1200390D01*
X3370112Y-1200390D02*
X3408207Y-1238485D01*
X3408207Y-1238485D02*
X3446303Y-1314676D01*
X3446303Y-1314676D02*
X3446303Y-1428961D01*
X3446303Y-1428961D02*
X3408207Y-1505152D01*
X3408207Y-1505152D02*
X3370112Y-1543247D01*
X3370112Y-1543247D02*
X3293922Y-1581342D01*
X3293922Y-1581342D02*
X2989160Y-1581342D01*
X3751064Y-1238485D02*
X3789160Y-1200390D01*
X3789160Y-1200390D02*
X3865350Y-1162295D01*
X3865350Y-1162295D02*
X4055826Y-1162295D01*
X4055826Y-1162295D02*
X4132017Y-1200390D01*
X4132017Y-1200390D02*
X4170112Y-1238485D01*
X4170112Y-1238485D02*
X4208207Y-1314676D01*
X4208207Y-1314676D02*
X4208207Y-1390866D01*
X4208207Y-1390866D02*
X4170112Y-1505152D01*
X4170112Y-1505152D02*
X3712969Y-1962295D01*
X3712969Y-1962295D02*
X4208207Y-1962295D01*
X-13867346Y-9790637D02*
X-14314700Y-9127407D01*
X-14314700Y-9127407D02*
X-14156788Y-9020894D01*
X-14156788Y-9020894D02*
X-14040738Y-8988569D01*
X-14040738Y-8988569D02*
X-13934968Y-9009128D01*
X-13934968Y-9009128D02*
X-13860781Y-9050990D01*
X-13860781Y-9050990D02*
X-13743988Y-9156017D01*
X-13743988Y-9156017D02*
X-13680080Y-9250764D01*
X-13680080Y-9250764D02*
X-13626452Y-9398397D01*
X-13626452Y-9398397D02*
X-13615429Y-9482864D01*
X-13615429Y-9482864D02*
X-13635989Y-9588634D01*
X-13635989Y-9588634D02*
X-13709434Y-9684124D01*
X-13709434Y-9684124D02*
X-13867346Y-9790637D01*
X-13714635Y-8722658D02*
X-13272481Y-8424422D01*
X-13272481Y-8424422D02*
X-13109368Y-9279375D01*
X-13082987Y-8296606D02*
X-12640833Y-7998370D01*
X-12640833Y-7998370D02*
X-12477720Y-8853323D01*
X-12854659Y11086827D02*
X-12319354Y11681343D01*
X-12319354Y11681343D02*
X-12177803Y11553890D01*
X-12177803Y11553890D02*
X-12118363Y11449107D01*
X-12118363Y11449107D02*
X-12112723Y11341506D01*
X-12112723Y11341506D02*
X-12135395Y11259394D01*
X-12135395Y11259394D02*
X-12209047Y11120662D01*
X-12209047Y11120662D02*
X-12285519Y11035732D01*
X-12285519Y11035732D02*
X-12415792Y10947981D01*
X-12415792Y10947981D02*
X-12495084Y10916851D01*
X-12495084Y10916851D02*
X-12602686Y10911212D01*
X-12602686Y10911212D02*
X-12713107Y10959374D01*
X-12713107Y10959374D02*
X-12854659Y11086827D01*
X-11441735Y10891132D02*
X-11724838Y11146039D01*
X-11724838Y11146039D02*
X-12008055Y10888427D01*
X-12008055Y10888427D02*
X-11954254Y10891246D01*
X-11954254Y10891246D02*
X-11872143Y10868575D01*
X-11872143Y10868575D02*
X-11730592Y10741122D01*
X-11730592Y10741122D02*
X-11699462Y10661830D01*
X-11699462Y10661830D02*
X-11696642Y10608029D01*
X-11696642Y10608029D02*
X-11719313Y10525918D01*
X-11719313Y10525918D02*
X-11846767Y10384366D01*
X-11846767Y10384366D02*
X-11926059Y10353237D01*
X-11926059Y10353237D02*
X-11979860Y10350417D01*
X-11979860Y10350417D02*
X-12061971Y10373088D01*
X-12061971Y10373088D02*
X-12203522Y10500542D01*
X-12203522Y10500542D02*
X-12234652Y10579833D01*
X-12234652Y10579833D02*
X-12237472Y10633634D01*
X-11303118Y10304960D02*
X-11334248Y10384252D01*
X-11334248Y10384252D02*
X-11337067Y10438053D01*
X-11337067Y10438053D02*
X-11314396Y10520164D01*
X-11314396Y10520164D02*
X-11288906Y10548474D01*
X-11288906Y10548474D02*
X-11209614Y10579604D01*
X-11209614Y10579604D02*
X-11155813Y10582424D01*
X-11155813Y10582424D02*
X-11073702Y10559753D01*
X-11073702Y10559753D02*
X-10960461Y10457790D01*
X-10960461Y10457790D02*
X-10929331Y10378498D01*
X-10929331Y10378498D02*
X-10926511Y10324697D01*
X-10926511Y10324697D02*
X-10949182Y10242586D01*
X-10949182Y10242586D02*
X-10974673Y10214276D01*
X-10974673Y10214276D02*
X-11053965Y10183146D01*
X-11053965Y10183146D02*
X-11107766Y10180326D01*
X-11107766Y10180326D02*
X-11189877Y10202997D01*
X-11189877Y10202997D02*
X-11303118Y10304960D01*
X-11303118Y10304960D02*
X-11385229Y10327631D01*
X-11385229Y10327631D02*
X-11439030Y10324812D01*
X-11439030Y10324812D02*
X-11518322Y10293682D01*
X-11518322Y10293682D02*
X-11620285Y10180441D01*
X-11620285Y10180441D02*
X-11642956Y10098330D01*
X-11642956Y10098330D02*
X-11640136Y10044529D01*
X-11640136Y10044529D02*
X-11609006Y9965237D01*
X-11609006Y9965237D02*
X-11495765Y9863274D01*
X-11495765Y9863274D02*
X-11413654Y9840603D01*
X-11413654Y9840603D02*
X-11359853Y9843423D01*
X-11359853Y9843423D02*
X-11280561Y9874553D01*
X-11280561Y9874553D02*
X-11178598Y9987794D01*
X-11178598Y9987794D02*
X-11155927Y10069905D01*
X-11155927Y10069905D02*
X-11158747Y10123706D01*
X-11158747Y10123706D02*
X-11189877Y10202997D01*
X-16028811Y-5589036D02*
X-16276024Y-4828191D01*
X-16276024Y-4828191D02*
X-16094871Y-4769330D01*
X-16094871Y-4769330D02*
X-15974407Y-4770245D01*
X-15974407Y-4770245D02*
X-15878401Y-4819162D01*
X-15878401Y-4819162D02*
X-15818626Y-4879851D01*
X-15818626Y-4879851D02*
X-15735307Y-5013002D01*
X-15735307Y-5013002D02*
X-15699991Y-5121694D01*
X-15699991Y-5121694D02*
X-15689133Y-5278389D01*
X-15689133Y-5278389D02*
X-15701820Y-5362623D01*
X-15701820Y-5362623D02*
X-15750737Y-5458628D01*
X-15750737Y-5458628D02*
X-15847657Y-5530175D01*
X-15847657Y-5530175D02*
X-16028811Y-5589036D01*
X-15587641Y-4604521D02*
X-15080411Y-4439712D01*
X-15080411Y-4439712D02*
X-15159273Y-5306506D01*
X-14863026Y-4369080D02*
X-14392027Y-4216043D01*
X-14392027Y-4216043D02*
X-14551465Y-4588293D01*
X-14551465Y-4588293D02*
X-14442773Y-4552977D01*
X-14442773Y-4552977D02*
X-14358539Y-4565663D01*
X-14358539Y-4565663D02*
X-14310536Y-4590122D01*
X-14310536Y-4590122D02*
X-14250762Y-4650811D01*
X-14250762Y-4650811D02*
X-14191901Y-4831965D01*
X-14191901Y-4831965D02*
X-14204588Y-4916198D01*
X-14204588Y-4916198D02*
X-14229046Y-4964201D01*
X-14229046Y-4964201D02*
X-14289736Y-5023976D01*
X-14289736Y-5023976D02*
X-14507120Y-5094608D01*
X-14507120Y-5094608D02*
X-14591354Y-5081922D01*
X-14591354Y-5081922D02*
X-14639356Y-5057463D01*
X-3174151Y-16675864D02*
X-3956669Y-16509534D01*
X-3956669Y-16509534D02*
X-3917067Y-16323220D01*
X-3917067Y-16323220D02*
X-3856042Y-16219353D01*
X-3856042Y-16219353D02*
X-3765676Y-16160668D01*
X-3765676Y-16160668D02*
X-3683230Y-16139246D01*
X-3683230Y-16139246D02*
X-3526259Y-16133665D01*
X-3526259Y-16133665D02*
X-3414470Y-16157426D01*
X-3414470Y-16157426D02*
X-3273340Y-16226371D01*
X-3273340Y-16226371D02*
X-3206735Y-16279475D01*
X-3206735Y-16279475D02*
X-3148050Y-16369841D01*
X-3148050Y-16369841D02*
X-3134548Y-16489550D01*
X-3134548Y-16489550D02*
X-3174151Y-16675864D01*
X-3431213Y-15686512D02*
X-3484317Y-15753117D01*
X-3484317Y-15753117D02*
X-3529500Y-15782459D01*
X-3529500Y-15782459D02*
X-3611946Y-15803881D01*
X-3611946Y-15803881D02*
X-3649209Y-15795961D01*
X-3649209Y-15795961D02*
X-3715814Y-15742857D01*
X-3715814Y-15742857D02*
X-3745156Y-15697674D01*
X-3745156Y-15697674D02*
X-3766578Y-15615228D01*
X-3766578Y-15615228D02*
X-3734896Y-15466177D01*
X-3734896Y-15466177D02*
X-3681793Y-15399572D01*
X-3681793Y-15399572D02*
X-3636609Y-15370229D01*
X-3636609Y-15370229D02*
X-3554163Y-15348808D01*
X-3554163Y-15348808D02*
X-3516901Y-15356728D01*
X-3516901Y-15356728D02*
X-3450296Y-15409832D01*
X-3450296Y-15409832D02*
X-3420953Y-15455015D01*
X-3420953Y-15455015D02*
X-3399531Y-15537461D01*
X-3399531Y-15537461D02*
X-3431213Y-15686512D01*
X-3431213Y-15686512D02*
X-3409791Y-15768958D01*
X-3409791Y-15768958D02*
X-3380449Y-15814141D01*
X-3380449Y-15814141D02*
X-3313844Y-15867245D01*
X-3313844Y-15867245D02*
X-3164793Y-15898927D01*
X-3164793Y-15898927D02*
X-3082347Y-15877505D01*
X-3082347Y-15877505D02*
X-3037164Y-15848162D01*
X-3037164Y-15848162D02*
X-2984060Y-15781557D01*
X-2984060Y-15781557D02*
X-2952378Y-15632506D01*
X-2952378Y-15632506D02*
X-2973800Y-15550060D01*
X-2973800Y-15550060D02*
X-3003142Y-15504877D01*
X-3003142Y-15504877D02*
X-3069747Y-15451773D01*
X-3069747Y-15451773D02*
X-3218799Y-15420092D01*
X-3218799Y-15420092D02*
X-3301245Y-15441513D01*
X-3301245Y-15441513D02*
X-3346428Y-15470856D01*
X-3346428Y-15470856D02*
X-3399531Y-15537461D01*
X-3272804Y-14941256D02*
X-3325908Y-15007861D01*
X-3325908Y-15007861D02*
X-3371091Y-15037204D01*
X-3371091Y-15037204D02*
X-3453537Y-15058626D01*
X-3453537Y-15058626D02*
X-3490800Y-15050705D01*
X-3490800Y-15050705D02*
X-3557405Y-14997602D01*
X-3557405Y-14997602D02*
X-3586747Y-14952418D01*
X-3586747Y-14952418D02*
X-3608169Y-14869972D01*
X-3608169Y-14869972D02*
X-3576487Y-14720921D01*
X-3576487Y-14720921D02*
X-3523384Y-14654316D01*
X-3523384Y-14654316D02*
X-3478200Y-14624974D01*
X-3478200Y-14624974D02*
X-3395754Y-14603552D01*
X-3395754Y-14603552D02*
X-3358492Y-14611472D01*
X-3358492Y-14611472D02*
X-3291887Y-14664576D01*
X-3291887Y-14664576D02*
X-3262544Y-14709759D01*
X-3262544Y-14709759D02*
X-3241122Y-14792205D01*
X-3241122Y-14792205D02*
X-3272804Y-14941256D01*
X-3272804Y-14941256D02*
X-3251382Y-15023702D01*
X-3251382Y-15023702D02*
X-3222040Y-15068886D01*
X-3222040Y-15068886D02*
X-3155435Y-15121989D01*
X-3155435Y-15121989D02*
X-3006384Y-15153671D01*
X-3006384Y-15153671D02*
X-2923938Y-15132249D01*
X-2923938Y-15132249D02*
X-2878755Y-15102907D01*
X-2878755Y-15102907D02*
X-2825651Y-15036302D01*
X-2825651Y-15036302D02*
X-2793969Y-14887251D01*
X-2793969Y-14887251D02*
X-2815391Y-14804805D01*
X-2815391Y-14804805D02*
X-2844733Y-14759621D01*
X-2844733Y-14759621D02*
X-2911339Y-14706518D01*
X-2911339Y-14706518D02*
X-3060390Y-14674836D01*
X-3060390Y-14674836D02*
X-3142836Y-14696258D01*
X-3142836Y-14696258D02*
X-3188019Y-14725600D01*
X-3188019Y-14725600D02*
X-3241122Y-14792205D01*
X-16776521Y2590236D02*
X-16637602Y3378082D01*
X-16637602Y3378082D02*
X-16450020Y3345007D01*
X-16450020Y3345007D02*
X-16344086Y3287645D01*
X-16344086Y3287645D02*
X-16282283Y3199381D01*
X-16282283Y3199381D02*
X-16257997Y3117733D01*
X-16257997Y3117733D02*
X-16246941Y2961052D01*
X-16246941Y2961052D02*
X-16266787Y2848503D01*
X-16266787Y2848503D02*
X-16330764Y2705052D01*
X-16330764Y2705052D02*
X-16381511Y2636634D01*
X-16381511Y2636634D02*
X-16469774Y2574831D01*
X-16469774Y2574831D02*
X-16588939Y2557160D01*
X-16588939Y2557160D02*
X-16776521Y2590236D01*
X-15512108Y3179627D02*
X-15662174Y3206088D01*
X-15662174Y3206088D02*
X-15743822Y3181802D01*
X-15743822Y3181802D02*
X-15787954Y3150901D01*
X-15787954Y3150901D02*
X-15882832Y3051581D01*
X-15882832Y3051581D02*
X-15946809Y2908131D01*
X-15946809Y2908131D02*
X-15999731Y2607999D01*
X-15999731Y2607999D02*
X-15975444Y2526351D01*
X-15975444Y2526351D02*
X-15944543Y2482219D01*
X-15944543Y2482219D02*
X-15876125Y2431472D01*
X-15876125Y2431472D02*
X-15726059Y2405011D01*
X-15726059Y2405011D02*
X-15644411Y2429298D01*
X-15644411Y2429298D02*
X-15600280Y2460199D01*
X-15600280Y2460199D02*
X-15549533Y2528617D01*
X-15549533Y2528617D02*
X-15516457Y2716199D01*
X-15516457Y2716199D02*
X-15540743Y2797847D01*
X-15540743Y2797847D02*
X-15571644Y2841979D01*
X-15571644Y2841979D02*
X-15640062Y2892726D01*
X-15640062Y2892726D02*
X-15790128Y2919186D01*
X-15790128Y2919186D02*
X-15871776Y2894900D01*
X-15871776Y2894900D02*
X-15915908Y2863999D01*
X-15915908Y2863999D02*
X-15966655Y2795581D01*
X-14761778Y3047324D02*
X-14911844Y3073785D01*
X-14911844Y3073785D02*
X-14993492Y3049498D01*
X-14993492Y3049498D02*
X-15037624Y3018597D01*
X-15037624Y3018597D02*
X-15132502Y2919278D01*
X-15132502Y2919278D02*
X-15196479Y2775827D01*
X-15196479Y2775827D02*
X-15249401Y2475695D01*
X-15249401Y2475695D02*
X-15225115Y2394047D01*
X-15225115Y2394047D02*
X-15194213Y2349916D01*
X-15194213Y2349916D02*
X-15125795Y2299169D01*
X-15125795Y2299169D02*
X-14975729Y2272708D01*
X-14975729Y2272708D02*
X-14894081Y2296994D01*
X-14894081Y2296994D02*
X-14849950Y2327896D01*
X-14849950Y2327896D02*
X-14799203Y2396313D01*
X-14799203Y2396313D02*
X-14766127Y2583896D01*
X-14766127Y2583896D02*
X-14790413Y2665544D01*
X-14790413Y2665544D02*
X-14821314Y2709676D01*
X-14821314Y2709676D02*
X-14889732Y2760422D01*
X-14889732Y2760422D02*
X-15039798Y2786883D01*
X-15039798Y2786883D02*
X-15121446Y2762597D01*
X-15121446Y2762597D02*
X-15165578Y2731696D01*
X-15165578Y2731696D02*
X-15216325Y2663278D01*
X-2453696Y2413895D02*
X-2491792Y2375800D01*
X-2491792Y2375800D02*
X-2606077Y2337704D01*
X-2606077Y2337704D02*
X-2682268Y2337704D01*
X-2682268Y2337704D02*
X-2796554Y2375800D01*
X-2796554Y2375800D02*
X-2872744Y2451990D01*
X-2872744Y2451990D02*
X-2910839Y2528180D01*
X-2910839Y2528180D02*
X-2948935Y2680561D01*
X-2948935Y2680561D02*
X-2948935Y2794847D01*
X-2948935Y2794847D02*
X-2910839Y2947228D01*
X-2910839Y2947228D02*
X-2872744Y3023419D01*
X-2872744Y3023419D02*
X-2796554Y3099609D01*
X-2796554Y3099609D02*
X-2682268Y3137704D01*
X-2682268Y3137704D02*
X-2606077Y3137704D01*
X-2606077Y3137704D02*
X-2491792Y3099609D01*
X-2491792Y3099609D02*
X-2453696Y3061514D01*
X-2148935Y3061514D02*
X-2110839Y3099609D01*
X-2110839Y3099609D02*
X-2034649Y3137704D01*
X-2034649Y3137704D02*
X-1844173Y3137704D01*
X-1844173Y3137704D02*
X-1767982Y3099609D01*
X-1767982Y3099609D02*
X-1729887Y3061514D01*
X-1729887Y3061514D02*
X-1691792Y2985323D01*
X-1691792Y2985323D02*
X-1691792Y2909133D01*
X-1691792Y2909133D02*
X-1729887Y2794847D01*
X-1729887Y2794847D02*
X-2187030Y2337704D01*
X-2187030Y2337704D02*
X-1691792Y2337704D01*
X5936641Y-14224659D02*
X6667478Y-13899269D01*
X6667478Y-13899269D02*
X6744951Y-14073278D01*
X6744951Y-14073278D02*
X6756634Y-14193178D01*
X6756634Y-14193178D02*
X6718020Y-14293771D01*
X6718020Y-14293771D02*
X6663911Y-14359562D01*
X6663911Y-14359562D02*
X6540199Y-14456343D01*
X6540199Y-14456343D02*
X6435794Y-14502827D01*
X6435794Y-14502827D02*
X6281092Y-14530004D01*
X6281092Y-14530004D02*
X6195994Y-14526192D01*
X6195994Y-14526192D02*
X6095401Y-14487578D01*
X6095401Y-14487578D02*
X6014115Y-14398667D01*
X6014115Y-14398667D02*
X5936641Y-14224659D01*
X6961877Y-14560502D02*
X7178804Y-15047727D01*
X7178804Y-15047727D02*
X6308515Y-15059900D01*
X13348735Y-6913738D02*
X13699432Y-6194703D01*
X13699432Y-6194703D02*
X13870631Y-6278202D01*
X13870631Y-6278202D02*
X13956651Y-6362541D01*
X13956651Y-6362541D02*
X13991730Y-6464421D01*
X13991730Y-6464421D02*
X13992570Y-6549600D01*
X13992570Y-6549600D02*
X13960011Y-6703259D01*
X13960011Y-6703259D02*
X13909911Y-6805978D01*
X13909911Y-6805978D02*
X13808872Y-6926237D01*
X13808872Y-6926237D02*
X13741233Y-6978017D01*
X13741233Y-6978017D02*
X13639353Y-7013097D01*
X13639353Y-7013097D02*
X13519934Y-6997237D01*
X13519934Y-6997237D02*
X13348735Y-6913738D01*
X14444408Y-7448133D02*
X14033531Y-7247735D01*
X14238969Y-7347934D02*
X14589666Y-6628899D01*
X14589666Y-6628899D02*
X14471087Y-6698219D01*
X14471087Y-6698219D02*
X14369208Y-6733298D01*
X14369208Y-6733298D02*
X14284029Y-6734138D01*
X15034784Y-6845997D02*
X15514140Y-7079795D01*
X15514140Y-7079795D02*
X14855286Y-7648532D01*
X3899169Y-14912468D02*
X4668178Y-14691958D01*
X4668178Y-14691958D02*
X4720680Y-14875055D01*
X4720680Y-14875055D02*
X4715562Y-14995414D01*
X4715562Y-14995414D02*
X4663324Y-15089654D01*
X4663324Y-15089654D02*
X4600586Y-15147275D01*
X4600586Y-15147275D02*
X4464608Y-15225896D01*
X4464608Y-15225896D02*
X4354750Y-15257398D01*
X4354750Y-15257398D02*
X4197771Y-15262780D01*
X4197771Y-15262780D02*
X4114032Y-15247161D01*
X4114032Y-15247161D02*
X4019792Y-15194923D01*
X4019792Y-15194923D02*
X3951671Y-15095565D01*
X3951671Y-15095565D02*
X3899169Y-14912468D01*
X4993693Y-15827162D02*
X4888688Y-15460967D01*
X4888688Y-15460967D02*
X4511993Y-15529353D01*
X4511993Y-15529353D02*
X4559113Y-15555472D01*
X4559113Y-15555472D02*
X4616733Y-15618210D01*
X4616733Y-15618210D02*
X4669235Y-15801308D01*
X4669235Y-15801308D02*
X4653617Y-15885047D01*
X4653617Y-15885047D02*
X4627498Y-15932167D01*
X4627498Y-15932167D02*
X4564759Y-15989787D01*
X4564759Y-15989787D02*
X4381662Y-16042290D01*
X4381662Y-16042290D02*
X4297922Y-16026671D01*
X4297922Y-16026671D02*
X4250802Y-16000552D01*
X4250802Y-16000552D02*
X4193182Y-15937814D01*
X4193182Y-15937814D02*
X4140680Y-15754716D01*
X4140680Y-15754716D02*
X4156298Y-15670977D01*
X4156298Y-15670977D02*
X4182417Y-15623857D01*
X-11528689Y-12459857D02*
X-12104161Y-11904131D01*
X-12104161Y-11904131D02*
X-11971845Y-11767114D01*
X-11971845Y-11767114D02*
X-11865052Y-11711366D01*
X-11865052Y-11711366D02*
X-11757319Y-11709486D01*
X-11757319Y-11709486D02*
X-11676049Y-11735009D01*
X-11676049Y-11735009D02*
X-11539972Y-11813458D01*
X-11539972Y-11813458D02*
X-11457762Y-11892848D01*
X-11457762Y-11892848D02*
X-11374611Y-12026104D01*
X-11374611Y-12026104D02*
X-11346268Y-12106434D01*
X-11346268Y-12106434D02*
X-11344387Y-12214167D01*
X-11344387Y-12214167D02*
X-11396373Y-12322840D01*
X-11396373Y-12322840D02*
X-11528689Y-12459857D01*
X-11222414Y-11484617D02*
X-11302744Y-11512961D01*
X-11302744Y-11512961D02*
X-11356610Y-11513901D01*
X-11356610Y-11513901D02*
X-11437880Y-11488378D01*
X-11437880Y-11488378D02*
X-11465284Y-11461915D01*
X-11465284Y-11461915D02*
X-11493628Y-11381585D01*
X-11493628Y-11381585D02*
X-11494568Y-11327719D01*
X-11494568Y-11327719D02*
X-11469045Y-11246449D01*
X-11469045Y-11246449D02*
X-11363192Y-11136835D01*
X-11363192Y-11136835D02*
X-11282862Y-11108491D01*
X-11282862Y-11108491D02*
X-11228996Y-11107551D01*
X-11228996Y-11107551D02*
X-11147726Y-11133074D01*
X-11147726Y-11133074D02*
X-11120322Y-11159537D01*
X-11120322Y-11159537D02*
X-11091979Y-11239867D01*
X-11091979Y-11239867D02*
X-11091038Y-11293733D01*
X-11091038Y-11293733D02*
X-11116561Y-11375003D01*
X-11116561Y-11375003D02*
X-11222414Y-11484617D01*
X-11222414Y-11484617D02*
X-11247937Y-11565887D01*
X-11247937Y-11565887D02*
X-11246997Y-11619754D01*
X-11246997Y-11619754D02*
X-11218653Y-11700083D01*
X-11218653Y-11700083D02*
X-11109039Y-11805936D01*
X-11109039Y-11805936D02*
X-11027769Y-11831459D01*
X-11027769Y-11831459D02*
X-10973903Y-11830519D01*
X-10973903Y-11830519D02*
X-10893573Y-11802175D01*
X-10893573Y-11802175D02*
X-10787720Y-11692562D01*
X-10787720Y-11692562D02*
X-10762197Y-11611292D01*
X-10762197Y-11611292D02*
X-10763138Y-11557425D01*
X-10763138Y-11557425D02*
X-10791481Y-11477095D01*
X-10791481Y-11477095D02*
X-10901095Y-11371242D01*
X-10901095Y-11371242D02*
X-10982365Y-11345720D01*
X-10982365Y-11345720D02*
X-11036232Y-11346660D01*
X-11036232Y-11346660D02*
X-11116561Y-11375003D01*
X-10913318Y-10670977D02*
X-10860392Y-10616170D01*
X-10860392Y-10616170D02*
X-10780062Y-10587826D01*
X-10780062Y-10587826D02*
X-10726195Y-10586886D01*
X-10726195Y-10586886D02*
X-10644925Y-10612409D01*
X-10644925Y-10612409D02*
X-10508848Y-10690858D01*
X-10508848Y-10690858D02*
X-10371831Y-10823174D01*
X-10371831Y-10823174D02*
X-10288681Y-10956430D01*
X-10288681Y-10956430D02*
X-10260337Y-11036760D01*
X-10260337Y-11036760D02*
X-10259397Y-11090626D01*
X-10259397Y-11090626D02*
X-10284920Y-11171896D01*
X-10284920Y-11171896D02*
X-10337846Y-11226703D01*
X-10337846Y-11226703D02*
X-10418176Y-11255047D01*
X-10418176Y-11255047D02*
X-10472043Y-11255987D01*
X-10472043Y-11255987D02*
X-10553313Y-11230464D01*
X-10553313Y-11230464D02*
X-10689389Y-11152015D01*
X-10689389Y-11152015D02*
X-10826407Y-11019699D01*
X-10826407Y-11019699D02*
X-10909557Y-10886443D01*
X-10909557Y-10886443D02*
X-10937901Y-10806113D01*
X-10937901Y-10806113D02*
X-10938841Y-10752247D01*
X-10938841Y-10752247D02*
X-10913318Y-10670977D01*
X15006773Y-886569D02*
X15034692Y-87056D01*
X15034692Y-87056D02*
X15225052Y-93704D01*
X15225052Y-93704D02*
X15337939Y-135764D01*
X15337939Y-135764D02*
X15411424Y-214567D01*
X15411424Y-214567D02*
X15446837Y-292041D01*
X15446837Y-292041D02*
X15479591Y-445658D01*
X15479591Y-445658D02*
X15475602Y-559874D01*
X15475602Y-559874D02*
X15432212Y-710833D01*
X15432212Y-710833D02*
X15391481Y-785648D01*
X15391481Y-785648D02*
X15312678Y-859133D01*
X15312678Y-859133D02*
X15197133Y-893216D01*
X15197133Y-893216D02*
X15006773Y-886569D01*
X15793474Y-189790D02*
X15832875Y-153048D01*
X15832875Y-153048D02*
X15910349Y-117635D01*
X15910349Y-117635D02*
X16100709Y-124282D01*
X16100709Y-124282D02*
X16175524Y-165013D01*
X16175524Y-165013D02*
X16212266Y-204415D01*
X16212266Y-204415D02*
X16247679Y-281888D01*
X16247679Y-281888D02*
X16245020Y-358032D01*
X16245020Y-358032D02*
X16202960Y-470919D01*
X16202960Y-470919D02*
X15730141Y-911829D01*
X15730141Y-911829D02*
X16225078Y-929113D01*
X16519502Y-138907D02*
X17014438Y-156190D01*
X17014438Y-156190D02*
X16737298Y-451460D01*
X16737298Y-451460D02*
X16851514Y-455448D01*
X16851514Y-455448D02*
X16926328Y-496180D01*
X16926328Y-496180D02*
X16963071Y-535581D01*
X16963071Y-535581D02*
X16998484Y-613055D01*
X16998484Y-613055D02*
X16991836Y-803415D01*
X16991836Y-803415D02*
X16951105Y-878229D01*
X16951105Y-878229D02*
X16911704Y-914972D01*
X16911704Y-914972D02*
X16834230Y-950385D01*
X16834230Y-950385D02*
X16605798Y-942408D01*
X16605798Y-942408D02*
X16530984Y-901677D01*
X16530984Y-901677D02*
X16494241Y-862275D01*
X-15599893Y-6693550D02*
X-15899579Y-5951803D01*
X-15899579Y-5951803D02*
X-15722972Y-5880450D01*
X-15722972Y-5880450D02*
X-15602738Y-5872959D01*
X-15602738Y-5872959D02*
X-15503554Y-5915060D01*
X-15503554Y-5915060D02*
X-15439691Y-5971432D01*
X-15439691Y-5971432D02*
X-15347287Y-6098446D01*
X-15347287Y-6098446D02*
X-15304474Y-6204410D01*
X-15304474Y-6204410D02*
X-15282713Y-6359966D01*
X-15282713Y-6359966D02*
X-15289493Y-6444879D01*
X-15289493Y-6444879D02*
X-15331594Y-6544063D01*
X-15331594Y-6544063D02*
X-15423287Y-6622197D01*
X-15423287Y-6622197D02*
X-15599893Y-6693550D01*
X-15228474Y-5680660D02*
X-14733976Y-5480869D01*
X-14733976Y-5480869D02*
X-14752182Y-6351053D01*
X-14033619Y-5485516D02*
X-13833829Y-5980014D01*
X-14324391Y-5274299D02*
X-14286937Y-5875472D01*
X-14286937Y-5875472D02*
X-13827760Y-5689953D01*
X-14272531Y9189924D02*
X-13825177Y9853154D01*
X-13825177Y9853154D02*
X-13667265Y9746641D01*
X-13667265Y9746641D02*
X-13593821Y9651151D01*
X-13593821Y9651151D02*
X-13573261Y9545381D01*
X-13573261Y9545381D02*
X-13584284Y9460914D01*
X-13584284Y9460914D02*
X-13637912Y9313282D01*
X-13637912Y9313282D02*
X-13701820Y9218535D01*
X-13701820Y9218535D02*
X-13818612Y9113508D01*
X-13818612Y9113508D02*
X-13892800Y9071646D01*
X-13892800Y9071646D02*
X-13998570Y9051086D01*
X-13998570Y9051086D02*
X-14114619Y9083411D01*
X-14114619Y9083411D02*
X-14272531Y9189924D01*
X-12877706Y9214077D02*
X-13004035Y9299287D01*
X-13004035Y9299287D02*
X-13088502Y9310310D01*
X-13088502Y9310310D02*
X-13141387Y9300030D01*
X-13141387Y9300030D02*
X-13268460Y9247888D01*
X-13268460Y9247888D02*
X-13385253Y9142861D01*
X-13385253Y9142861D02*
X-13555673Y8890202D01*
X-13555673Y8890202D02*
X-13566696Y8805735D01*
X-13566696Y8805735D02*
X-13556416Y8752850D01*
X-13556416Y8752850D02*
X-13514554Y8678662D01*
X-13514554Y8678662D02*
X-13388225Y8593452D01*
X-13388225Y8593452D02*
X-13303757Y8582429D01*
X-13303757Y8582429D02*
X-13250872Y8592709D01*
X-13250872Y8592709D02*
X-13176685Y8634571D01*
X-13176685Y8634571D02*
X-13070172Y8792483D01*
X-13070172Y8792483D02*
X-13059149Y8876950D01*
X-13059149Y8876950D02*
X-13069429Y8929835D01*
X-13069429Y8929835D02*
X-13111291Y9004023D01*
X-13111291Y9004023D02*
X-13237621Y9089233D01*
X-13237621Y9089233D02*
X-13322088Y9100256D01*
X-13322088Y9100256D02*
X-13374973Y9089976D01*
X-13374973Y9089976D02*
X-13449160Y9048114D01*
X-12403970Y8894538D02*
X-12340805Y8851933D01*
X-12340805Y8851933D02*
X-12298943Y8777745D01*
X-12298943Y8777745D02*
X-12288663Y8724860D01*
X-12288663Y8724860D02*
X-12299686Y8640393D01*
X-12299686Y8640393D02*
X-12353314Y8492761D01*
X-12353314Y8492761D02*
X-12459827Y8334849D01*
X-12459827Y8334849D02*
X-12576619Y8229822D01*
X-12576619Y8229822D02*
X-12650807Y8187960D01*
X-12650807Y8187960D02*
X-12703692Y8177680D01*
X-12703692Y8177680D02*
X-12788159Y8188703D01*
X-12788159Y8188703D02*
X-12851324Y8231308D01*
X-12851324Y8231308D02*
X-12893186Y8305495D01*
X-12893186Y8305495D02*
X-12903466Y8358380D01*
X-12903466Y8358380D02*
X-12892443Y8442848D01*
X-12892443Y8442848D02*
X-12838815Y8590480D01*
X-12838815Y8590480D02*
X-12732302Y8748392D01*
X-12732302Y8748392D02*
X-12615510Y8853419D01*
X-12615510Y8853419D02*
X-12541322Y8895281D01*
X-12541322Y8895281D02*
X-12488437Y8905561D01*
X-12488437Y8905561D02*
X-12403970Y8894538D01*
X10925988Y-10325278D02*
X11461293Y-9730762D01*
X11461293Y-9730762D02*
X11602844Y-9858215D01*
X11602844Y-9858215D02*
X11662284Y-9962998D01*
X11662284Y-9962998D02*
X11667924Y-10070599D01*
X11667924Y-10070599D02*
X11645252Y-10152711D01*
X11645252Y-10152711D02*
X11571600Y-10291443D01*
X11571600Y-10291443D02*
X11495128Y-10376373D01*
X11495128Y-10376373D02*
X11364855Y-10464124D01*
X11364855Y-10464124D02*
X11285563Y-10495254D01*
X11285563Y-10495254D02*
X11177961Y-10500893D01*
X11177961Y-10500893D02*
X11067540Y-10452731D01*
X11067540Y-10452731D02*
X10925988Y-10325278D01*
X11831917Y-11140980D02*
X11492194Y-10835091D01*
X11662056Y-10988036D02*
X12197360Y-10393520D01*
X12197360Y-10393520D02*
X12064267Y-10427469D01*
X12064267Y-10427469D02*
X11956666Y-10433108D01*
X11956666Y-10433108D02*
X11874554Y-10410437D01*
X12565394Y-10724899D02*
X12933428Y-11056278D01*
X12933428Y-11056278D02*
X12531330Y-11104325D01*
X12531330Y-11104325D02*
X12616261Y-11180797D01*
X12616261Y-11180797D02*
X12647391Y-11260089D01*
X12647391Y-11260089D02*
X12650210Y-11313890D01*
X12650210Y-11313890D02*
X12627539Y-11396001D01*
X12627539Y-11396001D02*
X12500086Y-11537552D01*
X12500086Y-11537552D02*
X12420794Y-11568682D01*
X12420794Y-11568682D02*
X12366993Y-11571502D01*
X12366993Y-11571502D02*
X12284882Y-11548831D01*
X12284882Y-11548831D02*
X12115020Y-11395887D01*
X12115020Y-11395887D02*
X12083890Y-11316595D01*
X12083890Y-11316595D02*
X12081071Y-11262794D01*
X14069944Y5293915D02*
X13770258Y6035662D01*
X13770258Y6035662D02*
X13946865Y6107015D01*
X13946865Y6107015D02*
X14067099Y6114506D01*
X14067099Y6114506D02*
X14166283Y6072405D01*
X14166283Y6072405D02*
X14230146Y6016033D01*
X14230146Y6016033D02*
X14322550Y5889019D01*
X14322550Y5889019D02*
X14365363Y5783055D01*
X14365363Y5783055D02*
X14387124Y5627499D01*
X14387124Y5627499D02*
X14380344Y5542586D01*
X14380344Y5542586D02*
X14338243Y5443402D01*
X14338243Y5443402D02*
X14246550Y5365268D01*
X14246550Y5365268D02*
X14069944Y5293915D01*
X14505226Y6250434D02*
X14526276Y6300026D01*
X14526276Y6300026D02*
X14582648Y6363888D01*
X14582648Y6363888D02*
X14759254Y6435242D01*
X14759254Y6435242D02*
X14844168Y6428462D01*
X14844168Y6428462D02*
X14893760Y6407412D01*
X14893760Y6407412D02*
X14957622Y6351040D01*
X14957622Y6351040D02*
X14986164Y6280397D01*
X14986164Y6280397D02*
X14993655Y6160163D01*
X14993655Y6160163D02*
X14741048Y5565058D01*
X14741048Y5565058D02*
X15200225Y5750578D01*
X15553438Y5893285D02*
X15694723Y5950368D01*
X15694723Y5950368D02*
X15751095Y6014231D01*
X15751095Y6014231D02*
X15772146Y6063823D01*
X15772146Y6063823D02*
X15799976Y6198328D01*
X15799976Y6198328D02*
X15778214Y6353884D01*
X15778214Y6353884D02*
X15664048Y6636454D01*
X15664048Y6636454D02*
X15600186Y6692826D01*
X15600186Y6692826D02*
X15550594Y6713877D01*
X15550594Y6713877D02*
X15465680Y6720657D01*
X15465680Y6720657D02*
X15324395Y6663574D01*
X15324395Y6663574D02*
X15268023Y6599711D01*
X15268023Y6599711D02*
X15246973Y6550119D01*
X15246973Y6550119D02*
X15240193Y6465206D01*
X15240193Y6465206D02*
X15311547Y6288599D01*
X15311547Y6288599D02*
X15375409Y6232227D01*
X15375409Y6232227D02*
X15425001Y6211177D01*
X15425001Y6211177D02*
X15509915Y6204397D01*
X15509915Y6204397D02*
X15651200Y6261480D01*
X15651200Y6261480D02*
X15707572Y6325343D01*
X15707572Y6325343D02*
X15728622Y6374935D01*
X15728622Y6374935D02*
X15735402Y6459848D01*
X11619606Y-9538028D02*
X12112135Y-8907619D01*
X12112135Y-8907619D02*
X12262232Y-9024888D01*
X12262232Y-9024888D02*
X12328837Y-9125269D01*
X12328837Y-9125269D02*
X12341968Y-9232215D01*
X12341968Y-9232215D02*
X12325080Y-9315708D01*
X12325080Y-9315708D02*
X12261285Y-9459240D01*
X12261285Y-9459240D02*
X12190923Y-9549298D01*
X12190923Y-9549298D02*
X12067089Y-9645922D01*
X12067089Y-9645922D02*
X11990162Y-9682507D01*
X11990162Y-9682507D02*
X11883215Y-9695638D01*
X11883215Y-9695638D02*
X11769703Y-9655297D01*
X11769703Y-9655297D02*
X11619606Y-9538028D01*
X12580229Y-10288548D02*
X12219995Y-10007103D01*
X12400112Y-10147826D02*
X12892641Y-9517417D01*
X12892641Y-9517417D02*
X12762241Y-9560568D01*
X12762241Y-9560568D02*
X12655294Y-9573699D01*
X12655294Y-9573699D02*
X12571802Y-9556811D01*
X13448932Y-10290444D02*
X13120579Y-10710716D01*
X13486465Y-9933020D02*
X12984561Y-10266043D01*
X12984561Y-10266043D02*
X13374814Y-10570942D01*
X362295Y-16590475D02*
X-437704Y-16590475D01*
X-437704Y-16590475D02*
X-437704Y-16399999D01*
X-437704Y-16399999D02*
X-399609Y-16285713D01*
X-399609Y-16285713D02*
X-323419Y-16209523D01*
X-323419Y-16209523D02*
X-247228Y-16171428D01*
X-247228Y-16171428D02*
X-94847Y-16133332D01*
X-94847Y-16133332D02*
X19438Y-16133332D01*
X19438Y-16133332D02*
X171819Y-16171428D01*
X171819Y-16171428D02*
X248009Y-16209523D01*
X248009Y-16209523D02*
X324200Y-16285713D01*
X324200Y-16285713D02*
X362295Y-16399999D01*
X362295Y-16399999D02*
X362295Y-16590475D01*
X362295Y-15371428D02*
X362295Y-15828571D01*
X362295Y-15599999D02*
X-437704Y-15599999D01*
X-437704Y-15599999D02*
X-323419Y-15676190D01*
X-323419Y-15676190D02*
X-247228Y-15752380D01*
X-247228Y-15752380D02*
X-209133Y-15828571D01*
X1785818Y-15309932D02*
X2578032Y-15198593D01*
X2578032Y-15198593D02*
X2604541Y-15387216D01*
X2604541Y-15387216D02*
X2582722Y-15505691D01*
X2582722Y-15505691D02*
X2517877Y-15591744D01*
X2517877Y-15591744D02*
X2447730Y-15640072D01*
X2447730Y-15640072D02*
X2302134Y-15699004D01*
X2302134Y-15699004D02*
X2188960Y-15714909D01*
X2188960Y-15714909D02*
X2032760Y-15698392D01*
X2032760Y-15698392D02*
X1952010Y-15671271D01*
X1952010Y-15671271D02*
X1865957Y-15606426D01*
X1865957Y-15606426D02*
X1812327Y-15498554D01*
X1812327Y-15498554D02*
X1785818Y-15309932D01*
X2678767Y-15915359D02*
X2747691Y-16405777D01*
X2747691Y-16405777D02*
X2408782Y-16184121D01*
X2408782Y-16184121D02*
X2424688Y-16297294D01*
X2424688Y-16297294D02*
X2397567Y-16378045D01*
X2397567Y-16378045D02*
X2365144Y-16421071D01*
X2365144Y-16421071D02*
X2294997Y-16469399D01*
X2294997Y-16469399D02*
X2106374Y-16495909D01*
X2106374Y-16495909D02*
X2025624Y-16468788D01*
X2025624Y-16468788D02*
X1982597Y-16436365D01*
X1982597Y-16436365D02*
X1934269Y-16366218D01*
X1934269Y-16366218D02*
X1902458Y-16139871D01*
X1902458Y-16139871D02*
X1929579Y-16059120D01*
X1929579Y-16059120D02*
X1962002Y-16016094D01*
X14908329Y-1931210D02*
X14991952Y-1135593D01*
X14991952Y-1135593D02*
X15181385Y-1155503D01*
X15181385Y-1155503D02*
X15291062Y-1205335D01*
X15291062Y-1205335D02*
X15358871Y-1289073D01*
X15358871Y-1289073D02*
X15388794Y-1368828D01*
X15388794Y-1368828D02*
X15410752Y-1524356D01*
X15410752Y-1524356D02*
X15398806Y-1638016D01*
X15398806Y-1638016D02*
X15344991Y-1785580D01*
X15344991Y-1785580D02*
X15299141Y-1857371D01*
X15299141Y-1857371D02*
X15215404Y-1925180D01*
X15215404Y-1925180D02*
X15097762Y-1951120D01*
X15097762Y-1951120D02*
X14908329Y-1931210D01*
X15741719Y-1291006D02*
X15783587Y-1257102D01*
X15783587Y-1257102D02*
X15863342Y-1227179D01*
X15863342Y-1227179D02*
X16052775Y-1247090D01*
X16052775Y-1247090D02*
X16124566Y-1292940D01*
X16124566Y-1292940D02*
X16158471Y-1334809D01*
X16158471Y-1334809D02*
X16188393Y-1414564D01*
X16188393Y-1414564D02*
X16180429Y-1490337D01*
X16180429Y-1490337D02*
X16130597Y-1600015D01*
X16130597Y-1600015D02*
X15628174Y-2006869D01*
X15628174Y-2006869D02*
X16120699Y-2058635D01*
X16499450Y-1370647D02*
X16541319Y-1336743D01*
X16541319Y-1336743D02*
X16621074Y-1306820D01*
X16621074Y-1306820D02*
X16810506Y-1326730D01*
X16810506Y-1326730D02*
X16882298Y-1372581D01*
X16882298Y-1372581D02*
X16916202Y-1414450D01*
X16916202Y-1414450D02*
X16946124Y-1494205D01*
X16946124Y-1494205D02*
X16938160Y-1569978D01*
X16938160Y-1569978D02*
X16888328Y-1679655D01*
X16888328Y-1679655D02*
X16385905Y-2086510D01*
X16385905Y-2086510D02*
X16878430Y-2138276D01*
X362295Y15028571D02*
X-437704Y15028571D01*
X-437704Y15028571D02*
X-437704Y15219047D01*
X-437704Y15219047D02*
X-399609Y15333333D01*
X-399609Y15333333D02*
X-323419Y15409523D01*
X-323419Y15409523D02*
X-247228Y15447618D01*
X-247228Y15447618D02*
X-94847Y15485714D01*
X-94847Y15485714D02*
X19438Y15485714D01*
X19438Y15485714D02*
X171819Y15447618D01*
X171819Y15447618D02*
X248009Y15409523D01*
X248009Y15409523D02*
X324200Y15333333D01*
X324200Y15333333D02*
X362295Y15219047D01*
X362295Y15219047D02*
X362295Y15028571D01*
X-171038Y16171428D02*
X362295Y16171428D01*
X-475800Y15980952D02*
X95628Y15790475D01*
X95628Y15790475D02*
X95628Y16285714D01*
X-437704Y16933333D02*
X-437704Y16780952D01*
X-437704Y16780952D02*
X-399609Y16704761D01*
X-399609Y16704761D02*
X-361514Y16666666D01*
X-361514Y16666666D02*
X-247228Y16590476D01*
X-247228Y16590476D02*
X-94847Y16552380D01*
X-94847Y16552380D02*
X209914Y16552380D01*
X209914Y16552380D02*
X286104Y16590476D01*
X286104Y16590476D02*
X324200Y16628571D01*
X324200Y16628571D02*
X362295Y16704761D01*
X362295Y16704761D02*
X362295Y16857142D01*
X362295Y16857142D02*
X324200Y16933333D01*
X324200Y16933333D02*
X286104Y16971428D01*
X286104Y16971428D02*
X209914Y17009523D01*
X209914Y17009523D02*
X19438Y17009523D01*
X19438Y17009523D02*
X-56752Y16971428D01*
X-56752Y16971428D02*
X-94847Y16933333D01*
X-94847Y16933333D02*
X-132942Y16857142D01*
X-132942Y16857142D02*
X-132942Y16704761D01*
X-132942Y16704761D02*
X-94847Y16628571D01*
X-94847Y16628571D02*
X-56752Y16590476D01*
X-56752Y16590476D02*
X19438Y16552380D01*
X9126637Y11945430D02*
X8479423Y12415658D01*
X8479423Y12415658D02*
X8591382Y12569757D01*
X8591382Y12569757D02*
X8689378Y12639824D01*
X8689378Y12639824D02*
X8795801Y12656680D01*
X8795801Y12656680D02*
X8879832Y12642716D01*
X8879832Y12642716D02*
X9025502Y12583968D01*
X9025502Y12583968D02*
X9117962Y12516793D01*
X9117962Y12516793D02*
X9218849Y12396406D01*
X9218849Y12396406D02*
X9258096Y12320803D01*
X9258096Y12320803D02*
X9274952Y12214380D01*
X9274952Y12214380D02*
X9238596Y12099529D01*
X9238596Y12099529D02*
X9126637Y11945430D01*
X8904868Y13001233D02*
X9195962Y13401889D01*
X9195962Y13401889D02*
X9285776Y13007016D01*
X9285776Y13007016D02*
X9352952Y13099475D01*
X9352952Y13099475D02*
X9428555Y13138723D01*
X9428555Y13138723D02*
X9481767Y13147151D01*
X9481767Y13147151D02*
X9565798Y13133187D01*
X9565798Y13133187D02*
X9719896Y13021228D01*
X9719896Y13021228D02*
X9759144Y12945624D01*
X9759144Y12945624D02*
X9767572Y12892413D01*
X9767572Y12892413D02*
X9753608Y12808382D01*
X9753608Y12808382D02*
X9619257Y12623464D01*
X9619257Y12623464D02*
X9543654Y12584216D01*
X9543654Y12584216D02*
X9490442Y12575788D01*
X9352704Y13617627D02*
X9666190Y14049103D01*
X9666190Y14049103D02*
X10111877Y13301497D01*
X-15871330Y6021722D02*
X-15571645Y6763469D01*
X-15571645Y6763469D02*
X-15395038Y6692115D01*
X-15395038Y6692115D02*
X-15303345Y6613982D01*
X-15303345Y6613982D02*
X-15261244Y6514798D01*
X-15261244Y6514798D02*
X-15254464Y6429884D01*
X-15254464Y6429884D02*
X-15276226Y6274329D01*
X-15276226Y6274329D02*
X-15319038Y6168365D01*
X-15319038Y6168365D02*
X-15411442Y6041350D01*
X-15411442Y6041350D02*
X-15475305Y5984978D01*
X-15475305Y5984978D02*
X-15574489Y5942877D01*
X-15574489Y5942877D02*
X-15694723Y5950368D01*
X-15694723Y5950368D02*
X-15871330Y6021722D01*
X-14512006Y6335347D02*
X-14653291Y6392430D01*
X-14653291Y6392430D02*
X-14738204Y6385650D01*
X-14738204Y6385650D02*
X-14787796Y6364600D01*
X-14787796Y6364600D02*
X-14901251Y6287177D01*
X-14901251Y6287177D02*
X-14993655Y6160163D01*
X-14993655Y6160163D02*
X-15107821Y5877592D01*
X-15107821Y5877592D02*
X-15101041Y5792679D01*
X-15101041Y5792679D02*
X-15079991Y5743087D01*
X-15079991Y5743087D02*
X-15023619Y5679224D01*
X-15023619Y5679224D02*
X-14882334Y5622141D01*
X-14882334Y5622141D02*
X-14797420Y5628921D01*
X-14797420Y5628921D02*
X-14747828Y5649972D01*
X-14747828Y5649972D02*
X-14683966Y5706344D01*
X-14683966Y5706344D02*
X-14612612Y5882950D01*
X-14612612Y5882950D02*
X-14619392Y5967863D01*
X-14619392Y5967863D02*
X-14640442Y6017455D01*
X-14640442Y6017455D02*
X-14696814Y6081318D01*
X-14696814Y6081318D02*
X-14838099Y6138401D01*
X-14838099Y6138401D02*
X-14923013Y6131621D01*
X-14923013Y6131621D02*
X-14972605Y6110571D01*
X-14972605Y6110571D02*
X-15036467Y6054199D01*
X-14194114Y6206910D02*
X-13734937Y6021391D01*
X-13734937Y6021391D02*
X-14096352Y5838716D01*
X-14096352Y5838716D02*
X-13990388Y5795904D01*
X-13990388Y5795904D02*
X-13934016Y5732041D01*
X-13934016Y5732041D02*
X-13912966Y5682449D01*
X-13912966Y5682449D02*
X-13906186Y5597536D01*
X-13906186Y5597536D02*
X-13977540Y5420929D01*
X-13977540Y5420929D02*
X-14041402Y5364557D01*
X-14041402Y5364557D02*
X-14090994Y5343507D01*
X-14090994Y5343507D02*
X-14175908Y5336727D01*
X-14175908Y5336727D02*
X-14387835Y5422351D01*
X-14387835Y5422351D02*
X-14444207Y5486214D01*
X-14444207Y5486214D02*
X-14465258Y5535806D01*
X-13150599Y-10734170D02*
X-13643128Y-10103762D01*
X-13643128Y-10103762D02*
X-13493031Y-9986493D01*
X-13493031Y-9986493D02*
X-13379518Y-9946151D01*
X-13379518Y-9946151D02*
X-13272572Y-9959282D01*
X-13272572Y-9959282D02*
X-13195645Y-9995868D01*
X-13195645Y-9995868D02*
X-13071810Y-10092492D01*
X-13071810Y-10092492D02*
X-13001449Y-10182550D01*
X-13001449Y-10182550D02*
X-12937653Y-10326082D01*
X-12937653Y-10326082D02*
X-12920765Y-10409574D01*
X-12920765Y-10409574D02*
X-12933897Y-10516521D01*
X-12933897Y-10516521D02*
X-13000501Y-10616901D01*
X-13000501Y-10616901D02*
X-13150599Y-10734170D01*
X-13072758Y-9658140D02*
X-12652486Y-9329787D01*
X-12652486Y-9329787D02*
X-12430132Y-10171280D01*
X-12111188Y-9341971D02*
X-12194680Y-9358859D01*
X-12194680Y-9358859D02*
X-12248153Y-9352293D01*
X-12248153Y-9352293D02*
X-12325080Y-9315708D01*
X-12325080Y-9315708D02*
X-12348534Y-9285689D01*
X-12348534Y-9285689D02*
X-12365422Y-9202196D01*
X-12365422Y-9202196D02*
X-12358857Y-9148723D01*
X-12358857Y-9148723D02*
X-12322271Y-9071796D01*
X-12322271Y-9071796D02*
X-12202194Y-8977981D01*
X-12202194Y-8977981D02*
X-12118701Y-8961093D01*
X-12118701Y-8961093D02*
X-12065228Y-8967658D01*
X-12065228Y-8967658D02*
X-11988301Y-9004243D01*
X-11988301Y-9004243D02*
X-11964847Y-9034263D01*
X-11964847Y-9034263D02*
X-11947959Y-9117755D01*
X-11947959Y-9117755D02*
X-11954525Y-9171229D01*
X-11954525Y-9171229D02*
X-11991110Y-9248156D01*
X-11991110Y-9248156D02*
X-12111188Y-9341971D01*
X-12111188Y-9341971D02*
X-12147773Y-9418898D01*
X-12147773Y-9418898D02*
X-12154338Y-9472371D01*
X-12154338Y-9472371D02*
X-12137450Y-9555864D01*
X-12137450Y-9555864D02*
X-12043635Y-9675942D01*
X-12043635Y-9675942D02*
X-11966708Y-9712527D01*
X-11966708Y-9712527D02*
X-11913235Y-9719092D01*
X-11913235Y-9719092D02*
X-11829742Y-9702204D01*
X-11829742Y-9702204D02*
X-11709664Y-9608389D01*
X-11709664Y-9608389D02*
X-11673079Y-9531462D01*
X-11673079Y-9531462D02*
X-11666514Y-9477989D01*
X-11666514Y-9477989D02*
X-11683402Y-9394496D01*
X-11683402Y-9394496D02*
X-11777217Y-9274418D01*
X-11777217Y-9274418D02*
X-11854144Y-9237833D01*
X-11854144Y-9237833D02*
X-11907617Y-9231268D01*
X-11907617Y-9231268D02*
X-11991110Y-9248156D01*
X-5464103Y-16071819D02*
X-6215857Y-15798203D01*
X-6215857Y-15798203D02*
X-6150710Y-15619214D01*
X-6150710Y-15619214D02*
X-6075824Y-15524850D01*
X-6075824Y-15524850D02*
X-5978170Y-15479313D01*
X-5978170Y-15479313D02*
X-5893545Y-15469574D01*
X-5893545Y-15469574D02*
X-5737324Y-15485893D01*
X-5737324Y-15485893D02*
X-5629931Y-15524981D01*
X-5629931Y-15524981D02*
X-5499769Y-15612897D01*
X-5499769Y-15612897D02*
X-5441203Y-15674753D01*
X-5441203Y-15674753D02*
X-5395666Y-15772407D01*
X-5395666Y-15772407D02*
X-5398956Y-15892830D01*
X-5398956Y-15892830D02*
X-5464103Y-16071819D01*
X-5580972Y-15056320D02*
X-5642829Y-15114886D01*
X-5642829Y-15114886D02*
X-5691656Y-15137654D01*
X-5691656Y-15137654D02*
X-5776281Y-15147394D01*
X-5776281Y-15147394D02*
X-5812079Y-15134364D01*
X-5812079Y-15134364D02*
X-5870645Y-15072508D01*
X-5870645Y-15072508D02*
X-5893413Y-15023681D01*
X-5893413Y-15023681D02*
X-5903153Y-14939056D01*
X-5903153Y-14939056D02*
X-5851035Y-14795864D01*
X-5851035Y-14795864D02*
X-5789179Y-14737298D01*
X-5789179Y-14737298D02*
X-5740352Y-14714530D01*
X-5740352Y-14714530D02*
X-5655727Y-14704790D01*
X-5655727Y-14704790D02*
X-5619929Y-14717820D01*
X-5619929Y-14717820D02*
X-5561362Y-14779676D01*
X-5561362Y-14779676D02*
X-5538594Y-14828503D01*
X-5538594Y-14828503D02*
X-5528855Y-14913128D01*
X-5528855Y-14913128D02*
X-5580972Y-15056320D01*
X-5580972Y-15056320D02*
X-5571233Y-15140945D01*
X-5571233Y-15140945D02*
X-5548465Y-15189772D01*
X-5548465Y-15189772D02*
X-5489898Y-15251628D01*
X-5489898Y-15251628D02*
X-5346707Y-15303746D01*
X-5346707Y-15303746D02*
X-5262082Y-15294006D01*
X-5262082Y-15294006D02*
X-5213255Y-15271238D01*
X-5213255Y-15271238D02*
X-5151398Y-15212672D01*
X-5151398Y-15212672D02*
X-5099281Y-15069480D01*
X-5099281Y-15069480D02*
X-5109020Y-14984855D01*
X-5109020Y-14984855D02*
X-5131789Y-14936028D01*
X-5131789Y-14936028D02*
X-5190355Y-14874172D01*
X-5190355Y-14874172D02*
X-5333546Y-14822054D01*
X-5333546Y-14822054D02*
X-5418171Y-14831794D01*
X-5418171Y-14831794D02*
X-5466998Y-14854562D01*
X-5466998Y-14854562D02*
X-5528855Y-14913128D01*
X-5564390Y-14008312D02*
X-5616507Y-14151503D01*
X-5616507Y-14151503D02*
X-5606768Y-14236128D01*
X-5606768Y-14236128D02*
X-5583999Y-14284956D01*
X-5583999Y-14284956D02*
X-5502665Y-14395639D01*
X-5502665Y-14395639D02*
X-5372503Y-14483554D01*
X-5372503Y-14483554D02*
X-5086120Y-14587789D01*
X-5086120Y-14587789D02*
X-5001495Y-14578050D01*
X-5001495Y-14578050D02*
X-4952668Y-14555281D01*
X-4952668Y-14555281D02*
X-4890812Y-14496715D01*
X-4890812Y-14496715D02*
X-4838694Y-14353524D01*
X-4838694Y-14353524D02*
X-4848433Y-14268899D01*
X-4848433Y-14268899D02*
X-4871202Y-14220072D01*
X-4871202Y-14220072D02*
X-4929768Y-14158215D01*
X-4929768Y-14158215D02*
X-5108757Y-14093069D01*
X-5108757Y-14093069D02*
X-5193382Y-14102808D01*
X-5193382Y-14102808D02*
X-5242209Y-14125576D01*
X-5242209Y-14125576D02*
X-5304066Y-14184143D01*
X-5304066Y-14184143D02*
X-5356183Y-14327334D01*
X-5356183Y-14327334D02*
X-5346444Y-14411959D01*
X-5346444Y-14411959D02*
X-5323676Y-14460786D01*
X-5323676Y-14460786D02*
X-5265109Y-14522642D01*
X-7647728Y-15154946D02*
X-8354086Y-14779368D01*
X-8354086Y-14779368D02*
X-8264663Y-14611188D01*
X-8264663Y-14611188D02*
X-8177373Y-14528164D01*
X-8177373Y-14528164D02*
X-8074331Y-14496661D01*
X-8074331Y-14496661D02*
X-7989175Y-14498794D01*
X-7989175Y-14498794D02*
X-7836746Y-14536697D01*
X-7836746Y-14536697D02*
X-7735837Y-14590351D01*
X-7735837Y-14590351D02*
X-7619178Y-14695525D01*
X-7619178Y-14695525D02*
X-7569790Y-14764931D01*
X-7569790Y-14764931D02*
X-7538287Y-14867972D01*
X-7538287Y-14867972D02*
X-7558305Y-14986765D01*
X-7558305Y-14986765D02*
X-7647728Y-15154946D01*
X-7622130Y-14133064D02*
X-7691535Y-14182451D01*
X-7691535Y-14182451D02*
X-7743056Y-14198203D01*
X-7743056Y-14198203D02*
X-7828213Y-14196069D01*
X-7828213Y-14196069D02*
X-7861849Y-14178185D01*
X-7861849Y-14178185D02*
X-7911237Y-14108779D01*
X-7911237Y-14108779D02*
X-7926988Y-14057259D01*
X-7926988Y-14057259D02*
X-7924855Y-13972102D01*
X-7924855Y-13972102D02*
X-7853316Y-13837558D01*
X-7853316Y-13837558D02*
X-7783911Y-13788170D01*
X-7783911Y-13788170D02*
X-7732390Y-13772418D01*
X-7732390Y-13772418D02*
X-7647233Y-13774552D01*
X-7647233Y-13774552D02*
X-7613597Y-13792436D01*
X-7613597Y-13792436D02*
X-7564210Y-13861842D01*
X-7564210Y-13861842D02*
X-7548458Y-13913362D01*
X-7548458Y-13913362D02*
X-7550592Y-13998519D01*
X-7550592Y-13998519D02*
X-7622130Y-14133064D01*
X-7622130Y-14133064D02*
X-7624263Y-14218220D01*
X-7624263Y-14218220D02*
X-7608512Y-14269741D01*
X-7608512Y-14269741D02*
X-7559124Y-14339147D01*
X-7559124Y-14339147D02*
X-7424580Y-14410685D01*
X-7424580Y-14410685D02*
X-7339423Y-14412818D01*
X-7339423Y-14412818D02*
X-7287902Y-14397067D01*
X-7287902Y-14397067D02*
X-7218497Y-14347679D01*
X-7218497Y-14347679D02*
X-7146958Y-14213135D01*
X-7146958Y-14213135D02*
X-7144825Y-14127978D01*
X-7144825Y-14127978D02*
X-7160577Y-14076457D01*
X-7160577Y-14076457D02*
X-7209964Y-14007052D01*
X-7209964Y-14007052D02*
X-7344509Y-13935513D01*
X-7344509Y-13935513D02*
X-7429665Y-13933380D01*
X-7429665Y-13933380D02*
X-7481186Y-13949132D01*
X-7481186Y-13949132D02*
X-7550592Y-13998519D01*
X-7224402Y-13222756D02*
X-6753496Y-13473140D01*
X-7582914Y-13247859D02*
X-7167795Y-13684309D01*
X-7167795Y-13684309D02*
X-6935295Y-13247040D01*
X-8287503Y14814771D02*
X-7581145Y15190348D01*
X-7581145Y15190348D02*
X-7491722Y15022168D01*
X-7491722Y15022168D02*
X-7471704Y14903375D01*
X-7471704Y14903375D02*
X-7503207Y14800333D01*
X-7503207Y14800333D02*
X-7552595Y14730928D01*
X-7552595Y14730928D02*
X-7669255Y14625753D01*
X-7669255Y14625753D02*
X-7770163Y14572099D01*
X-7770163Y14572099D02*
X-7922592Y14534197D01*
X-7922592Y14534197D02*
X-8007749Y14532064D01*
X-8007749Y14532064D02*
X-8110790Y14563567D01*
X-8110790Y14563567D02*
X-8198080Y14646590D01*
X-8198080Y14646590D02*
X-8287503Y14814771D01*
X-7026722Y14147629D02*
X-7205568Y14483990D01*
X-7205568Y14483990D02*
X-7559814Y14338780D01*
X-7559814Y14338780D02*
X-7508293Y14323028D01*
X-7508293Y14323028D02*
X-7438888Y14273641D01*
X-7438888Y14273641D02*
X-7349464Y14105460D01*
X-7349464Y14105460D02*
X-7347331Y14020304D01*
X-7347331Y14020304D02*
X-7363083Y13968783D01*
X-7363083Y13968783D02*
X-7412470Y13899377D01*
X-7412470Y13899377D02*
X-7580651Y13809954D01*
X-7580651Y13809954D02*
X-7665808Y13807821D01*
X-7665808Y13807821D02*
X-7717328Y13823573D01*
X-7717328Y13823573D02*
X-7786734Y13872960D01*
X-7786734Y13872960D02*
X-7876157Y14041141D01*
X-7876157Y14041141D02*
X-7878290Y14126297D01*
X-7878290Y14126297D02*
X-7862539Y14177818D01*
X-6883645Y13878540D02*
X-6651144Y13441271D01*
X-6651144Y13441271D02*
X-7045426Y13533646D01*
X-7045426Y13533646D02*
X-6991772Y13432738D01*
X-6991772Y13432738D02*
X-6989639Y13347581D01*
X-6989639Y13347581D02*
X-7005390Y13296061D01*
X-7005390Y13296061D02*
X-7054778Y13226655D01*
X-7054778Y13226655D02*
X-7222958Y13137232D01*
X-7222958Y13137232D02*
X-7308115Y13135099D01*
X-7308115Y13135099D02*
X-7359636Y13150850D01*
X-7359636Y13150850D02*
X-7429041Y13200238D01*
X-7429041Y13200238D02*
X-7536349Y13402055D01*
X-7536349Y13402055D02*
X-7538482Y13487211D01*
X-7538482Y13487211D02*
X-7522730Y13538732D01*
X5480498Y13998306D02*
X4728744Y14271922D01*
X4728744Y14271922D02*
X4793891Y14450911D01*
X4793891Y14450911D02*
X4868777Y14545275D01*
X4868777Y14545275D02*
X4966431Y14590812D01*
X4966431Y14590812D02*
X5051056Y14600551D01*
X5051056Y14600551D02*
X5207277Y14584232D01*
X5207277Y14584232D02*
X5314670Y14545144D01*
X5314670Y14545144D02*
X5444832Y14457228D01*
X5444832Y14457228D02*
X5503398Y14395372D01*
X5503398Y14395372D02*
X5548935Y14297718D01*
X5548935Y14297718D02*
X5545645Y14177295D01*
X5545645Y14177295D02*
X5480498Y13998306D01*
X5370209Y15254651D02*
X5871379Y15072240D01*
X5018680Y15179897D02*
X5490501Y14805467D01*
X5490501Y14805467D02*
X5659882Y15270839D01*
X6158024Y15859792D02*
X6001672Y15430219D01*
X6079848Y15645005D02*
X5328094Y15918622D01*
X5328094Y15918622D02*
X5409429Y15807938D01*
X5409429Y15807938D02*
X5454966Y15710284D01*
X5454966Y15710284D02*
X5464705Y15625659D01*
X-1962295Y509523D02*
X-2609914Y509523D01*
X-2609914Y509523D02*
X-2686104Y471428D01*
X-2686104Y471428D02*
X-2724200Y433333D01*
X-2724200Y433333D02*
X-2762295Y357142D01*
X-2762295Y357142D02*
X-2762295Y204761D01*
X-2762295Y204761D02*
X-2724200Y128571D01*
X-2724200Y128571D02*
X-2686104Y90476D01*
X-2686104Y90476D02*
X-2609914Y52380D01*
X-2609914Y52380D02*
X-1962295Y52380D01*
X-2762295Y-747618D02*
X-2762295Y-290475D01*
X-2762295Y-519047D02*
X-1962295Y-519047D01*
X-1962295Y-519047D02*
X-2076580Y-442856D01*
X-2076580Y-442856D02*
X-2152771Y-366666D01*
X-2152771Y-366666D02*
X-2190866Y-290475D01*
X14669852Y3284165D02*
X14476315Y4060402D01*
X14476315Y4060402D02*
X14661133Y4106482D01*
X14661133Y4106482D02*
X14781240Y4097167D01*
X14781240Y4097167D02*
X14873600Y4041671D01*
X14873600Y4041671D02*
X14928995Y3976960D01*
X14928995Y3976960D02*
X15002823Y3838322D01*
X15002823Y3838322D02*
X15030472Y3727431D01*
X15030472Y3727431D02*
X15030372Y3570360D01*
X15030372Y3570360D02*
X15011841Y3487217D01*
X15011841Y3487217D02*
X14956346Y3394857D01*
X14956346Y3394857D02*
X14854671Y3330245D01*
X14854671Y3330245D02*
X14669852Y3284165D01*
X15234020Y4170796D02*
X15261768Y4216976D01*
X15261768Y4216976D02*
X15326479Y4272371D01*
X15326479Y4272371D02*
X15511297Y4318452D01*
X15511297Y4318452D02*
X15594440Y4299920D01*
X15594440Y4299920D02*
X15640620Y4272173D01*
X15640620Y4272173D02*
X15696016Y4207461D01*
X15696016Y4207461D02*
X15714448Y4133534D01*
X15714448Y4133534D02*
X15705133Y4013427D01*
X15705133Y4013427D02*
X15372162Y3459270D01*
X15372162Y3459270D02*
X15852689Y3579079D01*
X15917897Y4419829D02*
X16435388Y4548854D01*
X16435388Y4548854D02*
X16296253Y3689672D01*
X14181043Y-4988660D02*
X14428257Y-4227815D01*
X14428257Y-4227815D02*
X14609411Y-4286675D01*
X14609411Y-4286675D02*
X14706331Y-4358222D01*
X14706331Y-4358222D02*
X14755248Y-4454227D01*
X14755248Y-4454227D02*
X14767935Y-4538461D01*
X14767935Y-4538461D02*
X14757077Y-4695156D01*
X14757077Y-4695156D02*
X14721761Y-4803848D01*
X14721761Y-4803848D02*
X14638442Y-4936999D01*
X14638442Y-4936999D02*
X14578667Y-4997688D01*
X14578667Y-4997688D02*
X14482661Y-5046606D01*
X14482661Y-5046606D02*
X14362197Y-5047520D01*
X14362197Y-5047520D02*
X14181043Y-4988660D01*
X15340427Y-5365366D02*
X14905658Y-5224101D01*
X15123042Y-5294734D02*
X15370256Y-4533888D01*
X15370256Y-4533888D02*
X15262478Y-4619037D01*
X15262478Y-4619037D02*
X15166473Y-4667954D01*
X15166473Y-4667954D02*
X15082239Y-4680640D01*
X15702734Y-5483087D02*
X15847657Y-5530175D01*
X15847657Y-5530175D02*
X15931890Y-5517489D01*
X15931890Y-5517489D02*
X15979893Y-5493030D01*
X15979893Y-5493030D02*
X16087671Y-5407882D01*
X16087671Y-5407882D02*
X16170990Y-5274731D01*
X16170990Y-5274731D02*
X16265167Y-4984885D01*
X16265167Y-4984885D02*
X16252480Y-4900652D01*
X16252480Y-4900652D02*
X16228021Y-4852649D01*
X16228021Y-4852649D02*
X16167332Y-4792874D01*
X16167332Y-4792874D02*
X16022409Y-4745786D01*
X16022409Y-4745786D02*
X15938176Y-4758473D01*
X15938176Y-4758473D02*
X15890173Y-4782931D01*
X15890173Y-4782931D02*
X15830398Y-4843621D01*
X15830398Y-4843621D02*
X15771538Y-5024774D01*
X15771538Y-5024774D02*
X15784224Y-5109008D01*
X15784224Y-5109008D02*
X15808683Y-5157010D01*
X15808683Y-5157010D02*
X15869372Y-5216785D01*
X15869372Y-5216785D02*
X16014295Y-5263874D01*
X16014295Y-5263874D02*
X16098529Y-5251187D01*
X16098529Y-5251187D02*
X16146531Y-5226728D01*
X16146531Y-5226728D02*
X16206306Y-5166039D01*
X8271160Y12552934D02*
X7592722Y12976869D01*
X7592722Y12976869D02*
X7693659Y13138402D01*
X7693659Y13138402D02*
X7786528Y13215135D01*
X7786528Y13215135D02*
X7891516Y13239373D01*
X7891516Y13239373D02*
X7976316Y13231305D01*
X7976316Y13231305D02*
X8125730Y13182862D01*
X8125730Y13182862D02*
X8222650Y13122300D01*
X8222650Y13122300D02*
X8331689Y13009243D01*
X8331689Y13009243D02*
X8376115Y12936562D01*
X8376115Y12936562D02*
X8400353Y12831574D01*
X8400353Y12831574D02*
X8372097Y12714467D01*
X8372097Y12714467D02*
X8271160Y12552934D01*
X7976283Y13590695D02*
X8238719Y14010680D01*
X8238719Y14010680D02*
X8355860Y13623035D01*
X8355860Y13623035D02*
X8416422Y13719955D01*
X8416422Y13719955D02*
X8489103Y13764381D01*
X8489103Y13764381D02*
X8541597Y13776500D01*
X8541597Y13776500D02*
X8626398Y13768432D01*
X8626398Y13768432D02*
X8787931Y13667495D01*
X8787931Y13667495D02*
X8832357Y13594813D01*
X8832357Y13594813D02*
X8844476Y13542319D01*
X8844476Y13542319D02*
X8836408Y13457519D01*
X8836408Y13457519D02*
X8715283Y13263679D01*
X8715283Y13263679D02*
X8642602Y13219253D01*
X8642602Y13219253D02*
X8590108Y13207134D01*
X8771727Y14216673D02*
X8699046Y14172247D01*
X8699046Y14172247D02*
X8646552Y14160128D01*
X8646552Y14160128D02*
X8561751Y14168196D01*
X8561751Y14168196D02*
X8529444Y14188384D01*
X8529444Y14188384D02*
X8485019Y14261065D01*
X8485019Y14261065D02*
X8472900Y14313559D01*
X8472900Y14313559D02*
X8480968Y14398360D01*
X8480968Y14398360D02*
X8561717Y14527586D01*
X8561717Y14527586D02*
X8634399Y14572012D01*
X8634399Y14572012D02*
X8686893Y14584131D01*
X8686893Y14584131D02*
X8771693Y14576063D01*
X8771693Y14576063D02*
X8804000Y14555875D01*
X8804000Y14555875D02*
X8848426Y14483194D01*
X8848426Y14483194D02*
X8860545Y14430700D01*
X8860545Y14430700D02*
X8852477Y14345899D01*
X8852477Y14345899D02*
X8771727Y14216673D01*
X8771727Y14216673D02*
X8763659Y14131872D01*
X8763659Y14131872D02*
X8775778Y14079378D01*
X8775778Y14079378D02*
X8820204Y14006697D01*
X8820204Y14006697D02*
X8949430Y13925947D01*
X8949430Y13925947D02*
X9034231Y13917879D01*
X9034231Y13917879D02*
X9086725Y13929998D01*
X9086725Y13929998D02*
X9159406Y13974424D01*
X9159406Y13974424D02*
X9240156Y14103651D01*
X9240156Y14103651D02*
X9248224Y14188451D01*
X9248224Y14188451D02*
X9236105Y14240945D01*
X9236105Y14240945D02*
X9191679Y14313627D01*
X9191679Y14313627D02*
X9062453Y14394376D01*
X9062453Y14394376D02*
X8977652Y14402444D01*
X8977652Y14402444D02*
X8925158Y14390325D01*
X8925158Y14390325D02*
X8852477Y14345899D01*
X7858547Y-13259975D02*
X8536986Y-12836039D01*
X8536986Y-12836039D02*
X8637923Y-12997572D01*
X8637923Y-12997572D02*
X8666178Y-13114680D01*
X8666178Y-13114680D02*
X8641940Y-13219668D01*
X8641940Y-13219668D02*
X8597514Y-13292349D01*
X8597514Y-13292349D02*
X8488475Y-13405405D01*
X8488475Y-13405405D02*
X8391555Y-13465967D01*
X8391555Y-13465967D02*
X8242142Y-13514410D01*
X8242142Y-13514410D02*
X8157341Y-13522479D01*
X8157341Y-13522479D02*
X8052353Y-13498240D01*
X8052353Y-13498240D02*
X7959484Y-13421508D01*
X7959484Y-13421508D02*
X7858547Y-13259975D01*
X8302670Y-13970720D02*
X8383420Y-14099946D01*
X8383420Y-14099946D02*
X8456101Y-14144372D01*
X8456101Y-14144372D02*
X8508595Y-14156491D01*
X8508595Y-14156491D02*
X8645890Y-14160542D01*
X8645890Y-14160542D02*
X8795303Y-14112099D01*
X8795303Y-14112099D02*
X9053756Y-13950600D01*
X9053756Y-13950600D02*
X9098182Y-13877919D01*
X9098182Y-13877919D02*
X9110301Y-13825425D01*
X9110301Y-13825425D02*
X9102233Y-13740624D01*
X9102233Y-13740624D02*
X9021483Y-13611398D01*
X9021483Y-13611398D02*
X8948802Y-13566972D01*
X8948802Y-13566972D02*
X8896308Y-13554853D01*
X8896308Y-13554853D02*
X8811507Y-13562921D01*
X8811507Y-13562921D02*
X8649974Y-13663858D01*
X8649974Y-13663858D02*
X8605549Y-13736539D01*
X8605549Y-13736539D02*
X8593429Y-13789033D01*
X8593429Y-13789033D02*
X8601498Y-13873834D01*
X8601498Y-13873834D02*
X8682247Y-14003060D01*
X8682247Y-14003060D02*
X8754929Y-14047486D01*
X8754929Y-14047486D02*
X8807423Y-14059605D01*
X8807423Y-14059605D02*
X8892223Y-14051537D01*
X-9682414Y-13943139D02*
X-10329628Y-13472911D01*
X-10329628Y-13472911D02*
X-10217669Y-13318812D01*
X-10217669Y-13318812D02*
X-10119673Y-13248745D01*
X-10119673Y-13248745D02*
X-10013250Y-13231889D01*
X-10013250Y-13231889D02*
X-9929219Y-13245853D01*
X-9929219Y-13245853D02*
X-9783549Y-13304601D01*
X-9783549Y-13304601D02*
X-9691089Y-13371776D01*
X-9691089Y-13371776D02*
X-9590202Y-13492163D01*
X-9590202Y-13492163D02*
X-9550955Y-13567766D01*
X-9550955Y-13567766D02*
X-9534099Y-13674189D01*
X-9534099Y-13674189D02*
X-9570455Y-13789040D01*
X-9570455Y-13789040D02*
X-9682414Y-13943139D01*
X-9514847Y-12934764D02*
X-9590450Y-12974012D01*
X-9590450Y-12974012D02*
X-9643662Y-12982440D01*
X-9643662Y-12982440D02*
X-9727693Y-12968476D01*
X-9727693Y-12968476D02*
X-9758512Y-12946084D01*
X-9758512Y-12946084D02*
X-9797760Y-12870481D01*
X-9797760Y-12870481D02*
X-9806188Y-12817269D01*
X-9806188Y-12817269D02*
X-9792224Y-12733238D01*
X-9792224Y-12733238D02*
X-9702657Y-12609959D01*
X-9702657Y-12609959D02*
X-9627053Y-12570711D01*
X-9627053Y-12570711D02*
X-9573842Y-12562284D01*
X-9573842Y-12562284D02*
X-9489811Y-12576248D01*
X-9489811Y-12576248D02*
X-9458991Y-12598639D01*
X-9458991Y-12598639D02*
X-9419743Y-12674243D01*
X-9419743Y-12674243D02*
X-9411315Y-12727454D01*
X-9411315Y-12727454D02*
X-9425279Y-12811485D01*
X-9425279Y-12811485D02*
X-9514847Y-12934764D01*
X-9514847Y-12934764D02*
X-9528811Y-13018795D01*
X-9528811Y-13018795D02*
X-9520383Y-13072007D01*
X-9520383Y-13072007D02*
X-9481135Y-13147610D01*
X-9481135Y-13147610D02*
X-9357856Y-13237178D01*
X-9357856Y-13237178D02*
X-9273825Y-13251141D01*
X-9273825Y-13251141D02*
X-9220614Y-13242714D01*
X-9220614Y-13242714D02*
X-9145010Y-13203466D01*
X-9145010Y-13203466D02*
X-9055443Y-13080187D01*
X-9055443Y-13080187D02*
X-9041479Y-12996156D01*
X-9041479Y-12996156D02*
X-9049907Y-12942945D01*
X-9049907Y-12942945D02*
X-9089155Y-12867341D01*
X-9089155Y-12867341D02*
X-9212433Y-12777774D01*
X-9212433Y-12777774D02*
X-9296465Y-12763810D01*
X-9296465Y-12763810D02*
X-9349676Y-12772238D01*
X-9349676Y-12772238D02*
X-9425279Y-12811485D01*
X-9372315Y-12284906D02*
X-9380743Y-12231695D01*
X-9380743Y-12231695D02*
X-9366779Y-12147663D01*
X-9366779Y-12147663D02*
X-9254820Y-11993565D01*
X-9254820Y-11993565D02*
X-9179217Y-11954317D01*
X-9179217Y-11954317D02*
X-9126005Y-11945890D01*
X-9126005Y-11945890D02*
X-9041974Y-11959853D01*
X-9041974Y-11959853D02*
X-8980335Y-12004637D01*
X-8980335Y-12004637D02*
X-8910267Y-12102632D01*
X-8910267Y-12102632D02*
X-8809133Y-12741170D01*
X-8809133Y-12741170D02*
X-8518039Y-12340514D01*
X-387704Y-5712969D02*
X-768657Y-5979636D01*
X-387704Y-6170112D02*
X-1187704Y-6170112D01*
X-1187704Y-6170112D02*
X-1187704Y-5865350D01*
X-1187704Y-5865350D02*
X-1149609Y-5789160D01*
X-1149609Y-5789160D02*
X-1111514Y-5751065D01*
X-1111514Y-5751065D02*
X-1035323Y-5712969D01*
X-1035323Y-5712969D02*
X-921038Y-5712969D01*
X-921038Y-5712969D02*
X-844847Y-5751065D01*
X-844847Y-5751065D02*
X-806752Y-5789160D01*
X-806752Y-5789160D02*
X-768657Y-5865350D01*
X-768657Y-5865350D02*
X-768657Y-6170112D01*
X-387704Y-4951065D02*
X-387704Y-5408208D01*
X-387704Y-5179636D02*
X-1187704Y-5179636D01*
X-1187704Y-5179636D02*
X-1073419Y-5255827D01*
X-1073419Y-5255827D02*
X-997228Y-5332017D01*
X-997228Y-5332017D02*
X-959133Y-5408208D01*
X7375387Y13099329D02*
X6669029Y13474907D01*
X6669029Y13474907D02*
X6758452Y13643087D01*
X6758452Y13643087D02*
X6845742Y13726111D01*
X6845742Y13726111D02*
X6948784Y13757614D01*
X6948784Y13757614D02*
X7033940Y13755481D01*
X7033940Y13755481D02*
X7186369Y13717578D01*
X7186369Y13717578D02*
X7287278Y13663924D01*
X7287278Y13663924D02*
X7403937Y13558750D01*
X7403937Y13558750D02*
X7453325Y13489344D01*
X7453325Y13489344D02*
X7484828Y13386303D01*
X7484828Y13386303D02*
X7464810Y13267510D01*
X7464810Y13267510D02*
X7375387Y13099329D01*
X7008837Y14113993D02*
X7241337Y14551262D01*
X7241337Y14551262D02*
X7385233Y14172732D01*
X7385233Y14172732D02*
X7438887Y14273640D01*
X7438887Y14273640D02*
X7508293Y14323028D01*
X7508293Y14323028D02*
X7559813Y14338779D01*
X7559813Y14338779D02*
X7644970Y14336646D01*
X7644970Y14336646D02*
X7813151Y14247223D01*
X7813151Y14247223D02*
X7862538Y14177818D01*
X7862538Y14177818D02*
X7878290Y14126297D01*
X7878290Y14126297D02*
X7876157Y14041140D01*
X7876157Y14041140D02*
X7768849Y13839324D01*
X7768849Y13839324D02*
X7699444Y13789936D01*
X7699444Y13789936D02*
X7647923Y13774185D01*
X8126542Y14512046D02*
X8198080Y14646590D01*
X8198080Y14646590D02*
X8200213Y14731747D01*
X8200213Y14731747D02*
X8184462Y14783268D01*
X8184462Y14783268D02*
X8119323Y14904194D01*
X8119323Y14904194D02*
X8002663Y15009368D01*
X8002663Y15009368D02*
X7733574Y15152446D01*
X7733574Y15152446D02*
X7648417Y15154579D01*
X7648417Y15154579D02*
X7596897Y15138827D01*
X7596897Y15138827D02*
X7527491Y15089440D01*
X7527491Y15089440D02*
X7455953Y14954895D01*
X7455953Y14954895D02*
X7453820Y14869738D01*
X7453820Y14869738D02*
X7469571Y14818218D01*
X7469571Y14818218D02*
X7518959Y14748812D01*
X7518959Y14748812D02*
X7687139Y14659389D01*
X7687139Y14659389D02*
X7772296Y14657256D01*
X7772296Y14657256D02*
X7823817Y14673007D01*
X7823817Y14673007D02*
X7893222Y14722395D01*
X7893222Y14722395D02*
X7964761Y14856939D01*
X7964761Y14856939D02*
X7966894Y14942096D01*
X7966894Y14942096D02*
X7951142Y14993617D01*
X7951142Y14993617D02*
X7901755Y15063022D01*
X-11186594Y12768000D02*
X-10573759Y13282230D01*
X-10573759Y13282230D02*
X-10451323Y13136317D01*
X-10451323Y13136317D02*
X-10407044Y13024282D01*
X-10407044Y13024282D02*
X-10416435Y12916942D01*
X-10416435Y12916942D02*
X-10450313Y12838786D01*
X-10450313Y12838786D02*
X-10542557Y12711654D01*
X-10542557Y12711654D02*
X-10630105Y12638193D01*
X-10630105Y12638193D02*
X-10771322Y12569427D01*
X-10771322Y12569427D02*
X-10854175Y12549635D01*
X-10854175Y12549635D02*
X-10961514Y12559026D01*
X-10961514Y12559026D02*
X-11064158Y12622087D01*
X-11064158Y12622087D02*
X-11186594Y12768000D01*
X-9814657Y12377568D02*
X-10059529Y12669395D01*
X-10059529Y12669395D02*
X-10375842Y12453706D01*
X-10375842Y12453706D02*
X-10322172Y12449010D01*
X-10322172Y12449010D02*
X-10244015Y12415132D01*
X-10244015Y12415132D02*
X-10121580Y12269219D01*
X-10121580Y12269219D02*
X-10101788Y12186367D01*
X-10101788Y12186367D02*
X-10106483Y12132697D01*
X-10106483Y12132697D02*
X-10140362Y12054540D01*
X-10140362Y12054540D02*
X-10286275Y11932104D01*
X-10286275Y11932104D02*
X-10369127Y11912313D01*
X-10369127Y11912313D02*
X-10422797Y11917008D01*
X-10422797Y11917008D02*
X-10500954Y11950886D01*
X-10500954Y11950886D02*
X-10623390Y12096799D01*
X-10623390Y12096799D02*
X-10643181Y12179652D01*
X-10643181Y12179652D02*
X-10638486Y12233322D01*
X-9349401Y11823098D02*
X-9447350Y11939828D01*
X-9447350Y11939828D02*
X-9525507Y11973707D01*
X-9525507Y11973707D02*
X-9579176Y11978402D01*
X-9579176Y11978402D02*
X-9715699Y11963306D01*
X-9715699Y11963306D02*
X-9856916Y11894540D01*
X-9856916Y11894540D02*
X-10090378Y11698643D01*
X-10090378Y11698643D02*
X-10124256Y11620486D01*
X-10124256Y11620486D02*
X-10128951Y11566816D01*
X-10128951Y11566816D02*
X-10109160Y11483964D01*
X-10109160Y11483964D02*
X-10011211Y11367233D01*
X-10011211Y11367233D02*
X-9933054Y11333355D01*
X-9933054Y11333355D02*
X-9879384Y11328659D01*
X-9879384Y11328659D02*
X-9796532Y11348451D01*
X-9796532Y11348451D02*
X-9650619Y11470887D01*
X-9650619Y11470887D02*
X-9616740Y11549044D01*
X-9616740Y11549044D02*
X-9612045Y11602714D01*
X-9612045Y11602714D02*
X-9631837Y11685566D01*
X-9631837Y11685566D02*
X-9729785Y11802297D01*
X-9729785Y11802297D02*
X-9807942Y11836175D01*
X-9807942Y11836175D02*
X-9861612Y11840870D01*
X-9861612Y11840870D02*
X-9944464Y11821079D01*
X713479Y-15397254D02*
X1511531Y-15341449D01*
X1511531Y-15341449D02*
X1524817Y-15531462D01*
X1524817Y-15531462D02*
X1494787Y-15648126D01*
X1494787Y-15648126D02*
X1424097Y-15729446D01*
X1424097Y-15729446D02*
X1350750Y-15772763D01*
X1350750Y-15772763D02*
X1201397Y-15821395D01*
X1201397Y-15821395D02*
X1087390Y-15829367D01*
X1087390Y-15829367D02*
X932723Y-15801994D01*
X932723Y-15801994D02*
X854060Y-15769307D01*
X854060Y-15769307D02*
X772741Y-15698617D01*
X772741Y-15698617D02*
X726766Y-15587267D01*
X726766Y-15587267D02*
X713479Y-15397254D01*
X1488673Y-16106813D02*
X1529333Y-16142158D01*
X1529333Y-16142158D02*
X1572650Y-16215505D01*
X1572650Y-16215505D02*
X1585937Y-16405518D01*
X1585937Y-16405518D02*
X1553250Y-16484180D01*
X1553250Y-16484180D02*
X1517905Y-16524840D01*
X1517905Y-16524840D02*
X1444557Y-16568157D01*
X1444557Y-16568157D02*
X1368552Y-16573472D01*
X1368552Y-16573472D02*
X1251888Y-16543441D01*
X1251888Y-16543441D02*
X763970Y-16119301D01*
X763970Y-16119301D02*
X798516Y-16613333D01*
X-12369813Y-11625303D02*
X-12905117Y-11030787D01*
X-12905117Y-11030787D02*
X-12763566Y-10903334D01*
X-12763566Y-10903334D02*
X-12653145Y-10855172D01*
X-12653145Y-10855172D02*
X-12545543Y-10860811D01*
X-12545543Y-10860811D02*
X-12466251Y-10891941D01*
X-12466251Y-10891941D02*
X-12335978Y-10979691D01*
X-12335978Y-10979691D02*
X-12259506Y-11064622D01*
X-12259506Y-11064622D02*
X-12185853Y-11203354D01*
X-12185853Y-11203354D02*
X-12163182Y-11285465D01*
X-12163182Y-11285465D02*
X-12168821Y-11393067D01*
X-12168821Y-11393067D02*
X-12228262Y-11497850D01*
X-12228262Y-11497850D02*
X-12369813Y-11625303D01*
X-12367222Y-10546464D02*
X-11970878Y-10189594D01*
X-11970878Y-10189594D02*
X-11690366Y-11013527D01*
X-11180781Y-10554694D02*
X-11067540Y-10452731D01*
X-11067540Y-10452731D02*
X-11036410Y-10373440D01*
X-11036410Y-10373440D02*
X-11033590Y-10319639D01*
X-11033590Y-10319639D02*
X-11053442Y-10183726D01*
X-11053442Y-10183726D02*
X-11127094Y-10044995D01*
X-11127094Y-10044995D02*
X-11331020Y-9818512D01*
X-11331020Y-9818512D02*
X-11410312Y-9787382D01*
X-11410312Y-9787382D02*
X-11464113Y-9784563D01*
X-11464113Y-9784563D02*
X-11546224Y-9807234D01*
X-11546224Y-9807234D02*
X-11659465Y-9909197D01*
X-11659465Y-9909197D02*
X-11690595Y-9988488D01*
X-11690595Y-9988488D02*
X-11693414Y-10042289D01*
X-11693414Y-10042289D02*
X-11670743Y-10124401D01*
X-11670743Y-10124401D02*
X-11543290Y-10265952D01*
X-11543290Y-10265952D02*
X-11463998Y-10297082D01*
X-11463998Y-10297082D02*
X-11410197Y-10299901D01*
X-11410197Y-10299901D02*
X-11328086Y-10277230D01*
X-11328086Y-10277230D02*
X-11214845Y-10175268D01*
X-11214845Y-10175268D02*
X-11183715Y-10095976D01*
X-11183715Y-10095976D02*
X-11180895Y-10042175D01*
X-11180895Y-10042175D02*
X-11203567Y-9960064D01*
X-9300718Y14200571D02*
X-8622280Y14624506D01*
X-8622280Y14624506D02*
X-8521343Y14462973D01*
X-8521343Y14462973D02*
X-8493087Y14345866D01*
X-8493087Y14345866D02*
X-8517325Y14240878D01*
X-8517325Y14240878D02*
X-8561751Y14168196D01*
X-8561751Y14168196D02*
X-8670790Y14055140D01*
X-8670790Y14055140D02*
X-8767710Y13994578D01*
X-8767710Y13994578D02*
X-8917124Y13946135D01*
X-8917124Y13946135D02*
X-9001924Y13938067D01*
X-9001924Y13938067D02*
X-9106912Y13962305D01*
X-9106912Y13962305D02*
X-9199781Y14039038D01*
X-9199781Y14039038D02*
X-9300718Y14200571D01*
X-7996470Y13623002D02*
X-8198344Y13946068D01*
X-8198344Y13946068D02*
X-8541598Y13776500D01*
X-8541598Y13776500D02*
X-8489104Y13764381D01*
X-8489104Y13764381D02*
X-8416422Y13719955D01*
X-8416422Y13719955D02*
X-8315485Y13558422D01*
X-8315485Y13558422D02*
X-8307417Y13473622D01*
X-8307417Y13473622D02*
X-8319536Y13421128D01*
X-8319536Y13421128D02*
X-8363962Y13348446D01*
X-8363962Y13348446D02*
X-8525495Y13247509D01*
X-8525495Y13247509D02*
X-8610296Y13239441D01*
X-8610296Y13239441D02*
X-8662790Y13251560D01*
X-8662790Y13251560D02*
X-8735471Y13295986D01*
X-8735471Y13295986D02*
X-8836408Y13457519D01*
X-8836408Y13457519D02*
X-8844476Y13542320D01*
X-8844476Y13542320D02*
X-8832357Y13594814D01*
X-7839056Y12867864D02*
X-8291348Y12585241D01*
X-7681540Y13190897D02*
X-8267076Y13049618D01*
X-8267076Y13049618D02*
X-8004640Y12629633D01*
X-16379705Y-4457252D02*
X-16573242Y-3681015D01*
X-16573242Y-3681015D02*
X-16388424Y-3634935D01*
X-16388424Y-3634935D02*
X-16268317Y-3644250D01*
X-16268317Y-3644250D02*
X-16175957Y-3699746D01*
X-16175957Y-3699746D02*
X-16120562Y-3764457D01*
X-16120562Y-3764457D02*
X-16046734Y-3903095D01*
X-16046734Y-3903095D02*
X-16019085Y-4013986D01*
X-16019085Y-4013986D02*
X-16019185Y-4171057D01*
X-16019185Y-4171057D02*
X-16037716Y-4254200D01*
X-16037716Y-4254200D02*
X-16093211Y-4346560D01*
X-16093211Y-4346560D02*
X-16194886Y-4411172D01*
X-16194886Y-4411172D02*
X-16379705Y-4457252D01*
X-15870933Y-3505910D02*
X-15353442Y-3376885D01*
X-15353442Y-3376885D02*
X-15492577Y-4236066D01*
X-15076264Y-3386300D02*
X-15048516Y-3340120D01*
X-15048516Y-3340120D02*
X-14983805Y-3284724D01*
X-14983805Y-3284724D02*
X-14798987Y-3238644D01*
X-14798987Y-3238644D02*
X-14715843Y-3257175D01*
X-14715843Y-3257175D02*
X-14669664Y-3284923D01*
X-14669664Y-3284923D02*
X-14614268Y-3349634D01*
X-14614268Y-3349634D02*
X-14595836Y-3423561D01*
X-14595836Y-3423561D02*
X-14605151Y-3543668D01*
X-14605151Y-3543668D02*
X-14938122Y-4097825D01*
X-14938122Y-4097825D02*
X-14457595Y-3978016D01*
X1409731Y14966685D02*
X611680Y15022490D01*
X611680Y15022490D02*
X624966Y15212502D01*
X624966Y15212502D02*
X670941Y15323852D01*
X670941Y15323852D02*
X752261Y15394542D01*
X752261Y15394542D02*
X830923Y15427230D01*
X830923Y15427230D02*
X985590Y15454603D01*
X985590Y15454603D02*
X1099597Y15446630D01*
X1099597Y15446630D02*
X1248950Y15397998D01*
X1248950Y15397998D02*
X1322297Y15354681D01*
X1322297Y15354681D02*
X1392987Y15273362D01*
X1392987Y15273362D02*
X1423018Y15156697D01*
X1423018Y15156697D02*
X1409731Y14966685D01*
X957418Y16143961D02*
X1489452Y16106758D01*
X640112Y15975208D02*
X1196861Y15745335D01*
X1196861Y15745335D02*
X1231408Y16239367D01*
X747206Y16960614D02*
X720633Y16580590D01*
X720633Y16580590D02*
X1098000Y16516014D01*
X1098000Y16516014D02*
X1062654Y16556674D01*
X1062654Y16556674D02*
X1029967Y16635336D01*
X1029967Y16635336D02*
X1043254Y16825348D01*
X1043254Y16825348D02*
X1086571Y16898696D01*
X1086571Y16898696D02*
X1127231Y16934041D01*
X1127231Y16934041D02*
X1205893Y16966728D01*
X1205893Y16966728D02*
X1395905Y16953441D01*
X1395905Y16953441D02*
X1469253Y16910124D01*
X1469253Y16910124D02*
X1504598Y16869464D01*
X1504598Y16869464D02*
X1537285Y16790802D01*
X1537285Y16790802D02*
X1523999Y16600790D01*
X1523999Y16600790D02*
X1480681Y16527442D01*
X1480681Y16527442D02*
X1440021Y16492097D01*
X12256644Y-8704205D02*
X12703998Y-8040975D01*
X12703998Y-8040975D02*
X12861910Y-8147488D01*
X12861910Y-8147488D02*
X12935354Y-8242978D01*
X12935354Y-8242978D02*
X12955914Y-8348748D01*
X12955914Y-8348748D02*
X12944891Y-8433215D01*
X12944891Y-8433215D02*
X12891263Y-8580847D01*
X12891263Y-8580847D02*
X12827355Y-8675594D01*
X12827355Y-8675594D02*
X12710563Y-8780621D01*
X12710563Y-8780621D02*
X12636375Y-8822483D01*
X12636375Y-8822483D02*
X12530605Y-8843043D01*
X12530605Y-8843043D02*
X12414556Y-8810718D01*
X12414556Y-8810718D02*
X12256644Y-8704205D01*
X13267280Y-9385888D02*
X12888291Y-9130257D01*
X13077786Y-9258072D02*
X13525140Y-8594842D01*
X13525140Y-8594842D02*
X13398067Y-8646984D01*
X13398067Y-8646984D02*
X13292297Y-8667544D01*
X13292297Y-8667544D02*
X13207830Y-8656521D01*
X14314700Y-9127407D02*
X13998876Y-8914381D01*
X13998876Y-8914381D02*
X13754268Y-9208902D01*
X13754268Y-9208902D02*
X13807153Y-9198622D01*
X13807153Y-9198622D02*
X13891620Y-9209645D01*
X13891620Y-9209645D02*
X14049532Y-9316158D01*
X14049532Y-9316158D02*
X14091394Y-9390346D01*
X14091394Y-9390346D02*
X14101674Y-9443231D01*
X14101674Y-9443231D02*
X14090651Y-9527698D01*
X14090651Y-9527698D02*
X13984138Y-9685610D01*
X13984138Y-9685610D02*
X13909951Y-9727472D01*
X13909951Y-9727472D02*
X13857066Y-9737752D01*
X13857066Y-9737752D02*
X13772598Y-9726729D01*
X13772598Y-9726729D02*
X13614686Y-9620216D01*
X13614686Y-9620216D02*
X13572824Y-9546029D01*
X13572824Y-9546029D02*
X13562544Y-9493144D01*
X6914458Y-13775866D02*
X7620816Y-13400288D01*
X7620816Y-13400288D02*
X7710239Y-13568469D01*
X7710239Y-13568469D02*
X7730257Y-13687262D01*
X7730257Y-13687262D02*
X7698754Y-13790303D01*
X7698754Y-13790303D02*
X7649367Y-13859709D01*
X7649367Y-13859709D02*
X7532707Y-13964883D01*
X7532707Y-13964883D02*
X7431799Y-14018537D01*
X7431799Y-14018537D02*
X7279370Y-14056440D01*
X7279370Y-14056440D02*
X7194213Y-14058573D01*
X7194213Y-14058573D02*
X7091171Y-14027070D01*
X7091171Y-14027070D02*
X7003881Y-13944046D01*
X7003881Y-13944046D02*
X6914458Y-13775866D01*
X7747323Y-14368516D02*
X7745189Y-14283360D01*
X7745189Y-14283360D02*
X7760941Y-14231839D01*
X7760941Y-14231839D02*
X7810328Y-14162433D01*
X7810328Y-14162433D02*
X7843964Y-14144549D01*
X7843964Y-14144549D02*
X7929121Y-14142416D01*
X7929121Y-14142416D02*
X7980642Y-14158167D01*
X7980642Y-14158167D02*
X8050047Y-14207555D01*
X8050047Y-14207555D02*
X8121586Y-14342099D01*
X8121586Y-14342099D02*
X8123719Y-14427256D01*
X8123719Y-14427256D02*
X8107968Y-14478777D01*
X8107968Y-14478777D02*
X8058580Y-14548182D01*
X8058580Y-14548182D02*
X8024944Y-14566067D01*
X8024944Y-14566067D02*
X7939787Y-14568200D01*
X7939787Y-14568200D02*
X7888266Y-14552448D01*
X7888266Y-14552448D02*
X7818861Y-14503061D01*
X7818861Y-14503061D02*
X7747323Y-14368516D01*
X7747323Y-14368516D02*
X7677917Y-14319129D01*
X7677917Y-14319129D02*
X7626396Y-14303377D01*
X7626396Y-14303377D02*
X7541240Y-14305511D01*
X7541240Y-14305511D02*
X7406695Y-14377049D01*
X7406695Y-14377049D02*
X7357308Y-14446454D01*
X7357308Y-14446454D02*
X7341556Y-14497975D01*
X7341556Y-14497975D02*
X7343689Y-14583132D01*
X7343689Y-14583132D02*
X7415228Y-14717676D01*
X7415228Y-14717676D02*
X7484633Y-14767064D01*
X7484633Y-14767064D02*
X7536154Y-14782815D01*
X7536154Y-14782815D02*
X7621311Y-14780682D01*
X7621311Y-14780682D02*
X7755855Y-14709144D01*
X7755855Y-14709144D02*
X7805243Y-14639738D01*
X7805243Y-14639738D02*
X7820994Y-14588218D01*
X7820994Y-14588218D02*
X7818861Y-14503061D01*
X-16973734Y230224D02*
X-16945815Y1029737D01*
X-16945815Y1029737D02*
X-16755455Y1023089D01*
X-16755455Y1023089D02*
X-16642568Y981029D01*
X-16642568Y981029D02*
X-16569083Y902226D01*
X-16569083Y902226D02*
X-16533670Y824752D01*
X-16533670Y824752D02*
X-16500916Y671135D01*
X-16500916Y671135D02*
X-16504905Y556919D01*
X-16504905Y556919D02*
X-16548295Y405960D01*
X-16548295Y405960D02*
X-16589026Y331145D01*
X-16589026Y331145D02*
X-16667829Y257660D01*
X-16667829Y257660D02*
X-16783374Y223577D01*
X-16783374Y223577D02*
X-16973734Y230224D01*
X-15803654Y989852D02*
X-15955942Y995170D01*
X-15955942Y995170D02*
X-16033416Y959757D01*
X-16033416Y959757D02*
X-16072817Y923014D01*
X-16072817Y923014D02*
X-16152950Y811457D01*
X-16152950Y811457D02*
X-16196340Y660499D01*
X-16196340Y660499D02*
X-16206976Y355922D01*
X-16206976Y355922D02*
X-16171563Y278449D01*
X-16171563Y278449D02*
X-16134820Y239047D01*
X-16134820Y239047D02*
X-16060006Y198316D01*
X-16060006Y198316D02*
X-15907718Y192998D01*
X-15907718Y192998D02*
X-15830244Y228411D01*
X-15830244Y228411D02*
X-15790842Y265154D01*
X-15790842Y265154D02*
X-15750111Y339968D01*
X-15750111Y339968D02*
X-15743464Y530328D01*
X-15743464Y530328D02*
X-15778877Y607802D01*
X-15778877Y607802D02*
X-15815619Y647204D01*
X-15815619Y647204D02*
X-15890434Y687935D01*
X-15890434Y687935D02*
X-16042722Y693253D01*
X-16042722Y693253D02*
X-16120196Y657840D01*
X-16120196Y657840D02*
X-16159597Y621097D01*
X-16159597Y621097D02*
X-16200328Y546283D01*
X-15282611Y628591D02*
X-15357425Y669322D01*
X-15357425Y669322D02*
X-15394168Y708723D01*
X-15394168Y708723D02*
X-15429581Y786197D01*
X-15429581Y786197D02*
X-15428251Y824269D01*
X-15428251Y824269D02*
X-15387520Y899083D01*
X-15387520Y899083D02*
X-15348119Y935826D01*
X-15348119Y935826D02*
X-15270645Y971239D01*
X-15270645Y971239D02*
X-15118357Y965921D01*
X-15118357Y965921D02*
X-15043543Y925190D01*
X-15043543Y925190D02*
X-15006800Y885788D01*
X-15006800Y885788D02*
X-14971387Y808315D01*
X-14971387Y808315D02*
X-14972717Y770243D01*
X-14972717Y770243D02*
X-15013448Y695428D01*
X-15013448Y695428D02*
X-15052849Y658686D01*
X-15052849Y658686D02*
X-15130323Y623272D01*
X-15130323Y623272D02*
X-15282611Y628591D01*
X-15282611Y628591D02*
X-15360084Y593177D01*
X-15360084Y593177D02*
X-15399486Y556435D01*
X-15399486Y556435D02*
X-15440217Y481620D01*
X-15440217Y481620D02*
X-15445535Y329332D01*
X-15445535Y329332D02*
X-15410122Y251859D01*
X-15410122Y251859D02*
X-15373379Y212457D01*
X-15373379Y212457D02*
X-15298565Y171726D01*
X-15298565Y171726D02*
X-15146277Y166408D01*
X-15146277Y166408D02*
X-15068803Y201821D01*
X-15068803Y201821D02*
X-15029402Y238564D01*
X-15029402Y238564D02*
X-14988671Y313378D01*
X-14988671Y313378D02*
X-14983353Y465666D01*
X-14983353Y465666D02*
X-15018766Y543140D01*
X-15018766Y543140D02*
X-15055508Y582541D01*
X-15055508Y582541D02*
X-15130323Y623272D01*
X10700294Y10558940D02*
X10124822Y11114666D01*
X10124822Y11114666D02*
X10257138Y11251683D01*
X10257138Y11251683D02*
X10363931Y11307431D01*
X10363931Y11307431D02*
X10471664Y11309311D01*
X10471664Y11309311D02*
X10552934Y11283788D01*
X10552934Y11283788D02*
X10689011Y11205339D01*
X10689011Y11205339D02*
X10771221Y11125949D01*
X10771221Y11125949D02*
X10854372Y10992693D01*
X10854372Y10992693D02*
X10882715Y10912363D01*
X10882715Y10912363D02*
X10884596Y10804630D01*
X10884596Y10804630D02*
X10832610Y10695957D01*
X10832610Y10695957D02*
X10700294Y10558940D01*
X10627622Y11635331D02*
X10971644Y11991576D01*
X10971644Y11991576D02*
X11005629Y11588046D01*
X11005629Y11588046D02*
X11085018Y11670257D01*
X11085018Y11670257D02*
X11165348Y11698600D01*
X11165348Y11698600D02*
X11219215Y11699541D01*
X11219215Y11699541D02*
X11300485Y11674018D01*
X11300485Y11674018D02*
X11437502Y11541702D01*
X11437502Y11541702D02*
X11465845Y11461372D01*
X11465845Y11461372D02*
X11466786Y11407505D01*
X11466786Y11407505D02*
X11441263Y11326235D01*
X11441263Y11326235D02*
X11282484Y11161815D01*
X11282484Y11161815D02*
X11202154Y11133471D01*
X11202154Y11133471D02*
X11148287Y11132531D01*
X11474444Y12512241D02*
X11209812Y12238207D01*
X11209812Y12238207D02*
X11457383Y11946172D01*
X11457383Y11946172D02*
X11456443Y12000038D01*
X11456443Y12000038D02*
X11481966Y12081308D01*
X11481966Y12081308D02*
X11614282Y12218325D01*
X11614282Y12218325D02*
X11694612Y12246669D01*
X11694612Y12246669D02*
X11748478Y12247609D01*
X11748478Y12247609D02*
X11829748Y12222086D01*
X11829748Y12222086D02*
X11966765Y12089770D01*
X11966765Y12089770D02*
X11995109Y12009441D01*
X11995109Y12009441D02*
X11996049Y11955574D01*
X11996049Y11955574D02*
X11970526Y11874304D01*
X11970526Y11874304D02*
X11838210Y11737287D01*
X11838210Y11737287D02*
X11757881Y11708943D01*
X11757881Y11708943D02*
X11704014Y11708003D01*
X-16252722Y4899909D02*
X-16005508Y5660754D01*
X-16005508Y5660754D02*
X-15824354Y5601894D01*
X-15824354Y5601894D02*
X-15727434Y5530347D01*
X-15727434Y5530347D02*
X-15678517Y5434342D01*
X-15678517Y5434342D02*
X-15665830Y5350108D01*
X-15665830Y5350108D02*
X-15676688Y5193413D01*
X-15676688Y5193413D02*
X-15712004Y5084721D01*
X-15712004Y5084721D02*
X-15795323Y4951570D01*
X-15795323Y4951570D02*
X-15855098Y4890881D01*
X-15855098Y4890881D02*
X-15951104Y4841963D01*
X-15951104Y4841963D02*
X-16071568Y4841049D01*
X-16071568Y4841049D02*
X-16252722Y4899909D01*
X-14918586Y5307592D02*
X-15063509Y5354681D01*
X-15063509Y5354681D02*
X-15147743Y5341994D01*
X-15147743Y5341994D02*
X-15195745Y5317535D01*
X-15195745Y5317535D02*
X-15303523Y5232387D01*
X-15303523Y5232387D02*
X-15386842Y5099236D01*
X-15386842Y5099236D02*
X-15481019Y4809391D01*
X-15481019Y4809391D02*
X-15468332Y4725157D01*
X-15468332Y4725157D02*
X-15443874Y4677154D01*
X-15443874Y4677154D02*
X-15383184Y4617379D01*
X-15383184Y4617379D02*
X-15238261Y4570291D01*
X-15238261Y4570291D02*
X-15154028Y4582978D01*
X-15154028Y4582978D02*
X-15106025Y4607436D01*
X-15106025Y4607436D02*
X-15046250Y4668126D01*
X-15046250Y4668126D02*
X-14987390Y4849279D01*
X-14987390Y4849279D02*
X-15000076Y4933513D01*
X-15000076Y4933513D02*
X-15024535Y4981516D01*
X-15024535Y4981516D02*
X-15085224Y5041291D01*
X-15085224Y5041291D02*
X-15230147Y5088379D01*
X-15230147Y5088379D02*
X-15314381Y5075692D01*
X-15314381Y5075692D02*
X-15362384Y5051234D01*
X-15362384Y5051234D02*
X-15422158Y4990544D01*
X-14276376Y4818536D02*
X-14441185Y4311305D01*
X-14363353Y5167242D02*
X-14721088Y4682641D01*
X-14721088Y4682641D02*
X-14250088Y4529604D01*
X-637704Y4887030D02*
X-1018657Y4620363D01*
X-637704Y4429887D02*
X-1437704Y4429887D01*
X-1437704Y4429887D02*
X-1437704Y4734649D01*
X-1437704Y4734649D02*
X-1399609Y4810839D01*
X-1399609Y4810839D02*
X-1361514Y4848934D01*
X-1361514Y4848934D02*
X-1285323Y4887030D01*
X-1285323Y4887030D02*
X-1171038Y4887030D01*
X-1171038Y4887030D02*
X-1094847Y4848934D01*
X-1094847Y4848934D02*
X-1056752Y4810839D01*
X-1056752Y4810839D02*
X-1018657Y4734649D01*
X-1018657Y4734649D02*
X-1018657Y4429887D01*
X-1437704Y5153696D02*
X-1437704Y5648934D01*
X-1437704Y5648934D02*
X-1132942Y5382268D01*
X-1132942Y5382268D02*
X-1132942Y5496553D01*
X-1132942Y5496553D02*
X-1094847Y5572744D01*
X-1094847Y5572744D02*
X-1056752Y5610839D01*
X-1056752Y5610839D02*
X-980561Y5648934D01*
X-980561Y5648934D02*
X-790085Y5648934D01*
X-790085Y5648934D02*
X-713895Y5610839D01*
X-713895Y5610839D02*
X-675800Y5572744D01*
X-675800Y5572744D02*
X-637704Y5496553D01*
X-637704Y5496553D02*
X-637704Y5267982D01*
X-637704Y5267982D02*
X-675800Y5191791D01*
X-675800Y5191791D02*
X-713895Y5153696D01*
X4929900Y-14604109D02*
X5681654Y-14330493D01*
X5681654Y-14330493D02*
X5746801Y-14509482D01*
X5746801Y-14509482D02*
X5750091Y-14629905D01*
X5750091Y-14629905D02*
X5704554Y-14727559D01*
X5704554Y-14727559D02*
X5645987Y-14789416D01*
X5645987Y-14789416D02*
X5515826Y-14877331D01*
X5515826Y-14877331D02*
X5408432Y-14916419D01*
X5408432Y-14916419D02*
X5252212Y-14932738D01*
X5252212Y-14932738D02*
X5167587Y-14922999D01*
X5167587Y-14922999D02*
X5069932Y-14877462D01*
X5069932Y-14877462D02*
X4995046Y-14783098D01*
X4995046Y-14783098D02*
X4929900Y-14604109D01*
X6072534Y-15404427D02*
X6020417Y-15261236D01*
X6020417Y-15261236D02*
X5958560Y-15202670D01*
X5958560Y-15202670D02*
X5909733Y-15179901D01*
X5909733Y-15179901D02*
X5776281Y-15147394D01*
X5776281Y-15147394D02*
X5620060Y-15163713D01*
X5620060Y-15163713D02*
X5333678Y-15267948D01*
X5333678Y-15267948D02*
X5275111Y-15329804D01*
X5275111Y-15329804D02*
X5252343Y-15378632D01*
X5252343Y-15378632D02*
X5242604Y-15463257D01*
X5242604Y-15463257D02*
X5294721Y-15606448D01*
X5294721Y-15606448D02*
X5356578Y-15665014D01*
X5356578Y-15665014D02*
X5405405Y-15687783D01*
X5405405Y-15687783D02*
X5490030Y-15697522D01*
X5490030Y-15697522D02*
X5669019Y-15632375D01*
X5669019Y-15632375D02*
X5727585Y-15570519D01*
X5727585Y-15570519D02*
X5750354Y-15521691D01*
X5750354Y-15521691D02*
X5760093Y-15437066D01*
X5760093Y-15437066D02*
X5707975Y-15293875D01*
X5707975Y-15293875D02*
X5646119Y-15235309D01*
X5646119Y-15235309D02*
X5597292Y-15212540D01*
X5597292Y-15212540D02*
X5512667Y-15202801D01*
X-2720732Y16755793D02*
X-1928517Y16867131D01*
X-1928517Y16867131D02*
X-1902008Y16678509D01*
X-1902008Y16678509D02*
X-1923827Y16560033D01*
X-1923827Y16560033D02*
X-1988672Y16473981D01*
X-1988672Y16473981D02*
X-2058820Y16425653D01*
X-2058820Y16425653D02*
X-2204416Y16366721D01*
X-2204416Y16366721D02*
X-2317589Y16350815D01*
X-2317589Y16350815D02*
X-2473789Y16367332D01*
X-2473789Y16367332D02*
X-2554540Y16394453D01*
X-2554540Y16394453D02*
X-2640593Y16459299D01*
X-2640593Y16459299D02*
X-2694223Y16567170D01*
X-2694223Y16567170D02*
X-2720732Y16755793D01*
X-2033534Y15698283D02*
X-2561677Y15624058D01*
X-1758247Y15929321D02*
X-2350624Y16038416D01*
X-2350624Y16038416D02*
X-2281700Y15547997D01*
X-2034757Y15159537D02*
X-2007636Y15240287D01*
X-2007636Y15240287D02*
X-1975214Y15283314D01*
X-1975214Y15283314D02*
X-1905066Y15331642D01*
X-1905066Y15331642D02*
X-1867342Y15336944D01*
X-1867342Y15336944D02*
X-1786591Y15309823D01*
X-1786591Y15309823D02*
X-1743565Y15277400D01*
X-1743565Y15277400D02*
X-1695237Y15207253D01*
X-1695237Y15207253D02*
X-1674029Y15056355D01*
X-1674029Y15056355D02*
X-1701150Y14975604D01*
X-1701150Y14975604D02*
X-1733573Y14932578D01*
X-1733573Y14932578D02*
X-1803720Y14884250D01*
X-1803720Y14884250D02*
X-1841444Y14878948D01*
X-1841444Y14878948D02*
X-1922195Y14906069D01*
X-1922195Y14906069D02*
X-1965222Y14938491D01*
X-1965222Y14938491D02*
X-2013550Y15008639D01*
X-2013550Y15008639D02*
X-2034757Y15159537D01*
X-2034757Y15159537D02*
X-2083085Y15229684D01*
X-2083085Y15229684D02*
X-2126112Y15262106D01*
X-2126112Y15262106D02*
X-2206862Y15289227D01*
X-2206862Y15289227D02*
X-2357760Y15268020D01*
X-2357760Y15268020D02*
X-2427908Y15219692D01*
X-2427908Y15219692D02*
X-2460330Y15176665D01*
X-2460330Y15176665D02*
X-2487451Y15095915D01*
X-2487451Y15095915D02*
X-2466244Y14945017D01*
X-2466244Y14945017D02*
X-2417916Y14874869D01*
X-2417916Y14874869D02*
X-2374889Y14842447D01*
X-2374889Y14842447D02*
X-2294138Y14815326D01*
X-2294138Y14815326D02*
X-2143240Y14836533D01*
X-2143240Y14836533D02*
X-2073093Y14884861D01*
X-2073093Y14884861D02*
X-2040671Y14927888D01*
X-2040671Y14927888D02*
X-2013550Y15008639D01*
X4386104Y-3653696D02*
X4424200Y-3691792D01*
X4424200Y-3691792D02*
X4462295Y-3806077D01*
X4462295Y-3806077D02*
X4462295Y-3882268D01*
X4462295Y-3882268D02*
X4424200Y-3996554D01*
X4424200Y-3996554D02*
X4348009Y-4072744D01*
X4348009Y-4072744D02*
X4271819Y-4110839D01*
X4271819Y-4110839D02*
X4119438Y-4148935D01*
X4119438Y-4148935D02*
X4005152Y-4148935D01*
X4005152Y-4148935D02*
X3852771Y-4110839D01*
X3852771Y-4110839D02*
X3776580Y-4072744D01*
X3776580Y-4072744D02*
X3700390Y-3996554D01*
X3700390Y-3996554D02*
X3662295Y-3882268D01*
X3662295Y-3882268D02*
X3662295Y-3806077D01*
X3662295Y-3806077D02*
X3700390Y-3691792D01*
X3700390Y-3691792D02*
X3738485Y-3653696D01*
X4462295Y-2891792D02*
X4462295Y-3348935D01*
X4462295Y-3120363D02*
X3662295Y-3120363D01*
X3662295Y-3120363D02*
X3776580Y-3196554D01*
X3776580Y-3196554D02*
X3852771Y-3272744D01*
X3852771Y-3272744D02*
X3890866Y-3348935D01*
X-12049916Y11956514D02*
X-11474444Y12512241D01*
X-11474444Y12512241D02*
X-11342128Y12375224D01*
X-11342128Y12375224D02*
X-11290142Y12266551D01*
X-11290142Y12266551D02*
X-11292023Y12158817D01*
X-11292023Y12158817D02*
X-11320366Y12078488D01*
X-11320366Y12078488D02*
X-11403517Y11945232D01*
X-11403517Y11945232D02*
X-11485727Y11865842D01*
X-11485727Y11865842D02*
X-11621804Y11787393D01*
X-11621804Y11787393D02*
X-11703074Y11761870D01*
X-11703074Y11761870D02*
X-11810807Y11763750D01*
X-11810807Y11763750D02*
X-11917600Y11819497D01*
X-11917600Y11819497D02*
X-12049916Y11956514D01*
X-10654086Y11662735D02*
X-10918718Y11936769D01*
X-10918718Y11936769D02*
X-11219215Y11699541D01*
X-11219215Y11699541D02*
X-11165348Y11698601D01*
X-11165348Y11698601D02*
X-11085019Y11670257D01*
X-11085019Y11670257D02*
X-10952703Y11533240D01*
X-10952703Y11533240D02*
X-10927180Y11451970D01*
X-10927180Y11451970D02*
X-10928120Y11398103D01*
X-10928120Y11398103D02*
X-10956464Y11317774D01*
X-10956464Y11317774D02*
X-11093481Y11185458D01*
X-11093481Y11185458D02*
X-11174751Y11159935D01*
X-11174751Y11159935D02*
X-11228617Y11160875D01*
X-11228617Y11160875D02*
X-11308947Y11189219D01*
X-11308947Y11189219D02*
X-11441263Y11326236D01*
X-11441263Y11326236D02*
X-11466786Y11407506D01*
X-11466786Y11407506D02*
X-11465846Y11461372D01*
X-10442380Y11443508D02*
X-10071896Y11059860D01*
X-10071896Y11059860D02*
X-10885536Y10750764D01*
X-14878856Y8171957D02*
X-14478856Y8864777D01*
X-14478856Y8864777D02*
X-14313899Y8769539D01*
X-14313899Y8769539D02*
X-14233972Y8679405D01*
X-14233972Y8679405D02*
X-14206085Y8575327D01*
X-14206085Y8575327D02*
X-14211188Y8490296D01*
X-14211188Y8490296D02*
X-14254387Y8339283D01*
X-14254387Y8339283D02*
X-14311530Y8240309D01*
X-14311530Y8240309D02*
X-14420712Y8127390D01*
X-14420712Y8127390D02*
X-14491799Y8080455D01*
X-14491799Y8080455D02*
X-14595877Y8052568D01*
X-14595877Y8052568D02*
X-14713899Y8076719D01*
X-14713899Y8076719D02*
X-14878856Y8171957D01*
X-13489113Y8293349D02*
X-13621079Y8369539D01*
X-13621079Y8369539D02*
X-13706109Y8374643D01*
X-13706109Y8374643D02*
X-13758148Y8360699D01*
X-13758148Y8360699D02*
X-13881274Y8299820D01*
X-13881274Y8299820D02*
X-13990456Y8186902D01*
X-13990456Y8186902D02*
X-14142837Y7922970D01*
X-14142837Y7922970D02*
X-14147941Y7837940D01*
X-14147941Y7837940D02*
X-14133997Y7785901D01*
X-14133997Y7785901D02*
X-14087061Y7714814D01*
X-14087061Y7714814D02*
X-13955096Y7638624D01*
X-13955096Y7638624D02*
X-13870065Y7633520D01*
X-13870065Y7633520D02*
X-13818026Y7647464D01*
X-13818026Y7647464D02*
X-13746939Y7694399D01*
X-13746939Y7694399D02*
X-13651701Y7859356D01*
X-13651701Y7859356D02*
X-13646598Y7944387D01*
X-13646598Y7944387D02*
X-13660541Y7996426D01*
X-13660541Y7996426D02*
X-13707477Y8067512D01*
X-13707477Y8067512D02*
X-13839442Y8143703D01*
X-13839442Y8143703D02*
X-13924473Y8148807D01*
X-13924473Y8148807D02*
X-13976512Y8134863D01*
X-13976512Y8134863D02*
X-14047599Y8087928D01*
X-13163301Y7181481D02*
X-13559198Y7410052D01*
X-13361250Y7295766D02*
X-12961250Y7988587D01*
X-12961250Y7988587D02*
X-13084375Y7927708D01*
X-13084375Y7927708D02*
X-13188453Y7899820D01*
X-13188453Y7899820D02*
X-13273484Y7904924D01*
X-2453696Y3263895D02*
X-2491792Y3225800D01*
X-2491792Y3225800D02*
X-2606077Y3187704D01*
X-2606077Y3187704D02*
X-2682268Y3187704D01*
X-2682268Y3187704D02*
X-2796554Y3225800D01*
X-2796554Y3225800D02*
X-2872744Y3301990D01*
X-2872744Y3301990D02*
X-2910839Y3378180D01*
X-2910839Y3378180D02*
X-2948935Y3530561D01*
X-2948935Y3530561D02*
X-2948935Y3644847D01*
X-2948935Y3644847D02*
X-2910839Y3797228D01*
X-2910839Y3797228D02*
X-2872744Y3873419D01*
X-2872744Y3873419D02*
X-2796554Y3949609D01*
X-2796554Y3949609D02*
X-2682268Y3987704D01*
X-2682268Y3987704D02*
X-2606077Y3987704D01*
X-2606077Y3987704D02*
X-2491792Y3949609D01*
X-2491792Y3949609D02*
X-2453696Y3911514D01*
X-1767982Y3721038D02*
X-1767982Y3187704D01*
X-1958458Y4025800D02*
X-2148935Y3454371D01*
X-2148935Y3454371D02*
X-1653696Y3454371D01*
X-16948447Y-954373D02*
X-16976366Y-154861D01*
X-16976366Y-154861D02*
X-16786006Y-148213D01*
X-16786006Y-148213D02*
X-16670460Y-182297D01*
X-16670460Y-182297D02*
X-16591657Y-255782D01*
X-16591657Y-255782D02*
X-16550926Y-330596D01*
X-16550926Y-330596D02*
X-16507536Y-481555D01*
X-16507536Y-481555D02*
X-16503548Y-595771D01*
X-16503548Y-595771D02*
X-16536302Y-749389D01*
X-16536302Y-749389D02*
X-16571715Y-826862D01*
X-16571715Y-826862D02*
X-16645200Y-905665D01*
X-16645200Y-905665D02*
X-16758086Y-947726D01*
X-16758086Y-947726D02*
X-16948447Y-954373D01*
X-15834205Y-114976D02*
X-15986493Y-120294D01*
X-15986493Y-120294D02*
X-16061308Y-161025D01*
X-16061308Y-161025D02*
X-16098050Y-200426D01*
X-16098050Y-200426D02*
X-16170206Y-317301D01*
X-16170206Y-317301D02*
X-16202960Y-470919D01*
X-16202960Y-470919D02*
X-16192324Y-775495D01*
X-16192324Y-775495D02*
X-16151593Y-850310D01*
X-16151593Y-850310D02*
X-16112191Y-887052D01*
X-16112191Y-887052D02*
X-16034718Y-922465D01*
X-16034718Y-922465D02*
X-15882430Y-917147D01*
X-15882430Y-917147D02*
X-15807615Y-876416D01*
X-15807615Y-876416D02*
X-15770873Y-837015D01*
X-15770873Y-837015D02*
X-15735460Y-759541D01*
X-15735460Y-759541D02*
X-15742107Y-569181D01*
X-15742107Y-569181D02*
X-15782838Y-494366D01*
X-15782838Y-494366D02*
X-15822240Y-457624D01*
X-15822240Y-457624D02*
X-15899713Y-422211D01*
X-15899713Y-422211D02*
X-16052001Y-427529D01*
X-16052001Y-427529D02*
X-16126816Y-468260D01*
X-16126816Y-468260D02*
X-16163559Y-507661D01*
X-16163559Y-507661D02*
X-16198972Y-585135D01*
X-15349421Y-898534D02*
X-15197133Y-893216D01*
X-15197133Y-893216D02*
X-15122318Y-852485D01*
X-15122318Y-852485D02*
X-15085576Y-813084D01*
X-15085576Y-813084D02*
X-15013420Y-696209D01*
X-15013420Y-696209D02*
X-14980666Y-542591D01*
X-14980666Y-542591D02*
X-14991302Y-238015D01*
X-14991302Y-238015D02*
X-15032033Y-163200D01*
X-15032033Y-163200D02*
X-15071435Y-126458D01*
X-15071435Y-126458D02*
X-15148908Y-91045D01*
X-15148908Y-91045D02*
X-15301197Y-96363D01*
X-15301197Y-96363D02*
X-15376011Y-137094D01*
X-15376011Y-137094D02*
X-15412754Y-176495D01*
X-15412754Y-176495D02*
X-15448167Y-253969D01*
X-15448167Y-253969D02*
X-15441519Y-444329D01*
X-15441519Y-444329D02*
X-15400788Y-519143D01*
X-15400788Y-519143D02*
X-15361387Y-555886D01*
X-15361387Y-555886D02*
X-15283913Y-591299D01*
X-15283913Y-591299D02*
X-15131625Y-585981D01*
X-15131625Y-585981D02*
X-15056810Y-545250D01*
X-15056810Y-545250D02*
X-15020068Y-505848D01*
X-15020068Y-505848D02*
X-14984655Y-428375D01*
X-15094964Y-7765431D02*
X-15445661Y-7046395D01*
X-15445661Y-7046395D02*
X-15274462Y-6962896D01*
X-15274462Y-6962896D02*
X-15155043Y-6947036D01*
X-15155043Y-6947036D02*
X-15053164Y-6982116D01*
X-15053164Y-6982116D02*
X-14985524Y-7033896D01*
X-14985524Y-7033896D02*
X-14884485Y-7154155D01*
X-14884485Y-7154155D02*
X-14834386Y-7256874D01*
X-14834386Y-7256874D02*
X-14801826Y-7410533D01*
X-14801826Y-7410533D02*
X-14802666Y-7495713D01*
X-14802666Y-7495713D02*
X-14837746Y-7597592D01*
X-14837746Y-7597592D02*
X-14923765Y-7681931D01*
X-14923765Y-7681931D02*
X-15094964Y-7765431D01*
X-14795105Y-6729098D02*
X-14315749Y-6495300D01*
X-14315749Y-6495300D02*
X-14273210Y-7364634D01*
X-13699432Y-6194703D02*
X-14041830Y-6361701D01*
X-14041830Y-6361701D02*
X-13909071Y-6720799D01*
X-13909071Y-6720799D02*
X-13891531Y-6669859D01*
X-13891531Y-6669859D02*
X-13839752Y-6602220D01*
X-13839752Y-6602220D02*
X-13668553Y-6518721D01*
X-13668553Y-6518721D02*
X-13583374Y-6519561D01*
X-13583374Y-6519561D02*
X-13532434Y-6537101D01*
X-13532434Y-6537101D02*
X-13464794Y-6588880D01*
X-13464794Y-6588880D02*
X-13381295Y-6760079D01*
X-13381295Y-6760079D02*
X-13382135Y-6845258D01*
X-13382135Y-6845258D02*
X-13399675Y-6896198D01*
X-13399675Y-6896198D02*
X-13451455Y-6963838D01*
X-13451455Y-6963838D02*
X-13622654Y-7047337D01*
X-13622654Y-7047337D02*
X-13707833Y-7046497D01*
X-13707833Y-7046497D02*
X-13758773Y-7028957D01*
X-16554999Y3754185D02*
X-16361461Y4530421D01*
X-16361461Y4530421D02*
X-16176643Y4484341D01*
X-16176643Y4484341D02*
X-16074968Y4419729D01*
X-16074968Y4419729D02*
X-16019473Y4327370D01*
X-16019473Y4327370D02*
X-16000942Y4244226D01*
X-16000942Y4244226D02*
X-16000842Y4087156D01*
X-16000842Y4087156D02*
X-16028490Y3976265D01*
X-16028490Y3976265D02*
X-16102318Y3837626D01*
X-16102318Y3837626D02*
X-16157714Y3772915D01*
X-16157714Y3772915D02*
X-16250074Y3717420D01*
X-16250074Y3717420D02*
X-16370181Y3708105D01*
X-16370181Y3708105D02*
X-16554999Y3754185D01*
X-15252552Y4253939D02*
X-15400407Y4290804D01*
X-15400407Y4290804D02*
X-15483550Y4272272D01*
X-15483550Y4272272D02*
X-15529730Y4244525D01*
X-15529730Y4244525D02*
X-15631305Y4152066D01*
X-15631305Y4152066D02*
X-15705133Y4013427D01*
X-15705133Y4013427D02*
X-15778862Y3717718D01*
X-15778862Y3717718D02*
X-15760330Y3634575D01*
X-15760330Y3634575D02*
X-15732583Y3588395D01*
X-15732583Y3588395D02*
X-15667871Y3532999D01*
X-15667871Y3532999D02*
X-15520017Y3496135D01*
X-15520017Y3496135D02*
X-15436873Y3514666D01*
X-15436873Y3514666D02*
X-15390694Y3542414D01*
X-15390694Y3542414D02*
X-15335298Y3607125D01*
X-15335298Y3607125D02*
X-15289218Y3791943D01*
X-15289218Y3791943D02*
X-15307749Y3875087D01*
X-15307749Y3875087D02*
X-15335497Y3921266D01*
X-15335497Y3921266D02*
X-15400208Y3976662D01*
X-15400208Y3976662D02*
X-15548062Y4013527D01*
X-15548062Y4013527D02*
X-15631206Y3994995D01*
X-15631206Y3994995D02*
X-15677385Y3967247D01*
X-15677385Y3967247D02*
X-15732781Y3902536D01*
X-14476315Y4060402D02*
X-14845952Y4152562D01*
X-14845952Y4152562D02*
X-14975076Y3792142D01*
X-14975076Y3792142D02*
X-14928896Y3819890D01*
X-14928896Y3819890D02*
X-14845753Y3838421D01*
X-14845753Y3838421D02*
X-14660935Y3792341D01*
X-14660935Y3792341D02*
X-14596223Y3736945D01*
X-14596223Y3736945D02*
X-14568476Y3690765D01*
X-14568476Y3690765D02*
X-14549944Y3607622D01*
X-14549944Y3607622D02*
X-14596025Y3422804D01*
X-14596025Y3422804D02*
X-14651421Y3358092D01*
X-14651421Y3358092D02*
X-14697600Y3330345D01*
X-14697600Y3330345D02*
X-14780744Y3311813D01*
X-14780744Y3311813D02*
X-14965562Y3357894D01*
X-14965562Y3357894D02*
X-15030273Y3413290D01*
X-15030273Y3413290D02*
X-15058021Y3459469D01*
X2849412Y-15148090D02*
X3631931Y-14981761D01*
X3631931Y-14981761D02*
X3671533Y-15168075D01*
X3671533Y-15168075D02*
X3658031Y-15287784D01*
X3658031Y-15287784D02*
X3599347Y-15378150D01*
X3599347Y-15378150D02*
X3532742Y-15431254D01*
X3532742Y-15431254D02*
X3391611Y-15500198D01*
X3391611Y-15500198D02*
X3279823Y-15523960D01*
X3279823Y-15523960D02*
X3122851Y-15518379D01*
X3122851Y-15518379D02*
X3040405Y-15496957D01*
X3040405Y-15496957D02*
X2950039Y-15438272D01*
X2950039Y-15438272D02*
X2889015Y-15334404D01*
X2889015Y-15334404D02*
X2849412Y-15148090D01*
X3608705Y-16155087D02*
X3087026Y-16265973D01*
X3867204Y-15905410D02*
X3268661Y-15837903D01*
X3268661Y-15837903D02*
X3371627Y-16322319D01*
X2887030Y-686104D02*
X2848934Y-724200D01*
X2848934Y-724200D02*
X2734649Y-762295D01*
X2734649Y-762295D02*
X2658458Y-762295D01*
X2658458Y-762295D02*
X2544172Y-724200D01*
X2544172Y-724200D02*
X2467982Y-648009D01*
X2467982Y-648009D02*
X2429887Y-571819D01*
X2429887Y-571819D02*
X2391791Y-419438D01*
X2391791Y-419438D02*
X2391791Y-305152D01*
X2391791Y-305152D02*
X2429887Y-152771D01*
X2429887Y-152771D02*
X2467982Y-76580D01*
X2467982Y-76580D02*
X2544172Y-390D01*
X2544172Y-390D02*
X2658458Y37704D01*
X2658458Y37704D02*
X2734649Y37704D01*
X2734649Y37704D02*
X2848934Y-390D01*
X2848934Y-390D02*
X2887030Y-38485D01*
X3153696Y37704D02*
X3648934Y37704D01*
X3648934Y37704D02*
X3382268Y-267057D01*
X3382268Y-267057D02*
X3496553Y-267057D01*
X3496553Y-267057D02*
X3572744Y-305152D01*
X3572744Y-305152D02*
X3610839Y-343247D01*
X3610839Y-343247D02*
X3648934Y-419438D01*
X3648934Y-419438D02*
X3648934Y-609914D01*
X3648934Y-609914D02*
X3610839Y-686104D01*
X3610839Y-686104D02*
X3572744Y-724200D01*
X3572744Y-724200D02*
X3496553Y-762295D01*
X3496553Y-762295D02*
X3267982Y-762295D01*
X3267982Y-762295D02*
X3191791Y-724200D01*
X3191791Y-724200D02*
X3153696Y-686104D01*
X15032060Y162420D02*
X15004141Y961932D01*
X15004141Y961932D02*
X15194501Y968580D01*
X15194501Y968580D02*
X15310047Y934496D01*
X15310047Y934496D02*
X15388850Y861011D01*
X15388850Y861011D02*
X15429581Y786197D01*
X15429581Y786197D02*
X15472971Y635238D01*
X15472971Y635238D02*
X15476959Y521022D01*
X15476959Y521022D02*
X15444205Y367404D01*
X15444205Y367404D02*
X15408792Y289931D01*
X15408792Y289931D02*
X15335307Y211128D01*
X15335307Y211128D02*
X15222421Y169067D01*
X15222421Y169067D02*
X15032060Y162420D01*
X15768240Y912378D02*
X15804983Y951780D01*
X15804983Y951780D02*
X15879798Y992511D01*
X15879798Y992511D02*
X16070158Y999158D01*
X16070158Y999158D02*
X16147631Y963745D01*
X16147631Y963745D02*
X16187033Y927003D01*
X16187033Y927003D02*
X16227764Y852188D01*
X16227764Y852188D02*
X16230423Y776044D01*
X16230423Y776044D02*
X16196339Y660499D01*
X16196339Y660499D02*
X15755429Y187680D01*
X15755429Y187680D02*
X16250365Y204964D01*
X16917049Y761903D02*
X16935662Y228895D01*
X16716053Y1059832D02*
X16545635Y482104D01*
X16545635Y482104D02*
X17040572Y499388D01*
X-10631526Y-13233758D02*
X-11244361Y-12719528D01*
X-11244361Y-12719528D02*
X-11121925Y-12573615D01*
X-11121925Y-12573615D02*
X-11019281Y-12510554D01*
X-11019281Y-12510554D02*
X-10911942Y-12501163D01*
X-10911942Y-12501163D02*
X-10829089Y-12520955D01*
X-10829089Y-12520955D02*
X-10687872Y-12589721D01*
X-10687872Y-12589721D02*
X-10600324Y-12663182D01*
X-10600324Y-12663182D02*
X-10508080Y-12790313D01*
X-10508080Y-12790313D02*
X-10474202Y-12868470D01*
X-10474202Y-12868470D02*
X-10464811Y-12975810D01*
X-10464811Y-12975810D02*
X-10509090Y-13087845D01*
X-10509090Y-13087845D02*
X-10631526Y-13233758D01*
X-10394026Y-12239529D02*
X-10472183Y-12273407D01*
X-10472183Y-12273407D02*
X-10525853Y-12278102D01*
X-10525853Y-12278102D02*
X-10608705Y-12258311D01*
X-10608705Y-12258311D02*
X-10637888Y-12233824D01*
X-10637888Y-12233824D02*
X-10671766Y-12155667D01*
X-10671766Y-12155667D02*
X-10676461Y-12101997D01*
X-10676461Y-12101997D02*
X-10656670Y-12019144D01*
X-10656670Y-12019144D02*
X-10558721Y-11902414D01*
X-10558721Y-11902414D02*
X-10480564Y-11868536D01*
X-10480564Y-11868536D02*
X-10426894Y-11863840D01*
X-10426894Y-11863840D02*
X-10344042Y-11883632D01*
X-10344042Y-11883632D02*
X-10314859Y-11908119D01*
X-10314859Y-11908119D02*
X-10280981Y-11986276D01*
X-10280981Y-11986276D02*
X-10276286Y-12039946D01*
X-10276286Y-12039946D02*
X-10296077Y-12122798D01*
X-10296077Y-12122798D02*
X-10394026Y-12239529D01*
X-10394026Y-12239529D02*
X-10413818Y-12322381D01*
X-10413818Y-12322381D02*
X-10409122Y-12376051D01*
X-10409122Y-12376051D02*
X-10375244Y-12454208D01*
X-10375244Y-12454208D02*
X-10258513Y-12552157D01*
X-10258513Y-12552157D02*
X-10175661Y-12571948D01*
X-10175661Y-12571948D02*
X-10121991Y-12567253D01*
X-10121991Y-12567253D02*
X-10043834Y-12533375D01*
X-10043834Y-12533375D02*
X-9945886Y-12416644D01*
X-9945886Y-12416644D02*
X-9926094Y-12333792D01*
X-9926094Y-12333792D02*
X-9930789Y-12280122D01*
X-9930789Y-12280122D02*
X-9964668Y-12201965D01*
X-9964668Y-12201965D02*
X-10081398Y-12104016D01*
X-10081398Y-12104016D02*
X-10164251Y-12084225D01*
X-10164251Y-12084225D02*
X-10217920Y-12088920D01*
X-10217920Y-12088920D02*
X-10296077Y-12122798D01*
X-9358194Y-11716260D02*
X-9652040Y-12066452D01*
X-9505117Y-11891356D02*
X-10117952Y-11377126D01*
X-10117952Y-11377126D02*
X-10079379Y-11508953D01*
X-10079379Y-11508953D02*
X-10069988Y-11616292D01*
X-10069988Y-11616292D02*
X-10089779Y-11699145D01*
D11*
%TO.C,D30*%
X9706941Y4734426D02*
X9662001Y4712507D01*
X9751881Y4756344D02*
X9933845Y5067614D01*
X9794615Y4554667D02*
X9619267Y4914185D01*
X10021519Y4887856D02*
X10111399Y4931693D01*
X10109193Y4708097D02*
X9751881Y4756344D01*
X10109193Y4708097D02*
X9933845Y5067614D01*
%TO.C,D70*%
X-11109784Y-966575D02*
X-11067973Y-1364384D01*
X-11109784Y-966575D02*
X-10790522Y-1134121D01*
X-11088878Y-1165479D02*
X-11188330Y-1175932D01*
X-10790522Y-1134121D02*
X-11067973Y-1364384D01*
X-10761701Y-929990D02*
X-10719890Y-1327799D01*
X-10740796Y-1128894D02*
X-10691070Y-1123668D01*
%TO.C,D49*%
X-2318187Y10906322D02*
X-2338978Y11004137D01*
X-2255813Y10612878D02*
X-2513816Y10864740D01*
X-2245418Y10563970D02*
X-2235022Y10515063D01*
X-2122557Y10947904D02*
X-2513816Y10864740D01*
X-2122557Y10947904D02*
X-2255813Y10612878D01*
X-2049788Y10605553D02*
X-2441047Y10522388D01*
%TO.C,D12*%
X7358400Y-7907764D02*
X7646136Y-7629900D01*
X7502268Y-7768832D02*
X7467535Y-7732865D01*
X7537001Y-7804799D02*
X7889267Y-7881669D01*
X7601531Y-8159533D02*
X7537001Y-7804799D01*
X7601531Y-8159533D02*
X7889267Y-7881669D01*
X7745399Y-8020601D02*
X7814865Y-8092535D01*
%TO.C,D76*%
X-9756204Y-5401795D02*
X-9556204Y-5748205D01*
X-9756204Y-5401795D02*
X-9396396Y-5425000D01*
X-9656204Y-5575000D02*
X-9742806Y-5625000D01*
X-9453095Y-5226795D02*
X-9253095Y-5573205D01*
X-9396396Y-5425000D02*
X-9556204Y-5748205D01*
X-9353095Y-5400000D02*
X-9309794Y-5375000D01*
%TO.C,D43*%
X2245418Y10563970D02*
X2235022Y10515063D01*
X2255813Y10612878D02*
X2122557Y10947904D01*
X2318187Y10906322D02*
X2338978Y11004137D01*
X2441047Y10522388D02*
X2049788Y10605553D01*
X2513816Y10864740D02*
X2122557Y10947904D01*
X2513816Y10864740D02*
X2255813Y10612878D01*
%TO.C,D21*%
X10601209Y-2072332D02*
X10670668Y-1678409D01*
X10635937Y-1875370D02*
X10586698Y-1866688D01*
X10685179Y-1884053D02*
X11015351Y-1739186D01*
X10945893Y-2133109D02*
X10685179Y-1884053D01*
X10945893Y-2133109D02*
X11015351Y-1739186D01*
X10980621Y-1936147D02*
X11079102Y-1953512D01*
%TO.C,D67*%
X-11088878Y1165479D02*
X-11188330Y1175932D01*
X-11067973Y1364384D02*
X-11109784Y966575D01*
X-11067973Y1364384D02*
X-10790522Y1134121D01*
X-10790522Y1134121D02*
X-11109784Y966575D01*
X-10740796Y1128894D02*
X-10691070Y1123668D01*
X-10719890Y1327799D02*
X-10761701Y929990D01*
%TO.C,D47*%
X-777763Y11122835D02*
X-784739Y11222591D01*
X-756837Y10823565D02*
X-977276Y11108883D01*
X-753349Y10773687D02*
X-749861Y10723809D01*
X-578251Y11136786D02*
X-977276Y11108883D01*
X-578251Y11136786D02*
X-756837Y10823565D01*
X-553836Y10787638D02*
X-952862Y10759736D01*
%TO.C,D83*%
X-6078198Y-9349723D02*
X-5749612Y-9201293D01*
X-6078198Y-9349723D02*
X-5738978Y-9561691D01*
X-5908588Y-9455707D02*
X-5961580Y-9540512D01*
X-5892726Y-9052907D02*
X-5553507Y-9264874D01*
X-5749612Y-9201293D02*
X-5738978Y-9561691D01*
X-5723116Y-9158890D02*
X-5696620Y-9116488D01*
%TO.C,D90*%
X-977276Y-11108883D02*
X-756837Y-10823565D01*
X-977276Y-11108883D02*
X-578251Y-11136786D01*
X-952862Y-10759736D02*
X-553836Y-10787638D01*
X-777763Y-11122835D02*
X-784739Y-11222591D01*
X-756837Y-10823565D02*
X-578251Y-11136786D01*
X-753349Y-10773687D02*
X-749861Y-10723809D01*
%TO.C,U3*%
X5650000Y3300000D02*
X2750000Y3300000D01*
X2750000Y700000D01*
X5650000Y700000D01*
X5650000Y3300000D01*
X5650000Y2800000D02*
X5150000Y3300000D01*
X5650000Y3300000D01*
X5650000Y2800000D01*
G36*
X5650000Y2800000D02*
G01*
X5150000Y3300000D01*
X5650000Y3300000D01*
X5650000Y2800000D01*
G37*
%TO.C,D31*%
X9353095Y5400000D02*
X9309794Y5375000D01*
X9396396Y5425000D02*
X9556204Y5748205D01*
X9453095Y5226795D02*
X9253095Y5573205D01*
X9656204Y5575000D02*
X9742806Y5625000D01*
X9756204Y5401795D02*
X9396396Y5425000D01*
X9756204Y5401795D02*
X9556204Y5748205D01*
%TO.C,D50*%
X-3073346Y10718089D02*
X-3100909Y10814214D01*
X-2990654Y10429711D02*
X-3265598Y10662962D01*
X-2976873Y10381648D02*
X-2963091Y10333586D01*
X-2881093Y10773217D02*
X-3265598Y10662962D01*
X-2881093Y10773217D02*
X-2990654Y10429711D01*
X-2784620Y10436775D02*
X-3169125Y10326520D01*
%TO.C,D51*%
X-3813503Y10477554D02*
X-3847705Y10571523D01*
X-3710897Y10195646D02*
X-4001442Y10409150D01*
X-3693796Y10148661D02*
X-3676695Y10101677D01*
X-3625564Y10545958D02*
X-4001442Y10409150D01*
X-3625564Y10545958D02*
X-3710897Y10195646D01*
X-3505857Y10217066D02*
X-3881734Y10080257D01*
%TO.C,D32*%
X8953592Y6039261D02*
X8912141Y6011302D01*
X8995044Y6067221D02*
X9131917Y6400786D01*
X9065431Y5873454D02*
X8841754Y6205069D01*
X9243756Y6234979D02*
X9326659Y6290898D01*
X9355594Y6069171D02*
X8995044Y6067221D01*
X9355594Y6069171D02*
X9131917Y6400786D01*
%TO.C,D40*%
X4392753Y9866291D02*
X4372416Y9820614D01*
X4413090Y9911968D02*
X4352401Y10267379D01*
X4535110Y10186032D02*
X4575784Y10277386D01*
X4575462Y9784944D02*
X4210044Y9947638D01*
X4717821Y10104684D02*
X4352401Y10267379D01*
X4717821Y10104684D02*
X4413090Y9911968D01*
%TO.C,D26*%
X10635937Y1875370D02*
X10586698Y1866688D01*
X10670668Y1678409D02*
X10601209Y2072332D01*
X10685179Y1884053D02*
X10945893Y2133109D01*
X10980621Y1936147D02*
X11079102Y1953512D01*
X11015351Y1739186D02*
X10685179Y1884053D01*
X11015351Y1739186D02*
X10945893Y2133109D01*
%TO.C,D33*%
X8510498Y6649168D02*
X8471097Y6618385D01*
X8549898Y6679951D02*
X8663169Y7022251D01*
X8633630Y6491566D02*
X8387366Y6806770D01*
X8786302Y6864649D02*
X8865103Y6926215D01*
X8909434Y6707047D02*
X8549898Y6679951D01*
X8909434Y6707047D02*
X8663169Y7022251D01*
%TO.C,D36*%
X6942142Y8273291D02*
X6910003Y8234989D01*
X6974282Y8311593D02*
X7013909Y8669964D01*
X7095351Y8144734D02*
X6788934Y8401849D01*
X7167118Y8541407D02*
X7231397Y8618011D01*
X7320327Y8412849D02*
X6974282Y8311593D01*
X7320327Y8412849D02*
X7013909Y8669964D01*
%TO.C,D34*%
X8025971Y7226574D02*
X7988814Y7193117D01*
X8063128Y7260030D02*
X8152246Y7609399D01*
X8159797Y7077945D02*
X7892145Y7375203D01*
X8286072Y7460770D02*
X8360386Y7527683D01*
X8419898Y7312141D02*
X8063128Y7260030D01*
X8419898Y7312141D02*
X8152246Y7609399D01*
%TO.C,D20*%
X10430856Y-2806775D02*
X10527625Y-2418656D01*
X10479241Y-2612716D02*
X10430726Y-2600620D01*
X10527756Y-2624812D02*
X10867229Y-2503329D01*
X10770460Y-2891447D02*
X10527756Y-2624812D01*
X10770460Y-2891447D02*
X10867229Y-2503329D01*
X10818844Y-2697388D02*
X10915874Y-2721580D01*
%TO.C,D87*%
X-3265598Y-10662962D02*
X-2990654Y-10429711D01*
X-3265598Y-10662962D02*
X-2881093Y-10773217D01*
X-3169125Y-10326520D02*
X-2784620Y-10436775D01*
X-3073346Y-10718089D02*
X-3100909Y-10814214D01*
X-2990654Y-10429711D02*
X-2881093Y-10773217D01*
X-2976873Y-10381648D02*
X-2963091Y-10333586D01*
%TO.C,D62*%
X-10021519Y4887856D02*
X-10111399Y4931693D01*
X-9933845Y5067614D02*
X-10109193Y4708097D01*
X-9933845Y5067614D02*
X-9751881Y4756344D01*
X-9751881Y4756344D02*
X-10109193Y4708097D01*
X-9706941Y4734426D02*
X-9662001Y4712507D01*
X-9619267Y4914185D02*
X-9794615Y4554667D01*
%TO.C,D89*%
X-1749830Y-11013606D02*
X-1510024Y-10744360D01*
X-1749830Y-11013606D02*
X-1353722Y-11069275D01*
X-1701119Y-10667012D02*
X-1305012Y-10722681D01*
X-1551776Y-11041440D02*
X-1565693Y-11140467D01*
X-1510024Y-10744360D02*
X-1353722Y-11069275D01*
X-1503065Y-10694846D02*
X-1496107Y-10645333D01*
%TO.C,D25*%
X10740796Y1128894D02*
X10691070Y1123668D01*
X10761701Y929990D02*
X10719890Y1327799D01*
X10790522Y1134121D02*
X11067973Y1364384D01*
X11088878Y1165479D02*
X11188330Y1175932D01*
X11109784Y966575D02*
X10790522Y1134121D01*
X11109784Y966575D02*
X11067973Y1364384D01*
%TO.C,D28*%
X10271389Y3337397D02*
X10223836Y3321946D01*
X10318942Y3352846D02*
X10542455Y3635764D01*
X10333192Y3147185D02*
X10209585Y3527608D01*
X10604258Y3445554D02*
X10699364Y3476454D01*
X10666062Y3255341D02*
X10318942Y3352846D01*
X10666062Y3255341D02*
X10542455Y3635764D01*
%TO.C,D71*%
X-11015351Y-1739186D02*
X-10945893Y-2133109D01*
X-11015351Y-1739186D02*
X-10685179Y-1884053D01*
X-10980621Y-1936147D02*
X-11079102Y-1953512D01*
X-10685179Y-1884053D02*
X-10945893Y-2133109D01*
X-10670668Y-1678409D02*
X-10601209Y-2072332D01*
X-10635937Y-1875370D02*
X-10586698Y-1866688D01*
%TO.C,D42*%
X2976873Y10381648D02*
X2963091Y10333586D01*
X2990654Y10429711D02*
X2881093Y10773217D01*
X3073346Y10718089D02*
X3100909Y10814214D01*
X3169125Y10326520D02*
X2784620Y10436775D01*
X3265598Y10662962D02*
X2881093Y10773217D01*
X3265598Y10662962D02*
X2990654Y10429711D01*
%TO.C,D59*%
X-8786302Y6864649D02*
X-8865103Y6926215D01*
X-8663169Y7022251D02*
X-8909434Y6707047D01*
X-8663169Y7022251D02*
X-8549898Y6679951D01*
X-8549898Y6679951D02*
X-8909434Y6707047D01*
X-8510498Y6649168D02*
X-8471097Y6618385D01*
X-8387366Y6806770D02*
X-8633630Y6491566D01*
%TO.C,D85*%
X-4717821Y-10104684D02*
X-4413090Y-9911968D01*
X-4717821Y-10104684D02*
X-4352401Y-10267379D01*
X-4575462Y-9784944D02*
X-4210044Y-9947638D01*
X-4535110Y-10186032D02*
X-4575784Y-10277386D01*
X-4413090Y-9911968D02*
X-4352401Y-10267379D01*
X-4392753Y-9866291D02*
X-4372416Y-9820614D01*
%TO.C,D11*%
X6788934Y-8401849D02*
X7095351Y-8144734D01*
X6942142Y-8273291D02*
X6910003Y-8234989D01*
X6974282Y-8311593D02*
X7320327Y-8412849D01*
X7013909Y-8669964D02*
X6974282Y-8311593D01*
X7013909Y-8669964D02*
X7320327Y-8412849D01*
X7167118Y-8541407D02*
X7231397Y-8618011D01*
%TO.C,D44*%
X1503065Y10694846D02*
X1496107Y10645333D01*
X1510024Y10744360D02*
X1353722Y11069275D01*
X1551776Y11041440D02*
X1565693Y11140467D01*
X1701119Y10667012D02*
X1305012Y10722681D01*
X1749830Y11013606D02*
X1353722Y11069275D01*
X1749830Y11013606D02*
X1510024Y10744360D01*
%TO.C,D18*%
X9938642Y-4231215D02*
X10088485Y-3860342D01*
X10013563Y-4045779D02*
X9967204Y-4027048D01*
X10059922Y-4064509D02*
X10412999Y-3991454D01*
X10263156Y-4362328D02*
X10059922Y-4064509D01*
X10263156Y-4362328D02*
X10412999Y-3991454D01*
X10338078Y-4176891D02*
X10430796Y-4214352D01*
%TO.C,D16*%
X9253095Y-5573205D02*
X9453095Y-5226795D01*
X9353095Y-5400000D02*
X9309794Y-5375000D01*
X9396396Y-5425000D02*
X9756204Y-5401795D01*
X9556204Y-5748205D02*
X9396396Y-5425000D01*
X9556204Y-5748205D02*
X9756204Y-5401795D01*
X9656204Y-5575000D02*
X9742806Y-5625000D01*
%TO.C,D55*%
X-6553768Y9020553D02*
X-6612546Y9101454D01*
X-6391964Y9138110D02*
X-6715571Y8902995D01*
X-6391964Y9138110D02*
X-6377432Y8777847D01*
X-6377432Y8777847D02*
X-6715571Y8902995D01*
X-6348043Y8737397D02*
X-6318654Y8696946D01*
X-6186240Y8854954D02*
X-6509846Y8619840D01*
%TO.C,D52*%
X-4535110Y10186032D02*
X-4575784Y10277386D01*
X-4413090Y9911968D02*
X-4717821Y10104684D01*
X-4392753Y9866291D02*
X-4372416Y9820614D01*
X-4352401Y10267379D02*
X-4717821Y10104684D01*
X-4352401Y10267379D02*
X-4413090Y9911968D01*
X-4210044Y9947638D02*
X-4575462Y9784944D01*
%TO.C,D10*%
X6186240Y-8854954D02*
X6509846Y-8619840D01*
X6348043Y-8737397D02*
X6318654Y-8696946D01*
X6377432Y-8777847D02*
X6715571Y-8902995D01*
X6391964Y-9138110D02*
X6377432Y-8777847D01*
X6391964Y-9138110D02*
X6715571Y-8902995D01*
X6553768Y-9020553D02*
X6612546Y-9101454D01*
%TO.C,D77*%
X-9355594Y-6069171D02*
X-9131917Y-6400786D01*
X-9355594Y-6069171D02*
X-8995044Y-6067221D01*
X-9243756Y-6234979D02*
X-9326659Y-6290898D01*
X-9065431Y-5873454D02*
X-8841754Y-6205069D01*
X-8995044Y-6067221D02*
X-9131917Y-6400786D01*
X-8953592Y-6039261D02*
X-8912141Y-6011302D01*
%TO.C,D58*%
X-8286072Y7460770D02*
X-8360386Y7527683D01*
X-8152246Y7609399D02*
X-8419898Y7312141D01*
X-8152246Y7609399D02*
X-8063128Y7260030D01*
X-8063128Y7260030D02*
X-8419898Y7312141D01*
X-8025971Y7226574D02*
X-7988814Y7193117D01*
X-7892145Y7375203D02*
X-8159797Y7077945D01*
%TO.C,D73*%
X-10666062Y-3255341D02*
X-10542455Y-3635764D01*
X-10666062Y-3255341D02*
X-10318942Y-3352846D01*
X-10604258Y-3445554D02*
X-10699364Y-3476454D01*
X-10333192Y-3147185D02*
X-10209585Y-3527608D01*
X-10318942Y-3352846D02*
X-10542455Y-3635764D01*
X-10271389Y-3337397D02*
X-10223836Y-3321946D01*
%TO.C,D88*%
X-2513816Y-10864740D02*
X-2255813Y-10612878D01*
X-2513816Y-10864740D02*
X-2122557Y-10947904D01*
X-2441047Y-10522388D02*
X-2049788Y-10605553D01*
X-2318187Y-10906322D02*
X-2338978Y-11004137D01*
X-2255813Y-10612878D02*
X-2122557Y-10947904D01*
X-2245418Y-10563970D02*
X-2235022Y-10515063D01*
%TO.C,D66*%
X-10980621Y1936147D02*
X-11079102Y1953512D01*
X-10945893Y2133109D02*
X-11015351Y1739186D01*
X-10945893Y2133109D02*
X-10685179Y1884053D01*
X-10685179Y1884053D02*
X-11015351Y1739186D01*
X-10635937Y1875370D02*
X-10586698Y1866688D01*
X-10601209Y2072332D02*
X-10670668Y1678409D01*
%TO.C,D7*%
X4210044Y-9947638D02*
X4575462Y-9784944D01*
X4352401Y-10267379D02*
X4413090Y-9911968D01*
X4352401Y-10267379D02*
X4717821Y-10104684D01*
X4392753Y-9866291D02*
X4372416Y-9820614D01*
X4413090Y-9911968D02*
X4717821Y-10104684D01*
X4535110Y-10186032D02*
X4575784Y-10277386D01*
%TO.C,D17*%
X9619267Y-4914185D02*
X9794615Y-4554667D01*
X9706941Y-4734426D02*
X9662001Y-4712507D01*
X9751881Y-4756344D02*
X10109193Y-4708097D01*
X9933845Y-5067614D02*
X9751881Y-4756344D01*
X9933845Y-5067614D02*
X10109193Y-4708097D01*
X10021519Y-4887856D02*
X10111399Y-4931693D01*
%TO.C,D5*%
X2784620Y-10436775D02*
X3169125Y-10326520D01*
X2881093Y-10773217D02*
X2990654Y-10429711D01*
X2881093Y-10773217D02*
X3265598Y-10662962D01*
X2976873Y-10381648D02*
X2963091Y-10333586D01*
X2990654Y-10429711D02*
X3265598Y-10662962D01*
X3073346Y-10718089D02*
X3100909Y-10814214D01*
%TO.C,D80*%
X-7889267Y-7881669D02*
X-7601531Y-8159533D01*
X-7889267Y-7881669D02*
X-7537001Y-7804799D01*
X-7745399Y-8020601D02*
X-7814865Y-8092535D01*
X-7646136Y-7629900D02*
X-7358400Y-7907764D01*
X-7537001Y-7804799D02*
X-7601531Y-8159533D01*
X-7502268Y-7768832D02*
X-7467535Y-7732865D01*
%TO.C,D23*%
X10786442Y-576798D02*
X10800402Y-177042D01*
X10793422Y-376920D02*
X10743452Y-375175D01*
X10843391Y-378665D02*
X11150189Y-189257D01*
X11136229Y-589013D02*
X10843391Y-378665D01*
X11136229Y-589013D02*
X11150189Y-189257D01*
X11143209Y-389135D02*
X11243148Y-392625D01*
%TO.C,D74*%
X-10412999Y-3991454D02*
X-10263156Y-4362328D01*
X-10412999Y-3991454D02*
X-10059922Y-4064509D01*
X-10338078Y-4176891D02*
X-10430796Y-4214352D01*
X-10088485Y-3860342D02*
X-9938642Y-4231215D01*
X-10059922Y-4064509D02*
X-10263156Y-4362328D01*
X-10013563Y-4045779D02*
X-9967204Y-4027048D01*
%TO.C,D60*%
X-9243756Y6234979D02*
X-9326659Y6290898D01*
X-9131917Y6400786D02*
X-9355594Y6069171D01*
X-9131917Y6400786D02*
X-8995044Y6067221D01*
X-8995044Y6067221D02*
X-9355594Y6069171D01*
X-8953592Y6039261D02*
X-8912141Y6011302D01*
X-8841754Y6205069D02*
X-9065431Y5873454D01*
%TO.C,D13*%
X7892145Y-7375203D02*
X8159797Y-7077945D01*
X8025971Y-7226574D02*
X7988814Y-7193117D01*
X8063128Y-7260030D02*
X8419898Y-7312141D01*
X8152246Y-7609399D02*
X8063128Y-7260030D01*
X8152246Y-7609399D02*
X8419898Y-7312141D01*
X8286072Y-7460770D02*
X8360386Y-7527683D01*
%TO.C,D29*%
X10013563Y4045779D02*
X9967204Y4027048D01*
X10059922Y4064509D02*
X10263156Y4362328D01*
X10088485Y3860342D02*
X9938642Y4231215D01*
X10338078Y4176891D02*
X10430796Y4214352D01*
X10412999Y3991454D02*
X10059922Y4064509D01*
X10412999Y3991454D02*
X10263156Y4362328D01*
%TO.C,D14*%
X8387366Y-6806770D02*
X8633630Y-6491566D01*
X8510498Y-6649168D02*
X8471097Y-6618385D01*
X8549898Y-6679951D02*
X8909434Y-6707047D01*
X8663169Y-7022251D02*
X8549898Y-6679951D01*
X8663169Y-7022251D02*
X8909434Y-6707047D01*
X8786302Y-6864649D02*
X8865103Y-6926215D01*
%TO.C,D1*%
X-200000Y-10800000D02*
X200000Y-10800000D01*
X-200000Y-11150000D02*
X0Y-10850000D01*
X-200000Y-11150000D02*
X200000Y-11150000D01*
X0Y-10800000D02*
X0Y-10750000D01*
X0Y-10850000D02*
X200000Y-11150000D01*
X0Y-11150000D02*
X0Y-11250000D01*
%TO.C,D3*%
X1305012Y-10722681D02*
X1701119Y-10667012D01*
X1353722Y-11069275D02*
X1510024Y-10744360D01*
X1353722Y-11069275D02*
X1749830Y-11013606D01*
X1503065Y-10694846D02*
X1496107Y-10645333D01*
X1510024Y-10744360D02*
X1749830Y-11013606D01*
X1551776Y-11041440D02*
X1565693Y-11140467D01*
%TO.C,D22*%
X10719890Y-1327799D02*
X10761701Y-929990D01*
X10740796Y-1128894D02*
X10691070Y-1123668D01*
X10790522Y-1134121D02*
X11109784Y-966575D01*
X11067973Y-1364384D02*
X10790522Y-1134121D01*
X11067973Y-1364384D02*
X11109784Y-966575D01*
X11088878Y-1165479D02*
X11188330Y-1175932D01*
%TO.C,D46*%
X0Y11150000D02*
X0Y11250000D01*
X0Y10850000D02*
X-200000Y11150000D01*
X0Y10800000D02*
X0Y10750000D01*
X200000Y11150000D02*
X-200000Y11150000D01*
X200000Y11150000D02*
X0Y10850000D01*
X200000Y10800000D02*
X-200000Y10800000D01*
%TO.C,D37*%
X6348043Y8737397D02*
X6318654Y8696946D01*
X6377432Y8777847D02*
X6391964Y9138110D01*
X6509846Y8619840D02*
X6186240Y8854954D01*
X6553768Y9020553D02*
X6612546Y9101454D01*
X6715571Y8902995D02*
X6377432Y8777847D01*
X6715571Y8902995D02*
X6391964Y9138110D01*
%TO.C,D63*%
X-10338078Y4176891D02*
X-10430796Y4214352D01*
X-10263156Y4362328D02*
X-10412999Y3991454D01*
X-10263156Y4362328D02*
X-10059922Y4064509D01*
X-10059922Y4064509D02*
X-10412999Y3991454D01*
X-10013563Y4045779D02*
X-9967204Y4027048D01*
X-9938642Y4231215D02*
X-10088485Y3860342D01*
%TO.C,D78*%
X-8909434Y-6707047D02*
X-8663169Y-7022251D01*
X-8909434Y-6707047D02*
X-8549898Y-6679951D01*
X-8786302Y-6864649D02*
X-8865103Y-6926215D01*
X-8633630Y-6491566D02*
X-8387366Y-6806770D01*
X-8549898Y-6679951D02*
X-8663169Y-7022251D01*
X-8510498Y-6649168D02*
X-8471097Y-6618385D01*
%TO.C,D86*%
X-4001442Y-10409150D02*
X-3710897Y-10195646D01*
X-4001442Y-10409150D02*
X-3625564Y-10545958D01*
X-3881734Y-10080257D02*
X-3505857Y-10217066D01*
X-3813503Y-10477554D02*
X-3847705Y-10571523D01*
X-3710897Y-10195646D02*
X-3625564Y-10545958D01*
X-3693796Y-10148661D02*
X-3676695Y-10101677D01*
%TO.C,J1*%
X2505000Y1370000D02*
X2505000Y735000D01*
X2505000Y735000D02*
X1870000Y735000D01*
%TO.C,D84*%
X-5411210Y-9750948D02*
X-5093779Y-9579958D01*
X-5411210Y-9750948D02*
X-5058031Y-9938736D01*
X-5246895Y-9441916D02*
X-4893716Y-9629705D01*
X-5234621Y-9844842D02*
X-5281568Y-9933137D01*
X-5093779Y-9579958D02*
X-5058031Y-9938736D01*
X-5070307Y-9535810D02*
X-5046832Y-9491663D01*
%TO.C,D53*%
X-5234621Y9844842D02*
X-5281568Y9933137D01*
X-5093779Y9579958D02*
X-5411210Y9750948D01*
X-5070307Y9535810D02*
X-5046832Y9491663D01*
X-5058031Y9938736D02*
X-5411210Y9750948D01*
X-5058031Y9938736D02*
X-5093779Y9579958D01*
X-4893716Y9629705D02*
X-5246895Y9441916D01*
%TO.C,D41*%
X3693796Y10148661D02*
X3676695Y10101677D01*
X3710897Y10195646D02*
X3625564Y10545958D01*
X3813503Y10477554D02*
X3847705Y10571523D01*
X3881734Y10080257D02*
X3505857Y10217066D01*
X4001442Y10409150D02*
X3625564Y10545958D01*
X4001442Y10409150D02*
X3710897Y10195646D01*
%TO.C,U1*%
X-4500000Y2000000D02*
X-4500000Y1600000D01*
X-4500000Y2000000D02*
X-4100000Y2000000D01*
X-4500000Y-2200000D02*
X-4500000Y-1800000D01*
X-4500000Y-2200000D02*
X-4100000Y-2200000D01*
X-300000Y2000000D02*
X-700000Y2000000D01*
X-300000Y2000000D02*
X-300000Y1600000D01*
X-300000Y-2200000D02*
X-700000Y-2200000D01*
X-300000Y-2200000D02*
X-300000Y-1800000D01*
X-300000Y1600000D02*
X-700000Y2000000D01*
X-300000Y2000000D01*
X-300000Y1600000D01*
G36*
X-300000Y1600000D02*
G01*
X-700000Y2000000D01*
X-300000Y2000000D01*
X-300000Y1600000D01*
G37*
%TO.C,D27*%
X10479241Y2612716D02*
X10430726Y2600620D01*
X10527625Y2418656D02*
X10430856Y2806775D01*
X10527756Y2624812D02*
X10770460Y2891447D01*
X10818844Y2697388D02*
X10915874Y2721580D01*
X10867229Y2503329D02*
X10527756Y2624812D01*
X10867229Y2503329D02*
X10770460Y2891447D01*
%TO.C,D19*%
X10209585Y-3527608D02*
X10333192Y-3147185D01*
X10271389Y-3337397D02*
X10223836Y-3321946D01*
X10318942Y-3352846D02*
X10666062Y-3255341D01*
X10542455Y-3635764D02*
X10318942Y-3352846D01*
X10542455Y-3635764D02*
X10666062Y-3255341D01*
X10604258Y-3445554D02*
X10699364Y-3476454D01*
%TO.C,D38*%
X5723116Y9158890D02*
X5696620Y9116488D01*
X5749612Y9201293D02*
X5738978Y9561691D01*
X5892726Y9052907D02*
X5553507Y9264874D01*
X5908588Y9455707D02*
X5961580Y9540512D01*
X6078198Y9349723D02*
X5738978Y9561691D01*
X6078198Y9349723D02*
X5749612Y9201293D01*
%TO.C,D9*%
X5553507Y-9264874D02*
X5892726Y-9052907D01*
X5723116Y-9158890D02*
X5696620Y-9116488D01*
X5738978Y-9561691D02*
X5749612Y-9201293D01*
X5738978Y-9561691D02*
X6078198Y-9349723D01*
X5749612Y-9201293D02*
X6078198Y-9349723D01*
X5908588Y-9455707D02*
X5961580Y-9540512D01*
%TO.C,D82*%
X-6715571Y-8902995D02*
X-6391964Y-9138110D01*
X-6715571Y-8902995D02*
X-6377432Y-8777847D01*
X-6553768Y-9020553D02*
X-6612546Y-9101454D01*
X-6509846Y-8619840D02*
X-6186240Y-8854954D01*
X-6377432Y-8777847D02*
X-6391964Y-9138110D01*
X-6348043Y-8737397D02*
X-6318654Y-8696946D01*
%TO.C,D39*%
X5070307Y9535810D02*
X5046832Y9491663D01*
X5093779Y9579958D02*
X5058031Y9938736D01*
X5234621Y9844842D02*
X5281568Y9933137D01*
X5246895Y9441916D02*
X4893716Y9629705D01*
X5411210Y9750948D02*
X5058031Y9938736D01*
X5411210Y9750948D02*
X5093779Y9579958D01*
%TO.C,D56*%
X-7167118Y8541407D02*
X-7231397Y8618011D01*
X-7013909Y8669964D02*
X-7320327Y8412849D01*
X-7013909Y8669964D02*
X-6974282Y8311593D01*
X-6974282Y8311593D02*
X-7320327Y8412849D01*
X-6942142Y8273291D02*
X-6910003Y8234989D01*
X-6788934Y8401849D02*
X-7095351Y8144734D01*
%TO.C,D2*%
X553836Y-10787638D02*
X952862Y-10759736D01*
X578251Y-11136786D02*
X756837Y-10823565D01*
X578251Y-11136786D02*
X977276Y-11108883D01*
X753349Y-10773687D02*
X749861Y-10723809D01*
X756837Y-10823565D02*
X977276Y-11108883D01*
X777763Y-11122835D02*
X784739Y-11222591D01*
D12*
%TO.C,U2*%
X64973Y-4699924D02*
X64973Y-4589941D01*
X65024Y-2399924D02*
X65024Y-2509906D01*
X685014Y-2399924D02*
X65024Y-2399924D01*
X685014Y-4699924D02*
X64973Y-4699924D01*
X1764948Y-2399898D02*
X2384989Y-2399898D01*
X1764973Y-4699847D02*
X2384989Y-4699847D01*
X2384989Y-2399898D02*
X2384989Y-2509881D01*
X2384989Y-4699847D02*
X2384989Y-4589865D01*
D13*
X262484Y-2549936D02*
G75*
G02*
X202540Y-2549936I-29972J0D01*
G01*
X202540Y-2549936D02*
G75*
G02*
X262484Y-2549936I29972J0D01*
G01*
D11*
%TO.C,D79*%
X-8419898Y-7312141D02*
X-8152246Y-7609399D01*
X-8419898Y-7312141D02*
X-8063128Y-7260030D01*
X-8286072Y-7460770D02*
X-8360386Y-7527683D01*
X-8159797Y-7077945D02*
X-7892145Y-7375203D01*
X-8063128Y-7260030D02*
X-8152246Y-7609399D01*
X-8025971Y-7226574D02*
X-7988814Y-7193117D01*
%TO.C,D54*%
X-5908588Y9455707D02*
X-5961580Y9540512D01*
X-5749612Y9201293D02*
X-6078198Y9349723D01*
X-5738978Y9561691D02*
X-6078198Y9349723D01*
X-5738978Y9561691D02*
X-5749612Y9201293D01*
X-5723116Y9158890D02*
X-5696620Y9116488D01*
X-5553507Y9264874D02*
X-5892726Y9052907D01*
%TO.C,D72*%
X-10867229Y-2503329D02*
X-10770460Y-2891447D01*
X-10867229Y-2503329D02*
X-10527756Y-2624812D01*
X-10818844Y-2697388D02*
X-10915874Y-2721580D01*
X-10527756Y-2624812D02*
X-10770460Y-2891447D01*
X-10527625Y-2418656D02*
X-10430856Y-2806775D01*
X-10479241Y-2612716D02*
X-10430726Y-2600620D01*
%TO.C,D45*%
X753349Y10773687D02*
X749861Y10723809D01*
X756837Y10823565D02*
X578251Y11136786D01*
X777763Y11122835D02*
X784739Y11222591D01*
X952862Y10759736D02*
X553836Y10787638D01*
X977276Y11108883D02*
X578251Y11136786D01*
X977276Y11108883D02*
X756837Y10823565D01*
%TO.C,D15*%
X8841754Y-6205069D02*
X9065431Y-5873454D01*
X8953592Y-6039261D02*
X8912141Y-6011302D01*
X8995044Y-6067221D02*
X9355594Y-6069171D01*
X9131917Y-6400786D02*
X8995044Y-6067221D01*
X9131917Y-6400786D02*
X9355594Y-6069171D01*
X9243756Y-6234979D02*
X9326659Y-6290898D01*
%TO.C,D8*%
X4893716Y-9629705D02*
X5246895Y-9441916D01*
X5058031Y-9938736D02*
X5093779Y-9579958D01*
X5058031Y-9938736D02*
X5411210Y-9750948D01*
X5070307Y-9535810D02*
X5046832Y-9491663D01*
X5093779Y-9579958D02*
X5411210Y-9750948D01*
X5234621Y-9844842D02*
X5281568Y-9933137D01*
%TO.C,D68*%
X-11143209Y389135D02*
X-11243148Y392625D01*
X-11136229Y589013D02*
X-11150189Y189257D01*
X-11136229Y589013D02*
X-10843391Y378665D01*
X-10843391Y378665D02*
X-11150189Y189257D01*
X-10793422Y376920D02*
X-10743452Y375175D01*
X-10786442Y576798D02*
X-10800402Y177042D01*
%TO.C,D35*%
X7502268Y7768832D02*
X7467535Y7732865D01*
X7537001Y7804799D02*
X7601531Y8159533D01*
X7646136Y7629900D02*
X7358400Y7907764D01*
X7745399Y8020601D02*
X7814865Y8092535D01*
X7889267Y7881669D02*
X7537001Y7804799D01*
X7889267Y7881669D02*
X7601531Y8159533D01*
%TO.C,D64*%
X-10604258Y3445554D02*
X-10699364Y3476454D01*
X-10542455Y3635764D02*
X-10666062Y3255341D01*
X-10542455Y3635764D02*
X-10318942Y3352846D01*
X-10318942Y3352846D02*
X-10666062Y3255341D01*
X-10271389Y3337397D02*
X-10223836Y3321946D01*
X-10209585Y3527608D02*
X-10333192Y3147185D01*
%TO.C,D6*%
X3505857Y-10217066D02*
X3881734Y-10080257D01*
X3625564Y-10545958D02*
X3710897Y-10195646D01*
X3625564Y-10545958D02*
X4001442Y-10409150D01*
X3693796Y-10148661D02*
X3676695Y-10101677D01*
X3710897Y-10195646D02*
X4001442Y-10409150D01*
X3813503Y-10477554D02*
X3847705Y-10571523D01*
%TO.C,D48*%
X-1551776Y11041440D02*
X-1565693Y11140467D01*
X-1510024Y10744360D02*
X-1749830Y11013606D01*
X-1503065Y10694846D02*
X-1496107Y10645333D01*
X-1353722Y11069275D02*
X-1749830Y11013606D01*
X-1353722Y11069275D02*
X-1510024Y10744360D01*
X-1305012Y10722681D02*
X-1701119Y10667012D01*
%TO.C,D57*%
X-7745399Y8020601D02*
X-7814865Y8092535D01*
X-7601531Y8159533D02*
X-7889267Y7881669D01*
X-7601531Y8159533D02*
X-7537001Y7804799D01*
X-7537001Y7804799D02*
X-7889267Y7881669D01*
X-7502268Y7768832D02*
X-7467535Y7732865D01*
X-7358400Y7907764D02*
X-7646136Y7629900D01*
%TO.C,D61*%
X-9656204Y5575000D02*
X-9742806Y5625000D01*
X-9556204Y5748205D02*
X-9756204Y5401795D01*
X-9556204Y5748205D02*
X-9396396Y5425000D01*
X-9396396Y5425000D02*
X-9756204Y5401795D01*
X-9353095Y5400000D02*
X-9309794Y5375000D01*
X-9253095Y5573205D02*
X-9453095Y5226795D01*
%TO.C,D69*%
X-11150189Y-189257D02*
X-11136229Y-589013D01*
X-11150189Y-189257D02*
X-10843391Y-378665D01*
X-11143209Y-389135D02*
X-11243148Y-392625D01*
X-10843391Y-378665D02*
X-11136229Y-589013D01*
X-10800402Y-177042D02*
X-10786442Y-576798D01*
X-10793422Y-376920D02*
X-10743452Y-375175D01*
%TO.C,D75*%
X-10109193Y-4708097D02*
X-9933845Y-5067614D01*
X-10109193Y-4708097D02*
X-9751881Y-4756344D01*
X-10021519Y-4887856D02*
X-10111399Y-4931693D01*
X-9794615Y-4554667D02*
X-9619267Y-4914185D01*
X-9751881Y-4756344D02*
X-9933845Y-5067614D01*
X-9706941Y-4734426D02*
X-9662001Y-4712507D01*
%TO.C,D65*%
X-10818844Y2697388D02*
X-10915874Y2721580D01*
X-10770460Y2891447D02*
X-10867229Y2503329D01*
X-10770460Y2891447D02*
X-10527756Y2624812D01*
X-10527756Y2624812D02*
X-10867229Y2503329D01*
X-10479241Y2612716D02*
X-10430726Y2600620D01*
X-10430856Y2806775D02*
X-10527625Y2418656D01*
%TO.C,D4*%
X2049788Y-10605553D02*
X2441047Y-10522388D01*
X2122557Y-10947904D02*
X2255813Y-10612878D01*
X2122557Y-10947904D02*
X2513816Y-10864740D01*
X2245418Y-10563970D02*
X2235022Y-10515063D01*
X2255813Y-10612878D02*
X2513816Y-10864740D01*
X2318187Y-10906322D02*
X2338978Y-11004137D01*
%TO.C,D24*%
X10793422Y376920D02*
X10743452Y375175D01*
X10800402Y177042D02*
X10786442Y576798D01*
X10843391Y378665D02*
X11136229Y589013D01*
X11143209Y389135D02*
X11243148Y392625D01*
X11150189Y189257D02*
X10843391Y378665D01*
X11150189Y189257D02*
X11136229Y589013D01*
%TO.C,D81*%
X-7320327Y-8412849D02*
X-7013909Y-8669964D01*
X-7320327Y-8412849D02*
X-6974282Y-8311593D01*
X-7167118Y-8541407D02*
X-7231397Y-8618011D01*
X-7095351Y-8144734D02*
X-6788934Y-8401849D01*
X-6974282Y-8311593D02*
X-7013909Y-8669964D01*
X-6942142Y-8273291D02*
X-6910003Y-8234989D01*
%TD*%
M02*
