%TF.GenerationSoftware,KiCad,Pcbnew,9.0.7*%
%TF.CreationDate,2026-03-07T17:36:49+01:00*%
%TF.ProjectId,halo-90,68616c6f-2d39-4302-9e6b-696361645f70,0V8*%
%TF.SameCoordinates,Original*%
%TF.FileFunction,Soldermask,Top*%
%TF.FilePolarity,Negative*%
%FSLAX46Y46*%
G04 Gerber Fmt 4.6, Leading zero omitted, Abs format (unit mm)*
G04 Created by KiCad (PCBNEW 9.0.7) date 2026-03-07 17:36:49*
%MOMM*%
%LPD*%
G01*
G04 APERTURE LIST*
G04 Aperture macros list*
%AMRoundRect*
0 Rectangle with rounded corners*
0 $1 Rounding radius*
0 $2 $3 $4 $5 $6 $7 $8 $9 X,Y pos of 4 corners*
0 Add a 4 corners polygon primitive as box body*
4,1,4,$2,$3,$4,$5,$6,$7,$8,$9,$2,$3,0*
0 Add four circle primitives for the rounded corners*
1,1,$1+$1,$2,$3*
1,1,$1+$1,$4,$5*
1,1,$1+$1,$6,$7*
1,1,$1+$1,$8,$9*
0 Add four rect primitives between the rounded corners*
20,1,$1+$1,$2,$3,$4,$5,0*
20,1,$1+$1,$4,$5,$6,$7,0*
20,1,$1+$1,$6,$7,$8,$9,0*
20,1,$1+$1,$8,$9,$2,$3,0*%
%AMRotRect*
0 Rectangle, with rotation*
0 The origin of the aperture is its center*
0 $1 length*
0 $2 width*
0 $3 Rotation angle, in degrees counterclockwise*
0 Add horizontal line*
21,1,$1,$2,0,0,$3*%
%AMOutline5P*
0 Free polygon, 5 corners , with rotation*
0 The origin of the aperture is its center*
0 number of corners: always 5*
0 $1 to $10 corner X, Y*
0 $11 Rotation angle, in degrees counterclockwise*
0 create outline with 5 corners*
4,1,5,$1,$2,$3,$4,$5,$6,$7,$8,$9,$10,$1,$2,$11*%
%AMOutline6P*
0 Free polygon, 6 corners , with rotation*
0 The origin of the aperture is its center*
0 number of corners: always 6*
0 $1 to $12 corner X, Y*
0 $13 Rotation angle, in degrees counterclockwise*
0 create outline with 6 corners*
4,1,6,$1,$2,$3,$4,$5,$6,$7,$8,$9,$10,$11,$12,$1,$2,$13*%
%AMOutline7P*
0 Free polygon, 7 corners , with rotation*
0 The origin of the aperture is its center*
0 number of corners: always 7*
0 $1 to $14 corner X, Y*
0 $15 Rotation angle, in degrees counterclockwise*
0 create outline with 7 corners*
4,1,7,$1,$2,$3,$4,$5,$6,$7,$8,$9,$10,$11,$12,$13,$14,$1,$2,$15*%
%AMOutline8P*
0 Free polygon, 8 corners , with rotation*
0 The origin of the aperture is its center*
0 number of corners: always 8*
0 $1 to $16 corner X, Y*
0 $17 Rotation angle, in degrees counterclockwise*
0 create outline with 8 corners*
4,1,8,$1,$2,$3,$4,$5,$6,$7,$8,$9,$10,$11,$12,$13,$14,$15,$16,$1,$2,$17*%
%AMFreePoly0*
4,1,15,-0.200000,0.049999,0.000000,0.250001,0.160000,0.250000,0.175307,0.246955,0.188284,0.238284,0.196955,0.225307,0.200000,0.210000,0.200000,-0.210001,0.196955,-0.225307,0.188284,-0.238284,0.175307,-0.246955,0.160000,-0.250000,0.000000,-0.250001,-0.200000,-0.050000,-0.200000,0.049999,-0.200000,0.049999,$1*%
%AMFreePoly1*
4,1,18,-0.137500,0.181250,-0.132267,0.207559,-0.117364,0.229864,-0.095059,0.244767,-0.068750,0.250000,0.068750,0.250000,0.095059,0.244767,0.117364,0.229864,0.132267,0.207559,0.137500,0.181250,0.137500,-0.112500,0.000000,-0.250000,-0.068750,-0.250000,-0.095059,-0.244767,-0.117364,-0.229864,-0.132267,-0.207559,-0.137500,-0.181250,-0.137500,0.181250,-0.137500,0.181250,$1*%
%AMFreePoly2*
4,1,21,-0.137500,0.181250,-0.132267,0.207559,-0.117364,0.229864,-0.095059,0.244767,-0.068750,0.250000,0.068750,0.250000,0.095059,0.244767,0.117364,0.229864,0.132267,0.207559,0.137500,0.181250,0.137500,-0.181250,0.132267,-0.207559,0.117364,-0.229864,0.095059,-0.244767,0.068750,-0.250000,-0.068750,-0.250000,-0.095059,-0.244767,-0.117364,-0.229864,-0.132267,-0.207559,-0.137500,-0.181250,
-0.137500,0.181250,-0.137500,0.181250,$1*%
%AMFreePoly3*
4,1,18,-0.137500,0.181250,-0.132267,0.207559,-0.117364,0.229864,-0.095059,0.244767,-0.068750,0.250000,0.068750,0.250000,0.095059,0.244767,0.117364,0.229864,0.132267,0.207559,0.137500,0.181250,0.137500,-0.181250,0.132267,-0.207559,0.117364,-0.229864,0.095059,-0.244767,0.068750,-0.250000,0.000000,-0.250000,-0.137500,-0.112500,-0.137500,0.181250,-0.137500,0.181250,$1*%
G04 Aperture macros list end*
%ADD10FreePoly0,26.000000*%
%ADD11RotRect,0.400000X0.500000X206.000000*%
%ADD12FreePoly0,186.000000*%
%ADD13RotRect,0.400000X0.500000X6.000000*%
%ADD14FreePoly0,102.000000*%
%ADD15RotRect,0.400000X0.500000X282.000000*%
%ADD16FreePoly0,314.000000*%
%ADD17RotRect,0.400000X0.500000X134.000000*%
%ADD18FreePoly0,210.000000*%
%ADD19RotRect,0.400000X0.500000X30.000000*%
%ADD20FreePoly0,78.000000*%
%ADD21RotRect,0.400000X0.500000X258.000000*%
%ADD22FreePoly0,350.000000*%
%ADD23RotRect,0.400000X0.500000X170.000000*%
%ADD24FreePoly0,174.000000*%
%ADD25RotRect,0.400000X0.500000X354.000000*%
%ADD26FreePoly0,94.000000*%
%ADD27RotRect,0.400000X0.500000X274.000000*%
%ADD28FreePoly0,238.000000*%
%ADD29RotRect,0.400000X0.500000X58.000000*%
%ADD30FreePoly0,266.000000*%
%ADD31RotRect,0.400000X0.500000X86.000000*%
%ADD32Outline5P,-0.350000X0.500000X0.350000X0.500000X0.350000X-0.500000X-0.210000X-0.500000X-0.350000X-0.360000X0.000000*%
%ADD33R,0.700000X1.000000*%
%ADD34FreePoly0,30.000000*%
%ADD35RotRect,0.400000X0.500000X210.000000*%
%ADD36FreePoly0,106.000000*%
%ADD37RotRect,0.400000X0.500000X286.000000*%
%ADD38FreePoly0,110.000000*%
%ADD39RotRect,0.400000X0.500000X290.000000*%
%ADD40FreePoly0,34.000000*%
%ADD41RotRect,0.400000X0.500000X214.000000*%
%ADD42FreePoly0,66.000000*%
%ADD43RotRect,0.400000X0.500000X246.000000*%
%ADD44FreePoly0,10.000000*%
%ADD45RotRect,0.400000X0.500000X190.000000*%
%ADD46FreePoly0,38.000000*%
%ADD47RotRect,0.400000X0.500000X218.000000*%
%ADD48FreePoly0,50.000000*%
%ADD49RotRect,0.400000X0.500000X230.000000*%
%ADD50FreePoly0,42.000000*%
%ADD51RotRect,0.400000X0.500000X222.000000*%
%ADD52FreePoly0,346.000000*%
%ADD53RotRect,0.400000X0.500000X166.000000*%
%ADD54FreePoly0,254.000000*%
%ADD55RotRect,0.400000X0.500000X74.000000*%
%ADD56FreePoly0,154.000000*%
%ADD57RotRect,0.400000X0.500000X334.000000*%
%ADD58FreePoly0,262.000000*%
%ADD59RotRect,0.400000X0.500000X82.000000*%
%ADD60FreePoly0,6.000000*%
%ADD61RotRect,0.400000X0.500000X186.000000*%
%ADD62FreePoly0,18.000000*%
%ADD63RotRect,0.400000X0.500000X198.000000*%
%ADD64FreePoly0,190.000000*%
%ADD65RotRect,0.400000X0.500000X10.000000*%
%ADD66FreePoly0,74.000000*%
%ADD67RotRect,0.400000X0.500000X254.000000*%
%ADD68FreePoly0,142.000000*%
%ADD69RotRect,0.400000X0.500000X322.000000*%
%ADD70FreePoly0,246.000000*%
%ADD71RotRect,0.400000X0.500000X66.000000*%
%ADD72FreePoly0,310.000000*%
%ADD73RotRect,0.400000X0.500000X130.000000*%
%ADD74FreePoly0,82.000000*%
%ADD75RotRect,0.400000X0.500000X262.000000*%
%ADD76FreePoly0,338.000000*%
%ADD77RotRect,0.400000X0.500000X158.000000*%
%ADD78FreePoly0,330.000000*%
%ADD79RotRect,0.400000X0.500000X150.000000*%
%ADD80FreePoly0,126.000000*%
%ADD81RotRect,0.400000X0.500000X306.000000*%
%ADD82FreePoly0,114.000000*%
%ADD83RotRect,0.400000X0.500000X294.000000*%
%ADD84FreePoly0,306.000000*%
%ADD85RotRect,0.400000X0.500000X126.000000*%
%ADD86RoundRect,0.150000X-0.150000X-0.150000X0.150000X-0.150000X0.150000X0.150000X-0.150000X0.150000X0*%
%ADD87FreePoly0,214.000000*%
%ADD88RotRect,0.400000X0.500000X34.000000*%
%ADD89FreePoly0,138.000000*%
%ADD90RotRect,0.400000X0.500000X318.000000*%
%ADD91FreePoly0,198.000000*%
%ADD92RotRect,0.400000X0.500000X18.000000*%
%ADD93FreePoly0,258.000000*%
%ADD94RotRect,0.400000X0.500000X78.000000*%
%ADD95FreePoly0,170.000000*%
%ADD96RotRect,0.400000X0.500000X350.000000*%
%ADD97FreePoly0,294.000000*%
%ADD98RotRect,0.400000X0.500000X114.000000*%
%ADD99FreePoly0,334.000000*%
%ADD100RotRect,0.400000X0.500000X154.000000*%
%ADD101FreePoly0,286.000000*%
%ADD102RotRect,0.400000X0.500000X106.000000*%
%ADD103FreePoly0,226.000000*%
%ADD104RotRect,0.400000X0.500000X46.000000*%
%ADD105FreePoly0,358.000000*%
%ADD106RotRect,0.400000X0.500000X178.000000*%
%ADD107FreePoly0,202.000000*%
%ADD108RotRect,0.400000X0.500000X22.000000*%
%ADD109FreePoly0,146.000000*%
%ADD110RotRect,0.400000X0.500000X326.000000*%
%ADD111FreePoly0,318.000000*%
%ADD112RotRect,0.400000X0.500000X138.000000*%
%ADD113FreePoly0,22.000000*%
%ADD114RotRect,0.400000X0.500000X202.000000*%
%ADD115FreePoly0,322.000000*%
%ADD116RotRect,0.400000X0.500000X142.000000*%
%ADD117FreePoly0,270.000000*%
%ADD118R,0.500000X0.400000*%
%ADD119FreePoly0,278.000000*%
%ADD120RotRect,0.400000X0.500000X98.000000*%
%ADD121FreePoly0,354.000000*%
%ADD122RotRect,0.400000X0.500000X174.000000*%
%ADD123FreePoly0,90.000000*%
%ADD124FreePoly0,54.000000*%
%ADD125RotRect,0.400000X0.500000X234.000000*%
%ADD126FreePoly0,158.000000*%
%ADD127RotRect,0.400000X0.500000X338.000000*%
%ADD128FreePoly0,218.000000*%
%ADD129RotRect,0.400000X0.500000X38.000000*%
%ADD130FreePoly0,250.000000*%
%ADD131RotRect,0.400000X0.500000X70.000000*%
%ADD132C,0.990600*%
%ADD133C,0.787400*%
%ADD134FreePoly0,242.000000*%
%ADD135RotRect,0.400000X0.500000X62.000000*%
%ADD136FreePoly0,118.000000*%
%ADD137RotRect,0.400000X0.500000X298.000000*%
%ADD138FreePoly0,70.000000*%
%ADD139RotRect,0.400000X0.500000X250.000000*%
%ADD140FreePoly1,0.000000*%
%ADD141FreePoly2,0.000000*%
%ADD142FreePoly3,0.000000*%
%ADD143FreePoly1,90.000000*%
%ADD144FreePoly2,90.000000*%
%ADD145FreePoly3,90.000000*%
%ADD146FreePoly1,180.000000*%
%ADD147FreePoly2,180.000000*%
%ADD148FreePoly3,180.000000*%
%ADD149FreePoly1,270.000000*%
%ADD150FreePoly2,270.000000*%
%ADD151FreePoly3,270.000000*%
%ADD152FreePoly0,14.000000*%
%ADD153RotRect,0.400000X0.500000X194.000000*%
%ADD154FreePoly0,342.000000*%
%ADD155RotRect,0.400000X0.500000X162.000000*%
%ADD156FreePoly0,58.000000*%
%ADD157RotRect,0.400000X0.500000X238.000000*%
%ADD158FreePoly0,302.000000*%
%ADD159RotRect,0.400000X0.500000X122.000000*%
%ADD160FreePoly0,234.000000*%
%ADD161RotRect,0.400000X0.500000X54.000000*%
%ADD162RoundRect,0.150000X-0.150000X0.150000X-0.150000X-0.150000X0.150000X-0.150000X0.150000X0.150000X0*%
%ADD163FreePoly0,62.000000*%
%ADD164RotRect,0.400000X0.500000X242.000000*%
%ADD165FreePoly0,130.000000*%
%ADD166RotRect,0.400000X0.500000X310.000000*%
%ADD167FreePoly0,274.000000*%
%ADD168RotRect,0.400000X0.500000X94.000000*%
%ADD169R,0.700000X0.280010*%
%ADD170R,0.280010X0.700000*%
%ADD171FreePoly0,222.000000*%
%ADD172RotRect,0.400000X0.500000X42.000000*%
%ADD173FreePoly0,122.000000*%
%ADD174RotRect,0.400000X0.500000X302.000000*%
%ADD175FreePoly0,194.000000*%
%ADD176RotRect,0.400000X0.500000X14.000000*%
%ADD177FreePoly0,86.000000*%
%ADD178RotRect,0.400000X0.500000X266.000000*%
%ADD179FreePoly0,326.000000*%
%ADD180RotRect,0.400000X0.500000X146.000000*%
%ADD181FreePoly0,298.000000*%
%ADD182RotRect,0.400000X0.500000X118.000000*%
%ADD183FreePoly0,178.000000*%
%ADD184RotRect,0.400000X0.500000X358.000000*%
%ADD185FreePoly0,46.000000*%
%ADD186RotRect,0.400000X0.500000X226.000000*%
%ADD187FreePoly0,162.000000*%
%ADD188RotRect,0.400000X0.500000X342.000000*%
%ADD189FreePoly0,290.000000*%
%ADD190RotRect,0.400000X0.500000X110.000000*%
%ADD191FreePoly0,98.000000*%
%ADD192RotRect,0.400000X0.500000X278.000000*%
%ADD193RoundRect,0.150000X0.150000X-0.150000X0.150000X0.150000X-0.150000X0.150000X-0.150000X-0.150000X0*%
%ADD194FreePoly0,134.000000*%
%ADD195RotRect,0.400000X0.500000X314.000000*%
%ADD196FreePoly0,150.000000*%
%ADD197RotRect,0.400000X0.500000X330.000000*%
%ADD198FreePoly0,182.000000*%
%ADD199RotRect,0.400000X0.500000X2.000000*%
%ADD200FreePoly0,206.000000*%
%ADD201RotRect,0.400000X0.500000X26.000000*%
%ADD202FreePoly0,166.000000*%
%ADD203RotRect,0.400000X0.500000X346.000000*%
%ADD204FreePoly0,282.000000*%
%ADD205RotRect,0.400000X0.500000X102.000000*%
%ADD206RoundRect,0.150000X0.150000X0.150000X-0.150000X0.150000X-0.150000X-0.150000X0.150000X-0.150000X0*%
%ADD207FreePoly0,2.000000*%
%ADD208RotRect,0.400000X0.500000X182.000000*%
%ADD209FreePoly0,230.000000*%
%ADD210RotRect,0.400000X0.500000X50.000000*%
G04 APERTURE END LIST*
D10*
%TO.C,D30*%
X9414833Y4591955D03*
D11*
X10358567Y5052245D03*
%TD*%
D12*
%TO.C,D70*%
X-10417576Y-1094923D03*
D13*
X-11461824Y-1204677D03*
%TD*%
D14*
%TO.C,D49*%
X-2177846Y10246073D03*
D15*
X-2396154Y11273127D03*
%TD*%
D16*
%TO.C,D12*%
X7276504Y-7535047D03*
D17*
X8005896Y-8290353D03*
%TD*%
D18*
%TO.C,D76*%
X-9071637Y-5237500D03*
D19*
X-9980963Y-5762500D03*
%TD*%
D20*
%TO.C,D43*%
X2177846Y10246073D03*
D21*
X2396154Y11273127D03*
%TD*%
D22*
%TO.C,D21*%
X10315876Y-1818935D03*
D23*
X11349924Y-2001265D03*
%TD*%
D24*
%TO.C,D67*%
X-10417576Y1094923D03*
D25*
X-11461824Y1204677D03*
%TD*%
D26*
%TO.C,D47*%
X-730678Y10449479D03*
D27*
X-803922Y11496921D03*
%TD*%
D28*
%TO.C,D83*%
X-5550892Y-8883275D03*
D29*
X-6107308Y-9773725D03*
%TD*%
D30*
%TO.C,D90*%
X-730678Y-10449479D03*
D31*
X-803922Y-11496921D03*
%TD*%
D32*
%TO.C,U3*%
X5150000Y3200000D03*
D33*
X3250000Y3200000D03*
X4200000Y800000D03*
%TD*%
D34*
%TO.C,D31*%
X9071637Y5237500D03*
D35*
X9980963Y5762500D03*
%TD*%
D36*
%TO.C,D50*%
X-2887290Y10069238D03*
D37*
X-3176710Y11078562D03*
%TD*%
D38*
%TO.C,D51*%
X-3582639Y9843261D03*
D39*
X-3941761Y10829939D03*
%TD*%
D40*
%TO.C,D32*%
X8684155Y5857524D03*
D41*
X9554645Y6444676D03*
%TD*%
D42*
%TO.C,D40*%
X4260563Y9569389D03*
D43*
X4687637Y10528611D03*
%TD*%
D44*
%TO.C,D26*%
X10315876Y1818935D03*
D45*
X11349924Y2001265D03*
%TD*%
D46*
%TO.C,D33*%
X8254394Y6449078D03*
D47*
X9081806Y7095522D03*
%TD*%
D48*
%TO.C,D36*%
X6733237Y8024327D03*
D49*
X7408163Y8828673D03*
%TD*%
D50*
%TO.C,D34*%
X7784449Y7009106D03*
D51*
X8564751Y7711694D03*
%TD*%
D52*
%TO.C,D20*%
X10163895Y-2534091D03*
D53*
X11182705Y-2788109D03*
%TD*%
D54*
%TO.C,D87*%
X-2887290Y-10069238D03*
D55*
X-3176710Y-11078562D03*
%TD*%
D56*
%TO.C,D62*%
X-9414833Y4591955D03*
D57*
X-10358567Y5052245D03*
%TD*%
D58*
%TO.C,D89*%
X-1457834Y-10373009D03*
D59*
X-1603966Y-11412791D03*
%TD*%
D60*
%TO.C,D25*%
X10417576Y1094923D03*
D61*
X11461824Y1204677D03*
%TD*%
D62*
%TO.C,D28*%
X9962295Y3236966D03*
D63*
X10960905Y3561434D03*
%TD*%
D64*
%TO.C,D71*%
X-10315876Y-1818935D03*
D65*
X-11349924Y-2001265D03*
%TD*%
D66*
%TO.C,D42*%
X2887290Y10069238D03*
D67*
X3176710Y11078562D03*
%TD*%
D68*
%TO.C,D59*%
X-8254394Y6449078D03*
D69*
X-9081806Y7095522D03*
%TD*%
D70*
%TO.C,D85*%
X-4260563Y-9569389D03*
D71*
X-4687637Y-10528611D03*
%TD*%
D72*
%TO.C,D11*%
X6733237Y-8024327D03*
D73*
X7408163Y-8828673D03*
%TD*%
D74*
%TO.C,D44*%
X1457834Y10373009D03*
D75*
X1603966Y11412791D03*
%TD*%
D76*
%TO.C,D18*%
X9712228Y-3924032D03*
D77*
X10685772Y-4317368D03*
%TD*%
D78*
%TO.C,D16*%
X9071637Y-5237500D03*
D79*
X9980963Y-5762500D03*
%TD*%
D80*
%TO.C,D55*%
X-6157013Y8474466D03*
D81*
X-6774187Y9323934D03*
%TD*%
D82*
%TO.C,D52*%
X-4260563Y9569389D03*
D83*
X-4687637Y10528611D03*
%TD*%
D84*
%TO.C,D10*%
X6157013Y-8474466D03*
D85*
X6774187Y-9323934D03*
%TD*%
D86*
%TO.C,R2*%
X1100000Y-1500000D03*
X2100000Y-1500000D03*
%TD*%
D87*
%TO.C,D77*%
X-8684155Y-5857524D03*
D88*
X-9554645Y-6444676D03*
%TD*%
D89*
%TO.C,D58*%
X-7784449Y7009106D03*
D90*
X-8564751Y7711694D03*
%TD*%
D91*
%TO.C,D73*%
X-9962295Y-3236966D03*
D92*
X-10960905Y-3561434D03*
%TD*%
D93*
%TO.C,D88*%
X-2177846Y-10246073D03*
D94*
X-2396154Y-11273127D03*
%TD*%
D95*
%TO.C,D66*%
X-10315876Y1818935D03*
D96*
X-11349924Y2001265D03*
%TD*%
D86*
%TO.C,C2*%
X-4500000Y2700000D03*
X-3500000Y2700000D03*
%TD*%
D97*
%TO.C,D7*%
X4260563Y-9569389D03*
D98*
X4687637Y-10528611D03*
%TD*%
D99*
%TO.C,D17*%
X9414833Y-4591955D03*
D100*
X10358567Y-5052245D03*
%TD*%
D101*
%TO.C,D5*%
X2887290Y-10069238D03*
D102*
X3176710Y-11078562D03*
%TD*%
D103*
%TO.C,D80*%
X-7276504Y-7535047D03*
D104*
X-8005896Y-8290353D03*
%TD*%
D105*
%TO.C,D23*%
X10468620Y-365578D03*
D106*
X11517980Y-402222D03*
%TD*%
D107*
%TO.C,D74*%
X-9712228Y-3924032D03*
D108*
X-10685772Y-4317368D03*
%TD*%
D109*
%TO.C,D60*%
X-8684155Y5857524D03*
D110*
X-9554645Y6444676D03*
%TD*%
D111*
%TO.C,D13*%
X7784449Y-7009106D03*
D112*
X8564751Y-7711694D03*
%TD*%
D113*
%TO.C,D29*%
X9712228Y3924032D03*
D114*
X10685772Y4317368D03*
%TD*%
D115*
%TO.C,D14*%
X8254394Y-6449078D03*
D116*
X9081806Y-7095522D03*
%TD*%
D117*
%TO.C,D1*%
X0Y-10475000D03*
D118*
X0Y-11525000D03*
%TD*%
D119*
%TO.C,D3*%
X1457834Y-10373009D03*
D120*
X1603966Y-11412791D03*
%TD*%
D121*
%TO.C,D22*%
X10417576Y-1094923D03*
D122*
X11461824Y-1204677D03*
%TD*%
D123*
%TO.C,D46*%
X0Y10475000D03*
D118*
X0Y11525000D03*
%TD*%
D124*
%TO.C,D37*%
X6157013Y8474466D03*
D125*
X6774187Y9323934D03*
%TD*%
D126*
%TO.C,D63*%
X-9712228Y3924032D03*
D127*
X-10685772Y4317368D03*
%TD*%
D128*
%TO.C,D78*%
X-8254394Y-6449078D03*
D129*
X-9081806Y-7095522D03*
%TD*%
D130*
%TO.C,D86*%
X-3582639Y-9843261D03*
D131*
X-3941761Y-10829939D03*
%TD*%
D132*
%TO.C,J1*%
X1235000Y100000D03*
X219000Y5180000D03*
X2251000Y5180000D03*
D133*
X1870000Y1370000D03*
X600000Y1370000D03*
X1870000Y2640000D03*
X600000Y2640000D03*
X1870000Y3910000D03*
X600000Y3910000D03*
%TD*%
D134*
%TO.C,D84*%
X-4917727Y-9248853D03*
D135*
X-5410673Y-10175947D03*
%TD*%
D136*
%TO.C,D53*%
X-4917727Y9248853D03*
D137*
X-5410673Y10175947D03*
%TD*%
D138*
%TO.C,D41*%
X3582639Y9843261D03*
D139*
X3941761Y10829939D03*
%TD*%
D140*
%TO.C,U1*%
X-900000Y1800000D03*
D141*
X-1400000Y1800000D03*
X-1900000Y1800000D03*
X-2400000Y1800000D03*
X-2900000Y1800000D03*
X-3400000Y1800000D03*
D142*
X-3900000Y1800000D03*
D143*
X-4300000Y1400000D03*
D144*
X-4300000Y900000D03*
X-4300000Y400000D03*
X-4300000Y-100000D03*
X-4300000Y-600000D03*
X-4300000Y-1100000D03*
D145*
X-4300000Y-1600000D03*
D146*
X-3900000Y-2000000D03*
D147*
X-3400000Y-2000000D03*
X-2900000Y-2000000D03*
X-2400000Y-2000000D03*
X-1900000Y-2000000D03*
X-1400000Y-2000000D03*
D148*
X-900000Y-2000000D03*
D149*
X-500000Y-1600000D03*
D150*
X-500000Y-1100000D03*
X-500000Y-600000D03*
X-500000Y-100000D03*
X-500000Y400000D03*
X-500000Y900000D03*
D151*
X-500000Y1400000D03*
%TD*%
D152*
%TO.C,D27*%
X10163895Y2534091D03*
D153*
X11182705Y2788109D03*
%TD*%
D154*
%TO.C,D19*%
X9962295Y-3236966D03*
D155*
X10960905Y-3561434D03*
%TD*%
D156*
%TO.C,D38*%
X5550892Y8883275D03*
D157*
X6107308Y9773725D03*
%TD*%
D158*
%TO.C,D9*%
X5550892Y-8883275D03*
D159*
X6107308Y-9773725D03*
%TD*%
D160*
%TO.C,D82*%
X-6157013Y-8474466D03*
D161*
X-6774187Y-9323934D03*
%TD*%
D162*
%TO.C,R1*%
X-750000Y-3400000D03*
X-750000Y-4400000D03*
%TD*%
D163*
%TO.C,D39*%
X4917727Y9248853D03*
D164*
X5410673Y10175947D03*
%TD*%
D165*
%TO.C,D56*%
X-6733237Y8024327D03*
D166*
X-7408163Y8828673D03*
%TD*%
D167*
%TO.C,D2*%
X730678Y-10449479D03*
D168*
X803922Y-11496921D03*
%TD*%
D169*
%TO.C,U2*%
X250038Y-2799873D03*
X250038Y-3300000D03*
X250038Y-3799873D03*
X250038Y-4300000D03*
D170*
X975210Y-4524790D03*
X1475083Y-4524790D03*
D169*
X2200000Y-4300000D03*
X2200000Y-3799873D03*
X2200000Y-3300000D03*
X2200000Y-2799873D03*
D170*
X1475083Y-2574828D03*
X975210Y-2574828D03*
%TD*%
D171*
%TO.C,D79*%
X-7784449Y-7009106D03*
D172*
X-8564751Y-7711694D03*
%TD*%
D173*
%TO.C,D54*%
X-5550892Y8883275D03*
D174*
X-6107308Y9773725D03*
%TD*%
D175*
%TO.C,D72*%
X-10163895Y-2534091D03*
D176*
X-11182705Y-2788109D03*
%TD*%
D177*
%TO.C,D45*%
X730678Y10449479D03*
D178*
X803922Y11496921D03*
%TD*%
D179*
%TO.C,D15*%
X8684155Y-5857524D03*
D180*
X9554645Y-6444676D03*
%TD*%
D181*
%TO.C,D8*%
X4917727Y-9248853D03*
D182*
X5410673Y-10175947D03*
%TD*%
D183*
%TO.C,D68*%
X-10468620Y365578D03*
D184*
X-11517980Y402222D03*
%TD*%
D185*
%TO.C,D35*%
X7276504Y7535047D03*
D186*
X8005896Y8290353D03*
%TD*%
D187*
%TO.C,D64*%
X-9962295Y3236966D03*
D188*
X-10960905Y3561434D03*
%TD*%
D162*
%TO.C,R3*%
X-600000Y3800000D03*
X-600000Y2800000D03*
%TD*%
D189*
%TO.C,D6*%
X3582639Y-9843261D03*
D190*
X3941761Y-10829939D03*
%TD*%
D191*
%TO.C,D48*%
X-1457834Y10373009D03*
D192*
X-1603966Y11412791D03*
%TD*%
D193*
%TO.C,C1*%
X3100000Y-4200000D03*
X3100000Y-3200000D03*
%TD*%
D194*
%TO.C,D57*%
X-7276504Y7535047D03*
D195*
X-8005896Y8290353D03*
%TD*%
D196*
%TO.C,D61*%
X-9071637Y5237500D03*
D197*
X-9980963Y5762500D03*
%TD*%
D86*
%TO.C,C4*%
X-4500000Y3550000D03*
X-3500000Y3550000D03*
%TD*%
D198*
%TO.C,D69*%
X-10468620Y-365578D03*
D199*
X-11517980Y-402222D03*
%TD*%
D200*
%TO.C,D75*%
X-9414833Y-4591955D03*
D201*
X-10358567Y-5052245D03*
%TD*%
D202*
%TO.C,D65*%
X-10163895Y2534091D03*
D203*
X-11182705Y2788109D03*
%TD*%
D204*
%TO.C,D4*%
X2177846Y-10246073D03*
D205*
X2396154Y-11273127D03*
%TD*%
D206*
%TO.C,C3*%
X5400000Y-400000D03*
X4400000Y-400000D03*
%TD*%
D207*
%TO.C,D24*%
X10468620Y365578D03*
D208*
X11517980Y402222D03*
%TD*%
D209*
%TO.C,D81*%
X-6733237Y-8024327D03*
D210*
X-7408163Y-8828673D03*
%TD*%
M02*
