%TF.GenerationSoftware,KiCad,Pcbnew,9.0.7*%
%TF.CreationDate,2026-03-08T09:15:12+01:00*%
%TF.ProjectId,halo-90,68616c6f-2d39-4302-9e6b-696361645f70,0V8*%
%TF.SameCoordinates,Original*%
%TF.FileFunction,Copper,L1,Top*%
%TF.FilePolarity,Positive*%
%FSLAX46Y46*%
G04 Gerber Fmt 4.6, Leading zero omitted, Abs format (unit mm)*
G04 Created by KiCad (PCBNEW 9.0.7) date 2026-03-08 09:15:12*
%MOMM*%
%LPD*%
G01*
G04 APERTURE LIST*
G04 Aperture macros list*
%AMRoundRect*
0 Rectangle with rounded corners*
0 $1 Rounding radius*
0 $2 $3 $4 $5 $6 $7 $8 $9 X,Y pos of 4 corners*
0 Add a 4 corners polygon primitive as box body*
4,1,4,$2,$3,$4,$5,$6,$7,$8,$9,$2,$3,0*
0 Add four circle primitives for the rounded corners*
1,1,$1+$1,$2,$3*
1,1,$1+$1,$4,$5*
1,1,$1+$1,$6,$7*
1,1,$1+$1,$8,$9*
0 Add four rect primitives between the rounded corners*
20,1,$1+$1,$2,$3,$4,$5,0*
20,1,$1+$1,$4,$5,$6,$7,0*
20,1,$1+$1,$6,$7,$8,$9,0*
20,1,$1+$1,$8,$9,$2,$3,0*%
%AMRotRect*
0 Rectangle, with rotation*
0 The origin of the aperture is its center*
0 $1 length*
0 $2 width*
0 $3 Rotation angle, in degrees counterclockwise*
0 Add horizontal line*
21,1,$1,$2,0,0,$3*%
%AMOutline5P*
0 Free polygon, 5 corners , with rotation*
0 The origin of the aperture is its center*
0 number of corners: always 5*
0 $1 to $10 corner X, Y*
0 $11 Rotation angle, in degrees counterclockwise*
0 create outline with 5 corners*
4,1,5,$1,$2,$3,$4,$5,$6,$7,$8,$9,$10,$1,$2,$11*%
%AMOutline6P*
0 Free polygon, 6 corners , with rotation*
0 The origin of the aperture is its center*
0 number of corners: always 6*
0 $1 to $12 corner X, Y*
0 $13 Rotation angle, in degrees counterclockwise*
0 create outline with 6 corners*
4,1,6,$1,$2,$3,$4,$5,$6,$7,$8,$9,$10,$11,$12,$1,$2,$13*%
%AMOutline7P*
0 Free polygon, 7 corners , with rotation*
0 The origin of the aperture is its center*
0 number of corners: always 7*
0 $1 to $14 corner X, Y*
0 $15 Rotation angle, in degrees counterclockwise*
0 create outline with 7 corners*
4,1,7,$1,$2,$3,$4,$5,$6,$7,$8,$9,$10,$11,$12,$13,$14,$1,$2,$15*%
%AMOutline8P*
0 Free polygon, 8 corners , with rotation*
0 The origin of the aperture is its center*
0 number of corners: always 8*
0 $1 to $16 corner X, Y*
0 $17 Rotation angle, in degrees counterclockwise*
0 create outline with 8 corners*
4,1,8,$1,$2,$3,$4,$5,$6,$7,$8,$9,$10,$11,$12,$13,$14,$15,$16,$1,$2,$17*%
%AMFreePoly0*
4,1,15,-0.200000,0.049999,0.000000,0.250001,0.160000,0.250000,0.175307,0.246955,0.188284,0.238284,0.196955,0.225307,0.200000,0.210000,0.200000,-0.210001,0.196955,-0.225307,0.188284,-0.238284,0.175307,-0.246955,0.160000,-0.250000,0.000000,-0.250001,-0.200000,-0.050000,-0.200000,0.049999,-0.200000,0.049999,$1*%
%AMFreePoly1*
4,1,18,-0.137500,0.181250,-0.132267,0.207559,-0.117364,0.229864,-0.095059,0.244767,-0.068750,0.250000,0.068750,0.250000,0.095059,0.244767,0.117364,0.229864,0.132267,0.207559,0.137500,0.181250,0.137500,-0.112500,0.000000,-0.250000,-0.068750,-0.250000,-0.095059,-0.244767,-0.117364,-0.229864,-0.132267,-0.207559,-0.137500,-0.181250,-0.137500,0.181250,-0.137500,0.181250,$1*%
%AMFreePoly2*
4,1,21,-0.137500,0.181250,-0.132267,0.207559,-0.117364,0.229864,-0.095059,0.244767,-0.068750,0.250000,0.068750,0.250000,0.095059,0.244767,0.117364,0.229864,0.132267,0.207559,0.137500,0.181250,0.137500,-0.181250,0.132267,-0.207559,0.117364,-0.229864,0.095059,-0.244767,0.068750,-0.250000,-0.068750,-0.250000,-0.095059,-0.244767,-0.117364,-0.229864,-0.132267,-0.207559,-0.137500,-0.181250,
-0.137500,0.181250,-0.137500,0.181250,$1*%
%AMFreePoly3*
4,1,18,-0.137500,0.181250,-0.132267,0.207559,-0.117364,0.229864,-0.095059,0.244767,-0.068750,0.250000,0.068750,0.250000,0.095059,0.244767,0.117364,0.229864,0.132267,0.207559,0.137500,0.181250,0.137500,-0.181250,0.132267,-0.207559,0.117364,-0.229864,0.095059,-0.244767,0.068750,-0.250000,0.000000,-0.250000,-0.137500,-0.112500,-0.137500,0.181250,-0.137500,0.181250,$1*%
G04 Aperture macros list end*
%TA.AperFunction,SMDPad,CuDef*%
%ADD10FreePoly0,26.000000*%
%TD*%
%TA.AperFunction,SMDPad,CuDef*%
%ADD11RotRect,0.400000X0.500000X206.000000*%
%TD*%
%TA.AperFunction,SMDPad,CuDef*%
%ADD12FreePoly0,186.000000*%
%TD*%
%TA.AperFunction,SMDPad,CuDef*%
%ADD13RotRect,0.400000X0.500000X6.000000*%
%TD*%
%TA.AperFunction,SMDPad,CuDef*%
%ADD14FreePoly0,102.000000*%
%TD*%
%TA.AperFunction,SMDPad,CuDef*%
%ADD15RotRect,0.400000X0.500000X282.000000*%
%TD*%
%TA.AperFunction,SMDPad,CuDef*%
%ADD16FreePoly0,314.000000*%
%TD*%
%TA.AperFunction,SMDPad,CuDef*%
%ADD17RotRect,0.400000X0.500000X134.000000*%
%TD*%
%TA.AperFunction,SMDPad,CuDef*%
%ADD18FreePoly0,210.000000*%
%TD*%
%TA.AperFunction,SMDPad,CuDef*%
%ADD19RotRect,0.400000X0.500000X30.000000*%
%TD*%
%TA.AperFunction,SMDPad,CuDef*%
%ADD20FreePoly0,78.000000*%
%TD*%
%TA.AperFunction,SMDPad,CuDef*%
%ADD21RotRect,0.400000X0.500000X258.000000*%
%TD*%
%TA.AperFunction,SMDPad,CuDef*%
%ADD22FreePoly0,350.000000*%
%TD*%
%TA.AperFunction,SMDPad,CuDef*%
%ADD23RotRect,0.400000X0.500000X170.000000*%
%TD*%
%TA.AperFunction,SMDPad,CuDef*%
%ADD24FreePoly0,174.000000*%
%TD*%
%TA.AperFunction,SMDPad,CuDef*%
%ADD25RotRect,0.400000X0.500000X354.000000*%
%TD*%
%TA.AperFunction,SMDPad,CuDef*%
%ADD26FreePoly0,94.000000*%
%TD*%
%TA.AperFunction,SMDPad,CuDef*%
%ADD27RotRect,0.400000X0.500000X274.000000*%
%TD*%
%TA.AperFunction,SMDPad,CuDef*%
%ADD28FreePoly0,238.000000*%
%TD*%
%TA.AperFunction,SMDPad,CuDef*%
%ADD29RotRect,0.400000X0.500000X58.000000*%
%TD*%
%TA.AperFunction,SMDPad,CuDef*%
%ADD30FreePoly0,266.000000*%
%TD*%
%TA.AperFunction,SMDPad,CuDef*%
%ADD31RotRect,0.400000X0.500000X86.000000*%
%TD*%
%TA.AperFunction,SMDPad,CuDef*%
%ADD32Outline5P,-0.350000X0.500000X0.350000X0.500000X0.350000X-0.500000X-0.210000X-0.500000X-0.350000X-0.360000X180.000000*%
%TD*%
%TA.AperFunction,SMDPad,CuDef*%
%ADD33R,0.700000X1.000000*%
%TD*%
%TA.AperFunction,SMDPad,CuDef*%
%ADD34FreePoly0,30.000000*%
%TD*%
%TA.AperFunction,SMDPad,CuDef*%
%ADD35RotRect,0.400000X0.500000X210.000000*%
%TD*%
%TA.AperFunction,SMDPad,CuDef*%
%ADD36FreePoly0,106.000000*%
%TD*%
%TA.AperFunction,SMDPad,CuDef*%
%ADD37RotRect,0.400000X0.500000X286.000000*%
%TD*%
%TA.AperFunction,SMDPad,CuDef*%
%ADD38FreePoly0,110.000000*%
%TD*%
%TA.AperFunction,SMDPad,CuDef*%
%ADD39RotRect,0.400000X0.500000X290.000000*%
%TD*%
%TA.AperFunction,SMDPad,CuDef*%
%ADD40FreePoly0,34.000000*%
%TD*%
%TA.AperFunction,SMDPad,CuDef*%
%ADD41RotRect,0.400000X0.500000X214.000000*%
%TD*%
%TA.AperFunction,SMDPad,CuDef*%
%ADD42FreePoly0,66.000000*%
%TD*%
%TA.AperFunction,SMDPad,CuDef*%
%ADD43RotRect,0.400000X0.500000X246.000000*%
%TD*%
%TA.AperFunction,SMDPad,CuDef*%
%ADD44FreePoly0,10.000000*%
%TD*%
%TA.AperFunction,SMDPad,CuDef*%
%ADD45RotRect,0.400000X0.500000X190.000000*%
%TD*%
%TA.AperFunction,SMDPad,CuDef*%
%ADD46FreePoly0,38.000000*%
%TD*%
%TA.AperFunction,SMDPad,CuDef*%
%ADD47RotRect,0.400000X0.500000X218.000000*%
%TD*%
%TA.AperFunction,SMDPad,CuDef*%
%ADD48FreePoly0,50.000000*%
%TD*%
%TA.AperFunction,SMDPad,CuDef*%
%ADD49RotRect,0.400000X0.500000X230.000000*%
%TD*%
%TA.AperFunction,SMDPad,CuDef*%
%ADD50FreePoly0,42.000000*%
%TD*%
%TA.AperFunction,SMDPad,CuDef*%
%ADD51RotRect,0.400000X0.500000X222.000000*%
%TD*%
%TA.AperFunction,SMDPad,CuDef*%
%ADD52FreePoly0,346.000000*%
%TD*%
%TA.AperFunction,SMDPad,CuDef*%
%ADD53RotRect,0.400000X0.500000X166.000000*%
%TD*%
%TA.AperFunction,SMDPad,CuDef*%
%ADD54FreePoly0,254.000000*%
%TD*%
%TA.AperFunction,SMDPad,CuDef*%
%ADD55RotRect,0.400000X0.500000X74.000000*%
%TD*%
%TA.AperFunction,SMDPad,CuDef*%
%ADD56FreePoly0,154.000000*%
%TD*%
%TA.AperFunction,SMDPad,CuDef*%
%ADD57RotRect,0.400000X0.500000X334.000000*%
%TD*%
%TA.AperFunction,SMDPad,CuDef*%
%ADD58FreePoly0,262.000000*%
%TD*%
%TA.AperFunction,SMDPad,CuDef*%
%ADD59RotRect,0.400000X0.500000X82.000000*%
%TD*%
%TA.AperFunction,SMDPad,CuDef*%
%ADD60FreePoly0,6.000000*%
%TD*%
%TA.AperFunction,SMDPad,CuDef*%
%ADD61RotRect,0.400000X0.500000X186.000000*%
%TD*%
%TA.AperFunction,SMDPad,CuDef*%
%ADD62FreePoly0,18.000000*%
%TD*%
%TA.AperFunction,SMDPad,CuDef*%
%ADD63RotRect,0.400000X0.500000X198.000000*%
%TD*%
%TA.AperFunction,SMDPad,CuDef*%
%ADD64FreePoly0,190.000000*%
%TD*%
%TA.AperFunction,SMDPad,CuDef*%
%ADD65RotRect,0.400000X0.500000X10.000000*%
%TD*%
%TA.AperFunction,SMDPad,CuDef*%
%ADD66FreePoly0,74.000000*%
%TD*%
%TA.AperFunction,SMDPad,CuDef*%
%ADD67RotRect,0.400000X0.500000X254.000000*%
%TD*%
%TA.AperFunction,SMDPad,CuDef*%
%ADD68FreePoly0,142.000000*%
%TD*%
%TA.AperFunction,SMDPad,CuDef*%
%ADD69RotRect,0.400000X0.500000X322.000000*%
%TD*%
%TA.AperFunction,SMDPad,CuDef*%
%ADD70FreePoly0,246.000000*%
%TD*%
%TA.AperFunction,SMDPad,CuDef*%
%ADD71RotRect,0.400000X0.500000X66.000000*%
%TD*%
%TA.AperFunction,SMDPad,CuDef*%
%ADD72FreePoly0,310.000000*%
%TD*%
%TA.AperFunction,SMDPad,CuDef*%
%ADD73RotRect,0.400000X0.500000X130.000000*%
%TD*%
%TA.AperFunction,SMDPad,CuDef*%
%ADD74FreePoly0,82.000000*%
%TD*%
%TA.AperFunction,SMDPad,CuDef*%
%ADD75RotRect,0.400000X0.500000X262.000000*%
%TD*%
%TA.AperFunction,SMDPad,CuDef*%
%ADD76FreePoly0,338.000000*%
%TD*%
%TA.AperFunction,SMDPad,CuDef*%
%ADD77RotRect,0.400000X0.500000X158.000000*%
%TD*%
%TA.AperFunction,SMDPad,CuDef*%
%ADD78FreePoly0,330.000000*%
%TD*%
%TA.AperFunction,SMDPad,CuDef*%
%ADD79RotRect,0.400000X0.500000X150.000000*%
%TD*%
%TA.AperFunction,SMDPad,CuDef*%
%ADD80FreePoly0,126.000000*%
%TD*%
%TA.AperFunction,SMDPad,CuDef*%
%ADD81RotRect,0.400000X0.500000X306.000000*%
%TD*%
%TA.AperFunction,SMDPad,CuDef*%
%ADD82FreePoly0,114.000000*%
%TD*%
%TA.AperFunction,SMDPad,CuDef*%
%ADD83RotRect,0.400000X0.500000X294.000000*%
%TD*%
%TA.AperFunction,SMDPad,CuDef*%
%ADD84FreePoly0,306.000000*%
%TD*%
%TA.AperFunction,SMDPad,CuDef*%
%ADD85RotRect,0.400000X0.500000X126.000000*%
%TD*%
%TA.AperFunction,SMDPad,CuDef*%
%ADD86RoundRect,0.150000X-0.150000X-0.150000X0.150000X-0.150000X0.150000X0.150000X-0.150000X0.150000X0*%
%TD*%
%TA.AperFunction,SMDPad,CuDef*%
%ADD87FreePoly0,214.000000*%
%TD*%
%TA.AperFunction,SMDPad,CuDef*%
%ADD88RotRect,0.400000X0.500000X34.000000*%
%TD*%
%TA.AperFunction,SMDPad,CuDef*%
%ADD89FreePoly0,138.000000*%
%TD*%
%TA.AperFunction,SMDPad,CuDef*%
%ADD90RotRect,0.400000X0.500000X318.000000*%
%TD*%
%TA.AperFunction,SMDPad,CuDef*%
%ADD91FreePoly0,198.000000*%
%TD*%
%TA.AperFunction,SMDPad,CuDef*%
%ADD92RotRect,0.400000X0.500000X18.000000*%
%TD*%
%TA.AperFunction,SMDPad,CuDef*%
%ADD93FreePoly0,258.000000*%
%TD*%
%TA.AperFunction,SMDPad,CuDef*%
%ADD94RotRect,0.400000X0.500000X78.000000*%
%TD*%
%TA.AperFunction,SMDPad,CuDef*%
%ADD95FreePoly0,170.000000*%
%TD*%
%TA.AperFunction,SMDPad,CuDef*%
%ADD96RotRect,0.400000X0.500000X350.000000*%
%TD*%
%TA.AperFunction,SMDPad,CuDef*%
%ADD97FreePoly0,294.000000*%
%TD*%
%TA.AperFunction,SMDPad,CuDef*%
%ADD98RotRect,0.400000X0.500000X114.000000*%
%TD*%
%TA.AperFunction,SMDPad,CuDef*%
%ADD99FreePoly0,334.000000*%
%TD*%
%TA.AperFunction,SMDPad,CuDef*%
%ADD100RotRect,0.400000X0.500000X154.000000*%
%TD*%
%TA.AperFunction,SMDPad,CuDef*%
%ADD101FreePoly0,286.000000*%
%TD*%
%TA.AperFunction,SMDPad,CuDef*%
%ADD102RotRect,0.400000X0.500000X106.000000*%
%TD*%
%TA.AperFunction,SMDPad,CuDef*%
%ADD103FreePoly0,226.000000*%
%TD*%
%TA.AperFunction,SMDPad,CuDef*%
%ADD104RotRect,0.400000X0.500000X46.000000*%
%TD*%
%TA.AperFunction,SMDPad,CuDef*%
%ADD105FreePoly0,358.000000*%
%TD*%
%TA.AperFunction,SMDPad,CuDef*%
%ADD106RotRect,0.400000X0.500000X178.000000*%
%TD*%
%TA.AperFunction,SMDPad,CuDef*%
%ADD107FreePoly0,202.000000*%
%TD*%
%TA.AperFunction,SMDPad,CuDef*%
%ADD108RotRect,0.400000X0.500000X22.000000*%
%TD*%
%TA.AperFunction,SMDPad,CuDef*%
%ADD109FreePoly0,146.000000*%
%TD*%
%TA.AperFunction,SMDPad,CuDef*%
%ADD110RotRect,0.400000X0.500000X326.000000*%
%TD*%
%TA.AperFunction,SMDPad,CuDef*%
%ADD111FreePoly0,318.000000*%
%TD*%
%TA.AperFunction,SMDPad,CuDef*%
%ADD112RotRect,0.400000X0.500000X138.000000*%
%TD*%
%TA.AperFunction,SMDPad,CuDef*%
%ADD113FreePoly0,22.000000*%
%TD*%
%TA.AperFunction,SMDPad,CuDef*%
%ADD114RotRect,0.400000X0.500000X202.000000*%
%TD*%
%TA.AperFunction,SMDPad,CuDef*%
%ADD115FreePoly0,322.000000*%
%TD*%
%TA.AperFunction,SMDPad,CuDef*%
%ADD116RotRect,0.400000X0.500000X142.000000*%
%TD*%
%TA.AperFunction,SMDPad,CuDef*%
%ADD117FreePoly0,270.000000*%
%TD*%
%TA.AperFunction,SMDPad,CuDef*%
%ADD118R,0.500000X0.400000*%
%TD*%
%TA.AperFunction,SMDPad,CuDef*%
%ADD119FreePoly0,278.000000*%
%TD*%
%TA.AperFunction,SMDPad,CuDef*%
%ADD120RotRect,0.400000X0.500000X98.000000*%
%TD*%
%TA.AperFunction,SMDPad,CuDef*%
%ADD121FreePoly0,354.000000*%
%TD*%
%TA.AperFunction,SMDPad,CuDef*%
%ADD122RotRect,0.400000X0.500000X174.000000*%
%TD*%
%TA.AperFunction,SMDPad,CuDef*%
%ADD123FreePoly0,90.000000*%
%TD*%
%TA.AperFunction,SMDPad,CuDef*%
%ADD124FreePoly0,54.000000*%
%TD*%
%TA.AperFunction,SMDPad,CuDef*%
%ADD125RotRect,0.400000X0.500000X234.000000*%
%TD*%
%TA.AperFunction,SMDPad,CuDef*%
%ADD126FreePoly0,158.000000*%
%TD*%
%TA.AperFunction,SMDPad,CuDef*%
%ADD127RotRect,0.400000X0.500000X338.000000*%
%TD*%
%TA.AperFunction,SMDPad,CuDef*%
%ADD128FreePoly0,218.000000*%
%TD*%
%TA.AperFunction,SMDPad,CuDef*%
%ADD129RotRect,0.400000X0.500000X38.000000*%
%TD*%
%TA.AperFunction,SMDPad,CuDef*%
%ADD130FreePoly0,250.000000*%
%TD*%
%TA.AperFunction,SMDPad,CuDef*%
%ADD131RotRect,0.400000X0.500000X70.000000*%
%TD*%
%TA.AperFunction,ConnectorPad*%
%ADD132C,0.787400*%
%TD*%
%TA.AperFunction,SMDPad,CuDef*%
%ADD133FreePoly0,242.000000*%
%TD*%
%TA.AperFunction,SMDPad,CuDef*%
%ADD134RotRect,0.400000X0.500000X62.000000*%
%TD*%
%TA.AperFunction,SMDPad,CuDef*%
%ADD135FreePoly0,118.000000*%
%TD*%
%TA.AperFunction,SMDPad,CuDef*%
%ADD136RotRect,0.400000X0.500000X298.000000*%
%TD*%
%TA.AperFunction,SMDPad,CuDef*%
%ADD137FreePoly0,70.000000*%
%TD*%
%TA.AperFunction,SMDPad,CuDef*%
%ADD138RotRect,0.400000X0.500000X250.000000*%
%TD*%
%TA.AperFunction,SMDPad,CuDef*%
%ADD139FreePoly1,0.000000*%
%TD*%
%TA.AperFunction,SMDPad,CuDef*%
%ADD140FreePoly2,0.000000*%
%TD*%
%TA.AperFunction,SMDPad,CuDef*%
%ADD141FreePoly3,0.000000*%
%TD*%
%TA.AperFunction,SMDPad,CuDef*%
%ADD142FreePoly1,90.000000*%
%TD*%
%TA.AperFunction,SMDPad,CuDef*%
%ADD143FreePoly2,90.000000*%
%TD*%
%TA.AperFunction,SMDPad,CuDef*%
%ADD144FreePoly3,90.000000*%
%TD*%
%TA.AperFunction,SMDPad,CuDef*%
%ADD145FreePoly1,180.000000*%
%TD*%
%TA.AperFunction,SMDPad,CuDef*%
%ADD146FreePoly2,180.000000*%
%TD*%
%TA.AperFunction,SMDPad,CuDef*%
%ADD147FreePoly3,180.000000*%
%TD*%
%TA.AperFunction,SMDPad,CuDef*%
%ADD148FreePoly1,270.000000*%
%TD*%
%TA.AperFunction,SMDPad,CuDef*%
%ADD149FreePoly2,270.000000*%
%TD*%
%TA.AperFunction,SMDPad,CuDef*%
%ADD150FreePoly3,270.000000*%
%TD*%
%TA.AperFunction,SMDPad,CuDef*%
%ADD151FreePoly0,14.000000*%
%TD*%
%TA.AperFunction,SMDPad,CuDef*%
%ADD152RotRect,0.400000X0.500000X194.000000*%
%TD*%
%TA.AperFunction,SMDPad,CuDef*%
%ADD153FreePoly0,342.000000*%
%TD*%
%TA.AperFunction,SMDPad,CuDef*%
%ADD154RotRect,0.400000X0.500000X162.000000*%
%TD*%
%TA.AperFunction,SMDPad,CuDef*%
%ADD155FreePoly0,58.000000*%
%TD*%
%TA.AperFunction,SMDPad,CuDef*%
%ADD156RotRect,0.400000X0.500000X238.000000*%
%TD*%
%TA.AperFunction,SMDPad,CuDef*%
%ADD157FreePoly0,302.000000*%
%TD*%
%TA.AperFunction,SMDPad,CuDef*%
%ADD158RotRect,0.400000X0.500000X122.000000*%
%TD*%
%TA.AperFunction,SMDPad,CuDef*%
%ADD159FreePoly0,234.000000*%
%TD*%
%TA.AperFunction,SMDPad,CuDef*%
%ADD160RotRect,0.400000X0.500000X54.000000*%
%TD*%
%TA.AperFunction,SMDPad,CuDef*%
%ADD161RoundRect,0.150000X-0.150000X0.150000X-0.150000X-0.150000X0.150000X-0.150000X0.150000X0.150000X0*%
%TD*%
%TA.AperFunction,SMDPad,CuDef*%
%ADD162FreePoly0,62.000000*%
%TD*%
%TA.AperFunction,SMDPad,CuDef*%
%ADD163RotRect,0.400000X0.500000X242.000000*%
%TD*%
%TA.AperFunction,SMDPad,CuDef*%
%ADD164FreePoly0,130.000000*%
%TD*%
%TA.AperFunction,SMDPad,CuDef*%
%ADD165RotRect,0.400000X0.500000X310.000000*%
%TD*%
%TA.AperFunction,SMDPad,CuDef*%
%ADD166FreePoly0,274.000000*%
%TD*%
%TA.AperFunction,SMDPad,CuDef*%
%ADD167RotRect,0.400000X0.500000X94.000000*%
%TD*%
%TA.AperFunction,SMDPad,CuDef*%
%ADD168R,0.700000X0.280010*%
%TD*%
%TA.AperFunction,SMDPad,CuDef*%
%ADD169R,0.280010X0.700000*%
%TD*%
%TA.AperFunction,SMDPad,CuDef*%
%ADD170FreePoly0,222.000000*%
%TD*%
%TA.AperFunction,SMDPad,CuDef*%
%ADD171RotRect,0.400000X0.500000X42.000000*%
%TD*%
%TA.AperFunction,SMDPad,CuDef*%
%ADD172FreePoly0,122.000000*%
%TD*%
%TA.AperFunction,SMDPad,CuDef*%
%ADD173RotRect,0.400000X0.500000X302.000000*%
%TD*%
%TA.AperFunction,SMDPad,CuDef*%
%ADD174FreePoly0,194.000000*%
%TD*%
%TA.AperFunction,SMDPad,CuDef*%
%ADD175RotRect,0.400000X0.500000X14.000000*%
%TD*%
%TA.AperFunction,SMDPad,CuDef*%
%ADD176FreePoly0,86.000000*%
%TD*%
%TA.AperFunction,SMDPad,CuDef*%
%ADD177RotRect,0.400000X0.500000X266.000000*%
%TD*%
%TA.AperFunction,SMDPad,CuDef*%
%ADD178FreePoly0,326.000000*%
%TD*%
%TA.AperFunction,SMDPad,CuDef*%
%ADD179RotRect,0.400000X0.500000X146.000000*%
%TD*%
%TA.AperFunction,SMDPad,CuDef*%
%ADD180FreePoly0,298.000000*%
%TD*%
%TA.AperFunction,SMDPad,CuDef*%
%ADD181RotRect,0.400000X0.500000X118.000000*%
%TD*%
%TA.AperFunction,SMDPad,CuDef*%
%ADD182FreePoly0,178.000000*%
%TD*%
%TA.AperFunction,SMDPad,CuDef*%
%ADD183RotRect,0.400000X0.500000X358.000000*%
%TD*%
%TA.AperFunction,SMDPad,CuDef*%
%ADD184FreePoly0,46.000000*%
%TD*%
%TA.AperFunction,SMDPad,CuDef*%
%ADD185RotRect,0.400000X0.500000X226.000000*%
%TD*%
%TA.AperFunction,SMDPad,CuDef*%
%ADD186FreePoly0,162.000000*%
%TD*%
%TA.AperFunction,SMDPad,CuDef*%
%ADD187RotRect,0.400000X0.500000X342.000000*%
%TD*%
%TA.AperFunction,SMDPad,CuDef*%
%ADD188FreePoly0,290.000000*%
%TD*%
%TA.AperFunction,SMDPad,CuDef*%
%ADD189RotRect,0.400000X0.500000X110.000000*%
%TD*%
%TA.AperFunction,SMDPad,CuDef*%
%ADD190FreePoly0,98.000000*%
%TD*%
%TA.AperFunction,SMDPad,CuDef*%
%ADD191RotRect,0.400000X0.500000X278.000000*%
%TD*%
%TA.AperFunction,SMDPad,CuDef*%
%ADD192RoundRect,0.150000X0.150000X-0.150000X0.150000X0.150000X-0.150000X0.150000X-0.150000X-0.150000X0*%
%TD*%
%TA.AperFunction,SMDPad,CuDef*%
%ADD193FreePoly0,134.000000*%
%TD*%
%TA.AperFunction,SMDPad,CuDef*%
%ADD194RotRect,0.400000X0.500000X314.000000*%
%TD*%
%TA.AperFunction,SMDPad,CuDef*%
%ADD195FreePoly0,150.000000*%
%TD*%
%TA.AperFunction,SMDPad,CuDef*%
%ADD196RotRect,0.400000X0.500000X330.000000*%
%TD*%
%TA.AperFunction,SMDPad,CuDef*%
%ADD197FreePoly0,182.000000*%
%TD*%
%TA.AperFunction,SMDPad,CuDef*%
%ADD198RotRect,0.400000X0.500000X2.000000*%
%TD*%
%TA.AperFunction,SMDPad,CuDef*%
%ADD199FreePoly0,206.000000*%
%TD*%
%TA.AperFunction,SMDPad,CuDef*%
%ADD200RotRect,0.400000X0.500000X26.000000*%
%TD*%
%TA.AperFunction,SMDPad,CuDef*%
%ADD201FreePoly0,166.000000*%
%TD*%
%TA.AperFunction,SMDPad,CuDef*%
%ADD202RotRect,0.400000X0.500000X346.000000*%
%TD*%
%TA.AperFunction,SMDPad,CuDef*%
%ADD203FreePoly0,282.000000*%
%TD*%
%TA.AperFunction,SMDPad,CuDef*%
%ADD204RotRect,0.400000X0.500000X102.000000*%
%TD*%
%TA.AperFunction,SMDPad,CuDef*%
%ADD205RoundRect,0.150000X0.150000X0.150000X-0.150000X0.150000X-0.150000X-0.150000X0.150000X-0.150000X0*%
%TD*%
%TA.AperFunction,SMDPad,CuDef*%
%ADD206FreePoly0,2.000000*%
%TD*%
%TA.AperFunction,SMDPad,CuDef*%
%ADD207RotRect,0.400000X0.500000X182.000000*%
%TD*%
%TA.AperFunction,SMDPad,CuDef*%
%ADD208FreePoly0,230.000000*%
%TD*%
%TA.AperFunction,SMDPad,CuDef*%
%ADD209RotRect,0.400000X0.500000X50.000000*%
%TD*%
%TA.AperFunction,ViaPad*%
%ADD210C,0.450000*%
%TD*%
%TA.AperFunction,Conductor*%
%ADD211C,0.300000*%
%TD*%
%TA.AperFunction,Conductor*%
%ADD212C,0.128000*%
%TD*%
%TA.AperFunction,Conductor*%
%ADD213C,0.127000*%
%TD*%
%TA.AperFunction,Conductor*%
%ADD214C,0.254000*%
%TD*%
G04 APERTURE END LIST*
D10*
%TO.P,D30,1,A*%
%TO.N,CPX-7*%
X9414833Y4591955D03*
D11*
%TO.P,D30,2,K*%
%TO.N,CPX-3*%
X10358567Y5052245D03*
%TD*%
D12*
%TO.P,D70,1,A*%
%TO.N,CPX-2*%
X-10417576Y-1094923D03*
D13*
%TO.P,D70,2,K*%
%TO.N,CPX-7*%
X-11461824Y-1204677D03*
%TD*%
D14*
%TO.P,D49,1,A*%
%TO.N,CPX-6*%
X-2177846Y10246073D03*
D15*
%TO.P,D49,2,K*%
%TO.N,CPX-5*%
X-2396154Y11273127D03*
%TD*%
D16*
%TO.P,D12,1,A*%
%TO.N,CPX-7*%
X7276504Y-7535047D03*
D17*
%TO.P,D12,2,K*%
%TO.N,CPX-1*%
X8005896Y-8290353D03*
%TD*%
D18*
%TO.P,D76,1,A*%
%TO.N,CPX-5*%
X-9071637Y-5237500D03*
D19*
%TO.P,D76,2,K*%
%TO.N,CPX-8*%
X-9980963Y-5762500D03*
%TD*%
D20*
%TO.P,D43,1,A*%
%TO.N,CPX-2*%
X2177846Y10246073D03*
D21*
%TO.P,D43,2,K*%
%TO.N,CPX-4*%
X2396154Y11273127D03*
%TD*%
D22*
%TO.P,D21,1,A*%
%TO.N,CPX-7*%
X10315876Y-1818935D03*
D23*
%TO.P,D21,2,K*%
%TO.N,CPX-2*%
X11349924Y-2001265D03*
%TD*%
D24*
%TO.P,D67,1,A*%
%TO.N,CPX-5*%
X-10417576Y1094923D03*
D25*
%TO.P,D67,2,K*%
%TO.N,CPX-7*%
X-11461824Y1204677D03*
%TD*%
D26*
%TO.P,D47,1,A*%
%TO.N,CPX-8*%
X-730678Y10449479D03*
D27*
%TO.P,D47,2,K*%
%TO.N,CPX-5*%
X-803922Y11496921D03*
%TD*%
D28*
%TO.P,D83,1,A*%
%TO.N,CPX-7*%
X-5550892Y-8883275D03*
D29*
%TO.P,D83,2,K*%
%TO.N,CPX-9*%
X-6107308Y-9773725D03*
%TD*%
D30*
%TO.P,D90,1,A*%
%TO.N,CPX-0*%
X-730678Y-10449479D03*
D31*
%TO.P,D90,2,K*%
%TO.N,CPX-9*%
X-803922Y-11496921D03*
%TD*%
D32*
%TO.P,U3,1,VCC*%
%TO.N,+3V*%
X5150000Y3200000D03*
D33*
%TO.P,U3,2,OUT*%
%TO.N,HALL*%
X3250000Y3200000D03*
%TO.P,U3,3,GND*%
%TO.N,GND*%
X4200000Y800000D03*
%TD*%
D34*
%TO.P,D31,1,A*%
%TO.N,CPX-6*%
X9071637Y5237500D03*
D35*
%TO.P,D31,2,K*%
%TO.N,CPX-3*%
X9980963Y5762500D03*
%TD*%
D36*
%TO.P,D50,1,A*%
%TO.N,CPX-4*%
X-2887290Y10069238D03*
D37*
%TO.P,D50,2,K*%
%TO.N,CPX-5*%
X-3176710Y11078562D03*
%TD*%
D38*
%TO.P,D51,1,A*%
%TO.N,CPX-3*%
X-3582639Y9843261D03*
D39*
%TO.P,D51,2,K*%
%TO.N,CPX-5*%
X-3941761Y10829939D03*
%TD*%
D40*
%TO.P,D32,1,A*%
%TO.N,CPX-5*%
X8684155Y5857524D03*
D41*
%TO.P,D32,2,K*%
%TO.N,CPX-3*%
X9554645Y6444676D03*
%TD*%
D42*
%TO.P,D40,1,A*%
%TO.N,CPX-6*%
X4260563Y9569389D03*
D43*
%TO.P,D40,2,K*%
%TO.N,CPX-4*%
X4687637Y10528611D03*
%TD*%
D44*
%TO.P,D26,1,A*%
%TO.N,CPX-1*%
X10315876Y1818935D03*
D45*
%TO.P,D26,2,K*%
%TO.N,CPX-2*%
X11349924Y2001265D03*
%TD*%
D46*
%TO.P,D33,1,A*%
%TO.N,CPX-4*%
X8254394Y6449078D03*
D47*
%TO.P,D33,2,K*%
%TO.N,CPX-3*%
X9081806Y7095522D03*
%TD*%
D48*
%TO.P,D36,1,A*%
%TO.N,CPX-0*%
X6733237Y8024327D03*
D49*
%TO.P,D36,2,K*%
%TO.N,CPX-3*%
X7408163Y8828673D03*
%TD*%
D50*
%TO.P,D34,1,A*%
%TO.N,CPX-2*%
X7784449Y7009106D03*
D51*
%TO.P,D34,2,K*%
%TO.N,CPX-3*%
X8564751Y7711694D03*
%TD*%
D52*
%TO.P,D20,1,A*%
%TO.N,CPX-8*%
X10163895Y-2534091D03*
D53*
%TO.P,D20,2,K*%
%TO.N,CPX-2*%
X11182705Y-2788109D03*
%TD*%
D54*
%TO.P,D87,1,A*%
%TO.N,CPX-3*%
X-2887290Y-10069238D03*
D55*
%TO.P,D87,2,K*%
%TO.N,CPX-9*%
X-3176710Y-11078562D03*
%TD*%
D56*
%TO.P,D62,1,A*%
%TO.N,CPX-1*%
X-9414833Y4591955D03*
D57*
%TO.P,D62,2,K*%
%TO.N,CPX-6*%
X-10358567Y5052245D03*
%TD*%
D58*
%TO.P,D89,1,A*%
%TO.N,CPX-1*%
X-1457834Y-10373009D03*
D59*
%TO.P,D89,2,K*%
%TO.N,CPX-9*%
X-1603966Y-11412791D03*
%TD*%
D60*
%TO.P,D25,1,A*%
%TO.N,CPX-3*%
X10417576Y1094923D03*
D61*
%TO.P,D25,2,K*%
%TO.N,CPX-2*%
X11461824Y1204677D03*
%TD*%
D62*
%TO.P,D28,1,A*%
%TO.N,CPX-9*%
X9962295Y3236966D03*
D63*
%TO.P,D28,2,K*%
%TO.N,CPX-3*%
X10960905Y3561434D03*
%TD*%
D64*
%TO.P,D71,1,A*%
%TO.N,CPX-1*%
X-10315876Y-1818935D03*
D65*
%TO.P,D71,2,K*%
%TO.N,CPX-7*%
X-11349924Y-2001265D03*
%TD*%
D66*
%TO.P,D42,1,A*%
%TO.N,CPX-3*%
X2887290Y10069238D03*
D67*
%TO.P,D42,2,K*%
%TO.N,CPX-4*%
X3176710Y11078562D03*
%TD*%
D68*
%TO.P,D59,1,A*%
%TO.N,CPX-4*%
X-8254394Y6449078D03*
D69*
%TO.P,D59,2,K*%
%TO.N,CPX-6*%
X-9081806Y7095522D03*
%TD*%
D70*
%TO.P,D85,1,A*%
%TO.N,CPX-5*%
X-4260563Y-9569389D03*
D71*
%TO.P,D85,2,K*%
%TO.N,CPX-9*%
X-4687637Y-10528611D03*
%TD*%
D72*
%TO.P,D11,1,A*%
%TO.N,CPX-8*%
X6733237Y-8024327D03*
D73*
%TO.P,D11,2,K*%
%TO.N,CPX-1*%
X7408163Y-8828673D03*
%TD*%
D74*
%TO.P,D44,1,A*%
%TO.N,CPX-1*%
X1457834Y10373009D03*
D75*
%TO.P,D44,2,K*%
%TO.N,CPX-4*%
X1603966Y11412791D03*
%TD*%
D76*
%TO.P,D18,1,A*%
%TO.N,CPX-0*%
X9712228Y-3924032D03*
D77*
%TO.P,D18,2,K*%
%TO.N,CPX-1*%
X10685772Y-4317368D03*
%TD*%
D78*
%TO.P,D16,1,A*%
%TO.N,CPX-3*%
X9071637Y-5237500D03*
D79*
%TO.P,D16,2,K*%
%TO.N,CPX-1*%
X9980963Y-5762500D03*
%TD*%
D80*
%TO.P,D55,1,A*%
%TO.N,CPX-9*%
X-6157013Y8474466D03*
D81*
%TO.P,D55,2,K*%
%TO.N,CPX-6*%
X-6774187Y9323934D03*
%TD*%
D82*
%TO.P,D52,1,A*%
%TO.N,CPX-2*%
X-4260563Y9569389D03*
D83*
%TO.P,D52,2,K*%
%TO.N,CPX-5*%
X-4687637Y10528611D03*
%TD*%
D84*
%TO.P,D10,1,A*%
%TO.N,CPX-9*%
X6157013Y-8474466D03*
D85*
%TO.P,D10,2,K*%
%TO.N,CPX-1*%
X6774187Y-9323934D03*
%TD*%
D86*
%TO.P,R2,1*%
%TO.N,SCL*%
X1100000Y-1500000D03*
%TO.P,R2,2*%
%TO.N,+3V*%
X2100000Y-1500000D03*
%TD*%
D87*
%TO.P,D77,1,A*%
%TO.N,CPX-4*%
X-8684155Y-5857524D03*
D88*
%TO.P,D77,2,K*%
%TO.N,CPX-8*%
X-9554645Y-6444676D03*
%TD*%
D89*
%TO.P,D58,1,A*%
%TO.N,CPX-5*%
X-7784449Y7009106D03*
D90*
%TO.P,D58,2,K*%
%TO.N,CPX-6*%
X-8564751Y7711694D03*
%TD*%
D91*
%TO.P,D73,1,A*%
%TO.N,CPX-9*%
X-9962295Y-3236966D03*
D92*
%TO.P,D73,2,K*%
%TO.N,CPX-8*%
X-10960905Y-3561434D03*
%TD*%
D93*
%TO.P,D88,1,A*%
%TO.N,CPX-2*%
X-2177846Y-10246073D03*
D94*
%TO.P,D88,2,K*%
%TO.N,CPX-9*%
X-2396154Y-11273127D03*
%TD*%
D95*
%TO.P,D66,1,A*%
%TO.N,CPX-6*%
X-10315876Y1818935D03*
D96*
%TO.P,D66,2,K*%
%TO.N,CPX-7*%
X-11349924Y2001265D03*
%TD*%
D86*
%TO.P,C2,1*%
%TO.N,+3V*%
X-4500000Y2700000D03*
%TO.P,C2,2*%
%TO.N,GND*%
X-3500000Y2700000D03*
%TD*%
D97*
%TO.P,D7,1,A*%
%TO.N,CPX-3*%
X4260563Y-9569389D03*
D98*
%TO.P,D7,2,K*%
%TO.N,CPX-0*%
X4687637Y-10528611D03*
%TD*%
D99*
%TO.P,D17,1,A*%
%TO.N,CPX-2*%
X9414833Y-4591955D03*
D100*
%TO.P,D17,2,K*%
%TO.N,CPX-1*%
X10358567Y-5052245D03*
%TD*%
D101*
%TO.P,D5,1,A*%
%TO.N,CPX-5*%
X2887290Y-10069238D03*
D102*
%TO.P,D5,2,K*%
%TO.N,CPX-0*%
X3176710Y-11078562D03*
%TD*%
D103*
%TO.P,D80,1,A*%
%TO.N,CPX-1*%
X-7276504Y-7535047D03*
D104*
%TO.P,D80,2,K*%
%TO.N,CPX-8*%
X-8005896Y-8290353D03*
%TD*%
D105*
%TO.P,D23,1,A*%
%TO.N,CPX-5*%
X10468620Y-365578D03*
D106*
%TO.P,D23,2,K*%
%TO.N,CPX-2*%
X11517980Y-402222D03*
%TD*%
D107*
%TO.P,D74,1,A*%
%TO.N,CPX-7*%
X-9712228Y-3924032D03*
D108*
%TO.P,D74,2,K*%
%TO.N,CPX-8*%
X-10685772Y-4317368D03*
%TD*%
D109*
%TO.P,D60,1,A*%
%TO.N,CPX-3*%
X-8684155Y5857524D03*
D110*
%TO.P,D60,2,K*%
%TO.N,CPX-6*%
X-9554645Y6444676D03*
%TD*%
D111*
%TO.P,D13,1,A*%
%TO.N,CPX-6*%
X7784449Y-7009106D03*
D112*
%TO.P,D13,2,K*%
%TO.N,CPX-1*%
X8564751Y-7711694D03*
%TD*%
D113*
%TO.P,D29,1,A*%
%TO.N,CPX-8*%
X9712228Y3924032D03*
D114*
%TO.P,D29,2,K*%
%TO.N,CPX-3*%
X10685772Y4317368D03*
%TD*%
D115*
%TO.P,D14,1,A*%
%TO.N,CPX-5*%
X8254394Y-6449078D03*
D116*
%TO.P,D14,2,K*%
%TO.N,CPX-1*%
X9081806Y-7095522D03*
%TD*%
D117*
%TO.P,D1,1,A*%
%TO.N,CPX-9*%
X0Y-10475000D03*
D118*
%TO.P,D1,2,K*%
%TO.N,CPX-0*%
X0Y-11525000D03*
%TD*%
D119*
%TO.P,D3,1,A*%
%TO.N,CPX-7*%
X1457834Y-10373009D03*
D120*
%TO.P,D3,2,K*%
%TO.N,CPX-0*%
X1603966Y-11412791D03*
%TD*%
D121*
%TO.P,D22,1,A*%
%TO.N,CPX-6*%
X10417576Y-1094923D03*
D122*
%TO.P,D22,2,K*%
%TO.N,CPX-2*%
X11461824Y-1204677D03*
%TD*%
D123*
%TO.P,D46,1,A*%
%TO.N,CPX-9*%
X0Y10475000D03*
D118*
%TO.P,D46,2,K*%
%TO.N,CPX-5*%
X0Y11525000D03*
%TD*%
D124*
%TO.P,D37,1,A*%
%TO.N,CPX-9*%
X6157013Y8474466D03*
D125*
%TO.P,D37,2,K*%
%TO.N,CPX-4*%
X6774187Y9323934D03*
%TD*%
D126*
%TO.P,D63,1,A*%
%TO.N,CPX-0*%
X-9712228Y3924032D03*
D127*
%TO.P,D63,2,K*%
%TO.N,CPX-6*%
X-10685772Y4317368D03*
%TD*%
D128*
%TO.P,D78,1,A*%
%TO.N,CPX-3*%
X-8254394Y-6449078D03*
D129*
%TO.P,D78,2,K*%
%TO.N,CPX-8*%
X-9081806Y-7095522D03*
%TD*%
D130*
%TO.P,D86,1,A*%
%TO.N,CPX-4*%
X-3582639Y-9843261D03*
D131*
%TO.P,D86,2,K*%
%TO.N,CPX-9*%
X-3941761Y-10829939D03*
%TD*%
D132*
%TO.P,J1,1,RX*%
%TO.N,RX*%
X1870000Y1370000D03*
%TO.P,J1,2,TX*%
%TO.N,TX*%
X600000Y1370000D03*
%TO.P,J1,3,GND*%
%TO.N,GND*%
X1870000Y2640000D03*
%TO.P,J1,4,SWIM*%
%TO.N,SWIM*%
X600000Y2640000D03*
%TO.P,J1,5,VCC*%
%TO.N,+3V*%
X1870000Y3910000D03*
%TO.P,J1,6,~{RESET}*%
%TO.N,~{RESET}*%
X600000Y3910000D03*
%TD*%
D133*
%TO.P,D84,1,A*%
%TO.N,CPX-6*%
X-4917727Y-9248853D03*
D134*
%TO.P,D84,2,K*%
%TO.N,CPX-9*%
X-5410673Y-10175947D03*
%TD*%
D135*
%TO.P,D53,1,A*%
%TO.N,CPX-1*%
X-4917727Y9248853D03*
D136*
%TO.P,D53,2,K*%
%TO.N,CPX-5*%
X-5410673Y10175947D03*
%TD*%
D137*
%TO.P,D41,1,A*%
%TO.N,CPX-5*%
X3582639Y9843261D03*
D138*
%TO.P,D41,2,K*%
%TO.N,CPX-4*%
X3941761Y10829939D03*
%TD*%
D139*
%TO.P,U1,1,~{NRST}*%
%TO.N,~{RESET}*%
X-900000Y1800000D03*
D140*
%TO.P,U1,2,PA2*%
%TO.N,CPX-0*%
X-1400000Y1800000D03*
%TO.P,U1,3,PA3*%
%TO.N,CPX-1*%
X-1900000Y1800000D03*
%TO.P,U1,4,PA4*%
%TO.N,CPX-7*%
X-2400000Y1800000D03*
%TO.P,U1,5,PA5*%
%TO.N,CPX-3*%
X-2900000Y1800000D03*
%TO.P,U1,6,VSS*%
%TO.N,GND*%
X-3400000Y1800000D03*
D141*
%TO.P,U1,7,VDD*%
%TO.N,+3V*%
X-3900000Y1800000D03*
D142*
%TO.P,U1,8,PD0*%
%TO.N,HALL*%
X-4300000Y1400000D03*
D143*
%TO.P,U1,9,PD1*%
%TO.N,CPX-6*%
X-4300000Y900000D03*
%TO.P,U1,10,PD2*%
%TO.N,CPX-5*%
X-4300000Y400000D03*
%TO.P,U1,11,PD3*%
%TO.N,CPX-4*%
X-4300000Y-100000D03*
%TO.P,U1,12,PB0*%
%TO.N,unconnected-(U1-PB0-Pad12)*%
X-4300000Y-600000D03*
%TO.P,U1,13,PB1*%
%TO.N,unconnected-(U1-PB1-Pad13)*%
X-4300000Y-1100000D03*
D144*
%TO.P,U1,14,PB2*%
%TO.N,unconnected-(U1-PB2-Pad14)*%
X-4300000Y-1600000D03*
D145*
%TO.P,U1,15,PB3*%
%TO.N,CPX-2*%
X-3900000Y-2000000D03*
D146*
%TO.P,U1,16,PB4*%
%TO.N,unconnected-(U1-PB4-Pad16)*%
X-3400000Y-2000000D03*
%TO.P,U1,17,PB5*%
%TO.N,CPX-9*%
X-2900000Y-2000000D03*
%TO.P,U1,18,PB6*%
%TO.N,CPX-8*%
X-2400000Y-2000000D03*
%TO.P,U1,19,PB7*%
%TO.N,XL-INT2*%
X-1900000Y-2000000D03*
%TO.P,U1,20,PD4*%
%TO.N,XL-INT1*%
X-1400000Y-2000000D03*
D147*
%TO.P,U1,21,PC0*%
%TO.N,SDA*%
X-900000Y-2000000D03*
D148*
%TO.P,U1,22,PC1*%
%TO.N,SCL*%
X-500000Y-1600000D03*
D149*
%TO.P,U1,23,PC2*%
%TO.N,RX*%
X-500000Y-1100000D03*
%TO.P,U1,24,PC3*%
%TO.N,TX*%
X-500000Y-600000D03*
%TO.P,U1,25,PC4*%
%TO.N,unconnected-(U1-PC4-Pad25)*%
X-500000Y-100000D03*
%TO.P,U1,26,PC5*%
%TO.N,unconnected-(U1-PC5-Pad26)*%
X-500000Y400000D03*
%TO.P,U1,27,PC6*%
%TO.N,unconnected-(U1-PC6-Pad27)*%
X-500000Y900000D03*
D150*
%TO.P,U1,28,SWIM*%
%TO.N,SWIM*%
X-500000Y1400000D03*
%TD*%
D151*
%TO.P,D27,1,A*%
%TO.N,CPX-0*%
X10163895Y2534091D03*
D152*
%TO.P,D27,2,K*%
%TO.N,CPX-2*%
X11182705Y2788109D03*
%TD*%
D153*
%TO.P,D19,1,A*%
%TO.N,CPX-9*%
X9962295Y-3236966D03*
D154*
%TO.P,D19,2,K*%
%TO.N,CPX-2*%
X10960905Y-3561434D03*
%TD*%
D155*
%TO.P,D38,1,A*%
%TO.N,CPX-8*%
X5550892Y8883275D03*
D156*
%TO.P,D38,2,K*%
%TO.N,CPX-4*%
X6107308Y9773725D03*
%TD*%
D157*
%TO.P,D9,1,A*%
%TO.N,CPX-1*%
X5550892Y-8883275D03*
D158*
%TO.P,D9,2,K*%
%TO.N,CPX-0*%
X6107308Y-9773725D03*
%TD*%
D159*
%TO.P,D82,1,A*%
%TO.N,CPX-8*%
X-6157013Y-8474466D03*
D160*
%TO.P,D82,2,K*%
%TO.N,CPX-9*%
X-6774187Y-9323934D03*
%TD*%
D161*
%TO.P,R1,1*%
%TO.N,SDA*%
X-750000Y-3400000D03*
%TO.P,R1,2*%
%TO.N,+3V*%
X-750000Y-4400000D03*
%TD*%
D162*
%TO.P,D39,1,A*%
%TO.N,CPX-7*%
X4917727Y9248853D03*
D163*
%TO.P,D39,2,K*%
%TO.N,CPX-4*%
X5410673Y10175947D03*
%TD*%
D164*
%TO.P,D56,1,A*%
%TO.N,CPX-8*%
X-6733237Y8024327D03*
D165*
%TO.P,D56,2,K*%
%TO.N,CPX-6*%
X-7408163Y8828673D03*
%TD*%
D166*
%TO.P,D2,1,A*%
%TO.N,CPX-8*%
X730678Y-10449479D03*
D167*
%TO.P,D2,2,K*%
%TO.N,CPX-0*%
X803922Y-11496921D03*
%TD*%
D168*
%TO.P,U2,1,SDO*%
%TO.N,unconnected-(U2-SDO-Pad1)*%
X250038Y-2799873D03*
%TO.P,U2,2,SDx*%
%TO.N,SDA*%
X250038Y-3300000D03*
%TO.P,U2,3,VDDIO*%
%TO.N,+3V*%
X250038Y-3799873D03*
%TO.P,U2,4,NC*%
%TO.N,unconnected-(U2-NC-Pad4)*%
X250038Y-4300000D03*
D169*
%TO.P,U2,5,INT1*%
%TO.N,XL-INT1*%
X975210Y-4524790D03*
%TO.P,U2,6,INT2*%
%TO.N,XL-INT2*%
X1475083Y-4524790D03*
D168*
%TO.P,U2,7,VDD*%
%TO.N,+3V*%
X2200000Y-4300000D03*
%TO.P,U2,8,GNDIO*%
%TO.N,GND*%
X2200000Y-3799873D03*
%TO.P,U2,9,GND*%
X2200000Y-3300000D03*
%TO.P,U2,10,CS*%
%TO.N,unconnected-(U2-CS-Pad10)*%
X2200000Y-2799873D03*
D169*
%TO.P,U2,11,NC*%
%TO.N,unconnected-(U2-NC-Pad11)*%
X1475083Y-2574828D03*
%TO.P,U2,12,SCx*%
%TO.N,SCL*%
X975210Y-2574828D03*
%TD*%
D170*
%TO.P,D79,1,A*%
%TO.N,CPX-2*%
X-7784449Y-7009106D03*
D171*
%TO.P,D79,2,K*%
%TO.N,CPX-8*%
X-8564751Y-7711694D03*
%TD*%
D172*
%TO.P,D54,1,A*%
%TO.N,CPX-0*%
X-5550892Y8883275D03*
D173*
%TO.P,D54,2,K*%
%TO.N,CPX-5*%
X-6107308Y9773725D03*
%TD*%
D174*
%TO.P,D72,1,A*%
%TO.N,CPX-0*%
X-10163895Y-2534091D03*
D175*
%TO.P,D72,2,K*%
%TO.N,CPX-7*%
X-11182705Y-2788109D03*
%TD*%
D176*
%TO.P,D45,1,A*%
%TO.N,CPX-0*%
X730678Y10449479D03*
D177*
%TO.P,D45,2,K*%
%TO.N,CPX-4*%
X803922Y11496921D03*
%TD*%
D178*
%TO.P,D15,1,A*%
%TO.N,CPX-4*%
X8684155Y-5857524D03*
D179*
%TO.P,D15,2,K*%
%TO.N,CPX-1*%
X9554645Y-6444676D03*
%TD*%
D180*
%TO.P,D8,1,A*%
%TO.N,CPX-2*%
X4917727Y-9248853D03*
D181*
%TO.P,D8,2,K*%
%TO.N,CPX-0*%
X5410673Y-10175947D03*
%TD*%
D182*
%TO.P,D68,1,A*%
%TO.N,CPX-4*%
X-10468620Y365578D03*
D183*
%TO.P,D68,2,K*%
%TO.N,CPX-7*%
X-11517980Y402222D03*
%TD*%
D184*
%TO.P,D35,1,A*%
%TO.N,CPX-1*%
X7276504Y7535047D03*
D185*
%TO.P,D35,2,K*%
%TO.N,CPX-3*%
X8005896Y8290353D03*
%TD*%
D186*
%TO.P,D64,1,A*%
%TO.N,CPX-9*%
X-9962295Y3236966D03*
D187*
%TO.P,D64,2,K*%
%TO.N,CPX-7*%
X-10960905Y3561434D03*
%TD*%
D161*
%TO.P,R3,1*%
%TO.N,+3V*%
X-600000Y3800000D03*
%TO.P,R3,2*%
%TO.N,~{RESET}*%
X-600000Y2800000D03*
%TD*%
D188*
%TO.P,D6,1,A*%
%TO.N,CPX-4*%
X3582639Y-9843261D03*
D189*
%TO.P,D6,2,K*%
%TO.N,CPX-0*%
X3941761Y-10829939D03*
%TD*%
D190*
%TO.P,D48,1,A*%
%TO.N,CPX-7*%
X-1457834Y10373009D03*
D191*
%TO.P,D48,2,K*%
%TO.N,CPX-5*%
X-1603966Y11412791D03*
%TD*%
D192*
%TO.P,C1,1*%
%TO.N,+3V*%
X3100000Y-4200000D03*
%TO.P,C1,2*%
%TO.N,GND*%
X3100000Y-3200000D03*
%TD*%
D193*
%TO.P,D57,1,A*%
%TO.N,CPX-7*%
X-7276504Y7535047D03*
D194*
%TO.P,D57,2,K*%
%TO.N,CPX-6*%
X-8005896Y8290353D03*
%TD*%
D195*
%TO.P,D61,1,A*%
%TO.N,CPX-2*%
X-9071637Y5237500D03*
D196*
%TO.P,D61,2,K*%
%TO.N,CPX-6*%
X-9980963Y5762500D03*
%TD*%
D86*
%TO.P,C4,1*%
%TO.N,+3V*%
X-4500000Y3550000D03*
%TO.P,C4,2*%
%TO.N,GND*%
X-3500000Y3550000D03*
%TD*%
D197*
%TO.P,D69,1,A*%
%TO.N,CPX-3*%
X-10468620Y-365578D03*
D198*
%TO.P,D69,2,K*%
%TO.N,CPX-7*%
X-11517980Y-402222D03*
%TD*%
D199*
%TO.P,D75,1,A*%
%TO.N,CPX-6*%
X-9414833Y-4591955D03*
D200*
%TO.P,D75,2,K*%
%TO.N,CPX-8*%
X-10358567Y-5052245D03*
%TD*%
D201*
%TO.P,D65,1,A*%
%TO.N,CPX-8*%
X-10163895Y2534091D03*
D202*
%TO.P,D65,2,K*%
%TO.N,CPX-7*%
X-11182705Y2788109D03*
%TD*%
D203*
%TO.P,D4,1,A*%
%TO.N,CPX-6*%
X2177846Y-10246073D03*
D204*
%TO.P,D4,2,K*%
%TO.N,CPX-0*%
X2396154Y-11273127D03*
%TD*%
D205*
%TO.P,C3,1*%
%TO.N,+3V*%
X5400000Y-400000D03*
%TO.P,C3,2*%
%TO.N,GND*%
X4400000Y-400000D03*
%TD*%
D206*
%TO.P,D24,1,A*%
%TO.N,CPX-4*%
X10468620Y365578D03*
D207*
%TO.P,D24,2,K*%
%TO.N,CPX-2*%
X11517980Y402222D03*
%TD*%
D208*
%TO.P,D81,1,A*%
%TO.N,CPX-0*%
X-6733237Y-8024327D03*
D209*
%TO.P,D81,2,K*%
%TO.N,CPX-8*%
X-7408163Y-8828673D03*
%TD*%
D210*
%TO.N,+3V*%
X4900000Y4400000D03*
X6300000Y1400000D03*
X3400000Y-5500000D03*
X-400000Y-6500000D03*
X-5100000Y4100000D03*
X3100000Y5600000D03*
%TO.N,GND*%
X3800000Y-2600000D03*
X3100000Y2200000D03*
X4400000Y-1000000D03*
X-3900000Y4100000D03*
%TO.N,CPX-0*%
X-9271800Y3746100D03*
X-5299200Y8480500D03*
X-1400000Y6300000D03*
X697600Y9975600D03*
X-9169300Y-2286200D03*
X8761900Y-3540000D03*
X-659200Y-9427000D03*
X-6074300Y-7239100D03*
X6074300Y7239100D03*
X6427900Y7660400D03*
X9169300Y2286200D03*
X-6427900Y-7660400D03*
X-8761900Y3540000D03*
X659200Y9427000D03*
X9271800Y-3746100D03*
X-697600Y-9975600D03*
X-9703000Y-2419200D03*
X9703000Y2419200D03*
X-5007700Y8014100D03*
%TO.N,CPX-9*%
X-7941300Y2580300D03*
X5877900Y-8090200D03*
X5877900Y8090200D03*
X9510600Y-3090200D03*
X4908000Y-6755300D03*
X0Y8350000D03*
X-4908000Y6755300D03*
X-9510600Y-3090200D03*
X4908000Y6755300D03*
X7941300Y2580300D03*
X7941300Y-2580300D03*
X-7941300Y-2580300D03*
X0Y-8350000D03*
X9510600Y3090200D03*
X-5877900Y8090200D03*
X0Y10000000D03*
X-9510600Y3090200D03*
X-6181900Y-2008600D03*
X0Y-10000000D03*
%TO.N,CPX-8*%
X-6427900Y7660400D03*
X4716300Y7547600D03*
X5720800Y-6817800D03*
X5299200Y8480500D03*
X-5720800Y6817800D03*
X-9703000Y2419200D03*
X9703000Y-2419200D03*
X9271800Y3746100D03*
X-5227894Y-4000000D03*
X-620800Y8878300D03*
X-5877900Y-8090200D03*
X6427900Y-7660400D03*
X-8635600Y2153100D03*
X697600Y-9975600D03*
X-697600Y9975600D03*
X8251900Y3334000D03*
X-5231300Y-7200300D03*
X8635600Y-2153100D03*
X620800Y-8878300D03*
%TO.N,CPX-7*%
X4694700Y8829500D03*
X9306400Y-1641000D03*
X8987900Y4383700D03*
X-9271800Y-3746100D03*
X-3200000Y5500000D03*
X-1391700Y9902700D03*
X-6946600Y7193400D03*
X6946600Y-7193400D03*
X1391700Y-9902700D03*
X-5299200Y-8480500D03*
%TO.N,CPX-6*%
X-9848100Y1736500D03*
X8660300Y5000000D03*
X-4694700Y-8829500D03*
X-8987900Y-4383700D03*
X7431400Y-6691300D03*
X9945200Y-1045300D03*
X-6200000Y1600000D03*
X1736100Y-8167500D03*
X4067400Y9135500D03*
X-2079100Y9781500D03*
X-1736100Y8167500D03*
X-7504900Y-3660400D03*
X6205300Y-5587200D03*
X7231300Y4175000D03*
X3396300Y7628100D03*
X-8000000Y1500000D03*
X2079100Y-9781500D03*
X-3920100Y-7372600D03*
X8304300Y-872800D03*
%TO.N,CPX-5*%
X2756400Y-9612600D03*
X-7707600Y-4450000D03*
X-4067400Y-9135500D03*
X9993900Y-349000D03*
X3420200Y9396900D03*
X7880100Y-6156600D03*
X-3620000Y-8130600D03*
X-8660300Y-5000000D03*
X8290400Y5591900D03*
X7378400Y4976800D03*
X2453200Y-8555200D03*
X-6614000Y5955300D03*
X-6400000Y700000D03*
X-9945200Y1045300D03*
X7013300Y-5479400D03*
X8894600Y-310600D03*
X-7431400Y6691300D03*
X3044000Y8363300D03*
X-8851200Y930300D03*
%TO.N,CPX-4*%
X-7834400Y-5284400D03*
X9444200Y329800D03*
X8290400Y-5591900D03*
X7834400Y-5284400D03*
X3232100Y-8880100D03*
X-7880100Y6156600D03*
X3420200Y-9396900D03*
X-3420200Y-9396900D03*
X-2756400Y9612600D03*
X-8290400Y-5591900D03*
X7880100Y6156600D03*
X7446700Y5818000D03*
X-9993900Y349000D03*
X9993900Y349000D03*
X-9444200Y329800D03*
X-3232100Y-8880100D03*
X-7446700Y5818000D03*
X-6400000Y-500000D03*
X-2604800Y9083900D03*
%TO.N,CPX-3*%
X-4016857Y4920650D03*
X-2756400Y-9612600D03*
X8660300Y-5000000D03*
X9945200Y1045300D03*
X-7880100Y-6156600D03*
X-3420200Y9396900D03*
X4067400Y-9135500D03*
X-9993900Y-349000D03*
X-8290400Y5591900D03*
X2756400Y9612600D03*
%TO.N,CPX-2*%
X-1736100Y-8167500D03*
X-8304300Y-872800D03*
X-8660300Y5000000D03*
X4694700Y-8829500D03*
X2079100Y9781500D03*
X-2079100Y-9781500D03*
X6205300Y5587200D03*
X-6205300Y-5587200D03*
X-7231300Y4175000D03*
X7431400Y6691300D03*
X-7431400Y-6691300D03*
X7504900Y-3660400D03*
X1736100Y8167500D03*
X-6300000Y-1200000D03*
X-3396300Y7628100D03*
X8987900Y-4383700D03*
X-4067400Y9135500D03*
X3920100Y-7372600D03*
X-9945200Y-1045300D03*
%TO.N,CPX-1*%
X-9848100Y-1736500D03*
X-6182500Y-6402100D03*
X-6946600Y-7193400D03*
X-8987900Y4383700D03*
X4716300Y-7547600D03*
X-4694700Y8829500D03*
X6946600Y7193400D03*
X1391700Y9902700D03*
X5299200Y-8480500D03*
X6182500Y6402100D03*
X-1391700Y-9902700D03*
X8764800Y1545500D03*
X-7999300Y3901500D03*
X1238600Y8813400D03*
X-4178300Y7858200D03*
X-1238600Y-8813400D03*
X-2300000Y6100000D03*
X-8764800Y-1545500D03*
X9848100Y1736500D03*
%TO.N,XL-INT2*%
X-1900000Y-6200000D03*
X2100000Y-6100000D03*
%TO.N,XL-INT1*%
X-1100000Y-6400000D03*
X400000Y-6500000D03*
%TO.N,HALL*%
X4000000Y5200000D03*
X-5900000Y2600000D03*
%TD*%
D211*
%TO.N,+3V*%
X4900000Y4100000D02*
X4900000Y4400000D01*
X2600000Y6100000D02*
X3100000Y5600000D01*
X6300000Y2200000D02*
X5300000Y3200000D01*
X2200000Y-4300000D02*
X3000000Y-4300000D01*
X-3900000Y1800000D02*
X-3900000Y2100000D01*
X3100000Y4600000D02*
X2410000Y3910000D01*
X5300000Y3200000D02*
X5150000Y3200000D01*
X5150000Y3200000D02*
X5150000Y3850000D01*
X2100000Y-1500000D02*
X2500000Y-1900000D01*
X-200000Y6100000D02*
X2600000Y6100000D01*
X3100000Y-4200000D02*
X5400000Y-1900000D01*
X-600000Y3800000D02*
X-600000Y5700000D01*
X-4500000Y3550000D02*
X-4500000Y2700000D01*
X-750000Y-4400000D02*
X-400000Y-4750000D01*
X-4550000Y3550000D02*
X-5100000Y4100000D01*
X3100000Y-5200000D02*
X3400000Y-5500000D01*
X6300000Y500000D02*
X6300000Y2200000D01*
X-3900000Y2100000D02*
X-4500000Y2700000D01*
X2500000Y-1900000D02*
X5400000Y-1900000D01*
X5400000Y-1900000D02*
X5400000Y-1500000D01*
X-600000Y5700000D02*
X-200000Y6100000D01*
X5150000Y3850000D02*
X4900000Y4100000D01*
X5400000Y-400000D02*
X6300000Y500000D01*
X3100000Y5600000D02*
X3100000Y4600000D01*
X2410000Y3910000D02*
X1870000Y3910000D01*
X3100000Y-4200000D02*
X3100000Y-5200000D01*
X5400000Y-1500000D02*
X5400000Y-400000D01*
X-149873Y-3799873D02*
X-750000Y-4400000D01*
X-4500000Y3550000D02*
X-4550000Y3550000D01*
X3000000Y-4300000D02*
X3100000Y-4200000D01*
X-400000Y-4750000D02*
X-400000Y-6500000D01*
X250038Y-3799873D02*
X-149873Y-3799873D01*
%TO.N,GND*%
X3000000Y-3300000D02*
X3100000Y-3200000D01*
X3200000Y-3200000D02*
X3800000Y-2600000D01*
X2310000Y2200000D02*
X1870000Y2640000D01*
X1870000Y2630000D02*
X3700000Y800000D01*
X4200000Y-200000D02*
X4400000Y-400000D01*
X4400000Y-1000000D02*
X4400000Y-400000D01*
X2200000Y-3799873D02*
X2200000Y-3300000D01*
X-3500000Y3550000D02*
X-3500000Y2700000D01*
X3100000Y2200000D02*
X2310000Y2200000D01*
X-3900000Y4100000D02*
X-3500000Y3700000D01*
X-3400000Y2600000D02*
X-3500000Y2700000D01*
X3700000Y800000D02*
X4200000Y800000D01*
X2200000Y-3300000D02*
X3000000Y-3300000D01*
X3100000Y-3200000D02*
X3200000Y-3200000D01*
X4200000Y800000D02*
X4200000Y-200000D01*
X1870000Y2640000D02*
X1870000Y2630000D01*
X-3400000Y1800000D02*
X-3400000Y2600000D01*
X-3500000Y3700000D02*
X-3500000Y3550000D01*
D212*
%TO.N,CPX-0*%
X-7502700Y788600D02*
X-7487800Y919400D01*
X-4142600Y8493600D02*
X-4290200Y8420000D01*
X1180100Y-7451100D02*
X1310000Y-7429400D01*
D213*
X-6800000Y-4700000D02*
X-6400000Y-4400000D01*
D212*
X1439500Y-7405400D02*
X1568500Y-7379100D01*
X131700Y-7542900D02*
X263300Y-7539400D01*
D213*
X-2500000Y8300000D02*
X-2079400Y7251800D01*
D214*
X3169800Y-11054500D02*
X3362300Y-10997500D01*
X2194300Y-11288700D02*
X2391000Y-11248700D01*
D212*
X-823600Y-9414000D02*
X-659200Y-9427000D01*
D214*
X5750000Y-9959300D02*
X5922900Y-9857400D01*
D212*
X-6326900Y-4108800D02*
X-6397700Y-3997700D01*
X9243500Y1964800D02*
X9207800Y2125800D01*
X-4218600Y6254300D02*
X-4108800Y6326900D01*
D214*
X5575300Y-10058100D02*
X5750000Y-9959300D01*
D212*
X-7174800Y-2331200D02*
X-7214400Y-2205700D01*
X-9358000Y-1315200D02*
X-9333700Y-1478300D01*
X-1952500Y7286900D02*
X-1825100Y7319900D01*
X1049900Y-7470600D02*
X1180100Y-7451100D01*
X6682200Y6682200D02*
X6564500Y6797800D01*
X3424900Y6721800D02*
X3541700Y6661000D01*
X6465600Y-8899200D02*
X6620000Y-8785000D01*
X9225400Y-5991000D02*
X9328500Y-5829100D01*
X-5564200Y8904500D02*
X-5299200Y8480500D01*
X-3188200Y-6837200D02*
X-3307100Y-6780500D01*
X1151700Y9379600D02*
X987800Y9398200D01*
X7251800Y-2079400D02*
X7214400Y-2205700D01*
X6749300Y8043500D02*
X6427900Y7660400D01*
X-3993700Y8564600D02*
X-4142600Y8493600D01*
X-6074300Y-7239100D02*
X-4849200Y-5779000D01*
X-7214400Y2205700D02*
X-7174800Y2331200D01*
X-2580200Y-7089000D02*
X-2703500Y-7042900D01*
D213*
X-8183900Y4725000D02*
X-7800000Y5000000D01*
D212*
X-7286900Y1952500D02*
X-7251800Y2079400D01*
X-1697000Y7350600D02*
X-1568500Y7379100D01*
X-6598100Y-3657400D02*
X-6661000Y-3541700D01*
X-6994700Y-2826000D02*
X-7042900Y-2703500D01*
D213*
X7000000Y5300000D02*
X6800000Y5000000D01*
D212*
X8343900Y-4436500D02*
X8420000Y-4290200D01*
X-6682200Y-6682200D02*
X-6564500Y-6797800D01*
X7470600Y-1049900D02*
X7451100Y-1180100D01*
X6797800Y6564500D02*
X6682200Y6682200D01*
D214*
X3933200Y-10806500D02*
X4121200Y-10736200D01*
D212*
X-659200Y-9427000D02*
X-526200Y-7525600D01*
D213*
X-8700000Y100000D02*
X-8300000Y300000D01*
D212*
X-6780500Y-3307100D02*
X-6837200Y-3188200D01*
X4644600Y5944800D02*
X4747600Y5862800D01*
X9620800Y-5332900D02*
X9712400Y-5164200D01*
X1803100Y9276400D02*
X1641000Y9306400D01*
D214*
X1600500Y-11388100D02*
X1799000Y-11358400D01*
D212*
X-4218600Y-6254300D02*
X-4327100Y-6179700D01*
X-7350600Y1697000D02*
X-7319900Y1825100D01*
X-4747600Y5862800D02*
X-4644600Y5944800D01*
X2580200Y7089000D02*
X2703500Y7042900D01*
X1641000Y9306400D02*
X1478300Y9333700D01*
X8564600Y-3993700D02*
X8633000Y-3843700D01*
X9969400Y-4648800D02*
X10049000Y-4474100D01*
X-8420000Y4290200D02*
X-8493600Y4142600D01*
X8420000Y-4290200D02*
X8493600Y-4142600D01*
X7360400Y-8174600D02*
X7502000Y-8044900D01*
X6323300Y7022700D02*
X6199800Y7132000D01*
X7319900Y-1825100D02*
X7286900Y-1952500D01*
D213*
X2700000Y8100000D02*
X2580200Y7089000D01*
D212*
X987800Y9398200D02*
X823600Y9414000D01*
X-8183900Y4725000D02*
X-8265200Y4581500D01*
D213*
X-3200000Y8500000D02*
X-2500000Y8300000D01*
D212*
X6533300Y3772000D02*
X6598100Y3657400D01*
X1825100Y-7319900D02*
X1952500Y-7286900D01*
X-394800Y7533700D02*
X-263300Y7539400D01*
X-4644600Y-5944800D02*
X-4747600Y-5862800D01*
X7042900Y-2703500D02*
X6994700Y-2826000D01*
X-7470600Y1049900D02*
X-7451100Y1180100D01*
X0Y-7544000D02*
X131700Y-7542900D01*
X-7451100Y1180100D02*
X-7429400Y1310000D01*
X-4327100Y-6179700D02*
X-4434300Y-6103200D01*
X-5606300Y5047900D02*
X-5517300Y5145000D01*
X6151100Y-9119400D02*
X6309300Y-9010700D01*
X-2947700Y-6944300D02*
X-3068400Y-6891800D01*
X-6564500Y-6797800D02*
X-6444900Y-6911300D01*
D213*
X-2700000Y-7600000D02*
X-2580200Y-7089000D01*
D212*
X-9207800Y-2125800D02*
X-9169300Y-2286200D01*
X394800Y7533700D02*
X526200Y7525600D01*
X3068400Y6891800D02*
X3188200Y6837200D01*
X1952500Y-7286900D02*
X2079400Y-7251800D01*
X3307100Y6780500D02*
X3424900Y6721800D01*
D214*
X1002300Y-11456200D02*
X1202100Y-11437000D01*
D212*
X-5240500Y5426700D02*
X-5145000Y5517300D01*
X7502000Y-8044900D02*
X7641200Y-7912700D01*
X-6533300Y-3772000D02*
X-6598100Y-3657400D01*
X-7133000Y2456100D02*
X-7089000Y2580200D01*
X2947700Y6944300D02*
X3068400Y6891800D01*
X6326900Y4108800D02*
X6397700Y3997700D01*
X4218600Y6254300D02*
X4327100Y6179700D01*
D214*
X1202100Y-11437000D02*
X1401500Y-11414300D01*
D212*
X7089000Y-2580200D02*
X7042900Y-2703500D01*
X-5426700Y5240500D02*
X-5334400Y5334400D01*
X-9379600Y-1151700D02*
X-9358000Y-1315200D01*
X-1180100Y7451100D02*
X-1049900Y7470600D01*
X-9333700Y-1478300D02*
X-9306400Y-1641000D01*
X-2703500Y-7042900D02*
X-2826000Y-6994700D01*
X-3772000Y-6533300D02*
X-3885400Y-6466500D01*
D214*
X1997000Y-11325300D02*
X2194300Y-11288700D01*
D212*
X9526300Y-5500000D02*
X9620800Y-5332900D01*
X8548600Y-6922500D02*
X8668100Y-6772300D01*
X7174800Y2331200D02*
X7214400Y2205700D01*
D214*
X5041300Y-10336100D02*
X5220900Y-10246600D01*
D212*
X7515300Y-657500D02*
X7502700Y-788600D01*
D214*
X4493400Y-10585800D02*
X4677500Y-10505800D01*
D212*
X7539400Y263300D02*
X7542900Y131700D01*
X-4434300Y-6103200D02*
X-4540100Y-6024900D01*
X-7525600Y526200D02*
X-7515300Y657500D01*
X-919400Y7487800D02*
X-788600Y7502700D01*
X-4540100Y-6024900D02*
X-4644600Y-5944800D01*
X-5862800Y4747600D02*
X-5779000Y4849200D01*
D214*
X200700Y-11498200D02*
X401300Y-11493000D01*
D212*
X2703500Y7042900D02*
X2826000Y6994700D01*
X6620000Y-8785000D02*
X6772300Y-8668100D01*
X6922500Y-8548600D02*
X7070700Y-8426500D01*
X263300Y7539400D02*
X394800Y7533700D01*
X-5334400Y5334400D02*
X-5240500Y5426700D01*
X-6891800Y-3068400D02*
X-6944300Y-2947700D01*
X-1049900Y7470600D02*
X-919400Y7487800D01*
X9306400Y1641000D02*
X9276400Y1803100D01*
X6891800Y3068400D02*
X6944300Y2947700D01*
X-7042900Y-2703500D02*
X-7089000Y-2580200D01*
X-3885400Y-6466500D02*
X-3997700Y-6397700D01*
X-8761900Y3540000D02*
X-6994700Y2826000D01*
X-7042900Y2703500D02*
X-6994700Y2826000D01*
X-1310000Y7429400D02*
X-1180100Y7451100D01*
D214*
X2586900Y-11205300D02*
X2782100Y-11158400D01*
X2391000Y-11248700D02*
X2586900Y-11205300D01*
D212*
X6661000Y3541700D02*
X6721800Y3424900D01*
X2079400Y-7251800D02*
X2205700Y-7214400D01*
X-7214400Y-2205700D02*
X-7251800Y-2079400D01*
X-1478300Y-9333700D02*
X-1315200Y-9358000D01*
D213*
X8900000Y500000D02*
X8400000Y300000D01*
D212*
X6911300Y6444900D02*
X6797800Y6564500D01*
X8265200Y-4581500D02*
X8343900Y-4436500D01*
X-394800Y-7533700D02*
X-263300Y-7539400D01*
X-6721800Y-3424900D02*
X-6780500Y-3307100D01*
X-7429400Y1310000D02*
X-7405400Y1439500D01*
X-526200Y-7525600D02*
X-394800Y-7533700D01*
X-1641000Y-9306400D02*
X-1478300Y-9333700D01*
X9328500Y-5829100D02*
X9428800Y-5665400D01*
X8899200Y-6465600D02*
X9010700Y-6309300D01*
X-10188100Y-2540200D02*
X-9703000Y-2419200D01*
X-7539400Y263300D02*
X-7533700Y394800D01*
X9169300Y2286200D02*
X7319900Y1825100D01*
X-3843700Y8633000D02*
X-3993700Y8564600D01*
X-4540100Y6024900D02*
X-4434300Y6103200D01*
X6564500Y6797800D02*
X6444900Y6911300D01*
X7286900Y-1952500D02*
X7251800Y-2079400D01*
X-4436500Y8343900D02*
X-4581500Y8265200D01*
X8044900Y-7502000D02*
X8174600Y-7360400D01*
X919400Y-7487800D02*
X1049900Y-7470600D01*
X9712400Y-5164200D02*
X9801100Y-4993900D01*
X-6797800Y-6564500D02*
X-6682200Y-6682200D01*
X6199800Y7132000D02*
X6074300Y7239100D01*
D213*
X-9398200Y-987800D02*
X-9100000Y-400000D01*
D212*
X-3068400Y-6891800D02*
X-3188200Y-6837200D01*
X-7286900Y-1952500D02*
X-7319900Y-1825100D01*
D213*
X-8300000Y300000D02*
X-7539400Y263300D01*
D212*
X2456100Y-7133000D02*
X2580200Y-7089000D01*
D214*
X4860100Y-10422500D02*
X5041300Y-10336100D01*
D212*
X-8343900Y4436500D02*
X-8420000Y4290200D01*
X1697000Y-7350600D02*
X1825100Y-7319900D01*
X7214400Y-2205700D02*
X7174800Y-2331200D01*
X-5007700Y8014100D02*
X-3997700Y6397700D01*
D213*
X-6500000Y4800000D02*
X-5944800Y4644600D01*
D212*
X1568500Y-7379100D02*
X1697000Y-7350600D01*
X-4108800Y-6326900D02*
X-4218600Y-6254300D01*
X8785000Y-6620000D02*
X8899200Y-6465600D01*
X-8698800Y3692400D02*
X-8761900Y3540000D01*
D214*
X4121200Y-10736200D02*
X4308000Y-10662600D01*
X2782100Y-11158400D02*
X2976400Y-11108100D01*
D212*
X-9169300Y-2286200D02*
X-7319900Y-1825100D01*
X823600Y9414000D02*
X659200Y9427000D01*
X9358000Y1315200D02*
X9333700Y1478300D01*
X7133000Y-2456100D02*
X7089000Y-2580200D01*
X10188100Y2540200D02*
X9703000Y2419200D01*
D213*
X-7100000Y-5800000D02*
X-7000000Y-5200000D01*
D212*
X7539400Y-263300D02*
X7533700Y-394800D01*
X7451100Y-1180100D02*
X7429400Y-1310000D01*
X-5145000Y5517300D02*
X-5047900Y5606300D01*
X8698800Y-3692400D02*
X8761900Y-3540000D01*
X-1803100Y-9276400D02*
X-1641000Y-9306400D01*
X5991000Y-9225400D02*
X6151100Y-9119400D01*
X1315200Y9358000D02*
X1151700Y9379600D01*
X9379600Y1151700D02*
X9358000Y1315200D01*
X4327100Y6179700D02*
X4434300Y6103200D01*
D214*
X1401500Y-11414300D02*
X1600500Y-11388100D01*
D212*
X-6944300Y-2947700D02*
X-6994700Y-2826000D01*
X-7379100Y1568500D02*
X-7350600Y1697000D01*
X9276400Y1803100D02*
X9243500Y1964800D01*
X9801100Y-4993900D02*
X9886700Y-4822100D01*
X8301800Y-7216600D02*
X8426500Y-7070700D01*
X-1315200Y-9358000D02*
X-1151700Y-9379600D01*
X-4327100Y6179700D02*
X-4218600Y6254300D01*
X7525600Y-526200D02*
X7515300Y-657500D01*
D213*
X-3843700Y8633000D02*
X-3200000Y8500000D01*
D212*
X-9306400Y-1641000D02*
X-9276400Y-1803100D01*
X-7533700Y394800D02*
X-7525600Y526200D01*
X2205700Y-7214400D02*
X2331200Y-7174800D01*
X4108800Y6326900D02*
X4218600Y6254300D01*
X7350600Y-1697000D02*
X7319900Y-1825100D01*
D213*
X6800000Y5000000D02*
X6254300Y4218600D01*
D212*
X10049000Y-4474100D02*
X10125600Y-4298000D01*
X-7251800Y-2079400D02*
X-7286900Y-1952500D01*
X-4949300Y5693500D02*
X-4849200Y5779000D01*
X-657500Y7515300D02*
X-526200Y7525600D01*
X-1568500Y7379100D02*
X-1439500Y7405400D01*
X-7174800Y2331200D02*
X-7133000Y2456100D01*
X-6837200Y-3188200D02*
X-6891800Y-3068400D01*
X9398200Y987800D02*
X9379600Y1151700D01*
X659200Y9427000D02*
X526200Y7525600D01*
X-7133000Y-2456100D02*
X-7174800Y-2331200D01*
X-6749300Y-8043500D02*
X-6427900Y-7660400D01*
X657500Y-7515300D02*
X788600Y-7502700D01*
X-6397700Y-3997700D02*
X-6466500Y-3885400D01*
X6309300Y-9010700D02*
X6465600Y-8899200D01*
X7251800Y2079400D02*
X7286900Y1952500D01*
D213*
X-2400000Y-9100000D02*
X-2800000Y-8600000D01*
D212*
X4540100Y6024900D02*
X4644600Y5944800D01*
X9428800Y-5665400D02*
X9526300Y-5500000D01*
X-7319900Y1825100D02*
X-7286900Y1952500D01*
D214*
X2976400Y-11108100D02*
X3169800Y-11054500D01*
D212*
X6721800Y3424900D02*
X6780500Y3307100D01*
X0Y7544000D02*
X131700Y7542900D01*
D213*
X-1964800Y-9243500D02*
X-2400000Y-9100000D01*
D212*
X-131700Y-7542900D02*
X0Y-7544000D01*
X3188200Y6837200D02*
X3307100Y6780500D01*
D214*
X3744000Y-10873500D02*
X3933200Y-10806500D01*
D213*
X-6400000Y-4400000D02*
X-6254300Y-4218600D01*
D212*
X7133000Y2456100D02*
X7174800Y2331200D01*
X7429400Y-1310000D02*
X7405400Y-1439500D01*
X-4644600Y5944800D02*
X-4540100Y6024900D01*
X7174800Y-2331200D02*
X7133000Y-2456100D01*
D214*
X5220900Y-10246600D02*
X5398900Y-10153900D01*
D212*
X-5944800Y4644600D02*
X-5862800Y4747600D01*
X3997700Y6397700D02*
X4108800Y6326900D01*
X263300Y-7539400D02*
X394800Y-7533700D01*
X7214400Y2205700D02*
X7251800Y2079400D01*
X6598100Y3657400D02*
X6661000Y3541700D01*
X-6911300Y-6444900D02*
X-6797800Y-6564500D01*
X6444900Y6911300D02*
X6323300Y7022700D01*
X-4290200Y8420000D02*
X-4436500Y8343900D01*
X-9243500Y-1964800D02*
X-9207800Y-2125800D01*
D213*
X2400000Y8700000D02*
X2700000Y8100000D01*
D212*
X4434300Y6103200D02*
X4540100Y6024900D01*
X131700Y7542900D02*
X263300Y7539400D01*
D214*
X3362300Y-10997500D02*
X3553700Y-10937100D01*
D212*
X-987800Y-9398200D02*
X-823600Y-9414000D01*
X7544000Y0D02*
X7542900Y-131700D01*
X6772300Y-8668100D02*
X6922500Y-8548600D01*
D214*
X802200Y-11472000D02*
X1002300Y-11456200D01*
D212*
X-2826000Y-6994700D02*
X-2947700Y-6944300D01*
X-9276400Y-1803100D02*
X-9243500Y-1964800D01*
X-6199800Y-7132000D02*
X-6074300Y-7239100D01*
X7487800Y-919400D02*
X7470600Y-1049900D01*
X8493600Y-4142600D02*
X8564600Y-3993700D01*
D214*
X4308000Y-10662600D02*
X4493400Y-10585800D01*
D212*
X7070700Y-8426500D02*
X7216600Y-8301800D01*
X6466500Y3885400D02*
X6533300Y3772000D01*
D214*
X3553700Y-10937100D02*
X3744000Y-10873500D01*
D212*
X-526200Y7525600D02*
X-394800Y7533700D01*
X732400Y10474400D02*
X697600Y9975600D01*
X-8633000Y3843700D02*
X-8698800Y3692400D01*
X9886700Y-4822100D02*
X9969400Y-4648800D01*
X7216600Y-8301800D02*
X7360400Y-8174600D01*
X-1825100Y7319900D02*
X-1697000Y7350600D01*
D214*
X0Y-11500000D02*
X200700Y-11498200D01*
D212*
X3657400Y6598100D02*
X3772000Y6533300D01*
X7542900Y131700D02*
X7544000Y0D01*
X-7089000Y2580200D02*
X-7042900Y2703500D01*
X-4581500Y8265200D02*
X-4725000Y8183900D01*
D214*
X5398900Y-10153900D02*
X5575300Y-10058100D01*
D212*
X-4434300Y6103200D02*
X-4327100Y6179700D01*
X1964800Y9243500D02*
X1803100Y9276400D01*
X2331200Y-7174800D02*
X2456100Y-7133000D01*
X-7022700Y-6323300D02*
X-6911300Y-6444900D01*
X1310000Y-7429400D02*
X1439500Y-7405400D01*
X-6466500Y-3885400D02*
X-6533300Y-3772000D01*
X-263300Y7539400D02*
X-131700Y7542900D01*
X-4725000Y8183900D02*
X-4867100Y8100200D01*
X-7487800Y919400D02*
X-7470600Y1049900D01*
X-4849200Y5779000D02*
X-4747600Y5862800D01*
X-6661000Y-3541700D02*
X-6721800Y-3424900D01*
X6397700Y3997700D02*
X6466500Y3885400D01*
X8426500Y-7070700D02*
X8548600Y-6922500D01*
X8761900Y-3540000D02*
X6994700Y-2826000D01*
X-131700Y7542900D02*
X0Y7544000D01*
X-9735400Y3933400D02*
X-9271800Y3746100D01*
D213*
X-9100000Y-400000D02*
X-8700000Y100000D01*
D212*
X7641200Y-7912700D02*
X7778200Y-7778200D01*
X6780500Y3307100D02*
X6837200Y3188200D01*
D214*
X401300Y-11493000D02*
X601900Y-11484200D01*
D212*
X3541700Y6661000D02*
X3657400Y6598100D01*
X9010700Y-6309300D02*
X9119400Y-6151100D01*
X-5779000Y4849200D02*
X-5693500Y4949300D01*
X7405400Y-1439500D02*
X7379100Y-1568500D01*
X9735400Y-3933400D02*
X9271800Y-3746100D01*
X7379100Y-1568500D02*
X7350600Y-1697000D01*
X3885400Y6466500D02*
X3997700Y6397700D01*
X2826000Y6994700D02*
X2947700Y6944300D01*
X-3997700Y-6397700D02*
X-4108800Y-6326900D01*
X-8564600Y3993700D02*
X-8633000Y3843700D01*
X-6323300Y-7022700D02*
X-6199800Y-7132000D01*
X-6444900Y-6911300D02*
X-6323300Y-7022700D01*
X-732400Y-10474400D02*
X-697600Y-9975600D01*
X-8265200Y4581500D02*
X-8343900Y4436500D01*
D211*
X-1400000Y1800000D02*
X-1400000Y6300000D01*
D212*
X-1151700Y-9379600D02*
X-987800Y-9398200D01*
X9207800Y2125800D02*
X9169300Y2286200D01*
X-3307100Y-6780500D02*
X-3424900Y-6721800D01*
D213*
X-7000000Y-5200000D02*
X-6800000Y-4700000D01*
D212*
X7778200Y-7778200D02*
X7912700Y-7641200D01*
X-7251800Y2079400D02*
X-7214400Y2205700D01*
X-9398200Y-987800D02*
X-9379600Y-1151700D01*
X-5693500Y4949300D02*
X-5606300Y5047900D01*
X-8493600Y4142600D02*
X-8564600Y3993700D01*
D213*
X9398200Y987800D02*
X8900000Y500000D01*
D214*
X5922900Y-9857400D02*
X6094100Y-9752600D01*
D212*
X8183900Y-4725000D02*
X8265200Y-4581500D01*
X7542900Y-131700D02*
X7539400Y-263300D01*
X-4747600Y-5862800D02*
X-4849200Y-5779000D01*
X-1964800Y-9243500D02*
X-1803100Y-9276400D01*
X-7089000Y-2580200D02*
X-7133000Y-2456100D01*
X7286900Y1952500D02*
X7319900Y1825100D01*
D213*
X1964800Y9243500D02*
X2400000Y8700000D01*
D212*
X394800Y-7533700D02*
X526200Y-7525600D01*
D213*
X-7800000Y5000000D02*
X-7400000Y5100000D01*
D212*
X8633000Y-3843700D02*
X8698800Y-3692400D01*
X-7405400Y1439500D02*
X-7379100Y1568500D01*
X788600Y-7502700D02*
X919400Y-7487800D01*
X-5047900Y5606300D02*
X-4949300Y5693500D01*
X9119400Y-6151100D02*
X9225400Y-5991000D01*
X6994700Y2826000D02*
X7042900Y2703500D01*
X7022700Y6323300D02*
X6911300Y6444900D01*
D213*
X8400000Y300000D02*
X7539400Y263300D01*
D212*
X8668100Y-6772300D02*
X8785000Y-6620000D01*
X6944300Y2947700D02*
X6994700Y2826000D01*
X1478300Y9333700D02*
X1315200Y9358000D01*
X4747600Y5862800D02*
X4849200Y5779000D01*
D213*
X-7022700Y-6323300D02*
X-7100000Y-5800000D01*
X9712228Y-3924032D02*
X10125600Y-4298000D01*
D212*
X-3424900Y-6721800D02*
X-3541700Y-6661000D01*
X526200Y-7525600D02*
X657500Y-7515300D01*
X8174600Y-7360400D02*
X8301800Y-7216600D01*
X3772000Y6533300D02*
X3885400Y6466500D01*
X-4108800Y6326900D02*
X-3997700Y6397700D01*
X6837200Y3188200D02*
X6891800Y3068400D01*
X-7515300Y657500D02*
X-7502700Y788600D01*
X7912700Y-7641200D02*
X8044900Y-7502000D01*
X5829100Y-9328500D02*
X5991000Y-9225400D01*
X-4867100Y8100200D02*
X-5007700Y8014100D01*
X6254300Y4218600D02*
X6326900Y4108800D01*
X-6254300Y-4218600D02*
X-6326900Y-4108800D01*
X7089000Y2580200D02*
X7133000Y2456100D01*
D213*
X-6900000Y5000000D02*
X-6500000Y4800000D01*
D214*
X601900Y-11484200D02*
X802200Y-11472000D01*
D212*
X-3541700Y-6661000D02*
X-3657400Y-6598100D01*
X-5517300Y5145000D02*
X-5426700Y5240500D01*
X6094100Y-9752600D02*
X5829100Y-9328500D01*
X-3657400Y-6598100D02*
X-3772000Y-6533300D01*
D213*
X-2800000Y-8600000D02*
X-2700000Y-7600000D01*
D212*
X-2079400Y7251800D02*
X-1952500Y7286900D01*
X6074300Y7239100D02*
X4849200Y5779000D01*
D213*
X-7400000Y5100000D02*
X-6900000Y5000000D01*
D212*
X7502700Y-788600D02*
X7487800Y-919400D01*
X7533700Y-394800D02*
X7525600Y-526200D01*
D213*
X7022700Y6323300D02*
X7000000Y5900000D01*
D212*
X-788600Y7502700D02*
X-657500Y7515300D01*
D213*
X7000000Y5900000D02*
X7000000Y5300000D01*
D212*
X9333700Y1478300D02*
X9306400Y1641000D01*
X-263300Y-7539400D02*
X-131700Y-7542900D01*
D214*
X1799000Y-11358400D02*
X1997000Y-11325300D01*
D212*
X-1439500Y7405400D02*
X-1310000Y7429400D01*
D214*
X4677500Y-10505800D02*
X4860100Y-10422500D01*
D212*
X7042900Y2703500D02*
X7089000Y2580200D01*
%TO.N,CPX-9*%
X-575700Y-10984900D02*
X-383900Y-10993300D01*
D214*
X-3553700Y-10937100D02*
X-3362300Y-10997500D01*
X-2976400Y-11108100D02*
X-2782100Y-11158400D01*
X-1997000Y-11325300D02*
X-1799000Y-11358400D01*
X-3362300Y-10997500D02*
X-3169800Y-11054500D01*
X-5922900Y-9857400D02*
X-5750000Y-9959300D01*
X-4860100Y-10422500D02*
X-4677500Y-10505800D01*
D211*
X-6181900Y-2008600D02*
X-4890500Y-3300000D01*
D212*
X9986100Y3244700D02*
X9510600Y3090200D01*
D214*
X-1600500Y-11388100D02*
X-1401500Y-11414300D01*
X-4308000Y-10662600D02*
X-4121200Y-10736200D01*
X-5041300Y-10336100D02*
X-4860100Y-10422500D01*
X-5575300Y-10058100D02*
X-5398900Y-10153900D01*
X-5220900Y-10246600D02*
X-5041300Y-10336100D01*
X-2391000Y-11248700D02*
X-2194300Y-11288700D01*
X-3744000Y-10873500D02*
X-3553700Y-10937100D01*
X-1401500Y-11414300D02*
X-1202100Y-11437000D01*
D212*
X-9986100Y-3244700D02*
X-9510600Y-3090200D01*
D211*
X-4890500Y-3300000D02*
X-3700000Y-3300000D01*
D214*
X-6094100Y-9752600D02*
X-5922900Y-9857400D01*
D212*
X6171700Y-8494700D02*
X5877900Y-8090200D01*
X0Y-10500000D02*
X0Y-11000000D01*
X-6171700Y8494700D02*
X-5877900Y8090200D01*
X-802200Y-11472000D02*
X-767300Y-10973200D01*
D211*
X-3700000Y-3300000D02*
X-2900000Y-2500000D01*
D212*
X9986100Y-3244700D02*
X9510600Y-3090200D01*
D214*
X-6430700Y-9533900D02*
X-6263300Y-9644700D01*
X-5398900Y-10153900D02*
X-5220900Y-10246600D01*
D212*
X-9986100Y3244700D02*
X-9510600Y3090200D01*
D214*
X-6263300Y-9644700D02*
X-6094100Y-9752600D01*
X-5750000Y-9959300D02*
X-5575300Y-10058100D01*
X-4493400Y-10585800D02*
X-4308000Y-10662600D01*
X-2586900Y-11205300D02*
X-2391000Y-11248700D01*
D212*
X6171700Y8494700D02*
X5877900Y8090200D01*
D214*
X-3169800Y-11054500D02*
X-2976400Y-11108100D01*
X-2194300Y-11288700D02*
X-1997000Y-11325300D01*
X-4121200Y-10736200D02*
X-3933200Y-10806500D01*
D211*
X-2900000Y-2500000D02*
X-2900000Y-2000000D01*
D212*
X0Y10500000D02*
X0Y10000000D01*
D214*
X-6759500Y-9303700D02*
X-6596100Y-9420200D01*
X-2782100Y-11158400D02*
X-2586900Y-11205300D01*
D212*
X0Y-10500000D02*
X0Y-10000000D01*
X-767300Y-10973200D02*
X-575700Y-10984900D01*
D214*
X-3933200Y-10806500D02*
X-3744000Y-10873500D01*
D212*
X-383900Y-10993300D02*
X-192000Y-10998300D01*
D214*
X-6596100Y-9420200D02*
X-6430700Y-9533900D01*
X-1799000Y-11358400D02*
X-1600500Y-11388100D01*
X-1202100Y-11437000D02*
X-1002300Y-11456200D01*
X-1002300Y-11456200D02*
X-802200Y-11472000D01*
X-4677500Y-10505800D02*
X-4493400Y-10585800D01*
D212*
X-192000Y-10998300D02*
X0Y-11000000D01*
%TO.N,CPX-8*%
X-7392100Y-8809500D02*
X-7070700Y-8426500D01*
D214*
X-8410600Y-7843000D02*
X-8272400Y-7988600D01*
X-9303700Y-6759500D02*
X-9184300Y-6920900D01*
X-10422500Y-4860100D02*
X-10336100Y-5041300D01*
X-10937100Y-3553700D02*
X-10873500Y-3744000D01*
X-10736200Y-4121200D02*
X-10662600Y-4308000D01*
D212*
X-6171700Y-8494700D02*
X-5877900Y-8090200D01*
D214*
X-9857400Y-5922900D02*
X-9752600Y-6094100D01*
X-10505800Y-4677500D02*
X-10422500Y-4860100D01*
X-7695000Y-8546200D02*
X-7544700Y-8679200D01*
D212*
X10188100Y-2540200D02*
X9703000Y-2419200D01*
D214*
X-8272400Y-7988600D02*
X-8131700Y-8131700D01*
X-7843000Y-8410600D02*
X-7695000Y-8546200D01*
X-10873500Y-3744000D02*
X-10806500Y-3933200D01*
D212*
X6749300Y-8043500D02*
X6427900Y-7660400D01*
D214*
X-9062100Y-7080100D02*
X-8937200Y-7237200D01*
X-9752600Y-6094100D02*
X-9644700Y-6263300D01*
X-9420200Y-6596100D02*
X-9303700Y-6759500D01*
X-10153900Y-5398900D02*
X-10058100Y-5575300D01*
D212*
X-732400Y10474400D02*
X-697600Y9975600D01*
D214*
X-8131700Y-8131700D02*
X-7988600Y-8272400D01*
X-10336100Y-5041300D02*
X-10246600Y-5220900D01*
X-10806500Y-3933200D02*
X-10736200Y-4121200D01*
D212*
X-10188100Y2540200D02*
X-9703000Y2419200D01*
X-6171700Y-8494700D02*
X-6465600Y-8899200D01*
X-6749300Y8043500D02*
X-6427900Y7660400D01*
D214*
X-8546200Y-7695000D02*
X-8410600Y-7843000D01*
X-8937200Y-7237200D02*
X-8809500Y-7392100D01*
X-9644700Y-6263300D02*
X-9533900Y-6430700D01*
D212*
X732400Y-10474400D02*
X697600Y-9975600D01*
X5564200Y8904500D02*
X5299200Y8480500D01*
X-6922500Y-8548600D02*
X-6772300Y-8668100D01*
D214*
X-7544700Y-8679200D02*
X-7392100Y-8809500D01*
D211*
X-2400000Y-3400000D02*
X-2400000Y-2000000D01*
D214*
X-10246600Y-5220900D02*
X-10153900Y-5398900D01*
D211*
X-5227894Y-4000000D02*
X-3000000Y-4000000D01*
D214*
X-8809500Y-7392100D02*
X-8679200Y-7544700D01*
D211*
X-3000000Y-4000000D02*
X-2400000Y-3400000D01*
D214*
X-7988600Y-8272400D02*
X-7843000Y-8410600D01*
D212*
X-7070700Y-8426500D02*
X-6922500Y-8548600D01*
D214*
X-9959300Y-5750000D02*
X-9857400Y-5922900D01*
D212*
X9735400Y3933400D02*
X9271800Y3746100D01*
D214*
X-8679200Y-7544700D02*
X-8546200Y-7695000D01*
X-9533900Y-6430700D02*
X-9420200Y-6596100D01*
X-10662600Y-4308000D02*
X-10585800Y-4493400D01*
D212*
X-6772300Y-8668100D02*
X-6620000Y-8785000D01*
D214*
X-10585800Y-4493400D02*
X-10505800Y-4677500D01*
X-10058100Y-5575300D02*
X-9959300Y-5750000D01*
X-9184300Y-6920900D02*
X-9062100Y-7080100D01*
D212*
X-6620000Y-8785000D02*
X-6465600Y-8899200D01*
D214*
%TO.N,CPX-7*%
X-11205300Y2586900D02*
X-11248700Y2391000D01*
X-11158400Y2782100D02*
X-11205300Y2586900D01*
D212*
X-9735400Y-3933400D02*
X-10199000Y-4120700D01*
D214*
X-11248700Y2391000D02*
X-11288700Y2194300D01*
D213*
X10315876Y-1818935D02*
X9306400Y-1641000D01*
D214*
X-11248700Y-2391000D02*
X-11205300Y-2586900D01*
X-11472000Y-802200D02*
X-11456200Y-1002300D01*
X-11054500Y3169800D02*
X-11108100Y2976400D01*
D211*
X-3200000Y5500000D02*
X-3200000Y4900000D01*
D214*
X-11484200Y-601900D02*
X-11472000Y-802200D01*
X-11414300Y1401500D02*
X-11437000Y1202100D01*
D212*
X-10673300Y-2661100D02*
X-10625200Y-2847000D01*
D214*
X-11358400Y1799000D02*
X-11388100Y1600500D01*
D212*
X-10461600Y-3399200D02*
X-10400700Y-3581200D01*
D214*
X-11456200Y-1002300D02*
X-11437000Y-1202100D01*
D211*
X-3200000Y4900000D02*
X-2400000Y4100000D01*
D214*
X-11498200Y-200700D02*
X-11493000Y-401300D01*
X-11108100Y2976400D02*
X-11158400Y2782100D01*
X-11456200Y1002300D02*
X-11472000Y802200D01*
X-10997500Y3362300D02*
X-11054500Y3169800D01*
D212*
X-10573900Y-3032000D02*
X-10519400Y-3216100D01*
D214*
X-11437000Y1202100D02*
X-11456200Y1002300D01*
D212*
X-10336600Y-3762200D02*
X-10269400Y-3942000D01*
D214*
X-10937100Y3553700D02*
X-10997500Y3362300D01*
X-11498200Y200700D02*
X-11500000Y0D01*
D212*
X-10400700Y-3581200D02*
X-10336600Y-3762200D01*
X4929500Y9270900D02*
X4694700Y8829500D01*
X-5564200Y-8904500D02*
X-5299200Y-8480500D01*
D214*
X-11500000Y0D02*
X-11498200Y-200700D01*
X-11388100Y1600500D02*
X-11414300Y1401500D01*
D212*
X-7293900Y7553100D02*
X-6946600Y7193400D01*
D214*
X-11484200Y601900D02*
X-11493000Y401300D01*
D212*
X-11158400Y-2782100D02*
X-10673300Y-2661100D01*
X-1461300Y10397800D02*
X-1391700Y9902700D01*
X-10269400Y-3942000D02*
X-10199000Y-4120700D01*
X-10519400Y-3216100D02*
X-10461600Y-3399200D01*
D211*
X-2400000Y4100000D02*
X-2400000Y1800000D01*
D212*
X7293900Y-7553100D02*
X6946600Y-7193400D01*
D214*
X-11414300Y-1401500D02*
X-11388100Y-1600500D01*
X-11472000Y802200D02*
X-11484200Y601900D01*
X-11358400Y-1799000D02*
X-11325300Y-1997000D01*
X-11205300Y-2586900D02*
X-11158400Y-2782100D01*
X-11325300Y1997000D02*
X-11358400Y1799000D01*
D212*
X9437300Y4602900D02*
X8987900Y4383700D01*
D214*
X-11493000Y401300D02*
X-11498200Y200700D01*
D212*
X1461300Y-10397800D02*
X1391700Y-9902700D01*
D214*
X-11288700Y2194300D02*
X-11325300Y1997000D01*
X-11325300Y-1997000D02*
X-11288700Y-2194300D01*
X-11493000Y-401300D02*
X-11484200Y-601900D01*
D212*
X-10625200Y-2847000D02*
X-10573900Y-3032000D01*
D214*
X-11388100Y-1600500D02*
X-11358400Y-1799000D01*
X-11288700Y-2194300D02*
X-11248700Y-2391000D01*
X-11437000Y-1202100D02*
X-11414300Y-1401500D01*
D212*
X-9735400Y-3933400D02*
X-9271800Y-3746100D01*
D214*
%TO.N,CPX-6*%
X-10585800Y4493400D02*
X-10662600Y4308000D01*
X-8131700Y8131700D02*
X-8272400Y7988600D01*
D212*
X-10573900Y3032000D02*
X-10625200Y2847000D01*
D214*
X-7080100Y9062100D02*
X-7237200Y8937200D01*
X-8809500Y7392100D02*
X-8937200Y7237200D01*
D212*
X-10673300Y2661100D02*
X-10718100Y2474500D01*
D214*
X-9752600Y6094100D02*
X-9857400Y5922900D01*
D212*
X-10797900Y2098900D02*
X-10832900Y1910100D01*
D214*
X-7695000Y8546200D02*
X-7843000Y8410600D01*
X-10246600Y5220900D02*
X-10336100Y5041300D01*
D212*
X7803000Y-7025900D02*
X7431400Y-6691300D01*
D211*
X-5500000Y900000D02*
X-6200000Y1600000D01*
D214*
X-9062100Y7080100D02*
X-9184300Y6920900D01*
X-8410600Y7843000D02*
X-8546200Y7695000D01*
X-6759500Y9303700D02*
X-6920900Y9184300D01*
D212*
X-10718100Y2474500D02*
X-10759600Y2287000D01*
X-10759600Y2287000D02*
X-10797900Y2098900D01*
X9093300Y5250000D02*
X8660300Y5000000D01*
D214*
X-10505800Y4677500D02*
X-10585800Y4493400D01*
X-8937200Y7237200D02*
X-9062100Y7080100D01*
X-7237200Y8937200D02*
X-7392100Y8809500D01*
D212*
X4270700Y9592200D02*
X4067400Y9135500D01*
X-9437300Y-4602900D02*
X-8987900Y-4383700D01*
X-10340500Y1823300D02*
X-9848100Y1736500D01*
D214*
X-9644700Y6263300D02*
X-9752600Y6094100D01*
D212*
X-10519400Y3216100D02*
X-10573900Y3032000D01*
X2183100Y-10270500D02*
X2079100Y-9781500D01*
D214*
X-6920900Y9184300D02*
X-7080100Y9062100D01*
X-9959300Y5750000D02*
X-10058100Y5575300D01*
D212*
X-10625200Y2847000D02*
X-10673300Y2661100D01*
D214*
X-9857400Y5922900D02*
X-9959300Y5750000D01*
D212*
X-10269400Y3942000D02*
X-10336600Y3762200D01*
D214*
X-7544700Y8679200D02*
X-7695000Y8546200D01*
X-8546200Y7695000D02*
X-8679200Y7544700D01*
X-7843000Y8410600D02*
X-7988600Y8272400D01*
X-10153900Y5398900D02*
X-10246600Y5220900D01*
X-10336100Y5041300D02*
X-10422500Y4860100D01*
X-7392100Y8809500D02*
X-7544700Y8679200D01*
D212*
X-2183100Y10270500D02*
X-2079100Y9781500D01*
X-10336600Y3762200D02*
X-10400700Y3581200D01*
D214*
X-9533900Y6430700D02*
X-9644700Y6263300D01*
D212*
X-10461600Y3399200D02*
X-10519400Y3216100D01*
D214*
X-8272400Y7988600D02*
X-8410600Y7843000D01*
D212*
X-10662600Y4308000D02*
X-10199000Y4120700D01*
X-4929500Y-9270900D02*
X-4694700Y-8829500D01*
X10442500Y-1097500D02*
X9945200Y-1045300D01*
D214*
X-10058100Y5575300D02*
X-10153900Y5398900D01*
X-9184300Y6920900D02*
X-9303700Y6759500D01*
X-9303700Y6759500D02*
X-9420200Y6596100D01*
D212*
X-10340500Y1823300D02*
X-10832900Y1910100D01*
X-10199000Y4120700D02*
X-10269400Y3942000D01*
X-10400700Y3581200D02*
X-10461600Y3399200D01*
D214*
X-7988600Y8272400D02*
X-8131700Y8131700D01*
X-10422500Y4860100D02*
X-10505800Y4677500D01*
X-8679200Y7544700D02*
X-8809500Y7392100D01*
X-9420200Y6596100D02*
X-9533900Y6430700D01*
D211*
X-4300000Y900000D02*
X-5500000Y900000D01*
D214*
%TO.N,CPX-5*%
X-3744000Y10873500D02*
X-3933200Y10806500D01*
D211*
X-4300000Y400000D02*
X-6100000Y400000D01*
D212*
X2894200Y-10093200D02*
X2756400Y-9612600D01*
X-7912700Y7641200D02*
X-8044900Y7502000D01*
D214*
X-4121200Y10736200D02*
X-4308000Y10662600D01*
D212*
X-7778200Y7778200D02*
X-7912700Y7641200D01*
D214*
X-1002300Y11456200D02*
X-1202100Y11437000D01*
X-5398900Y10153900D02*
X-5575300Y10058100D01*
D212*
X-6772300Y8668100D02*
X-6922500Y8548600D01*
D214*
X-3553700Y10937100D02*
X-3744000Y10873500D01*
X-2194300Y11288700D02*
X-2391000Y11248700D01*
X-4308000Y10662600D02*
X-4493400Y10585800D01*
D212*
X-9093300Y-5250000D02*
X-8660300Y-5000000D01*
X-7502000Y8044900D02*
X-7641200Y7912700D01*
D214*
X-401300Y11493000D02*
X-601900Y11484200D01*
D212*
X-7216600Y8301800D02*
X-7360400Y8174600D01*
X-7070700Y8426500D02*
X-7216600Y8301800D01*
D214*
X-1600500Y11388100D02*
X-1799000Y11358400D01*
X-2391000Y11248700D02*
X-2586900Y11205300D01*
X-5575300Y10058100D02*
X-5750000Y9959300D01*
D212*
X-6309300Y9010700D02*
X-6465600Y8899200D01*
D214*
X-200700Y11498200D02*
X-401300Y11493000D01*
X-802200Y11472000D02*
X-1002300Y11456200D01*
X-4677500Y10505800D02*
X-4860100Y10422500D01*
X-2586900Y11205300D02*
X-2782100Y11158400D01*
D212*
X-7360400Y8174600D02*
X-7502000Y8044900D01*
D214*
X-5922900Y9857400D02*
X-6094100Y9752600D01*
D212*
X8274100Y-6464400D02*
X7880100Y-6156600D01*
X10493600Y-366400D02*
X9993900Y-349000D01*
X-6922500Y8548600D02*
X-7070700Y8426500D01*
X-6151100Y9119400D02*
X-6309300Y9010700D01*
D211*
X-6100000Y400000D02*
X-6400000Y700000D01*
D214*
X-1997000Y11325300D02*
X-2194300Y11288700D01*
X-5041300Y10336100D02*
X-5220900Y10246600D01*
D212*
X-10442500Y1097500D02*
X-9945200Y1045300D01*
X-6094100Y9752600D02*
X-5829100Y9328500D01*
D214*
X-4493400Y10585800D02*
X-4677500Y10505800D01*
X-5750000Y9959300D02*
X-5922900Y9857400D01*
D212*
X-6465600Y8899200D02*
X-6620000Y8785000D01*
D214*
X-4860100Y10422500D02*
X-5041300Y10336100D01*
X-1202100Y11437000D02*
X-1401500Y11414300D01*
D212*
X-7803000Y7025900D02*
X-8174600Y7360400D01*
D214*
X-2976400Y11108100D02*
X-3169800Y11054500D01*
D212*
X-6620000Y8785000D02*
X-6772300Y8668100D01*
D214*
X-1401500Y11414300D02*
X-1600500Y11388100D01*
X-3169800Y11054500D02*
X-3362300Y10997500D01*
X-3933200Y10806500D02*
X-4121200Y10736200D01*
D212*
X3591200Y9866800D02*
X3420200Y9396900D01*
D214*
X-1799000Y11358400D02*
X-1997000Y11325300D01*
X-3362300Y10997500D02*
X-3553700Y10937100D01*
D212*
X-8044900Y7502000D02*
X-8174600Y7360400D01*
X-5829100Y9328500D02*
X-5991000Y9225400D01*
D214*
X-2782100Y11158400D02*
X-2976400Y11108100D01*
X-5220900Y10246600D02*
X-5398900Y10153900D01*
D212*
X-7641200Y7912700D02*
X-7778200Y7778200D01*
D214*
X0Y11500000D02*
X-200700Y11498200D01*
X-601900Y11484200D02*
X-802200Y11472000D01*
D212*
X-5991000Y9225400D02*
X-6151100Y9119400D01*
X-7803000Y7025900D02*
X-7431400Y6691300D01*
X8704900Y5871500D02*
X8290400Y5591900D01*
X-4270700Y-9592200D02*
X-4067400Y-9135500D01*
D214*
%TO.N,CPX-4*%
X5220900Y10246600D02*
X5041300Y10336100D01*
X6263300Y9644700D02*
X6094100Y9752600D01*
D212*
X802200Y11472000D02*
X767300Y10973200D01*
X575700Y10984900D02*
X383900Y10993300D01*
X-2894200Y10093200D02*
X-2756400Y9612600D01*
X-767300Y10973200D02*
X-958700Y10958100D01*
X192000Y10998300D02*
X0Y11000000D01*
X-8274100Y6464400D02*
X-7880100Y6156600D01*
D214*
X6430700Y9533900D02*
X6263300Y9644700D01*
D212*
X-1720800Y10864600D02*
X-1910100Y10832900D01*
D214*
X2391000Y11248700D02*
X2194300Y11288700D01*
X4677500Y10505800D02*
X4493400Y10585800D01*
D212*
X-575700Y10984900D02*
X-767300Y10973200D01*
X10493600Y366400D02*
X9993900Y349000D01*
D214*
X2976400Y11108100D02*
X2782100Y11158400D01*
D212*
X-1530900Y10892900D02*
X-1720800Y10864600D01*
X-2474500Y10718100D02*
X-2661100Y10673300D01*
D214*
X4493400Y10585800D02*
X4308000Y10662600D01*
X5041300Y10336100D02*
X4860100Y10422500D01*
X4121200Y10736200D02*
X3933200Y10806500D01*
X6596100Y9420200D02*
X6430700Y9533900D01*
D212*
X-2847000Y10625200D02*
X-3032000Y10573900D01*
X-10493600Y366400D02*
X-9993900Y349000D01*
X-1910100Y10832900D02*
X-2098900Y10797900D01*
D211*
X-6400000Y-500000D02*
X-4950000Y-500000D01*
D214*
X5575300Y10058100D02*
X5398900Y10153900D01*
X4308000Y10662600D02*
X4121200Y10736200D01*
D212*
X-2894200Y10093200D02*
X-3032000Y10573900D01*
D214*
X5922900Y9857400D02*
X5750000Y9959300D01*
X3933200Y10806500D02*
X3744000Y10873500D01*
X2194300Y11288700D02*
X1997000Y11325300D01*
D212*
X767300Y10973200D02*
X575700Y10984900D01*
D214*
X6759500Y9303700D02*
X6596100Y9420200D01*
D211*
X-4550000Y-100000D02*
X-4300000Y-100000D01*
D214*
X3744000Y10873500D02*
X3553700Y10937100D01*
X5398900Y10153900D02*
X5220900Y10246600D01*
D212*
X-192000Y10998300D02*
X-383900Y10993300D01*
D211*
X-4950000Y-500000D02*
X-4550000Y-100000D01*
D212*
X8704900Y-5871500D02*
X8290400Y-5591900D01*
X-383900Y10993300D02*
X-575700Y10984900D01*
D214*
X3169800Y11054500D02*
X2976400Y11108100D01*
D212*
X383900Y10993300D02*
X192000Y10998300D01*
X-3591200Y-9866800D02*
X-3420200Y-9396900D01*
D214*
X1997000Y11325300D02*
X1799000Y11358400D01*
D212*
X-1340600Y10918000D02*
X-1530900Y10892900D01*
D214*
X1401500Y11414300D02*
X1202100Y11437000D01*
X1202100Y11437000D02*
X1002300Y11456200D01*
X1600500Y11388100D02*
X1401500Y11414300D01*
D212*
X-8704900Y-5871500D02*
X-8290400Y-5591900D01*
D214*
X1002300Y11456200D02*
X802200Y11472000D01*
X3362300Y10997500D02*
X3169800Y11054500D01*
X1799000Y11358400D02*
X1600500Y11388100D01*
D212*
X-2098900Y10797900D02*
X-2287000Y10759600D01*
X-1149800Y10939700D02*
X-1340600Y10918000D01*
D214*
X6094100Y9752600D02*
X5922900Y9857400D01*
D212*
X-2287000Y10759600D02*
X-2474500Y10718100D01*
D214*
X2782100Y11158400D02*
X2586900Y11205300D01*
X3553700Y10937100D02*
X3362300Y10997500D01*
D212*
X0Y11000000D02*
X-192000Y10998300D01*
X-2661100Y10673300D02*
X-2847000Y10625200D01*
X8274100Y6464400D02*
X7880100Y6156600D01*
D214*
X2586900Y11205300D02*
X2391000Y11248700D01*
D212*
X3591200Y-9866800D02*
X3420200Y-9396900D01*
D214*
X5750000Y9959300D02*
X5575300Y10058100D01*
D212*
X-958700Y10958100D02*
X-1149800Y10939700D01*
D214*
X4860100Y10422500D02*
X4677500Y10505800D01*
%TO.N,CPX-3*%
X9303700Y6759500D02*
X9184300Y6920900D01*
X7544700Y8679200D02*
X7392100Y8809500D01*
X7988600Y8272400D02*
X7843000Y8410600D01*
D211*
X-3696207Y4600000D02*
X-3640560Y4600000D01*
D212*
X4822100Y9886700D02*
X4648800Y9969400D01*
X6465600Y8899200D02*
X6309300Y9010700D01*
D214*
X10153900Y5398900D02*
X10058100Y5575300D01*
D212*
X7392100Y8809500D02*
X7070700Y8426500D01*
D211*
X-4016857Y4920650D02*
X-3696207Y4600000D01*
D214*
X10806500Y3933200D02*
X10736200Y4121200D01*
D212*
X5991000Y9225400D02*
X5829100Y9328500D01*
D214*
X9959300Y5750000D02*
X9857400Y5922900D01*
X8546200Y7695000D02*
X8410600Y7843000D01*
D211*
X-2900000Y3859440D02*
X-2900000Y1800000D01*
D212*
X3762200Y10336600D02*
X3581200Y10400700D01*
D214*
X9062100Y7080100D02*
X8937200Y7237200D01*
D212*
X4120700Y10199000D02*
X3942000Y10269400D01*
D214*
X8809500Y7392100D02*
X8679200Y7544700D01*
D212*
X-2894200Y-10093200D02*
X-2756400Y-9612600D01*
D214*
X10585800Y4493400D02*
X10505800Y4677500D01*
D212*
X5164200Y9712400D02*
X4993900Y9801100D01*
X4298000Y10125600D02*
X4120700Y10199000D01*
X9093300Y-5250000D02*
X8660300Y-5000000D01*
D214*
X9184300Y6920900D02*
X9062100Y7080100D01*
X10058100Y5575300D02*
X9959300Y5750000D01*
X9644700Y6263300D02*
X9533900Y6430700D01*
X9752600Y6094100D02*
X9644700Y6263300D01*
D212*
X3581200Y10400700D02*
X3399200Y10461600D01*
D214*
X8272400Y7988600D02*
X8131700Y8131700D01*
X9533900Y6430700D02*
X9420200Y6596100D01*
X9857400Y5922900D02*
X9752600Y6094100D01*
D212*
X7070700Y8426500D02*
X6922500Y8548600D01*
D214*
X10422500Y4860100D02*
X10336100Y5041300D01*
X10873500Y3744000D02*
X10806500Y3933200D01*
X10246600Y5220900D02*
X10153900Y5398900D01*
D212*
X6922500Y8548600D02*
X6772300Y8668100D01*
D214*
X10336100Y5041300D02*
X10246600Y5220900D01*
D212*
X5332900Y9620800D02*
X5164200Y9712400D01*
D214*
X8410600Y7843000D02*
X8272400Y7988600D01*
X8131700Y8131700D02*
X7988600Y8272400D01*
D212*
X-3591200Y9866800D02*
X-3420200Y9396900D01*
X-8704900Y5871500D02*
X-8290400Y5591900D01*
D214*
X10505800Y4677500D02*
X10422500Y4860100D01*
D212*
X10442500Y1097500D02*
X9945200Y1045300D01*
X6620000Y8785000D02*
X6465600Y8899200D01*
D214*
X10937100Y3553700D02*
X10873500Y3744000D01*
D212*
X2894200Y10093200D02*
X3032000Y10573900D01*
X2894200Y10093200D02*
X2756400Y9612600D01*
X4270700Y-9592200D02*
X4067400Y-9135500D01*
D214*
X7843000Y8410600D02*
X7695000Y8546200D01*
X10662600Y4308000D02*
X10585800Y4493400D01*
X8937200Y7237200D02*
X8809500Y7392100D01*
D212*
X5665400Y9428800D02*
X5500000Y9526300D01*
D214*
X9420200Y6596100D02*
X9303700Y6759500D01*
X8679200Y7544700D02*
X8546200Y7695000D01*
D212*
X3216100Y10519400D02*
X3032000Y10573900D01*
D214*
X10736200Y4121200D02*
X10662600Y4308000D01*
X7695000Y8546200D02*
X7544700Y8679200D01*
D211*
X-3640560Y4600000D02*
X-2900000Y3859440D01*
D212*
X5829100Y9328500D02*
X5665400Y9428800D01*
X-8274100Y-6464400D02*
X-7880100Y-6156600D01*
X-10493600Y-366400D02*
X-9993900Y-349000D01*
X3399200Y10461600D02*
X3216100Y10519400D01*
X4474100Y10049000D02*
X4298000Y10125600D01*
X4648800Y9969400D02*
X4474100Y10049000D01*
X5500000Y9526300D02*
X5332900Y9620800D01*
X6772300Y8668100D02*
X6620000Y8785000D01*
X6309300Y9010700D02*
X6151100Y9119400D01*
X3942000Y10269400D02*
X3762200Y10336600D01*
X6151100Y9119400D02*
X5991000Y9225400D01*
X4993900Y9801100D02*
X4822100Y9886700D01*
%TO.N,CPX-2*%
X-2860200Y6424100D02*
X-2971900Y6373200D01*
X6724700Y-2056000D02*
X6759600Y-1938300D01*
X-2634200Y-6520000D02*
X-2520000Y-6564900D01*
X4033400Y5760300D02*
X3932200Y5829800D01*
X-6979600Y-857000D02*
X-6963600Y-978700D01*
X2520000Y6564900D02*
X2405100Y6607900D01*
X4133300Y5689000D02*
X4033400Y5760300D01*
X-122700Y7030900D02*
X-245400Y7027700D01*
X1938300Y-6759600D02*
X2056000Y-6724700D01*
X6945400Y1100000D02*
X6925200Y1221100D01*
X6150300Y-3409200D02*
X6208900Y-3301300D01*
X-5386800Y4520100D02*
X-5464900Y4425400D01*
X6473000Y2747600D02*
X6424100Y2860200D01*
X-7231300Y4175000D02*
X-6089900Y3516000D01*
X2173000Y-6687800D02*
X2289400Y-6648900D01*
X6564900Y-2520000D02*
X6607900Y-2405100D01*
X-5897500Y3829900D02*
X-5963500Y3726400D01*
X9969400Y4648800D02*
X9886700Y4822100D01*
X-6089900Y3516000D02*
X-6150300Y3409200D01*
D211*
X-3915500Y-2015500D02*
X-3900000Y-2000000D01*
D214*
X11472000Y802200D02*
X11456200Y1002300D01*
D212*
X-368000Y-7022400D02*
X-245400Y-7027700D01*
X-4884800Y-5058400D02*
X-4795800Y-5142900D01*
D214*
X11248700Y-2391000D02*
X11288700Y-2194300D01*
D212*
X-4972400Y4972400D02*
X-5058400Y4884800D01*
X-5464900Y-4425400D02*
X-5386800Y-4520100D01*
X6823100Y-1701200D02*
X6851800Y-1581900D01*
X-6759600Y1938300D02*
X-6792400Y1820000D01*
X6089900Y-3516000D02*
X6150300Y-3409200D01*
X5142900Y-4795800D02*
X5225800Y-4705300D01*
X-5760300Y-4033400D02*
X-5689000Y-4133300D01*
X2520000Y-6564900D02*
X2634200Y-6520000D01*
X-3396300Y7628100D02*
X-2860200Y6424100D01*
X6607900Y2405100D02*
X6564900Y2520000D01*
X1820000Y-6792400D02*
X1938300Y-6759600D01*
X-3301300Y-6208900D02*
X-3192500Y-6265600D01*
X6424100Y2860200D02*
X6373200Y2971900D01*
X2860200Y6424100D02*
X2747600Y6473000D01*
X-3932200Y-5829800D02*
X-3829900Y-5897500D01*
X-1221100Y6925200D02*
X-1341800Y6902800D01*
X-5760300Y4033400D02*
X-5829800Y3932200D01*
D214*
X10997500Y-3362300D02*
X11054500Y-3169800D01*
D212*
X4795800Y-5142900D02*
X4884800Y-5058400D01*
X9712400Y5164200D02*
X9620800Y5332900D01*
X-6150300Y-3409200D02*
X-6089900Y-3516000D01*
X3726400Y-5963500D02*
X3829900Y-5897500D01*
X5897500Y3829900D02*
X5829800Y3932200D01*
X490500Y7014900D02*
X368000Y7022400D01*
X-6473000Y-2747600D02*
X-6424100Y-2860200D01*
D214*
X11325300Y1997000D02*
X11288700Y2194300D01*
D212*
X-6320300Y3082600D02*
X-6373200Y2971900D01*
X-612900Y-7005200D02*
X-490500Y-7014900D01*
X3516000Y6089900D02*
X3409200Y6150300D01*
X-5689000Y4133300D02*
X-5760300Y4033400D01*
X368000Y7022400D02*
X245400Y7027700D01*
X3301300Y-6208900D02*
X3409200Y-6150300D01*
X7032000Y0D02*
X7030900Y122700D01*
X-2173000Y-6687800D02*
X-2056000Y-6724700D01*
X7803000Y7025900D02*
X8174600Y7360400D01*
X2056000Y-6724700D02*
X2173000Y-6687800D01*
X4232000Y-5616000D02*
X4329300Y-5541300D01*
X-3192500Y6265600D02*
X-3301300Y6208900D01*
X10573900Y3032000D02*
X10519400Y3216100D01*
X-6963600Y978700D02*
X-6979600Y857000D01*
D214*
X11498200Y200700D02*
X11493000Y401300D01*
D212*
X6945400Y-1100000D02*
X6963600Y-978700D01*
X6687800Y-2173000D02*
X6724700Y-2056000D01*
X-6648900Y-2289400D02*
X-6607900Y-2405100D01*
X6759600Y-1938300D02*
X6792400Y-1820000D01*
X6424100Y-2860200D02*
X6473000Y-2747600D01*
X4929500Y-9270900D02*
X4694700Y-8829500D01*
X-3932200Y5829800D02*
X-4033400Y5760300D01*
X-7030900Y122700D02*
X-7032000Y0D01*
X-4520100Y5386800D02*
X-4613400Y5307100D01*
X-4270700Y9592200D02*
X-4067400Y9135500D01*
D214*
X11414300Y-1401500D02*
X11437000Y-1202100D01*
D212*
X1581900Y6851800D02*
X1462000Y6878300D01*
X4613400Y-5307100D02*
X4705300Y-5225800D01*
X7030900Y122700D02*
X7027700Y245400D01*
X7504900Y-3660400D02*
X6320300Y-3082600D01*
X6320300Y-3082600D02*
X6373200Y-2971900D01*
X-6564900Y2520000D02*
X-6607900Y2405100D01*
X1701200Y6823100D02*
X1581900Y6851800D01*
X-6027600Y3621700D02*
X-6089900Y3516000D01*
X-7027700Y-245400D02*
X-7022400Y-368000D01*
X-6925200Y-1221100D02*
X-6902800Y-1341800D01*
X9801100Y4993900D02*
X9712400Y5164200D01*
D214*
X11414300Y1401500D02*
X11388100Y1600500D01*
D212*
X2634200Y6520000D02*
X2520000Y6564900D01*
D214*
X11325300Y-1997000D02*
X11358400Y-1799000D01*
D212*
X-490500Y7014900D02*
X-612900Y7005200D01*
X-5225800Y-4705300D02*
X-5142900Y-4795800D01*
X-6945400Y1100000D02*
X-6963600Y978700D01*
X6979600Y857000D02*
X6963600Y978700D01*
X-6878300Y-1462000D02*
X-6851800Y-1581900D01*
X6993500Y-735000D02*
X7005200Y-612900D01*
D214*
X10937100Y-3553700D02*
X10997500Y-3362300D01*
D212*
X6979600Y-857000D02*
X6993500Y-735000D01*
X3192500Y6265600D02*
X3082600Y6320300D01*
X-6424100Y-2860200D02*
X-6373200Y-2971900D01*
D214*
X11498200Y-200700D02*
X11500000Y0D01*
D212*
X2405100Y-6607900D02*
X2520000Y-6564900D01*
X4425400Y-5464900D02*
X4520100Y-5386800D01*
X4972400Y4972400D02*
X4884800Y5058400D01*
X10625200Y2847000D02*
X10573900Y3032000D01*
X5760300Y-4033400D02*
X5829800Y-3932200D01*
X857000Y-6979600D02*
X978700Y-6963600D01*
X5307100Y-4613400D02*
X5386800Y-4520100D01*
X3192500Y-6265600D02*
X3301300Y-6208900D01*
X6792400Y-1820000D02*
X6823100Y-1701200D01*
X1701200Y-6823100D02*
X1820000Y-6792400D01*
X6823100Y1701200D02*
X6792400Y1820000D01*
X10199000Y4120700D02*
X10125600Y4298000D01*
X-2289400Y-6648900D02*
X-2173000Y-6687800D01*
X-7027700Y245400D02*
X-7030900Y122700D01*
X3932200Y5829800D02*
X3829900Y5897500D01*
X-2860200Y-6424100D02*
X-2747600Y-6473000D01*
X2056000Y6724700D02*
X1938300Y6759600D01*
X-6792400Y1820000D02*
X-6823100Y1701200D01*
X7014900Y490500D02*
X7005200Y612900D01*
X4329300Y5541300D02*
X4232000Y5616000D01*
X-6205300Y-5587200D02*
X-5225800Y-4705300D01*
X4613400Y5307100D02*
X4520100Y5386800D01*
X-4520100Y-5386800D02*
X-4425400Y-5464900D01*
X4520100Y-5386800D02*
X4613400Y-5307100D01*
X-3516000Y-6089900D02*
X-3409200Y-6150300D01*
X1462000Y-6878300D02*
X1581900Y-6851800D01*
X-5541300Y-4329300D02*
X-5464900Y-4425400D01*
X-5616000Y-4232000D02*
X-5541300Y-4329300D01*
X122700Y-7030900D02*
X245400Y-7027700D01*
X-6878300Y1462000D02*
X-6902800Y1341800D01*
X4972400Y-4972400D02*
X5058400Y-4884800D01*
X-2747600Y6473000D02*
X-2860200Y6424100D01*
X2289400Y6648900D02*
X2173000Y6687800D01*
X5541300Y-4329300D02*
X5616000Y-4232000D01*
X-6724700Y-2056000D02*
X-6687800Y-2173000D01*
X-3082600Y6320300D02*
X-3192500Y6265600D01*
X-7032000Y0D02*
X-7030900Y-122700D01*
X1341800Y6902800D02*
X1221100Y6925200D01*
X7027700Y-245400D02*
X7030900Y-122700D01*
X1341800Y-6902800D02*
X1462000Y-6878300D01*
X5760300Y4033400D02*
X5689000Y4133300D01*
X4884800Y-5058400D02*
X4972400Y-4972400D01*
X3621700Y6027600D02*
X3516000Y6089900D01*
X-1938300Y6759600D02*
X-2056000Y6724700D01*
X-3516000Y6089900D02*
X-3621700Y6027600D01*
X-6687800Y2173000D02*
X-6724700Y2056000D01*
X-4232000Y5616000D02*
X-4329300Y5541300D01*
X3516000Y-6089900D02*
X3621700Y-6027600D01*
X6902800Y-1341800D02*
X6925200Y-1221100D01*
X-1462000Y6878300D02*
X-1581900Y6851800D01*
X6027600Y-3621700D02*
X6089900Y-3516000D01*
X612900Y-7005200D02*
X735000Y-6993500D01*
X6851800Y1581900D02*
X6823100Y1701200D01*
X-2747600Y-6473000D02*
X-2634200Y-6520000D01*
X6265600Y-3192500D02*
X6320300Y-3082600D01*
X-6265600Y-3192500D02*
X-6208900Y-3301300D01*
X-7030900Y-122700D02*
X-7027700Y-245400D01*
X-1341800Y-6902800D02*
X-1221100Y-6925200D01*
X-6945400Y-1100000D02*
X-6925200Y-1221100D01*
D214*
X11205300Y-2586900D02*
X11248700Y-2391000D01*
D212*
X-6373200Y2971900D02*
X-6424100Y2860200D01*
X-6902800Y-1341800D02*
X-6878300Y-1462000D01*
X6373200Y2971900D02*
X6320300Y3082600D01*
X-6150300Y3409200D02*
X-6208900Y3301300D01*
X-4795800Y5142900D02*
X-4884800Y5058400D01*
X-2056000Y-6724700D02*
X-1938300Y-6759600D01*
X1820000Y6792400D02*
X1701200Y6823100D01*
X5689000Y4133300D02*
X5616000Y4232000D01*
X5058400Y-4884800D02*
X5142900Y-4795800D01*
X5689000Y-4133300D02*
X5760300Y-4033400D01*
D214*
X11437000Y-1202100D02*
X11456200Y-1002300D01*
D212*
X7027700Y245400D02*
X7022400Y368000D01*
X6687800Y2173000D02*
X6648900Y2289400D01*
X1100000Y-6945400D02*
X1221100Y-6925200D01*
X6607900Y-2405100D02*
X6648900Y-2289400D01*
D214*
X11493000Y-401300D02*
X11498200Y-200700D01*
D212*
X6265600Y3192500D02*
X6208900Y3301300D01*
X8899200Y6465600D02*
X8785000Y6620000D01*
X-735000Y6993500D02*
X-857000Y6979600D01*
X122700Y7030900D02*
X0Y7032000D01*
X2173000Y6687800D02*
X2056000Y6724700D01*
X2860200Y-6424100D02*
X2971900Y-6373200D01*
X-3082600Y-6320300D02*
X-2971900Y-6373200D01*
X6320300Y3082600D02*
X6265600Y3192500D01*
X7022400Y-368000D02*
X7027700Y-245400D01*
X-3621700Y6027600D02*
X-3726400Y5963500D01*
X11158400Y2782100D02*
X10673300Y2661100D01*
X1221100Y-6925200D02*
X1341800Y-6902800D01*
X-1100000Y-6945400D02*
X-978700Y-6963600D01*
X-5963500Y-3726400D02*
X-5897500Y-3829900D01*
X5963500Y3726400D02*
X5897500Y3829900D01*
X-3409200Y6150300D02*
X-3516000Y6089900D01*
D214*
X11248700Y2391000D02*
X11205300Y2586900D01*
D212*
X7022400Y368000D02*
X7014900Y490500D01*
X-7005200Y612900D02*
X-7014900Y490500D01*
D214*
X11288700Y-2194300D02*
X11325300Y-1997000D01*
X11358400Y1799000D02*
X11325300Y1997000D01*
D212*
X-6902800Y1341800D02*
X-6925200Y1221100D01*
X-5689000Y-4133300D02*
X-5616000Y-4232000D01*
X5616000Y4232000D02*
X5541300Y4329300D01*
X9119400Y6151100D02*
X9010700Y6309300D01*
X0Y-7032000D02*
X122700Y-7030900D01*
X3301300Y6208900D02*
X3192500Y6265600D01*
X4033400Y-5760300D02*
X4133300Y-5689000D01*
X6878300Y1462000D02*
X6851800Y1581900D01*
X-6520000Y-2634200D02*
X-6473000Y-2747600D01*
X-5963500Y3726400D02*
X-6027600Y3621700D01*
X9428800Y5665400D02*
X9328500Y5829100D01*
X-6027600Y-3621700D02*
X-5963500Y-3726400D01*
X-6564900Y-2520000D02*
X-6520000Y-2634200D01*
X-6724700Y2056000D02*
X-6759600Y1938300D01*
X-978700Y6963600D02*
X-1100000Y6945400D01*
X10269400Y3942000D02*
X10199000Y4120700D01*
X-2289400Y6648900D02*
X-2405100Y6607900D01*
X6205300Y5587200D02*
X5225800Y4705300D01*
X-4705300Y5225800D02*
X-4795800Y5142900D01*
X-7022400Y368000D02*
X-7027700Y245400D01*
X-6851800Y-1581900D02*
X-6823100Y-1701200D01*
X0Y7032000D02*
X-122700Y7030900D01*
X-2405100Y-6607900D02*
X-2289400Y-6648900D01*
D214*
X11205300Y2586900D02*
X11158400Y2782100D01*
D212*
X10461600Y3399200D02*
X10400700Y3581200D01*
X3829900Y5897500D02*
X3726400Y5963500D01*
X-5058400Y4884800D02*
X-5142900Y4795800D01*
X5225800Y4705300D02*
X5142900Y4795800D01*
X9437300Y-4602900D02*
X8987900Y-4383700D01*
X1581900Y-6851800D02*
X1701200Y-6823100D01*
D214*
X11108100Y-2976400D02*
X11158400Y-2782100D01*
D212*
X1221100Y6925200D02*
X1100000Y6945400D01*
X-4033400Y5760300D02*
X-4133300Y5689000D01*
X-6373200Y-2971900D02*
X-6320300Y-3082600D01*
X-1820000Y6792400D02*
X-1938300Y6759600D01*
X-6265600Y3192500D02*
X-6320300Y3082600D01*
X4795800Y5142900D02*
X4705300Y5225800D01*
X-857000Y6979600D02*
X-978700Y6963600D01*
X6792400Y1820000D02*
X6759600Y1938300D01*
X-4033400Y-5760300D02*
X-3932200Y-5829800D01*
X3082600Y6320300D02*
X2971900Y6373200D01*
X9526300Y5500000D02*
X9428800Y5665400D01*
D214*
X11158400Y-2782100D02*
X11205300Y-2586900D01*
D212*
X-7022400Y-368000D02*
X-7014900Y-490500D01*
D211*
X-5900000Y-1200000D02*
X-5084500Y-2015500D01*
D212*
X10519400Y3216100D02*
X10461600Y3399200D01*
X9328500Y5829100D02*
X9225400Y5991000D01*
X9010700Y6309300D02*
X8899200Y6465600D01*
D214*
X11054500Y-3169800D02*
X11108100Y-2976400D01*
D212*
X-1100000Y6945400D02*
X-1221100Y6925200D01*
X-1341800Y6902800D02*
X-1462000Y6878300D01*
X2289400Y-6648900D02*
X2405100Y-6607900D01*
X3829900Y-5897500D02*
X3932200Y-5829800D01*
X2183100Y10270500D02*
X2079100Y9781500D01*
X-245400Y7027700D02*
X-368000Y7022400D01*
X1736100Y8167500D02*
X1462000Y6878300D01*
X6564900Y2520000D02*
X6520000Y2634200D01*
D214*
X11388100Y1600500D02*
X11358400Y1799000D01*
D212*
X8301800Y7216600D02*
X8174600Y7360400D01*
X5963500Y-3726400D02*
X6027600Y-3621700D01*
X10673300Y2661100D02*
X10625200Y2847000D01*
X6724700Y2056000D02*
X6687800Y2173000D01*
X4232000Y5616000D02*
X4133300Y5689000D01*
X-6925200Y1221100D02*
X-6945400Y1100000D01*
X-4329300Y5541300D02*
X-4425400Y5464900D01*
X-2173000Y6687800D02*
X-2289400Y6648900D01*
D214*
X11472000Y-802200D02*
X11484200Y-601900D01*
X11484200Y-601900D02*
X11493000Y-401300D01*
D212*
X10336600Y3762200D02*
X10269400Y3942000D01*
X1938300Y6759600D02*
X1820000Y6792400D01*
X6520000Y2634200D02*
X6473000Y2747600D01*
X5541300Y4329300D02*
X5464900Y4425400D01*
X5829800Y3932200D02*
X5760300Y4033400D01*
X-1701200Y6823100D02*
X-1820000Y6792400D01*
X-5829800Y3932200D02*
X-5897500Y3829900D01*
D214*
X11493000Y401300D02*
X11484200Y601900D01*
D212*
X-6424100Y2860200D02*
X-6473000Y2747600D01*
X-6851800Y1581900D02*
X-6878300Y1462000D01*
X-1462000Y-6878300D02*
X-1341800Y-6902800D01*
X-6687800Y-2173000D02*
X-6648900Y-2289400D01*
X2971900Y6373200D02*
X2860200Y6424100D01*
D214*
X11484200Y601900D02*
X11472000Y802200D01*
D212*
X10125600Y4298000D02*
X10049000Y4474100D01*
X735000Y-6993500D02*
X857000Y-6979600D01*
X-2971900Y-6373200D02*
X-2860200Y-6424100D01*
X-1938300Y-6759600D02*
X-1820000Y-6792400D01*
X-2971900Y6373200D02*
X-3082600Y6320300D01*
X-5616000Y4232000D02*
X-5689000Y4133300D01*
D214*
X11456200Y1002300D02*
X11437000Y1202100D01*
D212*
X-735000Y-6993500D02*
X-612900Y-7005200D01*
X4329300Y-5541300D02*
X4425400Y-5464900D01*
X4705300Y5225800D02*
X4613400Y5307100D01*
X6648900Y2289400D02*
X6607900Y2405100D01*
X9225400Y5991000D02*
X9119400Y6151100D01*
X-7014900Y490500D02*
X-7022400Y368000D01*
X6963600Y-978700D02*
X6979600Y-857000D01*
X612900Y7005200D02*
X490500Y7014900D01*
X-3409200Y-6150300D02*
X-3301300Y-6208900D01*
X9620800Y5332900D02*
X9526300Y5500000D01*
D214*
X11500000Y0D02*
X11498200Y200700D01*
D212*
X-1581900Y-6851800D02*
X-1462000Y-6878300D01*
X6648900Y-2289400D02*
X6687800Y-2173000D01*
X-4795800Y-5142900D02*
X-4705300Y-5225800D01*
X-3829900Y-5897500D02*
X-3726400Y-5963500D01*
X-6607900Y-2405100D02*
X-6564900Y-2520000D01*
X-5225800Y4705300D02*
X-5307100Y4613400D01*
X-6759600Y-1938300D02*
X-6724700Y-2056000D01*
X8548600Y6922500D02*
X8426500Y7070700D01*
X-6648900Y2289400D02*
X-6687800Y2173000D01*
X5386800Y-4520100D02*
X5464900Y-4425400D01*
X-245400Y-7027700D02*
X-122700Y-7030900D01*
X-3726400Y-5963500D02*
X-3621700Y-6027600D01*
D211*
X-5084500Y-2015500D02*
X-3915500Y-2015500D01*
D212*
X8785000Y6620000D02*
X8668100Y6772300D01*
X6208900Y-3301300D02*
X6265600Y-3192500D01*
X-857000Y-6979600D02*
X-735000Y-6993500D01*
X2634200Y-6520000D02*
X2747600Y-6473000D01*
X6208900Y3301300D02*
X6150300Y3409200D01*
X-1701200Y-6823100D02*
X-1581900Y-6851800D01*
X3920100Y-7372600D02*
X3301300Y-6208900D01*
X2405100Y6607900D02*
X2289400Y6648900D01*
X-5142900Y-4795800D02*
X-5058400Y-4884800D01*
X1100000Y6945400D02*
X978700Y6963600D01*
X-612900Y7005200D02*
X-735000Y6993500D01*
D214*
X11358400Y-1799000D02*
X11388100Y-1600500D01*
D212*
X6925200Y1221100D02*
X6902800Y1341800D01*
X-2520000Y-6564900D02*
X-2405100Y-6607900D01*
X-5829800Y-3932200D02*
X-5760300Y-4033400D01*
X10400700Y3581200D02*
X10336600Y3762200D01*
X8668100Y6772300D02*
X8548600Y6922500D01*
X5225800Y-4705300D02*
X5307100Y-4613400D01*
X-1820000Y-6792400D02*
X-1701200Y-6823100D01*
X-2056000Y6724700D02*
X-2173000Y6687800D01*
X3932200Y-5829800D02*
X4033400Y-5760300D01*
X-368000Y7022400D02*
X-490500Y7014900D01*
X-6823100Y-1701200D02*
X-6792400Y-1820000D01*
X-122700Y-7030900D02*
X0Y-7032000D01*
X5058400Y4884800D02*
X4972400Y4972400D01*
X5464900Y-4425400D02*
X5541300Y-4329300D01*
X857000Y6979600D02*
X735000Y6993500D01*
X-5386800Y-4520100D02*
X-5307100Y-4613400D01*
X7030900Y-122700D02*
X7032000Y0D01*
X-1581900Y6851800D02*
X-1701200Y6823100D01*
X-6963600Y-978700D02*
X-6945400Y-1100000D01*
X-4425400Y5464900D02*
X-4520100Y5386800D01*
X-4884800Y5058400D02*
X-4972400Y4972400D01*
X-4425400Y-5464900D02*
X-4329300Y-5541300D01*
X-3301300Y6208900D02*
X-3409200Y6150300D01*
X-7803000Y-7025900D02*
X-7431400Y-6691300D01*
X7014900Y-490500D02*
X7022400Y-368000D01*
X735000Y6993500D02*
X612900Y7005200D01*
X-5897500Y-3829900D02*
X-5829800Y-3932200D01*
X3409200Y-6150300D02*
X3516000Y-6089900D01*
X490500Y-7014900D02*
X612900Y-7005200D01*
X-5142900Y4795800D02*
X-5225800Y4705300D01*
X4425400Y5464900D02*
X4329300Y5541300D01*
X-1736100Y-8167500D02*
X-1462000Y-6878300D01*
X5386800Y4520100D02*
X5307100Y4613400D01*
X-2183100Y-10270500D02*
X-2079100Y-9781500D01*
X-490500Y-7014900D02*
X-368000Y-7022400D01*
X4133300Y-5689000D02*
X4232000Y-5616000D01*
X3409200Y6150300D02*
X3301300Y6208900D01*
D214*
X11437000Y1202100D02*
X11414300Y1401500D01*
D212*
X-6208900Y3301300D02*
X-6265600Y3192500D01*
X7005200Y-612900D02*
X7014900Y-490500D01*
X-6993500Y-735000D02*
X-6979600Y-857000D01*
X-6823100Y1701200D02*
X-6851800Y1581900D01*
D211*
X-6300000Y-1200000D02*
X-5900000Y-1200000D01*
D212*
X7803000Y7025900D02*
X7431400Y6691300D01*
D214*
X11456200Y-1002300D02*
X11472000Y-802200D01*
D212*
X-6520000Y2634200D02*
X-6564900Y2520000D01*
X2971900Y-6373200D02*
X3082600Y-6320300D01*
X-9093300Y5250000D02*
X-8660300Y5000000D01*
X4884800Y5058400D02*
X4795800Y5142900D01*
X6027600Y3621700D02*
X5963500Y3726400D01*
X9886700Y4822100D02*
X9801100Y4993900D01*
X2747600Y-6473000D02*
X2860200Y-6424100D01*
X6851800Y-1581900D02*
X6878300Y-1462000D01*
X-3726400Y5963500D02*
X-3829900Y5897500D01*
X-978700Y-6963600D02*
X-857000Y-6979600D01*
X6373200Y-2971900D02*
X6424100Y-2860200D01*
X-3829900Y5897500D02*
X-3932200Y5829800D01*
X3726400Y5963500D02*
X3621700Y6027600D01*
X-5464900Y4425400D02*
X-5541300Y4329300D01*
X6089900Y3516000D02*
X6027600Y3621700D01*
X-5541300Y4329300D02*
X-5616000Y4232000D01*
X6878300Y-1462000D02*
X6902800Y-1341800D01*
X-7014900Y-490500D02*
X-7005200Y-612900D01*
D214*
X11388100Y-1600500D02*
X11414300Y-1401500D01*
D212*
X368000Y-7022400D02*
X490500Y-7014900D01*
X5142900Y4795800D02*
X5058400Y4884800D01*
X3082600Y-6320300D02*
X3192500Y-6265600D01*
X-3621700Y-6027600D02*
X-3516000Y-6089900D01*
X-8304300Y-872800D02*
X-6993500Y-735000D01*
X-6473000Y2747600D02*
X-6520000Y2634200D01*
X6759600Y1938300D02*
X6724700Y2056000D01*
X-7005200Y-612900D02*
X-6993500Y-735000D01*
X-2520000Y6564900D02*
X-2634200Y6520000D01*
X5829800Y-3932200D02*
X5897500Y-3829900D01*
X-4232000Y-5616000D02*
X-4133300Y-5689000D01*
X-6792400Y-1820000D02*
X-6759600Y-1938300D01*
X5897500Y-3829900D02*
X5963500Y-3726400D01*
X-5307100Y-4613400D02*
X-5225800Y-4705300D01*
X-6607900Y2405100D02*
X-6648900Y2289400D01*
X978700Y-6963600D02*
X1100000Y-6945400D01*
X4520100Y5386800D02*
X4425400Y5464900D01*
X6993500Y735000D02*
X6979600Y857000D01*
X-6979600Y857000D02*
X-6993500Y735000D01*
X6520000Y-2634200D02*
X6564900Y-2520000D01*
X5307100Y4613400D02*
X5225800Y4705300D01*
X-4133300Y-5689000D02*
X-4033400Y-5760300D01*
X2747600Y6473000D02*
X2634200Y6520000D01*
X-4329300Y-5541300D02*
X-4232000Y-5616000D01*
X6473000Y-2747600D02*
X6520000Y-2634200D01*
X-2405100Y6607900D02*
X-2520000Y6564900D01*
X10049000Y4474100D02*
X9969400Y4648800D01*
X6925200Y-1221100D02*
X6945400Y-1100000D01*
X-5307100Y4613400D02*
X-5386800Y4520100D01*
D214*
X11288700Y2194300D02*
X11248700Y2391000D01*
D212*
X5616000Y-4232000D02*
X5689000Y-4133300D01*
X-4705300Y-5225800D02*
X-4613400Y-5307100D01*
X6902800Y1341800D02*
X6878300Y1462000D01*
X-6089900Y-3516000D02*
X-6027600Y-3621700D01*
X-4613400Y5307100D02*
X-4705300Y5225800D01*
X5464900Y4425400D02*
X5386800Y4520100D01*
X7005200Y612900D02*
X6993500Y735000D01*
X-4133300Y5689000D02*
X-4232000Y5616000D01*
X3621700Y-6027600D02*
X3726400Y-5963500D01*
X-6993500Y735000D02*
X-7005200Y612900D01*
X4705300Y-5225800D02*
X4795800Y-5142900D01*
X-3192500Y-6265600D02*
X-3082600Y-6320300D01*
X-4613400Y-5307100D02*
X-4520100Y-5386800D01*
X8426500Y7070700D02*
X8301800Y7216600D01*
X1462000Y6878300D02*
X1341800Y6902800D01*
X-6320300Y-3082600D02*
X-6265600Y-3192500D01*
X-1221100Y-6925200D02*
X-1100000Y-6945400D01*
X6963600Y978700D02*
X6945400Y1100000D01*
X978700Y6963600D02*
X857000Y6979600D01*
X-2634200Y6520000D02*
X-2747600Y6473000D01*
X6150300Y3409200D02*
X6089900Y3516000D01*
X245400Y7027700D02*
X122700Y7030900D01*
X-4972400Y-4972400D02*
X-4884800Y-5058400D01*
X-10442500Y-1097500D02*
X-9945200Y-1045300D01*
X-5058400Y-4884800D02*
X-4972400Y-4972400D01*
X245400Y-7027700D02*
X368000Y-7022400D01*
X-6208900Y-3301300D02*
X-6150300Y-3409200D01*
%TO.N,CPX-1*%
X2492600Y6848500D02*
X2611800Y6803900D01*
D214*
X7843000Y-8410600D02*
X7988600Y-8272400D01*
D212*
X-635200Y7260300D02*
X-508400Y7270200D01*
X1265500Y-7177300D02*
X1390600Y-7154100D01*
D211*
X-1900000Y4800000D02*
X-1900000Y1800000D01*
D212*
X10958100Y-958700D02*
X10973200Y-767300D01*
D213*
X-8851200Y-930300D02*
X-8600000Y-400000D01*
D212*
X4716300Y-7547600D02*
X3862100Y-6180600D01*
X10993300Y383900D02*
X10984900Y575700D01*
X10797900Y-2098900D02*
X10832900Y-1910100D01*
X4781400Y-5500300D02*
X4684600Y-5582900D01*
X-5663800Y4586500D02*
X-5582900Y4684600D01*
X-2372700Y-6890900D02*
X-2492600Y-6848500D01*
X1392300Y8790400D02*
X1238600Y8813400D01*
D214*
X8546200Y-7695000D02*
X8679200Y-7544700D01*
D212*
X-6042000Y4075400D02*
X-5970000Y4180200D01*
X-9437300Y4602900D02*
X-8987900Y4383700D01*
X-1014300Y-7217100D02*
X-888200Y-7233700D01*
X-1886300Y7039700D02*
X-1763100Y7071500D01*
X-381400Y-7278000D02*
X-254300Y-7283600D01*
X-7233700Y888200D02*
X-7217100Y1014300D01*
X-1390600Y7154100D02*
X-1265500Y7177300D01*
X7005700Y2008800D02*
X7039700Y1886300D01*
X-2130800Y6969500D02*
X-2008800Y7005700D01*
X4586500Y-5663800D02*
X4486900Y-5743000D01*
D213*
X3400000Y-7400000D02*
X2964300Y-6657900D01*
D212*
X3421500Y6434900D02*
X3533300Y6374200D01*
X4684600Y-5582900D02*
X4586500Y-5663800D01*
X-5970000Y4180200D02*
X-5896100Y4283800D01*
X-7283600Y-254300D02*
X-7286900Y-127200D01*
X6803900Y2611800D02*
X6848500Y2492600D01*
X-5500300Y4781400D02*
X-5416000Y4876600D01*
X11000000Y0D02*
X10998300Y192000D01*
D213*
X-2300000Y-8000000D02*
X-2008800Y-7005700D01*
D212*
X10519400Y-3216100D02*
X10573900Y-3032000D01*
X10973200Y-767300D02*
X10984900Y-575700D01*
X10336600Y-3762200D02*
X10400700Y-3581200D01*
X-6605200Y-3080000D02*
X-6657900Y-2964300D01*
X6550400Y3194800D02*
X6605200Y3080000D01*
X3533300Y6374200D02*
X3644000Y6311600D01*
X-254300Y-7283600D02*
X-127200Y-7286900D01*
X-6848500Y2492600D02*
X-6803900Y2611800D01*
X10461600Y-3399200D02*
X10519400Y-3216100D01*
X4386000Y-5820500D02*
X4283800Y-5896100D01*
X5663800Y-4586500D02*
X5582900Y-4684600D01*
X-7293900Y-7553100D02*
X-6946600Y-7193400D01*
X-5743000Y-4486900D02*
X-5820500Y-4386000D01*
X-3533300Y-6374200D02*
X-3644000Y-6311600D01*
X3862100Y6180600D02*
X3969300Y6112200D01*
D214*
X7237200Y-8937200D02*
X7392100Y-8809500D01*
D212*
X-1515300Y7128700D02*
X-1390600Y7154100D01*
D213*
X-3000000Y8100000D02*
X-2700000Y7800000D01*
D212*
X1515300Y-7128700D02*
X1639400Y-7101200D01*
X-4386000Y-5820500D02*
X-4486900Y-5743000D01*
D214*
X7695000Y-8546200D02*
X7843000Y-8410600D01*
D212*
X6708600Y2847600D02*
X6757300Y2730100D01*
X-7071500Y1763100D02*
X-7039700Y1886300D01*
X-3421500Y-6434900D02*
X-3533300Y-6374200D01*
D213*
X2200000Y7900000D02*
X2100000Y7200000D01*
D212*
X-4178300Y7858200D02*
X-3421500Y6434900D01*
D214*
X8410600Y-7843000D02*
X8546200Y-7695000D01*
D212*
X-4970400Y5330100D02*
X-4876600Y5416000D01*
X-7260300Y635200D02*
X-7248100Y761800D01*
X-3308700Y-6493700D02*
X-3421500Y-6434900D01*
X-7177300Y1265500D02*
X-7154100Y1390600D01*
D213*
X3700000Y-7800000D02*
X3400000Y-7400000D01*
D212*
X-7270200Y508400D02*
X-7260300Y635200D01*
D214*
X10246600Y-5220900D02*
X10336100Y-5041300D01*
D212*
X-7101200Y-1639400D02*
X-7128700Y-1515300D01*
X4283800Y-5896100D02*
X4180200Y-5970000D01*
X508400Y7270200D02*
X635200Y7260300D01*
X5896100Y-4283800D02*
X5820500Y-4386000D01*
X-4486900Y5743000D02*
X-4386000Y5820500D01*
X10998300Y192000D02*
X10993300Y383900D01*
D213*
X-6700000Y-5600000D02*
X-6600000Y-5200000D01*
D212*
X-5242500Y5062700D02*
X-5153400Y5153400D01*
X2372700Y6890900D02*
X2492600Y6848500D01*
D213*
X-3620000Y8130600D02*
X-3000000Y8100000D01*
D212*
X-7707600Y4450000D02*
X-7784100Y4314800D01*
X6605200Y3080000D02*
X6657900Y2964300D01*
X4486900Y-5743000D02*
X4386000Y-5820500D01*
X-3533300Y6374200D02*
X-3421500Y6434900D01*
X-5820500Y-4386000D02*
X-5896100Y-4283800D01*
D213*
X-2300000Y-8400000D02*
X-2300000Y-8000000D01*
D212*
X-6931300Y-2252100D02*
X-6969500Y-2130800D01*
X-127200Y-7286900D02*
X0Y-7288000D01*
D214*
X10585800Y-4493400D02*
X10662600Y-4308000D01*
D212*
X-888200Y7233700D02*
X-761800Y7248100D01*
X-1698200Y-8736500D02*
X-1545500Y-8764800D01*
X-4586500Y5663800D02*
X-4486900Y5743000D01*
X-2008800Y7005700D02*
X-1886300Y7039700D01*
X5330100Y-4970400D02*
X5242500Y-5062700D01*
D213*
X-6614000Y-5955300D02*
X-6700000Y-5600000D01*
D212*
X-4586500Y-5663800D02*
X-4684600Y-5582900D01*
X2372700Y-6890900D02*
X2492600Y-6848500D01*
X5820500Y4386000D02*
X5896100Y4283800D01*
X-7128700Y1515300D02*
X-7101200Y1639400D01*
X-761800Y7248100D02*
X-635200Y7260300D01*
X6293300Y6293300D02*
X6182500Y6402100D01*
X-7039700Y1886300D02*
X-7005700Y2008800D01*
X-6402100Y-6182500D02*
X-6293300Y-6293300D01*
X10400700Y-3581200D02*
X10461600Y-3399200D01*
X10892900Y1530900D02*
X10864600Y1720800D01*
X6180600Y-3862100D02*
X6112200Y-3969300D01*
X1850400Y8705500D02*
X1698200Y8736500D01*
X-3862100Y6180600D02*
X-3753600Y6247000D01*
X-6657900Y2964300D02*
X-6605200Y3080000D01*
X-6374200Y-3533300D02*
X-6434900Y-3421500D01*
X-7217100Y1014300D02*
X-7198300Y1140100D01*
X-6550400Y-3194800D02*
X-6605200Y-3080000D01*
D213*
X-1850400Y-8705500D02*
X-2300000Y-8400000D01*
D212*
X635200Y7260300D02*
X761800Y7248100D01*
D214*
X10153900Y-5398900D02*
X10246600Y-5220900D01*
D212*
X-6803900Y2611800D02*
X-6757300Y2730100D01*
X-6708600Y-2847600D02*
X-6757300Y-2730100D01*
X10340500Y1823300D02*
X10832900Y1910100D01*
X-7101200Y1639400D02*
X-7071500Y1763100D01*
X4583800Y-7628800D02*
X4716300Y-7547600D01*
X-6969500Y-2130800D02*
X-7005700Y-2008800D01*
X10984900Y575700D02*
X10973200Y767300D01*
X3969300Y-6112200D02*
X3862100Y-6180600D01*
X2847600Y-6708600D02*
X2964300Y-6657900D01*
X888200Y7233700D02*
X1014300Y7217100D01*
X10958100Y958700D02*
X10939700Y1149800D01*
D211*
X-2300000Y5200000D02*
X-1900000Y4800000D01*
D212*
X4970400Y-5330100D02*
X4876600Y-5416000D01*
X10625200Y-2847000D02*
X10673300Y-2661100D01*
X5743000Y4486900D02*
X5820500Y4386000D01*
D214*
X9857400Y-5922900D02*
X9959300Y-5750000D01*
D212*
X1698200Y8736500D02*
X1545500Y8764800D01*
D214*
X7544700Y-8679200D02*
X7695000Y-8546200D01*
X6920900Y-9184300D02*
X7080100Y-9062100D01*
D212*
X-4684600Y-5582900D02*
X-4781400Y-5500300D01*
X-7039700Y-1886300D02*
X-7071500Y-1763100D01*
X7128700Y1515300D02*
X7154100Y1390600D01*
X1014300Y-7217100D02*
X1140100Y-7198300D01*
X6112200Y3969300D02*
X6180600Y3862100D01*
X-5330100Y4970400D02*
X-5242500Y5062700D01*
X6890900Y2372700D02*
X6931300Y2252100D01*
X2252100Y6931300D02*
X2372700Y6890900D01*
X1140100Y-7198300D02*
X1265500Y-7177300D01*
X5242500Y-5062700D02*
X5153400Y-5153400D01*
D213*
X-2700000Y7800000D02*
X-2492600Y6848500D01*
D212*
X-508400Y7270200D02*
X-381400Y7278000D01*
X-7005700Y2008800D02*
X-6969500Y2130800D01*
D214*
X8131700Y-8131700D02*
X8272400Y-7988600D01*
D213*
X2200000Y8400000D02*
X2200000Y7900000D01*
D212*
X-4781400Y-5500300D02*
X-4876600Y-5416000D01*
X-3862100Y-6180600D02*
X-3969300Y-6112200D01*
X2252100Y-6931300D02*
X2372700Y-6890900D01*
X2611800Y-6803900D02*
X2730100Y-6757300D01*
X-5970000Y-4180200D02*
X-6042000Y-4075400D01*
X4586500Y5663800D02*
X4684600Y5582900D01*
X-3753600Y6247000D02*
X-3644000Y6311600D01*
X-1850400Y-8705500D02*
X-1698200Y-8736500D01*
X-4970400Y-5330100D02*
X-5062700Y-5242500D01*
X-1238600Y-8813400D02*
X-1014300Y-7217100D01*
X-5896100Y-4283800D02*
X-5970000Y-4180200D01*
D213*
X6100000Y4900000D02*
X5743000Y4486900D01*
D212*
X-5416000Y4876600D02*
X-5330100Y4970400D01*
X1639400Y-7101200D02*
X1763100Y-7071500D01*
X4075400Y6042000D02*
X4180200Y5970000D01*
X6493700Y3308700D02*
X6550400Y3194800D01*
X-6757300Y2730100D02*
X-6708600Y2847600D01*
X127200Y-7286900D02*
X254300Y-7283600D01*
X10864600Y1720800D02*
X10832900Y1910100D01*
X4876600Y5416000D02*
X4970400Y5330100D01*
X-7248100Y761800D02*
X-7233700Y888200D01*
X-3901500Y7999300D02*
X-4040500Y7930000D01*
X3080000Y6605200D02*
X3194800Y6550400D01*
X10718100Y-2474500D02*
X10759600Y-2287000D01*
X-7930000Y4040500D02*
X-7999300Y3901500D01*
X-1265500Y7177300D02*
X-1140100Y7198300D01*
X4386000Y5820500D02*
X4486900Y5743000D01*
D214*
X9303700Y-6759500D02*
X9420200Y-6596100D01*
D212*
X-7288000Y0D02*
X-7286900Y127200D01*
X6112200Y-3969300D02*
X6042000Y-4075400D01*
X-5743000Y4486900D02*
X-5663800Y4586500D01*
X-7071500Y-1763100D02*
X-7101200Y-1639400D01*
X10759600Y-2287000D02*
X10797900Y-2098900D01*
X2730100Y6757300D02*
X2847600Y6708600D01*
X127200Y7286900D02*
X254300Y7283600D01*
X1545500Y8764800D02*
X1392300Y8790400D01*
X-7858200Y4178300D02*
X-7930000Y4040500D01*
X-3080000Y-6605200D02*
X-3194800Y-6550400D01*
X-6890900Y2372700D02*
X-6848500Y2492600D01*
X6311600Y3644000D02*
X6374200Y3533300D01*
X1238600Y8813400D02*
X1014300Y7217100D01*
X-1639400Y7101200D02*
X-1515300Y7128700D01*
X2130800Y-6969500D02*
X2252100Y-6931300D01*
X4180200Y5970000D02*
X4283800Y5896100D01*
D214*
X8809500Y-7392100D02*
X8937200Y-7237200D01*
D212*
X-7128700Y-1515300D02*
X-7154100Y-1390600D01*
X6042000Y-4075400D02*
X5970000Y-4180200D01*
X2492600Y-6848500D02*
X2611800Y-6803900D01*
X10864600Y-1720800D02*
X10892900Y-1530900D01*
D214*
X8937200Y-7237200D02*
X9062100Y-7080100D01*
D212*
X-7999300Y3901500D02*
X-6550400Y3194800D01*
X-8790400Y-1392300D02*
X-8764800Y-1545500D01*
X3308700Y6493700D02*
X3421500Y6434900D01*
X-4486900Y-5743000D02*
X-4586500Y-5663800D01*
X-508400Y-7270200D02*
X-381400Y-7278000D01*
X4450000Y-7707600D02*
X4583800Y-7628800D01*
X-2611800Y-6803900D02*
X-2730100Y-6757300D01*
X-4040500Y7930000D02*
X-4178300Y7858200D01*
X10573900Y-3032000D02*
X10625200Y-2847000D01*
D213*
X-7600000Y-200000D02*
X-7283600Y-254300D01*
D211*
X-2300000Y6100000D02*
X-2300000Y5200000D01*
D212*
X2008800Y7005700D02*
X2130800Y6969500D01*
X-1014300Y7217100D02*
X-888200Y7233700D01*
X381400Y7278000D02*
X508400Y7270200D01*
X-6247000Y-3753600D02*
X-6311600Y-3644000D01*
X-4781400Y5500300D02*
X-4684600Y5582900D01*
X4684600Y5582900D02*
X4781400Y5500300D01*
X6402100Y6182500D02*
X6293300Y6293300D01*
X-2130800Y-6969500D02*
X-2252100Y-6931300D01*
D213*
X-7400000Y4600000D02*
X-7000000Y4600000D01*
D212*
X10832900Y-1910100D02*
X10864600Y-1720800D01*
X761800Y-7248100D02*
X888200Y-7233700D01*
X-4684600Y5582900D02*
X-4586500Y5663800D01*
X5500300Y-4781400D02*
X5416000Y-4876600D01*
X-3969300Y6112200D02*
X-3862100Y6180600D01*
X-7286900Y127200D02*
X-7283600Y254300D01*
X-6657900Y-2964300D02*
X-6708600Y-2847600D01*
X-1545500Y-8764800D02*
X-1392300Y-8790400D01*
X-635200Y-7260300D02*
X-508400Y-7270200D01*
X-2492600Y-6848500D02*
X-2611800Y-6803900D01*
X6247000Y3753600D02*
X6311600Y3644000D01*
X6969500Y2130800D02*
X7005700Y2008800D01*
D214*
X8272400Y-7988600D02*
X8410600Y-7843000D01*
D212*
X-7005700Y-2008800D02*
X-7039700Y-1886300D01*
D214*
X8679200Y-7544700D02*
X8809500Y-7392100D01*
D212*
X-4180200Y5970000D02*
X-4075400Y6042000D01*
X8790400Y1392300D02*
X8764800Y1545500D01*
X-6311600Y-3644000D02*
X-6374200Y-3533300D01*
X-4180200Y-5970000D02*
X-4283800Y-5896100D01*
X5564200Y-8904500D02*
X5299200Y-8480500D01*
D213*
X-6600000Y-5200000D02*
X-6300000Y-4900000D01*
D212*
X6657900Y2964300D02*
X6708600Y2847600D01*
X10892900Y-1530900D02*
X10918000Y-1340600D01*
D214*
X9752600Y-6094100D02*
X9857400Y-5922900D01*
D212*
X5743000Y-4486900D02*
X5663800Y-4586500D01*
X10269400Y-3942000D02*
X10336600Y-3762200D01*
X4178300Y-7858200D02*
X4314800Y-7784100D01*
X-4075400Y6042000D02*
X-3969300Y6112200D01*
X10973200Y767300D02*
X10958100Y958700D01*
D214*
X9184300Y-6920900D02*
X9303700Y-6759500D01*
D212*
X1886300Y-7039700D02*
X2008800Y-7005700D01*
X0Y7288000D02*
X127200Y7286900D01*
X10673300Y-2661100D02*
X10718100Y-2474500D01*
X-2964300Y-6657900D02*
X-3080000Y-6605200D01*
X-5153400Y5153400D02*
X-5062700Y5242500D01*
D213*
X-6300000Y-4900000D02*
X-5743000Y-4486900D01*
D212*
X-7154100Y-1390600D02*
X-7177300Y-1265500D01*
X2964300Y6657900D02*
X3080000Y6605200D01*
X6434900Y3421500D02*
X6493700Y3308700D01*
X-6112200Y-3969300D02*
X-6180600Y-3862100D01*
X6247000Y-3753600D02*
X6180600Y-3862100D01*
X3644000Y6311600D02*
X3753600Y6247000D01*
X-7278000Y381400D02*
X-7270200Y508400D01*
X5416000Y-4876600D02*
X5330100Y-4970400D01*
X2130800Y6969500D02*
X2252100Y6931300D01*
X7101200Y1639400D02*
X7128700Y1515300D01*
X1461300Y10397800D02*
X1391700Y9902700D01*
X6180600Y3862100D02*
X6247000Y3753600D01*
X5062700Y-5242500D02*
X4970400Y-5330100D01*
X-2492600Y6848500D02*
X-2372700Y6890900D01*
D213*
X-8100000Y-200000D02*
X-7600000Y-200000D01*
D212*
X6848500Y2492600D02*
X6890900Y2372700D01*
D213*
X4178300Y-7858200D02*
X3700000Y-7800000D01*
D212*
X-2252100Y-6931300D02*
X-2372700Y-6890900D01*
X6931300Y2252100D02*
X6969500Y2130800D01*
X-1392300Y-8790400D02*
X-1238600Y-8813400D01*
X-6757300Y-2730100D02*
X-6803900Y-2611800D01*
X-3620000Y8130600D02*
X-3761300Y8066100D01*
X-2847600Y-6708600D02*
X-2964300Y-6657900D01*
X-6848500Y-2492600D02*
X-6890900Y-2372700D01*
X-5582900Y4684600D02*
X-5500300Y4781400D01*
X-6969500Y2130800D02*
X-6931300Y2252100D01*
X254300Y7283600D02*
X381400Y7278000D01*
X-4929500Y9270900D02*
X-4694700Y8829500D01*
D213*
X2100000Y7200000D02*
X2008800Y7005700D01*
D212*
X-2008800Y-7005700D02*
X-2130800Y-6969500D01*
X-6803900Y-2611800D02*
X-6848500Y-2492600D01*
X-7154100Y1390600D02*
X-7128700Y1515300D01*
X7293900Y7553100D02*
X6946600Y7193400D01*
D214*
X9959300Y-5750000D02*
X10058100Y-5575300D01*
D212*
X-6434900Y-3421500D02*
X-6493700Y-3308700D01*
X381400Y-7278000D02*
X508400Y-7270200D01*
D214*
X10422500Y-4860100D02*
X10505800Y-4677500D01*
D212*
X10998300Y-192000D02*
X11000000Y0D01*
X-1140100Y7198300D02*
X-1014300Y7217100D01*
D214*
X6759500Y-9303700D02*
X6920900Y-9184300D01*
D212*
X10918000Y1340600D02*
X10892900Y1530900D01*
X1763100Y-7071500D02*
X1886300Y-7039700D01*
X2008800Y-7005700D02*
X2130800Y-6969500D01*
X3753600Y6247000D02*
X3862100Y6180600D01*
D213*
X-6800000Y4500000D02*
X-6400000Y4300000D01*
D212*
X-5896100Y4283800D02*
X-5820500Y4386000D01*
X-3644000Y6311600D02*
X-3533300Y6374200D01*
D214*
X10336100Y-5041300D02*
X10422500Y-4860100D01*
D212*
X0Y-7288000D02*
X127200Y-7286900D01*
X-7286900Y-127200D02*
X-7288000Y0D01*
D214*
X7988600Y-8272400D02*
X8131700Y-8131700D01*
D212*
X-6293300Y-6293300D02*
X-6182500Y-6402100D01*
X4970400Y5330100D02*
X5062700Y5242500D01*
D213*
X-7000000Y4600000D02*
X-6800000Y4500000D01*
D212*
X-6493700Y-3308700D02*
X-6550400Y-3194800D01*
X-6042000Y-4075400D02*
X-6112200Y-3969300D01*
X6614000Y5955300D02*
X6509000Y6069800D01*
X3194800Y6550400D02*
X3308700Y6493700D01*
D214*
X9533900Y-6430700D02*
X9644700Y-6263300D01*
D212*
X6311600Y-3644000D02*
X6247000Y-3753600D01*
D213*
X1850400Y8705500D02*
X2200000Y8400000D01*
D212*
X-254300Y7283600D02*
X-127200Y7286900D01*
D213*
X-7707600Y4450000D02*
X-7400000Y4600000D01*
D212*
X-4075400Y-6042000D02*
X-4180200Y-5970000D01*
X10918000Y-1340600D02*
X10939700Y-1149800D01*
X5970000Y4180200D02*
X6042000Y4075400D01*
X-6182500Y-6402100D02*
X-5062700Y-5242500D01*
D214*
X9420200Y-6596100D02*
X9533900Y-6430700D01*
D212*
X2611800Y6803900D02*
X2730100Y6757300D01*
X-3753600Y-6247000D02*
X-3862100Y-6180600D01*
X-6605200Y3080000D02*
X-6550400Y3194800D01*
X-761800Y-7248100D02*
X-635200Y-7260300D01*
X4486900Y5743000D02*
X4586500Y5663800D01*
X8764800Y1545500D02*
X7177300Y1265500D01*
D213*
X6700000Y5500000D02*
X6500000Y5200000D01*
X6614000Y5955300D02*
X6700000Y5500000D01*
D212*
X6182500Y6402100D02*
X5062700Y5242500D01*
X10340500Y1823300D02*
X9848100Y1736500D01*
X4781400Y5500300D02*
X4876600Y5416000D01*
X6757300Y2730100D02*
X6803900Y2611800D01*
X-7283600Y254300D02*
X-7278000Y381400D01*
X8851200Y930300D02*
X8833700Y1084600D01*
X5820500Y-4386000D02*
X5743000Y-4486900D01*
X2847600Y6708600D02*
X2964300Y6657900D01*
X8833700Y1084600D02*
X8813400Y1238600D01*
X-127200Y7286900D02*
X0Y7288000D01*
X-8833700Y-1084600D02*
X-8813400Y-1238600D01*
D213*
X10269400Y-3942000D02*
X10685772Y-4317368D01*
D212*
X-2252100Y6931300D02*
X-2130800Y6969500D01*
X635200Y-7260300D02*
X761800Y-7248100D01*
X6509000Y6069800D02*
X6402100Y6182500D01*
X-6509000Y-6069800D02*
X-6402100Y-6182500D01*
X-6931300Y2252100D02*
X-6890900Y2372700D01*
D213*
X-8600000Y-400000D02*
X-8100000Y-200000D01*
D212*
X4180200Y-5970000D02*
X4075400Y-6042000D01*
X-3761300Y8066100D02*
X-3901500Y7999300D01*
X-1763100Y7071500D02*
X-1639400Y7101200D01*
X-10340500Y-1823300D02*
X-9848100Y-1736500D01*
X10984900Y-575700D02*
X10993300Y-383900D01*
D214*
X9644700Y-6263300D02*
X9752600Y-6094100D01*
D213*
X-6400000Y4300000D02*
X-6042000Y4075400D01*
D212*
X-5820500Y4386000D02*
X-5743000Y4486900D01*
X4314800Y-7784100D02*
X4450000Y-7707600D01*
X-2730100Y-6757300D02*
X-2847600Y-6708600D01*
X-888200Y-7233700D02*
X-761800Y-7248100D01*
X-3644000Y-6311600D02*
X-3753600Y-6247000D01*
X-8764800Y-1545500D02*
X-7177300Y-1265500D01*
X6374200Y3533300D02*
X6434900Y3421500D01*
X-6890900Y-2372700D02*
X-6931300Y-2252100D01*
X254300Y-7283600D02*
X381400Y-7278000D01*
X1390600Y-7154100D02*
X1515300Y-7128700D01*
X-5062700Y5242500D02*
X-4970400Y5330100D01*
X761800Y7248100D02*
X888200Y7233700D01*
X-4283800Y-5896100D02*
X-4386000Y-5820500D01*
X4075400Y-6042000D02*
X3969300Y-6112200D01*
D214*
X10058100Y-5575300D02*
X10153900Y-5398900D01*
D212*
X-4386000Y5820500D02*
X-4283800Y5896100D01*
X-4283800Y5896100D02*
X-4180200Y5970000D01*
X-381400Y7278000D02*
X-254300Y7283600D01*
X-4876600Y-5416000D02*
X-4970400Y-5330100D01*
X5582900Y-4684600D02*
X5500300Y-4781400D01*
X4876600Y-5416000D02*
X4781400Y-5500300D01*
X-6614000Y-5955300D02*
X-6509000Y-6069800D01*
X-7198300Y1140100D02*
X-7177300Y1265500D01*
X508400Y-7270200D02*
X635200Y-7260300D01*
X-1461300Y-10397800D02*
X-1391700Y-9902700D01*
D214*
X7080100Y-9062100D02*
X7237200Y-8937200D01*
X9062100Y-7080100D02*
X9184300Y-6920900D01*
D212*
X888200Y-7233700D02*
X1014300Y-7217100D01*
X5970000Y-4180200D02*
X5896100Y-4283800D01*
X8813400Y1238600D02*
X8790400Y1392300D01*
D213*
X6500000Y5200000D02*
X6100000Y4900000D01*
D212*
X-6708600Y2847600D02*
X-6657900Y2964300D01*
X5153400Y-5153400D02*
X5062700Y-5242500D01*
X-8851200Y-930300D02*
X-8833700Y-1084600D01*
X2730100Y-6757300D02*
X2847600Y-6708600D01*
D214*
X7392100Y-8809500D02*
X7544700Y-8679200D01*
D212*
X7039700Y1886300D02*
X7071500Y1763100D01*
X-6180600Y-3862100D02*
X-6247000Y-3753600D01*
X7071500Y1763100D02*
X7101200Y1639400D01*
X10939700Y-1149800D02*
X10958100Y-958700D01*
X10939700Y1149800D02*
X10918000Y1340600D01*
D214*
X10505800Y-4677500D02*
X10585800Y-4493400D01*
D212*
X3969300Y6112200D02*
X4075400Y6042000D01*
X-4876600Y5416000D02*
X-4781400Y5500300D01*
X-2372700Y6890900D02*
X-2252100Y6931300D01*
X-7784100Y4314800D02*
X-7858200Y4178300D01*
X5896100Y4283800D02*
X5970000Y4180200D01*
X-3194800Y-6550400D02*
X-3308700Y-6493700D01*
X6042000Y4075400D02*
X6112200Y3969300D01*
X10993300Y-383900D02*
X10998300Y-192000D01*
X4283800Y5896100D02*
X4386000Y5820500D01*
X-8813400Y-1238600D02*
X-8790400Y-1392300D01*
X7154100Y1390600D02*
X7177300Y1265500D01*
X-3969300Y-6112200D02*
X-4075400Y-6042000D01*
D211*
%TO.N,~{RESET}*%
X-600000Y2800000D02*
X-510000Y2800000D01*
X-510000Y2800000D02*
X600000Y3910000D01*
X-600000Y2800000D02*
X-600000Y2100000D01*
X-600000Y2100000D02*
X-900000Y1800000D01*
%TO.N,SDA*%
X-650000Y-3300000D02*
X-750000Y-3400000D01*
X-750000Y-3400000D02*
X-750000Y-2150000D01*
X250038Y-3300000D02*
X-650000Y-3300000D01*
X-750000Y-2150000D02*
X-900000Y-2000000D01*
%TO.N,SCL*%
X1100000Y-1500000D02*
X1000000Y-1600000D01*
X975210Y-2574828D02*
X975210Y-1624790D01*
X975210Y-1624790D02*
X1100000Y-1500000D01*
X1000000Y-1600000D02*
X-500000Y-1600000D01*
%TO.N,XL-INT2*%
X-1900000Y-6200000D02*
X-1900000Y-2000000D01*
X1475083Y-5475083D02*
X1475083Y-4524790D01*
X2100000Y-6100000D02*
X1475083Y-5475083D01*
%TO.N,XL-INT1*%
X-1100000Y-5200000D02*
X-1400000Y-4900000D01*
X-1400000Y-4900000D02*
X-1400000Y-2000000D01*
X-1100000Y-6400000D02*
X-1100000Y-5200000D01*
X975210Y-5924790D02*
X975210Y-4524790D01*
X400000Y-6500000D02*
X975210Y-5924790D01*
%TO.N,SWIM*%
X-500000Y1540000D02*
X600000Y2640000D01*
X-500000Y1400000D02*
X-500000Y1540000D01*
%TO.N,TX*%
X-250000Y-600000D02*
X150000Y-200000D01*
X-500000Y-600000D02*
X-250000Y-600000D01*
X150000Y-200000D02*
X150000Y920000D01*
X150000Y920000D02*
X600000Y1370000D01*
%TO.N,RX*%
X650000Y-800000D02*
X1600000Y-800000D01*
X2100000Y-300000D02*
X2100000Y1140000D01*
X350000Y-1100000D02*
X650000Y-800000D01*
X-500000Y-1100000D02*
X350000Y-1100000D01*
X1600000Y-800000D02*
X2100000Y-300000D01*
X2100000Y1140000D02*
X1870000Y1370000D01*
%TO.N,HALL*%
X-4700000Y1400000D02*
X-5900000Y2600000D01*
X4000000Y3950000D02*
X4000000Y5200000D01*
X-4300000Y1400000D02*
X-4700000Y1400000D01*
X3250000Y3200000D02*
X4000000Y3950000D01*
%TD*%
%TA.AperFunction,Conductor*%
%TO.N,+3V*%
G36*
X-4350005Y3296573D02*
G01*
X-4347245Y3292194D01*
X-4214331Y2915655D01*
X-4214809Y2906715D01*
X-4218512Y2902279D01*
X-4493151Y2703945D01*
X-4501863Y2701880D01*
X-4506847Y2703944D01*
X-4781485Y2902278D01*
X-4786186Y2909900D01*
X-4785668Y2915657D01*
X-4652755Y3292194D01*
X-4646770Y3298855D01*
X-4641722Y3300000D01*
X-4358278Y3300000D01*
X-4350005Y3296573D01*
G37*
%TD.AperFunction*%
%TD*%
%TA.AperFunction,Conductor*%
%TO.N,GND*%
G36*
X4206701Y790161D02*
G01*
X4209591Y787271D01*
X4545757Y306073D01*
X4547686Y297328D01*
X4546324Y293567D01*
X4353369Y-44105D01*
X4346289Y-49588D01*
X4343211Y-50000D01*
X4056789Y-50000D01*
X4048516Y-46573D01*
X4046631Y-44105D01*
X3853674Y293569D01*
X3852545Y302450D01*
X3854240Y306070D01*
X4190409Y787271D01*
X4197956Y792090D01*
X4206701Y790161D01*
G37*
%TD.AperFunction*%
%TD*%
%TA.AperFunction,Conductor*%
%TO.N,SCL*%
G36*
X860930Y-1243793D02*
G01*
X1095413Y-1494038D01*
X1098569Y-1502418D01*
X1097326Y-1507298D01*
X953657Y-1792733D01*
X946876Y-1798582D01*
X941914Y-1799101D01*
X510408Y-1751156D01*
X502564Y-1746837D01*
X500000Y-1739528D01*
X500000Y-1456617D01*
X503427Y-1448344D01*
X505672Y-1446590D01*
X846365Y-1241765D01*
X855220Y-1240440D01*
X860930Y-1243793D01*
G37*
%TD.AperFunction*%
%TD*%
%TA.AperFunction,Conductor*%
%TO.N,HALL*%
G36*
X3746970Y3898003D02*
G01*
X3947312Y3697661D01*
X3950739Y3689388D01*
X3949267Y3683706D01*
X3605054Y3064123D01*
X3598040Y3058555D01*
X3590375Y3058984D01*
X3256630Y3196274D01*
X3250284Y3202590D01*
X3249383Y3207223D01*
X3254937Y3692311D01*
X3258458Y3700542D01*
X3262119Y3702968D01*
X3519970Y3810877D01*
X3734180Y3900523D01*
X3743135Y3900556D01*
X3746970Y3898003D01*
G37*
%TD.AperFunction*%
%TD*%
%TA.AperFunction,Conductor*%
%TO.N,+3V*%
G36*
X3106847Y-4203944D02*
G01*
X3330498Y-4365457D01*
X3381485Y-4402278D01*
X3386186Y-4409900D01*
X3385668Y-4415657D01*
X3252755Y-4792194D01*
X3246770Y-4798855D01*
X3241722Y-4800000D01*
X2958278Y-4800000D01*
X2950005Y-4796573D01*
X2947245Y-4792194D01*
X2890128Y-4630386D01*
X2814331Y-4415655D01*
X2814809Y-4406715D01*
X2818512Y-4402279D01*
X3093151Y-4203945D01*
X3101863Y-4201880D01*
X3106847Y-4203944D01*
G37*
%TD.AperFunction*%
%TD*%
%TA.AperFunction,Conductor*%
%TO.N,+3V*%
G36*
X5406847Y-403944D02*
G01*
X5630498Y-565457D01*
X5681485Y-602278D01*
X5686186Y-609900D01*
X5685668Y-615657D01*
X5552755Y-992194D01*
X5546770Y-998855D01*
X5541722Y-1000000D01*
X5258278Y-1000000D01*
X5250005Y-996573D01*
X5247245Y-992194D01*
X5190128Y-830386D01*
X5114331Y-615655D01*
X5114809Y-606715D01*
X5118512Y-602279D01*
X5393151Y-403945D01*
X5401863Y-401880D01*
X5406847Y-403944D01*
G37*
%TD.AperFunction*%
%TD*%
%TA.AperFunction,Conductor*%
%TO.N,+3V*%
G36*
X2860930Y-3943793D02*
G01*
X3095413Y-4194038D01*
X3098569Y-4202418D01*
X3097326Y-4207298D01*
X2953657Y-4492733D01*
X2946876Y-4498582D01*
X2941914Y-4499101D01*
X2510408Y-4451156D01*
X2502564Y-4446837D01*
X2500000Y-4439528D01*
X2500000Y-4156617D01*
X2503427Y-4148344D01*
X2505672Y-4146590D01*
X2846365Y-3941765D01*
X2855220Y-3940440D01*
X2860930Y-3943793D01*
G37*
%TD.AperFunction*%
%TD*%
%TA.AperFunction,Conductor*%
%TO.N,GND*%
G36*
X2860930Y-2943793D02*
G01*
X3095413Y-3194038D01*
X3098569Y-3202418D01*
X3097326Y-3207298D01*
X2953657Y-3492733D01*
X2946876Y-3498582D01*
X2941914Y-3499101D01*
X2510408Y-3451156D01*
X2502564Y-3446837D01*
X2500000Y-3439528D01*
X2500000Y-3156617D01*
X2503427Y-3148344D01*
X2505672Y-3146590D01*
X2846365Y-2941765D01*
X2855220Y-2940440D01*
X2860930Y-2943793D01*
G37*
%TD.AperFunction*%
%TD*%
%TA.AperFunction,Conductor*%
%TO.N,+3V*%
G36*
X-450005Y4396573D02*
G01*
X-447245Y4392194D01*
X-314331Y4015655D01*
X-314809Y4006715D01*
X-318512Y4002279D01*
X-593151Y3803945D01*
X-601863Y3801880D01*
X-606847Y3803944D01*
X-881485Y4002278D01*
X-886186Y4009900D01*
X-885668Y4015657D01*
X-752755Y4392194D01*
X-746770Y4398855D01*
X-741722Y4400000D01*
X-458278Y4400000D01*
X-450005Y4396573D01*
G37*
%TD.AperFunction*%
%TD*%
%TA.AperFunction,Conductor*%
%TO.N,+3V*%
G36*
X5505751Y3366876D02*
G01*
X5848069Y2866592D01*
X5849913Y2857829D01*
X5846686Y2851712D01*
X5645499Y2650525D01*
X5637226Y2647098D01*
X5635709Y2647197D01*
X5242437Y2698873D01*
X5234683Y2703348D01*
X5232426Y2708524D01*
X5150738Y3192150D01*
X5152740Y3200879D01*
X5157061Y3204573D01*
X5483113Y3366876D01*
X5490881Y3370743D01*
X5499815Y3371362D01*
X5505751Y3366876D01*
G37*
%TD.AperFunction*%
%TD*%
%TA.AperFunction,Conductor*%
%TO.N,+3V*%
G36*
X5768413Y167982D02*
G01*
X5967982Y-31586D01*
X5971409Y-39859D01*
X5969900Y-45606D01*
X5705076Y-515260D01*
X5698028Y-520783D01*
X5690438Y-520335D01*
X5403811Y-402563D01*
X5397461Y-396249D01*
X5397436Y-396188D01*
X5279664Y-109559D01*
X5279689Y-100606D01*
X5284738Y-94923D01*
X5754393Y169900D01*
X5763283Y170979D01*
X5768413Y167982D01*
G37*
%TD.AperFunction*%
%TD*%
%TA.AperFunction,Conductor*%
%TO.N,GND*%
G36*
X3503315Y-2695641D02*
G01*
X3702955Y-2895281D01*
X3706382Y-2903554D01*
X3704261Y-2910272D01*
X3405682Y-3336021D01*
X3398126Y-3340827D01*
X3391066Y-3339863D01*
X3103702Y-3202810D01*
X3097711Y-3196157D01*
X2998370Y-2910398D01*
X2998890Y-2901460D01*
X3004914Y-2895760D01*
X3490536Y-2693115D01*
X3499491Y-2693093D01*
X3503315Y-2695641D01*
G37*
%TD.AperFunction*%
%TD*%
%TA.AperFunction,Conductor*%
%TO.N,+3V*%
G36*
X-4493150Y3546053D02*
G01*
X-4218514Y3347721D01*
X-4213813Y3340099D01*
X-4214330Y3334345D01*
X-4305185Y3076958D01*
X-4347245Y2957806D01*
X-4353230Y2951145D01*
X-4358278Y2950000D01*
X-4641722Y2950000D01*
X-4649995Y2953427D01*
X-4652755Y2957806D01*
X-4785668Y3334342D01*
X-4785190Y3343284D01*
X-4781485Y3347721D01*
X-4506850Y3546053D01*
X-4498137Y3548119D01*
X-4493150Y3546053D01*
G37*
%TD.AperFunction*%
%TD*%
%TA.AperFunction,Conductor*%
%TO.N,+3V*%
G36*
X5121709Y4088005D02*
G01*
X5122754Y4086807D01*
X5411934Y3705955D01*
X5414208Y3697294D01*
X5412951Y3693395D01*
X5159663Y3216169D01*
X5152757Y3210468D01*
X5143843Y3211319D01*
X5139747Y3214939D01*
X4804189Y3694018D01*
X4802250Y3702759D01*
X4803535Y3706392D01*
X4901714Y3883911D01*
X4903679Y3886521D01*
X5105163Y4088005D01*
X5113436Y4091432D01*
X5121709Y4088005D01*
G37*
%TD.AperFunction*%
%TD*%
%TA.AperFunction,Conductor*%
%TO.N,+3V*%
G36*
X-4874645Y4090597D02*
G01*
X-4394731Y3854696D01*
X-4388818Y3847971D01*
X-4388952Y3840047D01*
X-4497559Y3553861D01*
X-4503698Y3547342D01*
X-4790764Y3420184D01*
X-4799715Y3419968D01*
X-4805394Y3424636D01*
X-5089298Y3874251D01*
X-5090817Y3883076D01*
X-5087678Y3888771D01*
X-4888079Y4088370D01*
X-4879806Y4091797D01*
X-4874645Y4090597D01*
G37*
%TD.AperFunction*%
%TD*%
%TA.AperFunction,Conductor*%
%TO.N,GND*%
G36*
X3857327Y1226154D02*
G01*
X3858227Y1225157D01*
X4193359Y808429D01*
X4195874Y799835D01*
X4191574Y791980D01*
X4191555Y791964D01*
X3857296Y524290D01*
X3848697Y521794D01*
X3842691Y524274D01*
X3462748Y827194D01*
X3458418Y835029D01*
X3460896Y843634D01*
X3461771Y844613D01*
X3664617Y1047459D01*
X3840781Y1226042D01*
X3849030Y1229525D01*
X3857327Y1226154D01*
G37*
%TD.AperFunction*%
%TD*%
%TA.AperFunction,Conductor*%
%TO.N,SCL*%
G36*
X1105982Y-1505146D02*
G01*
X1345938Y-1751653D01*
X1349253Y-1759972D01*
X1347294Y-1766296D01*
X1181961Y-2014725D01*
X1132562Y-2088954D01*
X1128683Y-2094782D01*
X1121247Y-2099771D01*
X1118943Y-2100000D01*
X836273Y-2100000D01*
X828000Y-2096573D01*
X824591Y-2088954D01*
X800428Y-1657653D01*
X803387Y-1649205D01*
X806845Y-1646554D01*
X1092339Y-1502855D01*
X1101268Y-1502198D01*
X1105982Y-1505146D01*
G37*
%TD.AperFunction*%
%TD*%
%TA.AperFunction,Conductor*%
%TO.N,GND*%
G36*
X-3492701Y2697326D02*
G01*
X-3207266Y2553657D01*
X-3201417Y2546876D01*
X-3200898Y2541916D01*
X-3210531Y2455220D01*
X-3248844Y2110408D01*
X-3253163Y2102564D01*
X-3260472Y2100000D01*
X-3543383Y2100000D01*
X-3551656Y2103427D01*
X-3553410Y2105672D01*
X-3758232Y2446364D01*
X-3759558Y2455220D01*
X-3756205Y2460930D01*
X-3505961Y2695413D01*
X-3497581Y2698569D01*
X-3492701Y2697326D01*
G37*
%TD.AperFunction*%
%TD*%
%TA.AperFunction,Conductor*%
%TO.N,GND*%
G36*
X-3350005Y3296573D02*
G01*
X-3347245Y3292194D01*
X-3214331Y2915655D01*
X-3214809Y2906715D01*
X-3218512Y2902279D01*
X-3493151Y2703945D01*
X-3501863Y2701880D01*
X-3506847Y2703944D01*
X-3781485Y2902278D01*
X-3786186Y2909900D01*
X-3785668Y2915657D01*
X-3652755Y3292194D01*
X-3646770Y3298855D01*
X-3641722Y3300000D01*
X-3358278Y3300000D01*
X-3350005Y3296573D01*
G37*
%TD.AperFunction*%
%TD*%
%TA.AperFunction,Conductor*%
%TO.N,GND*%
G36*
X4406847Y-403944D02*
G01*
X4630498Y-565457D01*
X4681485Y-602278D01*
X4686186Y-609900D01*
X4685668Y-615657D01*
X4552755Y-992194D01*
X4546770Y-998855D01*
X4541722Y-1000000D01*
X4258278Y-1000000D01*
X4250005Y-996573D01*
X4247245Y-992194D01*
X4190128Y-830386D01*
X4114331Y-615655D01*
X4114809Y-606715D01*
X4118512Y-602279D01*
X4393151Y-403945D01*
X4401863Y-401880D01*
X4406847Y-403944D01*
G37*
%TD.AperFunction*%
%TD*%
%TA.AperFunction,Conductor*%
%TO.N,+3V*%
G36*
X-4200606Y2820310D02*
G01*
X-4194923Y2815260D01*
X-3957908Y2394923D01*
X-3930099Y2345606D01*
X-3929020Y2336716D01*
X-3932015Y2331588D01*
X-4131587Y2132016D01*
X-4139859Y2128590D01*
X-4145606Y2130099D01*
X-4615260Y2394923D01*
X-4620783Y2401971D01*
X-4620335Y2409561D01*
X-4502563Y2696188D01*
X-4496249Y2702538D01*
X-4496188Y2702563D01*
X-4209561Y2820335D01*
X-4200606Y2820310D01*
G37*
%TD.AperFunction*%
%TD*%
%TA.AperFunction,Conductor*%
%TO.N,+3V*%
G36*
X3468413Y-3632017D02*
G01*
X3667982Y-3831586D01*
X3671409Y-3839859D01*
X3669900Y-3845606D01*
X3405076Y-4315260D01*
X3398028Y-4320783D01*
X3390438Y-4320335D01*
X3103811Y-4202563D01*
X3097461Y-4196249D01*
X3097436Y-4196188D01*
X2979664Y-3909559D01*
X2979689Y-3900606D01*
X2984738Y-3894923D01*
X3454394Y-3630098D01*
X3463283Y-3629020D01*
X3468413Y-3632017D01*
G37*
%TD.AperFunction*%
%TD*%
%TA.AperFunction,Conductor*%
%TO.N,SDA*%
G36*
X-160406Y-3148843D02*
G01*
X-152564Y-3153162D01*
X-150000Y-3160471D01*
X-150000Y-3443384D01*
X-153426Y-3451655D01*
X-155671Y-3453409D01*
X-496364Y-3658232D01*
X-505220Y-3659558D01*
X-510930Y-3656205D01*
X-745413Y-3405961D01*
X-748569Y-3397581D01*
X-747326Y-3392701D01*
X-603657Y-3107266D01*
X-596876Y-3101417D01*
X-591916Y-3100898D01*
X-160406Y-3148843D01*
G37*
%TD.AperFunction*%
%TD*%
%TA.AperFunction,Conductor*%
%TO.N,GND*%
G36*
X-3493150Y3546053D02*
G01*
X-3218514Y3347721D01*
X-3213813Y3340099D01*
X-3214330Y3334345D01*
X-3305185Y3076958D01*
X-3347245Y2957806D01*
X-3353230Y2951145D01*
X-3358278Y2950000D01*
X-3641722Y2950000D01*
X-3649995Y2953427D01*
X-3652755Y2957806D01*
X-3785668Y3334342D01*
X-3785190Y3343284D01*
X-3781485Y3347721D01*
X-3506850Y3546053D01*
X-3498137Y3548119D01*
X-3493150Y3546053D01*
G37*
%TD.AperFunction*%
%TD*%
%TA.AperFunction,Conductor*%
%TO.N,+3V*%
G36*
X2405126Y-1367331D02*
G01*
X2595212Y-1747529D01*
X2596447Y-1752761D01*
X2596447Y-2032485D01*
X2593020Y-2040758D01*
X2584747Y-2044185D01*
X2580267Y-2043293D01*
X2003580Y-1804243D01*
X1997249Y-1797910D01*
X1997024Y-1789550D01*
X2097383Y-1504590D01*
X2103360Y-1497929D01*
X2389644Y-1361993D01*
X2398586Y-1361541D01*
X2405126Y-1367331D01*
G37*
%TD.AperFunction*%
%TD*%
%TA.AperFunction,Conductor*%
%TO.N,GND*%
G36*
X4352959Y186628D02*
G01*
X4353496Y186055D01*
X4615614Y-113852D01*
X4618478Y-122337D01*
X4615969Y-128825D01*
X4402807Y-397461D01*
X4395542Y-401733D01*
X4112573Y-448311D01*
X4103853Y-446273D01*
X4099128Y-438666D01*
X4099008Y-437677D01*
X4050985Y177444D01*
X4053758Y185959D01*
X4061739Y190020D01*
X4062650Y190055D01*
X4344686Y190055D01*
X4352959Y186628D01*
G37*
%TD.AperFunction*%
%TD*%
%TA.AperFunction,Conductor*%
%TO.N,+3V*%
G36*
X-381588Y-3832015D02*
G01*
X-182016Y-4031587D01*
X-178590Y-4039859D01*
X-180099Y-4045606D01*
X-197327Y-4076159D01*
X-197789Y-4076910D01*
X-220064Y-4110247D01*
X-221615Y-4118047D01*
X-222896Y-4121505D01*
X-377782Y-4396188D01*
X-444923Y-4515260D01*
X-451971Y-4520783D01*
X-459561Y-4520335D01*
X-746188Y-4402563D01*
X-752538Y-4396249D01*
X-752563Y-4396188D01*
X-870335Y-4109561D01*
X-870310Y-4100606D01*
X-865260Y-4094923D01*
X-395606Y-3830099D01*
X-386716Y-3829020D01*
X-381588Y-3832015D01*
G37*
%TD.AperFunction*%
%TD*%
%TA.AperFunction,Conductor*%
%TO.N,~{RESET}*%
G36*
X-593150Y2796053D02*
G01*
X-318514Y2597721D01*
X-313813Y2590099D01*
X-314330Y2584345D01*
X-405185Y2326958D01*
X-447245Y2207806D01*
X-453230Y2201145D01*
X-458278Y2200000D01*
X-741722Y2200000D01*
X-749995Y2203427D01*
X-752755Y2207806D01*
X-885668Y2584342D01*
X-885190Y2593284D01*
X-881485Y2597721D01*
X-606850Y2796053D01*
X-598137Y2798119D01*
X-593150Y2796053D01*
G37*
%TD.AperFunction*%
%TD*%
%TA.AperFunction,Conductor*%
%TO.N,GND*%
G36*
X-3747917Y4161885D02*
G01*
X-3351380Y3854718D01*
X-3346938Y3846942D01*
X-3348162Y3840075D01*
X-3497052Y3553604D01*
X-3503907Y3547844D01*
X-3789054Y3458333D01*
X-3797974Y3459125D01*
X-3803650Y3465773D01*
X-3932178Y3848738D01*
X-3965891Y3949194D01*
X-3965276Y3958128D01*
X-3963073Y3961190D01*
X-3763355Y4160908D01*
X-3755082Y4164335D01*
X-3747917Y4161885D01*
G37*
%TD.AperFunction*%
%TD*%
%TA.AperFunction,Conductor*%
%TO.N,SDA*%
G36*
X-600005Y-2803427D02*
G01*
X-597245Y-2807806D01*
X-464331Y-3184344D01*
X-464809Y-3193284D01*
X-468514Y-3197721D01*
X-743150Y-3396053D01*
X-751863Y-3398119D01*
X-756850Y-3396053D01*
X-1031485Y-3197721D01*
X-1036186Y-3190099D01*
X-1035668Y-3184342D01*
X-902755Y-2807806D01*
X-896770Y-2801145D01*
X-891722Y-2800000D01*
X-608278Y-2800000D01*
X-600005Y-2803427D01*
G37*
%TD.AperFunction*%
%TD*%
%TA.AperFunction,Conductor*%
%TO.N,~{RESET}*%
G36*
X-198262Y3312616D02*
G01*
X1360Y3112994D01*
X4787Y3104721D01*
X2726Y3098091D01*
X-294373Y2666200D01*
X-301884Y2661328D01*
X-308984Y2662242D01*
X-596284Y2797215D01*
X-602315Y2803835D01*
X-602338Y2803898D01*
X-703576Y3089704D01*
X-703108Y3098647D01*
X-697201Y3104345D01*
X-211189Y3315077D01*
X-202236Y3315224D01*
X-198262Y3312616D01*
G37*
%TD.AperFunction*%
%TD*%
%TA.AperFunction,Conductor*%
%TO.N,+3V*%
G36*
X-452055Y-4311386D02*
G01*
X-446426Y-4318072D01*
X-418498Y-4403253D01*
X-255031Y-4901812D01*
X-255710Y-4910741D01*
X-262504Y-4916575D01*
X-266149Y-4917157D01*
X-546720Y-4917157D01*
X-552803Y-4915451D01*
X-900605Y-4703754D01*
X-905890Y-4696526D01*
X-904837Y-4688238D01*
X-752277Y-4403253D01*
X-745387Y-4397588D01*
X-460967Y-4310530D01*
X-452055Y-4311386D01*
G37*
%TD.AperFunction*%
%TD*%
M02*
