G04 #@! TF.GenerationSoftware,KiCad,Pcbnew,9.0.7*
G04 #@! TF.CreationDate,2026-03-08T11:54:30+01:00*
G04 #@! TF.ProjectId,halo-90,68616c6f-2d39-4302-9e6b-696361645f70,0V8*
G04 #@! TF.SameCoordinates,Original*
G04 #@! TF.FileFunction,AssemblyDrawing,Top*
%FSLAX46Y46*%
G04 Gerber Fmt 4.6, Leading zero omitted, Abs format (unit mm)*
G04 Created by KiCad (PCBNEW 9.0.7) date 2026-03-08 11:54:30*
%MOMM*%
%LPD*%
G01*
G04 APERTURE LIST*
%ADD10C,0.050000*%
%ADD11C,0.100000*%
%ADD12C,0.150000*%
%ADD13C,0.040000*%
%ADD14C,0.075000*%
G04 APERTURE END LIST*
D10*
X9707841Y4634815D02*
X9620167Y4814574D01*
X9620167Y4814574D02*
X9662967Y4835449D01*
X9662967Y4835449D02*
X9692821Y4839414D01*
X9692821Y4839414D02*
X9718291Y4830644D01*
X9718291Y4830644D02*
X9735201Y4817699D01*
X9735201Y4817699D02*
X9760461Y4787634D01*
X9760461Y4787634D02*
X9772986Y4761954D01*
X9772986Y4761954D02*
X9781126Y4723539D01*
X9781126Y4723539D02*
X9780916Y4702244D01*
X9780916Y4702244D02*
X9772146Y4676775D01*
X9772146Y4676775D02*
X9750641Y4655690D01*
X9750641Y4655690D02*
X9707841Y4634815D01*
X9782806Y4893898D02*
X9894085Y4948173D01*
X9894085Y4948173D02*
X9867565Y4850468D01*
X9867565Y4850468D02*
X9893245Y4862993D01*
X9893245Y4862993D02*
X9914540Y4862783D01*
X9914540Y4862783D02*
X9927275Y4858398D01*
X9927275Y4858398D02*
X9944185Y4845453D01*
X9944185Y4845453D02*
X9965059Y4802654D01*
X9965059Y4802654D02*
X9964849Y4781359D01*
X9964849Y4781359D02*
X9960464Y4768624D01*
X9960464Y4768624D02*
X9947520Y4751714D01*
X9947520Y4751714D02*
X9896160Y4726664D01*
X9896160Y4726664D02*
X9874865Y4726874D01*
X9874865Y4726874D02*
X9862130Y4731259D01*
X10005364Y5002447D02*
X10022484Y5010797D01*
X10022484Y5010797D02*
X10043779Y5010587D01*
X10043779Y5010587D02*
X10056514Y5006202D01*
X10056514Y5006202D02*
X10073424Y4993257D01*
X10073424Y4993257D02*
X10098683Y4963192D01*
X10098683Y4963192D02*
X10119558Y4920393D01*
X10119558Y4920393D02*
X10127698Y4881978D01*
X10127698Y4881978D02*
X10127488Y4860683D01*
X10127488Y4860683D02*
X10123103Y4847948D01*
X10123103Y4847948D02*
X10110158Y4831038D01*
X10110158Y4831038D02*
X10093038Y4822688D01*
X10093038Y4822688D02*
X10071744Y4822898D01*
X10071744Y4822898D02*
X10059009Y4827283D01*
X10059009Y4827283D02*
X10042099Y4840228D01*
X10042099Y4840228D02*
X10016839Y4870293D01*
X10016839Y4870293D02*
X9995964Y4913093D01*
X9995964Y4913093D02*
X9987824Y4951507D01*
X9987824Y4951507D02*
X9988034Y4972802D01*
X9988034Y4972802D02*
X9992419Y4985537D01*
X9992419Y4985537D02*
X10005364Y5002447D01*
X-11171826Y-1264616D02*
X-11192732Y-1065712D01*
X-11192732Y-1065712D02*
X-11145374Y-1060734D01*
X-11145374Y-1060734D02*
X-11115964Y-1067219D01*
X-11115964Y-1067219D02*
X-11095029Y-1084172D01*
X-11095029Y-1084172D02*
X-11083567Y-1102119D01*
X-11083567Y-1102119D02*
X-11070113Y-1139010D01*
X-11070113Y-1139010D02*
X-11067126Y-1167425D01*
X-11067126Y-1167425D02*
X-11072616Y-1206307D01*
X-11072616Y-1206307D02*
X-11080097Y-1226246D01*
X-11080097Y-1226246D02*
X-11097049Y-1247180D01*
X-11097049Y-1247180D02*
X-11124468Y-1259639D01*
X-11124468Y-1259639D02*
X-11171826Y-1264616D01*
X-11012771Y-1046797D02*
X-10880168Y-1032860D01*
X-10880168Y-1032860D02*
X-10944507Y-1240724D01*
X-10766509Y-1020914D02*
X-10747565Y-1018923D01*
X-10747565Y-1018923D02*
X-10727627Y-1026403D01*
X-10727627Y-1026403D02*
X-10717159Y-1034880D01*
X-10717159Y-1034880D02*
X-10705697Y-1052827D01*
X-10705697Y-1052827D02*
X-10692243Y-1089718D01*
X-10692243Y-1089718D02*
X-10687266Y-1137077D01*
X-10687266Y-1137077D02*
X-10692755Y-1175959D01*
X-10692755Y-1175959D02*
X-10700236Y-1195897D01*
X-10700236Y-1195897D02*
X-10708712Y-1206365D01*
X-10708712Y-1206365D02*
X-10726660Y-1217827D01*
X-10726660Y-1217827D02*
X-10745603Y-1219818D01*
X-10745603Y-1219818D02*
X-10765542Y-1212338D01*
X-10765542Y-1212338D02*
X-10776009Y-1203862D01*
X-10776009Y-1203862D02*
X-10787472Y-1185914D01*
X-10787472Y-1185914D02*
X-10800925Y-1149023D01*
X-10800925Y-1149023D02*
X-10805903Y-1101665D01*
X-10805903Y-1101665D02*
X-10800413Y-1062782D01*
X-10800413Y-1062782D02*
X-10792933Y-1042844D01*
X-10792933Y-1042844D02*
X-10784456Y-1032377D01*
X-10784456Y-1032377D02*
X-10766509Y-1020914D01*
X-2425451Y10978453D02*
X-2229822Y11020036D01*
X-2229822Y11020036D02*
X-2219921Y10973457D01*
X-2219921Y10973457D02*
X-2223296Y10943530D01*
X-2223296Y10943530D02*
X-2237967Y10920938D01*
X-2237967Y10920938D02*
X-2254619Y10907662D01*
X-2254619Y10907662D02*
X-2289901Y10890426D01*
X-2289901Y10890426D02*
X-2317848Y10884486D01*
X-2317848Y10884486D02*
X-2357091Y10885881D01*
X-2357091Y10885881D02*
X-2377703Y10891237D01*
X-2377703Y10891237D02*
X-2400294Y10905908D01*
X-2400294Y10905908D02*
X-2415551Y10931875D01*
X-2415551Y10931875D02*
X-2425451Y10978453D01*
X-2235628Y10726704D02*
X-2366048Y10698982D01*
X-2171003Y10789123D02*
X-2320639Y10806000D01*
X-2320639Y10806000D02*
X-2294898Y10684896D01*
X-2342286Y10587194D02*
X-2334366Y10549932D01*
X-2334366Y10549932D02*
X-2321090Y10533280D01*
X-2321090Y10533280D02*
X-2309794Y10525945D01*
X-2309794Y10525945D02*
X-2277887Y10513254D01*
X-2277887Y10513254D02*
X-2238644Y10511858D01*
X-2238644Y10511858D02*
X-2164119Y10527699D01*
X-2164119Y10527699D02*
X-2147467Y10540975D01*
X-2147467Y10540975D02*
X-2140132Y10552271D01*
X-2140132Y10552271D02*
X-2134776Y10572883D01*
X-2134776Y10572883D02*
X-2142697Y10610145D01*
X-2142697Y10610145D02*
X-2155973Y10626797D01*
X-2155973Y10626797D02*
X-2167268Y10634132D01*
X-2167268Y10634132D02*
X-2187880Y10639488D01*
X-2187880Y10639488D02*
X-2234458Y10629587D01*
X-2234458Y10629587D02*
X-2251110Y10616311D01*
X-2251110Y10616311D02*
X-2258445Y10605015D01*
X-2258445Y10605015D02*
X-2263801Y10584404D01*
X-2263801Y10584404D02*
X-2255880Y10547141D01*
X-2255880Y10547141D02*
X-2242604Y10530490D01*
X-2242604Y10530490D02*
X-2231309Y10523154D01*
X-2231309Y10523154D02*
X-2210697Y10517799D01*
X7407811Y-7800469D02*
X7551679Y-7661537D01*
X7551679Y-7661537D02*
X7584758Y-7695792D01*
X7584758Y-7695792D02*
X7597755Y-7722960D01*
X7597755Y-7722960D02*
X7597284Y-7749893D01*
X7597284Y-7749893D02*
X7590199Y-7769976D01*
X7590199Y-7769976D02*
X7569411Y-7803290D01*
X7569411Y-7803290D02*
X7548858Y-7823137D01*
X7548858Y-7823137D02*
X7514839Y-7842750D01*
X7514839Y-7842750D02*
X7494522Y-7849130D01*
X7494522Y-7849130D02*
X7467588Y-7848660D01*
X7467588Y-7848660D02*
X7440890Y-7834723D01*
X7440890Y-7834723D02*
X7407811Y-7800469D01*
X7619517Y-8019697D02*
X7540127Y-7937486D01*
X7579822Y-7978591D02*
X7723690Y-7839660D01*
X7723690Y-7839660D02*
X7689906Y-7845805D01*
X7689906Y-7845805D02*
X7662972Y-7845335D01*
X7662972Y-7845335D02*
X7642890Y-7838249D01*
X7802609Y-7948803D02*
X7816076Y-7949038D01*
X7816076Y-7949038D02*
X7836158Y-7956124D01*
X7836158Y-7956124D02*
X7869237Y-7990378D01*
X7869237Y-7990378D02*
X7875618Y-8010696D01*
X7875618Y-8010696D02*
X7875383Y-8024163D01*
X7875383Y-8024163D02*
X7868297Y-8044245D01*
X7868297Y-8044245D02*
X7854595Y-8057477D01*
X7854595Y-8057477D02*
X7827427Y-8070473D01*
X7827427Y-8070473D02*
X7665827Y-8067652D01*
X7665827Y-8067652D02*
X7751832Y-8156713D01*
X-9691658Y-5699304D02*
X-9791658Y-5526099D01*
X-9791658Y-5526099D02*
X-9750419Y-5502290D01*
X-9750419Y-5502290D02*
X-9720913Y-5496252D01*
X-9720913Y-5496252D02*
X-9694894Y-5503224D01*
X-9694894Y-5503224D02*
X-9677122Y-5514958D01*
X-9677122Y-5514958D02*
X-9649826Y-5543187D01*
X-9649826Y-5543187D02*
X-9635541Y-5567931D01*
X-9635541Y-5567931D02*
X-9624741Y-5605684D01*
X-9624741Y-5605684D02*
X-9623465Y-5626942D01*
X-9623465Y-5626942D02*
X-9630437Y-5652961D01*
X-9630437Y-5652961D02*
X-9650419Y-5675495D01*
X-9650419Y-5675495D02*
X-9691658Y-5699304D01*
X-9634949Y-5435623D02*
X-9519478Y-5368956D01*
X-9519478Y-5368956D02*
X-9493709Y-5585019D01*
X-9379265Y-5288004D02*
X-9412256Y-5307052D01*
X-9412256Y-5307052D02*
X-9423990Y-5324823D01*
X-9423990Y-5324823D02*
X-9427476Y-5337833D01*
X-9427476Y-5337833D02*
X-9429686Y-5372101D01*
X-9429686Y-5372101D02*
X-9418886Y-5409854D01*
X-9418886Y-5409854D02*
X-9380791Y-5475837D01*
X-9380791Y-5475837D02*
X-9363020Y-5487571D01*
X-9363020Y-5487571D02*
X-9350010Y-5491057D01*
X-9350010Y-5491057D02*
X-9328752Y-5489781D01*
X-9328752Y-5489781D02*
X-9295761Y-5470733D01*
X-9295761Y-5470733D02*
X-9284027Y-5452961D01*
X-9284027Y-5452961D02*
X-9280541Y-5439952D01*
X-9280541Y-5439952D02*
X-9281817Y-5418694D01*
X-9281817Y-5418694D02*
X-9305626Y-5377455D01*
X-9305626Y-5377455D02*
X-9323398Y-5365721D01*
X-9323398Y-5365721D02*
X-9336408Y-5362235D01*
X-9336408Y-5362235D02*
X-9357665Y-5363511D01*
X-9357665Y-5363511D02*
X-9390657Y-5382558D01*
X-9390657Y-5382558D02*
X-9402391Y-5400330D01*
X-9402391Y-5400330D02*
X-9405877Y-5413340D01*
X-9405877Y-5413340D02*
X-9404601Y-5434597D01*
X2324465Y10503353D02*
X2128836Y10544936D01*
X2128836Y10544936D02*
X2138736Y10591514D01*
X2138736Y10591514D02*
X2153993Y10617481D01*
X2153993Y10617481D02*
X2176584Y10632152D01*
X2176584Y10632152D02*
X2197196Y10637508D01*
X2197196Y10637508D02*
X2236438Y10638903D01*
X2236438Y10638903D02*
X2264386Y10632963D01*
X2264386Y10632963D02*
X2299668Y10615727D01*
X2299668Y10615727D02*
X2316319Y10602451D01*
X2316319Y10602451D02*
X2330991Y10579859D01*
X2330991Y10579859D02*
X2334366Y10549932D01*
X2334366Y10549932D02*
X2324465Y10503353D01*
X2253449Y10810546D02*
X2383869Y10782824D01*
X2169023Y10779808D02*
X2298858Y10703528D01*
X2298858Y10703528D02*
X2324599Y10824632D01*
X2206060Y10908247D02*
X2231802Y11029351D01*
X2231802Y11029351D02*
X2292466Y10948301D01*
X2292466Y10948301D02*
X2298407Y10976248D01*
X2298407Y10976248D02*
X2311683Y10992899D01*
X2311683Y10992899D02*
X2322978Y11000235D01*
X2322978Y11000235D02*
X2343590Y11005590D01*
X2343590Y11005590D02*
X2390168Y10995690D01*
X2390168Y10995690D02*
X2406820Y10982414D01*
X2406820Y10982414D02*
X2414155Y10971118D01*
X2414155Y10971118D02*
X2419511Y10950506D01*
X2419511Y10950506D02*
X2407630Y10894612D01*
X2407630Y10894612D02*
X2394354Y10877961D01*
X2394354Y10877961D02*
X2383058Y10870625D01*
X10578117Y-1956485D02*
X10612847Y-1759524D01*
X10612847Y-1759524D02*
X10659742Y-1767793D01*
X10659742Y-1767793D02*
X10686226Y-1782133D01*
X10686226Y-1782133D02*
X10701676Y-1804199D01*
X10701676Y-1804199D02*
X10707748Y-1824611D01*
X10707748Y-1824611D02*
X10710512Y-1863782D01*
X10710512Y-1863782D02*
X10705551Y-1891919D01*
X10705551Y-1891919D02*
X10689556Y-1927782D01*
X10689556Y-1927782D02*
X10676870Y-1944886D01*
X10676870Y-1944886D02*
X10654804Y-1960337D01*
X10654804Y-1960337D02*
X10625013Y-1964754D01*
X10625013Y-1964754D02*
X10578117Y-1956485D01*
X10797121Y-1811358D02*
X10808154Y-1803633D01*
X10808154Y-1803633D02*
X10828566Y-1797561D01*
X10828566Y-1797561D02*
X10875462Y-1805830D01*
X10875462Y-1805830D02*
X10892566Y-1818517D01*
X10892566Y-1818517D02*
X10900292Y-1829550D01*
X10900292Y-1829550D02*
X10906363Y-1849962D01*
X10906363Y-1849962D02*
X10903056Y-1868720D01*
X10903056Y-1868720D02*
X10888715Y-1895204D01*
X10888715Y-1895204D02*
X10756320Y-1987908D01*
X10756320Y-1987908D02*
X10878249Y-2009407D01*
X11065831Y-2042483D02*
X10953282Y-2022637D01*
X11009556Y-2032560D02*
X11044286Y-1835598D01*
X11044286Y-1835598D02*
X11020566Y-1860428D01*
X11020566Y-1860428D02*
X10998501Y-1875879D01*
X10998501Y-1875879D02*
X10978089Y-1881950D01*
X-11190626Y1085754D02*
X-11169720Y1284658D01*
X-11169720Y1284658D02*
X-11122362Y1279681D01*
X-11122362Y1279681D02*
X-11094942Y1267222D01*
X-11094942Y1267222D02*
X-11077990Y1246288D01*
X-11077990Y1246288D02*
X-11070509Y1226349D01*
X-11070509Y1226349D02*
X-11065020Y1187467D01*
X-11065020Y1187467D02*
X-11068006Y1159052D01*
X-11068006Y1159052D02*
X-11081460Y1122161D01*
X-11081460Y1122161D02*
X-11092923Y1104214D01*
X-11092923Y1104214D02*
X-11113857Y1087261D01*
X-11113857Y1087261D02*
X-11143267Y1080776D01*
X-11143267Y1080776D02*
X-11190626Y1085754D01*
X-10885571Y1254793D02*
X-10923457Y1258775D01*
X-10923457Y1258775D02*
X-10943396Y1251294D01*
X-10943396Y1251294D02*
X-10953863Y1242818D01*
X-10953863Y1242818D02*
X-10975793Y1216394D01*
X-10975793Y1216394D02*
X-10989247Y1179503D01*
X-10989247Y1179503D02*
X-10997211Y1103730D01*
X-10997211Y1103730D02*
X-10989730Y1083791D01*
X-10989730Y1083791D02*
X-10981254Y1073324D01*
X-10981254Y1073324D02*
X-10963306Y1061862D01*
X-10963306Y1061862D02*
X-10925420Y1057880D01*
X-10925420Y1057880D02*
X-10905481Y1065360D01*
X-10905481Y1065360D02*
X-10895014Y1073836D01*
X-10895014Y1073836D02*
X-10883551Y1091784D01*
X-10883551Y1091784D02*
X-10878574Y1139142D01*
X-10878574Y1139142D02*
X-10886054Y1159081D01*
X-10886054Y1159081D02*
X-10894530Y1169548D01*
X-10894530Y1169548D02*
X-10912478Y1181011D01*
X-10912478Y1181011D02*
X-10950365Y1184993D01*
X-10950365Y1184993D02*
X-10970304Y1177512D01*
X-10970304Y1177512D02*
X-10980771Y1169036D01*
X-10980771Y1169036D02*
X-10992233Y1151088D01*
X-10800326Y1245833D02*
X-10667723Y1231896D01*
X-10667723Y1231896D02*
X-10773874Y1041951D01*
X-873945Y11209192D02*
X-674432Y11223143D01*
X-674432Y11223143D02*
X-671111Y11175640D01*
X-671111Y11175640D02*
X-678618Y11146474D01*
X-678618Y11146474D02*
X-696291Y11126144D01*
X-696291Y11126144D02*
X-714628Y11115315D01*
X-714628Y11115315D02*
X-751966Y11103157D01*
X-751966Y11103157D02*
X-780467Y11101164D01*
X-780467Y11101164D02*
X-819134Y11108007D01*
X-819134Y11108007D02*
X-838800Y11116179D01*
X-838800Y11116179D02*
X-859130Y11133852D01*
X-859130Y11133852D02*
X-870623Y11161689D01*
X-870623Y11161689D02*
X-873945Y11209192D01*
X-721006Y10933475D02*
X-854015Y10924174D01*
X-648323Y10986292D02*
X-794154Y11023830D01*
X-794154Y11023830D02*
X-785517Y10900322D01*
X-648523Y10852620D02*
X-639222Y10719611D01*
X-639222Y10719611D02*
X-844714Y10791165D01*
X-5881534Y-9582106D02*
X-6051144Y-9476122D01*
X-6051144Y-9476122D02*
X-6025910Y-9435739D01*
X-6025910Y-9435739D02*
X-6002693Y-9416556D01*
X-6002693Y-9416556D02*
X-5976446Y-9410496D01*
X-5976446Y-9410496D02*
X-5955245Y-9412513D01*
X-5955245Y-9412513D02*
X-5917892Y-9424624D01*
X-5917892Y-9424624D02*
X-5893662Y-9439765D01*
X-5893662Y-9439765D02*
X-5866402Y-9468029D01*
X-5866402Y-9468029D02*
X-5855296Y-9486199D01*
X-5855296Y-9486199D02*
X-5849236Y-9512446D01*
X-5849236Y-9512446D02*
X-5856300Y-9541723D01*
X-5856300Y-9541723D02*
X-5881534Y-9582106D01*
X-5857330Y-9327704D02*
X-5875500Y-9338811D01*
X-5875500Y-9338811D02*
X-5888624Y-9341841D01*
X-5888624Y-9341841D02*
X-5909824Y-9339824D01*
X-5909824Y-9339824D02*
X-5917900Y-9334777D01*
X-5917900Y-9334777D02*
X-5929007Y-9316606D01*
X-5929007Y-9316606D02*
X-5932037Y-9303483D01*
X-5932037Y-9303483D02*
X-5930020Y-9282283D01*
X-5930020Y-9282283D02*
X-5909832Y-9249976D01*
X-5909832Y-9249976D02*
X-5891662Y-9238870D01*
X-5891662Y-9238870D02*
X-5878538Y-9235840D01*
X-5878538Y-9235840D02*
X-5857338Y-9237857D01*
X-5857338Y-9237857D02*
X-5849262Y-9242904D01*
X-5849262Y-9242904D02*
X-5838155Y-9261074D01*
X-5838155Y-9261074D02*
X-5835125Y-9274198D01*
X-5835125Y-9274198D02*
X-5837142Y-9295398D01*
X-5837142Y-9295398D02*
X-5857330Y-9327704D01*
X-5857330Y-9327704D02*
X-5859347Y-9348905D01*
X-5859347Y-9348905D02*
X-5856317Y-9362028D01*
X-5856317Y-9362028D02*
X-5845211Y-9380198D01*
X-5845211Y-9380198D02*
X-5812904Y-9400386D01*
X-5812904Y-9400386D02*
X-5791704Y-9402403D01*
X-5791704Y-9402403D02*
X-5778580Y-9399373D01*
X-5778580Y-9399373D02*
X-5760410Y-9388267D01*
X-5760410Y-9388267D02*
X-5740223Y-9355960D01*
X-5740223Y-9355960D02*
X-5738206Y-9334760D01*
X-5738206Y-9334760D02*
X-5741235Y-9321636D01*
X-5741235Y-9321636D02*
X-5752342Y-9303466D01*
X-5752342Y-9303466D02*
X-5784648Y-9283279D01*
X-5784648Y-9283279D02*
X-5805848Y-9281262D01*
X-5805848Y-9281262D02*
X-5818972Y-9284291D01*
X-5818972Y-9284291D02*
X-5837142Y-9295398D01*
X-5854317Y-9161133D02*
X-5788708Y-9056137D01*
X-5788708Y-9056137D02*
X-5759423Y-9153048D01*
X-5759423Y-9153048D02*
X-5744282Y-9128818D01*
X-5744282Y-9128818D02*
X-5726112Y-9117712D01*
X-5726112Y-9117712D02*
X-5712988Y-9114682D01*
X-5712988Y-9114682D02*
X-5691788Y-9116699D01*
X-5691788Y-9116699D02*
X-5651405Y-9141933D01*
X-5651405Y-9141933D02*
X-5640298Y-9160104D01*
X-5640298Y-9160104D02*
X-5637269Y-9173227D01*
X-5637269Y-9173227D02*
X-5639286Y-9194427D01*
X-5639286Y-9194427D02*
X-5669567Y-9242887D01*
X-5669567Y-9242887D02*
X-5687737Y-9253994D01*
X-5687737Y-9253994D02*
X-5700861Y-9257023D01*
X-694536Y-11221738D02*
X-894048Y-11207786D01*
X-894048Y-11207786D02*
X-890727Y-11160283D01*
X-890727Y-11160283D02*
X-879233Y-11132446D01*
X-879233Y-11132446D02*
X-858903Y-11114773D01*
X-858903Y-11114773D02*
X-839238Y-11106601D01*
X-839238Y-11106601D02*
X-800571Y-11099758D01*
X-800571Y-11099758D02*
X-772069Y-11101751D01*
X-772069Y-11101751D02*
X-734731Y-11113909D01*
X-734731Y-11113909D02*
X-716394Y-11124738D01*
X-716394Y-11124738D02*
X-698721Y-11145068D01*
X-698721Y-11145068D02*
X-691214Y-11174235D01*
X-691214Y-11174235D02*
X-694536Y-11221738D01*
X-679920Y-11012724D02*
X-677263Y-10974722D01*
X-677263Y-10974722D02*
X-685434Y-10955056D01*
X-685434Y-10955056D02*
X-694271Y-10944891D01*
X-694271Y-10944891D02*
X-721444Y-10923897D01*
X-721444Y-10923897D02*
X-758782Y-10911739D01*
X-758782Y-10911739D02*
X-834787Y-10906424D01*
X-834787Y-10906424D02*
X-854452Y-10914596D01*
X-854452Y-10914596D02*
X-864617Y-10923432D01*
X-864617Y-10923432D02*
X-875447Y-10941769D01*
X-875447Y-10941769D02*
X-878104Y-10979772D01*
X-878104Y-10979772D02*
X-869932Y-10999437D01*
X-869932Y-10999437D02*
X-861096Y-11009602D01*
X-861096Y-11009602D02*
X-842759Y-11020432D01*
X-842759Y-11020432D02*
X-795256Y-11023753D01*
X-795256Y-11023753D02*
X-775590Y-11015581D01*
X-775590Y-11015581D02*
X-765425Y-11006745D01*
X-765425Y-11006745D02*
X-754596Y-10988408D01*
X-754596Y-10988408D02*
X-751939Y-10950406D01*
X-751939Y-10950406D02*
X-760111Y-10930740D01*
X-760111Y-10930740D02*
X-768947Y-10920575D01*
X-768947Y-10920575D02*
X-787284Y-10909746D01*
X-864153Y-10780259D02*
X-862824Y-10761258D01*
X-862824Y-10761258D02*
X-851995Y-10742921D01*
X-851995Y-10742921D02*
X-841830Y-10734085D01*
X-841830Y-10734085D02*
X-822164Y-10725913D01*
X-822164Y-10725913D02*
X-783497Y-10719070D01*
X-783497Y-10719070D02*
X-735994Y-10722391D01*
X-735994Y-10722391D02*
X-698656Y-10734549D01*
X-698656Y-10734549D02*
X-680319Y-10745379D01*
X-680319Y-10745379D02*
X-671483Y-10755544D01*
X-671483Y-10755544D02*
X-663311Y-10775209D01*
X-663311Y-10775209D02*
X-664640Y-10794210D01*
X-664640Y-10794210D02*
X-675469Y-10812547D01*
X-675469Y-10812547D02*
X-685634Y-10821384D01*
X-685634Y-10821384D02*
X-705300Y-10829555D01*
X-705300Y-10829555D02*
X-743967Y-10836399D01*
X-743967Y-10836399D02*
X-791470Y-10833077D01*
X-791470Y-10833077D02*
X-828808Y-10820919D01*
X-828808Y-10820919D02*
X-847145Y-10810090D01*
X-847145Y-10810090D02*
X-855981Y-10799925D01*
X-855981Y-10799925D02*
X-864153Y-10780259D01*
D11*
X4780952Y826109D02*
X4780952Y1230871D01*
X4780952Y1230871D02*
X4757142Y1278490D01*
X4757142Y1278490D02*
X4733333Y1302300D01*
X4733333Y1302300D02*
X4685714Y1326109D01*
X4685714Y1326109D02*
X4590476Y1326109D01*
X4590476Y1326109D02*
X4542857Y1302300D01*
X4542857Y1302300D02*
X4519047Y1278490D01*
X4519047Y1278490D02*
X4495238Y1230871D01*
X4495238Y1230871D02*
X4495238Y826109D01*
X4304761Y826109D02*
X3995237Y826109D01*
X3995237Y826109D02*
X4161904Y1016585D01*
X4161904Y1016585D02*
X4090475Y1016585D01*
X4090475Y1016585D02*
X4042856Y1040395D01*
X4042856Y1040395D02*
X4019047Y1064204D01*
X4019047Y1064204D02*
X3995237Y1111823D01*
X3995237Y1111823D02*
X3995237Y1230871D01*
X3995237Y1230871D02*
X4019047Y1278490D01*
X4019047Y1278490D02*
X4042856Y1302300D01*
X4042856Y1302300D02*
X4090475Y1326109D01*
X4090475Y1326109D02*
X4233332Y1326109D01*
X4233332Y1326109D02*
X4280951Y1302300D01*
X4280951Y1302300D02*
X4304761Y1278490D01*
D10*
X9360941Y5300695D02*
X9260941Y5473900D01*
X9260941Y5473900D02*
X9302180Y5497709D01*
X9302180Y5497709D02*
X9331686Y5503747D01*
X9331686Y5503747D02*
X9357705Y5496775D01*
X9357705Y5496775D02*
X9375477Y5485041D01*
X9375477Y5485041D02*
X9402773Y5456812D01*
X9402773Y5456812D02*
X9417058Y5432068D01*
X9417058Y5432068D02*
X9427858Y5394315D01*
X9427858Y5394315D02*
X9429134Y5373057D01*
X9429134Y5373057D02*
X9422162Y5347038D01*
X9422162Y5347038D02*
X9402180Y5324504D01*
X9402180Y5324504D02*
X9360941Y5300695D01*
X9417650Y5564376D02*
X9524873Y5626281D01*
X9524873Y5626281D02*
X9505233Y5526965D01*
X9505233Y5526965D02*
X9529976Y5541250D01*
X9529976Y5541250D02*
X9551234Y5542526D01*
X9551234Y5542526D02*
X9564244Y5539040D01*
X9564244Y5539040D02*
X9582016Y5527306D01*
X9582016Y5527306D02*
X9605825Y5486067D01*
X9605825Y5486067D02*
X9607101Y5464809D01*
X9607101Y5464809D02*
X9603615Y5451800D01*
X9603615Y5451800D02*
X9591881Y5434028D01*
X9591881Y5434028D02*
X9542394Y5405457D01*
X9542394Y5405457D02*
X9521136Y5404181D01*
X9521136Y5404181D02*
X9508127Y5407667D01*
X9789830Y5548314D02*
X9690855Y5491171D01*
X9740343Y5519742D02*
X9640343Y5692947D01*
X9640343Y5692947D02*
X9638133Y5658680D01*
X9638133Y5658680D02*
X9631161Y5632660D01*
X9631161Y5632660D02*
X9619427Y5614889D01*
X-3185380Y10782562D02*
X-2993128Y10837690D01*
X-2993128Y10837690D02*
X-2980002Y10791915D01*
X-2980002Y10791915D02*
X-2981282Y10761826D01*
X-2981282Y10761826D02*
X-2994341Y10738266D01*
X-2994341Y10738266D02*
X-3010026Y10723861D01*
X-3010026Y10723861D02*
X-3044020Y10704205D01*
X-3044020Y10704205D02*
X-3071485Y10696330D01*
X-3071485Y10696330D02*
X-3110730Y10694984D01*
X-3110730Y10694984D02*
X-3131664Y10698889D01*
X-3131664Y10698889D02*
X-3155224Y10711948D01*
X-3155224Y10711948D02*
X-3172255Y10736788D01*
X-3172255Y10736788D02*
X-3185380Y10782562D01*
X-2911749Y10553889D02*
X-2938000Y10645437D01*
X-2938000Y10645437D02*
X-3032174Y10628341D01*
X-3032174Y10628341D02*
X-3020394Y10621811D01*
X-3020394Y10621811D02*
X-3005989Y10606127D01*
X-3005989Y10606127D02*
X-2992864Y10560352D01*
X-2992864Y10560352D02*
X-2996768Y10539417D01*
X-2996768Y10539417D02*
X-3003298Y10527637D01*
X-3003298Y10527637D02*
X-3018983Y10513232D01*
X-3018983Y10513232D02*
X-3064757Y10500107D01*
X-3064757Y10500107D02*
X-3085692Y10504011D01*
X-3085692Y10504011D02*
X-3097472Y10510541D01*
X-3097472Y10510541D02*
X-3111877Y10526226D01*
X-3111877Y10526226D02*
X-3125003Y10572000D01*
X-3125003Y10572000D02*
X-3121098Y10592935D01*
X-3121098Y10592935D02*
X-3114568Y10604715D01*
X-2874998Y10425721D02*
X-2869747Y10407411D01*
X-2869747Y10407411D02*
X-2873652Y10386476D01*
X-2873652Y10386476D02*
X-2880182Y10374696D01*
X-2880182Y10374696D02*
X-2895866Y10360291D01*
X-2895866Y10360291D02*
X-2929861Y10340636D01*
X-2929861Y10340636D02*
X-2975635Y10327510D01*
X-2975635Y10327510D02*
X-3014880Y10326164D01*
X-3014880Y10326164D02*
X-3035815Y10330069D01*
X-3035815Y10330069D02*
X-3047595Y10336599D01*
X-3047595Y10336599D02*
X-3062000Y10352283D01*
X-3062000Y10352283D02*
X-3067250Y10370593D01*
X-3067250Y10370593D02*
X-3063345Y10391528D01*
X-3063345Y10391528D02*
X-3056816Y10403308D01*
X-3056816Y10403308D02*
X-3041131Y10417713D01*
X-3041131Y10417713D02*
X-3007137Y10437368D01*
X-3007137Y10437368D02*
X-2961362Y10450494D01*
X-2961362Y10450494D02*
X-2922118Y10451840D01*
X-2922118Y10451840D02*
X-2901183Y10447935D01*
X-2901183Y10447935D02*
X-2889403Y10441405D01*
X-2889403Y10441405D02*
X-2874998Y10425721D01*
X-3929762Y10534055D02*
X-3741824Y10602459D01*
X-3741824Y10602459D02*
X-3725537Y10557711D01*
X-3725537Y10557711D02*
X-3724714Y10527606D01*
X-3724714Y10527606D02*
X-3736099Y10503192D01*
X-3736099Y10503192D02*
X-3750740Y10487728D01*
X-3750740Y10487728D02*
X-3783281Y10465749D01*
X-3783281Y10465749D02*
X-3810129Y10455977D01*
X-3810129Y10455977D02*
X-3849184Y10451897D01*
X-3849184Y10451897D02*
X-3870341Y10454332D01*
X-3870341Y10454332D02*
X-3894754Y10465716D01*
X-3894754Y10465716D02*
X-3913476Y10489307D01*
X-3913476Y10489307D02*
X-3929762Y10534055D01*
X-3640846Y10325026D02*
X-3673420Y10414520D01*
X-3673420Y10414520D02*
X-3766172Y10390896D01*
X-3766172Y10390896D02*
X-3753965Y10385204D01*
X-3753965Y10385204D02*
X-3738501Y10370563D01*
X-3738501Y10370563D02*
X-3722214Y10325815D01*
X-3722214Y10325815D02*
X-3724649Y10304659D01*
X-3724649Y10304659D02*
X-3730341Y10292452D01*
X-3730341Y10292452D02*
X-3744982Y10276988D01*
X-3744982Y10276988D02*
X-3789730Y10260701D01*
X-3789730Y10260701D02*
X-3810886Y10263136D01*
X-3810886Y10263136D02*
X-3823093Y10268828D01*
X-3823093Y10268828D02*
X-3838557Y10283470D01*
X-3838557Y10283470D02*
X-3854844Y10328217D01*
X-3854844Y10328217D02*
X-3852409Y10349373D01*
X-3852409Y10349373D02*
X-3846717Y10361580D01*
X-3760381Y10068683D02*
X-3799469Y10176077D01*
X-3779925Y10122380D02*
X-3591986Y10190784D01*
X-3591986Y10190784D02*
X-3625349Y10198911D01*
X-3625349Y10198911D02*
X-3649763Y10210295D01*
X-3649763Y10210295D02*
X-3665227Y10224937D01*
X8968347Y5940745D02*
X8856508Y6106553D01*
X8856508Y6106553D02*
X8895986Y6133181D01*
X8895986Y6133181D02*
X8924999Y6141262D01*
X8924999Y6141262D02*
X8951441Y6136123D01*
X8951441Y6136123D02*
X8969988Y6125657D01*
X8969988Y6125657D02*
X8999186Y6099400D01*
X8999186Y6099400D02*
X9015163Y6075714D01*
X9015163Y6075714D02*
X9028570Y6038805D01*
X9028570Y6038805D02*
X9031326Y6017689D01*
X9031326Y6017689D02*
X9026186Y5991246D01*
X9026186Y5991246D02*
X9007825Y5967374D01*
X9007825Y5967374D02*
X8968347Y5940745D01*
X9006524Y6207740D02*
X9109167Y6276974D01*
X9109167Y6276974D02*
X9096503Y6176529D01*
X9096503Y6176529D02*
X9120190Y6192506D01*
X9120190Y6192506D02*
X9141307Y6195262D01*
X9141307Y6195262D02*
X9154528Y6192692D01*
X9154528Y6192692D02*
X9173075Y6182226D01*
X9173075Y6182226D02*
X9199703Y6142748D01*
X9199703Y6142748D02*
X9202459Y6121632D01*
X9202459Y6121632D02*
X9199889Y6108410D01*
X9199889Y6108410D02*
X9189423Y6089864D01*
X9189423Y6089864D02*
X9142050Y6057910D01*
X9142050Y6057910D02*
X9120933Y6055154D01*
X9120933Y6055154D02*
X9107712Y6057724D01*
X9182983Y6303787D02*
X9185553Y6317009D01*
X9185553Y6317009D02*
X9196019Y6335556D01*
X9196019Y6335556D02*
X9235497Y6362184D01*
X9235497Y6362184D02*
X9256613Y6364940D01*
X9256613Y6364940D02*
X9269835Y6362370D01*
X9269835Y6362370D02*
X9288382Y6351904D01*
X9288382Y6351904D02*
X9299033Y6336113D01*
X9299033Y6336113D02*
X9307114Y6307100D01*
X9307114Y6307100D02*
X9276275Y6148446D01*
X9276275Y6148446D02*
X9378918Y6217679D01*
X4457470Y9790563D02*
X4274761Y9871911D01*
X4274761Y9871911D02*
X4294129Y9915413D01*
X4294129Y9915413D02*
X4314451Y9937640D01*
X4314451Y9937640D02*
X4339599Y9947294D01*
X4339599Y9947294D02*
X4360874Y9948247D01*
X4360874Y9948247D02*
X4399549Y9941453D01*
X4399549Y9941453D02*
X4425650Y9929832D01*
X4425650Y9929832D02*
X4456579Y9905636D01*
X4456579Y9905636D02*
X4470106Y9889189D01*
X4470106Y9889189D02*
X4479759Y9864040D01*
X4479759Y9864040D02*
X4476839Y9834065D01*
X4476839Y9834065D02*
X4457470Y9790563D01*
X4451875Y10105808D02*
X4573681Y10051576D01*
X4362903Y10093295D02*
X4474041Y9991688D01*
X4474041Y9991688D02*
X4524399Y10104793D01*
X4449077Y10263430D02*
X4456824Y10280831D01*
X4456824Y10280831D02*
X4473272Y10294358D01*
X4473272Y10294358D02*
X4485846Y10299185D01*
X4485846Y10299185D02*
X4507121Y10300138D01*
X4507121Y10300138D02*
X4545796Y10293344D01*
X4545796Y10293344D02*
X4589298Y10273975D01*
X4589298Y10273975D02*
X4620226Y10249780D01*
X4620226Y10249780D02*
X4633753Y10233332D01*
X4633753Y10233332D02*
X4638580Y10220758D01*
X4638580Y10220758D02*
X4639533Y10199483D01*
X4639533Y10199483D02*
X4631786Y10182083D01*
X4631786Y10182083D02*
X4615338Y10168555D01*
X4615338Y10168555D02*
X4602764Y10163729D01*
X4602764Y10163729D02*
X4581489Y10162776D01*
X4581489Y10162776D02*
X4542814Y10169570D01*
X4542814Y10169570D02*
X4499312Y10188938D01*
X4499312Y10188938D02*
X4468384Y10213134D01*
X4468384Y10213134D02*
X4454857Y10229581D01*
X4454857Y10229581D02*
X4450030Y10242155D01*
X4450030Y10242155D02*
X4449077Y10263430D01*
X10609347Y1779370D02*
X10574618Y1976332D01*
X10574618Y1976332D02*
X10621513Y1984601D01*
X10621513Y1984601D02*
X10651304Y1980183D01*
X10651304Y1980183D02*
X10673370Y1964732D01*
X10673370Y1964732D02*
X10686057Y1947628D01*
X10686057Y1947628D02*
X10702051Y1911765D01*
X10702051Y1911765D02*
X10707013Y1883628D01*
X10707013Y1883628D02*
X10704249Y1844457D01*
X10704249Y1844457D02*
X10698177Y1824045D01*
X10698177Y1824045D02*
X10682726Y1801980D01*
X10682726Y1801980D02*
X10656243Y1787639D01*
X10656243Y1787639D02*
X10609347Y1779370D01*
X10765508Y1990649D02*
X10773233Y2001682D01*
X10773233Y2001682D02*
X10790337Y2014369D01*
X10790337Y2014369D02*
X10837233Y2022638D01*
X10837233Y2022638D02*
X10857645Y2016566D01*
X10857645Y2016566D02*
X10868678Y2008841D01*
X10868678Y2008841D02*
X10881365Y1991737D01*
X10881365Y1991737D02*
X10884672Y1972978D01*
X10884672Y1972978D02*
X10880254Y1943187D01*
X10880254Y1943187D02*
X10787551Y1810792D01*
X10787551Y1810792D02*
X10909479Y1832292D01*
X11043573Y2059021D02*
X11006057Y2052406D01*
X11006057Y2052406D02*
X10988953Y2039719D01*
X10988953Y2039719D02*
X10981227Y2028687D01*
X10981227Y2028687D02*
X10967430Y1997242D01*
X10967430Y1997242D02*
X10964666Y1958071D01*
X10964666Y1958071D02*
X10977897Y1883038D01*
X10977897Y1883038D02*
X10990583Y1865934D01*
X10990583Y1865934D02*
X11001616Y1858209D01*
X11001616Y1858209D02*
X11022028Y1852137D01*
X11022028Y1852137D02*
X11059545Y1858752D01*
X11059545Y1858752D02*
X11076649Y1871439D01*
X11076649Y1871439D02*
X11084375Y1882472D01*
X11084375Y1882472D02*
X11090446Y1902884D01*
X11090446Y1902884D02*
X11082177Y1949779D01*
X11082177Y1949779D02*
X11069490Y1966884D01*
X11069490Y1966884D02*
X11058458Y1974609D01*
X11058458Y1974609D02*
X11038046Y1980681D01*
X11038046Y1980681D02*
X11000529Y1974066D01*
X11000529Y1974066D02*
X10983425Y1961379D01*
X10983425Y1961379D02*
X10975699Y1950346D01*
X10975699Y1950346D02*
X10969628Y1929934D01*
X8532088Y6551921D02*
X8408956Y6709523D01*
X8408956Y6709523D02*
X8446480Y6738840D01*
X8446480Y6738840D02*
X8474858Y6748926D01*
X8474858Y6748926D02*
X8501595Y6745643D01*
X8501595Y6745643D02*
X8520827Y6736497D01*
X8520827Y6736497D02*
X8551785Y6712341D01*
X8551785Y6712341D02*
X8569376Y6689826D01*
X8569376Y6689826D02*
X8585325Y6653943D01*
X8585325Y6653943D02*
X8589547Y6633070D01*
X8589547Y6633070D02*
X8586264Y6606333D01*
X8586264Y6606333D02*
X8569613Y6581238D01*
X8569613Y6581238D02*
X8532088Y6551921D01*
X8551548Y6820928D02*
X8649112Y6897153D01*
X8649112Y6897153D02*
X8643485Y6796070D01*
X8643485Y6796070D02*
X8666000Y6813661D01*
X8666000Y6813661D02*
X8686873Y6817883D01*
X8686873Y6817883D02*
X8700241Y6816241D01*
X8700241Y6816241D02*
X8719473Y6807095D01*
X8719473Y6807095D02*
X8748790Y6769571D01*
X8748790Y6769571D02*
X8753012Y6748697D01*
X8753012Y6748697D02*
X8751371Y6735329D01*
X8751371Y6735329D02*
X8742224Y6716097D01*
X8742224Y6716097D02*
X8697195Y6680917D01*
X8697195Y6680917D02*
X8676322Y6676695D01*
X8676322Y6676695D02*
X8662954Y6678336D01*
X8701645Y6938197D02*
X8799209Y7014422D01*
X8799209Y7014422D02*
X8793582Y6913339D01*
X8793582Y6913339D02*
X8816097Y6930929D01*
X8816097Y6930929D02*
X8836970Y6935151D01*
X8836970Y6935151D02*
X8850338Y6933510D01*
X8850338Y6933510D02*
X8869570Y6924364D01*
X8869570Y6924364D02*
X8898887Y6886839D01*
X8898887Y6886839D02*
X8903109Y6865966D01*
X8903109Y6865966D02*
X8901468Y6852598D01*
X8901468Y6852598D02*
X8892322Y6833366D01*
X8892322Y6833366D02*
X8847292Y6798185D01*
X8847292Y6798185D02*
X8826419Y6793963D01*
X8826419Y6793963D02*
X8813051Y6795605D01*
X6983480Y8182658D02*
X6830271Y8311216D01*
X6830271Y8311216D02*
X6860880Y8347694D01*
X6860880Y8347694D02*
X6886541Y8363459D01*
X6886541Y8363459D02*
X6913376Y8365807D01*
X6913376Y8365807D02*
X6934089Y8360859D01*
X6934089Y8360859D02*
X6969393Y8343668D01*
X6969393Y8343668D02*
X6991280Y8325302D01*
X6991280Y8325302D02*
X7014341Y8293520D01*
X7014341Y8293520D02*
X7022811Y8273980D01*
X7022811Y8273980D02*
X7025158Y8247145D01*
X7025158Y8247145D02*
X7014089Y8219137D01*
X7014089Y8219137D02*
X6983480Y8182658D01*
X6946585Y8449833D02*
X7026168Y8544677D01*
X7026168Y8544677D02*
X7041681Y8444633D01*
X7041681Y8444633D02*
X7060046Y8466520D01*
X7060046Y8466520D02*
X7079585Y8474990D01*
X7079585Y8474990D02*
X7093003Y8476164D01*
X7093003Y8476164D02*
X7113716Y8471216D01*
X7113716Y8471216D02*
X7150194Y8440607D01*
X7150194Y8440607D02*
X7158664Y8421067D01*
X7158664Y8421067D02*
X7159838Y8407650D01*
X7159838Y8407650D02*
X7154890Y8386937D01*
X7154890Y8386937D02*
X7118159Y8343163D01*
X7118159Y8343163D02*
X7098620Y8334693D01*
X7098620Y8334693D02*
X7085202Y8333520D01*
X7136360Y8675999D02*
X7111873Y8646816D01*
X7111873Y8646816D02*
X7106925Y8626103D01*
X7106925Y8626103D02*
X7108099Y8612686D01*
X7108099Y8612686D02*
X7117742Y8579729D01*
X7117742Y8579729D02*
X7140803Y8547946D01*
X7140803Y8547946D02*
X7199168Y8498972D01*
X7199168Y8498972D02*
X7219882Y8494024D01*
X7219882Y8494024D02*
X7233299Y8495198D01*
X7233299Y8495198D02*
X7252838Y8503667D01*
X7252838Y8503667D02*
X7277325Y8532850D01*
X7277325Y8532850D02*
X7282273Y8553563D01*
X7282273Y8553563D02*
X7281099Y8566981D01*
X7281099Y8566981D02*
X7272630Y8586520D01*
X7272630Y8586520D02*
X7236152Y8617129D01*
X7236152Y8617129D02*
X7215438Y8622077D01*
X7215438Y8622077D02*
X7202021Y8620903D01*
X7202021Y8620903D02*
X7182482Y8612433D01*
X7182482Y8612433D02*
X7157995Y8583251D01*
X7157995Y8583251D02*
X7153047Y8562537D01*
X7153047Y8562537D02*
X7154221Y8549120D01*
X7154221Y8549120D02*
X7162690Y8529581D01*
X8054292Y7131070D02*
X7920466Y7279699D01*
X7920466Y7279699D02*
X7955854Y7311562D01*
X7955854Y7311562D02*
X7983459Y7323603D01*
X7983459Y7323603D02*
X8010360Y7322193D01*
X8010360Y7322193D02*
X8030183Y7314411D01*
X8030183Y7314411D02*
X8062751Y7292473D01*
X8062751Y7292473D02*
X8081869Y7271240D01*
X8081869Y7271240D02*
X8100282Y7236557D01*
X8100282Y7236557D02*
X8105950Y7216030D01*
X8105950Y7216030D02*
X8104540Y7189129D01*
X8104540Y7189129D02*
X8089680Y7162933D01*
X8089680Y7162933D02*
X8054292Y7131070D01*
X8054940Y7400780D02*
X8146948Y7483625D01*
X8146948Y7483625D02*
X8148387Y7382395D01*
X8148387Y7382395D02*
X8169620Y7401513D01*
X8169620Y7401513D02*
X8190147Y7407181D01*
X8190147Y7407181D02*
X8203598Y7406476D01*
X8203598Y7406476D02*
X8223421Y7398694D01*
X8223421Y7398694D02*
X8255284Y7363306D01*
X8255284Y7363306D02*
X8260952Y7342778D01*
X8260952Y7342778D02*
X8260247Y7329328D01*
X8260247Y7329328D02*
X8252464Y7309505D01*
X8252464Y7309505D02*
X8209999Y7271269D01*
X8209999Y7271269D02*
X8189471Y7265601D01*
X8189471Y7265601D02*
X8176021Y7266306D01*
X8318953Y7548790D02*
X8408171Y7449704D01*
X8232584Y7573547D02*
X8292786Y7435520D01*
X8292786Y7435520D02*
X8384795Y7518365D01*
X10415902Y-2689600D02*
X10464286Y-2495541D01*
X10464286Y-2495541D02*
X10510491Y-2507061D01*
X10510491Y-2507061D02*
X10535910Y-2523214D01*
X10535910Y-2523214D02*
X10549783Y-2546304D01*
X10549783Y-2546304D02*
X10554416Y-2567089D01*
X10554416Y-2567089D02*
X10554441Y-2606357D01*
X10554441Y-2606357D02*
X10547529Y-2634080D01*
X10547529Y-2634080D02*
X10529072Y-2668739D01*
X10529072Y-2668739D02*
X10515223Y-2684917D01*
X10515223Y-2684917D02*
X10492133Y-2698791D01*
X10492133Y-2698791D02*
X10462106Y-2701120D01*
X10462106Y-2701120D02*
X10415902Y-2689600D01*
X10644496Y-2560103D02*
X10656041Y-2553166D01*
X10656041Y-2553166D02*
X10676827Y-2548533D01*
X10676827Y-2548533D02*
X10723032Y-2560053D01*
X10723032Y-2560053D02*
X10739210Y-2573902D01*
X10739210Y-2573902D02*
X10746147Y-2585447D01*
X10746147Y-2585447D02*
X10750779Y-2606233D01*
X10750779Y-2606233D02*
X10746171Y-2624715D01*
X10746171Y-2624715D02*
X10730018Y-2650133D01*
X10730018Y-2650133D02*
X10591479Y-2733376D01*
X10591479Y-2733376D02*
X10711611Y-2763328D01*
X10880127Y-2599221D02*
X10898609Y-2603829D01*
X10898609Y-2603829D02*
X10914787Y-2617678D01*
X10914787Y-2617678D02*
X10921724Y-2629223D01*
X10921724Y-2629223D02*
X10926357Y-2650009D01*
X10926357Y-2650009D02*
X10926381Y-2689277D01*
X10926381Y-2689277D02*
X10914861Y-2735481D01*
X10914861Y-2735481D02*
X10896404Y-2770141D01*
X10896404Y-2770141D02*
X10882555Y-2786319D01*
X10882555Y-2786319D02*
X10871010Y-2793256D01*
X10871010Y-2793256D02*
X10850225Y-2797889D01*
X10850225Y-2797889D02*
X10831743Y-2793281D01*
X10831743Y-2793281D02*
X10815565Y-2779432D01*
X10815565Y-2779432D02*
X10808628Y-2767887D01*
X10808628Y-2767887D02*
X10803995Y-2747101D01*
X10803995Y-2747101D02*
X10803970Y-2707833D01*
X10803970Y-2707833D02*
X10815490Y-2661629D01*
X10815490Y-2661629D02*
X10833947Y-2626969D01*
X10833947Y-2626969D02*
X10847796Y-2610791D01*
X10847796Y-2610791D02*
X10859341Y-2603854D01*
X10859341Y-2603854D02*
X10880127Y-2599221D01*
X-3012500Y-10832135D02*
X-3204752Y-10777007D01*
X-3204752Y-10777007D02*
X-3191626Y-10731233D01*
X-3191626Y-10731233D02*
X-3174596Y-10706394D01*
X-3174596Y-10706394D02*
X-3151036Y-10693334D01*
X-3151036Y-10693334D02*
X-3130101Y-10689429D01*
X-3130101Y-10689429D02*
X-3090857Y-10690775D01*
X-3090857Y-10690775D02*
X-3063392Y-10698650D01*
X-3063392Y-10698650D02*
X-3029398Y-10718306D01*
X-3029398Y-10718306D02*
X-3013713Y-10732711D01*
X-3013713Y-10732711D02*
X-3000654Y-10756271D01*
X-3000654Y-10756271D02*
X-2999374Y-10786361D01*
X-2999374Y-10786361D02*
X-3012500Y-10832135D01*
X-3059355Y-10580917D02*
X-3073760Y-10596601D01*
X-3073760Y-10596601D02*
X-3085540Y-10603131D01*
X-3085540Y-10603131D02*
X-3106475Y-10607036D01*
X-3106475Y-10607036D02*
X-3115630Y-10604410D01*
X-3115630Y-10604410D02*
X-3131315Y-10590005D01*
X-3131315Y-10590005D02*
X-3137845Y-10578225D01*
X-3137845Y-10578225D02*
X-3141749Y-10557291D01*
X-3141749Y-10557291D02*
X-3131249Y-10520671D01*
X-3131249Y-10520671D02*
X-3116844Y-10504986D01*
X-3116844Y-10504986D02*
X-3105064Y-10498457D01*
X-3105064Y-10498457D02*
X-3084129Y-10494552D01*
X-3084129Y-10494552D02*
X-3074974Y-10497177D01*
X-3074974Y-10497177D02*
X-3059289Y-10511582D01*
X-3059289Y-10511582D02*
X-3052759Y-10523362D01*
X-3052759Y-10523362D02*
X-3048855Y-10544297D01*
X-3048855Y-10544297D02*
X-3059355Y-10580917D01*
X-3059355Y-10580917D02*
X-3055451Y-10601851D01*
X-3055451Y-10601851D02*
X-3048921Y-10613631D01*
X-3048921Y-10613631D02*
X-3033236Y-10628037D01*
X-3033236Y-10628037D02*
X-2996617Y-10638537D01*
X-2996617Y-10638537D02*
X-2975682Y-10634632D01*
X-2975682Y-10634632D02*
X-2963902Y-10628103D01*
X-2963902Y-10628103D02*
X-2949497Y-10612418D01*
X-2949497Y-10612418D02*
X-2938996Y-10575798D01*
X-2938996Y-10575798D02*
X-2942901Y-10554864D01*
X-2942901Y-10554864D02*
X-2949431Y-10543084D01*
X-2949431Y-10543084D02*
X-2965115Y-10528679D01*
X-2965115Y-10528679D02*
X-3001735Y-10518178D01*
X-3001735Y-10518178D02*
X-3022670Y-10522083D01*
X-3022670Y-10522083D02*
X-3034450Y-10528612D01*
X-3034450Y-10528612D02*
X-3048855Y-10544297D01*
X-3102372Y-10419968D02*
X-3065621Y-10291799D01*
X-3065621Y-10291799D02*
X-2896995Y-10429321D01*
X-10144398Y4847738D02*
X-10056724Y5027497D01*
X-10056724Y5027497D02*
X-10013924Y5006622D01*
X-10013924Y5006622D02*
X-9992419Y4985537D01*
X-9992419Y4985537D02*
X-9983649Y4960067D01*
X-9983649Y4960067D02*
X-9983439Y4938772D01*
X-9983439Y4938772D02*
X-9991579Y4900358D01*
X-9991579Y4900358D02*
X-10004104Y4874678D01*
X-10004104Y4874678D02*
X-10029364Y4844613D01*
X-10029364Y4844613D02*
X-10046274Y4831668D01*
X-10046274Y4831668D02*
X-10071743Y4822898D01*
X-10071743Y4822898D02*
X-10101598Y4826863D01*
X-10101598Y4826863D02*
X-10144398Y4847738D01*
X-9799925Y4902248D02*
X-9834165Y4918948D01*
X-9834165Y4918948D02*
X-9855460Y4918738D01*
X-9855460Y4918738D02*
X-9868195Y4914353D01*
X-9868195Y4914353D02*
X-9897840Y4897023D01*
X-9897840Y4897023D02*
X-9923099Y4866958D01*
X-9923099Y4866958D02*
X-9956499Y4798479D01*
X-9956499Y4798479D02*
X-9956289Y4777184D01*
X-9956289Y4777184D02*
X-9951904Y4764449D01*
X-9951904Y4764449D02*
X-9938959Y4747539D01*
X-9938959Y4747539D02*
X-9904719Y4730839D01*
X-9904719Y4730839D02*
X-9883425Y4731049D01*
X-9883425Y4731049D02*
X-9870690Y4735434D01*
X-9870690Y4735434D02*
X-9853780Y4748379D01*
X-9853780Y4748379D02*
X-9832905Y4791179D01*
X-9832905Y4791179D02*
X-9833115Y4812474D01*
X-9833115Y4812474D02*
X-9837500Y4825208D01*
X-9837500Y4825208D02*
X-9850445Y4842118D01*
X-9850445Y4842118D02*
X-9884685Y4858818D01*
X-9884685Y4858818D02*
X-9905980Y4858608D01*
X-9905980Y4858608D02*
X-9918714Y4854223D01*
X-9918714Y4854223D02*
X-9935624Y4841278D01*
X-9722676Y4843378D02*
X-9709941Y4847763D01*
X-9709941Y4847763D02*
X-9688646Y4847973D01*
X-9688646Y4847973D02*
X-9645847Y4827099D01*
X-9645847Y4827099D02*
X-9632902Y4810189D01*
X-9632902Y4810189D02*
X-9628517Y4797454D01*
X-9628517Y4797454D02*
X-9628307Y4776159D01*
X-9628307Y4776159D02*
X-9636657Y4759039D01*
X-9636657Y4759039D02*
X-9657741Y4737534D01*
X-9657741Y4737534D02*
X-9810560Y4684915D01*
X-9810560Y4684915D02*
X-9699281Y4630640D01*
X-1475650Y-11145908D02*
X-1673704Y-11118073D01*
X-1673704Y-11118073D02*
X-1667076Y-11070918D01*
X-1667076Y-11070918D02*
X-1653669Y-11043950D01*
X-1653669Y-11043950D02*
X-1632156Y-11027738D01*
X-1632156Y-11027738D02*
X-1611968Y-11020958D01*
X-1611968Y-11020958D02*
X-1572918Y-11016829D01*
X-1572918Y-11016829D02*
X-1544625Y-11020805D01*
X-1544625Y-11020805D02*
X-1508226Y-11035538D01*
X-1508226Y-11035538D02*
X-1490689Y-11047620D01*
X-1490689Y-11047620D02*
X-1474477Y-11069134D01*
X-1474477Y-11069134D02*
X-1469023Y-11098752D01*
X-1469023Y-11098752D02*
X-1475650Y-11145908D01*
X-1557012Y-10903655D02*
X-1569095Y-10921192D01*
X-1569095Y-10921192D02*
X-1579851Y-10929298D01*
X-1579851Y-10929298D02*
X-1600039Y-10936078D01*
X-1600039Y-10936078D02*
X-1609470Y-10934753D01*
X-1609470Y-10934753D02*
X-1627007Y-10922671D01*
X-1627007Y-10922671D02*
X-1635112Y-10911914D01*
X-1635112Y-10911914D02*
X-1641893Y-10891726D01*
X-1641893Y-10891726D02*
X-1636591Y-10854002D01*
X-1636591Y-10854002D02*
X-1624509Y-10836465D01*
X-1624509Y-10836465D02*
X-1613752Y-10828359D01*
X-1613752Y-10828359D02*
X-1593564Y-10821579D01*
X-1593564Y-10821579D02*
X-1584133Y-10822905D01*
X-1584133Y-10822905D02*
X-1566597Y-10834987D01*
X-1566597Y-10834987D02*
X-1558491Y-10845743D01*
X-1558491Y-10845743D02*
X-1551711Y-10865931D01*
X-1551711Y-10865931D02*
X-1557012Y-10903655D01*
X-1557012Y-10903655D02*
X-1550232Y-10923843D01*
X-1550232Y-10923843D02*
X-1542127Y-10934600D01*
X-1542127Y-10934600D02*
X-1524590Y-10946682D01*
X-1524590Y-10946682D02*
X-1486865Y-10951984D01*
X-1486865Y-10951984D02*
X-1466678Y-10945203D01*
X-1466678Y-10945203D02*
X-1455921Y-10937098D01*
X-1455921Y-10937098D02*
X-1443839Y-10919561D01*
X-1443839Y-10919561D02*
X-1438537Y-10881836D01*
X-1438537Y-10881836D02*
X-1445317Y-10861649D01*
X-1445317Y-10861649D02*
X-1453423Y-10850892D01*
X-1453423Y-10850892D02*
X-1470960Y-10838810D01*
X-1470960Y-10838810D02*
X-1508684Y-10833508D01*
X-1508684Y-10833508D02*
X-1528872Y-10840289D01*
X-1528872Y-10840289D02*
X-1539629Y-10848394D01*
X-1539629Y-10848394D02*
X-1551711Y-10865931D01*
X-1419981Y-10749801D02*
X-1414679Y-10712076D01*
X-1414679Y-10712076D02*
X-1421459Y-10691889D01*
X-1421459Y-10691889D02*
X-1429565Y-10681132D01*
X-1429565Y-10681132D02*
X-1455207Y-10658294D01*
X-1455207Y-10658294D02*
X-1491606Y-10643561D01*
X-1491606Y-10643561D02*
X-1567055Y-10632957D01*
X-1567055Y-10632957D02*
X-1587243Y-10639737D01*
X-1587243Y-10639737D02*
X-1598000Y-10647843D01*
X-1598000Y-10647843D02*
X-1610082Y-10665380D01*
X-1610082Y-10665380D02*
X-1615383Y-10703104D01*
X-1615383Y-10703104D02*
X-1608603Y-10723292D01*
X-1608603Y-10723292D02*
X-1600498Y-10734048D01*
X-1600498Y-10734048D02*
X-1582961Y-10746130D01*
X-1582961Y-10746130D02*
X-1535805Y-10752758D01*
X-1535805Y-10752758D02*
X-1515617Y-10745977D01*
X-1515617Y-10745977D02*
X-1504861Y-10737872D01*
X-1504861Y-10737872D02*
X-1492779Y-10720335D01*
X-1492779Y-10720335D02*
X-1487477Y-10682611D01*
X-1487477Y-10682611D02*
X-1494257Y-10662423D01*
X-1494257Y-10662423D02*
X-1502363Y-10651666D01*
X-1502363Y-10651666D02*
X-1519900Y-10639584D01*
X10707573Y1034983D02*
X10686667Y1233887D01*
X10686667Y1233887D02*
X10734025Y1238865D01*
X10734025Y1238865D02*
X10763435Y1232380D01*
X10763435Y1232380D02*
X10784370Y1215427D01*
X10784370Y1215427D02*
X10795832Y1197480D01*
X10795832Y1197480D02*
X10809286Y1160589D01*
X10809286Y1160589D02*
X10812273Y1132174D01*
X10812273Y1132174D02*
X10806783Y1093292D01*
X10806783Y1093292D02*
X10799302Y1073353D01*
X10799302Y1073353D02*
X10782350Y1052419D01*
X10782350Y1052419D02*
X10754931Y1039960D01*
X10754931Y1039960D02*
X10707573Y1034983D01*
X10878091Y1234854D02*
X10886567Y1245321D01*
X10886567Y1245321D02*
X10904515Y1256784D01*
X10904515Y1256784D02*
X10951873Y1261761D01*
X10951873Y1261761D02*
X10971811Y1254281D01*
X10971811Y1254281D02*
X10982279Y1245805D01*
X10982279Y1245805D02*
X10993741Y1227857D01*
X10993741Y1227857D02*
X10995732Y1208914D01*
X10995732Y1208914D02*
X10989247Y1179503D01*
X10989247Y1179503D02*
X10887534Y1053898D01*
X10887534Y1053898D02*
X11010665Y1066839D01*
X11169720Y1284658D02*
X11075004Y1274703D01*
X11075004Y1274703D02*
X11075487Y1178991D01*
X11075487Y1178991D02*
X11083963Y1189458D01*
X11083963Y1189458D02*
X11101911Y1200921D01*
X11101911Y1200921D02*
X11149269Y1205899D01*
X11149269Y1205899D02*
X11169208Y1198418D01*
X11169208Y1198418D02*
X11179675Y1189942D01*
X11179675Y1189942D02*
X11191138Y1171994D01*
X11191138Y1171994D02*
X11196115Y1124636D01*
X11196115Y1124636D02*
X11188635Y1104697D01*
X11188635Y1104697D02*
X11180159Y1094230D01*
X11180159Y1094230D02*
X11162211Y1082767D01*
X11162211Y1082767D02*
X11114853Y1077790D01*
X11114853Y1077790D02*
X11094914Y1085270D01*
X11094914Y1085270D02*
X11084447Y1093746D01*
X10258417Y3238630D02*
X10196613Y3428841D01*
X10196613Y3428841D02*
X10241902Y3443556D01*
X10241902Y3443556D02*
X10272018Y3443328D01*
X10272018Y3443328D02*
X10296019Y3431098D01*
X10296019Y3431098D02*
X10310963Y3415926D01*
X10310963Y3415926D02*
X10331793Y3382638D01*
X10331793Y3382638D02*
X10340622Y3355465D01*
X10340622Y3355465D02*
X10343336Y3316292D01*
X10343336Y3316292D02*
X10340165Y3295233D01*
X10340165Y3295233D02*
X10327935Y3271232D01*
X10327935Y3271232D02*
X10303705Y3253345D01*
X10303705Y3253345D02*
X10258417Y3238630D01*
X10383653Y3469586D02*
X10389768Y3481587D01*
X10389768Y3481587D02*
X10404940Y3496531D01*
X10404940Y3496531D02*
X10450228Y3511246D01*
X10450228Y3511246D02*
X10471287Y3508074D01*
X10471287Y3508074D02*
X10483288Y3501959D01*
X10483288Y3501959D02*
X10498231Y3486787D01*
X10498231Y3486787D02*
X10504117Y3468672D01*
X10504117Y3468672D02*
X10503889Y3438556D01*
X10503889Y3438556D02*
X10430513Y3294547D01*
X10430513Y3294547D02*
X10548263Y3332807D01*
X10621638Y3476815D02*
X10600580Y3479987D01*
X10600580Y3479987D02*
X10588579Y3486101D01*
X10588579Y3486101D02*
X10573636Y3501274D01*
X10573636Y3501274D02*
X10570693Y3510331D01*
X10570693Y3510331D02*
X10573864Y3531390D01*
X10573864Y3531390D02*
X10579979Y3543390D01*
X10579979Y3543390D02*
X10595151Y3558334D01*
X10595151Y3558334D02*
X10631382Y3570106D01*
X10631382Y3570106D02*
X10652440Y3566934D01*
X10652440Y3566934D02*
X10664441Y3560820D01*
X10664441Y3560820D02*
X10679385Y3545647D01*
X10679385Y3545647D02*
X10682328Y3536590D01*
X10682328Y3536590D02*
X10679156Y3515531D01*
X10679156Y3515531D02*
X10673041Y3503531D01*
X10673041Y3503531D02*
X10657869Y3488587D01*
X10657869Y3488587D02*
X10621638Y3476815D01*
X10621638Y3476815D02*
X10606466Y3461871D01*
X10606466Y3461871D02*
X10600351Y3449870D01*
X10600351Y3449870D02*
X10597180Y3428812D01*
X10597180Y3428812D02*
X10608952Y3392581D01*
X10608952Y3392581D02*
X10623896Y3377409D01*
X10623896Y3377409D02*
X10635896Y3371294D01*
X10635896Y3371294D02*
X10656955Y3368123D01*
X10656955Y3368123D02*
X10693185Y3379895D01*
X10693185Y3379895D02*
X10708358Y3394839D01*
X10708358Y3394839D02*
X10714472Y3406839D01*
X10714472Y3406839D02*
X10717644Y3427898D01*
X10717644Y3427898D02*
X10705872Y3464128D01*
X10705872Y3464128D02*
X10690928Y3479301D01*
X10690928Y3479301D02*
X10678927Y3485415D01*
X10678927Y3485415D02*
X10657869Y3488587D01*
X-11056452Y-2040829D02*
X-11091181Y-1843867D01*
X-11091181Y-1843867D02*
X-11044286Y-1835598D01*
X-11044286Y-1835598D02*
X-11014495Y-1840016D01*
X-11014495Y-1840016D02*
X-10992429Y-1855467D01*
X-10992429Y-1855467D02*
X-10979742Y-1872571D01*
X-10979742Y-1872571D02*
X-10963748Y-1908434D01*
X-10963748Y-1908434D02*
X-10958786Y-1936571D01*
X-10958786Y-1936571D02*
X-10961550Y-1975742D01*
X-10961550Y-1975742D02*
X-10967622Y-1996154D01*
X-10967622Y-1996154D02*
X-10983073Y-2018219D01*
X-10983073Y-2018219D02*
X-11009556Y-2032560D01*
X-11009556Y-2032560D02*
X-11056452Y-2040829D01*
X-10912978Y-1812445D02*
X-10781670Y-1789292D01*
X-10781670Y-1789292D02*
X-10831353Y-2001138D01*
X-10568738Y-1954832D02*
X-10681287Y-1974677D01*
X-10625012Y-1964754D02*
X-10659742Y-1767793D01*
X-10659742Y-1767793D02*
X-10673539Y-1799238D01*
X-10673539Y-1799238D02*
X-10688990Y-1821304D01*
X-10688990Y-1821304D02*
X-10706094Y-1833990D01*
X3051499Y10315664D02*
X2859247Y10370792D01*
X2859247Y10370792D02*
X2872373Y10416566D01*
X2872373Y10416566D02*
X2889403Y10441405D01*
X2889403Y10441405D02*
X2912963Y10454465D01*
X2912963Y10454465D02*
X2933898Y10458370D01*
X2933898Y10458370D02*
X2973142Y10457024D01*
X2973142Y10457024D02*
X3000607Y10449149D01*
X3000607Y10449149D02*
X3034601Y10429493D01*
X3034601Y10429493D02*
X3050286Y10415088D01*
X3050286Y10415088D02*
X3063345Y10391528D01*
X3063345Y10391528D02*
X3064625Y10361438D01*
X3064625Y10361438D02*
X3051499Y10315664D01*
X3002085Y10627062D02*
X3130253Y10590310D01*
X2915720Y10602288D02*
X3039918Y10517137D01*
X3039918Y10517137D02*
X3074044Y10636151D01*
X2982561Y10731736D02*
X2976032Y10743516D01*
X2976032Y10743516D02*
X2972127Y10764451D01*
X2972127Y10764451D02*
X2985253Y10810225D01*
X2985253Y10810225D02*
X2999658Y10825910D01*
X2999658Y10825910D02*
X3011438Y10832440D01*
X3011438Y10832440D02*
X3032373Y10836344D01*
X3032373Y10836344D02*
X3050682Y10831094D01*
X3050682Y10831094D02*
X3075522Y10814064D01*
X3075522Y10814064D02*
X3153879Y10672704D01*
X3153879Y10672704D02*
X3188005Y10791717D01*
X-8914836Y6850956D02*
X-8791704Y7008558D01*
X-8791704Y7008558D02*
X-8754179Y6979241D01*
X-8754179Y6979241D02*
X-8737528Y6954146D01*
X-8737528Y6954146D02*
X-8734245Y6927409D01*
X-8734245Y6927409D02*
X-8738467Y6906536D01*
X-8738467Y6906536D02*
X-8754416Y6870653D01*
X-8754416Y6870653D02*
X-8772007Y6848139D01*
X-8772007Y6848139D02*
X-8802965Y6823983D01*
X-8802965Y6823983D02*
X-8822197Y6814836D01*
X-8822197Y6814836D02*
X-8848934Y6811554D01*
X-8848934Y6811554D02*
X-8877312Y6821639D01*
X-8877312Y6821639D02*
X-8914836Y6850956D01*
X-8559053Y6826792D02*
X-8634102Y6885426D01*
X-8634102Y6885426D02*
X-8700241Y6816241D01*
X-8700241Y6816241D02*
X-8686873Y6817882D01*
X-8686873Y6817882D02*
X-8665999Y6813660D01*
X-8665999Y6813660D02*
X-8628475Y6784343D01*
X-8628475Y6784343D02*
X-8619329Y6765111D01*
X-8619329Y6765111D02*
X-8617687Y6751743D01*
X-8617687Y6751743D02*
X-8621909Y6730870D01*
X-8621909Y6730870D02*
X-8651227Y6693346D01*
X-8651227Y6693346D02*
X-8670458Y6684199D01*
X-8670458Y6684199D02*
X-8683827Y6682558D01*
X-8683827Y6682558D02*
X-8704700Y6686780D01*
X-8704700Y6686780D02*
X-8742224Y6716097D01*
X-8742224Y6716097D02*
X-8751370Y6735329D01*
X-8751370Y6735329D02*
X-8753012Y6748697D01*
X-8599632Y6604692D02*
X-8569612Y6581238D01*
X-8569612Y6581238D02*
X-8548739Y6577016D01*
X-8548739Y6577016D02*
X-8535371Y6578657D01*
X-8535371Y6578657D02*
X-8502771Y6589445D01*
X-8502771Y6589445D02*
X-8471812Y6613601D01*
X-8471812Y6613601D02*
X-8424905Y6673640D01*
X-8424905Y6673640D02*
X-8420683Y6694513D01*
X-8420683Y6694513D02*
X-8422324Y6707882D01*
X-8422324Y6707882D02*
X-8431470Y6727113D01*
X-8431470Y6727113D02*
X-8461490Y6750567D01*
X-8461490Y6750567D02*
X-8482363Y6754789D01*
X-8482363Y6754789D02*
X-8495731Y6753148D01*
X-8495731Y6753148D02*
X-8514963Y6744001D01*
X-8514963Y6744001D02*
X-8544280Y6706477D01*
X-8544280Y6706477D02*
X-8548502Y6685604D01*
X-8548502Y6685604D02*
X-8546861Y6672236D01*
X-8546861Y6672236D02*
X-8537715Y6653004D01*
X-8537715Y6653004D02*
X-8507695Y6629550D01*
X-8507695Y6629550D02*
X-8486822Y6625328D01*
X-8486822Y6625328D02*
X-8473454Y6626969D01*
X-8473454Y6626969D02*
X-8454222Y6636116D01*
X-4490729Y-10307436D02*
X-4673438Y-10226088D01*
X-4673438Y-10226088D02*
X-4654070Y-10182586D01*
X-4654070Y-10182586D02*
X-4633748Y-10160359D01*
X-4633748Y-10160359D02*
X-4608600Y-10150705D01*
X-4608600Y-10150705D02*
X-4587325Y-10149752D01*
X-4587325Y-10149752D02*
X-4548650Y-10156546D01*
X-4548650Y-10156546D02*
X-4522549Y-10168167D01*
X-4522549Y-10168167D02*
X-4491620Y-10192363D01*
X-4491620Y-10192363D02*
X-4478093Y-10208810D01*
X-4478093Y-10208810D02*
X-4468440Y-10233959D01*
X-4468440Y-10233959D02*
X-4471360Y-10263934D01*
X-4471360Y-10263934D02*
X-4490729Y-10307436D01*
X-4502166Y-10052141D02*
X-4518613Y-10065668D01*
X-4518613Y-10065668D02*
X-4531188Y-10070495D01*
X-4531188Y-10070495D02*
X-4552462Y-10071448D01*
X-4552462Y-10071448D02*
X-4561163Y-10067574D01*
X-4561163Y-10067574D02*
X-4574690Y-10051127D01*
X-4574690Y-10051127D02*
X-4579516Y-10038553D01*
X-4579516Y-10038553D02*
X-4580470Y-10017278D01*
X-4580470Y-10017278D02*
X-4564975Y-9982476D01*
X-4564975Y-9982476D02*
X-4548527Y-9968949D01*
X-4548527Y-9968949D02*
X-4535953Y-9964122D01*
X-4535953Y-9964122D02*
X-4514678Y-9963169D01*
X-4514678Y-9963169D02*
X-4505978Y-9967043D01*
X-4505978Y-9967043D02*
X-4492451Y-9983491D01*
X-4492451Y-9983491D02*
X-4487624Y-9996065D01*
X-4487624Y-9996065D02*
X-4486671Y-10017339D01*
X-4486671Y-10017339D02*
X-4502166Y-10052141D01*
X-4502166Y-10052141D02*
X-4501213Y-10073416D01*
X-4501213Y-10073416D02*
X-4496386Y-10085990D01*
X-4496386Y-10085990D02*
X-4482859Y-10102438D01*
X-4482859Y-10102438D02*
X-4448057Y-10117932D01*
X-4448057Y-10117932D02*
X-4426782Y-10116979D01*
X-4426782Y-10116979D02*
X-4414208Y-10112152D01*
X-4414208Y-10112152D02*
X-4397760Y-10098625D01*
X-4397760Y-10098625D02*
X-4382266Y-10063824D01*
X-4382266Y-10063824D02*
X-4383219Y-10042549D01*
X-4383219Y-10042549D02*
X-4388046Y-10029975D01*
X-4388046Y-10029975D02*
X-4401573Y-10013527D01*
X-4401573Y-10013527D02*
X-4436374Y-9998032D01*
X-4436374Y-9998032D02*
X-4457649Y-9998985D01*
X-4457649Y-9998985D02*
X-4470223Y-10003812D01*
X-4470223Y-10003812D02*
X-4486671Y-10017339D01*
X-4475880Y-9782366D02*
X-4514617Y-9869371D01*
X-4514617Y-9869371D02*
X-4431486Y-9916808D01*
X-4431486Y-9916808D02*
X-4436313Y-9904234D01*
X-4436313Y-9904234D02*
X-4437266Y-9882959D01*
X-4437266Y-9882959D02*
X-4417898Y-9839457D01*
X-4417898Y-9839457D02*
X-4401450Y-9825930D01*
X-4401450Y-9825930D02*
X-4388876Y-9821103D01*
X-4388876Y-9821103D02*
X-4367601Y-9820150D01*
X-4367601Y-9820150D02*
X-4324099Y-9839519D01*
X-4324099Y-9839519D02*
X-4310572Y-9855966D01*
X-4310572Y-9855966D02*
X-4305745Y-9868541D01*
X-4305745Y-9868541D02*
X-4304792Y-9889815D01*
X-4304792Y-9889815D02*
X-4324161Y-9933317D01*
X-4324161Y-9933317D02*
X-4340608Y-9946844D01*
X-4340608Y-9946844D02*
X-4353182Y-9951671D01*
X6845708Y-8298262D02*
X6998917Y-8169705D01*
X6998917Y-8169705D02*
X7029526Y-8206183D01*
X7029526Y-8206183D02*
X7040596Y-8234192D01*
X7040596Y-8234192D02*
X7038248Y-8261027D01*
X7038248Y-8261027D02*
X7029779Y-8280566D01*
X7029779Y-8280566D02*
X7006718Y-8312349D01*
X7006718Y-8312349D02*
X6984831Y-8330714D01*
X6984831Y-8330714D02*
X6949526Y-8347906D01*
X6949526Y-8347906D02*
X6928813Y-8352853D01*
X6928813Y-8352853D02*
X6901978Y-8350506D01*
X6901978Y-8350506D02*
X6876317Y-8334740D01*
X6876317Y-8334740D02*
X6845708Y-8298262D01*
X7041606Y-8531723D02*
X6968144Y-8444175D01*
X7004875Y-8487949D02*
X7158084Y-8359392D01*
X7158084Y-8359392D02*
X7123953Y-8363166D01*
X7123953Y-8363166D02*
X7097118Y-8360818D01*
X7097118Y-8360818D02*
X7077579Y-8352349D01*
X7164041Y-8677636D02*
X7090580Y-8590089D01*
X7127310Y-8633862D02*
X7280519Y-8505305D01*
X7280519Y-8505305D02*
X7246389Y-8509079D01*
X7246389Y-8509079D02*
X7219554Y-8506731D01*
X7219554Y-8506731D02*
X7200015Y-8498262D01*
X1586149Y10639891D02*
X1388095Y10667726D01*
X1388095Y10667726D02*
X1394723Y10714881D01*
X1394723Y10714881D02*
X1408130Y10741849D01*
X1408130Y10741849D02*
X1429643Y10758061D01*
X1429643Y10758061D02*
X1449831Y10764841D01*
X1449831Y10764841D02*
X1488881Y10768970D01*
X1488881Y10768970D02*
X1517174Y10764994D01*
X1517174Y10764994D02*
X1553573Y10750261D01*
X1553573Y10750261D02*
X1571110Y10738179D01*
X1571110Y10738179D02*
X1587322Y10716665D01*
X1587322Y10716665D02*
X1592776Y10687047D01*
X1592776Y10687047D02*
X1586149Y10639891D01*
X1493877Y10941381D02*
X1625913Y10922825D01*
X1411801Y10904829D02*
X1546640Y10837792D01*
X1546640Y10837792D02*
X1563871Y10960396D01*
X1520386Y11130003D02*
X1652422Y11111447D01*
X1438310Y11093452D02*
X1573149Y11026414D01*
X1573149Y11026414D02*
X1590380Y11149019D01*
X9940140Y-4113100D02*
X10015062Y-3927663D01*
X10015062Y-3927663D02*
X10059213Y-3945501D01*
X10059213Y-3945501D02*
X10082137Y-3965035D01*
X10082137Y-3965035D02*
X10092662Y-3989831D01*
X10092662Y-3989831D02*
X10094357Y-4011059D01*
X10094357Y-4011059D02*
X10088916Y-4049948D01*
X10088916Y-4049948D02*
X10078213Y-4076439D01*
X10078213Y-4076439D02*
X10055112Y-4108192D01*
X10055112Y-4108192D02*
X10039147Y-4122285D01*
X10039147Y-4122285D02*
X10014351Y-4132811D01*
X10014351Y-4132811D02*
X9984292Y-4130938D01*
X9984292Y-4130938D02*
X9940140Y-4113100D01*
X10222711Y-4227265D02*
X10116747Y-4184453D01*
X10169729Y-4205859D02*
X10244650Y-4020423D01*
X10244650Y-4020423D02*
X10216286Y-4039778D01*
X10216286Y-4039778D02*
X10191490Y-4050303D01*
X10191490Y-4050303D02*
X10170262Y-4051998D01*
X10371487Y-4164114D02*
X10357394Y-4148148D01*
X10357394Y-4148148D02*
X10352131Y-4135750D01*
X10352131Y-4135750D02*
X10350436Y-4114522D01*
X10350436Y-4114522D02*
X10354004Y-4105691D01*
X10354004Y-4105691D02*
X10369969Y-4091598D01*
X10369969Y-4091598D02*
X10382367Y-4086336D01*
X10382367Y-4086336D02*
X10403596Y-4084641D01*
X10403596Y-4084641D02*
X10438917Y-4098911D01*
X10438917Y-4098911D02*
X10453010Y-4114877D01*
X10453010Y-4114877D02*
X10458273Y-4127275D01*
X10458273Y-4127275D02*
X10459968Y-4148503D01*
X10459968Y-4148503D02*
X10456400Y-4157334D01*
X10456400Y-4157334D02*
X10440434Y-4171427D01*
X10440434Y-4171427D02*
X10428036Y-4176689D01*
X10428036Y-4176689D02*
X10406808Y-4178384D01*
X10406808Y-4178384D02*
X10371487Y-4164114D01*
X10371487Y-4164114D02*
X10350258Y-4165809D01*
X10350258Y-4165809D02*
X10337860Y-4171071D01*
X10337860Y-4171071D02*
X10321895Y-4185164D01*
X10321895Y-4185164D02*
X10307624Y-4220486D01*
X10307624Y-4220486D02*
X10309319Y-4241714D01*
X10309319Y-4241714D02*
X10314581Y-4254112D01*
X10314581Y-4254112D02*
X10328674Y-4270078D01*
X10328674Y-4270078D02*
X10363996Y-4284348D01*
X10363996Y-4284348D02*
X10385224Y-4282653D01*
X10385224Y-4282653D02*
X10397622Y-4277391D01*
X10397622Y-4277391D02*
X10413588Y-4263298D01*
X10413588Y-4263298D02*
X10427858Y-4227976D01*
X10427858Y-4227976D02*
X10426163Y-4206748D01*
X10426163Y-4206748D02*
X10420901Y-4194350D01*
X10420901Y-4194350D02*
X10406808Y-4178384D01*
X9271017Y-5456447D02*
X9371017Y-5283242D01*
X9371017Y-5283242D02*
X9412257Y-5307052D01*
X9412257Y-5307052D02*
X9432238Y-5329585D01*
X9432238Y-5329585D02*
X9439210Y-5355605D01*
X9439210Y-5355605D02*
X9437934Y-5376863D01*
X9437934Y-5376863D02*
X9427134Y-5414616D01*
X9427134Y-5414616D02*
X9412849Y-5439359D01*
X9412849Y-5439359D02*
X9385553Y-5467589D01*
X9385553Y-5467589D02*
X9367782Y-5479323D01*
X9367782Y-5479323D02*
X9341762Y-5486295D01*
X9341762Y-5486295D02*
X9312257Y-5480257D01*
X9312257Y-5480257D02*
X9271017Y-5456447D01*
X9534949Y-5608828D02*
X9435975Y-5551685D01*
X9485462Y-5580257D02*
X9585462Y-5407052D01*
X9585462Y-5407052D02*
X9554680Y-5422272D01*
X9554680Y-5422272D02*
X9528661Y-5429243D01*
X9528661Y-5429243D02*
X9507403Y-5427968D01*
X9783410Y-5521337D02*
X9750419Y-5502290D01*
X9750419Y-5502290D02*
X9729161Y-5501014D01*
X9729161Y-5501014D02*
X9716151Y-5504500D01*
X9716151Y-5504500D02*
X9685370Y-5519720D01*
X9685370Y-5519720D02*
X9658074Y-5547949D01*
X9658074Y-5547949D02*
X9619979Y-5613932D01*
X9619979Y-5613932D02*
X9618703Y-5635190D01*
X9618703Y-5635190D02*
X9622189Y-5648199D01*
X9622189Y-5648199D02*
X9633923Y-5665971D01*
X9633923Y-5665971D02*
X9666914Y-5685019D01*
X9666914Y-5685019D02*
X9688172Y-5686295D01*
X9688172Y-5686295D02*
X9701182Y-5682809D01*
X9701182Y-5682809D02*
X9718954Y-5671075D01*
X9718954Y-5671075D02*
X9742763Y-5629836D01*
X9742763Y-5629836D02*
X9744039Y-5608578D01*
X9744039Y-5608578D02*
X9740553Y-5595568D01*
X9740553Y-5595568D02*
X9728819Y-5577796D01*
X9728819Y-5577796D02*
X9695828Y-5558749D01*
X9695828Y-5558749D02*
X9674570Y-5557473D01*
X9674570Y-5557473D02*
X9661560Y-5560959D01*
X9661560Y-5560959D02*
X9643789Y-5572693D01*
X-6681097Y9042819D02*
X-6519294Y9160376D01*
X-6519294Y9160376D02*
X-6491304Y9121851D01*
X-6491304Y9121851D02*
X-6482215Y9093139D01*
X-6482215Y9093139D02*
X-6486429Y9066533D01*
X-6486429Y9066533D02*
X-6496241Y9047632D01*
X-6496241Y9047632D02*
X-6521463Y9017535D01*
X-6521463Y9017535D02*
X-6544577Y9000742D01*
X-6544577Y9000742D02*
X-6580995Y8986055D01*
X-6580995Y8986055D02*
X-6602003Y8982564D01*
X-6602003Y8982564D02*
X-6628609Y8986778D01*
X-6628609Y8986778D02*
X-6653107Y9004294D01*
X-6653107Y9004294D02*
X-6681097Y9042819D01*
X-6345757Y8921523D02*
X-6401737Y8998573D01*
X-6401737Y8998573D02*
X-6484384Y8950298D01*
X-6484384Y8950298D02*
X-6471081Y8948191D01*
X-6471081Y8948191D02*
X-6452180Y8938379D01*
X-6452180Y8938379D02*
X-6424190Y8899855D01*
X-6424190Y8899855D02*
X-6420699Y8878847D01*
X-6420699Y8878847D02*
X-6422806Y8865544D01*
X-6422806Y8865544D02*
X-6432618Y8846643D01*
X-6432618Y8846643D02*
X-6471143Y8818653D01*
X-6471143Y8818653D02*
X-6492151Y8815162D01*
X-6492151Y8815162D02*
X-6505454Y8817269D01*
X-6505454Y8817269D02*
X-6524354Y8827081D01*
X-6524354Y8827081D02*
X-6552344Y8865606D01*
X-6552344Y8865606D02*
X-6555835Y8886614D01*
X-6555835Y8886614D02*
X-6553728Y8899916D01*
X-6233798Y8767425D02*
X-6289778Y8844474D01*
X-6289778Y8844474D02*
X-6372425Y8796200D01*
X-6372425Y8796200D02*
X-6359122Y8794093D01*
X-6359122Y8794093D02*
X-6340221Y8784281D01*
X-6340221Y8784281D02*
X-6312231Y8745756D01*
X-6312231Y8745756D02*
X-6308740Y8724748D01*
X-6308740Y8724748D02*
X-6310847Y8711446D01*
X-6310847Y8711446D02*
X-6320659Y8692545D01*
X-6320659Y8692545D02*
X-6359184Y8664555D01*
X-6359184Y8664555D02*
X-6380192Y8661064D01*
X-6380192Y8661064D02*
X-6393495Y8663171D01*
X-6393495Y8663171D02*
X-6412395Y8672983D01*
X-6412395Y8672983D02*
X-6440385Y8711507D01*
X-6440385Y8711507D02*
X-6443876Y8732515D01*
X-6443876Y8732515D02*
X-6441769Y8745818D01*
X-4655028Y10234285D02*
X-4472319Y10315632D01*
X-4472319Y10315632D02*
X-4452950Y10272130D01*
X-4452950Y10272130D02*
X-4450030Y10242155D01*
X-4450030Y10242155D02*
X-4459683Y10217007D01*
X-4459683Y10217007D02*
X-4473210Y10200559D01*
X-4473210Y10200559D02*
X-4504138Y10176364D01*
X-4504138Y10176364D02*
X-4530240Y10164743D01*
X-4530240Y10164743D02*
X-4568915Y10157949D01*
X-4568915Y10157949D02*
X-4590190Y10158902D01*
X-4590190Y10158902D02*
X-4615338Y10168555D01*
X-4615338Y10168555D02*
X-4635659Y10190783D01*
X-4635659Y10190783D02*
X-4655028Y10234285D01*
X-4352235Y10045919D02*
X-4390971Y10132923D01*
X-4390971Y10132923D02*
X-4481849Y10102887D01*
X-4481849Y10102887D02*
X-4469275Y10098060D01*
X-4469275Y10098060D02*
X-4452827Y10084533D01*
X-4452827Y10084533D02*
X-4433459Y10041031D01*
X-4433459Y10041031D02*
X-4434412Y10019756D01*
X-4434412Y10019756D02*
X-4439239Y10007182D01*
X-4439239Y10007182D02*
X-4452766Y9990734D01*
X-4452766Y9990734D02*
X-4496268Y9971366D01*
X-4496268Y9971366D02*
X-4517543Y9972319D01*
X-4517543Y9972319D02*
X-4530117Y9977146D01*
X-4530117Y9977146D02*
X-4546565Y9990673D01*
X-4546565Y9990673D02*
X-4565933Y10034175D01*
X-4565933Y10034175D02*
X-4564980Y10055450D01*
X-4564980Y10055450D02*
X-4560153Y10068024D01*
X-4334772Y9959868D02*
X-4322198Y9955041D01*
X-4322198Y9955041D02*
X-4305750Y9941514D01*
X-4305750Y9941514D02*
X-4286382Y9898012D01*
X-4286382Y9898012D02*
X-4287335Y9876737D01*
X-4287335Y9876737D02*
X-4292162Y9864163D01*
X-4292162Y9864163D02*
X-4305689Y9847715D01*
X-4305689Y9847715D02*
X-4323090Y9839968D01*
X-4323090Y9839968D02*
X-4353065Y9837047D01*
X-4353065Y9837047D02*
X-4503954Y9894968D01*
X-4503954Y9894968D02*
X-4453596Y9781863D01*
X6250102Y-8755580D02*
X6411905Y-8638023D01*
X6411905Y-8638023D02*
X6439895Y-8676548D01*
X6439895Y-8676548D02*
X6448984Y-8705260D01*
X6448984Y-8705260D02*
X6444770Y-8731866D01*
X6444770Y-8731866D02*
X6434958Y-8750767D01*
X6434958Y-8750767D02*
X6409736Y-8780864D01*
X6409736Y-8780864D02*
X6386622Y-8797657D01*
X6386622Y-8797657D02*
X6350204Y-8812344D01*
X6350204Y-8812344D02*
X6329196Y-8815835D01*
X6329196Y-8815835D02*
X6302590Y-8811621D01*
X6302590Y-8811621D02*
X6278092Y-8794105D01*
X6278092Y-8794105D02*
X6250102Y-8755580D01*
X6429236Y-9002138D02*
X6362061Y-8909678D01*
X6395649Y-8955908D02*
X6557452Y-8838351D01*
X6557452Y-8838351D02*
X6523141Y-8839735D01*
X6523141Y-8839735D02*
X6496536Y-8835521D01*
X6496536Y-8835521D02*
X6477635Y-8825709D01*
X6663813Y-8984744D02*
X6675009Y-9000154D01*
X6675009Y-9000154D02*
X6678500Y-9021162D01*
X6678500Y-9021162D02*
X6676393Y-9034465D01*
X6676393Y-9034465D02*
X6666581Y-9053366D01*
X6666581Y-9053366D02*
X6641359Y-9083462D01*
X6641359Y-9083462D02*
X6602835Y-9111452D01*
X6602835Y-9111452D02*
X6566417Y-9126139D01*
X6566417Y-9126139D02*
X6545409Y-9129630D01*
X6545409Y-9129630D02*
X6532106Y-9127523D01*
X6532106Y-9127523D02*
X6513206Y-9117711D01*
X6513206Y-9117711D02*
X6502010Y-9102301D01*
X6502010Y-9102301D02*
X6498519Y-9081294D01*
X6498519Y-9081294D02*
X6500626Y-9067991D01*
X6500626Y-9067991D02*
X6510438Y-9049090D01*
X6510438Y-9049090D02*
X6535659Y-9018993D01*
X6535659Y-9018993D02*
X6574184Y-8991003D01*
X6574184Y-8991003D02*
X6610602Y-8976316D01*
X6610602Y-8976316D02*
X6631609Y-8972825D01*
X6631609Y-8972825D02*
X6644912Y-8974932D01*
X6644912Y-8974932D02*
X6663813Y-8984744D01*
D12*
X3446303Y-1962295D02*
X3179636Y-1581342D01*
X2989160Y-1962295D02*
X2989160Y-1162295D01*
X2989160Y-1162295D02*
X3293922Y-1162295D01*
X3293922Y-1162295D02*
X3370112Y-1200390D01*
X3370112Y-1200390D02*
X3408207Y-1238485D01*
X3408207Y-1238485D02*
X3446303Y-1314676D01*
X3446303Y-1314676D02*
X3446303Y-1428961D01*
X3446303Y-1428961D02*
X3408207Y-1505152D01*
X3408207Y-1505152D02*
X3370112Y-1543247D01*
X3370112Y-1543247D02*
X3293922Y-1581342D01*
X3293922Y-1581342D02*
X2989160Y-1581342D01*
X3751064Y-1238485D02*
X3789160Y-1200390D01*
X3789160Y-1200390D02*
X3865350Y-1162295D01*
X3865350Y-1162295D02*
X4055826Y-1162295D01*
X4055826Y-1162295D02*
X4132017Y-1200390D01*
X4132017Y-1200390D02*
X4170112Y-1238485D01*
X4170112Y-1238485D02*
X4208207Y-1314676D01*
X4208207Y-1314676D02*
X4208207Y-1390866D01*
X4208207Y-1390866D02*
X4170112Y-1505152D01*
X4170112Y-1505152D02*
X3712969Y-1962295D01*
X3712969Y-1962295D02*
X4208207Y-1962295D01*
X1466667Y-1862295D02*
X1200000Y-1481342D01*
X1009524Y-1862295D02*
X1009524Y-1062295D01*
X1009524Y-1062295D02*
X1314286Y-1062295D01*
X1314286Y-1062295D02*
X1390476Y-1100390D01*
X1390476Y-1100390D02*
X1428571Y-1138485D01*
X1428571Y-1138485D02*
X1466667Y-1214676D01*
X1466667Y-1214676D02*
X1466667Y-1328961D01*
X1466667Y-1328961D02*
X1428571Y-1405152D01*
X1428571Y-1405152D02*
X1390476Y-1443247D01*
X1390476Y-1443247D02*
X1314286Y-1481342D01*
X1314286Y-1481342D02*
X1009524Y-1481342D01*
X1771428Y-1138485D02*
X1809524Y-1100390D01*
X1809524Y-1100390D02*
X1885714Y-1062295D01*
X1885714Y-1062295D02*
X2076190Y-1062295D01*
X2076190Y-1062295D02*
X2152381Y-1100390D01*
X2152381Y-1100390D02*
X2190476Y-1138485D01*
X2190476Y-1138485D02*
X2228571Y-1214676D01*
X2228571Y-1214676D02*
X2228571Y-1290866D01*
X2228571Y-1290866D02*
X2190476Y-1405152D01*
X2190476Y-1405152D02*
X1733333Y-1862295D01*
X1733333Y-1862295D02*
X2228571Y-1862295D01*
D10*
X-9270452Y-6361454D02*
X-9382291Y-6195646D01*
X-9382291Y-6195646D02*
X-9342813Y-6169018D01*
X-9342813Y-6169018D02*
X-9313800Y-6160937D01*
X-9313800Y-6160937D02*
X-9287358Y-6166076D01*
X-9287358Y-6166076D02*
X-9268811Y-6176542D01*
X-9268811Y-6176542D02*
X-9239613Y-6202799D01*
X-9239613Y-6202799D02*
X-9223636Y-6226485D01*
X-9223636Y-6226485D02*
X-9210229Y-6263394D01*
X-9210229Y-6263394D02*
X-9207473Y-6284510D01*
X-9207473Y-6284510D02*
X-9212613Y-6310953D01*
X-9212613Y-6310953D02*
X-9230974Y-6334825D01*
X-9230974Y-6334825D02*
X-9270452Y-6361454D01*
X-9232275Y-6094459D02*
X-9121736Y-6019900D01*
X-9121736Y-6019900D02*
X-9080958Y-6233638D01*
X-9074363Y-5987946D02*
X-8963824Y-5913387D01*
X-8963824Y-5913387D02*
X-8923046Y-6127125D01*
X-8415248Y7456076D02*
X-8281422Y7604705D01*
X-8281422Y7604705D02*
X-8246034Y7572842D01*
X-8246034Y7572842D02*
X-8231174Y7546646D01*
X-8231174Y7546646D02*
X-8229764Y7519746D01*
X-8229764Y7519746D02*
X-8235432Y7499218D01*
X-8235432Y7499218D02*
X-8253845Y7464535D01*
X-8253845Y7464535D02*
X-8272963Y7443302D01*
X-8272963Y7443302D02*
X-8305532Y7421365D01*
X-8305532Y7421365D02*
X-8325354Y7413582D01*
X-8325354Y7413582D02*
X-8352255Y7412172D01*
X-8352255Y7412172D02*
X-8379860Y7424213D01*
X-8379860Y7424213D02*
X-8415248Y7456076D01*
X-8062017Y7407152D02*
X-8132793Y7470879D01*
X-8132793Y7470879D02*
X-8203597Y7406476D01*
X-8203597Y7406476D02*
X-8190147Y7407181D01*
X-8190147Y7407181D02*
X-8169619Y7401513D01*
X-8169619Y7401513D02*
X-8134231Y7369650D01*
X-8134231Y7369650D02*
X-8126449Y7349827D01*
X-8126449Y7349827D02*
X-8125744Y7336377D01*
X-8125744Y7336377D02*
X-8131412Y7315849D01*
X-8131412Y7315849D02*
X-8163275Y7280461D01*
X-8163275Y7280461D02*
X-8183098Y7272678D01*
X-8183098Y7272678D02*
X-8196548Y7271974D01*
X-8196548Y7271974D02*
X-8217076Y7277641D01*
X-8217076Y7277641D02*
X-8252464Y7309505D01*
X-8252464Y7309505D02*
X-8260247Y7329328D01*
X-8260247Y7329328D02*
X-8260951Y7342778D01*
X-8027363Y7260609D02*
X-8035146Y7280432D01*
X-8035146Y7280432D02*
X-8035851Y7293883D01*
X-8035851Y7293883D02*
X-8030183Y7314410D01*
X-8030183Y7314410D02*
X-8023810Y7321488D01*
X-8023810Y7321488D02*
X-8003987Y7329270D01*
X-8003987Y7329270D02*
X-7990537Y7329975D01*
X-7990537Y7329975D02*
X-7970009Y7324308D01*
X-7970009Y7324308D02*
X-7941699Y7298817D01*
X-7941699Y7298817D02*
X-7933916Y7278994D01*
X-7933916Y7278994D02*
X-7933211Y7265544D01*
X-7933211Y7265544D02*
X-7938879Y7245016D01*
X-7938879Y7245016D02*
X-7945252Y7237938D01*
X-7945252Y7237938D02*
X-7965075Y7230156D01*
X-7965075Y7230156D02*
X-7978525Y7229451D01*
X-7978525Y7229451D02*
X-7999053Y7235119D01*
X-7999053Y7235119D02*
X-8027363Y7260609D01*
X-8027363Y7260609D02*
X-8047891Y7266277D01*
X-8047891Y7266277D02*
X-8061341Y7265572D01*
X-8061341Y7265572D02*
X-8081164Y7257790D01*
X-8081164Y7257790D02*
X-8106655Y7229480D01*
X-8106655Y7229480D02*
X-8112323Y7208952D01*
X-8112323Y7208952D02*
X-8111618Y7195502D01*
X-8111618Y7195502D02*
X-8103835Y7175679D01*
X-8103835Y7175679D02*
X-8075525Y7150188D01*
X-8075525Y7150188D02*
X-8054997Y7144520D01*
X-8054997Y7144520D02*
X-8041547Y7145225D01*
X-8041547Y7145225D02*
X-8021724Y7153008D01*
X-8021724Y7153008D02*
X-7996233Y7181318D01*
X-7996233Y7181318D02*
X-7990566Y7201846D01*
X-7990566Y7201846D02*
X-7991270Y7215296D01*
X-7991270Y7215296D02*
X-7999053Y7235119D01*
X-10664782Y-3559769D02*
X-10726586Y-3369558D01*
X-10726586Y-3369558D02*
X-10681297Y-3354843D01*
X-10681297Y-3354843D02*
X-10651181Y-3355071D01*
X-10651181Y-3355071D02*
X-10627180Y-3367301D01*
X-10627180Y-3367301D02*
X-10612236Y-3382473D01*
X-10612236Y-3382473D02*
X-10591406Y-3415761D01*
X-10591406Y-3415761D02*
X-10582577Y-3442934D01*
X-10582577Y-3442934D02*
X-10579863Y-3482107D01*
X-10579863Y-3482107D02*
X-10583034Y-3503166D01*
X-10583034Y-3503166D02*
X-10595264Y-3527167D01*
X-10595264Y-3527167D02*
X-10619494Y-3545054D01*
X-10619494Y-3545054D02*
X-10664782Y-3559769D01*
X-10554490Y-3313640D02*
X-10427682Y-3272438D01*
X-10427682Y-3272438D02*
X-10447398Y-3489137D01*
X-10373336Y-3254780D02*
X-10255586Y-3216521D01*
X-10255586Y-3216521D02*
X-10295446Y-3309583D01*
X-10295446Y-3309583D02*
X-10268273Y-3300754D01*
X-10268273Y-3300754D02*
X-10247215Y-3303926D01*
X-10247215Y-3303926D02*
X-10235214Y-3310041D01*
X-10235214Y-3310041D02*
X-10220270Y-3325213D01*
X-10220270Y-3325213D02*
X-10205555Y-3370501D01*
X-10205555Y-3370501D02*
X-10208727Y-3391560D01*
X-10208727Y-3391560D02*
X-10214841Y-3403560D01*
X-10214841Y-3403560D02*
X-10230014Y-3418504D01*
X-10230014Y-3418504D02*
X-10284360Y-3436162D01*
X-10284360Y-3436162D02*
X-10305418Y-3432991D01*
X-10305418Y-3432991D02*
X-10317419Y-3426876D01*
X-2249534Y-11015846D02*
X-2445163Y-10974263D01*
X-2445163Y-10974263D02*
X-2435263Y-10927685D01*
X-2435263Y-10927685D02*
X-2420006Y-10901718D01*
X-2420006Y-10901718D02*
X-2397415Y-10887047D01*
X-2397415Y-10887047D02*
X-2376803Y-10881691D01*
X-2376803Y-10881691D02*
X-2337561Y-10880296D01*
X-2337561Y-10880296D02*
X-2309613Y-10886236D01*
X-2309613Y-10886236D02*
X-2274331Y-10903472D01*
X-2274331Y-10903472D02*
X-2257680Y-10916748D01*
X-2257680Y-10916748D02*
X-2243008Y-10939340D01*
X-2243008Y-10939340D02*
X-2239633Y-10969267D01*
X-2239633Y-10969267D02*
X-2249534Y-11015846D01*
X-2313799Y-10768508D02*
X-2327075Y-10785159D01*
X-2327075Y-10785159D02*
X-2338371Y-10792495D01*
X-2338371Y-10792495D02*
X-2358982Y-10797850D01*
X-2358982Y-10797850D02*
X-2368298Y-10795870D01*
X-2368298Y-10795870D02*
X-2384949Y-10782594D01*
X-2384949Y-10782594D02*
X-2392285Y-10771298D01*
X-2392285Y-10771298D02*
X-2397640Y-10750687D01*
X-2397640Y-10750687D02*
X-2389720Y-10713424D01*
X-2389720Y-10713424D02*
X-2376444Y-10696773D01*
X-2376444Y-10696773D02*
X-2365148Y-10689437D01*
X-2365148Y-10689437D02*
X-2344537Y-10684082D01*
X-2344537Y-10684082D02*
X-2335221Y-10686062D01*
X-2335221Y-10686062D02*
X-2318570Y-10699338D01*
X-2318570Y-10699338D02*
X-2311234Y-10710633D01*
X-2311234Y-10710633D02*
X-2305879Y-10731245D01*
X-2305879Y-10731245D02*
X-2313799Y-10768508D01*
X-2313799Y-10768508D02*
X-2308444Y-10789119D01*
X-2308444Y-10789119D02*
X-2301108Y-10800415D01*
X-2301108Y-10800415D02*
X-2284457Y-10813691D01*
X-2284457Y-10813691D02*
X-2247194Y-10821611D01*
X-2247194Y-10821611D02*
X-2226583Y-10816256D01*
X-2226583Y-10816256D02*
X-2215287Y-10808920D01*
X-2215287Y-10808920D02*
X-2202011Y-10792269D01*
X-2202011Y-10792269D02*
X-2194090Y-10755006D01*
X-2194090Y-10755006D02*
X-2199446Y-10734395D01*
X-2199446Y-10734395D02*
X-2206781Y-10723099D01*
X-2206781Y-10723099D02*
X-2223433Y-10709823D01*
X-2223433Y-10709823D02*
X-2260696Y-10701903D01*
X-2260696Y-10701903D02*
X-2281307Y-10707258D01*
X-2281307Y-10707258D02*
X-2292603Y-10714594D01*
X-2292603Y-10714594D02*
X-2305879Y-10731245D01*
X-2274197Y-10582194D02*
X-2287473Y-10598845D01*
X-2287473Y-10598845D02*
X-2298769Y-10606181D01*
X-2298769Y-10606181D02*
X-2319380Y-10611536D01*
X-2319380Y-10611536D02*
X-2328696Y-10609556D01*
X-2328696Y-10609556D02*
X-2345347Y-10596280D01*
X-2345347Y-10596280D02*
X-2352683Y-10584985D01*
X-2352683Y-10584985D02*
X-2358038Y-10564373D01*
X-2358038Y-10564373D02*
X-2350118Y-10527110D01*
X-2350118Y-10527110D02*
X-2336842Y-10510459D01*
X-2336842Y-10510459D02*
X-2325546Y-10503123D01*
X-2325546Y-10503123D02*
X-2304935Y-10497768D01*
X-2304935Y-10497768D02*
X-2295619Y-10499748D01*
X-2295619Y-10499748D02*
X-2278968Y-10513024D01*
X-2278968Y-10513024D02*
X-2271632Y-10524320D01*
X-2271632Y-10524320D02*
X-2266277Y-10544931D01*
X-2266277Y-10544931D02*
X-2274197Y-10582194D01*
X-2274197Y-10582194D02*
X-2268842Y-10602806D01*
X-2268842Y-10602806D02*
X-2261506Y-10614101D01*
X-2261506Y-10614101D02*
X-2244855Y-10627377D01*
X-2244855Y-10627377D02*
X-2207592Y-10635298D01*
X-2207592Y-10635298D02*
X-2186980Y-10629942D01*
X-2186980Y-10629942D02*
X-2175685Y-10622607D01*
X-2175685Y-10622607D02*
X-2162409Y-10605955D01*
X-2162409Y-10605955D02*
X-2154488Y-10568693D01*
X-2154488Y-10568693D02*
X-2159844Y-10548081D01*
X-2159844Y-10548081D02*
X-2167179Y-10536785D01*
X-2167179Y-10536785D02*
X-2183831Y-10523509D01*
X-2183831Y-10523509D02*
X-2221093Y-10515589D01*
X-2221093Y-10515589D02*
X-2241705Y-10520944D01*
X-2241705Y-10520944D02*
X-2253001Y-10528280D01*
X-2253001Y-10528280D02*
X-2266277Y-10544931D01*
X-11087682Y1863714D02*
X-11052952Y2060675D01*
X-11052952Y2060675D02*
X-11006057Y2052406D01*
X-11006057Y2052406D02*
X-10979573Y2038066D01*
X-10979573Y2038066D02*
X-10964123Y2016000D01*
X-10964123Y2016000D02*
X-10958051Y1995588D01*
X-10958051Y1995588D02*
X-10955287Y1956417D01*
X-10955287Y1956417D02*
X-10960248Y1928280D01*
X-10960248Y1928280D02*
X-10976243Y1892417D01*
X-10976243Y1892417D02*
X-10988929Y1875313D01*
X-10988929Y1875313D02*
X-11010995Y1859862D01*
X-11010995Y1859862D02*
X-11040786Y1855445D01*
X-11040786Y1855445D02*
X-11087682Y1863714D01*
X-10771579Y2011061D02*
X-10809095Y2017676D01*
X-10809095Y2017676D02*
X-10829507Y2011605D01*
X-10829507Y2011605D02*
X-10840540Y2003880D01*
X-10840540Y2003880D02*
X-10864260Y1979050D01*
X-10864260Y1979050D02*
X-10880254Y1943187D01*
X-10880254Y1943187D02*
X-10893484Y1868154D01*
X-10893484Y1868154D02*
X-10887413Y1847742D01*
X-10887413Y1847742D02*
X-10879688Y1836709D01*
X-10879688Y1836709D02*
X-10862583Y1824022D01*
X-10862583Y1824022D02*
X-10825067Y1817407D01*
X-10825067Y1817407D02*
X-10804655Y1823479D01*
X-10804655Y1823479D02*
X-10793622Y1831204D01*
X-10793622Y1831204D02*
X-10780935Y1848309D01*
X-10780935Y1848309D02*
X-10772666Y1895204D01*
X-10772666Y1895204D02*
X-10778738Y1915616D01*
X-10778738Y1915616D02*
X-10786463Y1926649D01*
X-10786463Y1926649D02*
X-10803567Y1939336D01*
X-10803567Y1939336D02*
X-10841084Y1945951D01*
X-10841084Y1945951D02*
X-10861496Y1939880D01*
X-10861496Y1939880D02*
X-10872529Y1932154D01*
X-10872529Y1932154D02*
X-10885215Y1915050D01*
X-10583996Y1977985D02*
X-10621513Y1984601D01*
X-10621513Y1984601D02*
X-10641925Y1978529D01*
X-10641925Y1978529D02*
X-10652958Y1970804D01*
X-10652958Y1970804D02*
X-10676678Y1945974D01*
X-10676678Y1945974D02*
X-10692672Y1910111D01*
X-10692672Y1910111D02*
X-10705902Y1835078D01*
X-10705902Y1835078D02*
X-10699831Y1814666D01*
X-10699831Y1814666D02*
X-10692105Y1803633D01*
X-10692105Y1803633D02*
X-10675001Y1790947D01*
X-10675001Y1790947D02*
X-10637484Y1784332D01*
X-10637484Y1784332D02*
X-10617072Y1790403D01*
X-10617072Y1790403D02*
X-10606039Y1798128D01*
X-10606039Y1798128D02*
X-10593353Y1815233D01*
X-10593353Y1815233D02*
X-10585084Y1862128D01*
X-10585084Y1862128D02*
X-10591155Y1882540D01*
X-10591155Y1882540D02*
X-10598881Y1893573D01*
X-10598881Y1893573D02*
X-10615985Y1906260D01*
X-10615985Y1906260D02*
X-10653502Y1912875D01*
X-10653502Y1912875D02*
X-10673914Y1906804D01*
X-10673914Y1906804D02*
X-10684947Y1899078D01*
X-10684947Y1899078D02*
X-10697633Y1881974D01*
D12*
X-2453696Y2413895D02*
X-2491792Y2375800D01*
X-2491792Y2375800D02*
X-2606077Y2337704D01*
X-2606077Y2337704D02*
X-2682268Y2337704D01*
X-2682268Y2337704D02*
X-2796554Y2375800D01*
X-2796554Y2375800D02*
X-2872744Y2451990D01*
X-2872744Y2451990D02*
X-2910839Y2528180D01*
X-2910839Y2528180D02*
X-2948935Y2680561D01*
X-2948935Y2680561D02*
X-2948935Y2794847D01*
X-2948935Y2794847D02*
X-2910839Y2947228D01*
X-2910839Y2947228D02*
X-2872744Y3023419D01*
X-2872744Y3023419D02*
X-2796554Y3099609D01*
X-2796554Y3099609D02*
X-2682268Y3137704D01*
X-2682268Y3137704D02*
X-2606077Y3137704D01*
X-2606077Y3137704D02*
X-2491792Y3099609D01*
X-2491792Y3099609D02*
X-2453696Y3061514D01*
X-2148935Y3061514D02*
X-2110839Y3099609D01*
X-2110839Y3099609D02*
X-2034649Y3137704D01*
X-2034649Y3137704D02*
X-1844173Y3137704D01*
X-1844173Y3137704D02*
X-1767982Y3099609D01*
X-1767982Y3099609D02*
X-1729887Y3061514D01*
X-1729887Y3061514D02*
X-1691792Y2985323D01*
X-1691792Y2985323D02*
X-1691792Y2909133D01*
X-1691792Y2909133D02*
X-1729887Y2794847D01*
X-1729887Y2794847D02*
X-2187030Y2337704D01*
X-2187030Y2337704D02*
X-1691792Y2337704D01*
X-4133332Y2413895D02*
X-4171428Y2375800D01*
X-4171428Y2375800D02*
X-4285713Y2337704D01*
X-4285713Y2337704D02*
X-4361904Y2337704D01*
X-4361904Y2337704D02*
X-4476190Y2375800D01*
X-4476190Y2375800D02*
X-4552380Y2451990D01*
X-4552380Y2451990D02*
X-4590475Y2528180D01*
X-4590475Y2528180D02*
X-4628571Y2680561D01*
X-4628571Y2680561D02*
X-4628571Y2794847D01*
X-4628571Y2794847D02*
X-4590475Y2947228D01*
X-4590475Y2947228D02*
X-4552380Y3023419D01*
X-4552380Y3023419D02*
X-4476190Y3099609D01*
X-4476190Y3099609D02*
X-4361904Y3137704D01*
X-4361904Y3137704D02*
X-4285713Y3137704D01*
X-4285713Y3137704D02*
X-4171428Y3099609D01*
X-4171428Y3099609D02*
X-4133332Y3061514D01*
X-3828571Y3061514D02*
X-3790475Y3099609D01*
X-3790475Y3099609D02*
X-3714285Y3137704D01*
X-3714285Y3137704D02*
X-3523809Y3137704D01*
X-3523809Y3137704D02*
X-3447618Y3099609D01*
X-3447618Y3099609D02*
X-3409523Y3061514D01*
X-3409523Y3061514D02*
X-3371428Y2985323D01*
X-3371428Y2985323D02*
X-3371428Y2909133D01*
X-3371428Y2909133D02*
X-3409523Y2794847D01*
X-3409523Y2794847D02*
X-3866666Y2337704D01*
X-3866666Y2337704D02*
X-3371428Y2337704D01*
D10*
X4331908Y-9950718D02*
X4514617Y-9869371D01*
X4514617Y-9869371D02*
X4533985Y-9912873D01*
X4533985Y-9912873D02*
X4536906Y-9942848D01*
X4536906Y-9942848D02*
X4527253Y-9967996D01*
X4527253Y-9967996D02*
X4513725Y-9984444D01*
X4513725Y-9984444D02*
X4482797Y-10008639D01*
X4482797Y-10008639D02*
X4456696Y-10020260D01*
X4456696Y-10020260D02*
X4418021Y-10027055D01*
X4418021Y-10027055D02*
X4396746Y-10026101D01*
X4396746Y-10026101D02*
X4371598Y-10016448D01*
X4371598Y-10016448D02*
X4351276Y-9994220D01*
X4351276Y-9994220D02*
X4331908Y-9950718D01*
X4588217Y-10034679D02*
X4642449Y-10156485D01*
X4642449Y-10156485D02*
X4424876Y-10159529D01*
X9629001Y-4796461D02*
X9716675Y-4616702D01*
X9716675Y-4616702D02*
X9759475Y-4637577D01*
X9759475Y-4637577D02*
X9780980Y-4658662D01*
X9780980Y-4658662D02*
X9789750Y-4684132D01*
X9789750Y-4684132D02*
X9789960Y-4705427D01*
X9789960Y-4705427D02*
X9781820Y-4743841D01*
X9781820Y-4743841D02*
X9769295Y-4769521D01*
X9769295Y-4769521D02*
X9744035Y-4799586D01*
X9744035Y-4799586D02*
X9727125Y-4812531D01*
X9727125Y-4812531D02*
X9701656Y-4821301D01*
X9701656Y-4821301D02*
X9671801Y-4817336D01*
X9671801Y-4817336D02*
X9629001Y-4796461D01*
X9902919Y-4930060D02*
X9800200Y-4879960D01*
X9851560Y-4905010D02*
X9939234Y-4725251D01*
X9939234Y-4725251D02*
X9909589Y-4742581D01*
X9909589Y-4742581D02*
X9884119Y-4751351D01*
X9884119Y-4751351D02*
X9862824Y-4751561D01*
X10050513Y-4779526D02*
X10170352Y-4837975D01*
X10170352Y-4837975D02*
X10005638Y-4980159D01*
X2904870Y-10456785D02*
X3097122Y-10401658D01*
X3097122Y-10401658D02*
X3110248Y-10447432D01*
X3110248Y-10447432D02*
X3108968Y-10477522D01*
X3108968Y-10477522D02*
X3095909Y-10501082D01*
X3095909Y-10501082D02*
X3080224Y-10515487D01*
X3080224Y-10515487D02*
X3046230Y-10535142D01*
X3046230Y-10535142D02*
X3018765Y-10543018D01*
X3018765Y-10543018D02*
X2979521Y-10544363D01*
X2979521Y-10544363D02*
X2958586Y-10540459D01*
X2958586Y-10540459D02*
X2935026Y-10527399D01*
X2935026Y-10527399D02*
X2917995Y-10502560D01*
X2917995Y-10502560D02*
X2904870Y-10456785D01*
X3178501Y-10685459D02*
X3152250Y-10593910D01*
X3152250Y-10593910D02*
X3058076Y-10611007D01*
X3058076Y-10611007D02*
X3069856Y-10617536D01*
X3069856Y-10617536D02*
X3084261Y-10633221D01*
X3084261Y-10633221D02*
X3097387Y-10678995D01*
X3097387Y-10678995D02*
X3093482Y-10699930D01*
X3093482Y-10699930D02*
X3086952Y-10711710D01*
X3086952Y-10711710D02*
X3071268Y-10726115D01*
X3071268Y-10726115D02*
X3025493Y-10739241D01*
X3025493Y-10739241D02*
X3004558Y-10735336D01*
X3004558Y-10735336D02*
X2992778Y-10728806D01*
X2992778Y-10728806D02*
X2978373Y-10713122D01*
X2978373Y-10713122D02*
X2965248Y-10667348D01*
X2965248Y-10667348D02*
X2969152Y-10646413D01*
X2969152Y-10646413D02*
X2975682Y-10634633D01*
X-7745216Y-8149862D02*
X-7889084Y-8010931D01*
X-7889084Y-8010931D02*
X-7856005Y-7976677D01*
X-7856005Y-7976677D02*
X-7829307Y-7962740D01*
X-7829307Y-7962740D02*
X-7802374Y-7962270D01*
X-7802374Y-7962270D02*
X-7782056Y-7968650D01*
X-7782056Y-7968650D02*
X-7748037Y-7988263D01*
X-7748037Y-7988263D02*
X-7727485Y-8008110D01*
X-7727485Y-8008110D02*
X-7706697Y-8041424D01*
X-7706697Y-8041424D02*
X-7699611Y-8061507D01*
X-7699611Y-8061507D02*
X-7699141Y-8088440D01*
X-7699141Y-8088440D02*
X-7712137Y-8115608D01*
X-7712137Y-8115608D02*
X-7745216Y-8149862D01*
X-7668648Y-7906052D02*
X-7688730Y-7913138D01*
X-7688730Y-7913138D02*
X-7702197Y-7913373D01*
X-7702197Y-7913373D02*
X-7722514Y-7906993D01*
X-7722514Y-7906993D02*
X-7729365Y-7900377D01*
X-7729365Y-7900377D02*
X-7736451Y-7880294D01*
X-7736451Y-7880294D02*
X-7736686Y-7866828D01*
X-7736686Y-7866828D02*
X-7730305Y-7846510D01*
X-7730305Y-7846510D02*
X-7703842Y-7819107D01*
X-7703842Y-7819107D02*
X-7683760Y-7812021D01*
X-7683760Y-7812021D02*
X-7670293Y-7811786D01*
X-7670293Y-7811786D02*
X-7649975Y-7818167D01*
X-7649975Y-7818167D02*
X-7643125Y-7824782D01*
X-7643125Y-7824782D02*
X-7636039Y-7844865D01*
X-7636039Y-7844865D02*
X-7635804Y-7858332D01*
X-7635804Y-7858332D02*
X-7642184Y-7878649D01*
X-7642184Y-7878649D02*
X-7668648Y-7906052D01*
X-7668648Y-7906052D02*
X-7675028Y-7926370D01*
X-7675028Y-7926370D02*
X-7674793Y-7939837D01*
X-7674793Y-7939837D02*
X-7667707Y-7959919D01*
X-7667707Y-7959919D02*
X-7640304Y-7986382D01*
X-7640304Y-7986382D02*
X-7619986Y-7992763D01*
X-7619986Y-7992763D02*
X-7606520Y-7992528D01*
X-7606520Y-7992528D02*
X-7586437Y-7985442D01*
X-7586437Y-7985442D02*
X-7559974Y-7958039D01*
X-7559974Y-7958039D02*
X-7553593Y-7937721D01*
X-7553593Y-7937721D02*
X-7553828Y-7924254D01*
X-7553828Y-7924254D02*
X-7560914Y-7904172D01*
X-7560914Y-7904172D02*
X-7588318Y-7877709D01*
X-7588318Y-7877709D02*
X-7608635Y-7871328D01*
X-7608635Y-7871328D02*
X-7622102Y-7871563D01*
X-7622102Y-7871563D02*
X-7642184Y-7878649D01*
X-7591374Y-7702642D02*
X-7578142Y-7688941D01*
X-7578142Y-7688941D02*
X-7558060Y-7681855D01*
X-7558060Y-7681855D02*
X-7544593Y-7681620D01*
X-7544593Y-7681620D02*
X-7524276Y-7688001D01*
X-7524276Y-7688001D02*
X-7490256Y-7707613D01*
X-7490256Y-7707613D02*
X-7456002Y-7740692D01*
X-7456002Y-7740692D02*
X-7435214Y-7774006D01*
X-7435214Y-7774006D02*
X-7428128Y-7794088D01*
X-7428128Y-7794088D02*
X-7427893Y-7807555D01*
X-7427893Y-7807555D02*
X-7434274Y-7827872D01*
X-7434274Y-7827872D02*
X-7447506Y-7841574D01*
X-7447506Y-7841574D02*
X-7467588Y-7848660D01*
X-7467588Y-7848660D02*
X-7481055Y-7848895D01*
X-7481055Y-7848895D02*
X-7501372Y-7842514D01*
X-7501372Y-7842514D02*
X-7535392Y-7822902D01*
X-7535392Y-7822902D02*
X-7569646Y-7789823D01*
X-7569646Y-7789823D02*
X-7590433Y-7756509D01*
X-7590433Y-7756509D02*
X-7597519Y-7736427D01*
X-7597519Y-7736427D02*
X-7597754Y-7722960D01*
X-7597754Y-7722960D02*
X-7591374Y-7702642D01*
X10747452Y-465293D02*
X10754432Y-265415D01*
X10754432Y-265415D02*
X10802022Y-267077D01*
X10802022Y-267077D02*
X10830244Y-277592D01*
X10830244Y-277592D02*
X10848615Y-297293D01*
X10848615Y-297293D02*
X10857468Y-316661D01*
X10857468Y-316661D02*
X10865657Y-355065D01*
X10865657Y-355065D02*
X10864660Y-383619D01*
X10864660Y-383619D02*
X10853812Y-421359D01*
X10853812Y-421359D02*
X10843629Y-440063D01*
X10843629Y-440063D02*
X10823929Y-458434D01*
X10823929Y-458434D02*
X10795042Y-466955D01*
X10795042Y-466955D02*
X10747452Y-465293D01*
X10944127Y-291098D02*
X10953978Y-281913D01*
X10953978Y-281913D02*
X10973346Y-273059D01*
X10973346Y-273059D02*
X11020936Y-274721D01*
X11020936Y-274721D02*
X11039640Y-284904D01*
X11039640Y-284904D02*
X11048826Y-294754D01*
X11048826Y-294754D02*
X11057679Y-314123D01*
X11057679Y-314123D02*
X11057014Y-333159D01*
X11057014Y-333159D02*
X11046499Y-361381D01*
X11046499Y-361381D02*
X10928294Y-471608D01*
X10928294Y-471608D02*
X11052028Y-475929D01*
X11125634Y-278377D02*
X11249368Y-282698D01*
X11249368Y-282698D02*
X11180083Y-356516D01*
X11180083Y-356516D02*
X11208637Y-357513D01*
X11208637Y-357513D02*
X11227341Y-367696D01*
X11227341Y-367696D02*
X11236527Y-377546D01*
X11236527Y-377546D02*
X11245380Y-396914D01*
X11245380Y-396914D02*
X11243718Y-444504D01*
X11243718Y-444504D02*
X11233535Y-463208D01*
X11233535Y-463208D02*
X11223685Y-472394D01*
X11223685Y-472394D02*
X11204316Y-481247D01*
X11204316Y-481247D02*
X11147208Y-479253D01*
X11147208Y-479253D02*
X11128505Y-469070D01*
X11128505Y-469070D02*
X11119319Y-459220D01*
X-10390486Y-4295051D02*
X-10465408Y-4109614D01*
X-10465408Y-4109614D02*
X-10421256Y-4091776D01*
X-10421256Y-4091776D02*
X-10391198Y-4089903D01*
X-10391198Y-4089903D02*
X-10366402Y-4100429D01*
X-10366402Y-4100429D02*
X-10350436Y-4114522D01*
X-10350436Y-4114522D02*
X-10327335Y-4146275D01*
X-10327335Y-4146275D02*
X-10316632Y-4172766D01*
X-10316632Y-4172766D02*
X-10311191Y-4211655D01*
X-10311191Y-4211655D02*
X-10312886Y-4232883D01*
X-10312886Y-4232883D02*
X-10323412Y-4257679D01*
X-10323412Y-4257679D02*
X-10346335Y-4277213D01*
X-10346335Y-4277213D02*
X-10390486Y-4295051D01*
X-10297632Y-4041828D02*
X-10174007Y-3991881D01*
X-10174007Y-3991881D02*
X-10178559Y-4209427D01*
X-9998918Y-3993043D02*
X-9948971Y-4116667D01*
X-10071611Y-3940239D02*
X-10062248Y-4090532D01*
X-10062248Y-4090532D02*
X-9947453Y-4044152D01*
X-9371022Y6212353D02*
X-9259183Y6378161D01*
X-9259183Y6378161D02*
X-9219705Y6351532D01*
X-9219705Y6351532D02*
X-9201344Y6327660D01*
X-9201344Y6327660D02*
X-9196204Y6301217D01*
X-9196204Y6301217D02*
X-9198960Y6280101D01*
X-9198960Y6280101D02*
X-9212367Y6243193D01*
X-9212367Y6243193D02*
X-9228344Y6219506D01*
X-9228344Y6219506D02*
X-9257542Y6193249D01*
X-9257542Y6193249D02*
X-9276089Y6182783D01*
X-9276089Y6182783D02*
X-9302531Y6177644D01*
X-9302531Y6177644D02*
X-9331544Y6185725D01*
X-9331544Y6185725D02*
X-9371022Y6212353D01*
X-9022315Y6218391D02*
X-9053898Y6239694D01*
X-9053898Y6239694D02*
X-9075015Y6242450D01*
X-9075015Y6242450D02*
X-9088236Y6239880D01*
X-9088236Y6239880D02*
X-9120004Y6226844D01*
X-9120004Y6226844D02*
X-9149202Y6200587D01*
X-9149202Y6200587D02*
X-9191807Y6137423D01*
X-9191807Y6137423D02*
X-9194563Y6116306D01*
X-9194563Y6116306D02*
X-9191993Y6103085D01*
X-9191993Y6103085D02*
X-9181527Y6084538D01*
X-9181527Y6084538D02*
X-9149945Y6063235D01*
X-9149945Y6063235D02*
X-9128828Y6060479D01*
X-9128828Y6060479D02*
X-9115607Y6063049D01*
X-9115607Y6063049D02*
X-9097060Y6073515D01*
X-9097060Y6073515D02*
X-9070432Y6112993D01*
X-9070432Y6112993D02*
X-9067676Y6134110D01*
X-9067676Y6134110D02*
X-9070246Y6147331D01*
X-9070246Y6147331D02*
X-9080712Y6165878D01*
X-9080712Y6165878D02*
X-9112294Y6187180D01*
X-9112294Y6187180D02*
X-9133411Y6189936D01*
X-9133411Y6189936D02*
X-9146632Y6187366D01*
X-9146632Y6187366D02*
X-9165179Y6176901D01*
X-8903882Y6138507D02*
X-8888090Y6127855D01*
X-8888090Y6127855D02*
X-8877625Y6109309D01*
X-8877625Y6109309D02*
X-8875055Y6096087D01*
X-8875055Y6096087D02*
X-8877811Y6074970D01*
X-8877811Y6074970D02*
X-8891218Y6038062D01*
X-8891218Y6038062D02*
X-8917846Y5998584D01*
X-8917846Y5998584D02*
X-8947044Y5972328D01*
X-8947044Y5972328D02*
X-8965591Y5961862D01*
X-8965591Y5961862D02*
X-8978812Y5959292D01*
X-8978812Y5959292D02*
X-8999929Y5962048D01*
X-8999929Y5962048D02*
X-9015720Y5972699D01*
X-9015720Y5972699D02*
X-9026186Y5991246D01*
X-9026186Y5991246D02*
X-9028756Y6004467D01*
X-9028756Y6004467D02*
X-9026000Y6025584D01*
X-9026000Y6025584D02*
X-9012593Y6062492D01*
X-9012593Y6062492D02*
X-8985965Y6101970D01*
X-8985965Y6101970D02*
X-8956767Y6128227D01*
X-8956767Y6128227D02*
X-8938220Y6138692D01*
X-8938220Y6138692D02*
X-8924998Y6141262D01*
X-8924998Y6141262D02*
X-8903882Y6138507D01*
X7933951Y-7264723D02*
X8067777Y-7116094D01*
X8067777Y-7116094D02*
X8103165Y-7147957D01*
X8103165Y-7147957D02*
X8118025Y-7174153D01*
X8118025Y-7174153D02*
X8119435Y-7201053D01*
X8119435Y-7201053D02*
X8113767Y-7221581D01*
X8113767Y-7221581D02*
X8095354Y-7256264D01*
X8095354Y-7256264D02*
X8076236Y-7277497D01*
X8076236Y-7277497D02*
X8043667Y-7299434D01*
X8043667Y-7299434D02*
X8023845Y-7307217D01*
X8023845Y-7307217D02*
X7996944Y-7308627D01*
X7996944Y-7308627D02*
X7969339Y-7296586D01*
X7969339Y-7296586D02*
X7933951Y-7264723D01*
X8160433Y-7468648D02*
X8075502Y-7392176D01*
X8117968Y-7430412D02*
X8251794Y-7281783D01*
X8251794Y-7281783D02*
X8218521Y-7290271D01*
X8218521Y-7290271D02*
X8191620Y-7291681D01*
X8191620Y-7291681D02*
X8171092Y-7286013D01*
X8343802Y-7364628D02*
X8435810Y-7447473D01*
X8435810Y-7447473D02*
X8335286Y-7459485D01*
X8335286Y-7459485D02*
X8356519Y-7478603D01*
X8356519Y-7478603D02*
X8364301Y-7498426D01*
X8364301Y-7498426D02*
X8365006Y-7511876D01*
X8365006Y-7511876D02*
X8359338Y-7532404D01*
X8359338Y-7532404D02*
X8327475Y-7567791D01*
X8327475Y-7567791D02*
X8307652Y-7575574D01*
X8307652Y-7575574D02*
X8294202Y-7576279D01*
X8294202Y-7576279D02*
X8273674Y-7570611D01*
X8273674Y-7570611D02*
X8231209Y-7532375D01*
X8231209Y-7532375D02*
X8223426Y-7512552D01*
X8223426Y-7512552D02*
X8222721Y-7499102D01*
X10007513Y3946348D02*
X9932591Y4131785D01*
X9932591Y4131785D02*
X9976743Y4149623D01*
X9976743Y4149623D02*
X10006801Y4151496D01*
X10006801Y4151496D02*
X10031597Y4140970D01*
X10031597Y4140970D02*
X10047563Y4126877D01*
X10047563Y4126877D02*
X10070664Y4095124D01*
X10070664Y4095124D02*
X10081367Y4068633D01*
X10081367Y4068633D02*
X10086808Y4029744D01*
X10086808Y4029744D02*
X10085113Y4008516D01*
X10085113Y4008516D02*
X10074587Y3983720D01*
X10074587Y3983720D02*
X10051664Y3964186D01*
X10051664Y3964186D02*
X10007513Y3946348D01*
X10116333Y4185478D02*
X10121596Y4197876D01*
X10121596Y4197876D02*
X10135689Y4213841D01*
X10135689Y4213841D02*
X10179840Y4231680D01*
X10179840Y4231680D02*
X10201069Y4229985D01*
X10201069Y4229985D02*
X10213467Y4224722D01*
X10213467Y4224722D02*
X10229432Y4210629D01*
X10229432Y4210629D02*
X10236568Y4192968D01*
X10236568Y4192968D02*
X10238440Y4162910D01*
X10238440Y4162910D02*
X10175289Y4014134D01*
X10175289Y4014134D02*
X10290083Y4060514D01*
X10378386Y4096190D02*
X10413707Y4110461D01*
X10413707Y4110461D02*
X10427800Y4126427D01*
X10427800Y4126427D02*
X10433063Y4138825D01*
X10433063Y4138825D02*
X10440020Y4172451D01*
X10440020Y4172451D02*
X10434580Y4211340D01*
X10434580Y4211340D02*
X10406039Y4281983D01*
X10406039Y4281983D02*
X10390073Y4296076D01*
X10390073Y4296076D02*
X10377675Y4301338D01*
X10377675Y4301338D02*
X10356446Y4303033D01*
X10356446Y4303033D02*
X10321125Y4288762D01*
X10321125Y4288762D02*
X10307032Y4272797D01*
X10307032Y4272797D02*
X10301770Y4260399D01*
X10301770Y4260399D02*
X10300075Y4239170D01*
X10300075Y4239170D02*
X10317913Y4195019D01*
X10317913Y4195019D02*
X10333879Y4180926D01*
X10333879Y4180926D02*
X10346277Y4175663D01*
X10346277Y4175663D02*
X10367505Y4173968D01*
X10367505Y4173968D02*
X10402826Y4188239D01*
X10402826Y4188239D02*
X10416919Y4204205D01*
X10416919Y4204205D02*
X10422182Y4216603D01*
X10422182Y4216603D02*
X10423877Y4237831D01*
X8421363Y-6693643D02*
X8544495Y-6536041D01*
X8544495Y-6536041D02*
X8582020Y-6565358D01*
X8582020Y-6565358D02*
X8598671Y-6590453D01*
X8598671Y-6590453D02*
X8601954Y-6617190D01*
X8601954Y-6617190D02*
X8597732Y-6638063D01*
X8597732Y-6638063D02*
X8581783Y-6673946D01*
X8581783Y-6673946D02*
X8564192Y-6696460D01*
X8564192Y-6696460D02*
X8533234Y-6720616D01*
X8533234Y-6720616D02*
X8514002Y-6729763D01*
X8514002Y-6729763D02*
X8487265Y-6733045D01*
X8487265Y-6733045D02*
X8458887Y-6722960D01*
X8458887Y-6722960D02*
X8421363Y-6693643D01*
X8661519Y-6881273D02*
X8571460Y-6810912D01*
X8616489Y-6846092D02*
X8739622Y-6688490D01*
X8739622Y-6688490D02*
X8707022Y-6699278D01*
X8707022Y-6699278D02*
X8680285Y-6702561D01*
X8680285Y-6702561D02*
X8659412Y-6698339D01*
X8878694Y-6881747D02*
X8796606Y-6986815D01*
X8888077Y-6792391D02*
X8762602Y-6875646D01*
X8762602Y-6875646D02*
X8860165Y-6951871D01*
X89923Y-11147618D02*
X-110076Y-11147618D01*
X-110076Y-11147618D02*
X-110076Y-11099999D01*
X-110076Y-11099999D02*
X-100552Y-11071428D01*
X-100552Y-11071428D02*
X-81504Y-11052380D01*
X-81504Y-11052380D02*
X-62457Y-11042857D01*
X-62457Y-11042857D02*
X-24361Y-11033333D01*
X-24361Y-11033333D02*
X4209Y-11033333D01*
X4209Y-11033333D02*
X42304Y-11042857D01*
X42304Y-11042857D02*
X61352Y-11052380D01*
X61352Y-11052380D02*
X80400Y-11071428D01*
X80400Y-11071428D02*
X89923Y-11099999D01*
X89923Y-11099999D02*
X89923Y-11147618D01*
X89923Y-10842857D02*
X89923Y-10957142D01*
X89923Y-10899999D02*
X-110076Y-10899999D01*
X-110076Y-10899999D02*
X-81504Y-10919047D01*
X-81504Y-10919047D02*
X-62457Y-10938095D01*
X-62457Y-10938095D02*
X-52933Y-10957142D01*
X1421306Y-10759232D02*
X1619360Y-10731398D01*
X1619360Y-10731398D02*
X1625987Y-10778553D01*
X1625987Y-10778553D02*
X1620532Y-10808172D01*
X1620532Y-10808172D02*
X1604321Y-10829685D01*
X1604321Y-10829685D02*
X1586784Y-10841767D01*
X1586784Y-10841767D02*
X1550385Y-10856500D01*
X1550385Y-10856500D02*
X1522092Y-10860477D01*
X1522092Y-10860477D02*
X1483042Y-10856347D01*
X1483042Y-10856347D02*
X1462854Y-10849567D01*
X1462854Y-10849567D02*
X1441341Y-10833356D01*
X1441341Y-10833356D02*
X1427934Y-10806388D01*
X1427934Y-10806388D02*
X1421306Y-10759232D01*
X1644544Y-10910589D02*
X1661775Y-11033194D01*
X1661775Y-11033194D02*
X1577047Y-10977779D01*
X1577047Y-10977779D02*
X1581024Y-11006073D01*
X1581024Y-11006073D02*
X1574243Y-11026260D01*
X1574243Y-11026260D02*
X1566138Y-11037017D01*
X1566138Y-11037017D02*
X1548601Y-11049099D01*
X1548601Y-11049099D02*
X1501445Y-11055726D01*
X1501445Y-11055726D02*
X1481258Y-11048946D01*
X1481258Y-11048946D02*
X1470501Y-11040840D01*
X1470501Y-11040840D02*
X1458419Y-11023304D01*
X1458419Y-11023304D02*
X1450466Y-10966717D01*
X1450466Y-10966717D02*
X1457247Y-10946529D01*
X1457247Y-10946529D02*
X1465352Y-10935773D01*
X10688773Y-1213845D02*
X10709679Y-1014941D01*
X10709679Y-1014941D02*
X10757037Y-1019918D01*
X10757037Y-1019918D02*
X10784457Y-1032377D01*
X10784457Y-1032377D02*
X10801409Y-1053311D01*
X10801409Y-1053311D02*
X10808890Y-1073250D01*
X10808890Y-1073250D02*
X10814379Y-1112132D01*
X10814379Y-1112132D02*
X10811393Y-1140547D01*
X10811393Y-1140547D02*
X10797939Y-1177438D01*
X10797939Y-1177438D02*
X10786476Y-1195385D01*
X10786476Y-1195385D02*
X10765542Y-1212338D01*
X10765542Y-1212338D02*
X10736132Y-1218823D01*
X10736132Y-1218823D02*
X10688773Y-1213845D01*
X10897121Y-1053794D02*
X10907588Y-1045318D01*
X10907588Y-1045318D02*
X10927527Y-1037838D01*
X10927527Y-1037838D02*
X10974885Y-1042815D01*
X10974885Y-1042815D02*
X10992833Y-1054278D01*
X10992833Y-1054278D02*
X11001309Y-1064745D01*
X11001309Y-1064745D02*
X11008789Y-1084684D01*
X11008789Y-1084684D02*
X11006798Y-1103627D01*
X11006798Y-1103627D02*
X10994340Y-1131046D01*
X10994340Y-1131046D02*
X10868734Y-1232760D01*
X10868734Y-1232760D02*
X10991866Y-1245702D01*
X11086553Y-1073704D02*
X11097020Y-1065228D01*
X11097020Y-1065228D02*
X11116959Y-1057748D01*
X11116959Y-1057748D02*
X11164317Y-1062725D01*
X11164317Y-1062725D02*
X11182265Y-1074188D01*
X11182265Y-1074188D02*
X11190741Y-1084655D01*
X11190741Y-1084655D02*
X11198222Y-1104594D01*
X11198222Y-1104594D02*
X11196231Y-1123537D01*
X11196231Y-1123537D02*
X11183773Y-1150957D01*
X11183773Y-1150957D02*
X11058167Y-1252670D01*
X11058167Y-1252670D02*
X11181298Y-1265612D01*
X89923Y10757143D02*
X-110076Y10757143D01*
X-110076Y10757143D02*
X-110076Y10804762D01*
X-110076Y10804762D02*
X-100552Y10833333D01*
X-100552Y10833333D02*
X-81504Y10852381D01*
X-81504Y10852381D02*
X-62457Y10861904D01*
X-62457Y10861904D02*
X-24361Y10871428D01*
X-24361Y10871428D02*
X4209Y10871428D01*
X4209Y10871428D02*
X42304Y10861904D01*
X42304Y10861904D02*
X61352Y10852381D01*
X61352Y10852381D02*
X80400Y10833333D01*
X80400Y10833333D02*
X89923Y10804762D01*
X89923Y10804762D02*
X89923Y10757143D01*
X-43409Y11042857D02*
X89923Y11042857D01*
X-119600Y10995238D02*
X23257Y10947619D01*
X23257Y10947619D02*
X23257Y11071428D01*
X-110076Y11233333D02*
X-110076Y11195238D01*
X-110076Y11195238D02*
X-100552Y11176190D01*
X-100552Y11176190D02*
X-91028Y11166666D01*
X-91028Y11166666D02*
X-62457Y11147619D01*
X-62457Y11147619D02*
X-24361Y11138095D01*
X-24361Y11138095D02*
X51828Y11138095D01*
X51828Y11138095D02*
X70876Y11147619D01*
X70876Y11147619D02*
X80400Y11157142D01*
X80400Y11157142D02*
X89923Y11176190D01*
X89923Y11176190D02*
X89923Y11214285D01*
X89923Y11214285D02*
X80400Y11233333D01*
X80400Y11233333D02*
X70876Y11242857D01*
X70876Y11242857D02*
X51828Y11252380D01*
X51828Y11252380D02*
X4209Y11252380D01*
X4209Y11252380D02*
X-14838Y11242857D01*
X-14838Y11242857D02*
X-24361Y11233333D01*
X-24361Y11233333D02*
X-33885Y11214285D01*
X-33885Y11214285D02*
X-33885Y11176190D01*
X-33885Y11176190D02*
X-24361Y11157142D01*
X-24361Y11157142D02*
X-14838Y11147619D01*
X-14838Y11147619D02*
X4209Y11138095D01*
X6395602Y8649868D02*
X6233798Y8767425D01*
X6233798Y8767425D02*
X6261788Y8805950D01*
X6261788Y8805950D02*
X6286287Y8823467D01*
X6286287Y8823467D02*
X6312893Y8827681D01*
X6312893Y8827681D02*
X6333900Y8824190D01*
X6333900Y8824190D02*
X6370318Y8809503D01*
X6370318Y8809503D02*
X6393433Y8792709D01*
X6393433Y8792709D02*
X6418655Y8762612D01*
X6418655Y8762612D02*
X6428466Y8743711D01*
X6428466Y8743711D02*
X6432680Y8717106D01*
X6432680Y8717106D02*
X6423591Y8688393D01*
X6423591Y8688393D02*
X6395602Y8649868D01*
X6340159Y8913819D02*
X6412933Y9013983D01*
X6412933Y9013983D02*
X6435387Y8915265D01*
X6435387Y8915265D02*
X6452180Y8938379D01*
X6452180Y8938379D02*
X6471081Y8948191D01*
X6471081Y8948191D02*
X6484384Y8950298D01*
X6484384Y8950298D02*
X6505392Y8946807D01*
X6505392Y8946807D02*
X6543917Y8918818D01*
X6543917Y8918818D02*
X6553728Y8899917D01*
X6553728Y8899917D02*
X6555835Y8886614D01*
X6555835Y8886614D02*
X6552344Y8865606D01*
X6552344Y8865606D02*
X6518757Y8819377D01*
X6518757Y8819377D02*
X6499856Y8809565D01*
X6499856Y8809565D02*
X6486553Y8807458D01*
X6452118Y9067917D02*
X6530490Y9175786D01*
X6530490Y9175786D02*
X6641912Y8988885D01*
X-10457859Y4128299D02*
X-10382937Y4313736D01*
X-10382937Y4313736D02*
X-10338786Y4295898D01*
X-10338786Y4295898D02*
X-10315862Y4276364D01*
X-10315862Y4276364D02*
X-10305337Y4251568D01*
X-10305337Y4251568D02*
X-10303642Y4230340D01*
X-10303642Y4230340D02*
X-10309083Y4191451D01*
X-10309083Y4191451D02*
X-10319786Y4164960D01*
X-10319786Y4164960D02*
X-10342887Y4133207D01*
X-10342887Y4133207D02*
X-10358852Y4119114D01*
X-10358852Y4119114D02*
X-10383648Y4108588D01*
X-10383648Y4108588D02*
X-10413707Y4110461D01*
X-10413707Y4110461D02*
X-10457859Y4128299D01*
X-10118028Y4206706D02*
X-10153349Y4220976D01*
X-10153349Y4220976D02*
X-10174577Y4219281D01*
X-10174577Y4219281D02*
X-10186975Y4214019D01*
X-10186975Y4214019D02*
X-10215339Y4194663D01*
X-10215339Y4194663D02*
X-10238440Y4162910D01*
X-10238440Y4162910D02*
X-10266981Y4092267D01*
X-10266981Y4092267D02*
X-10265286Y4071039D01*
X-10265286Y4071039D02*
X-10260024Y4058641D01*
X-10260024Y4058641D02*
X-10245931Y4042675D01*
X-10245931Y4042675D02*
X-10210610Y4028404D01*
X-10210610Y4028404D02*
X-10189381Y4030099D01*
X-10189381Y4030099D02*
X-10176983Y4035362D01*
X-10176983Y4035362D02*
X-10161018Y4049455D01*
X-10161018Y4049455D02*
X-10143179Y4093606D01*
X-10143179Y4093606D02*
X-10144874Y4114835D01*
X-10144874Y4114835D02*
X-10150137Y4127233D01*
X-10150137Y4127233D02*
X-10164230Y4143199D01*
X-10164230Y4143199D02*
X-10199551Y4157469D01*
X-10199551Y4157469D02*
X-10220779Y4155774D01*
X-10220779Y4155774D02*
X-10233177Y4150512D01*
X-10233177Y4150512D02*
X-10249143Y4136419D01*
X-10038555Y4174597D02*
X-9923761Y4128217D01*
X-9923761Y4128217D02*
X-10014114Y4082548D01*
X-10014114Y4082548D02*
X-9987623Y4071845D01*
X-9987623Y4071845D02*
X-9973530Y4055879D01*
X-9973530Y4055879D02*
X-9968268Y4043481D01*
X-9968268Y4043481D02*
X-9966573Y4022253D01*
X-9966573Y4022253D02*
X-9984411Y3978101D01*
X-9984411Y3978101D02*
X-10000377Y3964008D01*
X-10000377Y3964008D02*
X-10012775Y3958746D01*
X-10012775Y3958746D02*
X-10034003Y3957051D01*
X-10034003Y3957051D02*
X-10086985Y3978457D01*
X-10086985Y3978457D02*
X-10101078Y3994423D01*
X-10101078Y3994423D02*
X-10106341Y4006821D01*
X-8804111Y-6992678D02*
X-8927243Y-6835076D01*
X-8927243Y-6835076D02*
X-8889719Y-6805759D01*
X-8889719Y-6805759D02*
X-8861341Y-6795673D01*
X-8861341Y-6795673D02*
X-8834604Y-6798956D01*
X-8834604Y-6798956D02*
X-8815372Y-6808102D01*
X-8815372Y-6808102D02*
X-8784414Y-6832258D01*
X-8784414Y-6832258D02*
X-8766823Y-6854773D01*
X-8766823Y-6854773D02*
X-8750874Y-6890656D01*
X-8750874Y-6890656D02*
X-8746652Y-6911529D01*
X-8746652Y-6911529D02*
X-8749935Y-6938266D01*
X-8749935Y-6938266D02*
X-8766586Y-6963361D01*
X-8766586Y-6963361D02*
X-8804111Y-6992678D01*
X-8784651Y-6723671D02*
X-8679583Y-6641582D01*
X-8679583Y-6641582D02*
X-8623994Y-6851955D01*
X-8544258Y-6644628D02*
X-8565131Y-6648850D01*
X-8565131Y-6648850D02*
X-8578500Y-6647209D01*
X-8578500Y-6647209D02*
X-8597731Y-6638063D01*
X-8597731Y-6638063D02*
X-8603595Y-6630558D01*
X-8603595Y-6630558D02*
X-8607817Y-6609685D01*
X-8607817Y-6609685D02*
X-8606175Y-6596316D01*
X-8606175Y-6596316D02*
X-8597029Y-6577085D01*
X-8597029Y-6577085D02*
X-8567010Y-6553631D01*
X-8567010Y-6553631D02*
X-8546137Y-6549409D01*
X-8546137Y-6549409D02*
X-8532768Y-6551050D01*
X-8532768Y-6551050D02*
X-8513536Y-6560197D01*
X-8513536Y-6560197D02*
X-8507673Y-6567701D01*
X-8507673Y-6567701D02*
X-8503451Y-6588575D01*
X-8503451Y-6588575D02*
X-8505092Y-6601943D01*
X-8505092Y-6601943D02*
X-8514239Y-6621175D01*
X-8514239Y-6621175D02*
X-8544258Y-6644628D01*
X-8544258Y-6644628D02*
X-8553404Y-6663860D01*
X-8553404Y-6663860D02*
X-8555046Y-6677228D01*
X-8555046Y-6677228D02*
X-8550824Y-6698102D01*
X-8550824Y-6698102D02*
X-8527370Y-6728121D01*
X-8527370Y-6728121D02*
X-8508138Y-6737267D01*
X-8508138Y-6737267D02*
X-8494770Y-6738909D01*
X-8494770Y-6738909D02*
X-8473897Y-6734687D01*
X-8473897Y-6734687D02*
X-8443877Y-6711233D01*
X-8443877Y-6711233D02*
X-8434731Y-6692001D01*
X-8434731Y-6692001D02*
X-8433090Y-6678633D01*
X-8433090Y-6678633D02*
X-8437312Y-6657760D01*
X-8437312Y-6657760D02*
X-8460766Y-6627740D01*
X-8460766Y-6627740D02*
X-8479997Y-6618594D01*
X-8479997Y-6618594D02*
X-8493366Y-6616953D01*
X-8493366Y-6616953D02*
X-8514239Y-6621175D01*
X-3760761Y-10595566D02*
X-3948699Y-10527162D01*
X-3948699Y-10527162D02*
X-3932413Y-10482415D01*
X-3932413Y-10482415D02*
X-3913691Y-10458824D01*
X-3913691Y-10458824D02*
X-3889278Y-10447440D01*
X-3889278Y-10447440D02*
X-3868121Y-10445005D01*
X-3868121Y-10445005D02*
X-3829066Y-10449085D01*
X-3829066Y-10449085D02*
X-3802218Y-10458857D01*
X-3802218Y-10458857D02*
X-3769677Y-10480835D01*
X-3769677Y-10480835D02*
X-3755036Y-10496300D01*
X-3755036Y-10496300D02*
X-3743652Y-10520713D01*
X-3743652Y-10520713D02*
X-3744474Y-10550819D01*
X-3744474Y-10550819D02*
X-3760761Y-10595566D01*
X-3789978Y-10341691D02*
X-3805442Y-10356333D01*
X-3805442Y-10356333D02*
X-3817649Y-10362025D01*
X-3817649Y-10362025D02*
X-3838805Y-10364460D01*
X-3838805Y-10364460D02*
X-3847755Y-10361202D01*
X-3847755Y-10361202D02*
X-3862396Y-10345738D01*
X-3862396Y-10345738D02*
X-3868088Y-10333531D01*
X-3868088Y-10333531D02*
X-3870523Y-10312375D01*
X-3870523Y-10312375D02*
X-3857494Y-10276577D01*
X-3857494Y-10276577D02*
X-3842030Y-10261936D01*
X-3842030Y-10261936D02*
X-3829823Y-10256244D01*
X-3829823Y-10256244D02*
X-3808667Y-10253809D01*
X-3808667Y-10253809D02*
X-3799717Y-10257066D01*
X-3799717Y-10257066D02*
X-3785076Y-10272530D01*
X-3785076Y-10272530D02*
X-3779384Y-10284737D01*
X-3779384Y-10284737D02*
X-3776949Y-10305893D01*
X-3776949Y-10305893D02*
X-3789978Y-10341691D01*
X-3789978Y-10341691D02*
X-3787543Y-10362847D01*
X-3787543Y-10362847D02*
X-3781851Y-10375054D01*
X-3781851Y-10375054D02*
X-3767210Y-10390518D01*
X-3767210Y-10390518D02*
X-3731412Y-10403548D01*
X-3731412Y-10403548D02*
X-3710256Y-10401113D01*
X-3710256Y-10401113D02*
X-3698049Y-10395421D01*
X-3698049Y-10395421D02*
X-3682585Y-10380779D01*
X-3682585Y-10380779D02*
X-3669555Y-10344981D01*
X-3669555Y-10344981D02*
X-3671990Y-10323825D01*
X-3671990Y-10323825D02*
X-3677682Y-10311618D01*
X-3677682Y-10311618D02*
X-3692324Y-10296154D01*
X-3692324Y-10296154D02*
X-3728122Y-10283125D01*
X-3728122Y-10283125D02*
X-3749278Y-10285560D01*
X-3749278Y-10285560D02*
X-3761485Y-10291252D01*
X-3761485Y-10291252D02*
X-3776949Y-10305893D01*
X-3785833Y-10079690D02*
X-3798862Y-10115487D01*
X-3798862Y-10115487D02*
X-3796427Y-10136644D01*
X-3796427Y-10136644D02*
X-3790735Y-10148850D01*
X-3790735Y-10148850D02*
X-3770401Y-10176521D01*
X-3770401Y-10176521D02*
X-3737861Y-10198500D01*
X-3737861Y-10198500D02*
X-3666265Y-10224559D01*
X-3666265Y-10224559D02*
X-3645109Y-10222124D01*
X-3645109Y-10222124D02*
X-3632902Y-10216432D01*
X-3632902Y-10216432D02*
X-3617438Y-10201790D01*
X-3617438Y-10201790D02*
X-3604409Y-10165993D01*
X-3604409Y-10165993D02*
X-3606844Y-10144836D01*
X-3606844Y-10144836D02*
X-3612536Y-10132630D01*
X-3612536Y-10132630D02*
X-3627177Y-10117165D01*
X-3627177Y-10117165D02*
X-3671924Y-10100879D01*
X-3671924Y-10100879D02*
X-3693081Y-10103314D01*
X-3693081Y-10103314D02*
X-3705288Y-10109006D01*
X-3705288Y-10109006D02*
X-3720752Y-10123647D01*
X-3720752Y-10123647D02*
X-3733781Y-10159445D01*
X-3733781Y-10159445D02*
X-3731346Y-10180601D01*
X-3731346Y-10180601D02*
X-3725654Y-10192808D01*
X-3725654Y-10192808D02*
X-3711012Y-10208272D01*
D12*
X689819Y2306666D02*
X1404104Y2306666D01*
X1404104Y2306666D02*
X1546961Y2259047D01*
X1546961Y2259047D02*
X1642200Y2163809D01*
X1642200Y2163809D02*
X1689819Y2020952D01*
X1689819Y2020952D02*
X1689819Y1925714D01*
X1689819Y3306666D02*
X1689819Y2735238D01*
X1689819Y3020952D02*
X689819Y3020952D01*
X689819Y3020952D02*
X832676Y2925714D01*
X832676Y2925714D02*
X927914Y2830476D01*
X927914Y2830476D02*
X975533Y2735238D01*
D10*
X-5198816Y-9969046D02*
X-5375405Y-9875152D01*
X-5375405Y-9875152D02*
X-5353050Y-9833107D01*
X-5353050Y-9833107D02*
X-5331227Y-9812351D01*
X-5331227Y-9812351D02*
X-5305467Y-9804475D01*
X-5305467Y-9804475D02*
X-5284178Y-9805008D01*
X-5284178Y-9805008D02*
X-5246070Y-9814484D01*
X-5246070Y-9814484D02*
X-5220843Y-9827897D01*
X-5220843Y-9827897D02*
X-5191678Y-9854191D01*
X-5191678Y-9854191D02*
X-5179331Y-9871542D01*
X-5179331Y-9871542D02*
X-5171456Y-9897303D01*
X-5171456Y-9897303D02*
X-5176460Y-9927001D01*
X-5176460Y-9927001D02*
X-5198816Y-9969046D01*
X-5192416Y-9713576D02*
X-5209768Y-9725923D01*
X-5209768Y-9725923D02*
X-5222648Y-9729860D01*
X-5222648Y-9729860D02*
X-5243937Y-9729327D01*
X-5243937Y-9729327D02*
X-5252346Y-9724856D01*
X-5252346Y-9724856D02*
X-5264693Y-9707505D01*
X-5264693Y-9707505D02*
X-5268631Y-9694624D01*
X-5268631Y-9694624D02*
X-5268098Y-9673335D01*
X-5268098Y-9673335D02*
X-5250213Y-9639699D01*
X-5250213Y-9639699D02*
X-5232862Y-9627352D01*
X-5232862Y-9627352D02*
X-5219982Y-9623414D01*
X-5219982Y-9623414D02*
X-5198692Y-9623948D01*
X-5198692Y-9623948D02*
X-5190283Y-9628419D01*
X-5190283Y-9628419D02*
X-5177936Y-9645770D01*
X-5177936Y-9645770D02*
X-5173999Y-9658650D01*
X-5173999Y-9658650D02*
X-5174532Y-9679940D01*
X-5174532Y-9679940D02*
X-5192416Y-9713576D01*
X-5192416Y-9713576D02*
X-5192950Y-9734865D01*
X-5192950Y-9734865D02*
X-5189012Y-9747745D01*
X-5189012Y-9747745D02*
X-5176665Y-9765096D01*
X-5176665Y-9765096D02*
X-5143029Y-9782981D01*
X-5143029Y-9782981D02*
X-5121740Y-9783514D01*
X-5121740Y-9783514D02*
X-5108859Y-9779576D01*
X-5108859Y-9779576D02*
X-5091508Y-9767230D01*
X-5091508Y-9767230D02*
X-5073624Y-9733593D01*
X-5073624Y-9733593D02*
X-5073090Y-9712304D01*
X-5073090Y-9712304D02*
X-5077028Y-9699424D01*
X-5077028Y-9699424D02*
X-5089375Y-9682073D01*
X-5089375Y-9682073D02*
X-5123011Y-9664188D01*
X-5123011Y-9664188D02*
X-5144300Y-9663655D01*
X-5144300Y-9663655D02*
X-5157180Y-9667593D01*
X-5157180Y-9667593D02*
X-5174532Y-9679940D01*
X-5092984Y-9485999D02*
X-4975258Y-9548595D01*
X-5182612Y-9492275D02*
X-5078833Y-9601387D01*
X-5078833Y-9601387D02*
X-5020708Y-9492070D01*
X-5357612Y9884613D02*
X-5181022Y9978507D01*
X-5181022Y9978507D02*
X-5158667Y9936462D01*
X-5158667Y9936462D02*
X-5153662Y9906764D01*
X-5153662Y9906764D02*
X-5161538Y9881003D01*
X-5161538Y9881003D02*
X-5173885Y9863652D01*
X-5173885Y9863652D02*
X-5203050Y9837358D01*
X-5203050Y9837358D02*
X-5228277Y9823945D01*
X-5228277Y9823945D02*
X-5266384Y9814469D01*
X-5266384Y9814469D02*
X-5287673Y9813936D01*
X-5287673Y9813936D02*
X-5313434Y9821812D01*
X-5313434Y9821812D02*
X-5335256Y9842568D01*
X-5335256Y9842568D02*
X-5357612Y9884613D01*
X-5042417Y9717827D02*
X-5087128Y9801918D01*
X-5087128Y9801918D02*
X-5175690Y9765615D01*
X-5175690Y9765615D02*
X-5162809Y9761677D01*
X-5162809Y9761677D02*
X-5145458Y9749330D01*
X-5145458Y9749330D02*
X-5123102Y9707285D01*
X-5123102Y9707285D02*
X-5122569Y9685996D01*
X-5122569Y9685996D02*
X-5126507Y9673116D01*
X-5126507Y9673116D02*
X-5138854Y9655764D01*
X-5138854Y9655764D02*
X-5180899Y9633409D01*
X-5180899Y9633409D02*
X-5202188Y9632875D01*
X-5202188Y9632875D02*
X-5215068Y9636813D01*
X-5215068Y9636813D02*
X-5232420Y9649160D01*
X-5232420Y9649160D02*
X-5254775Y9691205D01*
X-5254775Y9691205D02*
X-5255309Y9712494D01*
X-5255309Y9712494D02*
X-5251371Y9725375D01*
X-5006647Y9650555D02*
X-4948522Y9541238D01*
X-4948522Y9541238D02*
X-5047093Y9564332D01*
X-5047093Y9564332D02*
X-5033679Y9539105D01*
X-5033679Y9539105D02*
X-5033146Y9517816D01*
X-5033146Y9517816D02*
X-5037084Y9504935D01*
X-5037084Y9504935D02*
X-5049431Y9487584D01*
X-5049431Y9487584D02*
X-5091476Y9465228D01*
X-5091476Y9465228D02*
X-5112765Y9464695D01*
X-5112765Y9464695D02*
X-5125645Y9468633D01*
X-5125645Y9468633D02*
X-5142996Y9480980D01*
X-5142996Y9480980D02*
X-5169823Y9531434D01*
X-5169823Y9531434D02*
X-5170357Y9552723D01*
X-5170357Y9552723D02*
X-5166419Y9565603D01*
X3763638Y10077633D02*
X3575700Y10146037D01*
X3575700Y10146037D02*
X3591986Y10190784D01*
X3591986Y10190784D02*
X3610708Y10214375D01*
X3610708Y10214375D02*
X3635121Y10225759D01*
X3635121Y10225759D02*
X3656278Y10228194D01*
X3656278Y10228194D02*
X3695333Y10224114D01*
X3695333Y10224114D02*
X3722181Y10214342D01*
X3722181Y10214342D02*
X3754722Y10192364D01*
X3754722Y10192364D02*
X3769363Y10176899D01*
X3769363Y10176899D02*
X3780747Y10152486D01*
X3780747Y10152486D02*
X3779925Y10122380D01*
X3779925Y10122380D02*
X3763638Y10077633D01*
X3736066Y10391719D02*
X3861358Y10346116D01*
X3648184Y10373031D02*
X3766139Y10279423D01*
X3766139Y10279423D02*
X3808484Y10395766D01*
X3933020Y10543004D02*
X3893932Y10435611D01*
X3913476Y10489308D02*
X3725537Y10557712D01*
X3725537Y10557712D02*
X3745871Y10530041D01*
X3745871Y10530041D02*
X3757255Y10505627D01*
X3757255Y10505627D02*
X3759690Y10484471D01*
D12*
X-1962295Y509523D02*
X-2609914Y509523D01*
X-2609914Y509523D02*
X-2686104Y471428D01*
X-2686104Y471428D02*
X-2724200Y433333D01*
X-2724200Y433333D02*
X-2762295Y357142D01*
X-2762295Y357142D02*
X-2762295Y204761D01*
X-2762295Y204761D02*
X-2724200Y128571D01*
X-2724200Y128571D02*
X-2686104Y90476D01*
X-2686104Y90476D02*
X-2609914Y52380D01*
X-2609914Y52380D02*
X-1962295Y52380D01*
X-2762295Y-747618D02*
X-2762295Y-290475D01*
X-2762295Y-519047D02*
X-1962295Y-519047D01*
X-1962295Y-519047D02*
X-2076580Y-442856D01*
X-2076580Y-442856D02*
X-2152771Y-366666D01*
X-2152771Y-366666D02*
X-2190866Y-290475D01*
X-1962295Y509523D02*
X-2609914Y509523D01*
X-2609914Y509523D02*
X-2686104Y471428D01*
X-2686104Y471428D02*
X-2724200Y433333D01*
X-2724200Y433333D02*
X-2762295Y357142D01*
X-2762295Y357142D02*
X-2762295Y204761D01*
X-2762295Y204761D02*
X-2724200Y128571D01*
X-2724200Y128571D02*
X-2686104Y90476D01*
X-2686104Y90476D02*
X-2609914Y52380D01*
X-2609914Y52380D02*
X-1962295Y52380D01*
X-2762295Y-747618D02*
X-2762295Y-290475D01*
X-2762295Y-519047D02*
X-1962295Y-519047D01*
X-1962295Y-519047D02*
X-2076580Y-442856D01*
X-2076580Y-442856D02*
X-2152771Y-366666D01*
X-2152771Y-366666D02*
X-2190866Y-290475D01*
D10*
X10459411Y2515094D02*
X10411027Y2709154D01*
X10411027Y2709154D02*
X10457231Y2720674D01*
X10457231Y2720674D02*
X10487258Y2718345D01*
X10487258Y2718345D02*
X10510348Y2704471D01*
X10510348Y2704471D02*
X10524197Y2688293D01*
X10524197Y2688293D02*
X10542654Y2653634D01*
X10542654Y2653634D02*
X10549566Y2625911D01*
X10549566Y2625911D02*
X10549541Y2586643D01*
X10549541Y2586643D02*
X10544908Y2565857D01*
X10544908Y2565857D02*
X10531034Y2542767D01*
X10531034Y2542767D02*
X10505616Y2526614D01*
X10505616Y2526614D02*
X10459411Y2515094D01*
X10600453Y2736752D02*
X10607390Y2748297D01*
X10607390Y2748297D02*
X10623568Y2762146D01*
X10623568Y2762146D02*
X10669772Y2773666D01*
X10669772Y2773666D02*
X10690558Y2769033D01*
X10690558Y2769033D02*
X10702103Y2762096D01*
X10702103Y2762096D02*
X10715952Y2745918D01*
X10715952Y2745918D02*
X10720560Y2727437D01*
X10720560Y2727437D02*
X10718231Y2697410D01*
X10718231Y2697410D02*
X10634988Y2558871D01*
X10634988Y2558871D02*
X10755120Y2588823D01*
X10771422Y2799010D02*
X10900795Y2831266D01*
X10900795Y2831266D02*
X10866011Y2616471D01*
X10202841Y-3409675D02*
X10264644Y-3219464D01*
X10264644Y-3219464D02*
X10309933Y-3234179D01*
X10309933Y-3234179D02*
X10334163Y-3252066D01*
X10334163Y-3252066D02*
X10346392Y-3276067D01*
X10346392Y-3276067D02*
X10349564Y-3297126D01*
X10349564Y-3297126D02*
X10346849Y-3336299D01*
X10346849Y-3336299D02*
X10338020Y-3363472D01*
X10338020Y-3363472D02*
X10317190Y-3396760D01*
X10317190Y-3396760D02*
X10302247Y-3411932D01*
X10302247Y-3411932D02*
X10278245Y-3424162D01*
X10278245Y-3424162D02*
X10248129Y-3424390D01*
X10248129Y-3424390D02*
X10202841Y-3409675D01*
X10492687Y-3503852D02*
X10383994Y-3468536D01*
X10438341Y-3486194D02*
X10500144Y-3295982D01*
X10500144Y-3295982D02*
X10473200Y-3317269D01*
X10473200Y-3317269D02*
X10449198Y-3329499D01*
X10449198Y-3329499D02*
X10428140Y-3332670D01*
X10583263Y-3533282D02*
X10619494Y-3545054D01*
X10619494Y-3545054D02*
X10640552Y-3541882D01*
X10640552Y-3541882D02*
X10652553Y-3535768D01*
X10652553Y-3535768D02*
X10679497Y-3514481D01*
X10679497Y-3514481D02*
X10700327Y-3481193D01*
X10700327Y-3481193D02*
X10723871Y-3408732D01*
X10723871Y-3408732D02*
X10720700Y-3387673D01*
X10720700Y-3387673D02*
X10714585Y-3375672D01*
X10714585Y-3375672D02*
X10699413Y-3360729D01*
X10699413Y-3360729D02*
X10663182Y-3348957D01*
X10663182Y-3348957D02*
X10642124Y-3352128D01*
X10642124Y-3352128D02*
X10630123Y-3358243D01*
X10630123Y-3358243D02*
X10615179Y-3373415D01*
X10615179Y-3373415D02*
X10600464Y-3418704D01*
X10600464Y-3418704D02*
X10603636Y-3439762D01*
X10603636Y-3439762D02*
X10609750Y-3451763D01*
X10609750Y-3451763D02*
X10624923Y-3466707D01*
X10624923Y-3466707D02*
X10661153Y-3478479D01*
X10661153Y-3478479D02*
X10682212Y-3475307D01*
X10682212Y-3475307D02*
X10694213Y-3469192D01*
X10694213Y-3469192D02*
X10709156Y-3454020D01*
X5776665Y9074893D02*
X5607055Y9180877D01*
X5607055Y9180877D02*
X5632289Y9221260D01*
X5632289Y9221260D02*
X5655506Y9240443D01*
X5655506Y9240443D02*
X5681753Y9246503D01*
X5681753Y9246503D02*
X5702954Y9244486D01*
X5702954Y9244486D02*
X5740307Y9232375D01*
X5740307Y9232375D02*
X5764537Y9217234D01*
X5764537Y9217234D02*
X5791797Y9188970D01*
X5791797Y9188970D02*
X5802903Y9170800D01*
X5802903Y9170800D02*
X5808963Y9144553D01*
X5808963Y9144553D02*
X5801899Y9115276D01*
X5801899Y9115276D02*
X5776665Y9074893D01*
X5702945Y9334333D02*
X5768554Y9439329D01*
X5768554Y9439329D02*
X5797839Y9342418D01*
X5797839Y9342418D02*
X5812980Y9366648D01*
X5812980Y9366648D02*
X5831150Y9377754D01*
X5831150Y9377754D02*
X5844274Y9380784D01*
X5844274Y9380784D02*
X5865474Y9378767D01*
X5865474Y9378767D02*
X5905857Y9353533D01*
X5905857Y9353533D02*
X5916964Y9335363D01*
X5916964Y9335363D02*
X5919993Y9322239D01*
X5919993Y9322239D02*
X5917976Y9301039D01*
X5917976Y9301039D02*
X5887695Y9252579D01*
X5887695Y9252579D02*
X5869525Y9241473D01*
X5869525Y9241473D02*
X5856401Y9238443D01*
X5901806Y9490827D02*
X5883636Y9479721D01*
X5883636Y9479721D02*
X5870512Y9476691D01*
X5870512Y9476691D02*
X5849312Y9478708D01*
X5849312Y9478708D02*
X5841236Y9483755D01*
X5841236Y9483755D02*
X5830129Y9501925D01*
X5830129Y9501925D02*
X5827099Y9515049D01*
X5827099Y9515049D02*
X5829116Y9536249D01*
X5829116Y9536249D02*
X5849304Y9568556D01*
X5849304Y9568556D02*
X5867474Y9579662D01*
X5867474Y9579662D02*
X5880598Y9582692D01*
X5880598Y9582692D02*
X5901798Y9580675D01*
X5901798Y9580675D02*
X5909874Y9575628D01*
X5909874Y9575628D02*
X5920981Y9557458D01*
X5920981Y9557458D02*
X5924011Y9544334D01*
X5924011Y9544334D02*
X5921994Y9523134D01*
X5921994Y9523134D02*
X5901806Y9490827D01*
X5901806Y9490827D02*
X5899789Y9469627D01*
X5899789Y9469627D02*
X5902819Y9456504D01*
X5902819Y9456504D02*
X5913925Y9438333D01*
X5913925Y9438333D02*
X5946232Y9418146D01*
X5946232Y9418146D02*
X5967432Y9416129D01*
X5967432Y9416129D02*
X5980556Y9419159D01*
X5980556Y9419159D02*
X5998726Y9430265D01*
X5998726Y9430265D02*
X6018913Y9462572D01*
X6018913Y9462572D02*
X6020930Y9483772D01*
X6020930Y9483772D02*
X6017901Y9496895D01*
X6017901Y9496895D02*
X6006794Y9515066D01*
X6006794Y9515066D02*
X5974488Y9535253D01*
X5974488Y9535253D02*
X5953287Y9537270D01*
X5953287Y9537270D02*
X5940164Y9534240D01*
X5940164Y9534240D02*
X5921994Y9523134D01*
X5674614Y-9250964D02*
X5844223Y-9144980D01*
X5844223Y-9144980D02*
X5869458Y-9185363D01*
X5869458Y-9185363D02*
X5876521Y-9214640D01*
X5876521Y-9214640D02*
X5870462Y-9240887D01*
X5870462Y-9240887D02*
X5859355Y-9259057D01*
X5859355Y-9259057D02*
X5832096Y-9287321D01*
X5832096Y-9287321D02*
X5807866Y-9302462D01*
X5807866Y-9302462D02*
X5770512Y-9314573D01*
X5770512Y-9314573D02*
X5749312Y-9316590D01*
X5749312Y-9316590D02*
X5723065Y-9310530D01*
X5723065Y-9310530D02*
X5699848Y-9291347D01*
X5699848Y-9291347D02*
X5674614Y-9250964D01*
X5785644Y-9428650D02*
X5805832Y-9460957D01*
X5805832Y-9460957D02*
X5824002Y-9472063D01*
X5824002Y-9472063D02*
X5837126Y-9475093D01*
X5837126Y-9475093D02*
X5871449Y-9476106D01*
X5871449Y-9476106D02*
X5908803Y-9463995D01*
X5908803Y-9463995D02*
X5973416Y-9423620D01*
X5973416Y-9423620D02*
X5984522Y-9405450D01*
X5984522Y-9405450D02*
X5987552Y-9392326D01*
X5987552Y-9392326D02*
X5985535Y-9371126D01*
X5985535Y-9371126D02*
X5965348Y-9338820D01*
X5965348Y-9338820D02*
X5947177Y-9327713D01*
X5947177Y-9327713D02*
X5934054Y-9324683D01*
X5934054Y-9324683D02*
X5912854Y-9326700D01*
X5912854Y-9326700D02*
X5872470Y-9351935D01*
X5872470Y-9351935D02*
X5861364Y-9370105D01*
X5861364Y-9370105D02*
X5858334Y-9383229D01*
X5858334Y-9383229D02*
X5860351Y-9404429D01*
X5860351Y-9404429D02*
X5880539Y-9436735D01*
X5880539Y-9436735D02*
X5898709Y-9447842D01*
X5898709Y-9447842D02*
X5911832Y-9450871D01*
X5911832Y-9450871D02*
X5933033Y-9448854D01*
X-6535597Y-9148531D02*
X-6697401Y-9030974D01*
X-6697401Y-9030974D02*
X-6669411Y-8992449D01*
X-6669411Y-8992449D02*
X-6644912Y-8974932D01*
X-6644912Y-8974932D02*
X-6618306Y-8970718D01*
X-6618306Y-8970718D02*
X-6597299Y-8974209D01*
X-6597299Y-8974209D02*
X-6560881Y-8988896D01*
X-6560881Y-8988896D02*
X-6537766Y-9005690D01*
X-6537766Y-9005690D02*
X-6512544Y-9035787D01*
X-6512544Y-9035787D02*
X-6502733Y-9054688D01*
X-6502733Y-9054688D02*
X-6498519Y-9081293D01*
X-6498519Y-9081293D02*
X-6507608Y-9110006D01*
X-6507608Y-9110006D02*
X-6535597Y-9148531D01*
X-6493706Y-8896437D02*
X-6512606Y-8906249D01*
X-6512606Y-8906249D02*
X-6525909Y-8908356D01*
X-6525909Y-8908356D02*
X-6546917Y-8904865D01*
X-6546917Y-8904865D02*
X-6554622Y-8899267D01*
X-6554622Y-8899267D02*
X-6564434Y-8880366D01*
X-6564434Y-8880366D02*
X-6566541Y-8867063D01*
X-6566541Y-8867063D02*
X-6563050Y-8846056D01*
X-6563050Y-8846056D02*
X-6540658Y-8815236D01*
X-6540658Y-8815236D02*
X-6521757Y-8805424D01*
X-6521757Y-8805424D02*
X-6508454Y-8803317D01*
X-6508454Y-8803317D02*
X-6487446Y-8806808D01*
X-6487446Y-8806808D02*
X-6479742Y-8812406D01*
X-6479742Y-8812406D02*
X-6469930Y-8831307D01*
X-6469930Y-8831307D02*
X-6467823Y-8844610D01*
X-6467823Y-8844610D02*
X-6471314Y-8865617D01*
X-6471314Y-8865617D02*
X-6493706Y-8896437D01*
X-6493706Y-8896437D02*
X-6497197Y-8917445D01*
X-6497197Y-8917445D02*
X-6495090Y-8930748D01*
X-6495090Y-8930748D02*
X-6485278Y-8949649D01*
X-6485278Y-8949649D02*
X-6454458Y-8972040D01*
X-6454458Y-8972040D02*
X-6433450Y-8975531D01*
X-6433450Y-8975531D02*
X-6420147Y-8973425D01*
X-6420147Y-8973425D02*
X-6401246Y-8963613D01*
X-6401246Y-8963613D02*
X-6378855Y-8932793D01*
X-6378855Y-8932793D02*
X-6375364Y-8911785D01*
X-6375364Y-8911785D02*
X-6377471Y-8898482D01*
X-6377471Y-8898482D02*
X-6387282Y-8879581D01*
X-6387282Y-8879581D02*
X-6418102Y-8857190D01*
X-6418102Y-8857190D02*
X-6439110Y-8853699D01*
X-6439110Y-8853699D02*
X-6452413Y-8855806D01*
X-6452413Y-8855806D02*
X-6471314Y-8865617D01*
X-6458073Y-8733973D02*
X-6460180Y-8720670D01*
X-6460180Y-8720670D02*
X-6456689Y-8699662D01*
X-6456689Y-8699662D02*
X-6428699Y-8661138D01*
X-6428699Y-8661138D02*
X-6409798Y-8651326D01*
X-6409798Y-8651326D02*
X-6396495Y-8649219D01*
X-6396495Y-8649219D02*
X-6375488Y-8652710D01*
X-6375488Y-8652710D02*
X-6360078Y-8663906D01*
X-6360078Y-8663906D02*
X-6342561Y-8688404D01*
X-6342561Y-8688404D02*
X-6317277Y-8848039D01*
X-6317277Y-8848039D02*
X-6244504Y-8747875D01*
D12*
X-387704Y-5712969D02*
X-768657Y-5979636D01*
X-387704Y-6170112D02*
X-1187704Y-6170112D01*
X-1187704Y-6170112D02*
X-1187704Y-5865350D01*
X-1187704Y-5865350D02*
X-1149609Y-5789160D01*
X-1149609Y-5789160D02*
X-1111514Y-5751065D01*
X-1111514Y-5751065D02*
X-1035323Y-5712969D01*
X-1035323Y-5712969D02*
X-921038Y-5712969D01*
X-921038Y-5712969D02*
X-844847Y-5751065D01*
X-844847Y-5751065D02*
X-806752Y-5789160D01*
X-806752Y-5789160D02*
X-768657Y-5865350D01*
X-768657Y-5865350D02*
X-768657Y-6170112D01*
X-387704Y-4951065D02*
X-387704Y-5408208D01*
X-387704Y-5179636D02*
X-1187704Y-5179636D01*
X-1187704Y-5179636D02*
X-1073419Y-5255827D01*
X-1073419Y-5255827D02*
X-997228Y-5332017D01*
X-997228Y-5332017D02*
X-959133Y-5408208D01*
X-387704Y-4033332D02*
X-768657Y-4299999D01*
X-387704Y-4490475D02*
X-1187704Y-4490475D01*
X-1187704Y-4490475D02*
X-1187704Y-4185713D01*
X-1187704Y-4185713D02*
X-1149609Y-4109523D01*
X-1149609Y-4109523D02*
X-1111514Y-4071428D01*
X-1111514Y-4071428D02*
X-1035323Y-4033332D01*
X-1035323Y-4033332D02*
X-921038Y-4033332D01*
X-921038Y-4033332D02*
X-844847Y-4071428D01*
X-844847Y-4071428D02*
X-806752Y-4109523D01*
X-806752Y-4109523D02*
X-768657Y-4185713D01*
X-768657Y-4185713D02*
X-768657Y-4490475D01*
X-387704Y-3271428D02*
X-387704Y-3728571D01*
X-387704Y-3499999D02*
X-1187704Y-3499999D01*
X-1187704Y-3499999D02*
X-1073419Y-3576190D01*
X-1073419Y-3576190D02*
X-997228Y-3652380D01*
X-997228Y-3652380D02*
X-959133Y-3728571D01*
D10*
X5129583Y9455753D02*
X4952994Y9549647D01*
X4952994Y9549647D02*
X4975349Y9591692D01*
X4975349Y9591692D02*
X4997172Y9612448D01*
X4997172Y9612448D02*
X5022932Y9620324D01*
X5022932Y9620324D02*
X5044221Y9619791D01*
X5044221Y9619791D02*
X5082329Y9610315D01*
X5082329Y9610315D02*
X5107556Y9596902D01*
X5107556Y9596902D02*
X5136721Y9570608D01*
X5136721Y9570608D02*
X5149068Y9553257D01*
X5149068Y9553257D02*
X5156943Y9527496D01*
X5156943Y9527496D02*
X5151939Y9497798D01*
X5151939Y9497798D02*
X5129583Y9455753D01*
X5037946Y9709419D02*
X5096071Y9818736D01*
X5096071Y9818736D02*
X5132045Y9724104D01*
X5132045Y9724104D02*
X5145458Y9749331D01*
X5145458Y9749331D02*
X5162810Y9761678D01*
X5162810Y9761678D02*
X5175690Y9765615D01*
X5175690Y9765615D02*
X5196979Y9765082D01*
X5196979Y9765082D02*
X5239024Y9742726D01*
X5239024Y9742726D02*
X5251371Y9725375D01*
X5251371Y9725375D02*
X5255309Y9712495D01*
X5255309Y9712495D02*
X5254775Y9691206D01*
X5254775Y9691206D02*
X5227949Y9640751D01*
X5227949Y9640751D02*
X5210597Y9628405D01*
X5210597Y9628405D02*
X5197717Y9624467D01*
X5317372Y9808932D02*
X5335256Y9842568D01*
X5335256Y9842568D02*
X5335790Y9863857D01*
X5335790Y9863857D02*
X5331852Y9876737D01*
X5331852Y9876737D02*
X5315567Y9906969D01*
X5315567Y9906969D02*
X5286402Y9933262D01*
X5286402Y9933262D02*
X5219130Y9969032D01*
X5219130Y9969032D02*
X5197841Y9969565D01*
X5197841Y9969565D02*
X5184960Y9965627D01*
X5184960Y9965627D02*
X5167609Y9953280D01*
X5167609Y9953280D02*
X5149724Y9919644D01*
X5149724Y9919644D02*
X5149191Y9898355D01*
X5149191Y9898355D02*
X5153129Y9885475D01*
X5153129Y9885475D02*
X5165476Y9868123D01*
X5165476Y9868123D02*
X5207521Y9845768D01*
X5207521Y9845768D02*
X5228810Y9845234D01*
X5228810Y9845234D02*
X5241690Y9849172D01*
X5241690Y9849172D02*
X5259042Y9861519D01*
X5259042Y9861519D02*
X5276926Y9895155D01*
X5276926Y9895155D02*
X5277460Y9916444D01*
X5277460Y9916444D02*
X5273522Y9929325D01*
X5273522Y9929325D02*
X5261175Y9946676D01*
X-7295691Y8554737D02*
X-7142482Y8683294D01*
X-7142482Y8683294D02*
X-7111873Y8646816D01*
X-7111873Y8646816D02*
X-7100803Y8618807D01*
X-7100803Y8618807D02*
X-7103151Y8591972D01*
X-7103151Y8591972D02*
X-7111620Y8572433D01*
X-7111620Y8572433D02*
X-7134681Y8540650D01*
X-7134681Y8540650D02*
X-7156568Y8522285D01*
X-7156568Y8522285D02*
X-7191873Y8505093D01*
X-7191873Y8505093D02*
X-7212586Y8500146D01*
X-7212586Y8500146D02*
X-7239421Y8502493D01*
X-7239421Y8502493D02*
X-7265082Y8518259D01*
X-7265082Y8518259D02*
X-7295691Y8554737D01*
X-6952706Y8457129D02*
X-7013924Y8530085D01*
X-7013924Y8530085D02*
X-7093003Y8476163D01*
X-7093003Y8476163D02*
X-7079585Y8474989D01*
X-7079585Y8474989D02*
X-7060046Y8466520D01*
X-7060046Y8466520D02*
X-7029437Y8430042D01*
X-7029437Y8430042D02*
X-7024489Y8409328D01*
X-7024489Y8409328D02*
X-7025663Y8395911D01*
X-7025663Y8395911D02*
X-7034132Y8376372D01*
X-7034132Y8376372D02*
X-7070611Y8345763D01*
X-7070611Y8345763D02*
X-7091324Y8340815D01*
X-7091324Y8340815D02*
X-7104741Y8341989D01*
X-7104741Y8341989D02*
X-7124281Y8350458D01*
X-7124281Y8350458D02*
X-7154889Y8386937D01*
X-7154889Y8386937D02*
X-7159837Y8407650D01*
X-7159837Y8407650D02*
X-7158664Y8421067D01*
X-6836392Y8318511D02*
X-6860880Y8347694D01*
X-6860880Y8347694D02*
X-6880419Y8356164D01*
X-6880419Y8356164D02*
X-6893836Y8357337D01*
X-6893836Y8357337D02*
X-6927967Y8353563D01*
X-6927967Y8353563D02*
X-6963271Y8336372D01*
X-6963271Y8336372D02*
X-7021637Y8287398D01*
X-7021637Y8287398D02*
X-7030106Y8267858D01*
X-7030106Y8267858D02*
X-7031280Y8254441D01*
X-7031280Y8254441D02*
X-7026332Y8233728D01*
X-7026332Y8233728D02*
X-7001845Y8204545D01*
X-7001845Y8204545D02*
X-6982306Y8196076D01*
X-6982306Y8196076D02*
X-6968888Y8194902D01*
X-6968888Y8194902D02*
X-6948175Y8199850D01*
X-6948175Y8199850D02*
X-6911697Y8230459D01*
X-6911697Y8230459D02*
X-6903227Y8249998D01*
X-6903227Y8249998D02*
X-6902053Y8263415D01*
X-6902053Y8263415D02*
X-6907001Y8284128D01*
X-6907001Y8284128D02*
X-6931488Y8313311D01*
X-6931488Y8313311D02*
X-6951028Y8321781D01*
X-6951028Y8321781D02*
X-6964445Y8322954D01*
X-6964445Y8322954D02*
X-6985158Y8318007D01*
X667297Y-10832213D02*
X866810Y-10818262D01*
X866810Y-10818262D02*
X870132Y-10865765D01*
X870132Y-10865765D02*
X862624Y-10894931D01*
X862624Y-10894931D02*
X844952Y-10915261D01*
X844952Y-10915261D02*
X826615Y-10926090D01*
X826615Y-10926090D02*
X789277Y-10938248D01*
X789277Y-10938248D02*
X760775Y-10940241D01*
X760775Y-10940241D02*
X722108Y-10933398D01*
X722108Y-10933398D02*
X702443Y-10925226D01*
X702443Y-10925226D02*
X682113Y-10907553D01*
X682113Y-10907553D02*
X670619Y-10879716D01*
X670619Y-10879716D02*
X667297Y-10832213D01*
X861096Y-11009603D02*
X871261Y-11018439D01*
X871261Y-11018439D02*
X882090Y-11036776D01*
X882090Y-11036776D02*
X885412Y-11084279D01*
X885412Y-11084279D02*
X877240Y-11103944D01*
X877240Y-11103944D02*
X868404Y-11114109D01*
X868404Y-11114109D02*
X850067Y-11124939D01*
X850067Y-11124939D02*
X831066Y-11126267D01*
X831066Y-11126267D02*
X801899Y-11118760D01*
X801899Y-11118760D02*
X679920Y-11012724D01*
X679920Y-11012724D02*
X688556Y-11136232D01*
D12*
X463076Y-3004730D02*
X463076Y-3814253D01*
X463076Y-3814253D02*
X510695Y-3909491D01*
X510695Y-3909491D02*
X558314Y-3957111D01*
X558314Y-3957111D02*
X653552Y-4004730D01*
X653552Y-4004730D02*
X844028Y-4004730D01*
X844028Y-4004730D02*
X939266Y-3957111D01*
X939266Y-3957111D02*
X986885Y-3909491D01*
X986885Y-3909491D02*
X1034504Y-3814253D01*
X1034504Y-3814253D02*
X1034504Y-3004730D01*
X1463076Y-3099968D02*
X1510695Y-3052349D01*
X1510695Y-3052349D02*
X1605933Y-3004730D01*
X1605933Y-3004730D02*
X1844028Y-3004730D01*
X1844028Y-3004730D02*
X1939266Y-3052349D01*
X1939266Y-3052349D02*
X1986885Y-3099968D01*
X1986885Y-3099968D02*
X2034504Y-3195206D01*
X2034504Y-3195206D02*
X2034504Y-3290444D01*
X2034504Y-3290444D02*
X1986885Y-3433301D01*
X1986885Y-3433301D02*
X1415457Y-4004730D01*
X1415457Y-4004730D02*
X2034504Y-4004730D01*
D10*
X-8294907Y-7589729D02*
X-8428733Y-7441100D01*
X-8428733Y-7441100D02*
X-8393345Y-7409237D01*
X-8393345Y-7409237D02*
X-8365740Y-7397196D01*
X-8365740Y-7397196D02*
X-8338839Y-7398606D01*
X-8338839Y-7398606D02*
X-8319016Y-7406388D01*
X-8319016Y-7406388D02*
X-8286448Y-7428326D01*
X-8286448Y-7428326D02*
X-8267330Y-7449559D01*
X-8267330Y-7449559D02*
X-8248917Y-7484242D01*
X-8248917Y-7484242D02*
X-8243249Y-7504769D01*
X-8243249Y-7504769D02*
X-8244659Y-7531670D01*
X-8244659Y-7531670D02*
X-8259519Y-7557866D01*
X-8259519Y-7557866D02*
X-8294907Y-7589729D01*
X-8294259Y-7320019D02*
X-8195173Y-7230802D01*
X-8195173Y-7230802D02*
X-8125045Y-7436785D01*
X-7997649Y-7322077D02*
X-7969339Y-7296586D01*
X-7969339Y-7296586D02*
X-7961556Y-7276763D01*
X-7961556Y-7276763D02*
X-7960851Y-7263313D01*
X-7960851Y-7263313D02*
X-7965814Y-7229335D01*
X-7965814Y-7229335D02*
X-7984227Y-7194652D01*
X-7984227Y-7194652D02*
X-8035209Y-7138031D01*
X-8035209Y-7138031D02*
X-8055031Y-7130249D01*
X-8055031Y-7130249D02*
X-8068482Y-7129544D01*
X-8068482Y-7129544D02*
X-8089010Y-7135212D01*
X-8089010Y-7135212D02*
X-8117320Y-7160703D01*
X-8117320Y-7160703D02*
X-8125102Y-7180525D01*
X-8125102Y-7180525D02*
X-8125807Y-7193976D01*
X-8125807Y-7193976D02*
X-8120139Y-7214503D01*
X-8120139Y-7214503D02*
X-8088276Y-7249891D01*
X-8088276Y-7249891D02*
X-8068453Y-7257674D01*
X-8068453Y-7257674D02*
X-8055003Y-7258379D01*
X-8055003Y-7258379D02*
X-8034475Y-7252711D01*
X-8034475Y-7252711D02*
X-8006165Y-7227220D01*
X-8006165Y-7227220D02*
X-7998382Y-7207397D01*
X-7998382Y-7207397D02*
X-7997677Y-7193947D01*
X-7997677Y-7193947D02*
X-8003345Y-7173419D01*
X-6034054Y9486802D02*
X-5864444Y9592785D01*
X-5864444Y9592785D02*
X-5839210Y9552402D01*
X-5839210Y9552402D02*
X-5832146Y9523125D01*
X-5832146Y9523125D02*
X-5838206Y9496878D01*
X-5838206Y9496878D02*
X-5849312Y9478708D01*
X-5849312Y9478708D02*
X-5876572Y9450444D01*
X-5876572Y9450444D02*
X-5900802Y9435303D01*
X-5900802Y9435303D02*
X-5938155Y9423193D01*
X-5938155Y9423193D02*
X-5959355Y9421176D01*
X-5959355Y9421176D02*
X-5985602Y9427235D01*
X-5985602Y9427235D02*
X-6008820Y9446418D01*
X-6008820Y9446418D02*
X-6034054Y9486802D01*
X-5707992Y9342409D02*
X-5758460Y9423176D01*
X-5758460Y9423176D02*
X-5844274Y9380784D01*
X-5844274Y9380784D02*
X-5831150Y9377754D01*
X-5831150Y9377754D02*
X-5812980Y9366648D01*
X-5812980Y9366648D02*
X-5787746Y9326264D01*
X-5787746Y9326264D02*
X-5785729Y9305064D01*
X-5785729Y9305064D02*
X-5788758Y9291941D01*
X-5788758Y9291941D02*
X-5799865Y9273770D01*
X-5799865Y9273770D02*
X-5840248Y9248536D01*
X-5840248Y9248536D02*
X-5861448Y9246519D01*
X-5861448Y9246519D02*
X-5874572Y9249549D01*
X-5874572Y9249549D02*
X-5892742Y9260655D01*
X-5892742Y9260655D02*
X-5917976Y9301039D01*
X-5917976Y9301039D02*
X-5919993Y9322239D01*
X-5919993Y9322239D02*
X-5916963Y9335362D01*
X-5668638Y9153625D02*
X-5781711Y9082969D01*
X-5629259Y9234383D02*
X-5775643Y9199064D01*
X-5775643Y9199064D02*
X-5710034Y9094067D01*
X-10887188Y-2807105D02*
X-10935572Y-2613045D01*
X-10935572Y-2613045D02*
X-10889368Y-2601525D01*
X-10889368Y-2601525D02*
X-10859341Y-2603854D01*
X-10859341Y-2603854D02*
X-10836251Y-2617728D01*
X-10836251Y-2617728D02*
X-10822402Y-2633906D01*
X-10822402Y-2633906D02*
X-10803945Y-2668565D01*
X-10803945Y-2668565D02*
X-10797033Y-2696288D01*
X-10797033Y-2696288D02*
X-10797058Y-2735556D01*
X-10797058Y-2735556D02*
X-10801691Y-2756342D01*
X-10801691Y-2756342D02*
X-10815565Y-2779432D01*
X-10815565Y-2779432D02*
X-10840983Y-2795585D01*
X-10840983Y-2795585D02*
X-10887188Y-2807105D01*
X-10759995Y-2569269D02*
X-10630622Y-2537013D01*
X-10630622Y-2537013D02*
X-10665406Y-2751808D01*
X-10561328Y-2539367D02*
X-10554391Y-2527822D01*
X-10554391Y-2527822D02*
X-10538213Y-2513973D01*
X-10538213Y-2513973D02*
X-10492009Y-2502453D01*
X-10492009Y-2502453D02*
X-10471223Y-2507086D01*
X-10471223Y-2507086D02*
X-10459678Y-2514022D01*
X-10459678Y-2514022D02*
X-10445829Y-2530200D01*
X-10445829Y-2530200D02*
X-10441221Y-2548682D01*
X-10441221Y-2548682D02*
X-10443550Y-2578709D01*
X-10443550Y-2578709D02*
X-10526793Y-2717248D01*
X-10526793Y-2717248D02*
X-10406661Y-2687296D01*
X840063Y10724661D02*
X640551Y10738613D01*
X640551Y10738613D02*
X643872Y10786116D01*
X643872Y10786116D02*
X655366Y10813953D01*
X655366Y10813953D02*
X675696Y10831626D01*
X675696Y10831626D02*
X695361Y10839798D01*
X695361Y10839798D02*
X734028Y10846641D01*
X734028Y10846641D02*
X762530Y10844648D01*
X762530Y10844648D02*
X799868Y10832490D01*
X799868Y10832490D02*
X818205Y10821661D01*
X818205Y10821661D02*
X835878Y10801331D01*
X835878Y10801331D02*
X843385Y10772164D01*
X843385Y10772164D02*
X840063Y10724661D01*
X726985Y11018981D02*
X859994Y11009680D01*
X647659Y10976792D02*
X786846Y10919324D01*
X786846Y10919324D02*
X795483Y11042832D01*
X674432Y11223144D02*
X667789Y11128137D01*
X667789Y11128137D02*
X762131Y11111993D01*
X762131Y11111993D02*
X753294Y11122158D01*
X753294Y11122158D02*
X745122Y11141824D01*
X745122Y11141824D02*
X748444Y11189327D01*
X748444Y11189327D02*
X759273Y11207664D01*
X759273Y11207664D02*
X769438Y11216500D01*
X769438Y11216500D02*
X789104Y11224672D01*
X789104Y11224672D02*
X836607Y11221350D01*
X836607Y11221350D02*
X854944Y11210521D01*
X854944Y11210521D02*
X863780Y11200356D01*
X863780Y11200356D02*
X871952Y11180690D01*
X871952Y11180690D02*
X868630Y11133187D01*
X868630Y11133187D02*
X857801Y11114851D01*
X857801Y11114851D02*
X847636Y11106014D01*
X8867777Y-6089846D02*
X8979616Y-5924038D01*
X8979616Y-5924038D02*
X9019094Y-5950667D01*
X9019094Y-5950667D02*
X9037455Y-5974539D01*
X9037455Y-5974539D02*
X9042595Y-6000982D01*
X9042595Y-6000982D02*
X9039839Y-6022098D01*
X9039839Y-6022098D02*
X9026432Y-6059006D01*
X9026432Y-6059006D02*
X9010455Y-6082693D01*
X9010455Y-6082693D02*
X8981257Y-6108950D01*
X8981257Y-6108950D02*
X8962710Y-6119416D01*
X8962710Y-6119416D02*
X8936268Y-6124555D01*
X8936268Y-6124555D02*
X8907255Y-6116474D01*
X8907255Y-6116474D02*
X8867777Y-6089846D01*
X9120436Y-6260267D02*
X9025689Y-6196359D01*
X9073063Y-6228313D02*
X9184901Y-6062505D01*
X9184901Y-6062505D02*
X9153133Y-6075541D01*
X9153133Y-6075541D02*
X9126691Y-6080681D01*
X9126691Y-6080681D02*
X9105574Y-6077925D01*
X9382291Y-6195646D02*
X9303335Y-6142390D01*
X9303335Y-6142390D02*
X9242183Y-6216020D01*
X9242183Y-6216020D02*
X9255404Y-6213450D01*
X9255404Y-6213450D02*
X9276521Y-6216206D01*
X9276521Y-6216206D02*
X9315999Y-6242834D01*
X9315999Y-6242834D02*
X9326465Y-6261381D01*
X9326465Y-6261381D02*
X9329035Y-6274602D01*
X9329035Y-6274602D02*
X9326279Y-6295719D01*
X9326279Y-6295719D02*
X9299651Y-6335197D01*
X9299651Y-6335197D02*
X9281104Y-6345663D01*
X9281104Y-6345663D02*
X9267882Y-6348232D01*
X9267882Y-6348232D02*
X9246766Y-6345477D01*
X9246766Y-6345477D02*
X9207288Y-6318849D01*
X9207288Y-6318849D02*
X9196822Y-6300302D01*
X9196822Y-6300302D02*
X9194252Y-6287080D01*
X5015499Y-9624276D02*
X5192088Y-9530382D01*
X5192088Y-9530382D02*
X5214444Y-9572427D01*
X5214444Y-9572427D02*
X5219448Y-9602125D01*
X5219448Y-9602125D02*
X5211573Y-9627886D01*
X5211573Y-9627886D02*
X5199226Y-9645237D01*
X5199226Y-9645237D02*
X5170061Y-9671531D01*
X5170061Y-9671531D02*
X5144834Y-9684944D01*
X5144834Y-9684944D02*
X5106726Y-9694420D01*
X5106726Y-9694420D02*
X5085437Y-9694953D01*
X5085437Y-9694953D02*
X5059677Y-9687077D01*
X5059677Y-9687077D02*
X5037854Y-9666321D01*
X5037854Y-9666321D02*
X5015499Y-9624276D01*
X5223715Y-9772439D02*
X5223181Y-9751150D01*
X5223181Y-9751150D02*
X5227119Y-9738270D01*
X5227119Y-9738270D02*
X5239466Y-9720918D01*
X5239466Y-9720918D02*
X5247875Y-9716447D01*
X5247875Y-9716447D02*
X5269164Y-9715914D01*
X5269164Y-9715914D02*
X5282045Y-9719852D01*
X5282045Y-9719852D02*
X5299396Y-9732199D01*
X5299396Y-9732199D02*
X5317281Y-9765835D01*
X5317281Y-9765835D02*
X5317814Y-9787124D01*
X5317814Y-9787124D02*
X5313876Y-9800004D01*
X5313876Y-9800004D02*
X5301529Y-9817355D01*
X5301529Y-9817355D02*
X5293120Y-9821827D01*
X5293120Y-9821827D02*
X5271831Y-9822360D01*
X5271831Y-9822360D02*
X5258951Y-9818422D01*
X5258951Y-9818422D02*
X5241599Y-9806075D01*
X5241599Y-9806075D02*
X5223715Y-9772439D01*
X5223715Y-9772439D02*
X5206363Y-9760092D01*
X5206363Y-9760092D02*
X5193483Y-9756154D01*
X5193483Y-9756154D02*
X5172194Y-9756688D01*
X5172194Y-9756688D02*
X5138558Y-9774572D01*
X5138558Y-9774572D02*
X5126211Y-9791924D01*
X5126211Y-9791924D02*
X5122273Y-9804804D01*
X5122273Y-9804804D02*
X5122806Y-9826093D01*
X5122806Y-9826093D02*
X5140691Y-9859729D01*
X5140691Y-9859729D02*
X5158042Y-9872076D01*
X5158042Y-9872076D02*
X5170923Y-9876014D01*
X5170923Y-9876014D02*
X5192212Y-9875481D01*
X5192212Y-9875481D02*
X5225848Y-9857596D01*
X5225848Y-9857596D02*
X5238195Y-9840245D01*
X5238195Y-9840245D02*
X5242133Y-9827364D01*
X5242133Y-9827364D02*
X5241599Y-9806075D01*
X-11239147Y302506D02*
X-11232167Y502384D01*
X-11232167Y502384D02*
X-11184577Y500722D01*
X-11184577Y500722D02*
X-11156355Y490207D01*
X-11156355Y490207D02*
X-11137984Y470506D01*
X-11137984Y470506D02*
X-11129131Y451138D01*
X-11129131Y451138D02*
X-11120942Y412734D01*
X-11120942Y412734D02*
X-11121939Y384180D01*
X-11121939Y384180D02*
X-11132787Y346440D01*
X-11132787Y346440D02*
X-11142970Y327736D01*
X-11142970Y327736D02*
X-11162670Y309365D01*
X-11162670Y309365D02*
X-11191557Y300844D01*
X-11191557Y300844D02*
X-11239147Y302506D01*
X-10946627Y492413D02*
X-10984699Y493742D01*
X-10984699Y493742D02*
X-11004067Y484889D01*
X-11004067Y484889D02*
X-11013917Y475704D01*
X-11013917Y475704D02*
X-11033951Y447814D01*
X-11033951Y447814D02*
X-11044798Y410075D01*
X-11044798Y410075D02*
X-11047457Y333931D01*
X-11047457Y333931D02*
X-11038604Y314562D01*
X-11038604Y314562D02*
X-11029418Y304712D01*
X-11029418Y304712D02*
X-11010715Y294529D01*
X-11010715Y294529D02*
X-10972643Y293200D01*
X-10972643Y293200D02*
X-10953274Y302053D01*
X-10953274Y302053D02*
X-10943424Y311238D01*
X-10943424Y311238D02*
X-10933241Y329942D01*
X-10933241Y329942D02*
X-10931579Y377532D01*
X-10931579Y377532D02*
X-10940432Y396900D01*
X-10940432Y396900D02*
X-10949618Y406751D01*
X-10949618Y406751D02*
X-10968322Y416934D01*
X-10968322Y416934D02*
X-11006394Y418263D01*
X-11006394Y418263D02*
X-11025762Y409410D01*
X-11025762Y409410D02*
X-11035613Y400224D01*
X-11035613Y400224D02*
X-11045795Y381521D01*
X-10816366Y402098D02*
X-10835070Y412280D01*
X-10835070Y412280D02*
X-10844255Y422131D01*
X-10844255Y422131D02*
X-10853109Y441499D01*
X-10853109Y441499D02*
X-10852776Y451017D01*
X-10852776Y451017D02*
X-10842594Y469721D01*
X-10842594Y469721D02*
X-10832743Y478906D01*
X-10832743Y478906D02*
X-10813375Y487760D01*
X-10813375Y487760D02*
X-10775303Y486430D01*
X-10775303Y486430D02*
X-10756599Y476247D01*
X-10756599Y476247D02*
X-10747413Y466397D01*
X-10747413Y466397D02*
X-10738560Y447029D01*
X-10738560Y447029D02*
X-10738893Y437511D01*
X-10738893Y437511D02*
X-10749075Y418807D01*
X-10749075Y418807D02*
X-10758926Y409621D01*
X-10758926Y409621D02*
X-10778294Y400768D01*
X-10778294Y400768D02*
X-10816366Y402098D01*
X-10816366Y402098D02*
X-10835735Y393244D01*
X-10835735Y393244D02*
X-10845585Y384059D01*
X-10845585Y384059D02*
X-10855768Y365355D01*
X-10855768Y365355D02*
X-10857097Y327283D01*
X-10857097Y327283D02*
X-10848244Y307915D01*
X-10848244Y307915D02*
X-10839058Y298064D01*
X-10839058Y298064D02*
X-10820355Y287882D01*
X-10820355Y287882D02*
X-10782283Y286552D01*
X-10782283Y286552D02*
X-10762914Y295405D01*
X-10762914Y295405D02*
X-10753064Y304591D01*
X-10753064Y304591D02*
X-10742881Y323295D01*
X-10742881Y323295D02*
X-10741552Y361367D01*
X-10741552Y361367D02*
X-10750405Y380735D01*
X-10750405Y380735D02*
X-10759590Y390585D01*
X-10759590Y390585D02*
X-10778294Y400768D01*
X7537183Y7675537D02*
X7393315Y7814468D01*
X7393315Y7814468D02*
X7426394Y7848722D01*
X7426394Y7848722D02*
X7453092Y7862659D01*
X7453092Y7862659D02*
X7480025Y7863129D01*
X7480025Y7863129D02*
X7500343Y7856749D01*
X7500343Y7856749D02*
X7534362Y7837136D01*
X7534362Y7837136D02*
X7554914Y7817289D01*
X7554914Y7817289D02*
X7575702Y7783975D01*
X7575702Y7783975D02*
X7582788Y7763892D01*
X7582788Y7763892D02*
X7583258Y7736959D01*
X7583258Y7736959D02*
X7570262Y7709791D01*
X7570262Y7709791D02*
X7537183Y7675537D01*
X7519015Y7944634D02*
X7605020Y8033696D01*
X7605020Y8033696D02*
X7613516Y7932813D01*
X7613516Y7932813D02*
X7633364Y7953366D01*
X7633364Y7953366D02*
X7653446Y7960452D01*
X7653446Y7960452D02*
X7666913Y7960687D01*
X7666913Y7960687D02*
X7687230Y7954306D01*
X7687230Y7954306D02*
X7721485Y7921227D01*
X7721485Y7921227D02*
X7728571Y7901145D01*
X7728571Y7901145D02*
X7728806Y7887678D01*
X7728806Y7887678D02*
X7722425Y7867360D01*
X7722425Y7867360D02*
X7682730Y7826255D01*
X7682730Y7826255D02*
X7662648Y7819169D01*
X7662648Y7819169D02*
X7649181Y7818934D01*
X7730720Y8163862D02*
X7664562Y8095353D01*
X7664562Y8095353D02*
X7726455Y8022344D01*
X7726455Y8022344D02*
X7726220Y8035811D01*
X7726220Y8035811D02*
X7732601Y8056128D01*
X7732601Y8056128D02*
X7765680Y8090383D01*
X7765680Y8090383D02*
X7785762Y8097469D01*
X7785762Y8097469D02*
X7799229Y8097704D01*
X7799229Y8097704D02*
X7819546Y8091323D01*
X7819546Y8091323D02*
X7853800Y8058244D01*
X7853800Y8058244D02*
X7860886Y8038162D01*
X7860886Y8038162D02*
X7861121Y8024695D01*
X7861121Y8024695D02*
X7854741Y8004377D01*
X7854741Y8004377D02*
X7821662Y7970123D01*
X7821662Y7970123D02*
X7801579Y7963037D01*
X7801579Y7963037D02*
X7788113Y7962802D01*
X-10720358Y3388724D02*
X-10658555Y3578935D01*
X-10658555Y3578935D02*
X-10613266Y3564220D01*
X-10613266Y3564220D02*
X-10589036Y3546333D01*
X-10589036Y3546333D02*
X-10576807Y3522332D01*
X-10576807Y3522332D02*
X-10573635Y3501273D01*
X-10573635Y3501273D02*
X-10576350Y3462100D01*
X-10576350Y3462100D02*
X-10585179Y3434927D01*
X-10585179Y3434927D02*
X-10606009Y3401639D01*
X-10606009Y3401639D02*
X-10620952Y3386467D01*
X-10620952Y3386467D02*
X-10644954Y3374237D01*
X-10644954Y3374237D02*
X-10675070Y3374009D01*
X-10675070Y3374009D02*
X-10720358Y3388724D01*
X-10386824Y3490645D02*
X-10423055Y3502417D01*
X-10423055Y3502417D02*
X-10444113Y3499245D01*
X-10444113Y3499245D02*
X-10456114Y3493130D01*
X-10456114Y3493130D02*
X-10483059Y3471843D01*
X-10483059Y3471843D02*
X-10503888Y3438556D01*
X-10503888Y3438556D02*
X-10527432Y3366094D01*
X-10527432Y3366094D02*
X-10524261Y3345036D01*
X-10524261Y3345036D02*
X-10518146Y3333035D01*
X-10518146Y3333035D02*
X-10502974Y3318091D01*
X-10502974Y3318091D02*
X-10466743Y3306319D01*
X-10466743Y3306319D02*
X-10445685Y3309491D01*
X-10445685Y3309491D02*
X-10433684Y3315606D01*
X-10433684Y3315606D02*
X-10418740Y3330778D01*
X-10418740Y3330778D02*
X-10404025Y3376066D01*
X-10404025Y3376066D02*
X-10407197Y3397125D01*
X-10407197Y3397125D02*
X-10413312Y3409125D01*
X-10413312Y3409125D02*
X-10428484Y3424069D01*
X-10428484Y3424069D02*
X-10464715Y3435841D01*
X-10464715Y3435841D02*
X-10485773Y3432670D01*
X-10485773Y3432670D02*
X-10497774Y3426555D01*
X-10497774Y3426555D02*
X-10512717Y3411383D01*
X-10226272Y3368380D02*
X-10267474Y3241573D01*
X-10248016Y3455557D02*
X-10337450Y3334407D01*
X-10337450Y3334407D02*
X-10219700Y3296148D01*
D12*
X-637704Y4887030D02*
X-1018657Y4620363D01*
X-637704Y4429887D02*
X-1437704Y4429887D01*
X-1437704Y4429887D02*
X-1437704Y4734649D01*
X-1437704Y4734649D02*
X-1399609Y4810839D01*
X-1399609Y4810839D02*
X-1361514Y4848934D01*
X-1361514Y4848934D02*
X-1285323Y4887030D01*
X-1285323Y4887030D02*
X-1171038Y4887030D01*
X-1171038Y4887030D02*
X-1094847Y4848934D01*
X-1094847Y4848934D02*
X-1056752Y4810839D01*
X-1056752Y4810839D02*
X-1018657Y4734649D01*
X-1018657Y4734649D02*
X-1018657Y4429887D01*
X-1437704Y5153696D02*
X-1437704Y5648934D01*
X-1437704Y5648934D02*
X-1132942Y5382268D01*
X-1132942Y5382268D02*
X-1132942Y5496553D01*
X-1132942Y5496553D02*
X-1094847Y5572744D01*
X-1094847Y5572744D02*
X-1056752Y5610839D01*
X-1056752Y5610839D02*
X-980561Y5648934D01*
X-980561Y5648934D02*
X-790085Y5648934D01*
X-790085Y5648934D02*
X-713895Y5610839D01*
X-713895Y5610839D02*
X-675800Y5572744D01*
X-675800Y5572744D02*
X-637704Y5496553D01*
X-637704Y5496553D02*
X-637704Y5267982D01*
X-637704Y5267982D02*
X-675800Y5191791D01*
X-675800Y5191791D02*
X-713895Y5153696D01*
X-237704Y3166667D02*
X-618657Y2900000D01*
X-237704Y2709524D02*
X-1037704Y2709524D01*
X-1037704Y2709524D02*
X-1037704Y3014286D01*
X-1037704Y3014286D02*
X-999609Y3090476D01*
X-999609Y3090476D02*
X-961514Y3128571D01*
X-961514Y3128571D02*
X-885323Y3166667D01*
X-885323Y3166667D02*
X-771038Y3166667D01*
X-771038Y3166667D02*
X-694847Y3128571D01*
X-694847Y3128571D02*
X-656752Y3090476D01*
X-656752Y3090476D02*
X-618657Y3014286D01*
X-618657Y3014286D02*
X-618657Y2709524D01*
X-1037704Y3433333D02*
X-1037704Y3928571D01*
X-1037704Y3928571D02*
X-732942Y3661905D01*
X-732942Y3661905D02*
X-732942Y3776190D01*
X-732942Y3776190D02*
X-694847Y3852381D01*
X-694847Y3852381D02*
X-656752Y3890476D01*
X-656752Y3890476D02*
X-580561Y3928571D01*
X-580561Y3928571D02*
X-390085Y3928571D01*
X-390085Y3928571D02*
X-313895Y3890476D01*
X-313895Y3890476D02*
X-275800Y3852381D01*
X-275800Y3852381D02*
X-237704Y3776190D01*
X-237704Y3776190D02*
X-237704Y3547619D01*
X-237704Y3547619D02*
X-275800Y3471428D01*
X-275800Y3471428D02*
X-313895Y3433333D01*
D13*
X4158333Y3586425D02*
X4075000Y3705472D01*
X4015476Y3586425D02*
X4015476Y3836425D01*
X4015476Y3836425D02*
X4110714Y3836425D01*
X4110714Y3836425D02*
X4134524Y3824520D01*
X4134524Y3824520D02*
X4146429Y3812615D01*
X4146429Y3812615D02*
X4158333Y3788806D01*
X4158333Y3788806D02*
X4158333Y3753091D01*
X4158333Y3753091D02*
X4146429Y3729282D01*
X4146429Y3729282D02*
X4134524Y3717377D01*
X4134524Y3717377D02*
X4110714Y3705472D01*
X4110714Y3705472D02*
X4015476Y3705472D01*
X4372619Y3753091D02*
X4372619Y3586425D01*
X4313095Y3848330D02*
X4253572Y3669758D01*
X4253572Y3669758D02*
X4408333Y3669758D01*
D10*
X3627210Y-10228639D02*
X3815149Y-10160235D01*
X3815149Y-10160235D02*
X3831435Y-10204982D01*
X3831435Y-10204982D02*
X3832258Y-10235088D01*
X3832258Y-10235088D02*
X3820874Y-10259501D01*
X3820874Y-10259501D02*
X3806232Y-10274965D01*
X3806232Y-10274965D02*
X3773692Y-10296944D01*
X3773692Y-10296944D02*
X3746843Y-10306716D01*
X3746843Y-10306716D02*
X3707788Y-10310796D01*
X3707788Y-10310796D02*
X3686632Y-10308361D01*
X3686632Y-10308361D02*
X3662218Y-10296977D01*
X3662218Y-10296977D02*
X3643497Y-10273386D01*
X3643497Y-10273386D02*
X3627210Y-10228639D01*
X3912869Y-10428718D02*
X3899839Y-10392921D01*
X3899839Y-10392921D02*
X3884375Y-10378279D01*
X3884375Y-10378279D02*
X3872168Y-10372587D01*
X3872168Y-10372587D02*
X3838805Y-10364460D01*
X3838805Y-10364460D02*
X3799750Y-10368540D01*
X3799750Y-10368540D02*
X3728155Y-10394599D01*
X3728155Y-10394599D02*
X3713513Y-10410063D01*
X3713513Y-10410063D02*
X3707821Y-10422269D01*
X3707821Y-10422269D02*
X3705386Y-10443426D01*
X3705386Y-10443426D02*
X3718415Y-10479224D01*
X3718415Y-10479224D02*
X3733880Y-10493865D01*
X3733880Y-10493865D02*
X3746086Y-10499557D01*
X3746086Y-10499557D02*
X3767243Y-10501992D01*
X3767243Y-10501992D02*
X3811990Y-10485705D01*
X3811990Y-10485705D02*
X3826631Y-10470241D01*
X3826631Y-10470241D02*
X3832324Y-10458034D01*
X3832324Y-10458034D02*
X3834758Y-10436878D01*
X3834758Y-10436878D02*
X3821729Y-10401080D01*
X3821729Y-10401080D02*
X3806265Y-10386439D01*
X3806265Y-10386439D02*
X3794058Y-10380747D01*
X3794058Y-10380747D02*
X3772902Y-10378312D01*
X-1653747Y11120878D02*
X-1455694Y11148713D01*
X-1455694Y11148713D02*
X-1449066Y11101557D01*
X-1449066Y11101557D02*
X-1454521Y11071938D01*
X-1454521Y11071938D02*
X-1470733Y11050425D01*
X-1470733Y11050425D02*
X-1488269Y11038343D01*
X-1488269Y11038343D02*
X-1524668Y11023610D01*
X-1524668Y11023610D02*
X-1552962Y11019634D01*
X-1552962Y11019634D02*
X-1592012Y11023763D01*
X-1592012Y11023763D02*
X-1612199Y11030543D01*
X-1612199Y11030543D02*
X-1633713Y11046754D01*
X-1633713Y11046754D02*
X-1647120Y11073722D01*
X-1647120Y11073722D02*
X-1653747Y11120878D01*
X-1481948Y10856501D02*
X-1613984Y10837944D01*
X-1413126Y10914260D02*
X-1561220Y10941534D01*
X-1561220Y10941534D02*
X-1543989Y10818929D01*
X-1482254Y10721814D02*
X-1475474Y10742002D01*
X-1475474Y10742002D02*
X-1467368Y10752759D01*
X-1467368Y10752759D02*
X-1449831Y10764841D01*
X-1449831Y10764841D02*
X-1440400Y10766166D01*
X-1440400Y10766166D02*
X-1420212Y10759386D01*
X-1420212Y10759386D02*
X-1409456Y10751280D01*
X-1409456Y10751280D02*
X-1397374Y10733743D01*
X-1397374Y10733743D02*
X-1392072Y10696019D01*
X-1392072Y10696019D02*
X-1398852Y10675831D01*
X-1398852Y10675831D02*
X-1406958Y10665075D01*
X-1406958Y10665075D02*
X-1424494Y10652993D01*
X-1424494Y10652993D02*
X-1433926Y10651667D01*
X-1433926Y10651667D02*
X-1454113Y10658447D01*
X-1454113Y10658447D02*
X-1464870Y10666553D01*
X-1464870Y10666553D02*
X-1476952Y10684090D01*
X-1476952Y10684090D02*
X-1482254Y10721814D01*
X-1482254Y10721814D02*
X-1494336Y10739351D01*
X-1494336Y10739351D02*
X-1505092Y10747457D01*
X-1505092Y10747457D02*
X-1525280Y10754237D01*
X-1525280Y10754237D02*
X-1563005Y10748935D01*
X-1563005Y10748935D02*
X-1580541Y10736853D01*
X-1580541Y10736853D02*
X-1588647Y10726096D01*
X-1588647Y10726096D02*
X-1595427Y10705909D01*
X-1595427Y10705909D02*
X-1590125Y10668184D01*
X-1590125Y10668184D02*
X-1578043Y10650647D01*
X-1578043Y10650647D02*
X-1567287Y10642542D01*
X-1567287Y10642542D02*
X-1547099Y10635762D01*
X-1547099Y10635762D02*
X-1509375Y10641063D01*
X-1509375Y10641063D02*
X-1491838Y10653145D01*
X-1491838Y10653145D02*
X-1483732Y10663902D01*
X-1483732Y10663902D02*
X-1476952Y10684090D01*
D12*
X4386104Y-3653696D02*
X4424200Y-3691792D01*
X4424200Y-3691792D02*
X4462295Y-3806077D01*
X4462295Y-3806077D02*
X4462295Y-3882268D01*
X4462295Y-3882268D02*
X4424200Y-3996554D01*
X4424200Y-3996554D02*
X4348009Y-4072744D01*
X4348009Y-4072744D02*
X4271819Y-4110839D01*
X4271819Y-4110839D02*
X4119438Y-4148935D01*
X4119438Y-4148935D02*
X4005152Y-4148935D01*
X4005152Y-4148935D02*
X3852771Y-4110839D01*
X3852771Y-4110839D02*
X3776580Y-4072744D01*
X3776580Y-4072744D02*
X3700390Y-3996554D01*
X3700390Y-3996554D02*
X3662295Y-3882268D01*
X3662295Y-3882268D02*
X3662295Y-3806077D01*
X3662295Y-3806077D02*
X3700390Y-3691792D01*
X3700390Y-3691792D02*
X3738485Y-3653696D01*
X4462295Y-2891792D02*
X4462295Y-3348935D01*
X4462295Y-3120363D02*
X3662295Y-3120363D01*
X3662295Y-3120363D02*
X3776580Y-3196554D01*
X3776580Y-3196554D02*
X3852771Y-3272744D01*
X3852771Y-3272744D02*
X3890866Y-3348935D01*
X3386104Y-3833332D02*
X3424200Y-3871428D01*
X3424200Y-3871428D02*
X3462295Y-3985713D01*
X3462295Y-3985713D02*
X3462295Y-4061904D01*
X3462295Y-4061904D02*
X3424200Y-4176190D01*
X3424200Y-4176190D02*
X3348009Y-4252380D01*
X3348009Y-4252380D02*
X3271819Y-4290475D01*
X3271819Y-4290475D02*
X3119438Y-4328571D01*
X3119438Y-4328571D02*
X3005152Y-4328571D01*
X3005152Y-4328571D02*
X2852771Y-4290475D01*
X2852771Y-4290475D02*
X2776580Y-4252380D01*
X2776580Y-4252380D02*
X2700390Y-4176190D01*
X2700390Y-4176190D02*
X2662295Y-4061904D01*
X2662295Y-4061904D02*
X2662295Y-3985713D01*
X2662295Y-3985713D02*
X2700390Y-3871428D01*
X2700390Y-3871428D02*
X2738485Y-3833332D01*
X3462295Y-3071428D02*
X3462295Y-3528571D01*
X3462295Y-3299999D02*
X2662295Y-3299999D01*
X2662295Y-3299999D02*
X2776580Y-3376190D01*
X2776580Y-3376190D02*
X2852771Y-3452380D01*
X2852771Y-3452380D02*
X2890866Y-3528571D01*
D10*
X-7874588Y8024930D02*
X-7730720Y8163862D01*
X-7730720Y8163862D02*
X-7697641Y8129607D01*
X-7697641Y8129607D02*
X-7684644Y8102439D01*
X-7684644Y8102439D02*
X-7685115Y8075506D01*
X-7685115Y8075506D02*
X-7692200Y8055423D01*
X-7692200Y8055423D02*
X-7712988Y8022109D01*
X-7712988Y8022109D02*
X-7733541Y8002262D01*
X-7733541Y8002262D02*
X-7767560Y7982649D01*
X-7767560Y7982649D02*
X-7787877Y7976269D01*
X-7787877Y7976269D02*
X-7814811Y7976739D01*
X-7814811Y7976739D02*
X-7841509Y7990676D01*
X-7841509Y7990676D02*
X-7874588Y8024930D01*
X-7525630Y7951485D02*
X-7591788Y8019994D01*
X-7591788Y8019994D02*
X-7666913Y7960686D01*
X-7666913Y7960686D02*
X-7653446Y7960451D01*
X-7653446Y7960451D02*
X-7633364Y7953365D01*
X-7633364Y7953365D02*
X-7600285Y7919111D01*
X-7600285Y7919111D02*
X-7593904Y7898794D01*
X-7593904Y7898794D02*
X-7594139Y7885327D01*
X-7594139Y7885327D02*
X-7601225Y7865245D01*
X-7601225Y7865245D02*
X-7635479Y7832166D01*
X-7635479Y7832166D02*
X-7655797Y7825785D01*
X-7655797Y7825785D02*
X-7669263Y7826020D01*
X-7669263Y7826020D02*
X-7689346Y7833106D01*
X-7689346Y7833106D02*
X-7722425Y7867360D01*
X-7722425Y7867360D02*
X-7728805Y7887678D01*
X-7728805Y7887678D02*
X-7728570Y7901144D01*
X-7472704Y7896678D02*
X-7380083Y7800766D01*
X-7380083Y7800766D02*
X-7583493Y7723492D01*
X-9781582Y5543552D02*
X-9681582Y5716757D01*
X-9681582Y5716757D02*
X-9640342Y5692947D01*
X-9640342Y5692947D02*
X-9620361Y5670414D01*
X-9620361Y5670414D02*
X-9613389Y5644394D01*
X-9613389Y5644394D02*
X-9614665Y5623136D01*
X-9614665Y5623136D02*
X-9625465Y5585383D01*
X-9625465Y5585383D02*
X-9639750Y5560640D01*
X-9639750Y5560640D02*
X-9667046Y5532410D01*
X-9667046Y5532410D02*
X-9684817Y5520676D01*
X-9684817Y5520676D02*
X-9710837Y5513704D01*
X-9710837Y5513704D02*
X-9740342Y5519742D01*
X-9740342Y5519742D02*
X-9781582Y5543552D01*
X-9434146Y5573900D02*
X-9467137Y5592947D01*
X-9467137Y5592947D02*
X-9488395Y5594223D01*
X-9488395Y5594223D02*
X-9501405Y5590737D01*
X-9501405Y5590737D02*
X-9532186Y5575517D01*
X-9532186Y5575517D02*
X-9559482Y5547288D01*
X-9559482Y5547288D02*
X-9597577Y5481305D01*
X-9597577Y5481305D02*
X-9598853Y5460047D01*
X-9598853Y5460047D02*
X-9595367Y5447038D01*
X-9595367Y5447038D02*
X-9583633Y5429266D01*
X-9583633Y5429266D02*
X-9550642Y5410218D01*
X-9550642Y5410218D02*
X-9529384Y5408942D01*
X-9529384Y5408942D02*
X-9516374Y5412428D01*
X-9516374Y5412428D02*
X-9498603Y5424162D01*
X-9498603Y5424162D02*
X-9474793Y5465401D01*
X-9474793Y5465401D02*
X-9473517Y5486659D01*
X-9473517Y5486659D02*
X-9477003Y5499669D01*
X-9477003Y5499669D02*
X-9488737Y5517441D01*
X-9488737Y5517441D02*
X-9521728Y5536488D01*
X-9521728Y5536488D02*
X-9542986Y5537764D01*
X-9542986Y5537764D02*
X-9555996Y5534278D01*
X-9555996Y5534278D02*
X-9573767Y5522544D01*
X-9352693Y5295933D02*
X-9451667Y5353076D01*
X-9402180Y5324504D02*
X-9302180Y5497709D01*
X-9302180Y5497709D02*
X-9332962Y5482489D01*
X-9332962Y5482489D02*
X-9358981Y5475518D01*
X-9358981Y5475518D02*
X-9380239Y5476793D01*
D12*
X-2453696Y3263895D02*
X-2491792Y3225800D01*
X-2491792Y3225800D02*
X-2606077Y3187704D01*
X-2606077Y3187704D02*
X-2682268Y3187704D01*
X-2682268Y3187704D02*
X-2796554Y3225800D01*
X-2796554Y3225800D02*
X-2872744Y3301990D01*
X-2872744Y3301990D02*
X-2910839Y3378180D01*
X-2910839Y3378180D02*
X-2948935Y3530561D01*
X-2948935Y3530561D02*
X-2948935Y3644847D01*
X-2948935Y3644847D02*
X-2910839Y3797228D01*
X-2910839Y3797228D02*
X-2872744Y3873419D01*
X-2872744Y3873419D02*
X-2796554Y3949609D01*
X-2796554Y3949609D02*
X-2682268Y3987704D01*
X-2682268Y3987704D02*
X-2606077Y3987704D01*
X-2606077Y3987704D02*
X-2491792Y3949609D01*
X-2491792Y3949609D02*
X-2453696Y3911514D01*
X-1767982Y3721038D02*
X-1767982Y3187704D01*
X-1958458Y4025800D02*
X-2148935Y3454371D01*
X-2148935Y3454371D02*
X-1653696Y3454371D01*
X-4133332Y3263895D02*
X-4171428Y3225800D01*
X-4171428Y3225800D02*
X-4285713Y3187704D01*
X-4285713Y3187704D02*
X-4361904Y3187704D01*
X-4361904Y3187704D02*
X-4476190Y3225800D01*
X-4476190Y3225800D02*
X-4552380Y3301990D01*
X-4552380Y3301990D02*
X-4590475Y3378180D01*
X-4590475Y3378180D02*
X-4628571Y3530561D01*
X-4628571Y3530561D02*
X-4628571Y3644847D01*
X-4628571Y3644847D02*
X-4590475Y3797228D01*
X-4590475Y3797228D02*
X-4552380Y3873419D01*
X-4552380Y3873419D02*
X-4476190Y3949609D01*
X-4476190Y3949609D02*
X-4361904Y3987704D01*
X-4361904Y3987704D02*
X-4285713Y3987704D01*
X-4285713Y3987704D02*
X-4171428Y3949609D01*
X-4171428Y3949609D02*
X-4133332Y3911514D01*
X-3447618Y3721038D02*
X-3447618Y3187704D01*
X-3638094Y4025800D02*
X-3828571Y3454371D01*
X-3828571Y3454371D02*
X-3333332Y3454371D01*
D10*
X-11232870Y-482244D02*
X-11239850Y-282366D01*
X-11239850Y-282366D02*
X-11192260Y-280704D01*
X-11192260Y-280704D02*
X-11163374Y-289225D01*
X-11163374Y-289225D02*
X-11143673Y-307596D01*
X-11143673Y-307596D02*
X-11133490Y-326300D01*
X-11133490Y-326300D02*
X-11122643Y-364040D01*
X-11122643Y-364040D02*
X-11121646Y-392594D01*
X-11121646Y-392594D02*
X-11129834Y-430998D01*
X-11129834Y-430998D02*
X-11138687Y-450366D01*
X-11138687Y-450366D02*
X-11157059Y-470067D01*
X-11157059Y-470067D02*
X-11185280Y-480582D01*
X-11185280Y-480582D02*
X-11232870Y-482244D01*
X-10954310Y-272395D02*
X-10992382Y-273724D01*
X-10992382Y-273724D02*
X-11011086Y-283907D01*
X-11011086Y-283907D02*
X-11020271Y-293757D01*
X-11020271Y-293757D02*
X-11038310Y-322976D01*
X-11038310Y-322976D02*
X-11046499Y-361380D01*
X-11046499Y-361380D02*
X-11043840Y-437525D01*
X-11043840Y-437525D02*
X-11033657Y-456228D01*
X-11033657Y-456228D02*
X-11023806Y-465414D01*
X-11023806Y-465414D02*
X-11004438Y-474267D01*
X-11004438Y-474267D02*
X-10966366Y-472938D01*
X-10966366Y-472938D02*
X-10947662Y-462755D01*
X-10947662Y-462755D02*
X-10938477Y-452904D01*
X-10938477Y-452904D02*
X-10929623Y-433536D01*
X-10929623Y-433536D02*
X-10931285Y-385946D01*
X-10931285Y-385946D02*
X-10941468Y-367242D01*
X-10941468Y-367242D02*
X-10951318Y-358057D01*
X-10951318Y-358057D02*
X-10970687Y-349203D01*
X-10970687Y-349203D02*
X-11008759Y-350533D01*
X-11008759Y-350533D02*
X-11027463Y-360716D01*
X-11027463Y-360716D02*
X-11036648Y-370566D01*
X-11036648Y-370566D02*
X-11045501Y-389935D01*
X-10833114Y-468284D02*
X-10795042Y-466955D01*
X-10795042Y-466955D02*
X-10776338Y-456772D01*
X-10776338Y-456772D02*
X-10767153Y-446922D01*
X-10767153Y-446922D02*
X-10749114Y-417703D01*
X-10749114Y-417703D02*
X-10740925Y-379298D01*
X-10740925Y-379298D02*
X-10743584Y-303154D01*
X-10743584Y-303154D02*
X-10753767Y-284451D01*
X-10753767Y-284451D02*
X-10763618Y-275265D01*
X-10763618Y-275265D02*
X-10782986Y-266412D01*
X-10782986Y-266412D02*
X-10821058Y-267741D01*
X-10821058Y-267741D02*
X-10839762Y-277924D01*
X-10839762Y-277924D02*
X-10848947Y-287775D01*
X-10848947Y-287775D02*
X-10857800Y-307143D01*
X-10857800Y-307143D02*
X-10856139Y-354733D01*
X-10856139Y-354733D02*
X-10845956Y-373437D01*
X-10845956Y-373437D02*
X-10836105Y-382622D01*
X-10836105Y-382622D02*
X-10816737Y-391476D01*
X-10816737Y-391476D02*
X-10778665Y-390146D01*
X-10778665Y-390146D02*
X-10759961Y-379963D01*
X-10759961Y-379963D02*
X-10750776Y-370113D01*
X-10750776Y-370113D02*
X-10741923Y-350744D01*
X-10065558Y-5009384D02*
X-10153232Y-4829625D01*
X-10153232Y-4829625D02*
X-10110432Y-4808750D01*
X-10110432Y-4808750D02*
X-10080578Y-4804785D01*
X-10080578Y-4804785D02*
X-10055108Y-4813555D01*
X-10055108Y-4813555D02*
X-10038198Y-4826500D01*
X-10038198Y-4826500D02*
X-10012938Y-4856565D01*
X-10012938Y-4856565D02*
X-10000413Y-4882245D01*
X-10000413Y-4882245D02*
X-9992273Y-4920660D01*
X-9992273Y-4920660D02*
X-9992483Y-4941955D01*
X-9992483Y-4941955D02*
X-10001253Y-4967424D01*
X-10001253Y-4967424D02*
X-10022758Y-4988509D01*
X-10022758Y-4988509D02*
X-10065558Y-5009384D01*
X-9990593Y-4750301D02*
X-9870754Y-4691851D01*
X-9870754Y-4691851D02*
X-9860119Y-4909185D01*
X-9716675Y-4616702D02*
X-9802275Y-4658452D01*
X-9802275Y-4658452D02*
X-9769085Y-4748226D01*
X-9769085Y-4748226D02*
X-9764700Y-4735491D01*
X-9764700Y-4735491D02*
X-9751755Y-4718581D01*
X-9751755Y-4718581D02*
X-9708955Y-4697707D01*
X-9708955Y-4697707D02*
X-9687660Y-4697917D01*
X-9687660Y-4697917D02*
X-9674926Y-4702302D01*
X-9674926Y-4702302D02*
X-9658016Y-4715246D01*
X-9658016Y-4715246D02*
X-9637141Y-4758046D01*
X-9637141Y-4758046D02*
X-9637351Y-4779341D01*
X-9637351Y-4779341D02*
X-9641736Y-4792076D01*
X-9641736Y-4792076D02*
X-9654681Y-4808986D01*
X-9654681Y-4808986D02*
X-9697480Y-4829861D01*
X-9697480Y-4829861D02*
X-9718775Y-4829651D01*
X-9718775Y-4829651D02*
X-9731510Y-4825266D01*
X-10930697Y2632599D02*
X-10882313Y2826658D01*
X-10882313Y2826658D02*
X-10836108Y2815138D01*
X-10836108Y2815138D02*
X-10810689Y2798985D01*
X-10810689Y2798985D02*
X-10796816Y2775895D01*
X-10796816Y2775895D02*
X-10792183Y2755110D01*
X-10792183Y2755110D02*
X-10792158Y2715842D01*
X-10792158Y2715842D02*
X-10799070Y2688119D01*
X-10799070Y2688119D02*
X-10817527Y2653460D01*
X-10817527Y2653460D02*
X-10831376Y2637282D01*
X-10831376Y2637282D02*
X-10854466Y2623408D01*
X-10854466Y2623408D02*
X-10884493Y2621079D01*
X-10884493Y2621079D02*
X-10930697Y2632599D01*
X-10605085Y2757538D02*
X-10642049Y2766754D01*
X-10642049Y2766754D02*
X-10662835Y2762121D01*
X-10662835Y2762121D02*
X-10674380Y2755184D01*
X-10674380Y2755184D02*
X-10699774Y2732069D01*
X-10699774Y2732069D02*
X-10718231Y2697410D01*
X-10718231Y2697410D02*
X-10736663Y2623483D01*
X-10736663Y2623483D02*
X-10732030Y2602697D01*
X-10732030Y2602697D02*
X-10725093Y2591152D01*
X-10725093Y2591152D02*
X-10708915Y2577303D01*
X-10708915Y2577303D02*
X-10671952Y2568087D01*
X-10671952Y2568087D02*
X-10651166Y2572720D01*
X-10651166Y2572720D02*
X-10639621Y2579656D01*
X-10639621Y2579656D02*
X-10625772Y2595834D01*
X-10625772Y2595834D02*
X-10614252Y2642039D01*
X-10614252Y2642039D02*
X-10618885Y2662825D01*
X-10618885Y2662825D02*
X-10625822Y2674370D01*
X-10625822Y2674370D02*
X-10641999Y2688219D01*
X-10641999Y2688219D02*
X-10678963Y2697435D01*
X-10678963Y2697435D02*
X-10699749Y2692802D01*
X-10699749Y2692802D02*
X-10711294Y2685865D01*
X-10711294Y2685865D02*
X-10725143Y2669687D01*
X-10411026Y2709153D02*
X-10503436Y2732194D01*
X-10503436Y2732194D02*
X-10535717Y2642089D01*
X-10535717Y2642089D02*
X-10524172Y2649025D01*
X-10524172Y2649025D02*
X-10503386Y2653658D01*
X-10503386Y2653658D02*
X-10457181Y2642138D01*
X-10457181Y2642138D02*
X-10441003Y2628289D01*
X-10441003Y2628289D02*
X-10434067Y2616744D01*
X-10434067Y2616744D02*
X-10429434Y2595959D01*
X-10429434Y2595959D02*
X-10440954Y2549754D01*
X-10440954Y2549754D02*
X-10454803Y2533576D01*
X-10454803Y2533576D02*
X-10466348Y2526639D01*
X-10466348Y2526639D02*
X-10487134Y2522006D01*
X-10487134Y2522006D02*
X-10533338Y2533526D01*
X-10533338Y2533526D02*
X-10549516Y2547375D01*
X-10549516Y2547375D02*
X-10556453Y2558920D01*
X2168349Y-10633903D02*
X2363979Y-10592320D01*
X2363979Y-10592320D02*
X2373879Y-10638899D01*
X2373879Y-10638899D02*
X2370504Y-10668826D01*
X2370504Y-10668826D02*
X2355833Y-10691417D01*
X2355833Y-10691417D02*
X2339181Y-10704693D01*
X2339181Y-10704693D02*
X2303899Y-10721930D01*
X2303899Y-10721930D02*
X2275952Y-10727870D01*
X2275952Y-10727870D02*
X2236709Y-10726475D01*
X2236709Y-10726475D02*
X2216097Y-10721119D01*
X2216097Y-10721119D02*
X2193506Y-10706448D01*
X2193506Y-10706448D02*
X2178250Y-10680481D01*
X2178250Y-10680481D02*
X2168349Y-10633903D01*
X2358172Y-10885652D02*
X2227752Y-10913373D01*
X2422797Y-10823232D02*
X2273161Y-10806356D01*
X2273161Y-10806356D02*
X2298903Y-10927460D01*
D12*
X2887030Y-1486104D02*
X2848934Y-1524200D01*
X2848934Y-1524200D02*
X2734649Y-1562295D01*
X2734649Y-1562295D02*
X2658458Y-1562295D01*
X2658458Y-1562295D02*
X2544172Y-1524200D01*
X2544172Y-1524200D02*
X2467982Y-1448009D01*
X2467982Y-1448009D02*
X2429887Y-1371819D01*
X2429887Y-1371819D02*
X2391791Y-1219438D01*
X2391791Y-1219438D02*
X2391791Y-1105152D01*
X2391791Y-1105152D02*
X2429887Y-952771D01*
X2429887Y-952771D02*
X2467982Y-876580D01*
X2467982Y-876580D02*
X2544172Y-800390D01*
X2544172Y-800390D02*
X2658458Y-762295D01*
X2658458Y-762295D02*
X2734649Y-762295D01*
X2734649Y-762295D02*
X2848934Y-800390D01*
X2848934Y-800390D02*
X2887030Y-838485D01*
X3153696Y-762295D02*
X3648934Y-762295D01*
X3648934Y-762295D02*
X3382268Y-1067057D01*
X3382268Y-1067057D02*
X3496553Y-1067057D01*
X3496553Y-1067057D02*
X3572744Y-1105152D01*
X3572744Y-1105152D02*
X3610839Y-1143247D01*
X3610839Y-1143247D02*
X3648934Y-1219438D01*
X3648934Y-1219438D02*
X3648934Y-1409914D01*
X3648934Y-1409914D02*
X3610839Y-1486104D01*
X3610839Y-1486104D02*
X3572744Y-1524200D01*
X3572744Y-1524200D02*
X3496553Y-1562295D01*
X3496553Y-1562295D02*
X3267982Y-1562295D01*
X3267982Y-1562295D02*
X3191791Y-1524200D01*
X3191791Y-1524200D02*
X3153696Y-1486104D01*
X4766667Y-1486104D02*
X4728571Y-1524200D01*
X4728571Y-1524200D02*
X4614286Y-1562295D01*
X4614286Y-1562295D02*
X4538095Y-1562295D01*
X4538095Y-1562295D02*
X4423809Y-1524200D01*
X4423809Y-1524200D02*
X4347619Y-1448009D01*
X4347619Y-1448009D02*
X4309524Y-1371819D01*
X4309524Y-1371819D02*
X4271428Y-1219438D01*
X4271428Y-1219438D02*
X4271428Y-1105152D01*
X4271428Y-1105152D02*
X4309524Y-952771D01*
X4309524Y-952771D02*
X4347619Y-876580D01*
X4347619Y-876580D02*
X4423809Y-800390D01*
X4423809Y-800390D02*
X4538095Y-762295D01*
X4538095Y-762295D02*
X4614286Y-762295D01*
X4614286Y-762295D02*
X4728571Y-800390D01*
X4728571Y-800390D02*
X4766667Y-838485D01*
X5033333Y-762295D02*
X5528571Y-762295D01*
X5528571Y-762295D02*
X5261905Y-1067057D01*
X5261905Y-1067057D02*
X5376190Y-1067057D01*
X5376190Y-1067057D02*
X5452381Y-1105152D01*
X5452381Y-1105152D02*
X5490476Y-1143247D01*
X5490476Y-1143247D02*
X5528571Y-1219438D01*
X5528571Y-1219438D02*
X5528571Y-1409914D01*
X5528571Y-1409914D02*
X5490476Y-1486104D01*
X5490476Y-1486104D02*
X5452381Y-1524200D01*
X5452381Y-1524200D02*
X5376190Y-1562295D01*
X5376190Y-1562295D02*
X5147619Y-1562295D01*
X5147619Y-1562295D02*
X5071428Y-1524200D01*
X5071428Y-1524200D02*
X5033333Y-1486104D01*
D10*
X10753729Y285555D02*
X10746749Y485433D01*
X10746749Y485433D02*
X10794339Y487095D01*
X10794339Y487095D02*
X10823225Y478574D01*
X10823225Y478574D02*
X10842926Y460203D01*
X10842926Y460203D02*
X10853109Y441499D01*
X10853109Y441499D02*
X10863956Y403759D01*
X10863956Y403759D02*
X10864953Y375205D01*
X10864953Y375205D02*
X10856765Y336801D01*
X10856765Y336801D02*
X10847912Y317433D01*
X10847912Y317433D02*
X10829540Y297732D01*
X10829540Y297732D02*
X10801319Y287217D01*
X10801319Y287217D02*
X10753729Y285555D01*
X10937774Y473045D02*
X10946959Y482895D01*
X10946959Y482895D02*
X10965663Y493078D01*
X10965663Y493078D02*
X11013253Y494740D01*
X11013253Y494740D02*
X11032621Y485886D01*
X11032621Y485886D02*
X11042472Y476701D01*
X11042472Y476701D02*
X11052655Y457997D01*
X11052655Y457997D02*
X11053319Y438961D01*
X11053319Y438961D02*
X11044799Y410075D01*
X11044799Y410075D02*
X10934571Y291870D01*
X10934571Y291870D02*
X11058305Y296191D01*
X11224976Y435426D02*
X11229629Y302174D01*
X11174727Y509908D02*
X11132122Y365476D01*
X11132122Y365476D02*
X11255856Y369797D01*
X-7157919Y-8670341D02*
X-7311128Y-8541783D01*
X-7311128Y-8541783D02*
X-7280519Y-8505305D01*
X-7280519Y-8505305D02*
X-7254858Y-8489540D01*
X-7254858Y-8489540D02*
X-7228023Y-8487192D01*
X-7228023Y-8487192D02*
X-7207310Y-8492140D01*
X-7207310Y-8492140D02*
X-7172006Y-8509331D01*
X-7172006Y-8509331D02*
X-7150119Y-8527697D01*
X-7150119Y-8527697D02*
X-7127058Y-8559479D01*
X-7127058Y-8559479D02*
X-7118588Y-8579019D01*
X-7118588Y-8579019D02*
X-7116241Y-8605854D01*
X-7116241Y-8605854D02*
X-7127310Y-8633862D01*
X-7127310Y-8633862D02*
X-7157919Y-8670341D01*
X-7098544Y-8421783D02*
X-7118084Y-8430253D01*
X-7118084Y-8430253D02*
X-7131501Y-8431427D01*
X-7131501Y-8431427D02*
X-7152214Y-8426479D01*
X-7152214Y-8426479D02*
X-7159510Y-8420357D01*
X-7159510Y-8420357D02*
X-7167979Y-8400818D01*
X-7167979Y-8400818D02*
X-7169153Y-8387400D01*
X-7169153Y-8387400D02*
X-7164205Y-8366687D01*
X-7164205Y-8366687D02*
X-7139718Y-8337505D01*
X-7139718Y-8337505D02*
X-7120179Y-8329035D01*
X-7120179Y-8329035D02*
X-7106761Y-8327861D01*
X-7106761Y-8327861D02*
X-7086048Y-8332809D01*
X-7086048Y-8332809D02*
X-7078753Y-8338931D01*
X-7078753Y-8338931D02*
X-7070283Y-8358470D01*
X-7070283Y-8358470D02*
X-7069109Y-8371888D01*
X-7069109Y-8371888D02*
X-7074057Y-8392601D01*
X-7074057Y-8392601D02*
X-7098544Y-8421783D01*
X-7098544Y-8421783D02*
X-7103492Y-8442496D01*
X-7103492Y-8442496D02*
X-7102318Y-8455914D01*
X-7102318Y-8455914D02*
X-7093849Y-8475453D01*
X-7093849Y-8475453D02*
X-7064666Y-8499940D01*
X-7064666Y-8499940D02*
X-7043953Y-8504888D01*
X-7043953Y-8504888D02*
X-7030536Y-8503714D01*
X-7030536Y-8503714D02*
X-7010996Y-8495245D01*
X-7010996Y-8495245D02*
X-6986509Y-8466062D01*
X-6986509Y-8466062D02*
X-6981561Y-8445349D01*
X-6981561Y-8445349D02*
X-6982735Y-8431932D01*
X-6982735Y-8431932D02*
X-6991205Y-8412392D01*
X-6991205Y-8412392D02*
X-7020387Y-8387905D01*
X-7020387Y-8387905D02*
X-7041101Y-8382957D01*
X-7041101Y-8382957D02*
X-7054518Y-8384131D01*
X-7054518Y-8384131D02*
X-7074057Y-8392601D01*
X-6839587Y-8290966D02*
X-6913048Y-8378514D01*
X-6876317Y-8334740D02*
X-7029526Y-8206183D01*
X-7029526Y-8206183D02*
X-7019883Y-8239140D01*
X-7019883Y-8239140D02*
X-7017535Y-8265974D01*
X-7017535Y-8265974D02*
X-7022483Y-8286688D01*
D12*
X-3447142Y-458773D02*
X-3507618Y-519250D01*
X-3507618Y-519250D02*
X-3689047Y-579726D01*
X-3689047Y-579726D02*
X-3809999Y-579726D01*
X-3809999Y-579726D02*
X-3991428Y-519250D01*
X-3991428Y-519250D02*
X-4112380Y-398297D01*
X-4112380Y-398297D02*
X-4172857Y-277345D01*
X-4172857Y-277345D02*
X-4233333Y-35440D01*
X-4233333Y-35440D02*
X-4233333Y145988D01*
X-4233333Y145988D02*
X-4172857Y387892D01*
X-4172857Y387892D02*
X-4112380Y508845D01*
X-4112380Y508845D02*
X-3991428Y629797D01*
X-3991428Y629797D02*
X-3809999Y690273D01*
X-3809999Y690273D02*
X-3689047Y690273D01*
X-3689047Y690273D02*
X-3507618Y629797D01*
X-3507618Y629797D02*
X-3447142Y569321D01*
X-2177142Y-579726D02*
X-2600476Y25035D01*
X-2902857Y-579726D02*
X-2902857Y690273D01*
X-2902857Y690273D02*
X-2419047Y690273D01*
X-2419047Y690273D02*
X-2298095Y629797D01*
X-2298095Y629797D02*
X-2237618Y569321D01*
X-2237618Y569321D02*
X-2177142Y448369D01*
X-2177142Y448369D02*
X-2177142Y266940D01*
X-2177142Y266940D02*
X-2237618Y145988D01*
X-2237618Y145988D02*
X-2298095Y85511D01*
X-2298095Y85511D02*
X-2419047Y25035D01*
X-2419047Y25035D02*
X-2902857Y25035D01*
X-1632857Y-95916D02*
X-665238Y-95916D01*
X-120952Y569321D02*
X-60476Y629797D01*
X-60476Y629797D02*
X60476Y690273D01*
X60476Y690273D02*
X362857Y690273D01*
X362857Y690273D02*
X483809Y629797D01*
X483809Y629797D02*
X544285Y569321D01*
X544285Y569321D02*
X604762Y448369D01*
X604762Y448369D02*
X604762Y327416D01*
X604762Y327416D02*
X544285Y145988D01*
X544285Y145988D02*
X-181428Y-579726D01*
X-181428Y-579726D02*
X604762Y-579726D01*
X1390952Y690273D02*
X1511905Y690273D01*
X1511905Y690273D02*
X1632857Y629797D01*
X1632857Y629797D02*
X1693333Y569321D01*
X1693333Y569321D02*
X1753809Y448369D01*
X1753809Y448369D02*
X1814286Y206464D01*
X1814286Y206464D02*
X1814286Y-95916D01*
X1814286Y-95916D02*
X1753809Y-337821D01*
X1753809Y-337821D02*
X1693333Y-458773D01*
X1693333Y-458773D02*
X1632857Y-519250D01*
X1632857Y-519250D02*
X1511905Y-579726D01*
X1511905Y-579726D02*
X1390952Y-579726D01*
X1390952Y-579726D02*
X1270000Y-519250D01*
X1270000Y-519250D02*
X1209524Y-458773D01*
X1209524Y-458773D02*
X1149047Y-337821D01*
X1149047Y-337821D02*
X1088571Y-95916D01*
X1088571Y-95916D02*
X1088571Y206464D01*
X1088571Y206464D02*
X1149047Y448369D01*
X1149047Y448369D02*
X1209524Y569321D01*
X1209524Y569321D02*
X1270000Y629797D01*
X1270000Y629797D02*
X1390952Y690273D01*
X2237619Y690273D02*
X3023810Y690273D01*
X3023810Y690273D02*
X2600476Y206464D01*
X2600476Y206464D02*
X2781905Y206464D01*
X2781905Y206464D02*
X2902857Y145988D01*
X2902857Y145988D02*
X2963333Y85511D01*
X2963333Y85511D02*
X3023810Y-35440D01*
X3023810Y-35440D02*
X3023810Y-337821D01*
X3023810Y-337821D02*
X2963333Y-458773D01*
X2963333Y-458773D02*
X2902857Y-519250D01*
X2902857Y-519250D02*
X2781905Y-579726D01*
X2781905Y-579726D02*
X2419048Y-579726D01*
X2419048Y-579726D02*
X2298095Y-519250D01*
X2298095Y-519250D02*
X2237619Y-458773D01*
X3507619Y569321D02*
X3568095Y629797D01*
X3568095Y629797D02*
X3689048Y690273D01*
X3689048Y690273D02*
X3991429Y690273D01*
X3991429Y690273D02*
X4112381Y629797D01*
X4112381Y629797D02*
X4172857Y569321D01*
X4172857Y569321D02*
X4233334Y448369D01*
X4233334Y448369D02*
X4233334Y327416D01*
X4233334Y327416D02*
X4172857Y145988D01*
X4172857Y145988D02*
X3447143Y-579726D01*
X3447143Y-579726D02*
X4233334Y-579726D01*
D14*
X9327710Y4827613D02*
X9481140Y4513035D01*
X9481140Y4513035D02*
X9681715Y4443972D01*
X9681715Y4443972D02*
X10445690Y4816587D01*
X10226504Y5265984D02*
X9327710Y4827613D01*
X10445690Y4816587D02*
X10226504Y5265984D01*
X-11463093Y-953434D02*
X-11410829Y-1450695D01*
X-11410829Y-1450695D02*
X-10416307Y-1346166D01*
X-10617749Y-864585D02*
X-11463093Y-953434D01*
X-10452892Y-998084D02*
X-10617749Y-864585D01*
X-10416307Y-1346166D02*
X-10452892Y-998084D01*
X-2635493Y11196696D02*
X-2427581Y10218548D01*
X-2427581Y10218548D02*
X-2085229Y10291317D01*
X-2146419Y11300652D02*
X-2635493Y11196696D01*
X-2085229Y10291317D02*
X-1969694Y10469226D01*
X-1969694Y10469226D02*
X-2146419Y11300652D01*
X7218235Y-7834596D02*
X7808694Y-8446034D01*
X7221937Y-7622496D02*
X7218235Y-7834596D01*
X7473706Y-7379366D02*
X7221937Y-7622496D01*
X7808694Y-8446034D02*
X8168364Y-8098705D01*
X8168364Y-8098705D02*
X7473706Y-7379366D01*
X-10084313Y-5533494D02*
X-9834313Y-5966506D01*
X-9834313Y-5966506D02*
X-8968287Y-5466506D01*
X-9348191Y-5108494D02*
X-10084313Y-5533494D01*
X-9143287Y-5163397D02*
X-9348191Y-5108494D01*
X-8968287Y-5466506D02*
X-9143287Y-5163397D01*
X1938507Y10322504D02*
X2280859Y10249735D01*
X2146419Y11300652D02*
X1938507Y10322504D01*
X2280859Y10249735D02*
X2458768Y10365270D01*
X2458768Y10365270D02*
X2635493Y11196696D01*
X2635493Y11196696D02*
X2146419Y11300652D01*
X10323131Y-1921757D02*
X10444805Y-2095525D01*
X10383908Y-1577074D02*
X10323131Y-1921757D01*
X10444805Y-2095525D02*
X11281892Y-2243126D01*
X11281892Y-2243126D02*
X11368716Y-1750722D01*
X11368716Y-1750722D02*
X10383908Y-1577074D01*
X-11463093Y953434D02*
X-10468571Y848905D01*
X-11410829Y1450695D02*
X-11463093Y953434D01*
X-10565485Y1361848D02*
X-11410829Y1450695D01*
X-10468571Y848905D02*
X-10431986Y1196988D01*
X-10431986Y1196988D02*
X-10565485Y1361848D01*
X-1051569Y11454543D02*
X-981813Y10456979D01*
X-981813Y10456979D02*
X-632665Y10481394D01*
X-632665Y10481394D02*
X-493494Y10641492D01*
X-552787Y11489421D02*
X-1051569Y11454543D01*
X-493494Y10641492D02*
X-552787Y11489421D01*
X-6306072Y-9620044D02*
X-5882048Y-9885004D01*
X-5882048Y-9885004D02*
X-5352128Y-9036956D01*
X-5855640Y-8899203D02*
X-6306072Y-9620044D01*
X-5648945Y-8851484D02*
X-5855640Y-8899203D01*
X-5352128Y-9036956D02*
X-5648945Y-8851484D01*
X-1051569Y-11454543D02*
X-552787Y-11489421D01*
X-992276Y-10606613D02*
X-1051569Y-11454543D01*
X-832178Y-10467442D02*
X-992276Y-10606613D01*
X-552787Y-11489421D02*
X-483031Y-10491857D01*
X-483031Y-10491857D02*
X-832178Y-10467442D01*
D11*
X5850000Y1750000D02*
X2950000Y1750000D01*
X2950000Y450000D01*
X5850000Y450000D01*
X5850000Y1750000D01*
X5800000Y1200000D02*
X5300000Y1700000D01*
X5800000Y1700000D01*
X5800000Y1200000D01*
G36*
X5800000Y1200000D02*
G01*
X5300000Y1700000D01*
X5800000Y1700000D01*
X5800000Y1200000D01*
G37*
D14*
X8968287Y5466506D02*
X9143287Y5163397D01*
X9143287Y5163397D02*
X9348191Y5108494D01*
X9348191Y5108494D02*
X10084313Y5533494D01*
X9834313Y5966506D02*
X8968287Y5466506D01*
X10084313Y5533494D02*
X9834313Y5966506D01*
X-3410134Y10985622D02*
X-3134497Y10024360D01*
X-3134497Y10024360D02*
X-2798055Y10120833D01*
X-2929503Y11123440D02*
X-3410134Y10985622D01*
X-2798055Y10120833D02*
X-2695212Y10306368D01*
X-2695212Y10306368D02*
X-2929503Y11123440D01*
X-4168133Y10720941D02*
X-3826113Y9781249D01*
X-3826113Y9781249D02*
X-3497221Y9900956D01*
X-3698287Y10891951D02*
X-4168133Y10720941D01*
X-3497221Y9900956D02*
X-3407570Y10093213D01*
X-3407570Y10093213D02*
X-3698287Y10891951D01*
X8565083Y6078763D02*
X8760801Y5788600D01*
X8760801Y5788600D02*
X8969035Y5748123D01*
X8969035Y5748123D02*
X9673717Y6223437D01*
X9394121Y6637956D02*
X8565083Y6078763D01*
X9673717Y6223437D02*
X9394121Y6637956D01*
X4042345Y9693911D02*
X4362086Y9551554D01*
X4362086Y9551554D02*
X4560129Y9627575D01*
X4449082Y10607457D02*
X4042345Y9693911D01*
X4560129Y9627575D02*
X4905855Y10404089D01*
X4905855Y10404089D02*
X4449082Y10607457D01*
X10297084Y2069478D02*
X10357861Y1724795D01*
X10357861Y1724795D02*
X10531629Y1603121D01*
X10531629Y1603121D02*
X11368716Y1750722D01*
X11281892Y2243126D02*
X10297084Y2069478D01*
X11368716Y1750722D02*
X11281892Y2243126D01*
X8120179Y6661472D02*
X8335661Y6385668D01*
X8335661Y6385668D02*
X8546212Y6359816D01*
X8546212Y6359816D02*
X9216021Y6883128D01*
X8908190Y7277133D02*
X8120179Y6661472D01*
X9216021Y6883128D02*
X8908190Y7277133D01*
X6557795Y8204175D02*
X6825911Y7979199D01*
X6825911Y7979199D02*
X7037235Y7997688D01*
X7037235Y7997688D02*
X7583605Y8648825D01*
X7200583Y8970219D02*
X6557795Y8204175D01*
X7583605Y8648825D02*
X7200583Y8970219D01*
X7635745Y7211621D02*
X7869941Y6951520D01*
X7869941Y6951520D02*
X8081782Y6940418D01*
X8081782Y6940418D02*
X8713455Y7509179D01*
X8378891Y7880752D02*
X7635745Y7211621D01*
X8713455Y7509179D02*
X8378891Y7880752D01*
X10163960Y-2637169D02*
X10273216Y-2819001D01*
X10248633Y-2297565D02*
X10163960Y-2637169D01*
X10273216Y-2819001D02*
X11097967Y-3024635D01*
X11097967Y-3024635D02*
X11218928Y-2539487D01*
X11218928Y-2539487D02*
X10248633Y-2297565D01*
X-3410134Y-10985622D02*
X-2929503Y-11123440D01*
X-3175842Y-10168549D02*
X-3410134Y-10985622D01*
X-2990307Y-10065704D02*
X-3175842Y-10168549D01*
X-2929503Y-11123440D02*
X-2653866Y-10162178D01*
X-2653866Y-10162178D02*
X-2990307Y-10065704D01*
X-10445690Y4816587D02*
X-9546896Y4378216D01*
X-10226504Y5265984D02*
X-10445690Y4816587D01*
X-9546896Y4378216D02*
X-9393466Y4692794D01*
X-9462529Y4893369D02*
X-10226504Y5265984D01*
X-9393466Y4692794D02*
X-9462529Y4893369D01*
X-1848054Y-11353241D02*
X-1352921Y-11422827D01*
X-1729756Y-10511513D02*
X-1848054Y-11353241D01*
X-1560340Y-10383849D02*
X-1729756Y-10511513D01*
X-1352921Y-11422827D02*
X-1213746Y-10432559D01*
X-1213746Y-10432559D02*
X-1560340Y-10383849D01*
X10416307Y1346166D02*
X10452892Y998084D01*
X10452892Y998084D02*
X10617749Y864585D01*
X10617749Y864585D02*
X11463093Y953434D01*
X11410829Y1450695D02*
X10416307Y1346166D01*
X11463093Y953434D02*
X11410829Y1450695D01*
X9908817Y3482457D02*
X10016973Y3149586D01*
X10016973Y3149586D02*
X10205984Y3053280D01*
X10205984Y3053280D02*
X11014383Y3315943D01*
X10859874Y3791473D02*
X9908817Y3482457D01*
X11014383Y3315943D02*
X10859874Y3791473D01*
X-11368716Y-1750722D02*
X-11281892Y-2243126D01*
X-11281892Y-2243126D02*
X-10297084Y-2069478D01*
X-10531629Y-1603121D02*
X-11368716Y-1750722D01*
X-10357861Y-1724795D02*
X-10531629Y-1603121D01*
X-10297084Y-2069478D02*
X-10357861Y-1724795D01*
X2653866Y10162178D02*
X2990307Y10065704D01*
X2929503Y11123440D02*
X2653866Y10162178D01*
X2990307Y10065704D02*
X3175842Y10168549D01*
X3175842Y10168549D02*
X3410134Y10985622D01*
X3410134Y10985622D02*
X2929503Y11123440D01*
X-9216021Y6883128D02*
X-8428010Y6267467D01*
X-8908190Y7277133D02*
X-9216021Y6883128D01*
X-8428010Y6267467D02*
X-8212528Y6543270D01*
X-8238381Y6753821D02*
X-8908190Y7277133D01*
X-8212528Y6543270D02*
X-8238381Y6753821D01*
X-4905855Y-10404089D02*
X-4449082Y-10607457D01*
X-4560129Y-9627575D02*
X-4905855Y-10404089D01*
X-4449082Y-10607457D02*
X-4042345Y-9693911D01*
X-4362086Y-9551554D02*
X-4560129Y-9627575D01*
X-4042345Y-9693911D02*
X-4362086Y-9551554D01*
X6654213Y-8319081D02*
X7200583Y-8970219D01*
X6672702Y-8107757D02*
X6654213Y-8319081D01*
X6940817Y-7882781D02*
X6672702Y-8107757D01*
X7200583Y-8970219D02*
X7583605Y-8648825D01*
X7583605Y-8648825D02*
X6940817Y-7882781D01*
X1213746Y10432559D02*
X1560340Y10383849D01*
X1352921Y11422827D02*
X1213746Y10432559D01*
X1560340Y10383849D02*
X1729756Y10511513D01*
X1729756Y10511513D02*
X1848054Y11353241D01*
X1848054Y11353241D02*
X1352921Y11422827D01*
X9697947Y-4026115D02*
X9780834Y-4221384D01*
X9780834Y-4221384D02*
X10568940Y-4539799D01*
X9829060Y-3701601D02*
X9697947Y-4026115D01*
X10568940Y-4539799D02*
X10756244Y-4076207D01*
X10756244Y-4076207D02*
X9829060Y-3701601D01*
X9043287Y-5336603D02*
X9098191Y-5541506D01*
X9098191Y-5541506D02*
X9834313Y-5966506D01*
X9218287Y-5033494D02*
X9043287Y-5336603D01*
X9834313Y-5966506D02*
X10084313Y-5533494D01*
X10084313Y-5533494D02*
X9218287Y-5033494D01*
X-6961747Y9156762D02*
X-6373962Y8347745D01*
X-6557238Y9450655D02*
X-6961747Y9156762D01*
X-6373962Y8347745D02*
X-6090806Y8553470D01*
X-6090806Y8553470D02*
X-6057621Y8762990D01*
X-6057621Y8762990D02*
X-6557238Y9450655D01*
X-4905855Y10404089D02*
X-4499118Y9490543D01*
X-4499118Y9490543D02*
X-4179377Y9632901D01*
X-4449082Y10607457D02*
X-4905855Y10404089D01*
X-4179377Y9632901D02*
X-4103356Y9830943D01*
X-4103356Y9830943D02*
X-4449082Y10607457D01*
X6057621Y-8762990D02*
X6557238Y-9450655D01*
X6090806Y-8553470D02*
X6057621Y-8762990D01*
X6373962Y-8347745D02*
X6090806Y-8553470D01*
X6557238Y-9450655D02*
X6961747Y-9156762D01*
X6961747Y-9156762D02*
X6373962Y-8347745D01*
D11*
X1100000Y-1250000D02*
X2100000Y-1250000D01*
X1100000Y-1750000D02*
X1100000Y-1250000D01*
X2100000Y-1250000D02*
X2100000Y-1750000D01*
X2100000Y-1750000D02*
X1100000Y-1750000D01*
D14*
X-9673717Y-6223437D02*
X-9394121Y-6637956D01*
X-9394121Y-6637956D02*
X-8565083Y-6078763D01*
X-8969035Y-5748123D02*
X-9673717Y-6223437D01*
X-8760801Y-5788600D02*
X-8969035Y-5748123D01*
X-8565083Y-6078763D02*
X-8760801Y-5788600D01*
X-8713455Y7509179D02*
X-7970309Y6840048D01*
X-8378891Y7880752D02*
X-8713455Y7509179D01*
X-7970309Y6840048D02*
X-7736115Y7100149D01*
X-7747217Y7311990D02*
X-8378891Y7880752D01*
X-7736115Y7100149D02*
X-7747217Y7311990D01*
X-11014383Y-3315943D02*
X-10859874Y-3791473D01*
X-10859874Y-3791473D02*
X-9908817Y-3482457D01*
X-10205984Y-3053280D02*
X-11014383Y-3315943D01*
X-10016973Y-3149586D02*
X-10205984Y-3053280D01*
X-9908817Y-3482457D02*
X-10016973Y-3149586D01*
X-2635493Y-11196696D02*
X-2146419Y-11300652D01*
X-2458768Y-10365270D02*
X-2635493Y-11196696D01*
X-2280859Y-10249735D02*
X-2458768Y-10365270D01*
X-2146419Y-11300652D02*
X-1938507Y-10322504D01*
X-1938507Y-10322504D02*
X-2280859Y-10249735D01*
X-11368716Y1750722D02*
X-10383908Y1577074D01*
X-11281892Y2243126D02*
X-11368716Y1750722D01*
X-10444805Y2095525D02*
X-11281892Y2243126D01*
X-10383908Y1577074D02*
X-10323131Y1921757D01*
X-10323131Y1921757D02*
X-10444805Y2095525D01*
D11*
X-4500000Y2950000D02*
X-3500000Y2950000D01*
X-4500000Y2450000D02*
X-4500000Y2950000D01*
X-3500000Y2950000D02*
X-3500000Y2450000D01*
X-3500000Y2450000D02*
X-4500000Y2450000D01*
D14*
X4103356Y-9830943D02*
X4449082Y-10607457D01*
X4179377Y-9632901D02*
X4103356Y-9830943D01*
X4449082Y-10607457D02*
X4905855Y-10404089D01*
X4499118Y-9490543D02*
X4179377Y-9632901D01*
X4905855Y-10404089D02*
X4499118Y-9490543D01*
X9393466Y-4692794D02*
X9462529Y-4893369D01*
X9462529Y-4893369D02*
X10226504Y-5265984D01*
X9546896Y-4378216D02*
X9393466Y-4692794D01*
X10226504Y-5265984D02*
X10445690Y-4816587D01*
X10445690Y-4816587D02*
X9546896Y-4378216D01*
X2695212Y-10306368D02*
X2929503Y-11123440D01*
X2798055Y-10120833D02*
X2695212Y-10306368D01*
X2929503Y-11123440D02*
X3410134Y-10985622D01*
X3134497Y-10024360D02*
X2798055Y-10120833D01*
X3410134Y-10985622D02*
X3134497Y-10024360D01*
X-8168364Y-8098705D02*
X-7808694Y-8446034D01*
X-7808694Y-8446034D02*
X-7114036Y-7726695D01*
X-7577905Y-7487266D02*
X-8168364Y-8098705D01*
X-7365805Y-7483564D02*
X-7577905Y-7487266D01*
X-7114036Y-7726695D02*
X-7365805Y-7483564D01*
X10490115Y-466389D02*
X10634788Y-621533D01*
X10502329Y-116603D02*
X10490115Y-466389D01*
X10634788Y-621533D02*
X11484271Y-651197D01*
X11484271Y-651197D02*
X11501720Y-151502D01*
X11501720Y-151502D02*
X10502329Y-116603D01*
X-10756244Y-4076207D02*
X-10568940Y-4539799D01*
X-10568940Y-4539799D02*
X-9641756Y-4165193D01*
X-9968137Y-3757792D02*
X-10756244Y-4076207D01*
X-9772869Y-3840678D02*
X-9968137Y-3757792D01*
X-9641756Y-4165193D02*
X-9772869Y-3840678D01*
X-9673717Y6223437D02*
X-8844679Y5664244D01*
X-9394121Y6637956D02*
X-9673717Y6223437D01*
X-8844679Y5664244D02*
X-8648962Y5954407D01*
X-8689439Y6162642D02*
X-9394121Y6637956D01*
X-8648962Y5954407D02*
X-8689439Y6162642D01*
X7736115Y-7100149D02*
X7747217Y-7311990D01*
X7747217Y-7311990D02*
X8378891Y-7880752D01*
X7970309Y-6840048D02*
X7736115Y-7100149D01*
X8378891Y-7880752D02*
X8713455Y-7509179D01*
X8713455Y-7509179D02*
X7970309Y-6840048D01*
X9641756Y4165193D02*
X9772869Y3840678D01*
X9772869Y3840678D02*
X9968137Y3757792D01*
X9968137Y3757792D02*
X10756244Y4076207D01*
X10568940Y4539799D02*
X9641756Y4165193D01*
X10756244Y4076207D02*
X10568940Y4539799D01*
X8212528Y-6543270D02*
X8238381Y-6753821D01*
X8238381Y-6753821D02*
X8908190Y-7277133D01*
X8428010Y-6267467D02*
X8212528Y-6543270D01*
X8908190Y-7277133D02*
X9216021Y-6883128D01*
X9216021Y-6883128D02*
X8428010Y-6267467D01*
X-250000Y-10650000D02*
X-250000Y-11500000D01*
X-250000Y-11500000D02*
X250000Y-11500000D01*
X-100000Y-10500000D02*
X-250000Y-10650000D01*
X250000Y-10500000D02*
X-100000Y-10500000D01*
X250000Y-11500000D02*
X250000Y-10500000D01*
X1234622Y-10581098D02*
X1352921Y-11422827D01*
X1352921Y-11422827D02*
X1848054Y-11353241D01*
X1362287Y-10411683D02*
X1234622Y-10581098D01*
X1708879Y-10362973D02*
X1362287Y-10411683D01*
X1848054Y-11353241D02*
X1708879Y-10362973D01*
X10431986Y-1196988D02*
X10565485Y-1361848D01*
X10468571Y-848905D02*
X10431986Y-1196988D01*
X10565485Y-1361848D02*
X11410829Y-1450695D01*
X11410829Y-1450695D02*
X11463093Y-953434D01*
X11463093Y-953434D02*
X10468571Y-848905D01*
X-250000Y11500000D02*
X-250000Y10500000D01*
X-250000Y10500000D02*
X100000Y10500000D01*
X100000Y10500000D02*
X250000Y10650000D01*
X250000Y11500000D02*
X-250000Y11500000D01*
X250000Y10650000D02*
X250000Y11500000D01*
X5969453Y8641638D02*
X6252609Y8435913D01*
X6252609Y8435913D02*
X6462129Y8469098D01*
X6462129Y8469098D02*
X6961747Y9156762D01*
X6557238Y9450655D02*
X5969453Y8641638D01*
X6961747Y9156762D02*
X6557238Y9450655D01*
X-10756244Y4076207D02*
X-9829060Y3701601D01*
X-10568940Y4539799D02*
X-10756244Y4076207D01*
X-9829060Y3701601D02*
X-9697947Y4026115D01*
X-9780834Y4221384D02*
X-10568940Y4539799D01*
X-9697947Y4026115D02*
X-9780834Y4221384D01*
X-9216021Y-6883128D02*
X-8908190Y-7277133D01*
X-8908190Y-7277133D02*
X-8120179Y-6661472D01*
X-8546212Y-6359816D02*
X-9216021Y-6883128D01*
X-8335661Y-6385668D02*
X-8546212Y-6359816D01*
X-8120179Y-6661472D02*
X-8335661Y-6385668D01*
X-4168133Y-10720941D02*
X-3698287Y-10891951D01*
X-3877416Y-9922203D02*
X-4168133Y-10720941D01*
X-3698287Y-10891951D02*
X-3356267Y-9952259D01*
X-3685159Y-9832552D02*
X-3877416Y-9922203D01*
X-3356267Y-9952259D02*
X-3685159Y-9832552D01*
X-5619673Y-10036506D02*
X-5178199Y-10271242D01*
X-5220622Y-9286000D02*
X-5619673Y-10036506D01*
X-5178199Y-10271242D02*
X-4708727Y-9388294D01*
X-5017759Y-9223979D02*
X-5220622Y-9286000D01*
X-4708727Y-9388294D02*
X-5017759Y-9223979D01*
X-5619673Y10036506D02*
X-5150201Y9153558D01*
X-5178199Y10271242D02*
X-5619673Y10036506D01*
X-5150201Y9153558D02*
X-4841169Y9317872D01*
X-4841169Y9317872D02*
X-4779148Y9520736D01*
X-4779148Y9520736D02*
X-5178199Y10271242D01*
X3356267Y9952259D02*
X3685159Y9832552D01*
X3685159Y9832552D02*
X3877416Y9922203D01*
X3698287Y10891951D02*
X3356267Y9952259D01*
X3877416Y9922203D02*
X4168133Y10720941D01*
X4168133Y10720941D02*
X3698287Y10891951D01*
D11*
X-400000Y1900000D02*
X-4400000Y1900000D01*
X-4400000Y-2100000D01*
X-400000Y-2100000D01*
X-400000Y1900000D01*
X-400000Y1400000D02*
X-900000Y1900000D01*
X-400000Y1900000D01*
X-400000Y1400000D01*
G36*
X-400000Y1400000D02*
G01*
X-900000Y1900000D01*
X-400000Y1900000D01*
X-400000Y1400000D01*
G37*
D14*
X10127672Y2782713D02*
X10212344Y2443109D01*
X10212344Y2443109D02*
X10394177Y2333853D01*
X10394177Y2333853D02*
X11218928Y2539487D01*
X11097967Y3024635D02*
X10127672Y2782713D01*
X11218928Y2539487D02*
X11097967Y3024635D01*
X9955170Y-3339797D02*
X10051476Y-3528808D01*
X10051476Y-3528808D02*
X10859874Y-3791473D01*
X10063326Y-3006927D02*
X9955170Y-3339797D01*
X10859874Y-3791473D02*
X11014383Y-3315943D01*
X11014383Y-3315943D02*
X10063326Y-3006927D01*
X5352128Y9036956D02*
X5648945Y8851484D01*
X5648945Y8851484D02*
X5855640Y8899203D01*
X5855640Y8899203D02*
X6306072Y9620044D01*
X5882048Y9885004D02*
X5352128Y9036956D01*
X6306072Y9620044D02*
X5882048Y9885004D01*
X5431616Y-9164163D02*
X5882048Y-9885004D01*
X5479336Y-8957468D02*
X5431616Y-9164163D01*
X5776152Y-8771996D02*
X5479336Y-8957468D01*
X5882048Y-9885004D02*
X6306072Y-9620044D01*
X6306072Y-9620044D02*
X5776152Y-8771996D01*
X-6961747Y-9156762D02*
X-6557238Y-9450655D01*
X-6557238Y-9450655D02*
X-5969453Y-8641638D01*
X-6462129Y-8469098D02*
X-6961747Y-9156762D01*
X-6252609Y-8435913D02*
X-6462129Y-8469098D01*
X-5969453Y-8641638D02*
X-6252609Y-8435913D01*
D11*
X-1000000Y-3400000D02*
X-500000Y-3400000D01*
X-1000000Y-4400000D02*
X-1000000Y-3400000D01*
X-500000Y-3400000D02*
X-500000Y-4400000D01*
X-500000Y-4400000D02*
X-1000000Y-4400000D01*
D14*
X4708727Y9388294D02*
X5017759Y9223979D01*
X5017759Y9223979D02*
X5220622Y9286000D01*
X5178199Y10271242D02*
X4708727Y9388294D01*
X5220622Y9286000D02*
X5619673Y10036506D01*
X5619673Y10036506D02*
X5178199Y10271242D01*
X-7583605Y8648825D02*
X-6940817Y7882781D01*
X-7200583Y8970219D02*
X-7583605Y8648825D01*
X-6940817Y7882781D02*
X-6672702Y8107757D01*
X-6672702Y8107757D02*
X-6654213Y8319081D01*
X-6654213Y8319081D02*
X-7200583Y8970219D01*
X493494Y-10641492D02*
X552787Y-11489421D01*
X552787Y-11489421D02*
X1051569Y-11454543D01*
X632665Y-10481394D02*
X493494Y-10641492D01*
X981813Y-10456979D02*
X632665Y-10481394D01*
X1051569Y-11454543D02*
X981813Y-10456979D01*
D11*
X75019Y-2399911D02*
X2375019Y-2399911D01*
X2375019Y-4699911D01*
X75019Y-4699911D01*
X75019Y-2399911D01*
X65024Y-2750023D02*
X65024Y-2400036D01*
X375019Y-2400036D01*
X65024Y-2750023D01*
G36*
X65024Y-2750023D02*
G01*
X65024Y-2400036D01*
X375019Y-2400036D01*
X65024Y-2750023D01*
G37*
D14*
X-8713455Y-7509179D02*
X-8378891Y-7880752D01*
X-8378891Y-7880752D02*
X-7635745Y-7211621D01*
X-8081782Y-6940418D02*
X-8713455Y-7509179D01*
X-7869941Y-6951520D02*
X-8081782Y-6940418D01*
X-7635745Y-7211621D02*
X-7869941Y-6951520D01*
X-6306072Y9620044D02*
X-5776152Y8771996D01*
X-5882048Y9885004D02*
X-6306072Y9620044D01*
X-5776152Y8771996D02*
X-5479336Y8957468D01*
X-5479336Y8957468D02*
X-5431616Y9164163D01*
X-5431616Y9164163D02*
X-5882048Y9885004D01*
X-11218928Y-2539487D02*
X-11097967Y-3024635D01*
X-11097967Y-3024635D02*
X-10127672Y-2782713D01*
X-10394177Y-2333853D02*
X-11218928Y-2539487D01*
X-10212344Y-2443109D02*
X-10394177Y-2333853D01*
X-10127672Y-2782713D02*
X-10212344Y-2443109D01*
X483031Y10491857D02*
X832178Y10467442D01*
X552787Y11489421D02*
X483031Y10491857D01*
X832178Y10467442D02*
X992276Y10606613D01*
X992276Y10606613D02*
X1051569Y11454543D01*
X1051569Y11454543D02*
X552787Y11489421D01*
X8648962Y-5954407D02*
X8689439Y-6162642D01*
X8689439Y-6162642D02*
X9394121Y-6637956D01*
X8844679Y-5664244D02*
X8648962Y-5954407D01*
X9394121Y-6637956D02*
X9673717Y-6223437D01*
X9673717Y-6223437D02*
X8844679Y-5664244D01*
X4779148Y-9520736D02*
X5178199Y-10271242D01*
X4841169Y-9317872D02*
X4779148Y-9520736D01*
X5150201Y-9153558D02*
X4841169Y-9317872D01*
X5178199Y-10271242D02*
X5619673Y-10036506D01*
X5619673Y-10036506D02*
X5150201Y-9153558D01*
X-11501720Y151502D02*
X-10502329Y116603D01*
X-11484271Y651197D02*
X-11501720Y151502D01*
X-10634788Y621533D02*
X-11484271Y651197D01*
X-10502329Y116603D02*
X-10490115Y466389D01*
X-10490115Y466389D02*
X-10634788Y621533D01*
X7114036Y7726695D02*
X7365805Y7483564D01*
X7365805Y7483564D02*
X7577905Y7487266D01*
X7577905Y7487266D02*
X8168364Y8098705D01*
X7808694Y8446034D02*
X7114036Y7726695D01*
X8168364Y8098705D02*
X7808694Y8446034D01*
X-11014383Y3315943D02*
X-10063326Y3006927D01*
X-10859874Y3791473D02*
X-11014383Y3315943D01*
X-10063326Y3006927D02*
X-9955170Y3339797D01*
X-10051476Y3528808D02*
X-10859874Y3791473D01*
X-9955170Y3339797D02*
X-10051476Y3528808D01*
D11*
X-850000Y3800000D02*
X-350000Y3800000D01*
X-850000Y2800000D02*
X-850000Y3800000D01*
X-350000Y3800000D02*
X-350000Y2800000D01*
X-350000Y2800000D02*
X-850000Y2800000D01*
X3700000Y3950000D02*
X4700000Y3950000D01*
X3700000Y3450000D02*
X3700000Y3950000D01*
X4700000Y3950000D02*
X4700000Y3450000D01*
X4700000Y3450000D02*
X3700000Y3450000D01*
D14*
X3407570Y-10093213D02*
X3698287Y-10891951D01*
X3497221Y-9900956D02*
X3407570Y-10093213D01*
X3698287Y-10891951D02*
X4168133Y-10720941D01*
X3826113Y-9781249D02*
X3497221Y-9900956D01*
X4168133Y-10720941D02*
X3826113Y-9781249D01*
X-1848054Y11353241D02*
X-1708879Y10362973D01*
X-1708879Y10362973D02*
X-1362287Y10411683D01*
X-1362287Y10411683D02*
X-1234622Y10581098D01*
X-1352921Y11422827D02*
X-1848054Y11353241D01*
X-1234622Y10581098D02*
X-1352921Y11422827D01*
D11*
X2850000Y-3200000D02*
X3350000Y-3200000D01*
X2850000Y-4200000D02*
X2850000Y-3200000D01*
X3350000Y-3200000D02*
X3350000Y-4200000D01*
X3350000Y-4200000D02*
X2850000Y-4200000D01*
D14*
X-8168364Y8098705D02*
X-7473706Y7379366D01*
X-7808694Y8446034D02*
X-8168364Y8098705D01*
X-7473706Y7379366D02*
X-7221937Y7622496D01*
X-7221937Y7622496D02*
X-7218235Y7834596D01*
X-7218235Y7834596D02*
X-7808694Y8446034D01*
X-10084313Y5533494D02*
X-9218287Y5033494D01*
X-9834313Y5966506D02*
X-10084313Y5533494D01*
X-9218287Y5033494D02*
X-9043287Y5336603D01*
X-9098191Y5541506D02*
X-9834313Y5966506D01*
X-9043287Y5336603D02*
X-9098191Y5541506D01*
D11*
X-4500000Y3800000D02*
X-3500000Y3800000D01*
X-4500000Y3300000D02*
X-4500000Y3800000D01*
X-3500000Y3800000D02*
X-3500000Y3300000D01*
X-3500000Y3300000D02*
X-4500000Y3300000D01*
D14*
X-11501720Y-151502D02*
X-11484271Y-651197D01*
X-11484271Y-651197D02*
X-10484880Y-616298D01*
X-10652238Y-121837D02*
X-11501720Y-151502D01*
X-10497095Y-266511D02*
X-10652238Y-121837D01*
X-10484880Y-616298D02*
X-10497095Y-266511D01*
X-10445690Y-4816587D02*
X-10226504Y-5265984D01*
X-10226504Y-5265984D02*
X-9327710Y-4827613D01*
X-9681715Y-4443972D02*
X-10445690Y-4816587D01*
X-9481140Y-4513035D02*
X-9681715Y-4443972D01*
X-9327710Y-4827613D02*
X-9481140Y-4513035D01*
X-11218928Y2539487D02*
X-10248633Y2297565D01*
X-11097967Y3024635D02*
X-11218928Y2539487D01*
X-10273216Y2819001D02*
X-11097967Y3024635D01*
X-10248633Y2297565D02*
X-10163960Y2637169D01*
X-10163960Y2637169D02*
X-10273216Y2819001D01*
X1969694Y-10469226D02*
X2146419Y-11300652D01*
X2085229Y-10291317D02*
X1969694Y-10469226D01*
X2146419Y-11300652D02*
X2635493Y-11196696D01*
X2427581Y-10218548D02*
X2085229Y-10291317D01*
X2635493Y-11196696D02*
X2427581Y-10218548D01*
D11*
X4400000Y-950000D02*
X5400000Y-950000D01*
X4400000Y-1450000D02*
X4400000Y-950000D01*
X5400000Y-950000D02*
X5400000Y-1450000D01*
X5400000Y-1450000D02*
X4400000Y-1450000D01*
D14*
X10484880Y616298D02*
X10497095Y266511D01*
X10497095Y266511D02*
X10652238Y121837D01*
X10652238Y121837D02*
X11501720Y151502D01*
X11484271Y651197D02*
X10484880Y616298D01*
X11501720Y151502D02*
X11484271Y651197D01*
X-7583605Y-8648825D02*
X-7200583Y-8970219D01*
X-7200583Y-8970219D02*
X-6557795Y-8204175D01*
X-7037235Y-7997688D02*
X-7583605Y-8648825D01*
X-6825911Y-7979199D02*
X-7037235Y-7997688D01*
X-6557795Y-8204175D02*
X-6825911Y-7979199D01*
M02*
