M48
; DRILL file {KiCad 9.0.7} date 2026-03-07T17:36:49+0100
; FORMAT={-:-/ absolute / metric / decimal}
; #@! TF.CreationDate,2026-03-07T17:36:49+01:00
; #@! TF.GenerationSoftware,Kicad,Pcbnew,9.0.7
; #@! TF.FileFunction,MixedPlating,1,4
FMAT,2
METRIC
; #@! TA.AperFunction,Plated,PTH,ViaDrill
T1C0.300
; #@! TA.AperFunction,NonPlated,NPTH,ComponentDrill
T2C0.991
%
G90
G05
T1
X-9.994Y0.349
X-9.994Y-0.349
X-9.945Y1.045
X-9.945Y-1.045
X-9.848Y1.736
X-9.848Y-1.736
X-9.703Y2.419
X-9.703Y-2.419
X-9.511Y3.09
X-9.511Y-3.09
X-9.444Y0.33
X-9.272Y3.746
X-9.272Y-3.746
X-9.169Y-2.286
X-8.988Y4.384
X-8.988Y-4.384
X-8.851Y0.93
X-8.765Y-1.545
X-8.762Y3.54
X-8.66Y5.0
X-8.66Y-5.0
X-8.636Y2.153
X-8.304Y-0.873
X-8.29Y5.592
X-8.29Y-5.592
X-8.0Y1.5
X-7.999Y3.901
X-7.941Y2.58
X-7.941Y-2.58
X-7.88Y6.157
X-7.88Y-6.157
X-7.834Y-5.284
X-7.708Y-4.45
X-7.505Y-3.66
X-7.447Y5.818
X-7.431Y6.691
X-7.431Y-6.691
X-7.231Y4.175
X-6.947Y7.193
X-6.947Y-7.193
X-6.614Y5.955
X-6.428Y7.66
X-6.428Y-7.66
X-6.4Y0.7
X-6.4Y-0.5
X-6.3Y-1.2
X-6.205Y-5.587
X-6.2Y1.6
X-6.183Y-6.402
X-6.182Y-2.009
X-6.074Y-7.239
X-5.9Y2.6
X-5.878Y8.09
X-5.878Y-8.09
X-5.721Y6.818
X-5.299Y8.48
X-5.299Y-8.48
X-5.231Y-7.2
X-5.228Y-4.0
X-5.1Y4.1
X-5.008Y8.014
X-4.908Y6.755
X-4.695Y8.829
X-4.695Y-8.829
X-4.178Y7.858
X-4.067Y9.136
X-4.067Y-9.136
X-4.017Y4.921
X-3.92Y-7.373
X-3.9Y4.1
X-3.62Y-8.131
X-3.42Y9.397
X-3.42Y-9.397
X-3.396Y7.628
X-3.232Y-8.88
X-3.2Y5.5
X-2.756Y9.613
X-2.756Y-9.613
X-2.605Y9.084
X-2.3Y6.1
X-2.079Y9.781
X-2.079Y-9.781
X-1.9Y-6.2
X-1.736Y8.168
X-1.736Y-8.168
X-1.4Y6.3
X-1.392Y9.903
X-1.392Y-9.903
X-1.239Y-8.813
X-1.1Y-6.4
X-0.698Y9.976
X-0.698Y-9.976
X-0.659Y-9.427
X-0.621Y8.878
X-0.4Y-6.5
X0.0Y10.0
X0.0Y8.35
X0.0Y-8.35
X0.0Y-10.0
X0.4Y-6.5
X0.621Y-8.878
X0.659Y9.427
X0.698Y9.976
X0.698Y-9.976
X1.239Y8.813
X1.392Y9.903
X1.392Y-9.903
X1.736Y8.168
X1.736Y-8.168
X2.079Y9.781
X2.079Y-9.781
X2.1Y-6.1
X2.453Y-8.555
X2.756Y9.613
X2.756Y-9.613
X3.044Y8.363
X3.1Y5.6
X3.1Y2.2
X3.232Y-8.88
X3.396Y7.628
X3.4Y-5.5
X3.42Y9.397
X3.42Y-9.397
X3.8Y-2.6
X3.92Y-7.373
X4.0Y5.2
X4.067Y9.136
X4.067Y-9.136
X4.4Y-1.0
X4.695Y8.829
X4.695Y-8.829
X4.716Y7.548
X4.716Y-7.548
X4.9Y4.4
X4.908Y6.755
X4.908Y-6.755
X5.299Y8.48
X5.299Y-8.48
X5.721Y-6.818
X5.878Y8.09
X5.878Y-8.09
X6.074Y7.239
X6.183Y6.402
X6.205Y5.587
X6.205Y-5.587
X6.3Y1.4
X6.428Y7.66
X6.428Y-7.66
X6.947Y7.193
X6.947Y-7.193
X7.013Y-5.479
X7.231Y4.175
X7.378Y4.977
X7.431Y6.691
X7.431Y-6.691
X7.447Y5.818
X7.505Y-3.66
X7.834Y-5.284
X7.88Y6.157
X7.88Y-6.157
X7.941Y2.58
X7.941Y-2.58
X8.252Y3.334
X8.29Y5.592
X8.29Y-5.592
X8.304Y-0.873
X8.636Y-2.153
X8.66Y5.0
X8.66Y-5.0
X8.762Y-3.54
X8.765Y1.545
X8.895Y-0.311
X8.988Y4.384
X8.988Y-4.384
X9.169Y2.286
X9.272Y3.746
X9.272Y-3.746
X9.306Y-1.641
X9.444Y0.33
X9.511Y3.09
X9.511Y-3.09
X9.703Y2.419
X9.703Y-2.419
X9.848Y1.736
X9.945Y1.045
X9.945Y-1.045
X9.994Y0.349
X9.994Y-0.349
T2
X0.219Y5.18
X1.235Y0.1
X2.251Y5.18
M30
