%TF.GenerationSoftware,KiCad,Pcbnew,9.0.7*%
%TF.CreationDate,2026-03-08T11:54:32+01:00*%
%TF.ProjectId,halo-90,68616c6f-2d39-4302-9e6b-696361645f70,0V8*%
%TF.SameCoordinates,Original*%
%TF.FileFunction,Drillmap*%
%TF.FilePolarity,Positive*%
%FSLAX45Y45*%
G04 Gerber Fmt 4.5, Leading zero omitted, Abs format (unit mm)*
G04 Created by KiCad (PCBNEW 9.0.7) date 2026-03-08 11:54:32*
%MOMM*%
%LPD*%
G01*
G04 APERTURE LIST*
%ADD10C,0.050000*%
%ADD11C,0.200000*%
%ADD12C,0.100000*%
G04 APERTURE END LIST*
D10*
X0Y-1200000D02*
G75*
G02*
X410424Y1127631I0J1200000D01*
G01*
X410424Y1127631D02*
G75*
G02*
X0Y-1200000I-410424J-1127631D01*
G01*
D11*
D12*
X-27630Y567530D02*
X71430Y468470D01*
X71430Y567530D02*
X-27630Y468470D01*
X73970Y59530D02*
X173030Y-39530D01*
X173030Y59530D02*
X73970Y-39530D01*
X175570Y567530D02*
X274630Y468470D01*
X274630Y567530D02*
X175570Y468470D01*
D11*
X-941723Y-1513984D02*
X-941723Y-1313984D01*
X-941723Y-1313984D02*
X-894104Y-1313984D01*
X-894104Y-1313984D02*
X-865532Y-1323508D01*
X-865532Y-1323508D02*
X-846485Y-1342555D01*
X-846485Y-1342555D02*
X-836961Y-1361603D01*
X-836961Y-1361603D02*
X-827437Y-1399698D01*
X-827437Y-1399698D02*
X-827437Y-1428269D01*
X-827437Y-1428269D02*
X-836961Y-1466365D01*
X-836961Y-1466365D02*
X-846485Y-1485412D01*
X-846485Y-1485412D02*
X-865532Y-1504460D01*
X-865532Y-1504460D02*
X-894104Y-1513984D01*
X-894104Y-1513984D02*
X-941723Y-1513984D01*
X-741723Y-1513984D02*
X-741723Y-1380650D01*
X-741723Y-1418746D02*
X-732199Y-1399698D01*
X-732199Y-1399698D02*
X-722675Y-1390174D01*
X-722675Y-1390174D02*
X-703628Y-1380650D01*
X-703628Y-1380650D02*
X-684580Y-1380650D01*
X-617914Y-1513984D02*
X-617914Y-1380650D01*
X-617914Y-1313984D02*
X-627437Y-1323508D01*
X-627437Y-1323508D02*
X-617914Y-1333031D01*
X-617914Y-1333031D02*
X-608390Y-1323508D01*
X-608390Y-1323508D02*
X-617914Y-1313984D01*
X-617914Y-1313984D02*
X-617914Y-1333031D01*
X-494104Y-1513984D02*
X-513152Y-1504460D01*
X-513152Y-1504460D02*
X-522675Y-1485412D01*
X-522675Y-1485412D02*
X-522675Y-1313984D01*
X-389342Y-1513984D02*
X-408390Y-1504460D01*
X-408390Y-1504460D02*
X-417913Y-1485412D01*
X-417913Y-1485412D02*
X-417913Y-1313984D01*
X-160771Y-1513984D02*
X-160771Y-1313984D01*
X-160771Y-1313984D02*
X-94104Y-1456841D01*
X-94104Y-1456841D02*
X-27437Y-1313984D01*
X-27437Y-1313984D02*
X-27437Y-1513984D01*
X153515Y-1513984D02*
X153515Y-1409222D01*
X153515Y-1409222D02*
X143991Y-1390174D01*
X143991Y-1390174D02*
X124944Y-1380650D01*
X124944Y-1380650D02*
X86848Y-1380650D01*
X86848Y-1380650D02*
X67801Y-1390174D01*
X153515Y-1504460D02*
X134467Y-1513984D01*
X134467Y-1513984D02*
X86848Y-1513984D01*
X86848Y-1513984D02*
X67801Y-1504460D01*
X67801Y-1504460D02*
X58277Y-1485412D01*
X58277Y-1485412D02*
X58277Y-1466365D01*
X58277Y-1466365D02*
X67801Y-1447317D01*
X67801Y-1447317D02*
X86848Y-1437793D01*
X86848Y-1437793D02*
X134467Y-1437793D01*
X134467Y-1437793D02*
X153515Y-1428269D01*
X248753Y-1380650D02*
X248753Y-1580650D01*
X248753Y-1390174D02*
X267801Y-1380650D01*
X267801Y-1380650D02*
X305896Y-1380650D01*
X305896Y-1380650D02*
X324944Y-1390174D01*
X324944Y-1390174D02*
X334467Y-1399698D01*
X334467Y-1399698D02*
X343991Y-1418746D01*
X343991Y-1418746D02*
X343991Y-1475888D01*
X343991Y-1475888D02*
X334467Y-1494936D01*
X334467Y-1494936D02*
X324944Y-1504460D01*
X324944Y-1504460D02*
X305896Y-1513984D01*
X305896Y-1513984D02*
X267801Y-1513984D01*
X267801Y-1513984D02*
X248753Y-1504460D01*
X429705Y-1494936D02*
X439229Y-1504460D01*
X439229Y-1504460D02*
X429705Y-1513984D01*
X429705Y-1513984D02*
X420182Y-1504460D01*
X420182Y-1504460D02*
X429705Y-1494936D01*
X429705Y-1494936D02*
X429705Y-1513984D01*
X429705Y-1390174D02*
X439229Y-1399698D01*
X439229Y-1399698D02*
X429705Y-1409222D01*
X429705Y-1409222D02*
X420182Y-1399698D01*
X420182Y-1399698D02*
X429705Y-1390174D01*
X429705Y-1390174D02*
X429705Y-1409222D01*
D12*
X-1301560Y-1792970D02*
X-1202500Y-1892030D01*
X-1202500Y-1792970D02*
X-1301560Y-1892030D01*
D11*
X-903628Y-1733984D02*
X-884580Y-1733984D01*
X-884580Y-1733984D02*
X-865532Y-1743508D01*
X-865532Y-1743508D02*
X-856009Y-1753031D01*
X-856009Y-1753031D02*
X-846485Y-1772079D01*
X-846485Y-1772079D02*
X-836961Y-1810174D01*
X-836961Y-1810174D02*
X-836961Y-1857793D01*
X-836961Y-1857793D02*
X-846485Y-1895888D01*
X-846485Y-1895888D02*
X-856009Y-1914936D01*
X-856009Y-1914936D02*
X-865532Y-1924460D01*
X-865532Y-1924460D02*
X-884580Y-1933984D01*
X-884580Y-1933984D02*
X-903628Y-1933984D01*
X-903628Y-1933984D02*
X-922675Y-1924460D01*
X-922675Y-1924460D02*
X-932199Y-1914936D01*
X-932199Y-1914936D02*
X-941723Y-1895888D01*
X-941723Y-1895888D02*
X-951247Y-1857793D01*
X-951247Y-1857793D02*
X-951247Y-1810174D01*
X-951247Y-1810174D02*
X-941723Y-1772079D01*
X-941723Y-1772079D02*
X-932199Y-1753031D01*
X-932199Y-1753031D02*
X-922675Y-1743508D01*
X-922675Y-1743508D02*
X-903628Y-1733984D01*
X-751247Y-1914936D02*
X-741723Y-1924460D01*
X-741723Y-1924460D02*
X-751247Y-1933984D01*
X-751247Y-1933984D02*
X-760771Y-1924460D01*
X-760771Y-1924460D02*
X-751247Y-1914936D01*
X-751247Y-1914936D02*
X-751247Y-1933984D01*
X-646485Y-1933984D02*
X-608390Y-1933984D01*
X-608390Y-1933984D02*
X-589342Y-1924460D01*
X-589342Y-1924460D02*
X-579818Y-1914936D01*
X-579818Y-1914936D02*
X-560771Y-1886365D01*
X-560771Y-1886365D02*
X-551247Y-1848269D01*
X-551247Y-1848269D02*
X-551247Y-1772079D01*
X-551247Y-1772079D02*
X-560771Y-1753031D01*
X-560771Y-1753031D02*
X-570294Y-1743508D01*
X-570294Y-1743508D02*
X-589342Y-1733984D01*
X-589342Y-1733984D02*
X-627437Y-1733984D01*
X-627437Y-1733984D02*
X-646485Y-1743508D01*
X-646485Y-1743508D02*
X-656009Y-1753031D01*
X-656009Y-1753031D02*
X-665533Y-1772079D01*
X-665533Y-1772079D02*
X-665533Y-1819698D01*
X-665533Y-1819698D02*
X-656009Y-1838746D01*
X-656009Y-1838746D02*
X-646485Y-1848269D01*
X-646485Y-1848269D02*
X-627437Y-1857793D01*
X-627437Y-1857793D02*
X-589342Y-1857793D01*
X-589342Y-1857793D02*
X-570294Y-1848269D01*
X-570294Y-1848269D02*
X-560771Y-1838746D01*
X-560771Y-1838746D02*
X-551247Y-1819698D01*
X-456009Y-1933984D02*
X-417913Y-1933984D01*
X-417913Y-1933984D02*
X-398866Y-1924460D01*
X-398866Y-1924460D02*
X-389342Y-1914936D01*
X-389342Y-1914936D02*
X-370294Y-1886365D01*
X-370294Y-1886365D02*
X-360771Y-1848269D01*
X-360771Y-1848269D02*
X-360771Y-1772079D01*
X-360771Y-1772079D02*
X-370294Y-1753031D01*
X-370294Y-1753031D02*
X-379818Y-1743508D01*
X-379818Y-1743508D02*
X-398866Y-1733984D01*
X-398866Y-1733984D02*
X-436961Y-1733984D01*
X-436961Y-1733984D02*
X-456009Y-1743508D01*
X-456009Y-1743508D02*
X-465532Y-1753031D01*
X-465532Y-1753031D02*
X-475056Y-1772079D01*
X-475056Y-1772079D02*
X-475056Y-1819698D01*
X-475056Y-1819698D02*
X-465532Y-1838746D01*
X-465532Y-1838746D02*
X-456009Y-1848269D01*
X-456009Y-1848269D02*
X-436961Y-1857793D01*
X-436961Y-1857793D02*
X-398866Y-1857793D01*
X-398866Y-1857793D02*
X-379818Y-1848269D01*
X-379818Y-1848269D02*
X-370294Y-1838746D01*
X-370294Y-1838746D02*
X-360771Y-1819698D01*
X-170294Y-1933984D02*
X-284580Y-1933984D01*
X-227437Y-1933984D02*
X-227437Y-1733984D01*
X-227437Y-1733984D02*
X-246485Y-1762555D01*
X-246485Y-1762555D02*
X-265533Y-1781603D01*
X-265533Y-1781603D02*
X-284580Y-1791127D01*
X-84580Y-1933984D02*
X-84580Y-1800650D01*
X-84580Y-1819698D02*
X-75056Y-1810174D01*
X-75056Y-1810174D02*
X-56009Y-1800650D01*
X-56009Y-1800650D02*
X-27437Y-1800650D01*
X-27437Y-1800650D02*
X-8390Y-1810174D01*
X-8390Y-1810174D02*
X1134Y-1829222D01*
X1134Y-1829222D02*
X1134Y-1933984D01*
X1134Y-1829222D02*
X10658Y-1810174D01*
X10658Y-1810174D02*
X29705Y-1800650D01*
X29705Y-1800650D02*
X58277Y-1800650D01*
X58277Y-1800650D02*
X77325Y-1810174D01*
X77325Y-1810174D02*
X86848Y-1829222D01*
X86848Y-1829222D02*
X86848Y-1933984D01*
X182086Y-1933984D02*
X182086Y-1800650D01*
X182086Y-1819698D02*
X191610Y-1810174D01*
X191610Y-1810174D02*
X210658Y-1800650D01*
X210658Y-1800650D02*
X239229Y-1800650D01*
X239229Y-1800650D02*
X258277Y-1810174D01*
X258277Y-1810174D02*
X267801Y-1829222D01*
X267801Y-1829222D02*
X267801Y-1933984D01*
X267801Y-1829222D02*
X277325Y-1810174D01*
X277325Y-1810174D02*
X296372Y-1800650D01*
X296372Y-1800650D02*
X324944Y-1800650D01*
X324944Y-1800650D02*
X343991Y-1810174D01*
X343991Y-1810174D02*
X353515Y-1829222D01*
X353515Y-1829222D02*
X353515Y-1933984D01*
X743991Y-1724460D02*
X572563Y-1981603D01*
X1001134Y-1733984D02*
X1020182Y-1733984D01*
X1020182Y-1733984D02*
X1039229Y-1743508D01*
X1039229Y-1743508D02*
X1048753Y-1753031D01*
X1048753Y-1753031D02*
X1058277Y-1772079D01*
X1058277Y-1772079D02*
X1067801Y-1810174D01*
X1067801Y-1810174D02*
X1067801Y-1857793D01*
X1067801Y-1857793D02*
X1058277Y-1895888D01*
X1058277Y-1895888D02*
X1048753Y-1914936D01*
X1048753Y-1914936D02*
X1039229Y-1924460D01*
X1039229Y-1924460D02*
X1020182Y-1933984D01*
X1020182Y-1933984D02*
X1001134Y-1933984D01*
X1001134Y-1933984D02*
X982087Y-1924460D01*
X982087Y-1924460D02*
X972563Y-1914936D01*
X972563Y-1914936D02*
X963039Y-1895888D01*
X963039Y-1895888D02*
X953515Y-1857793D01*
X953515Y-1857793D02*
X953515Y-1810174D01*
X953515Y-1810174D02*
X963039Y-1772079D01*
X963039Y-1772079D02*
X972563Y-1753031D01*
X972563Y-1753031D02*
X982087Y-1743508D01*
X982087Y-1743508D02*
X1001134Y-1733984D01*
X1153515Y-1914936D02*
X1163039Y-1924460D01*
X1163039Y-1924460D02*
X1153515Y-1933984D01*
X1153515Y-1933984D02*
X1143991Y-1924460D01*
X1143991Y-1924460D02*
X1153515Y-1914936D01*
X1153515Y-1914936D02*
X1153515Y-1933984D01*
X1286849Y-1733984D02*
X1305896Y-1733984D01*
X1305896Y-1733984D02*
X1324944Y-1743508D01*
X1324944Y-1743508D02*
X1334468Y-1753031D01*
X1334468Y-1753031D02*
X1343991Y-1772079D01*
X1343991Y-1772079D02*
X1353515Y-1810174D01*
X1353515Y-1810174D02*
X1353515Y-1857793D01*
X1353515Y-1857793D02*
X1343991Y-1895888D01*
X1343991Y-1895888D02*
X1334468Y-1914936D01*
X1334468Y-1914936D02*
X1324944Y-1924460D01*
X1324944Y-1924460D02*
X1305896Y-1933984D01*
X1305896Y-1933984D02*
X1286849Y-1933984D01*
X1286849Y-1933984D02*
X1267801Y-1924460D01*
X1267801Y-1924460D02*
X1258277Y-1914936D01*
X1258277Y-1914936D02*
X1248753Y-1895888D01*
X1248753Y-1895888D02*
X1239230Y-1857793D01*
X1239230Y-1857793D02*
X1239230Y-1810174D01*
X1239230Y-1810174D02*
X1248753Y-1772079D01*
X1248753Y-1772079D02*
X1258277Y-1753031D01*
X1258277Y-1753031D02*
X1267801Y-1743508D01*
X1267801Y-1743508D02*
X1286849Y-1733984D01*
X1420182Y-1733984D02*
X1543991Y-1733984D01*
X1543991Y-1733984D02*
X1477325Y-1810174D01*
X1477325Y-1810174D02*
X1505896Y-1810174D01*
X1505896Y-1810174D02*
X1524944Y-1819698D01*
X1524944Y-1819698D02*
X1534468Y-1829222D01*
X1534468Y-1829222D02*
X1543991Y-1848269D01*
X1543991Y-1848269D02*
X1543991Y-1895888D01*
X1543991Y-1895888D02*
X1534468Y-1914936D01*
X1534468Y-1914936D02*
X1524944Y-1924460D01*
X1524944Y-1924460D02*
X1505896Y-1933984D01*
X1505896Y-1933984D02*
X1448753Y-1933984D01*
X1448753Y-1933984D02*
X1429706Y-1924460D01*
X1429706Y-1924460D02*
X1420182Y-1914936D01*
X1639229Y-1933984D02*
X1677325Y-1933984D01*
X1677325Y-1933984D02*
X1696372Y-1924460D01*
X1696372Y-1924460D02*
X1705896Y-1914936D01*
X1705896Y-1914936D02*
X1724944Y-1886365D01*
X1724944Y-1886365D02*
X1734468Y-1848269D01*
X1734468Y-1848269D02*
X1734468Y-1772079D01*
X1734468Y-1772079D02*
X1724944Y-1753031D01*
X1724944Y-1753031D02*
X1715420Y-1743508D01*
X1715420Y-1743508D02*
X1696372Y-1733984D01*
X1696372Y-1733984D02*
X1658277Y-1733984D01*
X1658277Y-1733984D02*
X1639229Y-1743508D01*
X1639229Y-1743508D02*
X1629706Y-1753031D01*
X1629706Y-1753031D02*
X1620182Y-1772079D01*
X1620182Y-1772079D02*
X1620182Y-1819698D01*
X1620182Y-1819698D02*
X1629706Y-1838746D01*
X1629706Y-1838746D02*
X1639229Y-1848269D01*
X1639229Y-1848269D02*
X1658277Y-1857793D01*
X1658277Y-1857793D02*
X1696372Y-1857793D01*
X1696372Y-1857793D02*
X1715420Y-1848269D01*
X1715420Y-1848269D02*
X1724944Y-1838746D01*
X1724944Y-1838746D02*
X1734468Y-1819698D01*
X1858277Y-1733984D02*
X1877325Y-1733984D01*
X1877325Y-1733984D02*
X1896372Y-1743508D01*
X1896372Y-1743508D02*
X1905896Y-1753031D01*
X1905896Y-1753031D02*
X1915420Y-1772079D01*
X1915420Y-1772079D02*
X1924944Y-1810174D01*
X1924944Y-1810174D02*
X1924944Y-1857793D01*
X1924944Y-1857793D02*
X1915420Y-1895888D01*
X1915420Y-1895888D02*
X1905896Y-1914936D01*
X1905896Y-1914936D02*
X1896372Y-1924460D01*
X1896372Y-1924460D02*
X1877325Y-1933984D01*
X1877325Y-1933984D02*
X1858277Y-1933984D01*
X1858277Y-1933984D02*
X1839229Y-1924460D01*
X1839229Y-1924460D02*
X1829706Y-1914936D01*
X1829706Y-1914936D02*
X1820182Y-1895888D01*
X1820182Y-1895888D02*
X1810658Y-1857793D01*
X1810658Y-1857793D02*
X1810658Y-1810174D01*
X1810658Y-1810174D02*
X1820182Y-1772079D01*
X1820182Y-1772079D02*
X1829706Y-1753031D01*
X1829706Y-1753031D02*
X1839229Y-1743508D01*
X1839229Y-1743508D02*
X1858277Y-1733984D01*
X2001134Y-1733984D02*
X2001134Y-1772079D01*
X2077325Y-1733984D02*
X2077325Y-1772079D01*
X2372563Y-2010174D02*
X2363039Y-2000650D01*
X2363039Y-2000650D02*
X2343992Y-1972079D01*
X2343992Y-1972079D02*
X2334468Y-1953031D01*
X2334468Y-1953031D02*
X2324944Y-1924460D01*
X2324944Y-1924460D02*
X2315420Y-1876841D01*
X2315420Y-1876841D02*
X2315420Y-1838746D01*
X2315420Y-1838746D02*
X2324944Y-1791127D01*
X2324944Y-1791127D02*
X2334468Y-1762555D01*
X2334468Y-1762555D02*
X2343992Y-1743508D01*
X2343992Y-1743508D02*
X2363039Y-1714936D01*
X2363039Y-1714936D02*
X2372563Y-1705412D01*
X2429706Y-1733984D02*
X2553515Y-1733984D01*
X2553515Y-1733984D02*
X2486849Y-1810174D01*
X2486849Y-1810174D02*
X2515420Y-1810174D01*
X2515420Y-1810174D02*
X2534468Y-1819698D01*
X2534468Y-1819698D02*
X2543992Y-1829222D01*
X2543992Y-1829222D02*
X2553515Y-1848269D01*
X2553515Y-1848269D02*
X2553515Y-1895888D01*
X2553515Y-1895888D02*
X2543992Y-1914936D01*
X2543992Y-1914936D02*
X2534468Y-1924460D01*
X2534468Y-1924460D02*
X2515420Y-1933984D01*
X2515420Y-1933984D02*
X2458277Y-1933984D01*
X2458277Y-1933984D02*
X2439230Y-1924460D01*
X2439230Y-1924460D02*
X2429706Y-1914936D01*
X2791611Y-1933984D02*
X2791611Y-1733984D01*
X2877325Y-1933984D02*
X2877325Y-1829222D01*
X2877325Y-1829222D02*
X2867801Y-1810174D01*
X2867801Y-1810174D02*
X2848753Y-1800650D01*
X2848753Y-1800650D02*
X2820182Y-1800650D01*
X2820182Y-1800650D02*
X2801134Y-1810174D01*
X2801134Y-1810174D02*
X2791611Y-1819698D01*
X3001134Y-1933984D02*
X2982087Y-1924460D01*
X2982087Y-1924460D02*
X2972563Y-1914936D01*
X2972563Y-1914936D02*
X2963039Y-1895888D01*
X2963039Y-1895888D02*
X2963039Y-1838746D01*
X2963039Y-1838746D02*
X2972563Y-1819698D01*
X2972563Y-1819698D02*
X2982087Y-1810174D01*
X2982087Y-1810174D02*
X3001134Y-1800650D01*
X3001134Y-1800650D02*
X3029706Y-1800650D01*
X3029706Y-1800650D02*
X3048753Y-1810174D01*
X3048753Y-1810174D02*
X3058277Y-1819698D01*
X3058277Y-1819698D02*
X3067801Y-1838746D01*
X3067801Y-1838746D02*
X3067801Y-1895888D01*
X3067801Y-1895888D02*
X3058277Y-1914936D01*
X3058277Y-1914936D02*
X3048753Y-1924460D01*
X3048753Y-1924460D02*
X3029706Y-1933984D01*
X3029706Y-1933984D02*
X3001134Y-1933984D01*
X3182087Y-1933984D02*
X3163039Y-1924460D01*
X3163039Y-1924460D02*
X3153515Y-1905412D01*
X3153515Y-1905412D02*
X3153515Y-1733984D01*
X3334468Y-1924460D02*
X3315420Y-1933984D01*
X3315420Y-1933984D02*
X3277325Y-1933984D01*
X3277325Y-1933984D02*
X3258277Y-1924460D01*
X3258277Y-1924460D02*
X3248753Y-1905412D01*
X3248753Y-1905412D02*
X3248753Y-1829222D01*
X3248753Y-1829222D02*
X3258277Y-1810174D01*
X3258277Y-1810174D02*
X3277325Y-1800650D01*
X3277325Y-1800650D02*
X3315420Y-1800650D01*
X3315420Y-1800650D02*
X3334468Y-1810174D01*
X3334468Y-1810174D02*
X3343992Y-1829222D01*
X3343992Y-1829222D02*
X3343992Y-1848269D01*
X3343992Y-1848269D02*
X3248753Y-1867317D01*
X3420182Y-1924460D02*
X3439230Y-1933984D01*
X3439230Y-1933984D02*
X3477325Y-1933984D01*
X3477325Y-1933984D02*
X3496373Y-1924460D01*
X3496373Y-1924460D02*
X3505896Y-1905412D01*
X3505896Y-1905412D02*
X3505896Y-1895888D01*
X3505896Y-1895888D02*
X3496373Y-1876841D01*
X3496373Y-1876841D02*
X3477325Y-1867317D01*
X3477325Y-1867317D02*
X3448753Y-1867317D01*
X3448753Y-1867317D02*
X3429706Y-1857793D01*
X3429706Y-1857793D02*
X3420182Y-1838746D01*
X3420182Y-1838746D02*
X3420182Y-1829222D01*
X3420182Y-1829222D02*
X3429706Y-1810174D01*
X3429706Y-1810174D02*
X3448753Y-1800650D01*
X3448753Y-1800650D02*
X3477325Y-1800650D01*
X3477325Y-1800650D02*
X3496373Y-1810174D01*
X3572563Y-2010174D02*
X3582087Y-2000650D01*
X3582087Y-2000650D02*
X3601134Y-1972079D01*
X3601134Y-1972079D02*
X3610658Y-1953031D01*
X3610658Y-1953031D02*
X3620182Y-1924460D01*
X3620182Y-1924460D02*
X3629706Y-1876841D01*
X3629706Y-1876841D02*
X3629706Y-1838746D01*
X3629706Y-1838746D02*
X3620182Y-1791127D01*
X3620182Y-1791127D02*
X3610658Y-1762555D01*
X3610658Y-1762555D02*
X3601134Y-1743508D01*
X3601134Y-1743508D02*
X3582087Y-1714936D01*
X3582087Y-1714936D02*
X3572563Y-1705412D01*
X3934468Y-2010174D02*
X3924944Y-2000650D01*
X3924944Y-2000650D02*
X3905896Y-1972079D01*
X3905896Y-1972079D02*
X3896373Y-1953031D01*
X3896373Y-1953031D02*
X3886849Y-1924460D01*
X3886849Y-1924460D02*
X3877325Y-1876841D01*
X3877325Y-1876841D02*
X3877325Y-1838746D01*
X3877325Y-1838746D02*
X3886849Y-1791127D01*
X3886849Y-1791127D02*
X3896373Y-1762555D01*
X3896373Y-1762555D02*
X3905896Y-1743508D01*
X3905896Y-1743508D02*
X3924944Y-1714936D01*
X3924944Y-1714936D02*
X3934468Y-1705412D01*
X4010658Y-1800650D02*
X4010658Y-1933984D01*
X4010658Y-1819698D02*
X4020182Y-1810174D01*
X4020182Y-1810174D02*
X4039230Y-1800650D01*
X4039230Y-1800650D02*
X4067801Y-1800650D01*
X4067801Y-1800650D02*
X4086849Y-1810174D01*
X4086849Y-1810174D02*
X4096373Y-1829222D01*
X4096373Y-1829222D02*
X4096373Y-1933984D01*
X4220182Y-1933984D02*
X4201135Y-1924460D01*
X4201135Y-1924460D02*
X4191611Y-1914936D01*
X4191611Y-1914936D02*
X4182087Y-1895888D01*
X4182087Y-1895888D02*
X4182087Y-1838746D01*
X4182087Y-1838746D02*
X4191611Y-1819698D01*
X4191611Y-1819698D02*
X4201135Y-1810174D01*
X4201135Y-1810174D02*
X4220182Y-1800650D01*
X4220182Y-1800650D02*
X4248754Y-1800650D01*
X4248754Y-1800650D02*
X4267801Y-1810174D01*
X4267801Y-1810174D02*
X4277325Y-1819698D01*
X4277325Y-1819698D02*
X4286849Y-1838746D01*
X4286849Y-1838746D02*
X4286849Y-1895888D01*
X4286849Y-1895888D02*
X4277325Y-1914936D01*
X4277325Y-1914936D02*
X4267801Y-1924460D01*
X4267801Y-1924460D02*
X4248754Y-1933984D01*
X4248754Y-1933984D02*
X4220182Y-1933984D01*
X4343992Y-1800650D02*
X4420182Y-1800650D01*
X4372563Y-1733984D02*
X4372563Y-1905412D01*
X4372563Y-1905412D02*
X4382087Y-1924460D01*
X4382087Y-1924460D02*
X4401135Y-1933984D01*
X4401135Y-1933984D02*
X4420182Y-1933984D01*
X4639230Y-1800650D02*
X4639230Y-2000650D01*
X4639230Y-1810174D02*
X4658277Y-1800650D01*
X4658277Y-1800650D02*
X4696373Y-1800650D01*
X4696373Y-1800650D02*
X4715420Y-1810174D01*
X4715420Y-1810174D02*
X4724944Y-1819698D01*
X4724944Y-1819698D02*
X4734468Y-1838746D01*
X4734468Y-1838746D02*
X4734468Y-1895888D01*
X4734468Y-1895888D02*
X4724944Y-1914936D01*
X4724944Y-1914936D02*
X4715420Y-1924460D01*
X4715420Y-1924460D02*
X4696373Y-1933984D01*
X4696373Y-1933984D02*
X4658277Y-1933984D01*
X4658277Y-1933984D02*
X4639230Y-1924460D01*
X4848754Y-1933984D02*
X4829706Y-1924460D01*
X4829706Y-1924460D02*
X4820182Y-1905412D01*
X4820182Y-1905412D02*
X4820182Y-1733984D01*
X5010658Y-1933984D02*
X5010658Y-1829222D01*
X5010658Y-1829222D02*
X5001135Y-1810174D01*
X5001135Y-1810174D02*
X4982087Y-1800650D01*
X4982087Y-1800650D02*
X4943992Y-1800650D01*
X4943992Y-1800650D02*
X4924944Y-1810174D01*
X5010658Y-1924460D02*
X4991611Y-1933984D01*
X4991611Y-1933984D02*
X4943992Y-1933984D01*
X4943992Y-1933984D02*
X4924944Y-1924460D01*
X4924944Y-1924460D02*
X4915420Y-1905412D01*
X4915420Y-1905412D02*
X4915420Y-1886365D01*
X4915420Y-1886365D02*
X4924944Y-1867317D01*
X4924944Y-1867317D02*
X4943992Y-1857793D01*
X4943992Y-1857793D02*
X4991611Y-1857793D01*
X4991611Y-1857793D02*
X5010658Y-1848269D01*
X5077325Y-1800650D02*
X5153516Y-1800650D01*
X5105897Y-1733984D02*
X5105897Y-1905412D01*
X5105897Y-1905412D02*
X5115420Y-1924460D01*
X5115420Y-1924460D02*
X5134468Y-1933984D01*
X5134468Y-1933984D02*
X5153516Y-1933984D01*
X5296373Y-1924460D02*
X5277325Y-1933984D01*
X5277325Y-1933984D02*
X5239230Y-1933984D01*
X5239230Y-1933984D02*
X5220182Y-1924460D01*
X5220182Y-1924460D02*
X5210658Y-1905412D01*
X5210658Y-1905412D02*
X5210658Y-1829222D01*
X5210658Y-1829222D02*
X5220182Y-1810174D01*
X5220182Y-1810174D02*
X5239230Y-1800650D01*
X5239230Y-1800650D02*
X5277325Y-1800650D01*
X5277325Y-1800650D02*
X5296373Y-1810174D01*
X5296373Y-1810174D02*
X5305897Y-1829222D01*
X5305897Y-1829222D02*
X5305897Y-1848269D01*
X5305897Y-1848269D02*
X5210658Y-1867317D01*
X5477325Y-1933984D02*
X5477325Y-1733984D01*
X5477325Y-1924460D02*
X5458278Y-1933984D01*
X5458278Y-1933984D02*
X5420182Y-1933984D01*
X5420182Y-1933984D02*
X5401135Y-1924460D01*
X5401135Y-1924460D02*
X5391611Y-1914936D01*
X5391611Y-1914936D02*
X5382087Y-1895888D01*
X5382087Y-1895888D02*
X5382087Y-1838746D01*
X5382087Y-1838746D02*
X5391611Y-1819698D01*
X5391611Y-1819698D02*
X5401135Y-1810174D01*
X5401135Y-1810174D02*
X5420182Y-1800650D01*
X5420182Y-1800650D02*
X5458278Y-1800650D01*
X5458278Y-1800650D02*
X5477325Y-1810174D01*
X5553516Y-2010174D02*
X5563039Y-2000650D01*
X5563039Y-2000650D02*
X5582087Y-1972079D01*
X5582087Y-1972079D02*
X5591611Y-1953031D01*
X5591611Y-1953031D02*
X5601135Y-1924460D01*
X5601135Y-1924460D02*
X5610658Y-1876841D01*
X5610658Y-1876841D02*
X5610658Y-1838746D01*
X5610658Y-1838746D02*
X5601135Y-1791127D01*
X5601135Y-1791127D02*
X5591611Y-1762555D01*
X5591611Y-1762555D02*
X5582087Y-1743508D01*
X5582087Y-1743508D02*
X5563039Y-1714936D01*
X5563039Y-1714936D02*
X5553516Y-1705412D01*
M02*
