%TF.GenerationSoftware,KiCad,Pcbnew,9.0.7*%
%TF.CreationDate,2026-03-08T09:15:12+01:00*%
%TF.ProjectId,halo-90,68616c6f-2d39-4302-9e6b-696361645f70,0V8*%
%TF.SameCoordinates,Original*%
%TF.FileFunction,Other,User*%
%FSLAX46Y46*%
G04 Gerber Fmt 4.6, Leading zero omitted, Abs format (unit mm)*
G04 Created by KiCad (PCBNEW 9.0.7) date 2026-03-08 09:15:12*
%MOMM*%
%LPD*%
G01*
G04 APERTURE LIST*
%ADD10C,0.050000*%
G04 APERTURE END LIST*
D10*
%TO.C,D30*%
X9327710Y4827613D02*
X9546896Y4378216D01*
X9546896Y4378216D02*
X10445690Y4816587D01*
X10226504Y5265984D02*
X9327710Y4827613D01*
X10445690Y4816587D02*
X10226504Y5265984D01*
%TO.C,D70*%
X-11463093Y-953434D02*
X-11410829Y-1450695D01*
X-11410829Y-1450695D02*
X-10416307Y-1346166D01*
X-10468571Y-848905D02*
X-11463093Y-953434D01*
X-10416307Y-1346166D02*
X-10468571Y-848905D01*
%TO.C,D49*%
X-2635493Y11196696D02*
X-2427581Y10218548D01*
X-2427581Y10218548D02*
X-1938507Y10322504D01*
X-2146419Y11300652D02*
X-2635493Y11196696D01*
X-1938507Y10322504D02*
X-2146419Y11300652D01*
%TO.C,D12*%
X7114036Y-7726695D02*
X7808694Y-8446034D01*
X7473706Y-7379366D02*
X7114036Y-7726695D01*
X7808694Y-8446034D02*
X8168364Y-8098705D01*
X8168364Y-8098705D02*
X7473706Y-7379366D01*
%TO.C,D76*%
X-10084313Y-5533494D02*
X-9834313Y-5966506D01*
X-9834313Y-5966506D02*
X-8968287Y-5466506D01*
X-9218287Y-5033494D02*
X-10084313Y-5533494D01*
X-8968287Y-5466506D02*
X-9218287Y-5033494D01*
%TO.C,D43*%
X1938507Y10322504D02*
X2427581Y10218548D01*
X2146419Y11300652D02*
X1938507Y10322504D01*
X2427581Y10218548D02*
X2635493Y11196696D01*
X2635493Y11196696D02*
X2146419Y11300652D01*
%TO.C,D21*%
X10297084Y-2069478D02*
X11281892Y-2243126D01*
X10383908Y-1577074D02*
X10297084Y-2069478D01*
X11281892Y-2243126D02*
X11368716Y-1750722D01*
X11368716Y-1750722D02*
X10383908Y-1577074D01*
%TO.C,D67*%
X-11463093Y953434D02*
X-10468571Y848905D01*
X-11410829Y1450695D02*
X-11463093Y953434D01*
X-10468571Y848905D02*
X-10416307Y1346166D01*
X-10416307Y1346166D02*
X-11410829Y1450695D01*
%TO.C,D47*%
X-1051569Y11454543D02*
X-981813Y10456979D01*
X-981813Y10456979D02*
X-483031Y10491857D01*
X-552787Y11489421D02*
X-1051569Y11454543D01*
X-483031Y10491857D02*
X-552787Y11489421D01*
%TO.C,D83*%
X-6306072Y-9620044D02*
X-5882048Y-9885004D01*
X-5882048Y-9885004D02*
X-5352128Y-9036956D01*
X-5776152Y-8771996D02*
X-6306072Y-9620044D01*
X-5352128Y-9036956D02*
X-5776152Y-8771996D01*
%TO.C,D90*%
X-1051569Y-11454543D02*
X-552787Y-11489421D01*
X-981813Y-10456979D02*
X-1051569Y-11454543D01*
X-552787Y-11489421D02*
X-483031Y-10491857D01*
X-483031Y-10491857D02*
X-981813Y-10456979D01*
%TO.C,U3*%
X5650000Y3300000D02*
X2750000Y3300000D01*
X2750000Y700000D01*
X5650000Y700000D01*
X5650000Y3300000D01*
%TO.C,D31*%
X8968287Y5466506D02*
X9218287Y5033494D01*
X9218287Y5033494D02*
X10084313Y5533494D01*
X9834313Y5966506D02*
X8968287Y5466506D01*
X10084313Y5533494D02*
X9834313Y5966506D01*
%TO.C,D50*%
X-3410134Y10985622D02*
X-3134497Y10024360D01*
X-3134497Y10024360D02*
X-2653866Y10162178D01*
X-2929503Y11123440D02*
X-3410134Y10985622D01*
X-2653866Y10162178D02*
X-2929503Y11123440D01*
%TO.C,D51*%
X-4168133Y10720941D02*
X-3826113Y9781249D01*
X-3826113Y9781249D02*
X-3356267Y9952259D01*
X-3698287Y10891951D02*
X-4168133Y10720941D01*
X-3356267Y9952259D02*
X-3698287Y10891951D01*
%TO.C,D32*%
X8565083Y6078763D02*
X8844679Y5664244D01*
X8844679Y5664244D02*
X9673717Y6223437D01*
X9394121Y6637956D02*
X8565083Y6078763D01*
X9673717Y6223437D02*
X9394121Y6637956D01*
%TO.C,D40*%
X4042345Y9693911D02*
X4499118Y9490543D01*
X4449082Y10607457D02*
X4042345Y9693911D01*
X4499118Y9490543D02*
X4905855Y10404089D01*
X4905855Y10404089D02*
X4449082Y10607457D01*
%TO.C,D26*%
X10297084Y2069478D02*
X10383908Y1577074D01*
X10383908Y1577074D02*
X11368716Y1750722D01*
X11281892Y2243126D02*
X10297084Y2069478D01*
X11368716Y1750722D02*
X11281892Y2243126D01*
%TO.C,D33*%
X8120179Y6661472D02*
X8428010Y6267467D01*
X8428010Y6267467D02*
X9216021Y6883128D01*
X8908190Y7277133D02*
X8120179Y6661472D01*
X9216021Y6883128D02*
X8908190Y7277133D01*
%TO.C,D36*%
X6557795Y8204175D02*
X6940817Y7882781D01*
X6940817Y7882781D02*
X7583605Y8648825D01*
X7200583Y8970219D02*
X6557795Y8204175D01*
X7583605Y8648825D02*
X7200583Y8970219D01*
%TO.C,D34*%
X7635745Y7211621D02*
X7970309Y6840048D01*
X7970309Y6840048D02*
X8713455Y7509179D01*
X8378891Y7880752D02*
X7635745Y7211621D01*
X8713455Y7509179D02*
X8378891Y7880752D01*
%TO.C,D20*%
X10127672Y-2782713D02*
X11097967Y-3024635D01*
X10248633Y-2297565D02*
X10127672Y-2782713D01*
X11097967Y-3024635D02*
X11218928Y-2539487D01*
X11218928Y-2539487D02*
X10248633Y-2297565D01*
%TO.C,D87*%
X-3410134Y-10985622D02*
X-2929503Y-11123440D01*
X-3134497Y-10024360D02*
X-3410134Y-10985622D01*
X-2929503Y-11123440D02*
X-2653866Y-10162178D01*
X-2653866Y-10162178D02*
X-3134497Y-10024360D01*
%TO.C,D62*%
X-10445690Y4816587D02*
X-9546896Y4378216D01*
X-10226504Y5265984D02*
X-10445690Y4816587D01*
X-9546896Y4378216D02*
X-9327710Y4827613D01*
X-9327710Y4827613D02*
X-10226504Y5265984D01*
%TO.C,D89*%
X-1848054Y-11353241D02*
X-1352921Y-11422827D01*
X-1708879Y-10362973D02*
X-1848054Y-11353241D01*
X-1352921Y-11422827D02*
X-1213746Y-10432559D01*
X-1213746Y-10432559D02*
X-1708879Y-10362973D01*
%TO.C,D25*%
X10416307Y1346166D02*
X10468571Y848905D01*
X10468571Y848905D02*
X11463093Y953434D01*
X11410829Y1450695D02*
X10416307Y1346166D01*
X11463093Y953434D02*
X11410829Y1450695D01*
%TO.C,D28*%
X9908817Y3482457D02*
X10063326Y3006927D01*
X10063326Y3006927D02*
X11014383Y3315943D01*
X10859874Y3791473D02*
X9908817Y3482457D01*
X11014383Y3315943D02*
X10859874Y3791473D01*
%TO.C,D71*%
X-11368716Y-1750722D02*
X-11281892Y-2243126D01*
X-11281892Y-2243126D02*
X-10297084Y-2069478D01*
X-10383908Y-1577074D02*
X-11368716Y-1750722D01*
X-10297084Y-2069478D02*
X-10383908Y-1577074D01*
%TO.C,D42*%
X2653866Y10162178D02*
X3134497Y10024360D01*
X2929503Y11123440D02*
X2653866Y10162178D01*
X3134497Y10024360D02*
X3410134Y10985622D01*
X3410134Y10985622D02*
X2929503Y11123440D01*
%TO.C,D59*%
X-9216021Y6883128D02*
X-8428010Y6267467D01*
X-8908190Y7277133D02*
X-9216021Y6883128D01*
X-8428010Y6267467D02*
X-8120179Y6661472D01*
X-8120179Y6661472D02*
X-8908190Y7277133D01*
%TO.C,D85*%
X-4905855Y-10404089D02*
X-4449082Y-10607457D01*
X-4499118Y-9490543D02*
X-4905855Y-10404089D01*
X-4449082Y-10607457D02*
X-4042345Y-9693911D01*
X-4042345Y-9693911D02*
X-4499118Y-9490543D01*
%TO.C,D11*%
X6557795Y-8204175D02*
X7200583Y-8970219D01*
X6940817Y-7882781D02*
X6557795Y-8204175D01*
X7200583Y-8970219D02*
X7583605Y-8648825D01*
X7583605Y-8648825D02*
X6940817Y-7882781D01*
%TO.C,D44*%
X1213746Y10432559D02*
X1708879Y10362973D01*
X1352921Y11422827D02*
X1213746Y10432559D01*
X1708879Y10362973D02*
X1848054Y11353241D01*
X1848054Y11353241D02*
X1352921Y11422827D01*
%TO.C,D18*%
X9641756Y-4165193D02*
X10568940Y-4539799D01*
X9829060Y-3701601D02*
X9641756Y-4165193D01*
X10568940Y-4539799D02*
X10756244Y-4076207D01*
X10756244Y-4076207D02*
X9829060Y-3701601D01*
%TO.C,D16*%
X8968287Y-5466506D02*
X9834313Y-5966506D01*
X9218287Y-5033494D02*
X8968287Y-5466506D01*
X9834313Y-5966506D02*
X10084313Y-5533494D01*
X10084313Y-5533494D02*
X9218287Y-5033494D01*
%TO.C,D55*%
X-6961747Y9156762D02*
X-6373962Y8347745D01*
X-6557238Y9450655D02*
X-6961747Y9156762D01*
X-6373962Y8347745D02*
X-5969453Y8641638D01*
X-5969453Y8641638D02*
X-6557238Y9450655D01*
%TO.C,D52*%
X-4905855Y10404089D02*
X-4499118Y9490543D01*
X-4499118Y9490543D02*
X-4042345Y9693911D01*
X-4449082Y10607457D02*
X-4905855Y10404089D01*
X-4042345Y9693911D02*
X-4449082Y10607457D01*
%TO.C,D10*%
X5969453Y-8641638D02*
X6557238Y-9450655D01*
X6373962Y-8347745D02*
X5969453Y-8641638D01*
X6557238Y-9450655D02*
X6961747Y-9156762D01*
X6961747Y-9156762D02*
X6373962Y-8347745D01*
%TO.C,R2*%
X800000Y-1200000D02*
X2400000Y-1200000D01*
X800000Y-1800000D02*
X800000Y-1200000D01*
X2400000Y-1200000D02*
X2400000Y-1800000D01*
X2400000Y-1800000D02*
X800000Y-1800000D01*
%TO.C,D77*%
X-9673717Y-6223437D02*
X-9394121Y-6637956D01*
X-9394121Y-6637956D02*
X-8565083Y-6078763D01*
X-8844679Y-5664244D02*
X-9673717Y-6223437D01*
X-8565083Y-6078763D02*
X-8844679Y-5664244D01*
%TO.C,D58*%
X-8713455Y7509179D02*
X-7970309Y6840048D01*
X-8378891Y7880752D02*
X-8713455Y7509179D01*
X-7970309Y6840048D02*
X-7635745Y7211621D01*
X-7635745Y7211621D02*
X-8378891Y7880752D01*
%TO.C,D73*%
X-11014383Y-3315943D02*
X-10859874Y-3791473D01*
X-10859874Y-3791473D02*
X-9908817Y-3482457D01*
X-10063326Y-3006927D02*
X-11014383Y-3315943D01*
X-9908817Y-3482457D02*
X-10063326Y-3006927D01*
%TO.C,D88*%
X-2635493Y-11196696D02*
X-2146419Y-11300652D01*
X-2427581Y-10218548D02*
X-2635493Y-11196696D01*
X-2146419Y-11300652D02*
X-1938507Y-10322504D01*
X-1938507Y-10322504D02*
X-2427581Y-10218548D01*
%TO.C,D66*%
X-11368716Y1750722D02*
X-10383908Y1577074D01*
X-11281892Y2243126D02*
X-11368716Y1750722D01*
X-10383908Y1577074D02*
X-10297084Y2069478D01*
X-10297084Y2069478D02*
X-11281892Y2243126D01*
%TO.C,C2*%
X-4800000Y3000000D02*
X-3200000Y3000000D01*
X-4800000Y2400000D02*
X-4800000Y3000000D01*
X-3200000Y3000000D02*
X-3200000Y2400000D01*
X-3200000Y2400000D02*
X-4800000Y2400000D01*
%TO.C,D7*%
X4042345Y-9693911D02*
X4449082Y-10607457D01*
X4449082Y-10607457D02*
X4905855Y-10404089D01*
X4499118Y-9490543D02*
X4042345Y-9693911D01*
X4905855Y-10404089D02*
X4499118Y-9490543D01*
%TO.C,D17*%
X9327710Y-4827613D02*
X10226504Y-5265984D01*
X9546896Y-4378216D02*
X9327710Y-4827613D01*
X10226504Y-5265984D02*
X10445690Y-4816587D01*
X10445690Y-4816587D02*
X9546896Y-4378216D01*
%TO.C,D5*%
X2653866Y-10162178D02*
X2929503Y-11123440D01*
X2929503Y-11123440D02*
X3410134Y-10985622D01*
X3134497Y-10024360D02*
X2653866Y-10162178D01*
X3410134Y-10985622D02*
X3134497Y-10024360D01*
%TO.C,D80*%
X-8168364Y-8098705D02*
X-7808694Y-8446034D01*
X-7808694Y-8446034D02*
X-7114036Y-7726695D01*
X-7473706Y-7379366D02*
X-8168364Y-8098705D01*
X-7114036Y-7726695D02*
X-7473706Y-7379366D01*
%TO.C,D23*%
X10484880Y-616298D02*
X11484271Y-651197D01*
X10502329Y-116603D02*
X10484880Y-616298D01*
X11484271Y-651197D02*
X11501720Y-151502D01*
X11501720Y-151502D02*
X10502329Y-116603D01*
%TO.C,D74*%
X-10756244Y-4076207D02*
X-10568940Y-4539799D01*
X-10568940Y-4539799D02*
X-9641756Y-4165193D01*
X-9829060Y-3701601D02*
X-10756244Y-4076207D01*
X-9641756Y-4165193D02*
X-9829060Y-3701601D01*
%TO.C,D60*%
X-9673717Y6223437D02*
X-8844679Y5664244D01*
X-9394121Y6637956D02*
X-9673717Y6223437D01*
X-8844679Y5664244D02*
X-8565083Y6078763D01*
X-8565083Y6078763D02*
X-9394121Y6637956D01*
%TO.C,D13*%
X7635745Y-7211621D02*
X8378891Y-7880752D01*
X7970309Y-6840048D02*
X7635745Y-7211621D01*
X8378891Y-7880752D02*
X8713455Y-7509179D01*
X8713455Y-7509179D02*
X7970309Y-6840048D01*
%TO.C,D29*%
X9641756Y4165193D02*
X9829060Y3701601D01*
X9829060Y3701601D02*
X10756244Y4076207D01*
X10568940Y4539799D02*
X9641756Y4165193D01*
X10756244Y4076207D02*
X10568940Y4539799D01*
%TO.C,D14*%
X8120179Y-6661472D02*
X8908190Y-7277133D01*
X8428010Y-6267467D02*
X8120179Y-6661472D01*
X8908190Y-7277133D02*
X9216021Y-6883128D01*
X9216021Y-6883128D02*
X8428010Y-6267467D01*
%TO.C,D1*%
X-250000Y-10500000D02*
X-250000Y-11500000D01*
X-250000Y-11500000D02*
X250000Y-11500000D01*
X250000Y-10500000D02*
X-250000Y-10500000D01*
X250000Y-11500000D02*
X250000Y-10500000D01*
%TO.C,D3*%
X1213746Y-10432559D02*
X1352921Y-11422827D01*
X1352921Y-11422827D02*
X1848054Y-11353241D01*
X1708879Y-10362973D02*
X1213746Y-10432559D01*
X1848054Y-11353241D02*
X1708879Y-10362973D01*
%TO.C,D22*%
X10416307Y-1346166D02*
X11410829Y-1450695D01*
X10468571Y-848905D02*
X10416307Y-1346166D01*
X11410829Y-1450695D02*
X11463093Y-953434D01*
X11463093Y-953434D02*
X10468571Y-848905D01*
%TO.C,D46*%
X-250000Y11500000D02*
X-250000Y10500000D01*
X-250000Y10500000D02*
X250000Y10500000D01*
X250000Y11500000D02*
X-250000Y11500000D01*
X250000Y10500000D02*
X250000Y11500000D01*
%TO.C,D37*%
X5969453Y8641638D02*
X6373962Y8347745D01*
X6373962Y8347745D02*
X6961747Y9156762D01*
X6557238Y9450655D02*
X5969453Y8641638D01*
X6961747Y9156762D02*
X6557238Y9450655D01*
%TO.C,D63*%
X-10756244Y4076207D02*
X-9829060Y3701601D01*
X-10568940Y4539799D02*
X-10756244Y4076207D01*
X-9829060Y3701601D02*
X-9641756Y4165193D01*
X-9641756Y4165193D02*
X-10568940Y4539799D01*
%TO.C,D78*%
X-9216021Y-6883128D02*
X-8908190Y-7277133D01*
X-8908190Y-7277133D02*
X-8120179Y-6661472D01*
X-8428010Y-6267467D02*
X-9216021Y-6883128D01*
X-8120179Y-6661472D02*
X-8428010Y-6267467D01*
%TO.C,D86*%
X-4168133Y-10720941D02*
X-3698287Y-10891951D01*
X-3826113Y-9781249D02*
X-4168133Y-10720941D01*
X-3698287Y-10891951D02*
X-3356267Y-9952259D01*
X-3356267Y-9952259D02*
X-3826113Y-9781249D01*
%TO.C,D84*%
X-5619673Y-10036506D02*
X-5178199Y-10271242D01*
X-5178199Y-10271242D02*
X-4708727Y-9388294D01*
X-5150201Y-9153558D02*
X-5619673Y-10036506D01*
X-4708727Y-9388294D02*
X-5150201Y-9153558D01*
%TO.C,D53*%
X-5619673Y10036506D02*
X-5150201Y9153558D01*
X-5178199Y10271242D02*
X-5619673Y10036506D01*
X-5150201Y9153558D02*
X-4708727Y9388294D01*
X-4708727Y9388294D02*
X-5178199Y10271242D01*
%TO.C,D41*%
X3356267Y9952259D02*
X3826113Y9781249D01*
X3698287Y10891951D02*
X3356267Y9952259D01*
X3826113Y9781249D02*
X4168133Y10720941D01*
X4168133Y10720941D02*
X3698287Y10891951D01*
%TO.C,U1*%
X-4600000Y1600000D02*
X-4600000Y-1800000D01*
X-4600000Y-1800000D02*
X-4400000Y-1800000D01*
X-4400000Y1900000D02*
X-4400000Y1600000D01*
X-4400000Y1600000D02*
X-4600000Y1600000D01*
X-4400000Y-1800000D02*
X-4400000Y-2100000D01*
X-4400000Y-2100000D02*
X-4100000Y-2100000D01*
X-4100000Y2100000D02*
X-4100000Y1900000D01*
X-4100000Y1900000D02*
X-4400000Y1900000D01*
X-4100000Y-2100000D02*
X-4100000Y-2300000D01*
X-4100000Y-2300000D02*
X-700000Y-2300000D01*
X-700000Y2100000D02*
X-4100000Y2100000D01*
X-700000Y1900000D02*
X-700000Y2100000D01*
X-700000Y-2100000D02*
X-400000Y-2100000D01*
X-700000Y-2300000D02*
X-700000Y-2100000D01*
X-400000Y1900000D02*
X-700000Y1900000D01*
X-400000Y1600000D02*
X-400000Y1900000D01*
X-400000Y-1800000D02*
X-200000Y-1800000D01*
X-400000Y-2100000D02*
X-400000Y-1800000D01*
X-200000Y1600000D02*
X-400000Y1600000D01*
X-200000Y-1800000D02*
X-200000Y1600000D01*
%TO.C,D27*%
X10127672Y2782713D02*
X10248633Y2297565D01*
X10248633Y2297565D02*
X11218928Y2539487D01*
X11097967Y3024635D02*
X10127672Y2782713D01*
X11218928Y2539487D02*
X11097967Y3024635D01*
%TO.C,D19*%
X9908817Y-3482457D02*
X10859874Y-3791473D01*
X10063326Y-3006927D02*
X9908817Y-3482457D01*
X10859874Y-3791473D02*
X11014383Y-3315943D01*
X11014383Y-3315943D02*
X10063326Y-3006927D01*
%TO.C,D38*%
X5352128Y9036956D02*
X5776152Y8771996D01*
X5776152Y8771996D02*
X6306072Y9620044D01*
X5882048Y9885004D02*
X5352128Y9036956D01*
X6306072Y9620044D02*
X5882048Y9885004D01*
%TO.C,D9*%
X5352128Y-9036956D02*
X5882048Y-9885004D01*
X5776152Y-8771996D02*
X5352128Y-9036956D01*
X5882048Y-9885004D02*
X6306072Y-9620044D01*
X6306072Y-9620044D02*
X5776152Y-8771996D01*
%TO.C,D82*%
X-6961747Y-9156762D02*
X-6557238Y-9450655D01*
X-6557238Y-9450655D02*
X-5969453Y-8641638D01*
X-6373962Y-8347745D02*
X-6961747Y-9156762D01*
X-5969453Y-8641638D02*
X-6373962Y-8347745D01*
%TO.C,R1*%
X-1050000Y-3100000D02*
X-450000Y-3100000D01*
X-1050000Y-4700000D02*
X-1050000Y-3100000D01*
X-450000Y-3100000D02*
X-450000Y-4700000D01*
X-450000Y-4700000D02*
X-1050000Y-4700000D01*
%TO.C,D39*%
X4708727Y9388294D02*
X5150201Y9153558D01*
X5150201Y9153558D02*
X5619673Y10036506D01*
X5178199Y10271242D02*
X4708727Y9388294D01*
X5619673Y10036506D02*
X5178199Y10271242D01*
%TO.C,D56*%
X-7583605Y8648825D02*
X-6940817Y7882781D01*
X-7200583Y8970219D02*
X-7583605Y8648825D01*
X-6940817Y7882781D02*
X-6557795Y8204175D01*
X-6557795Y8204175D02*
X-7200583Y8970219D01*
%TO.C,D2*%
X483031Y-10491857D02*
X552787Y-11489421D01*
X552787Y-11489421D02*
X1051569Y-11454543D01*
X981813Y-10456979D02*
X483031Y-10491857D01*
X1051569Y-11454543D02*
X981813Y-10456979D01*
%TO.C,D79*%
X-8713455Y-7509179D02*
X-8378891Y-7880752D01*
X-8378891Y-7880752D02*
X-7635745Y-7211621D01*
X-7970309Y-6840048D02*
X-8713455Y-7509179D01*
X-7635745Y-7211621D02*
X-7970309Y-6840048D01*
%TO.C,D54*%
X-6306072Y9620044D02*
X-5776152Y8771996D01*
X-5882048Y9885004D02*
X-6306072Y9620044D01*
X-5776152Y8771996D02*
X-5352128Y9036956D01*
X-5352128Y9036956D02*
X-5882048Y9885004D01*
%TO.C,D72*%
X-11218928Y-2539487D02*
X-11097967Y-3024635D01*
X-11097967Y-3024635D02*
X-10127672Y-2782713D01*
X-10248633Y-2297565D02*
X-11218928Y-2539487D01*
X-10127672Y-2782713D02*
X-10248633Y-2297565D01*
%TO.C,D45*%
X483031Y10491857D02*
X981813Y10456979D01*
X552787Y11489421D02*
X483031Y10491857D01*
X981813Y10456979D02*
X1051569Y11454543D01*
X1051569Y11454543D02*
X552787Y11489421D01*
%TO.C,D15*%
X8565083Y-6078763D02*
X9394121Y-6637956D01*
X8844679Y-5664244D02*
X8565083Y-6078763D01*
X9394121Y-6637956D02*
X9673717Y-6223437D01*
X9673717Y-6223437D02*
X8844679Y-5664244D01*
%TO.C,D8*%
X4708727Y-9388294D02*
X5178199Y-10271242D01*
X5150201Y-9153558D02*
X4708727Y-9388294D01*
X5178199Y-10271242D02*
X5619673Y-10036506D01*
X5619673Y-10036506D02*
X5150201Y-9153558D01*
%TO.C,D68*%
X-11501720Y151502D02*
X-10502329Y116603D01*
X-11484271Y651197D02*
X-11501720Y151502D01*
X-10502329Y116603D02*
X-10484880Y616298D01*
X-10484880Y616298D02*
X-11484271Y651197D01*
%TO.C,D35*%
X7114036Y7726695D02*
X7473706Y7379366D01*
X7473706Y7379366D02*
X8168364Y8098705D01*
X7808694Y8446034D02*
X7114036Y7726695D01*
X8168364Y8098705D02*
X7808694Y8446034D01*
%TO.C,D64*%
X-11014383Y3315943D02*
X-10063326Y3006927D01*
X-10859874Y3791473D02*
X-11014383Y3315943D01*
X-10063326Y3006927D02*
X-9908817Y3482457D01*
X-9908817Y3482457D02*
X-10859874Y3791473D01*
%TO.C,R3*%
X-900000Y4100000D02*
X-300000Y4100000D01*
X-900000Y2500000D02*
X-900000Y4100000D01*
X-300000Y4100000D02*
X-300000Y2500000D01*
X-300000Y2500000D02*
X-900000Y2500000D01*
%TO.C,D6*%
X3356267Y-9952259D02*
X3698287Y-10891951D01*
X3698287Y-10891951D02*
X4168133Y-10720941D01*
X3826113Y-9781249D02*
X3356267Y-9952259D01*
X4168133Y-10720941D02*
X3826113Y-9781249D01*
%TO.C,D48*%
X-1848054Y11353241D02*
X-1708879Y10362973D01*
X-1708879Y10362973D02*
X-1213746Y10432559D01*
X-1352921Y11422827D02*
X-1848054Y11353241D01*
X-1213746Y10432559D02*
X-1352921Y11422827D01*
%TO.C,C1*%
X2800000Y-2900000D02*
X3400000Y-2900000D01*
X2800000Y-4500000D02*
X2800000Y-2900000D01*
X3400000Y-2900000D02*
X3400000Y-4500000D01*
X3400000Y-4500000D02*
X2800000Y-4500000D01*
%TO.C,D57*%
X-8168364Y8098705D02*
X-7473706Y7379366D01*
X-7808694Y8446034D02*
X-8168364Y8098705D01*
X-7473706Y7379366D02*
X-7114036Y7726695D01*
X-7114036Y7726695D02*
X-7808694Y8446034D01*
%TO.C,D61*%
X-10084313Y5533494D02*
X-9218287Y5033494D01*
X-9834313Y5966506D02*
X-10084313Y5533494D01*
X-9218287Y5033494D02*
X-8968287Y5466506D01*
X-8968287Y5466506D02*
X-9834313Y5966506D01*
%TO.C,C4*%
X-4800000Y3850000D02*
X-3200000Y3850000D01*
X-4800000Y3250000D02*
X-4800000Y3850000D01*
X-3200000Y3850000D02*
X-3200000Y3250000D01*
X-3200000Y3250000D02*
X-4800000Y3250000D01*
%TO.C,D69*%
X-11501720Y-151502D02*
X-11484271Y-651197D01*
X-11484271Y-651197D02*
X-10484880Y-616298D01*
X-10502329Y-116603D02*
X-11501720Y-151502D01*
X-10484880Y-616298D02*
X-10502329Y-116603D01*
%TO.C,D75*%
X-10445690Y-4816587D02*
X-10226504Y-5265984D01*
X-10226504Y-5265984D02*
X-9327710Y-4827613D01*
X-9546896Y-4378216D02*
X-10445690Y-4816587D01*
X-9327710Y-4827613D02*
X-9546896Y-4378216D01*
%TO.C,D65*%
X-11218928Y2539487D02*
X-10248633Y2297565D01*
X-11097967Y3024635D02*
X-11218928Y2539487D01*
X-10248633Y2297565D02*
X-10127672Y2782713D01*
X-10127672Y2782713D02*
X-11097967Y3024635D01*
%TO.C,D4*%
X1938507Y-10322504D02*
X2146419Y-11300652D01*
X2146419Y-11300652D02*
X2635493Y-11196696D01*
X2427581Y-10218548D02*
X1938507Y-10322504D01*
X2635493Y-11196696D02*
X2427581Y-10218548D01*
%TO.C,C3*%
X4100000Y-100000D02*
X5700000Y-100000D01*
X4100000Y-700000D02*
X4100000Y-100000D01*
X5700000Y-100000D02*
X5700000Y-700000D01*
X5700000Y-700000D02*
X4100000Y-700000D01*
%TO.C,D24*%
X10484880Y616298D02*
X10502329Y116603D01*
X10502329Y116603D02*
X11501720Y151502D01*
X11484271Y651197D02*
X10484880Y616298D01*
X11501720Y151502D02*
X11484271Y651197D01*
%TO.C,D81*%
X-7583605Y-8648825D02*
X-7200583Y-8970219D01*
X-7200583Y-8970219D02*
X-6557795Y-8204175D01*
X-6940817Y-7882781D02*
X-7583605Y-8648825D01*
X-6557795Y-8204175D02*
X-6940817Y-7882781D01*
%TD*%
M02*
