%TF.GenerationSoftware,KiCad,Pcbnew,9.0.7*%
%TF.CreationDate,2026-03-08T09:15:12+01:00*%
%TF.ProjectId,halo-90,68616c6f-2d39-4302-9e6b-696361645f70,0V8*%
%TF.SameCoordinates,Original*%
%TF.FileFunction,AssemblyDrawing,Top*%
%FSLAX46Y46*%
G04 Gerber Fmt 4.6, Leading zero omitted, Abs format (unit mm)*
G04 Created by KiCad (PCBNEW 9.0.7) date 2026-03-08 09:15:12*
%MOMM*%
%LPD*%
G01*
G04 APERTURE LIST*
%ADD10C,0.150000*%
%ADD11C,0.075000*%
%ADD12C,0.120000*%
%ADD13C,0.100000*%
%ADD14C,0.059995*%
G04 APERTURE END LIST*
D10*
X9172405Y4070624D02*
X8821708Y4789660D01*
X8821708Y4789660D02*
X8992907Y4873159D01*
X8992907Y4873159D02*
X9112326Y4889019D01*
X9112326Y4889019D02*
X9214205Y4853939D01*
X9214205Y4853939D02*
X9281845Y4802159D01*
X9281845Y4802159D02*
X9382884Y4681900D01*
X9382884Y4681900D02*
X9432983Y4579181D01*
X9432983Y4579181D02*
X9465543Y4425522D01*
X9465543Y4425522D02*
X9464703Y4340342D01*
X9464703Y4340342D02*
X9429623Y4238463D01*
X9429623Y4238463D02*
X9343604Y4154124D01*
X9343604Y4154124D02*
X9172405Y4070624D01*
X9472264Y5106957D02*
X9917381Y5324055D01*
X9917381Y5324055D02*
X9811301Y4933238D01*
X9811301Y4933238D02*
X9914020Y4983337D01*
X9914020Y4983337D02*
X9999200Y4982497D01*
X9999200Y4982497D02*
X10050139Y4964957D01*
X10050139Y4964957D02*
X10117779Y4913178D01*
X10117779Y4913178D02*
X10201278Y4741979D01*
X10201278Y4741979D02*
X10200438Y4656799D01*
X10200438Y4656799D02*
X10182898Y4605860D01*
X10182898Y4605860D02*
X10131118Y4538220D01*
X10131118Y4538220D02*
X9925680Y4438021D01*
X9925680Y4438021D02*
X9840500Y4438861D01*
X9840500Y4438861D02*
X9789561Y4456401D01*
X10362498Y5541153D02*
X10430977Y5574553D01*
X10430977Y5574553D02*
X10516157Y5573713D01*
X10516157Y5573713D02*
X10567097Y5556173D01*
X10567097Y5556173D02*
X10634736Y5504393D01*
X10634736Y5504393D02*
X10735775Y5384134D01*
X10735775Y5384134D02*
X10819274Y5212935D01*
X10819274Y5212935D02*
X10851834Y5059276D01*
X10851834Y5059276D02*
X10850994Y4974097D01*
X10850994Y4974097D02*
X10833454Y4923157D01*
X10833454Y4923157D02*
X10781674Y4855518D01*
X10781674Y4855518D02*
X10713195Y4822118D01*
X10713195Y4822118D02*
X10628015Y4822958D01*
X10628015Y4822958D02*
X10577076Y4840498D01*
X10577076Y4840498D02*
X10509436Y4892278D01*
X10509436Y4892278D02*
X10408397Y5012537D01*
X10408397Y5012537D02*
X10324898Y5183736D01*
X10324898Y5183736D02*
X10292338Y5337395D01*
X10292338Y5337395D02*
X10293178Y5422574D01*
X10293178Y5422574D02*
X10310718Y5473514D01*
X10310718Y5473514D02*
X10362498Y5541153D01*
X-11867937Y-1611652D02*
X-11951559Y-816034D01*
X-11951559Y-816034D02*
X-11762127Y-796124D01*
X-11762127Y-796124D02*
X-11644485Y-822065D01*
X-11644485Y-822065D02*
X-11560748Y-889874D01*
X-11560748Y-889874D02*
X-11514897Y-961665D01*
X-11514897Y-961665D02*
X-11461082Y-1109229D01*
X-11461082Y-1109229D02*
X-11449136Y-1222889D01*
X-11449136Y-1222889D02*
X-11471095Y-1378417D01*
X-11471095Y-1378417D02*
X-11501017Y-1458172D01*
X-11501017Y-1458172D02*
X-11568826Y-1541909D01*
X-11568826Y-1541909D02*
X-11678504Y-1591742D01*
X-11678504Y-1591742D02*
X-11867937Y-1611652D01*
X-11231715Y-740376D02*
X-10701303Y-684627D01*
X-10701303Y-684627D02*
X-10958659Y-1516083D01*
X-10246664Y-636843D02*
X-10170891Y-628879D01*
X-10170891Y-628879D02*
X-10091136Y-658801D01*
X-10091136Y-658801D02*
X-10049268Y-692706D01*
X-10049268Y-692706D02*
X-10003417Y-764497D01*
X-10003417Y-764497D02*
X-9949602Y-912061D01*
X-9949602Y-912061D02*
X-9929692Y-1101494D01*
X-9929692Y-1101494D02*
X-9951650Y-1257022D01*
X-9951650Y-1257022D02*
X-9981573Y-1336777D01*
X-9981573Y-1336777D02*
X-10015477Y-1378646D01*
X-10015477Y-1378646D02*
X-10087269Y-1424496D01*
X-10087269Y-1424496D02*
X-10163042Y-1432460D01*
X-10163042Y-1432460D02*
X-10242797Y-1402538D01*
X-10242797Y-1402538D02*
X-10284665Y-1368633D01*
X-10284665Y-1368633D02*
X-10330516Y-1296842D01*
X-10330516Y-1296842D02*
X-10384331Y-1149278D01*
X-10384331Y-1149278D02*
X-10404241Y-959845D01*
X-10404241Y-959845D02*
X-10382282Y-804317D01*
X-10382282Y-804317D02*
X-10352360Y-724562D01*
X-10352360Y-724562D02*
X-10318455Y-682693D01*
X-10318455Y-682693D02*
X-10246664Y-636843D01*
X-2843349Y11634475D02*
X-2060831Y11800804D01*
X-2060831Y11800804D02*
X-2021229Y11614490D01*
X-2021229Y11614490D02*
X-2034730Y11494782D01*
X-2034730Y11494782D02*
X-2093415Y11404415D01*
X-2093415Y11404415D02*
X-2160020Y11351312D01*
X-2160020Y11351312D02*
X-2301151Y11282367D01*
X-2301151Y11282367D02*
X-2412939Y11258606D01*
X-2412939Y11258606D02*
X-2569910Y11264187D01*
X-2569910Y11264187D02*
X-2652356Y11285609D01*
X-2652356Y11285609D02*
X-2742723Y11344293D01*
X-2742723Y11344293D02*
X-2803747Y11448161D01*
X-2803747Y11448161D02*
X-2843349Y11634475D01*
X-2084057Y10627478D02*
X-2605736Y10516592D01*
X-1825557Y10877155D02*
X-2424101Y10944663D01*
X-2424101Y10944663D02*
X-2321135Y10460247D01*
X-2510690Y10069438D02*
X-2479009Y9920387D01*
X-2479009Y9920387D02*
X-2425905Y9853782D01*
X-2425905Y9853782D02*
X-2380722Y9824440D01*
X-2380722Y9824440D02*
X-2253093Y9773676D01*
X-2253093Y9773676D02*
X-2096121Y9768095D01*
X-2096121Y9768095D02*
X-1798019Y9831458D01*
X-1798019Y9831458D02*
X-1731414Y9884562D01*
X-1731414Y9884562D02*
X-1702071Y9929745D01*
X-1702071Y9929745D02*
X-1680650Y10012191D01*
X-1680650Y10012191D02*
X-1712331Y10161242D01*
X-1712331Y10161242D02*
X-1765435Y10227847D01*
X-1765435Y10227847D02*
X-1810618Y10257190D01*
X-1810618Y10257190D02*
X-1893064Y10278612D01*
X-1893064Y10278612D02*
X-2079378Y10239009D01*
X-2079378Y10239009D02*
X-2145983Y10185906D01*
X-2145983Y10185906D02*
X-2175325Y10140722D01*
X-2175325Y10140722D02*
X-2196747Y10058276D01*
X-2196747Y10058276D02*
X-2165066Y9909225D01*
X-2165066Y9909225D02*
X-2111962Y9842620D01*
X-2111962Y9842620D02*
X-2066779Y9813278D01*
X-2066779Y9813278D02*
X-1984333Y9791856D01*
X6705775Y-7465584D02*
X7281247Y-6909857D01*
X7281247Y-6909857D02*
X7413563Y-7046874D01*
X7413563Y-7046874D02*
X7465549Y-7155547D01*
X7465549Y-7155547D02*
X7463668Y-7263281D01*
X7463668Y-7263281D02*
X7435325Y-7343610D01*
X7435325Y-7343610D02*
X7352174Y-7476866D01*
X7352174Y-7476866D02*
X7269964Y-7556256D01*
X7269964Y-7556256D02*
X7133887Y-7634705D01*
X7133887Y-7634705D02*
X7052617Y-7660228D01*
X7052617Y-7660228D02*
X6944884Y-7658348D01*
X6944884Y-7658348D02*
X6838091Y-7602601D01*
X6838091Y-7602601D02*
X6705775Y-7465584D01*
X7552597Y-8342493D02*
X7235038Y-8013652D01*
X7393818Y-8178072D02*
X7969289Y-7622346D01*
X7969289Y-7622346D02*
X7834153Y-7646928D01*
X7834153Y-7646928D02*
X7726420Y-7645048D01*
X7726420Y-7645048D02*
X7646090Y-7616704D01*
X8284967Y-8058920D02*
X8338834Y-8059860D01*
X8338834Y-8059860D02*
X8419164Y-8088204D01*
X8419164Y-8088204D02*
X8551479Y-8225221D01*
X8551479Y-8225221D02*
X8577002Y-8306491D01*
X8577002Y-8306491D02*
X8576062Y-8360358D01*
X8576062Y-8360358D02*
X8547718Y-8440688D01*
X8547718Y-8440688D02*
X8492912Y-8493614D01*
X8492912Y-8493614D02*
X8384238Y-8545600D01*
X8384238Y-8545600D02*
X7737839Y-8534317D01*
X7737839Y-8534317D02*
X8081860Y-8890562D01*
X-10186434Y-6299471D02*
X-10586434Y-5606650D01*
X-10586434Y-5606650D02*
X-10421477Y-5511412D01*
X-10421477Y-5511412D02*
X-10303455Y-5487261D01*
X-10303455Y-5487261D02*
X-10199377Y-5515149D01*
X-10199377Y-5515149D02*
X-10128290Y-5562084D01*
X-10128290Y-5562084D02*
X-10019108Y-5675002D01*
X-10019108Y-5675002D02*
X-9961965Y-5773976D01*
X-9961965Y-5773976D02*
X-9918766Y-5924990D01*
X-9918766Y-5924990D02*
X-9913662Y-6010020D01*
X-9913662Y-6010020D02*
X-9941550Y-6114098D01*
X-9941550Y-6114098D02*
X-10021477Y-6204233D01*
X-10021477Y-6204233D02*
X-10186434Y-6299471D01*
X-9959596Y-5244746D02*
X-9497716Y-4978079D01*
X-9497716Y-4978079D02*
X-9394639Y-5842328D01*
X-8936862Y-4654269D02*
X-9068827Y-4730460D01*
X-9068827Y-4730460D02*
X-9115763Y-4801547D01*
X-9115763Y-4801547D02*
X-9129706Y-4853586D01*
X-9129706Y-4853586D02*
X-9138546Y-4990655D01*
X-9138546Y-4990655D02*
X-9095347Y-5141669D01*
X-9095347Y-5141669D02*
X-8942966Y-5405600D01*
X-8942966Y-5405600D02*
X-8871880Y-5452535D01*
X-8871880Y-5452535D02*
X-8819841Y-5466479D01*
X-8819841Y-5466479D02*
X-8734810Y-5461375D01*
X-8734810Y-5461375D02*
X-8602844Y-5385185D01*
X-8602844Y-5385185D02*
X-8555909Y-5314098D01*
X-8555909Y-5314098D02*
X-8541965Y-5262059D01*
X-8541965Y-5262059D02*
X-8547069Y-5177029D01*
X-8547069Y-5177029D02*
X-8642307Y-5012071D01*
X-8642307Y-5012071D02*
X-8713394Y-4965136D01*
X-8713394Y-4965136D02*
X-8765433Y-4951192D01*
X-8765433Y-4951192D02*
X-8850463Y-4956296D01*
X-8850463Y-4956296D02*
X-8982429Y-5032487D01*
X-8982429Y-5032487D02*
X-9029364Y-5103573D01*
X-9029364Y-5103573D02*
X-9043308Y-5155612D01*
X-9043308Y-5155612D02*
X-9038205Y-5240643D01*
X2439406Y9734073D02*
X1656888Y9900403D01*
X1656888Y9900403D02*
X1696490Y10086717D01*
X1696490Y10086717D02*
X1757515Y10190584D01*
X1757515Y10190584D02*
X1847881Y10249269D01*
X1847881Y10249269D02*
X1930327Y10270691D01*
X1930327Y10270691D02*
X2087298Y10276272D01*
X2087298Y10276272D02*
X2199087Y10252511D01*
X2199087Y10252511D02*
X2340217Y10183566D01*
X2340217Y10183566D02*
X2406822Y10130462D01*
X2406822Y10130462D02*
X2465507Y10040096D01*
X2465507Y10040096D02*
X2479009Y9920387D01*
X2479009Y9920387D02*
X2439406Y9734073D01*
X2155341Y10962843D02*
X2677020Y10851956D01*
X1817637Y10839892D02*
X2336976Y10534772D01*
X2336976Y10534772D02*
X2439942Y11019188D01*
X1965786Y11353651D02*
X2068751Y11838067D01*
X2068751Y11838067D02*
X2311410Y11513864D01*
X2311410Y11513864D02*
X2335172Y11625652D01*
X2335172Y11625652D02*
X2388275Y11692257D01*
X2388275Y11692257D02*
X2433459Y11721600D01*
X2433459Y11721600D02*
X2515905Y11743021D01*
X2515905Y11743021D02*
X2702218Y11703419D01*
X2702218Y11703419D02*
X2768824Y11650316D01*
X2768824Y11650316D02*
X2798166Y11605132D01*
X2798166Y11605132D02*
X2819588Y11522686D01*
X2819588Y11522686D02*
X2772065Y11299110D01*
X2772065Y11299110D02*
X2718961Y11232505D01*
X2718961Y11232505D02*
X2673778Y11203162D01*
X9813317Y-2098204D02*
X9952236Y-1310358D01*
X9952236Y-1310358D02*
X10139818Y-1343433D01*
X10139818Y-1343433D02*
X10245752Y-1400795D01*
X10245752Y-1400795D02*
X10307555Y-1489059D01*
X10307555Y-1489059D02*
X10331841Y-1570707D01*
X10331841Y-1570707D02*
X10342897Y-1727388D01*
X10342897Y-1727388D02*
X10323051Y-1839937D01*
X10323051Y-1839937D02*
X10259074Y-1983388D01*
X10259074Y-1983388D02*
X10208327Y-2051806D01*
X10208327Y-2051806D02*
X10120064Y-2113609D01*
X10120064Y-2113609D02*
X10000899Y-2131280D01*
X10000899Y-2131280D02*
X9813317Y-2098204D01*
X10689335Y-1517694D02*
X10733467Y-1486793D01*
X10733467Y-1486793D02*
X10815115Y-1462506D01*
X10815115Y-1462506D02*
X11002697Y-1495582D01*
X11002697Y-1495582D02*
X11071115Y-1546329D01*
X11071115Y-1546329D02*
X11102016Y-1590461D01*
X11102016Y-1590461D02*
X11126302Y-1672109D01*
X11126302Y-1672109D02*
X11113072Y-1747142D01*
X11113072Y-1747142D02*
X11055710Y-1853076D01*
X11055710Y-1853076D02*
X10526130Y-2223892D01*
X10526130Y-2223892D02*
X11013845Y-2309889D01*
X11764174Y-2442193D02*
X11313977Y-2362811D01*
X11539076Y-2402502D02*
X11677994Y-1614655D01*
X11677994Y-1614655D02*
X11583116Y-1713975D01*
X11583116Y-1713975D02*
X11494852Y-1775777D01*
X11494852Y-1775777D02*
X11413204Y-1800063D01*
X-11943677Y891031D02*
X-11860054Y1686648D01*
X-11860054Y1686648D02*
X-11670621Y1666738D01*
X-11670621Y1666738D02*
X-11560944Y1616906D01*
X-11560944Y1616906D02*
X-11493135Y1533168D01*
X-11493135Y1533168D02*
X-11463212Y1453413D01*
X-11463212Y1453413D02*
X-11441254Y1297885D01*
X-11441254Y1297885D02*
X-11453200Y1184225D01*
X-11453200Y1184225D02*
X-11507015Y1036661D01*
X-11507015Y1036661D02*
X-11552865Y964870D01*
X-11552865Y964870D02*
X-11636602Y897061D01*
X-11636602Y897061D02*
X-11754244Y871121D01*
X-11754244Y871121D02*
X-11943677Y891031D01*
X-10723458Y1567187D02*
X-10875004Y1583115D01*
X-10875004Y1583115D02*
X-10954759Y1553193D01*
X-10954759Y1553193D02*
X-10996628Y1519288D01*
X-10996628Y1519288D02*
X-11084347Y1413593D01*
X-11084347Y1413593D02*
X-11138161Y1266029D01*
X-11138161Y1266029D02*
X-11170018Y962936D01*
X-11170018Y962936D02*
X-11140095Y883181D01*
X-11140095Y883181D02*
X-11106191Y841313D01*
X-11106191Y841313D02*
X-11034400Y795462D01*
X-11034400Y795462D02*
X-10882854Y779534D01*
X-10882854Y779534D02*
X-10803098Y809456D01*
X-10803098Y809456D02*
X-10761230Y843361D01*
X-10761230Y843361D02*
X-10715379Y915152D01*
X-10715379Y915152D02*
X-10695469Y1104585D01*
X-10695469Y1104585D02*
X-10725391Y1184340D01*
X-10725391Y1184340D02*
X-10759296Y1226208D01*
X-10759296Y1226208D02*
X-10831087Y1272059D01*
X-10831087Y1272059D02*
X-10982633Y1287987D01*
X-10982633Y1287987D02*
X-11062388Y1258065D01*
X-11062388Y1258065D02*
X-11104257Y1224160D01*
X-11104257Y1224160D02*
X-11150108Y1152369D01*
X-10382478Y1531349D02*
X-9852067Y1475600D01*
X-9852067Y1475600D02*
X-10276669Y715821D01*
X-1196476Y11916990D02*
X-398424Y11972795D01*
X-398424Y11972795D02*
X-385137Y11782782D01*
X-385137Y11782782D02*
X-415168Y11666118D01*
X-415168Y11666118D02*
X-485858Y11584798D01*
X-485858Y11584798D02*
X-559205Y11541481D01*
X-559205Y11541481D02*
X-708558Y11492849D01*
X-708558Y11492849D02*
X-822565Y11484877D01*
X-822565Y11484877D02*
X-977232Y11512250D01*
X-977232Y11512250D02*
X-1055894Y11544937D01*
X-1055894Y11544937D02*
X-1137214Y11615627D01*
X-1137214Y11615627D02*
X-1183189Y11726977D01*
X-1183189Y11726977D02*
X-1196476Y11916990D01*
X-584720Y10814120D02*
X-1116754Y10776916D01*
X-293987Y11025391D02*
X-877311Y11175542D01*
X-877311Y11175542D02*
X-842765Y10681511D01*
X-294786Y10490699D02*
X-257583Y9958665D01*
X-257583Y9958665D02*
X-1079550Y10244882D01*
X-6036635Y-10344305D02*
X-6715073Y-9920370D01*
X-6715073Y-9920370D02*
X-6614136Y-9758837D01*
X-6614136Y-9758837D02*
X-6521267Y-9682104D01*
X-6521267Y-9682104D02*
X-6416279Y-9657866D01*
X-6416279Y-9657866D02*
X-6331479Y-9665934D01*
X-6331479Y-9665934D02*
X-6182065Y-9714377D01*
X-6182065Y-9714377D02*
X-6085145Y-9774939D01*
X-6085145Y-9774939D02*
X-5976106Y-9887996D01*
X-5976106Y-9887996D02*
X-5931680Y-9960677D01*
X-5931680Y-9960677D02*
X-5907442Y-10065665D01*
X-5907442Y-10065665D02*
X-5935698Y-10182772D01*
X-5935698Y-10182772D02*
X-6036635Y-10344305D01*
X-5939816Y-9326698D02*
X-6012497Y-9371124D01*
X-6012497Y-9371124D02*
X-6064991Y-9383243D01*
X-6064991Y-9383243D02*
X-6149792Y-9375175D01*
X-6149792Y-9375175D02*
X-6182099Y-9354987D01*
X-6182099Y-9354987D02*
X-6226524Y-9282306D01*
X-6226524Y-9282306D02*
X-6238644Y-9229812D01*
X-6238644Y-9229812D02*
X-6230575Y-9145011D01*
X-6230575Y-9145011D02*
X-6149826Y-9015785D01*
X-6149826Y-9015785D02*
X-6077144Y-8971359D01*
X-6077144Y-8971359D02*
X-6024650Y-8959240D01*
X-6024650Y-8959240D02*
X-5939850Y-8967308D01*
X-5939850Y-8967308D02*
X-5907543Y-8987496D01*
X-5907543Y-8987496D02*
X-5863117Y-9060177D01*
X-5863117Y-9060177D02*
X-5850998Y-9112671D01*
X-5850998Y-9112671D02*
X-5859066Y-9197472D01*
X-5859066Y-9197472D02*
X-5939816Y-9326698D01*
X-5939816Y-9326698D02*
X-5947884Y-9411499D01*
X-5947884Y-9411499D02*
X-5935765Y-9463993D01*
X-5935765Y-9463993D02*
X-5891339Y-9536674D01*
X-5891339Y-9536674D02*
X-5762113Y-9617424D01*
X-5762113Y-9617424D02*
X-5677312Y-9625492D01*
X-5677312Y-9625492D02*
X-5624818Y-9613373D01*
X-5624818Y-9613373D02*
X-5552137Y-9568947D01*
X-5552137Y-9568947D02*
X-5471387Y-9439720D01*
X-5471387Y-9439720D02*
X-5463319Y-9354920D01*
X-5463319Y-9354920D02*
X-5475438Y-9302426D01*
X-5475438Y-9302426D02*
X-5519864Y-9229744D01*
X-5519864Y-9229744D02*
X-5649090Y-9148995D01*
X-5649090Y-9148995D02*
X-5733891Y-9140927D01*
X-5733891Y-9140927D02*
X-5786385Y-9153046D01*
X-5786385Y-9153046D02*
X-5859066Y-9197472D01*
X-5927764Y-8660412D02*
X-5665328Y-8240427D01*
X-5665328Y-8240427D02*
X-5548187Y-8628072D01*
X-5548187Y-8628072D02*
X-5487625Y-8531152D01*
X-5487625Y-8531152D02*
X-5414944Y-8486726D01*
X-5414944Y-8486726D02*
X-5362450Y-8474607D01*
X-5362450Y-8474607D02*
X-5277649Y-8482675D01*
X-5277649Y-8482675D02*
X-5116116Y-8583612D01*
X-5116116Y-8583612D02*
X-5071690Y-8656294D01*
X-5071690Y-8656294D02*
X-5059571Y-8708788D01*
X-5059571Y-8708788D02*
X-5067639Y-8793588D01*
X-5067639Y-8793588D02*
X-5188764Y-8987428D01*
X-5188764Y-8987428D02*
X-5261445Y-9031854D01*
X-5261445Y-9031854D02*
X-5313939Y-9043973D01*
X-473650Y-11967534D02*
X-1271701Y-11911729D01*
X-1271701Y-11911729D02*
X-1258415Y-11721717D01*
X-1258415Y-11721717D02*
X-1212440Y-11610367D01*
X-1212440Y-11610367D02*
X-1131120Y-11539677D01*
X-1131120Y-11539677D02*
X-1052458Y-11506989D01*
X-1052458Y-11506989D02*
X-897791Y-11479616D01*
X-897791Y-11479616D02*
X-783784Y-11487589D01*
X-783784Y-11487589D02*
X-634431Y-11536221D01*
X-634431Y-11536221D02*
X-561084Y-11579538D01*
X-561084Y-11579538D02*
X-490394Y-11660857D01*
X-490394Y-11660857D02*
X-460363Y-11777522D01*
X-460363Y-11777522D02*
X-473650Y-11967534D01*
X-415188Y-11131481D02*
X-404558Y-10979471D01*
X-404558Y-10979471D02*
X-437246Y-10900809D01*
X-437246Y-10900809D02*
X-472591Y-10860149D01*
X-472591Y-10860149D02*
X-581283Y-10776172D01*
X-581283Y-10776172D02*
X-730636Y-10727540D01*
X-730636Y-10727540D02*
X-1034655Y-10706281D01*
X-1034655Y-10706281D02*
X-1113318Y-10738968D01*
X-1113318Y-10738968D02*
X-1153977Y-10774313D01*
X-1153977Y-10774313D02*
X-1197295Y-10847661D01*
X-1197295Y-10847661D02*
X-1207924Y-10999671D01*
X-1207924Y-10999671D02*
X-1175236Y-11078333D01*
X-1175236Y-11078333D02*
X-1139891Y-11118993D01*
X-1139891Y-11118993D02*
X-1066544Y-11162310D01*
X-1066544Y-11162310D02*
X-876532Y-11175597D01*
X-876532Y-11175597D02*
X-797869Y-11142909D01*
X-797869Y-11142909D02*
X-757210Y-11107564D01*
X-757210Y-11107564D02*
X-713892Y-11034217D01*
X-713892Y-11034217D02*
X-703263Y-10882207D01*
X-703263Y-10882207D02*
X-735951Y-10803545D01*
X-735951Y-10803545D02*
X-771296Y-10762885D01*
X-771296Y-10762885D02*
X-844643Y-10719568D01*
X-1152119Y-10201619D02*
X-1146804Y-10125614D01*
X-1146804Y-10125614D02*
X-1103487Y-10052267D01*
X-1103487Y-10052267D02*
X-1062827Y-10016922D01*
X-1062827Y-10016922D02*
X-984165Y-9984234D01*
X-984165Y-9984234D02*
X-829498Y-9956861D01*
X-829498Y-9956861D02*
X-639485Y-9970148D01*
X-639485Y-9970148D02*
X-490133Y-10018780D01*
X-490133Y-10018780D02*
X-416786Y-10062097D01*
X-416786Y-10062097D02*
X-381441Y-10102757D01*
X-381441Y-10102757D02*
X-348753Y-10181419D01*
X-348753Y-10181419D02*
X-354068Y-10257424D01*
X-354068Y-10257424D02*
X-397385Y-10330772D01*
X-397385Y-10330772D02*
X-438045Y-10366117D01*
X-438045Y-10366117D02*
X-516707Y-10398805D01*
X-516707Y-10398805D02*
X-671374Y-10426177D01*
X-671374Y-10426177D02*
X-861386Y-10412890D01*
X-861386Y-10412890D02*
X-1010739Y-10364258D01*
X-1010739Y-10364258D02*
X-1084086Y-10320941D01*
X-1084086Y-10320941D02*
X-1119431Y-10280281D01*
X-1119431Y-10280281D02*
X-1152119Y-10201619D01*
X4809523Y1562295D02*
X4809523Y2209914D01*
X4809523Y2209914D02*
X4771428Y2286104D01*
X4771428Y2286104D02*
X4733333Y2324200D01*
X4733333Y2324200D02*
X4657142Y2362295D01*
X4657142Y2362295D02*
X4504761Y2362295D01*
X4504761Y2362295D02*
X4428571Y2324200D01*
X4428571Y2324200D02*
X4390476Y2286104D01*
X4390476Y2286104D02*
X4352380Y2209914D01*
X4352380Y2209914D02*
X4352380Y1562295D01*
X4047619Y1562295D02*
X3552381Y1562295D01*
X3552381Y1562295D02*
X3819047Y1867057D01*
X3819047Y1867057D02*
X3704762Y1867057D01*
X3704762Y1867057D02*
X3628571Y1905152D01*
X3628571Y1905152D02*
X3590476Y1943247D01*
X3590476Y1943247D02*
X3552381Y2019438D01*
X3552381Y2019438D02*
X3552381Y2209914D01*
X3552381Y2209914D02*
X3590476Y2286104D01*
X3590476Y2286104D02*
X3628571Y2324200D01*
X3628571Y2324200D02*
X3704762Y2362295D01*
X3704762Y2362295D02*
X3933333Y2362295D01*
X3933333Y2362295D02*
X4009524Y2324200D01*
X4009524Y2324200D02*
X4047619Y2286104D01*
X8866165Y4700528D02*
X8466165Y5393349D01*
X8466165Y5393349D02*
X8631122Y5488587D01*
X8631122Y5488587D02*
X8749144Y5512738D01*
X8749144Y5512738D02*
X8853222Y5484850D01*
X8853222Y5484850D02*
X8924309Y5437915D01*
X8924309Y5437915D02*
X9033491Y5324997D01*
X9033491Y5324997D02*
X9090634Y5226023D01*
X9090634Y5226023D02*
X9133833Y5075009D01*
X9133833Y5075009D02*
X9138937Y4989979D01*
X9138937Y4989979D02*
X9111049Y4885901D01*
X9111049Y4885901D02*
X9031122Y4795766D01*
X9031122Y4795766D02*
X8866165Y4700528D01*
X9093003Y5755253D02*
X9521891Y6002872D01*
X9521891Y6002872D02*
X9443332Y5605607D01*
X9443332Y5605607D02*
X9542306Y5662750D01*
X9542306Y5662750D02*
X9627337Y5667854D01*
X9627337Y5667854D02*
X9679376Y5653910D01*
X9679376Y5653910D02*
X9750463Y5606975D01*
X9750463Y5606975D02*
X9845701Y5442018D01*
X9845701Y5442018D02*
X9850805Y5356987D01*
X9850805Y5356987D02*
X9836861Y5304948D01*
X9836861Y5304948D02*
X9789926Y5233862D01*
X9789926Y5233862D02*
X9591977Y5119576D01*
X9591977Y5119576D02*
X9506946Y5114472D01*
X9506946Y5114472D02*
X9454907Y5128416D01*
X10581720Y5691005D02*
X10185823Y5462433D01*
X10383772Y5576719D02*
X9983772Y6269539D01*
X9983772Y6269539D02*
X9974932Y6132470D01*
X9974932Y6132470D02*
X9947044Y6028391D01*
X9947044Y6028391D02*
X9900109Y5957305D01*
X-3648022Y11407835D02*
X-2879013Y11628345D01*
X-2879013Y11628345D02*
X-2826510Y11445247D01*
X-2826510Y11445247D02*
X-2831628Y11324888D01*
X-2831628Y11324888D02*
X-2883867Y11230648D01*
X-2883867Y11230648D02*
X-2946605Y11173028D01*
X-2946605Y11173028D02*
X-3082583Y11094406D01*
X-3082583Y11094406D02*
X-3192441Y11062905D01*
X-3192441Y11062905D02*
X-3349419Y11057523D01*
X-3349419Y11057523D02*
X-3433159Y11073141D01*
X-3433159Y11073141D02*
X-3527399Y11125379D01*
X-3527399Y11125379D02*
X-3595520Y11224737D01*
X-3595520Y11224737D02*
X-3648022Y11407835D01*
X-2553498Y10493140D02*
X-2658503Y10859335D01*
X-2658503Y10859335D02*
X-3035198Y10790950D01*
X-3035198Y10790950D02*
X-2988078Y10764831D01*
X-2988078Y10764831D02*
X-2930458Y10702092D01*
X-2930458Y10702092D02*
X-2877956Y10518995D01*
X-2877956Y10518995D02*
X-2893574Y10435256D01*
X-2893574Y10435256D02*
X-2919693Y10388136D01*
X-2919693Y10388136D02*
X-2982432Y10330515D01*
X-2982432Y10330515D02*
X-3165529Y10278013D01*
X-3165529Y10278013D02*
X-3249269Y10293631D01*
X-3249269Y10293631D02*
X-3296388Y10319750D01*
X-3296388Y10319750D02*
X-3354009Y10382489D01*
X-3354009Y10382489D02*
X-3406511Y10565586D01*
X-3406511Y10565586D02*
X-3390893Y10649326D01*
X-3390893Y10649326D02*
X-3364774Y10696446D01*
X-2406491Y9980467D02*
X-2385491Y9907228D01*
X-2385491Y9907228D02*
X-2401109Y9823489D01*
X-2401109Y9823489D02*
X-2427228Y9776369D01*
X-2427228Y9776369D02*
X-2489967Y9718748D01*
X-2489967Y9718748D02*
X-2625944Y9640127D01*
X-2625944Y9640127D02*
X-2809042Y9587625D01*
X-2809042Y9587625D02*
X-2966020Y9582242D01*
X-2966020Y9582242D02*
X-3049760Y9597861D01*
X-3049760Y9597861D02*
X-3096879Y9623980D01*
X-3096879Y9623980D02*
X-3154500Y9686718D01*
X-3154500Y9686718D02*
X-3175501Y9759957D01*
X-3175501Y9759957D02*
X-3159882Y9843697D01*
X-3159882Y9843697D02*
X-3133763Y9890817D01*
X-3133763Y9890817D02*
X-3071025Y9948437D01*
X-3071025Y9948437D02*
X-2935047Y10027059D01*
X-2935047Y10027059D02*
X-2751950Y10079561D01*
X-2751950Y10079561D02*
X-2594971Y10084943D01*
X-2594971Y10084943D02*
X-2511232Y10069325D01*
X-2511232Y10069325D02*
X-2464112Y10043206D01*
X-2464112Y10043206D02*
X-2406491Y9980467D01*
X-4434894Y11125532D02*
X-3683140Y11399148D01*
X-3683140Y11399148D02*
X-3617993Y11220159D01*
X-3617993Y11220159D02*
X-3614703Y11099736D01*
X-3614703Y11099736D02*
X-3660240Y11002082D01*
X-3660240Y11002082D02*
X-3718806Y10940225D01*
X-3718806Y10940225D02*
X-3848968Y10852310D01*
X-3848968Y10852310D02*
X-3956361Y10813222D01*
X-3956361Y10813222D02*
X-4112582Y10796902D01*
X-4112582Y10796902D02*
X-4197207Y10806642D01*
X-4197207Y10806642D02*
X-4294861Y10852179D01*
X-4294861Y10852179D02*
X-4369747Y10946543D01*
X-4369747Y10946543D02*
X-4434894Y11125532D01*
X-3279230Y10289416D02*
X-3409524Y10647394D01*
X-3409524Y10647394D02*
X-3780531Y10552898D01*
X-3780531Y10552898D02*
X-3731704Y10530130D01*
X-3731704Y10530130D02*
X-3669848Y10471563D01*
X-3669848Y10471563D02*
X-3604701Y10292574D01*
X-3604701Y10292574D02*
X-3614440Y10207949D01*
X-3614440Y10207949D02*
X-3637208Y10159122D01*
X-3637208Y10159122D02*
X-3695775Y10097266D01*
X-3695775Y10097266D02*
X-3874764Y10032119D01*
X-3874764Y10032119D02*
X-3959389Y10041858D01*
X-3959389Y10041858D02*
X-4008216Y10064627D01*
X-4008216Y10064627D02*
X-4070072Y10123193D01*
X-4070072Y10123193D02*
X-4135219Y10302182D01*
X-4135219Y10302182D02*
X-4125480Y10386807D01*
X-4125480Y10386807D02*
X-4102711Y10435634D01*
X-3757368Y9264045D02*
X-3913720Y9693619D01*
X-3835544Y9478832D02*
X-3083790Y9752448D01*
X-3083790Y9752448D02*
X-3217242Y9784956D01*
X-3217242Y9784956D02*
X-3314897Y9830493D01*
X-3314897Y9830493D02*
X-3376753Y9889059D01*
X8516641Y5307527D02*
X8069287Y5970757D01*
X8069287Y5970757D02*
X8227199Y6077270D01*
X8227199Y6077270D02*
X8343249Y6109595D01*
X8343249Y6109595D02*
X8449019Y6089036D01*
X8449019Y6089036D02*
X8523206Y6047174D01*
X8523206Y6047174D02*
X8639999Y5942147D01*
X8639999Y5942147D02*
X8703907Y5847400D01*
X8703907Y5847400D02*
X8757535Y5699767D01*
X8757535Y5699767D02*
X8768558Y5615300D01*
X8768558Y5615300D02*
X8747998Y5509530D01*
X8747998Y5509530D02*
X8674553Y5414040D01*
X8674553Y5414040D02*
X8516641Y5307527D01*
X8669352Y6375506D02*
X9079923Y6652440D01*
X9079923Y6652440D02*
X9029267Y6250663D01*
X9029267Y6250663D02*
X9124015Y6314570D01*
X9124015Y6314570D02*
X9208482Y6325593D01*
X9208482Y6325593D02*
X9261367Y6315313D01*
X9261367Y6315313D02*
X9335554Y6273451D01*
X9335554Y6273451D02*
X9442067Y6115539D01*
X9442067Y6115539D02*
X9453090Y6031072D01*
X9453090Y6031072D02*
X9442810Y5978187D01*
X9442810Y5978187D02*
X9400948Y5903999D01*
X9400948Y5903999D02*
X9211454Y5776184D01*
X9211454Y5776184D02*
X9126987Y5765161D01*
X9126987Y5765161D02*
X9074102Y5775441D01*
X9375188Y6759696D02*
X9385468Y6812581D01*
X9385468Y6812581D02*
X9427330Y6886768D01*
X9427330Y6886768D02*
X9585242Y6993281D01*
X9585242Y6993281D02*
X9669709Y7004304D01*
X9669709Y7004304D02*
X9722594Y6994024D01*
X9722594Y6994024D02*
X9796782Y6952162D01*
X9796782Y6952162D02*
X9839387Y6888997D01*
X9839387Y6888997D02*
X9871712Y6772948D01*
X9871712Y6772948D02*
X9748355Y6138328D01*
X9748355Y6138328D02*
X10158926Y6415262D01*
X4409957Y9014196D02*
X3679121Y9339586D01*
X3679121Y9339586D02*
X3756594Y9513594D01*
X3756594Y9513594D02*
X3837880Y9602505D01*
X3837880Y9602505D02*
X3938473Y9641119D01*
X3938473Y9641119D02*
X4023571Y9644931D01*
X4023571Y9644931D02*
X4178273Y9617754D01*
X4178273Y9617754D02*
X4282678Y9571270D01*
X4282678Y9571270D02*
X4406390Y9474489D01*
X4406390Y9474489D02*
X4460499Y9408698D01*
X4460499Y9408698D02*
X4499113Y9308105D01*
X4499113Y9308105D02*
X4487431Y9188205D01*
X4487431Y9188205D02*
X4409957Y9014196D01*
X4387575Y10275175D02*
X4874799Y10058248D01*
X4031687Y10225124D02*
X4476239Y9818694D01*
X4476239Y9818694D02*
X4677671Y10271117D01*
X4376384Y10905664D02*
X4407373Y10975267D01*
X4407373Y10975267D02*
X4473164Y11029376D01*
X4473164Y11029376D02*
X4523461Y11048683D01*
X4523461Y11048683D02*
X4608559Y11052495D01*
X4608559Y11052495D02*
X4763260Y11025318D01*
X4763260Y11025318D02*
X4937269Y10947844D01*
X4937269Y10947844D02*
X5060981Y10851064D01*
X5060981Y10851064D02*
X5115090Y10785273D01*
X5115090Y10785273D02*
X5134397Y10734976D01*
X5134397Y10734976D02*
X5138209Y10649878D01*
X5138209Y10649878D02*
X5107220Y10580275D01*
X5107220Y10580275D02*
X5041429Y10526166D01*
X5041429Y10526166D02*
X4991132Y10506859D01*
X4991132Y10506859D02*
X4906034Y10503047D01*
X4906034Y10503047D02*
X4751332Y10530224D01*
X4751332Y10530224D02*
X4577324Y10607697D01*
X4577324Y10607697D02*
X4453612Y10704478D01*
X4453612Y10704478D02*
X4399503Y10770269D01*
X4399503Y10770269D02*
X4380196Y10820566D01*
X4380196Y10820566D02*
X4376384Y10905664D01*
X9939141Y1384621D02*
X9800222Y2172468D01*
X9800222Y2172468D02*
X9987805Y2205544D01*
X9987805Y2205544D02*
X10106969Y2187873D01*
X10106969Y2187873D02*
X10195233Y2126070D01*
X10195233Y2126070D02*
X10245979Y2057652D01*
X10245979Y2057652D02*
X10309957Y1914201D01*
X10309957Y1914201D02*
X10329802Y1801652D01*
X10329802Y1801652D02*
X10318746Y1644971D01*
X10318746Y1644971D02*
X10294460Y1563323D01*
X10294460Y1563323D02*
X10232658Y1475059D01*
X10232658Y1475059D02*
X10126723Y1417697D01*
X10126723Y1417697D02*
X9939141Y1384621D01*
X10563782Y2229738D02*
X10594684Y2273870D01*
X10594684Y2273870D02*
X10663101Y2324617D01*
X10663101Y2324617D02*
X10850684Y2357692D01*
X10850684Y2357692D02*
X10932332Y2333406D01*
X10932332Y2333406D02*
X10976464Y2302505D01*
X10976464Y2302505D02*
X11027210Y2234087D01*
X11027210Y2234087D02*
X11040441Y2159054D01*
X11040441Y2159054D02*
X11022770Y2039890D01*
X11022770Y2039890D02*
X10651954Y1510310D01*
X10651954Y1510310D02*
X11139668Y1596307D01*
X11676047Y2503226D02*
X11525981Y2476766D01*
X11525981Y2476766D02*
X11457563Y2426019D01*
X11457563Y2426019D02*
X11426662Y2381887D01*
X11426662Y2381887D02*
X11371474Y2256107D01*
X11371474Y2256107D02*
X11360418Y2099426D01*
X11360418Y2099426D02*
X11413340Y1799294D01*
X11413340Y1799294D02*
X11464087Y1730876D01*
X11464087Y1730876D02*
X11508218Y1699975D01*
X11508218Y1699975D02*
X11589866Y1675689D01*
X11589866Y1675689D02*
X11739932Y1702150D01*
X11739932Y1702150D02*
X11808350Y1752896D01*
X11808350Y1752896D02*
X11839251Y1797028D01*
X11839251Y1797028D02*
X11863538Y1878676D01*
X11863538Y1878676D02*
X11830462Y2066259D01*
X11830462Y2066259D02*
X11779715Y2134676D01*
X11779715Y2134676D02*
X11735583Y2165578D01*
X11735583Y2165578D02*
X11653935Y2189864D01*
X11653935Y2189864D02*
X11503869Y2163403D01*
X11503869Y2163403D02*
X11435451Y2112656D01*
X11435451Y2112656D02*
X11404550Y2068525D01*
X11404550Y2068525D02*
X11380264Y1986877D01*
X8125654Y5888736D02*
X7633125Y6519144D01*
X7633125Y6519144D02*
X7783222Y6636413D01*
X7783222Y6636413D02*
X7896735Y6676755D01*
X7896735Y6676755D02*
X8003681Y6663624D01*
X8003681Y6663624D02*
X8080608Y6627038D01*
X8080608Y6627038D02*
X8204443Y6530414D01*
X8204443Y6530414D02*
X8274804Y6440356D01*
X8274804Y6440356D02*
X8338600Y6296824D01*
X8338600Y6296824D02*
X8355488Y6213332D01*
X8355488Y6213332D02*
X8342356Y6106385D01*
X8342356Y6106385D02*
X8275752Y6006005D01*
X8275752Y6006005D02*
X8125654Y5888736D01*
X8203495Y6964766D02*
X8593748Y7269665D01*
X8593748Y7269665D02*
X8571242Y6865333D01*
X8571242Y6865333D02*
X8661300Y6935694D01*
X8661300Y6935694D02*
X8744793Y6952582D01*
X8744793Y6952582D02*
X8798266Y6946017D01*
X8798266Y6946017D02*
X8875193Y6909431D01*
X8875193Y6909431D02*
X8992462Y6759334D01*
X8992462Y6759334D02*
X9009350Y6675841D01*
X9009350Y6675841D02*
X9002784Y6622368D01*
X9002784Y6622368D02*
X8966199Y6545441D01*
X8966199Y6545441D02*
X8786082Y6404719D01*
X8786082Y6404719D02*
X8702590Y6387831D01*
X8702590Y6387831D02*
X8649117Y6394396D01*
X8803884Y7433841D02*
X9194137Y7738740D01*
X9194137Y7738740D02*
X9171631Y7334408D01*
X9171631Y7334408D02*
X9261689Y7404770D01*
X9261689Y7404770D02*
X9345182Y7421658D01*
X9345182Y7421658D02*
X9398655Y7415092D01*
X9398655Y7415092D02*
X9475582Y7378507D01*
X9475582Y7378507D02*
X9592851Y7228410D01*
X9592851Y7228410D02*
X9609739Y7144917D01*
X9609739Y7144917D02*
X9603174Y7091444D01*
X9603174Y7091444D02*
X9566589Y7014517D01*
X9566589Y7014517D02*
X9386472Y6873794D01*
X9386472Y6873794D02*
X9302979Y6856906D01*
X9302979Y6856906D02*
X9249506Y6863472D01*
X6723811Y7449463D02*
X6110976Y7963693D01*
X6110976Y7963693D02*
X6233412Y8109606D01*
X6233412Y8109606D02*
X6336056Y8172667D01*
X6336056Y8172667D02*
X6443395Y8182058D01*
X6443395Y8182058D02*
X6526248Y8162266D01*
X6526248Y8162266D02*
X6667465Y8093500D01*
X6667465Y8093500D02*
X6755013Y8020039D01*
X6755013Y8020039D02*
X6847257Y7892908D01*
X6847257Y7892908D02*
X6881135Y7814751D01*
X6881135Y7814751D02*
X6890526Y7707411D01*
X6890526Y7707411D02*
X6846247Y7595376D01*
X6846247Y7595376D02*
X6723811Y7449463D01*
X6576232Y8518163D02*
X6894565Y8897538D01*
X6894565Y8897538D02*
X6956616Y8497362D01*
X6956616Y8497362D02*
X7030077Y8584910D01*
X7030077Y8584910D02*
X7108234Y8618788D01*
X7108234Y8618788D02*
X7161904Y8623484D01*
X7161904Y8623484D02*
X7244756Y8603692D01*
X7244756Y8603692D02*
X7390669Y8481256D01*
X7390669Y8481256D02*
X7424548Y8403099D01*
X7424548Y8403099D02*
X7429243Y8349429D01*
X7429243Y8349429D02*
X7409451Y8266577D01*
X7409451Y8266577D02*
X7262529Y8091481D01*
X7262529Y8091481D02*
X7184372Y8057603D01*
X7184372Y8057603D02*
X7130702Y8052908D01*
X7335333Y9422826D02*
X7237385Y9306095D01*
X7237385Y9306095D02*
X7217593Y9223242D01*
X7217593Y9223242D02*
X7222289Y9169573D01*
X7222289Y9169573D02*
X7260862Y9037746D01*
X7260862Y9037746D02*
X7353106Y8910615D01*
X7353106Y8910615D02*
X7586567Y8714718D01*
X7586567Y8714718D02*
X7669419Y8694926D01*
X7669419Y8694926D02*
X7723089Y8699621D01*
X7723089Y8699621D02*
X7801246Y8733500D01*
X7801246Y8733500D02*
X7899195Y8850230D01*
X7899195Y8850230D02*
X7918986Y8933083D01*
X7918986Y8933083D02*
X7914291Y8986752D01*
X7914291Y8986752D02*
X7880413Y9064909D01*
X7880413Y9064909D02*
X7734499Y9187345D01*
X7734499Y9187345D02*
X7651647Y9207137D01*
X7651647Y9207137D02*
X7597977Y9202441D01*
X7597977Y9202441D02*
X7519820Y9168563D01*
X7519820Y9168563D02*
X7421872Y9051832D01*
X7421872Y9051832D02*
X7402080Y8968980D01*
X7402080Y8968980D02*
X7406775Y8915310D01*
X7406775Y8915310D02*
X7440654Y8837153D01*
X7695110Y6441149D02*
X7159806Y7035665D01*
X7159806Y7035665D02*
X7301357Y7163118D01*
X7301357Y7163118D02*
X7411778Y7211280D01*
X7411778Y7211280D02*
X7519380Y7205641D01*
X7519380Y7205641D02*
X7598672Y7174511D01*
X7598672Y7174511D02*
X7728945Y7086761D01*
X7728945Y7086761D02*
X7805417Y7001830D01*
X7805417Y7001830D02*
X7879070Y6863098D01*
X7879070Y6863098D02*
X7901741Y6780987D01*
X7901741Y6780987D02*
X7896102Y6673385D01*
X7896102Y6673385D02*
X7836661Y6568602D01*
X7836661Y6568602D02*
X7695110Y6441149D01*
X7697701Y7519988D02*
X8065734Y7851367D01*
X8065734Y7851367D02*
X8071488Y7446450D01*
X8071488Y7446450D02*
X8156419Y7522922D01*
X8156419Y7522922D02*
X8238530Y7545593D01*
X8238530Y7545593D02*
X8292331Y7542773D01*
X8292331Y7542773D02*
X8371623Y7511644D01*
X8371623Y7511644D02*
X8499076Y7370092D01*
X8499076Y7370092D02*
X8521747Y7287981D01*
X8521747Y7287981D02*
X8518928Y7234180D01*
X8518928Y7234180D02*
X8487798Y7154888D01*
X8487798Y7154888D02*
X8317936Y7001944D01*
X8317936Y7001944D02*
X8235825Y6979273D01*
X8235825Y6979273D02*
X8182024Y6982093D01*
X8753755Y8112027D02*
X9110624Y7715684D01*
X8408278Y8211056D02*
X8649087Y7658949D01*
X8649087Y7658949D02*
X9017120Y7990328D01*
X9643079Y-2777623D02*
X9836617Y-2001387D01*
X9836617Y-2001387D02*
X10021435Y-2047467D01*
X10021435Y-2047467D02*
X10123110Y-2112079D01*
X10123110Y-2112079D02*
X10178605Y-2204438D01*
X10178605Y-2204438D02*
X10197136Y-2287582D01*
X10197136Y-2287582D02*
X10197236Y-2444652D01*
X10197236Y-2444652D02*
X10169588Y-2555543D01*
X10169588Y-2555543D02*
X10095760Y-2694182D01*
X10095760Y-2694182D02*
X10040364Y-2758893D01*
X10040364Y-2758893D02*
X9948004Y-2814388D01*
X9948004Y-2814388D02*
X9827897Y-2823703D01*
X9827897Y-2823703D02*
X9643079Y-2777623D01*
X10557457Y-2259635D02*
X10603637Y-2231888D01*
X10603637Y-2231888D02*
X10686781Y-2213356D01*
X10686781Y-2213356D02*
X10871599Y-2259437D01*
X10871599Y-2259437D02*
X10936310Y-2314832D01*
X10936310Y-2314832D02*
X10964058Y-2361012D01*
X10964058Y-2361012D02*
X10982589Y-2444155D01*
X10982589Y-2444155D02*
X10964157Y-2518083D01*
X10964157Y-2518083D02*
X10899545Y-2619758D01*
X10899545Y-2619758D02*
X10345388Y-2952728D01*
X10345388Y-2952728D02*
X10825916Y-3072537D01*
X11499981Y-2416110D02*
X11573908Y-2434542D01*
X11573908Y-2434542D02*
X11638619Y-2489938D01*
X11638619Y-2489938D02*
X11666367Y-2536118D01*
X11666367Y-2536118D02*
X11684899Y-2619261D01*
X11684899Y-2619261D02*
X11684998Y-2776332D01*
X11684998Y-2776332D02*
X11638918Y-2961150D01*
X11638918Y-2961150D02*
X11565090Y-3099788D01*
X11565090Y-3099788D02*
X11509694Y-3164499D01*
X11509694Y-3164499D02*
X11463514Y-3192247D01*
X11463514Y-3192247D02*
X11380371Y-3210779D01*
X11380371Y-3210779D02*
X11306443Y-3192346D01*
X11306443Y-3192346D02*
X11241732Y-3136951D01*
X11241732Y-3136951D02*
X11213985Y-3090771D01*
X11213985Y-3090771D02*
X11195453Y-3007628D01*
X11195453Y-3007628D02*
X11195354Y-2850557D01*
X11195354Y-2850557D02*
X11241434Y-2665739D01*
X11241434Y-2665739D02*
X11315262Y-2527100D01*
X11315262Y-2527100D02*
X11370658Y-2462389D01*
X11370658Y-2462389D02*
X11416838Y-2434641D01*
X11416838Y-2434641D02*
X11499981Y-2416110D01*
X-2951501Y-11607559D02*
X-3720510Y-11387049D01*
X-3720510Y-11387049D02*
X-3668008Y-11203952D01*
X-3668008Y-11203952D02*
X-3599887Y-11104594D01*
X-3599887Y-11104594D02*
X-3505647Y-11052356D01*
X-3505647Y-11052356D02*
X-3421908Y-11036737D01*
X-3421908Y-11036737D02*
X-3264929Y-11042119D01*
X-3264929Y-11042119D02*
X-3155071Y-11073621D01*
X-3155071Y-11073621D02*
X-3019093Y-11152242D01*
X-3019093Y-11152242D02*
X-2956355Y-11209863D01*
X-2956355Y-11209863D02*
X-2904117Y-11304102D01*
X-2904117Y-11304102D02*
X-2898999Y-11424461D01*
X-2898999Y-11424461D02*
X-2951501Y-11607559D01*
X-3138924Y-10602685D02*
X-3196544Y-10665424D01*
X-3196544Y-10665424D02*
X-3243664Y-10691543D01*
X-3243664Y-10691543D02*
X-3327404Y-10707162D01*
X-3327404Y-10707162D02*
X-3364023Y-10696661D01*
X-3364023Y-10696661D02*
X-3426762Y-10639041D01*
X-3426762Y-10639041D02*
X-3452881Y-10591921D01*
X-3452881Y-10591921D02*
X-3468499Y-10508181D01*
X-3468499Y-10508181D02*
X-3426497Y-10361703D01*
X-3426497Y-10361703D02*
X-3368877Y-10298965D01*
X-3368877Y-10298965D02*
X-3321757Y-10272846D01*
X-3321757Y-10272846D02*
X-3238017Y-10257227D01*
X-3238017Y-10257227D02*
X-3201398Y-10267728D01*
X-3201398Y-10267728D02*
X-3138659Y-10325348D01*
X-3138659Y-10325348D02*
X-3112540Y-10372468D01*
X-3112540Y-10372468D02*
X-3096922Y-10456207D01*
X-3096922Y-10456207D02*
X-3138924Y-10602685D01*
X-3138924Y-10602685D02*
X-3123305Y-10686425D01*
X-3123305Y-10686425D02*
X-3097186Y-10733545D01*
X-3097186Y-10733545D02*
X-3034448Y-10791165D01*
X-3034448Y-10791165D02*
X-2887970Y-10833167D01*
X-2887970Y-10833167D02*
X-2804230Y-10817549D01*
X-2804230Y-10817549D02*
X-2757110Y-10791430D01*
X-2757110Y-10791430D02*
X-2699490Y-10728691D01*
X-2699490Y-10728691D02*
X-2657488Y-10582213D01*
X-2657488Y-10582213D02*
X-2673106Y-10498474D01*
X-2673106Y-10498474D02*
X-2699225Y-10451354D01*
X-2699225Y-10451354D02*
X-2761964Y-10393733D01*
X-2761964Y-10393733D02*
X-2908442Y-10351731D01*
X-2908442Y-10351731D02*
X-2992181Y-10367350D01*
X-2992181Y-10367350D02*
X-3039301Y-10393469D01*
X-3039301Y-10393469D02*
X-3096922Y-10456207D01*
X-3310992Y-9958889D02*
X-3163985Y-9446216D01*
X-3163985Y-9446216D02*
X-2489480Y-9996301D01*
X-10918634Y4922317D02*
X-10567937Y5641352D01*
X-10567937Y5641352D02*
X-10396738Y5557853D01*
X-10396738Y5557853D02*
X-10310718Y5473514D01*
X-10310718Y5473514D02*
X-10275639Y5371634D01*
X-10275639Y5371634D02*
X-10274799Y5286455D01*
X-10274799Y5286455D02*
X-10307358Y5132796D01*
X-10307358Y5132796D02*
X-10357458Y5030077D01*
X-10357458Y5030077D02*
X-10458497Y4909818D01*
X-10458497Y4909818D02*
X-10526136Y4858038D01*
X-10526136Y4858038D02*
X-10628016Y4822958D01*
X-10628016Y4822958D02*
X-10747435Y4838818D01*
X-10747435Y4838818D02*
X-10918634Y4922317D01*
X-9540744Y5140357D02*
X-9677703Y5207156D01*
X-9677703Y5207156D02*
X-9762882Y5206316D01*
X-9762882Y5206316D02*
X-9813822Y5188776D01*
X-9813822Y5188776D02*
X-9932401Y5119457D01*
X-9932401Y5119457D02*
X-10033440Y4999197D01*
X-10033440Y4999197D02*
X-10167039Y4725279D01*
X-10167039Y4725279D02*
X-10166199Y4640100D01*
X-10166199Y4640100D02*
X-10148659Y4589160D01*
X-10148659Y4589160D02*
X-10096879Y4521521D01*
X-10096879Y4521521D02*
X-9959920Y4454721D01*
X-9959920Y4454721D02*
X-9874741Y4455561D01*
X-9874741Y4455561D02*
X-9823801Y4473101D01*
X-9823801Y4473101D02*
X-9756162Y4524881D01*
X-9756162Y4524881D02*
X-9672662Y4696080D01*
X-9672662Y4696080D02*
X-9673502Y4781259D01*
X-9673502Y4781259D02*
X-9691042Y4832199D01*
X-9691042Y4832199D02*
X-9742822Y4899838D01*
X-9742822Y4899838D02*
X-9879781Y4966638D01*
X-9879781Y4966638D02*
X-9964960Y4965798D01*
X-9964960Y4965798D02*
X-10015900Y4948258D01*
X-10015900Y4948258D02*
X-10083540Y4896478D01*
X-9231745Y4904879D02*
X-9180806Y4922418D01*
X-9180806Y4922418D02*
X-9095626Y4923259D01*
X-9095626Y4923259D02*
X-8924427Y4839759D01*
X-8924427Y4839759D02*
X-8872648Y4772120D01*
X-8872648Y4772120D02*
X-8855108Y4721180D01*
X-8855108Y4721180D02*
X-8854268Y4636001D01*
X-8854268Y4636001D02*
X-8887667Y4567521D01*
X-8887667Y4567521D02*
X-8972007Y4481502D01*
X-8972007Y4481502D02*
X-9583282Y4271023D01*
X-9583282Y4271023D02*
X-9138165Y4053925D01*
X-1307327Y-11905296D02*
X-2099541Y-11793958D01*
X-2099541Y-11793958D02*
X-2073032Y-11605335D01*
X-2073032Y-11605335D02*
X-2019402Y-11497464D01*
X-2019402Y-11497464D02*
X-1933349Y-11432618D01*
X-1933349Y-11432618D02*
X-1852599Y-11405497D01*
X-1852599Y-11405497D02*
X-1696399Y-11388980D01*
X-1696399Y-11388980D02*
X-1583225Y-11404886D01*
X-1583225Y-11404886D02*
X-1437629Y-11463818D01*
X-1437629Y-11463818D02*
X-1367482Y-11512146D01*
X-1367482Y-11512146D02*
X-1302637Y-11598198D01*
X-1302637Y-11598198D02*
X-1280818Y-11716674D01*
X-1280818Y-11716674D02*
X-1307327Y-11905296D01*
X-1632777Y-10936286D02*
X-1681105Y-11006433D01*
X-1681105Y-11006433D02*
X-1724131Y-11038856D01*
X-1724131Y-11038856D02*
X-1804882Y-11065977D01*
X-1804882Y-11065977D02*
X-1842607Y-11060675D01*
X-1842607Y-11060675D02*
X-1912754Y-11012347D01*
X-1912754Y-11012347D02*
X-1945176Y-10969321D01*
X-1945176Y-10969321D02*
X-1972297Y-10888570D01*
X-1972297Y-10888570D02*
X-1951090Y-10737672D01*
X-1951090Y-10737672D02*
X-1902762Y-10667525D01*
X-1902762Y-10667525D02*
X-1859736Y-10635102D01*
X-1859736Y-10635102D02*
X-1778985Y-10607981D01*
X-1778985Y-10607981D02*
X-1741260Y-10613283D01*
X-1741260Y-10613283D02*
X-1671113Y-10661611D01*
X-1671113Y-10661611D02*
X-1638690Y-10704637D01*
X-1638690Y-10704637D02*
X-1611570Y-10785388D01*
X-1611570Y-10785388D02*
X-1632777Y-10936286D01*
X-1632777Y-10936286D02*
X-1605656Y-11017037D01*
X-1605656Y-11017037D02*
X-1573233Y-11060063D01*
X-1573233Y-11060063D02*
X-1503086Y-11108392D01*
X-1503086Y-11108392D02*
X-1352188Y-11129599D01*
X-1352188Y-11129599D02*
X-1271437Y-11102478D01*
X-1271437Y-11102478D02*
X-1228411Y-11070055D01*
X-1228411Y-11070055D02*
X-1180083Y-10999908D01*
X-1180083Y-10999908D02*
X-1158876Y-10849010D01*
X-1158876Y-10849010D02*
X-1185996Y-10768259D01*
X-1185996Y-10768259D02*
X-1218419Y-10725233D01*
X-1218419Y-10725233D02*
X-1288566Y-10676905D01*
X-1288566Y-10676905D02*
X-1439464Y-10655698D01*
X-1439464Y-10655698D02*
X-1520215Y-10682818D01*
X-1520215Y-10682818D02*
X-1563241Y-10715241D01*
X-1563241Y-10715241D02*
X-1611570Y-10785388D01*
X-1084650Y-10320867D02*
X-1063443Y-10169969D01*
X-1063443Y-10169969D02*
X-1090563Y-10089218D01*
X-1090563Y-10089218D02*
X-1122986Y-10046192D01*
X-1122986Y-10046192D02*
X-1225556Y-9954837D01*
X-1225556Y-9954837D02*
X-1371152Y-9895906D01*
X-1371152Y-9895906D02*
X-1672948Y-9853491D01*
X-1672948Y-9853491D02*
X-1753699Y-9880612D01*
X-1753699Y-9880612D02*
X-1796725Y-9913034D01*
X-1796725Y-9913034D02*
X-1845053Y-9983182D01*
X-1845053Y-9983182D02*
X-1866261Y-10134080D01*
X-1866261Y-10134080D02*
X-1839140Y-10214830D01*
X-1839140Y-10214830D02*
X-1806717Y-10257857D01*
X-1806717Y-10257857D02*
X-1736570Y-10306185D01*
X-1736570Y-10306185D02*
X-1547947Y-10332694D01*
X-1547947Y-10332694D02*
X-1467197Y-10305573D01*
X-1467197Y-10305573D02*
X-1424170Y-10273151D01*
X-1424170Y-10273151D02*
X-1375842Y-10203003D01*
X-1375842Y-10203003D02*
X-1354635Y-10052105D01*
X-1354635Y-10052105D02*
X-1381756Y-9971355D01*
X-1381756Y-9971355D02*
X-1414178Y-9928328D01*
X-1414178Y-9928328D02*
X-1484326Y-9880000D01*
X10011462Y687947D02*
X9927840Y1483565D01*
X9927840Y1483565D02*
X10117272Y1503475D01*
X10117272Y1503475D02*
X10234914Y1477534D01*
X10234914Y1477534D02*
X10318651Y1409725D01*
X10318651Y1409725D02*
X10364502Y1337934D01*
X10364502Y1337934D02*
X10418317Y1190370D01*
X10418317Y1190370D02*
X10430263Y1076710D01*
X10430263Y1076710D02*
X10408304Y921182D01*
X10408304Y921182D02*
X10378382Y841427D01*
X10378382Y841427D02*
X10310573Y757690D01*
X10310573Y757690D02*
X10200895Y707857D01*
X10200895Y707857D02*
X10011462Y687947D01*
X10693535Y1487432D02*
X10727439Y1529301D01*
X10727439Y1529301D02*
X10799230Y1575151D01*
X10799230Y1575151D02*
X10988663Y1595062D01*
X10988663Y1595062D02*
X11068418Y1565139D01*
X11068418Y1565139D02*
X11110287Y1531235D01*
X11110287Y1531235D02*
X11156137Y1459443D01*
X11156137Y1459443D02*
X11164101Y1383670D01*
X11164101Y1383670D02*
X11138161Y1266029D01*
X11138161Y1266029D02*
X10731307Y763606D01*
X10731307Y763606D02*
X11223832Y815372D01*
X11860054Y1686648D02*
X11481188Y1646828D01*
X11481188Y1646828D02*
X11483122Y1263981D01*
X11483122Y1263981D02*
X11517027Y1305849D01*
X11517027Y1305849D02*
X11588818Y1351700D01*
X11588818Y1351700D02*
X11778251Y1371610D01*
X11778251Y1371610D02*
X11858006Y1341687D01*
X11858006Y1341687D02*
X11899874Y1307783D01*
X11899874Y1307783D02*
X11945725Y1235992D01*
X11945725Y1235992D02*
X11965635Y1046559D01*
X11965635Y1046559D02*
X11935713Y966804D01*
X11935713Y966804D02*
X11901808Y924935D01*
X11901808Y924935D02*
X11830017Y879085D01*
X11830017Y879085D02*
X11640584Y859175D01*
X11640584Y859175D02*
X11560829Y889097D01*
X11560829Y889097D02*
X11518961Y923002D01*
X9649671Y2754448D02*
X9402458Y3515293D01*
X9402458Y3515293D02*
X9583611Y3574154D01*
X9583611Y3574154D02*
X9704075Y3573239D01*
X9704075Y3573239D02*
X9800081Y3524322D01*
X9800081Y3524322D02*
X9859856Y3463633D01*
X9859856Y3463633D02*
X9943175Y3330482D01*
X9943175Y3330482D02*
X9978491Y3221790D01*
X9978491Y3221790D02*
X9989349Y3065095D01*
X9989349Y3065095D02*
X9976662Y2980861D01*
X9976662Y2980861D02*
X9927745Y2884856D01*
X9927745Y2884856D02*
X9830825Y2813309D01*
X9830825Y2813309D02*
X9649671Y2754448D01*
X10150616Y3678274D02*
X10175075Y3726276D01*
X10175075Y3726276D02*
X10235764Y3786051D01*
X10235764Y3786051D02*
X10416918Y3844912D01*
X10416918Y3844912D02*
X10501151Y3832225D01*
X10501151Y3832225D02*
X10549154Y3807766D01*
X10549154Y3807766D02*
X10608929Y3747077D01*
X10608929Y3747077D02*
X10632473Y3674616D01*
X10632473Y3674616D02*
X10631559Y3554151D01*
X10631559Y3554151D02*
X10338055Y2978118D01*
X10338055Y2978118D02*
X10809054Y3131155D01*
X11102558Y3707188D02*
X11018325Y3719875D01*
X11018325Y3719875D02*
X10970322Y3744334D01*
X10970322Y3744334D02*
X10910547Y3805023D01*
X10910547Y3805023D02*
X10898775Y3841254D01*
X10898775Y3841254D02*
X10911462Y3925487D01*
X10911462Y3925487D02*
X10935920Y3973490D01*
X10935920Y3973490D02*
X10996610Y4033265D01*
X10996610Y4033265D02*
X11141533Y4080353D01*
X11141533Y4080353D02*
X11225766Y4067667D01*
X11225766Y4067667D02*
X11273769Y4043208D01*
X11273769Y4043208D02*
X11333544Y3982519D01*
X11333544Y3982519D02*
X11345316Y3946288D01*
X11345316Y3946288D02*
X11332629Y3862054D01*
X11332629Y3862054D02*
X11308171Y3814052D01*
X11308171Y3814052D02*
X11247481Y3754277D01*
X11247481Y3754277D02*
X11102558Y3707188D01*
X11102558Y3707188D02*
X11041869Y3647413D01*
X11041869Y3647413D02*
X11017410Y3599411D01*
X11017410Y3599411D02*
X11004724Y3515177D01*
X11004724Y3515177D02*
X11051812Y3370254D01*
X11051812Y3370254D02*
X11111587Y3309565D01*
X11111587Y3309565D02*
X11159590Y3285106D01*
X11159590Y3285106D02*
X11243823Y3272420D01*
X11243823Y3272420D02*
X11388746Y3319508D01*
X11388746Y3319508D02*
X11449436Y3379283D01*
X11449436Y3379283D02*
X11473894Y3427286D01*
X11473894Y3427286D02*
X11486581Y3511519D01*
X11486581Y3511519D02*
X11439492Y3656442D01*
X11439492Y3656442D02*
X11379718Y3717131D01*
X11379718Y3717131D02*
X11331715Y3741590D01*
X11331715Y3741590D02*
X11247481Y3754277D01*
X-11726658Y-2435578D02*
X-11865577Y-1647731D01*
X-11865577Y-1647731D02*
X-11677994Y-1614655D01*
X-11677994Y-1614655D02*
X-11558830Y-1632326D01*
X-11558830Y-1632326D02*
X-11470566Y-1694129D01*
X-11470566Y-1694129D02*
X-11419820Y-1762547D01*
X-11419820Y-1762547D02*
X-11355842Y-1905998D01*
X-11355842Y-1905998D02*
X-11335997Y-2018547D01*
X-11335997Y-2018547D02*
X-11347053Y-2175228D01*
X-11347053Y-2175228D02*
X-11371339Y-2256876D01*
X-11371339Y-2256876D02*
X-11433141Y-2345140D01*
X-11433141Y-2345140D02*
X-11539076Y-2402502D01*
X-11539076Y-2402502D02*
X-11726658Y-2435578D01*
X-11152764Y-1522043D02*
X-10627533Y-1429431D01*
X-10627533Y-1429431D02*
X-10826263Y-2276813D01*
X-9775801Y-2091589D02*
X-10225999Y-2170971D01*
X-10000900Y-2131280D02*
X-10139818Y-1343433D01*
X-10139818Y-1343433D02*
X-10195006Y-1469213D01*
X-10195006Y-1469213D02*
X-10256808Y-1557477D01*
X-10256808Y-1557477D02*
X-10325226Y-1608223D01*
X3112498Y9540240D02*
X2343489Y9760750D01*
X2343489Y9760750D02*
X2395991Y9943847D01*
X2395991Y9943847D02*
X2464112Y10043205D01*
X2464112Y10043205D02*
X2558352Y10095443D01*
X2558352Y10095443D02*
X2642091Y10111062D01*
X2642091Y10111062D02*
X2799070Y10105680D01*
X2799070Y10105680D02*
X2908928Y10074178D01*
X2908928Y10074178D02*
X3044906Y9995557D01*
X3044906Y9995557D02*
X3107644Y9937936D01*
X3107644Y9937936D02*
X3159882Y9843697D01*
X3159882Y9843697D02*
X3165000Y9723338D01*
X3165000Y9723338D02*
X3112498Y9540240D01*
X2914839Y10785831D02*
X3427512Y10638825D01*
X2569381Y10686738D02*
X3066171Y10346133D01*
X3066171Y10346133D02*
X3202677Y10822187D01*
X2836746Y11204529D02*
X2810627Y11251649D01*
X2810627Y11251649D02*
X2795009Y11335388D01*
X2795009Y11335388D02*
X2847511Y11518486D01*
X2847511Y11518486D02*
X2905132Y11581224D01*
X2905132Y11581224D02*
X2952252Y11607343D01*
X2952252Y11607343D02*
X3035991Y11622962D01*
X3035991Y11622962D02*
X3109230Y11601961D01*
X3109230Y11601961D02*
X3208588Y11533840D01*
X3208588Y11533840D02*
X3522016Y10968401D01*
X3522016Y10968401D02*
X3658523Y11444454D01*
X-9656647Y7084878D02*
X-9164118Y7715287D01*
X-9164118Y7715287D02*
X-9014021Y7598018D01*
X-9014021Y7598018D02*
X-8947416Y7497637D01*
X-8947416Y7497637D02*
X-8934285Y7390691D01*
X-8934285Y7390691D02*
X-8951173Y7307198D01*
X-8951173Y7307198D02*
X-9014968Y7163666D01*
X-9014968Y7163666D02*
X-9085330Y7073608D01*
X-9085330Y7073608D02*
X-9209164Y6976984D01*
X-9209164Y6976984D02*
X-9286091Y6940399D01*
X-9286091Y6940399D02*
X-9393038Y6927268D01*
X-9393038Y6927268D02*
X-9506550Y6967609D01*
X-9506550Y6967609D02*
X-9656647Y7084878D01*
X-8233515Y6988220D02*
X-8533709Y7222758D01*
X-8533709Y7222758D02*
X-8798266Y6946017D01*
X-8798266Y6946017D02*
X-8744793Y6952583D01*
X-8744793Y6952583D02*
X-8661301Y6935694D01*
X-8661301Y6935694D02*
X-8511203Y6818426D01*
X-8511203Y6818426D02*
X-8474618Y6741499D01*
X-8474618Y6741499D02*
X-8468052Y6688025D01*
X-8468052Y6688025D02*
X-8484941Y6604533D01*
X-8484941Y6604533D02*
X-8602209Y6454435D01*
X-8602209Y6454435D02*
X-8679136Y6417850D01*
X-8679136Y6417850D02*
X-8732610Y6411285D01*
X-8732610Y6411285D02*
X-8816102Y6428173D01*
X-8816102Y6428173D02*
X-8966200Y6545442D01*
X-8966200Y6545442D02*
X-9002785Y6622369D01*
X-9002785Y6622369D02*
X-9009350Y6675842D01*
X-8395830Y6099820D02*
X-8275752Y6006005D01*
X-8275752Y6006005D02*
X-8192259Y5989117D01*
X-8192259Y5989117D02*
X-8138786Y5995682D01*
X-8138786Y5995682D02*
X-8008386Y6038833D01*
X-8008386Y6038833D02*
X-7884551Y6135457D01*
X-7884551Y6135457D02*
X-7696921Y6375613D01*
X-7696921Y6375613D02*
X-7680033Y6459105D01*
X-7680033Y6459105D02*
X-7686599Y6512579D01*
X-7686599Y6512579D02*
X-7723184Y6589506D01*
X-7723184Y6589506D02*
X-7843262Y6683321D01*
X-7843262Y6683321D02*
X-7926754Y6700209D01*
X-7926754Y6700209D02*
X-7980227Y6693643D01*
X-7980227Y6693643D02*
X-8057154Y6657058D01*
X-8057154Y6657058D02*
X-8174423Y6506961D01*
X-8174423Y6506961D02*
X-8191311Y6423468D01*
X-8191311Y6423468D02*
X-8184746Y6369995D01*
X-8184746Y6369995D02*
X-8148161Y6293068D01*
X-8148161Y6293068D02*
X-8028083Y6199253D01*
X-8028083Y6199253D02*
X-7944590Y6182365D01*
X-7944590Y6182365D02*
X-7891117Y6188930D01*
X-7891117Y6188930D02*
X-7814190Y6225516D01*
X-4538242Y-11083803D02*
X-5269078Y-10758413D01*
X-5269078Y-10758413D02*
X-5191605Y-10584405D01*
X-5191605Y-10584405D02*
X-5110319Y-10495494D01*
X-5110319Y-10495494D02*
X-5009726Y-10456880D01*
X-5009726Y-10456880D02*
X-4924628Y-10453068D01*
X-4924628Y-10453068D02*
X-4769926Y-10480245D01*
X-4769926Y-10480245D02*
X-4665521Y-10526729D01*
X-4665521Y-10526729D02*
X-4541809Y-10623510D01*
X-4541809Y-10623510D02*
X-4487700Y-10689301D01*
X-4487700Y-10689301D02*
X-4449086Y-10789894D01*
X-4449086Y-10789894D02*
X-4460768Y-10909794D01*
X-4460768Y-10909794D02*
X-4538242Y-11083803D01*
X-4583989Y-10062624D02*
X-4649780Y-10116733D01*
X-4649780Y-10116733D02*
X-4700077Y-10136040D01*
X-4700077Y-10136040D02*
X-4785175Y-10139852D01*
X-4785175Y-10139852D02*
X-4819977Y-10124358D01*
X-4819977Y-10124358D02*
X-4874086Y-10058566D01*
X-4874086Y-10058566D02*
X-4893393Y-10008270D01*
X-4893393Y-10008270D02*
X-4897205Y-9923172D01*
X-4897205Y-9923172D02*
X-4835226Y-9783965D01*
X-4835226Y-9783965D02*
X-4769435Y-9729856D01*
X-4769435Y-9729856D02*
X-4719138Y-9710549D01*
X-4719138Y-9710549D02*
X-4634040Y-9706737D01*
X-4634040Y-9706737D02*
X-4599238Y-9722232D01*
X-4599238Y-9722232D02*
X-4545130Y-9788023D01*
X-4545130Y-9788023D02*
X-4525823Y-9838319D01*
X-4525823Y-9838319D02*
X-4522010Y-9923417D01*
X-4522010Y-9923417D02*
X-4583989Y-10062624D01*
X-4583989Y-10062624D02*
X-4580177Y-10147723D01*
X-4580177Y-10147723D02*
X-4560870Y-10198019D01*
X-4560870Y-10198019D02*
X-4506761Y-10263810D01*
X-4506761Y-10263810D02*
X-4367554Y-10325789D01*
X-4367554Y-10325789D02*
X-4282456Y-10321977D01*
X-4282456Y-10321977D02*
X-4232160Y-10302670D01*
X-4232160Y-10302670D02*
X-4166369Y-10248561D01*
X-4166369Y-10248561D02*
X-4104390Y-10109354D01*
X-4104390Y-10109354D02*
X-4108202Y-10024256D01*
X-4108202Y-10024256D02*
X-4127509Y-9973959D01*
X-4127509Y-9973959D02*
X-4181618Y-9908168D01*
X-4181618Y-9908168D02*
X-4320825Y-9846189D01*
X-4320825Y-9846189D02*
X-4405923Y-9850002D01*
X-4405923Y-9850002D02*
X-4456219Y-9869309D01*
X-4456219Y-9869309D02*
X-4522010Y-9923417D01*
X-4478847Y-8983525D02*
X-4633794Y-9331542D01*
X-4633794Y-9331542D02*
X-4301272Y-9521291D01*
X-4301272Y-9521291D02*
X-4320579Y-9470995D01*
X-4320579Y-9470995D02*
X-4324391Y-9385896D01*
X-4324391Y-9385896D02*
X-4246917Y-9211888D01*
X-4246917Y-9211888D02*
X-4181126Y-9157779D01*
X-4181126Y-9157779D02*
X-4130830Y-9138472D01*
X-4130830Y-9138472D02*
X-4045732Y-9134660D01*
X-4045732Y-9134660D02*
X-3871723Y-9212133D01*
X-3871723Y-9212133D02*
X-3817614Y-9277925D01*
X-3817614Y-9277925D02*
X-3798307Y-9328221D01*
X-3798307Y-9328221D02*
X-3794495Y-9413319D01*
X-3794495Y-9413319D02*
X-3871969Y-9587328D01*
X-3871969Y-9587328D02*
X-3937760Y-9641437D01*
X-3937760Y-9641437D02*
X-3988056Y-9660744D01*
X6168743Y-7915221D02*
X6781578Y-7400991D01*
X6781578Y-7400991D02*
X6904014Y-7546904D01*
X6904014Y-7546904D02*
X6948293Y-7658939D01*
X6948293Y-7658939D02*
X6938902Y-7766279D01*
X6938902Y-7766279D02*
X6905024Y-7844435D01*
X6905024Y-7844435D02*
X6812780Y-7971567D01*
X6812780Y-7971567D02*
X6725232Y-8045028D01*
X6725232Y-8045028D02*
X6584015Y-8113794D01*
X6584015Y-8113794D02*
X6501162Y-8133586D01*
X6501162Y-8133586D02*
X6393823Y-8124195D01*
X6393823Y-8124195D02*
X6291179Y-8061134D01*
X6291179Y-8061134D02*
X6168743Y-7915221D01*
X6952332Y-8849065D02*
X6658486Y-8498874D01*
X6805409Y-8673970D02*
X7418244Y-8159739D01*
X7418244Y-8159739D02*
X7281722Y-8174836D01*
X7281722Y-8174836D02*
X7174382Y-8165445D01*
X7174382Y-8165445D02*
X7096225Y-8131566D01*
X7442075Y-9432718D02*
X7148229Y-9082527D01*
X7295152Y-9257623D02*
X7907987Y-8743393D01*
X7907987Y-8743393D02*
X7771465Y-8758489D01*
X7771465Y-8758489D02*
X7664125Y-8749098D01*
X7664125Y-8749098D02*
X7585969Y-8715220D01*
X1754472Y9880503D02*
X962258Y9991841D01*
X962258Y9991841D02*
X988767Y10180464D01*
X988767Y10180464D02*
X1042397Y10288335D01*
X1042397Y10288335D02*
X1128450Y10353181D01*
X1128450Y10353181D02*
X1209200Y10380302D01*
X1209200Y10380302D02*
X1365400Y10396819D01*
X1365400Y10396819D02*
X1478574Y10380913D01*
X1478574Y10380913D02*
X1624170Y10321981D01*
X1624170Y10321981D02*
X1694317Y10273653D01*
X1694317Y10273653D02*
X1759162Y10187601D01*
X1759162Y10187601D02*
X1780981Y10069125D01*
X1780981Y10069125D02*
X1754472Y9880503D01*
X1385384Y11086463D02*
X1913527Y11012238D01*
X1057079Y10940256D02*
X1596437Y10672106D01*
X1596437Y10672106D02*
X1665361Y11162524D01*
X1491421Y11840954D02*
X2019564Y11766728D01*
X1163116Y11694746D02*
X1702474Y11426596D01*
X1702474Y11426596D02*
X1771398Y11917014D01*
X9162588Y-4092710D02*
X9462273Y-3350963D01*
X9462273Y-3350963D02*
X9638880Y-3422317D01*
X9638880Y-3422317D02*
X9730573Y-3500450D01*
X9730573Y-3500450D02*
X9772674Y-3599634D01*
X9772674Y-3599634D02*
X9779454Y-3684548D01*
X9779454Y-3684548D02*
X9757692Y-3840103D01*
X9757692Y-3840103D02*
X9714880Y-3946067D01*
X9714880Y-3946067D02*
X9622476Y-4073082D01*
X9622476Y-4073082D02*
X9558613Y-4129454D01*
X9558613Y-4129454D02*
X9459429Y-4171555D01*
X9459429Y-4171555D02*
X9339195Y-4164064D01*
X9339195Y-4164064D02*
X9162588Y-4092710D01*
X10292869Y-4549373D02*
X9869014Y-4378125D01*
X10080942Y-4463749D02*
X10380627Y-3722002D01*
X10380627Y-3722002D02*
X10267172Y-3799424D01*
X10267172Y-3799424D02*
X10167988Y-3841526D01*
X10167988Y-3841526D02*
X10083075Y-3848305D01*
X10887974Y-4296767D02*
X10831602Y-4232904D01*
X10831602Y-4232904D02*
X10810551Y-4183312D01*
X10810551Y-4183312D02*
X10803772Y-4098399D01*
X10803772Y-4098399D02*
X10818042Y-4063077D01*
X10818042Y-4063077D02*
X10881905Y-4006706D01*
X10881905Y-4006706D02*
X10931497Y-3985655D01*
X10931497Y-3985655D02*
X11016410Y-3978875D01*
X11016410Y-3978875D02*
X11157696Y-4035958D01*
X11157696Y-4035958D02*
X11214067Y-4099821D01*
X11214067Y-4099821D02*
X11235118Y-4149413D01*
X11235118Y-4149413D02*
X11241898Y-4234326D01*
X11241898Y-4234326D02*
X11227627Y-4269647D01*
X11227627Y-4269647D02*
X11163764Y-4326019D01*
X11163764Y-4326019D02*
X11114172Y-4347070D01*
X11114172Y-4347070D02*
X11029259Y-4353850D01*
X11029259Y-4353850D02*
X10887974Y-4296767D01*
X10887974Y-4296767D02*
X10803061Y-4303547D01*
X10803061Y-4303547D02*
X10753469Y-4324597D01*
X10753469Y-4324597D02*
X10689606Y-4380969D01*
X10689606Y-4380969D02*
X10632523Y-4522254D01*
X10632523Y-4522254D02*
X10639303Y-4607167D01*
X10639303Y-4607167D02*
X10660353Y-4656760D01*
X10660353Y-4656760D02*
X10716725Y-4720622D01*
X10716725Y-4720622D02*
X10858010Y-4777705D01*
X10858010Y-4777705D02*
X10942924Y-4770925D01*
X10942924Y-4770925D02*
X10992516Y-4749875D01*
X10992516Y-4749875D02*
X11056378Y-4693503D01*
X11056378Y-4693503D02*
X11113461Y-4552218D01*
X11113461Y-4552218D02*
X11106681Y-4467304D01*
X11106681Y-4467304D02*
X11085631Y-4417712D01*
X11085631Y-4417712D02*
X11029259Y-4353850D01*
X8503870Y-5328042D02*
X8903870Y-4635222D01*
X8903870Y-4635222D02*
X9068827Y-4730460D01*
X9068827Y-4730460D02*
X9148754Y-4820594D01*
X9148754Y-4820594D02*
X9176641Y-4924672D01*
X9176641Y-4924672D02*
X9171538Y-5009703D01*
X9171538Y-5009703D02*
X9128339Y-5160716D01*
X9128339Y-5160716D02*
X9071196Y-5259690D01*
X9071196Y-5259690D02*
X8962014Y-5372609D01*
X8962014Y-5372609D02*
X8890927Y-5419544D01*
X8890927Y-5419544D02*
X8786849Y-5447431D01*
X8786849Y-5447431D02*
X8668827Y-5423280D01*
X8668827Y-5423280D02*
X8503870Y-5328042D01*
X9559596Y-5937566D02*
X9163699Y-5708994D01*
X9361647Y-5823280D02*
X9761647Y-5130460D01*
X9761647Y-5130460D02*
X9638522Y-5191339D01*
X9638522Y-5191339D02*
X9534444Y-5219226D01*
X9534444Y-5219226D02*
X9449413Y-5214123D01*
X10553442Y-5587603D02*
X10421476Y-5511412D01*
X10421476Y-5511412D02*
X10336446Y-5506308D01*
X10336446Y-5506308D02*
X10284407Y-5520252D01*
X10284407Y-5520252D02*
X10161281Y-5581131D01*
X10161281Y-5581131D02*
X10052099Y-5694050D01*
X10052099Y-5694050D02*
X9899718Y-5957981D01*
X9899718Y-5957981D02*
X9894615Y-6043012D01*
X9894615Y-6043012D02*
X9908558Y-6095051D01*
X9908558Y-6095051D02*
X9955494Y-6166137D01*
X9955494Y-6166137D02*
X10087459Y-6242328D01*
X10087459Y-6242328D02*
X10172490Y-6247432D01*
X10172490Y-6247432D02*
X10224529Y-6233488D01*
X10224529Y-6233488D02*
X10295616Y-6186553D01*
X10295616Y-6186553D02*
X10390854Y-6021595D01*
X10390854Y-6021595D02*
X10395958Y-5936565D01*
X10395958Y-5936565D02*
X10382014Y-5884526D01*
X10382014Y-5884526D02*
X10335078Y-5813439D01*
X10335078Y-5813439D02*
X10203113Y-5737249D01*
X10203113Y-5737249D02*
X10118082Y-5732145D01*
X10118082Y-5732145D02*
X10066043Y-5746089D01*
X10066043Y-5746089D02*
X9994956Y-5793024D01*
X-7329694Y9472150D02*
X-6682480Y9942378D01*
X-6682480Y9942378D02*
X-6570521Y9788280D01*
X-6570521Y9788280D02*
X-6534166Y9673429D01*
X-6534166Y9673429D02*
X-6551021Y9567006D01*
X-6551021Y9567006D02*
X-6590269Y9491403D01*
X-6590269Y9491403D02*
X-6691156Y9371016D01*
X-6691156Y9371016D02*
X-6783615Y9303840D01*
X-6783615Y9303840D02*
X-6929286Y9245093D01*
X-6929286Y9245093D02*
X-7013317Y9231129D01*
X-7013317Y9231129D02*
X-7119740Y9247984D01*
X-7119740Y9247984D02*
X-7217735Y9318052D01*
X-7217735Y9318052D02*
X-7329694Y9472150D01*
X-5988334Y8986968D02*
X-6212252Y9295165D01*
X-6212252Y9295165D02*
X-6542841Y9102066D01*
X-6542841Y9102066D02*
X-6489629Y9093638D01*
X-6489629Y9093638D02*
X-6414026Y9054391D01*
X-6414026Y9054391D02*
X-6302067Y8900292D01*
X-6302067Y8900292D02*
X-6288103Y8816261D01*
X-6288103Y8816261D02*
X-6296531Y8763050D01*
X-6296531Y8763050D02*
X-6335779Y8687446D01*
X-6335779Y8687446D02*
X-6489877Y8575487D01*
X-6489877Y8575487D02*
X-6573908Y8561523D01*
X-6573908Y8561523D02*
X-6627120Y8569951D01*
X-6627120Y8569951D02*
X-6702723Y8609199D01*
X-6702723Y8609199D02*
X-6814682Y8763297D01*
X-6814682Y8763297D02*
X-6828646Y8847328D01*
X-6828646Y8847328D02*
X-6820218Y8900540D01*
X-5540498Y8370574D02*
X-5764416Y8678771D01*
X-5764416Y8678771D02*
X-6095004Y8485672D01*
X-6095004Y8485672D02*
X-6041793Y8477244D01*
X-6041793Y8477244D02*
X-5966190Y8437997D01*
X-5966190Y8437997D02*
X-5854231Y8283898D01*
X-5854231Y8283898D02*
X-5840267Y8199867D01*
X-5840267Y8199867D02*
X-5848694Y8146655D01*
X-5848694Y8146655D02*
X-5887942Y8071052D01*
X-5887942Y8071052D02*
X-6042041Y7959093D01*
X-6042041Y7959093D02*
X-6126072Y7945129D01*
X-6126072Y7945129D02*
X-6179283Y7953557D01*
X-6179283Y7953557D02*
X-6254887Y7992805D01*
X-6254887Y7992805D02*
X-6366846Y8146903D01*
X-6366846Y8146903D02*
X-6380810Y8230934D01*
X-6380810Y8230934D02*
X-6372382Y8284146D01*
X-5200188Y10789085D02*
X-4469352Y11114474D01*
X-4469352Y11114474D02*
X-4391878Y10940466D01*
X-4391878Y10940466D02*
X-4380196Y10820566D01*
X-4380196Y10820566D02*
X-4418810Y10719973D01*
X-4418810Y10719973D02*
X-4472919Y10654182D01*
X-4472919Y10654182D02*
X-4596631Y10557401D01*
X-4596631Y10557401D02*
X-4701036Y10510917D01*
X-4701036Y10510917D02*
X-4855738Y10483740D01*
X-4855738Y10483740D02*
X-4940836Y10487552D01*
X-4940836Y10487552D02*
X-5041429Y10526166D01*
X-5041429Y10526166D02*
X-5122715Y10615076D01*
X-5122715Y10615076D02*
X-5200188Y10789085D01*
X-3989015Y10035621D02*
X-4143963Y10383638D01*
X-4143963Y10383638D02*
X-4507475Y10263493D01*
X-4507475Y10263493D02*
X-4457178Y10244186D01*
X-4457178Y10244186D02*
X-4391387Y10190077D01*
X-4391387Y10190077D02*
X-4313913Y10016068D01*
X-4313913Y10016068D02*
X-4317726Y9930970D01*
X-4317726Y9930970D02*
X-4337033Y9880673D01*
X-4337033Y9880673D02*
X-4391141Y9814882D01*
X-4391141Y9814882D02*
X-4565150Y9737409D01*
X-4565150Y9737409D02*
X-4650248Y9741221D01*
X-4650248Y9741221D02*
X-4700545Y9760528D01*
X-4700545Y9760528D02*
X-4766336Y9814637D01*
X-4766336Y9814637D02*
X-4843810Y9988645D01*
X-4843810Y9988645D02*
X-4839997Y10073743D01*
X-4839997Y10073743D02*
X-4820690Y10124040D01*
X-3919166Y9691415D02*
X-3868870Y9672108D01*
X-3868870Y9672108D02*
X-3803079Y9618000D01*
X-3803079Y9618000D02*
X-3725605Y9443991D01*
X-3725605Y9443991D02*
X-3729417Y9358893D01*
X-3729417Y9358893D02*
X-3748724Y9308596D01*
X-3748724Y9308596D02*
X-3802833Y9242805D01*
X-3802833Y9242805D02*
X-3872436Y9211816D01*
X-3872436Y9211816D02*
X-3992336Y9200133D01*
X-3992336Y9200133D02*
X-4595894Y9431817D01*
X-4595894Y9431817D02*
X-4394462Y8979395D01*
X5601505Y-8326249D02*
X6248719Y-7856021D01*
X6248719Y-7856021D02*
X6360678Y-8010119D01*
X6360678Y-8010119D02*
X6397033Y-8124970D01*
X6397033Y-8124970D02*
X6380178Y-8231393D01*
X6380178Y-8231393D02*
X6340930Y-8306996D01*
X6340930Y-8306996D02*
X6240043Y-8427383D01*
X6240043Y-8427383D02*
X6147584Y-8494559D01*
X6147584Y-8494559D02*
X6001913Y-8553306D01*
X6001913Y-8553306D02*
X5917882Y-8567270D01*
X5917882Y-8567270D02*
X5811459Y-8550415D01*
X5811459Y-8550415D02*
X5713464Y-8480347D01*
X5713464Y-8480347D02*
X5601505Y-8326249D01*
X6318043Y-9312479D02*
X6049341Y-8942643D01*
X6183692Y-9127561D02*
X6830906Y-8657333D01*
X6830906Y-8657333D02*
X6693663Y-8662869D01*
X6693663Y-8662869D02*
X6587240Y-8646013D01*
X6587240Y-8646013D02*
X6511637Y-8606765D01*
X7256351Y-9242907D02*
X7301134Y-9304547D01*
X7301134Y-9304547D02*
X7315098Y-9388578D01*
X7315098Y-9388578D02*
X7306670Y-9441789D01*
X7306670Y-9441789D02*
X7267423Y-9517393D01*
X7267423Y-9517393D02*
X7166536Y-9637780D01*
X7166536Y-9637780D02*
X7012437Y-9749739D01*
X7012437Y-9749739D02*
X6866767Y-9808486D01*
X6866767Y-9808486D02*
X6782735Y-9822450D01*
X6782735Y-9822450D02*
X6729524Y-9814022D01*
X6729524Y-9814022D02*
X6653921Y-9774775D01*
X6653921Y-9774775D02*
X6609137Y-9713135D01*
X6609137Y-9713135D02*
X6595173Y-9629104D01*
X6595173Y-9629104D02*
X6603601Y-9575893D01*
X6603601Y-9575893D02*
X6642848Y-9500289D01*
X6642848Y-9500289D02*
X6743735Y-9379902D01*
X6743735Y-9379902D02*
X6897834Y-9267943D01*
X6897834Y-9267943D02*
X7043505Y-9209196D01*
X7043505Y-9209196D02*
X7127536Y-9195232D01*
X7127536Y-9195232D02*
X7180747Y-9203660D01*
X7180747Y-9203660D02*
X7256351Y-9242907D01*
X3446303Y-1962295D02*
X3179636Y-1581342D01*
X2989160Y-1962295D02*
X2989160Y-1162295D01*
X2989160Y-1162295D02*
X3293922Y-1162295D01*
X3293922Y-1162295D02*
X3370112Y-1200390D01*
X3370112Y-1200390D02*
X3408207Y-1238485D01*
X3408207Y-1238485D02*
X3446303Y-1314676D01*
X3446303Y-1314676D02*
X3446303Y-1428961D01*
X3446303Y-1428961D02*
X3408207Y-1505152D01*
X3408207Y-1505152D02*
X3370112Y-1543247D01*
X3370112Y-1543247D02*
X3293922Y-1581342D01*
X3293922Y-1581342D02*
X2989160Y-1581342D01*
X3751064Y-1238485D02*
X3789160Y-1200390D01*
X3789160Y-1200390D02*
X3865350Y-1162295D01*
X3865350Y-1162295D02*
X4055826Y-1162295D01*
X4055826Y-1162295D02*
X4132017Y-1200390D01*
X4132017Y-1200390D02*
X4170112Y-1238485D01*
X4170112Y-1238485D02*
X4208207Y-1314676D01*
X4208207Y-1314676D02*
X4208207Y-1390866D01*
X4208207Y-1390866D02*
X4170112Y-1505152D01*
X4170112Y-1505152D02*
X3712969Y-1962295D01*
X3712969Y-1962295D02*
X4208207Y-1962295D01*
X1466667Y-1862295D02*
X1200000Y-1481342D01*
X1009524Y-1862295D02*
X1009524Y-1062295D01*
X1009524Y-1062295D02*
X1314286Y-1062295D01*
X1314286Y-1062295D02*
X1390476Y-1100390D01*
X1390476Y-1100390D02*
X1428571Y-1138485D01*
X1428571Y-1138485D02*
X1466667Y-1214676D01*
X1466667Y-1214676D02*
X1466667Y-1328961D01*
X1466667Y-1328961D02*
X1428571Y-1405152D01*
X1428571Y-1405152D02*
X1390476Y-1443247D01*
X1390476Y-1443247D02*
X1314286Y-1481342D01*
X1314286Y-1481342D02*
X1009524Y-1481342D01*
X1771428Y-1138485D02*
X1809524Y-1100390D01*
X1809524Y-1100390D02*
X1885714Y-1062295D01*
X1885714Y-1062295D02*
X2076190Y-1062295D01*
X2076190Y-1062295D02*
X2152381Y-1100390D01*
X2152381Y-1100390D02*
X2190476Y-1138485D01*
X2190476Y-1138485D02*
X2228571Y-1214676D01*
X2228571Y-1214676D02*
X2228571Y-1290866D01*
X2228571Y-1290866D02*
X2190476Y-1405152D01*
X2190476Y-1405152D02*
X1733333Y-1862295D01*
X1733333Y-1862295D02*
X2228571Y-1862295D01*
X-9722158Y-6994672D02*
X-10169512Y-6331442D01*
X-10169512Y-6331442D02*
X-10011600Y-6224929D01*
X-10011600Y-6224929D02*
X-9895550Y-6192604D01*
X-9895550Y-6192604D02*
X-9789780Y-6213163D01*
X-9789780Y-6213163D02*
X-9715593Y-6255025D01*
X-9715593Y-6255025D02*
X-9598800Y-6360052D01*
X-9598800Y-6360052D02*
X-9534892Y-6454799D01*
X-9534892Y-6454799D02*
X-9481264Y-6602432D01*
X-9481264Y-6602432D02*
X-9470241Y-6686899D01*
X-9470241Y-6686899D02*
X-9490801Y-6792669D01*
X-9490801Y-6792669D02*
X-9564246Y-6888159D01*
X-9564246Y-6888159D02*
X-9722158Y-6994672D01*
X-9569447Y-5926693D02*
X-9127293Y-5628457D01*
X-9127293Y-5628457D02*
X-8964180Y-6483410D01*
X-8937799Y-5500641D02*
X-8495645Y-5202405D01*
X-8495645Y-5202405D02*
X-8332532Y-6057358D01*
X-9138935Y7741174D02*
X-8603630Y8335690D01*
X-8603630Y8335690D02*
X-8462079Y8208237D01*
X-8462079Y8208237D02*
X-8402639Y8103454D01*
X-8402639Y8103454D02*
X-8396999Y7995853D01*
X-8396999Y7995853D02*
X-8419671Y7913741D01*
X-8419671Y7913741D02*
X-8493323Y7775009D01*
X-8493323Y7775009D02*
X-8569795Y7690079D01*
X-8569795Y7690079D02*
X-8700068Y7602328D01*
X-8700068Y7602328D02*
X-8779360Y7571198D01*
X-8779360Y7571198D02*
X-8886962Y7565559D01*
X-8886962Y7565559D02*
X-8997383Y7613721D01*
X-8997383Y7613721D02*
X-9138935Y7741174D01*
X-7726011Y7545479D02*
X-8009114Y7800386D01*
X-8009114Y7800386D02*
X-8292331Y7542774D01*
X-8292331Y7542774D02*
X-8238530Y7545593D01*
X-8238530Y7545593D02*
X-8156419Y7522922D01*
X-8156419Y7522922D02*
X-8014868Y7395469D01*
X-8014868Y7395469D02*
X-7983738Y7316177D01*
X-7983738Y7316177D02*
X-7980918Y7262376D01*
X-7980918Y7262376D02*
X-8003589Y7180265D01*
X-8003589Y7180265D02*
X-8131043Y7038713D01*
X-8131043Y7038713D02*
X-8210335Y7007584D01*
X-8210335Y7007584D02*
X-8264136Y7004764D01*
X-8264136Y7004764D02*
X-8346247Y7027435D01*
X-8346247Y7027435D02*
X-8487798Y7154889D01*
X-8487798Y7154889D02*
X-8518928Y7234180D01*
X-8518928Y7234180D02*
X-8521748Y7287981D01*
X-7587394Y6959307D02*
X-7618524Y7038599D01*
X-7618524Y7038599D02*
X-7621343Y7092400D01*
X-7621343Y7092400D02*
X-7598672Y7174511D01*
X-7598672Y7174511D02*
X-7573182Y7202821D01*
X-7573182Y7202821D02*
X-7493890Y7233951D01*
X-7493890Y7233951D02*
X-7440089Y7236771D01*
X-7440089Y7236771D02*
X-7357978Y7214100D01*
X-7357978Y7214100D02*
X-7244737Y7112137D01*
X-7244737Y7112137D02*
X-7213607Y7032845D01*
X-7213607Y7032845D02*
X-7210787Y6979044D01*
X-7210787Y6979044D02*
X-7233458Y6896933D01*
X-7233458Y6896933D02*
X-7258949Y6868623D01*
X-7258949Y6868623D02*
X-7338241Y6837493D01*
X-7338241Y6837493D02*
X-7392042Y6834673D01*
X-7392042Y6834673D02*
X-7474153Y6857344D01*
X-7474153Y6857344D02*
X-7587394Y6959307D01*
X-7587394Y6959307D02*
X-7669505Y6981978D01*
X-7669505Y6981978D02*
X-7723306Y6979159D01*
X-7723306Y6979159D02*
X-7802598Y6948029D01*
X-7802598Y6948029D02*
X-7904561Y6834788D01*
X-7904561Y6834788D02*
X-7927232Y6752677D01*
X-7927232Y6752677D02*
X-7924412Y6698876D01*
X-7924412Y6698876D02*
X-7893282Y6619584D01*
X-7893282Y6619584D02*
X-7780041Y6517621D01*
X-7780041Y6517621D02*
X-7697930Y6494950D01*
X-7697930Y6494950D02*
X-7644129Y6497770D01*
X-7644129Y6497770D02*
X-7564837Y6528900D01*
X-7564837Y6528900D02*
X-7462874Y6642141D01*
X-7462874Y6642141D02*
X-7440203Y6724252D01*
X-7440203Y6724252D02*
X-7443023Y6778053D01*
X-7443023Y6778053D02*
X-7474153Y6857344D01*
X-11273528Y-4043951D02*
X-11520741Y-3283106D01*
X-11520741Y-3283106D02*
X-11339588Y-3224245D01*
X-11339588Y-3224245D02*
X-11219124Y-3225160D01*
X-11219124Y-3225160D02*
X-11123118Y-3274077D01*
X-11123118Y-3274077D02*
X-11063343Y-3334766D01*
X-11063343Y-3334766D02*
X-10980024Y-3467917D01*
X-10980024Y-3467917D02*
X-10944708Y-3576609D01*
X-10944708Y-3576609D02*
X-10933850Y-3733304D01*
X-10933850Y-3733304D02*
X-10946537Y-3817538D01*
X-10946537Y-3817538D02*
X-10995454Y-3913543D01*
X-10995454Y-3913543D02*
X-11092374Y-3985090D01*
X-11092374Y-3985090D02*
X-11273528Y-4043951D01*
X-10832358Y-3059436D02*
X-10325128Y-2894627D01*
X-10325128Y-2894627D02*
X-10403990Y-3761421D01*
X-10107743Y-2823995D02*
X-9636744Y-2670958D01*
X-9636744Y-2670958D02*
X-9796182Y-3043208D01*
X-9796182Y-3043208D02*
X-9687490Y-3007892D01*
X-9687490Y-3007892D02*
X-9603256Y-3020578D01*
X-9603256Y-3020578D02*
X-9555253Y-3045037D01*
X-9555253Y-3045037D02*
X-9495479Y-3105726D01*
X-9495479Y-3105726D02*
X-9436618Y-3286880D01*
X-9436618Y-3286880D02*
X-9449305Y-3371113D01*
X-9449305Y-3371113D02*
X-9473763Y-3419116D01*
X-9473763Y-3419116D02*
X-9534453Y-3478891D01*
X-9534453Y-3478891D02*
X-9751837Y-3549523D01*
X-9751837Y-3549523D02*
X-9836071Y-3536837D01*
X-9836071Y-3536837D02*
X-9884073Y-3512378D01*
X-2134593Y-11785126D02*
X-2917111Y-11618796D01*
X-2917111Y-11618796D02*
X-2877509Y-11432482D01*
X-2877509Y-11432482D02*
X-2816484Y-11328615D01*
X-2816484Y-11328615D02*
X-2726118Y-11269930D01*
X-2726118Y-11269930D02*
X-2643672Y-11248508D01*
X-2643672Y-11248508D02*
X-2486701Y-11242927D01*
X-2486701Y-11242927D02*
X-2374912Y-11266688D01*
X-2374912Y-11266688D02*
X-2233782Y-11335633D01*
X-2233782Y-11335633D02*
X-2167177Y-11388737D01*
X-2167177Y-11388737D02*
X-2108492Y-11479103D01*
X-2108492Y-11479103D02*
X-2094990Y-11598812D01*
X-2094990Y-11598812D02*
X-2134593Y-11785126D01*
X-2391655Y-10795774D02*
X-2444759Y-10862379D01*
X-2444759Y-10862379D02*
X-2489942Y-10891721D01*
X-2489942Y-10891721D02*
X-2572388Y-10913143D01*
X-2572388Y-10913143D02*
X-2609651Y-10905223D01*
X-2609651Y-10905223D02*
X-2676256Y-10852119D01*
X-2676256Y-10852119D02*
X-2705598Y-10806936D01*
X-2705598Y-10806936D02*
X-2727020Y-10724490D01*
X-2727020Y-10724490D02*
X-2695338Y-10575439D01*
X-2695338Y-10575439D02*
X-2642235Y-10508834D01*
X-2642235Y-10508834D02*
X-2597051Y-10479491D01*
X-2597051Y-10479491D02*
X-2514605Y-10458070D01*
X-2514605Y-10458070D02*
X-2477343Y-10465990D01*
X-2477343Y-10465990D02*
X-2410738Y-10519094D01*
X-2410738Y-10519094D02*
X-2381395Y-10564277D01*
X-2381395Y-10564277D02*
X-2359973Y-10646723D01*
X-2359973Y-10646723D02*
X-2391655Y-10795774D01*
X-2391655Y-10795774D02*
X-2370233Y-10878220D01*
X-2370233Y-10878220D02*
X-2340891Y-10923403D01*
X-2340891Y-10923403D02*
X-2274286Y-10976507D01*
X-2274286Y-10976507D02*
X-2125235Y-11008189D01*
X-2125235Y-11008189D02*
X-2042789Y-10986767D01*
X-2042789Y-10986767D02*
X-1997606Y-10957424D01*
X-1997606Y-10957424D02*
X-1944502Y-10890819D01*
X-1944502Y-10890819D02*
X-1912820Y-10741768D01*
X-1912820Y-10741768D02*
X-1934242Y-10659322D01*
X-1934242Y-10659322D02*
X-1963584Y-10614139D01*
X-1963584Y-10614139D02*
X-2030189Y-10561035D01*
X-2030189Y-10561035D02*
X-2179241Y-10529354D01*
X-2179241Y-10529354D02*
X-2261687Y-10550775D01*
X-2261687Y-10550775D02*
X-2306870Y-10580118D01*
X-2306870Y-10580118D02*
X-2359973Y-10646723D01*
X-2233246Y-10050518D02*
X-2286350Y-10117123D01*
X-2286350Y-10117123D02*
X-2331533Y-10146466D01*
X-2331533Y-10146466D02*
X-2413979Y-10167888D01*
X-2413979Y-10167888D02*
X-2451242Y-10159967D01*
X-2451242Y-10159967D02*
X-2517847Y-10106864D01*
X-2517847Y-10106864D02*
X-2547189Y-10061680D01*
X-2547189Y-10061680D02*
X-2568611Y-9979234D01*
X-2568611Y-9979234D02*
X-2536929Y-9830183D01*
X-2536929Y-9830183D02*
X-2483826Y-9763578D01*
X-2483826Y-9763578D02*
X-2438642Y-9734236D01*
X-2438642Y-9734236D02*
X-2356196Y-9712814D01*
X-2356196Y-9712814D02*
X-2318934Y-9720734D01*
X-2318934Y-9720734D02*
X-2252329Y-9773838D01*
X-2252329Y-9773838D02*
X-2222986Y-9819021D01*
X-2222986Y-9819021D02*
X-2201564Y-9901467D01*
X-2201564Y-9901467D02*
X-2233246Y-10050518D01*
X-2233246Y-10050518D02*
X-2211824Y-10132964D01*
X-2211824Y-10132964D02*
X-2182482Y-10178148D01*
X-2182482Y-10178148D02*
X-2115877Y-10231251D01*
X-2115877Y-10231251D02*
X-1966826Y-10262933D01*
X-1966826Y-10262933D02*
X-1884380Y-10241511D01*
X-1884380Y-10241511D02*
X-1839197Y-10212169D01*
X-1839197Y-10212169D02*
X-1786093Y-10145564D01*
X-1786093Y-10145564D02*
X-1754411Y-9996513D01*
X-1754411Y-9996513D02*
X-1775833Y-9914067D01*
X-1775833Y-9914067D02*
X-1805175Y-9868883D01*
X-1805175Y-9868883D02*
X-1871781Y-9815780D01*
X-1871781Y-9815780D02*
X-2020832Y-9784098D01*
X-2020832Y-9784098D02*
X-2103278Y-9805520D01*
X-2103278Y-9805520D02*
X-2148461Y-9834862D01*
X-2148461Y-9834862D02*
X-2201564Y-9901467D01*
X-11852482Y1721995D02*
X-11713563Y2509841D01*
X-11713563Y2509841D02*
X-11525981Y2476766D01*
X-11525981Y2476766D02*
X-11420047Y2419404D01*
X-11420047Y2419404D02*
X-11358244Y2331140D01*
X-11358244Y2331140D02*
X-11333958Y2249492D01*
X-11333958Y2249492D02*
X-11322902Y2092811D01*
X-11322902Y2092811D02*
X-11342748Y1980262D01*
X-11342748Y1980262D02*
X-11406725Y1836811D01*
X-11406725Y1836811D02*
X-11457472Y1768393D01*
X-11457472Y1768393D02*
X-11545735Y1706590D01*
X-11545735Y1706590D02*
X-11664900Y1688919D01*
X-11664900Y1688919D02*
X-11852482Y1721995D01*
X-10588069Y2311386D02*
X-10738135Y2337847D01*
X-10738135Y2337847D02*
X-10819783Y2313561D01*
X-10819783Y2313561D02*
X-10863915Y2282660D01*
X-10863915Y2282660D02*
X-10958793Y2183340D01*
X-10958793Y2183340D02*
X-11022770Y2039890D01*
X-11022770Y2039890D02*
X-11075692Y1739758D01*
X-11075692Y1739758D02*
X-11051405Y1658110D01*
X-11051405Y1658110D02*
X-11020504Y1613978D01*
X-11020504Y1613978D02*
X-10952086Y1563231D01*
X-10952086Y1563231D02*
X-10802020Y1536770D01*
X-10802020Y1536770D02*
X-10720372Y1561057D01*
X-10720372Y1561057D02*
X-10676241Y1591958D01*
X-10676241Y1591958D02*
X-10625494Y1660376D01*
X-10625494Y1660376D02*
X-10592418Y1847958D01*
X-10592418Y1847958D02*
X-10616704Y1929606D01*
X-10616704Y1929606D02*
X-10647605Y1973738D01*
X-10647605Y1973738D02*
X-10716023Y2024485D01*
X-10716023Y2024485D02*
X-10866089Y2050945D01*
X-10866089Y2050945D02*
X-10947737Y2026659D01*
X-10947737Y2026659D02*
X-10991869Y1995758D01*
X-10991869Y1995758D02*
X-11042616Y1927340D01*
X-9837739Y2179083D02*
X-9987805Y2205544D01*
X-9987805Y2205544D02*
X-10069453Y2181257D01*
X-10069453Y2181257D02*
X-10113585Y2150356D01*
X-10113585Y2150356D02*
X-10208463Y2051037D01*
X-10208463Y2051037D02*
X-10272440Y1907586D01*
X-10272440Y1907586D02*
X-10325362Y1607454D01*
X-10325362Y1607454D02*
X-10301076Y1525806D01*
X-10301076Y1525806D02*
X-10270174Y1481675D01*
X-10270174Y1481675D02*
X-10201756Y1430928D01*
X-10201756Y1430928D02*
X-10051690Y1404467D01*
X-10051690Y1404467D02*
X-9970042Y1428753D01*
X-9970042Y1428753D02*
X-9925911Y1459655D01*
X-9925911Y1459655D02*
X-9875164Y1528072D01*
X-9875164Y1528072D02*
X-9842088Y1715655D01*
X-9842088Y1715655D02*
X-9866374Y1797303D01*
X-9866374Y1797303D02*
X-9897275Y1841435D01*
X-9897275Y1841435D02*
X-9965693Y1892181D01*
X-9965693Y1892181D02*
X-10115759Y1918642D01*
X-10115759Y1918642D02*
X-10197407Y1894356D01*
X-10197407Y1894356D02*
X-10241539Y1863455D01*
X-10241539Y1863455D02*
X-10292286Y1795037D01*
X-2453696Y2413895D02*
X-2491792Y2375800D01*
X-2491792Y2375800D02*
X-2606077Y2337704D01*
X-2606077Y2337704D02*
X-2682268Y2337704D01*
X-2682268Y2337704D02*
X-2796554Y2375800D01*
X-2796554Y2375800D02*
X-2872744Y2451990D01*
X-2872744Y2451990D02*
X-2910839Y2528180D01*
X-2910839Y2528180D02*
X-2948935Y2680561D01*
X-2948935Y2680561D02*
X-2948935Y2794847D01*
X-2948935Y2794847D02*
X-2910839Y2947228D01*
X-2910839Y2947228D02*
X-2872744Y3023419D01*
X-2872744Y3023419D02*
X-2796554Y3099609D01*
X-2796554Y3099609D02*
X-2682268Y3137704D01*
X-2682268Y3137704D02*
X-2606077Y3137704D01*
X-2606077Y3137704D02*
X-2491792Y3099609D01*
X-2491792Y3099609D02*
X-2453696Y3061514D01*
X-2148935Y3061514D02*
X-2110839Y3099609D01*
X-2110839Y3099609D02*
X-2034649Y3137704D01*
X-2034649Y3137704D02*
X-1844173Y3137704D01*
X-1844173Y3137704D02*
X-1767982Y3099609D01*
X-1767982Y3099609D02*
X-1729887Y3061514D01*
X-1729887Y3061514D02*
X-1691792Y2985323D01*
X-1691792Y2985323D02*
X-1691792Y2909133D01*
X-1691792Y2909133D02*
X-1729887Y2794847D01*
X-1729887Y2794847D02*
X-2187030Y2337704D01*
X-2187030Y2337704D02*
X-1691792Y2337704D01*
X-4133332Y2413895D02*
X-4171428Y2375800D01*
X-4171428Y2375800D02*
X-4285713Y2337704D01*
X-4285713Y2337704D02*
X-4361904Y2337704D01*
X-4361904Y2337704D02*
X-4476190Y2375800D01*
X-4476190Y2375800D02*
X-4552380Y2451990D01*
X-4552380Y2451990D02*
X-4590475Y2528180D01*
X-4590475Y2528180D02*
X-4628571Y2680561D01*
X-4628571Y2680561D02*
X-4628571Y2794847D01*
X-4628571Y2794847D02*
X-4590475Y2947228D01*
X-4590475Y2947228D02*
X-4552380Y3023419D01*
X-4552380Y3023419D02*
X-4476190Y3099609D01*
X-4476190Y3099609D02*
X-4361904Y3137704D01*
X-4361904Y3137704D02*
X-4285713Y3137704D01*
X-4285713Y3137704D02*
X-4171428Y3099609D01*
X-4171428Y3099609D02*
X-4133332Y3061514D01*
X-3828571Y3061514D02*
X-3790475Y3099609D01*
X-3790475Y3099609D02*
X-3714285Y3137704D01*
X-3714285Y3137704D02*
X-3523809Y3137704D01*
X-3523809Y3137704D02*
X-3447618Y3099609D01*
X-3447618Y3099609D02*
X-3409523Y3061514D01*
X-3409523Y3061514D02*
X-3371428Y2985323D01*
X-3371428Y2985323D02*
X-3371428Y2909133D01*
X-3371428Y2909133D02*
X-3409523Y2794847D01*
X-3409523Y2794847D02*
X-3866666Y2337704D01*
X-3866666Y2337704D02*
X-3371428Y2337704D01*
X3902958Y-9656932D02*
X4633795Y-9331542D01*
X4633795Y-9331542D02*
X4711268Y-9505551D01*
X4711268Y-9505551D02*
X4722951Y-9625451D01*
X4722951Y-9625451D02*
X4684337Y-9726044D01*
X4684337Y-9726044D02*
X4630228Y-9791835D01*
X4630228Y-9791835D02*
X4506516Y-9888616D01*
X4506516Y-9888616D02*
X4402111Y-9935100D01*
X4402111Y-9935100D02*
X4247409Y-9962277D01*
X4247409Y-9962277D02*
X4162311Y-9958465D01*
X4162311Y-9958465D02*
X4061718Y-9919851D01*
X4061718Y-9919851D02*
X3980432Y-9830940D01*
X3980432Y-9830940D02*
X3902958Y-9656932D01*
X4928194Y-9992775D02*
X5145121Y-10480000D01*
X5145121Y-10480000D02*
X4274832Y-10492173D01*
X8854765Y-4721882D02*
X9205462Y-4002847D01*
X9205462Y-4002847D02*
X9376661Y-4086346D01*
X9376661Y-4086346D02*
X9462681Y-4170685D01*
X9462681Y-4170685D02*
X9497760Y-4272565D01*
X9497760Y-4272565D02*
X9498600Y-4357744D01*
X9498600Y-4357744D02*
X9466041Y-4511403D01*
X9466041Y-4511403D02*
X9415941Y-4614122D01*
X9415941Y-4614122D02*
X9314902Y-4734381D01*
X9314902Y-4734381D02*
X9247263Y-4786161D01*
X9247263Y-4786161D02*
X9145383Y-4821241D01*
X9145383Y-4821241D02*
X9025964Y-4805381D01*
X9025964Y-4805381D02*
X8854765Y-4721882D01*
X9950438Y-5256277D02*
X9539561Y-5055879D01*
X9744999Y-5156078D02*
X10095696Y-4437043D01*
X10095696Y-4437043D02*
X9977117Y-4506363D01*
X9977117Y-4506363D02*
X9875238Y-4541442D01*
X9875238Y-4541442D02*
X9790059Y-4542282D01*
X10540814Y-4654141D02*
X11020170Y-4887939D01*
X11020170Y-4887939D02*
X10361316Y-5456676D01*
X2520982Y-10106160D02*
X3289991Y-9885650D01*
X3289991Y-9885650D02*
X3342493Y-10068747D01*
X3342493Y-10068747D02*
X3337375Y-10189106D01*
X3337375Y-10189106D02*
X3285137Y-10283346D01*
X3285137Y-10283346D02*
X3222399Y-10340967D01*
X3222399Y-10340967D02*
X3086421Y-10419588D01*
X3086421Y-10419588D02*
X2976563Y-10451090D01*
X2976563Y-10451090D02*
X2819584Y-10456472D01*
X2819584Y-10456472D02*
X2735845Y-10440853D01*
X2735845Y-10440853D02*
X2641605Y-10388615D01*
X2641605Y-10388615D02*
X2573484Y-10289257D01*
X2573484Y-10289257D02*
X2520982Y-10106160D01*
X3615506Y-11020854D02*
X3510501Y-10654659D01*
X3510501Y-10654659D02*
X3133806Y-10723045D01*
X3133806Y-10723045D02*
X3180926Y-10749164D01*
X3180926Y-10749164D02*
X3238546Y-10811902D01*
X3238546Y-10811902D02*
X3291048Y-10995000D01*
X3291048Y-10995000D02*
X3275430Y-11078739D01*
X3275430Y-11078739D02*
X3249311Y-11125859D01*
X3249311Y-11125859D02*
X3186572Y-11183479D01*
X3186572Y-11183479D02*
X3003475Y-11235982D01*
X3003475Y-11235982D02*
X2919735Y-11220363D01*
X2919735Y-11220363D02*
X2872615Y-11194244D01*
X2872615Y-11194244D02*
X2814995Y-11131506D01*
X2814995Y-11131506D02*
X2762493Y-10948408D01*
X2762493Y-10948408D02*
X2778111Y-10864669D01*
X2778111Y-10864669D02*
X2804230Y-10817549D01*
X-8055397Y-8863158D02*
X-8630869Y-8307432D01*
X-8630869Y-8307432D02*
X-8498553Y-8170415D01*
X-8498553Y-8170415D02*
X-8391760Y-8114667D01*
X-8391760Y-8114667D02*
X-8284027Y-8112787D01*
X-8284027Y-8112787D02*
X-8202757Y-8138310D01*
X-8202757Y-8138310D02*
X-8066680Y-8216759D01*
X-8066680Y-8216759D02*
X-7984470Y-8296149D01*
X-7984470Y-8296149D02*
X-7901319Y-8429405D01*
X-7901319Y-8429405D02*
X-7872976Y-8509735D01*
X-7872976Y-8509735D02*
X-7871095Y-8617468D01*
X-7871095Y-8617468D02*
X-7923081Y-8726141D01*
X-7923081Y-8726141D02*
X-8055397Y-8863158D01*
X-7749122Y-7887918D02*
X-7829452Y-7916262D01*
X-7829452Y-7916262D02*
X-7883318Y-7917202D01*
X-7883318Y-7917202D02*
X-7964588Y-7891679D01*
X-7964588Y-7891679D02*
X-7991992Y-7865216D01*
X-7991992Y-7865216D02*
X-8020336Y-7784886D01*
X-8020336Y-7784886D02*
X-8021276Y-7731020D01*
X-8021276Y-7731020D02*
X-7995753Y-7649750D01*
X-7995753Y-7649750D02*
X-7889900Y-7540136D01*
X-7889900Y-7540136D02*
X-7809570Y-7511792D01*
X-7809570Y-7511792D02*
X-7755704Y-7510852D01*
X-7755704Y-7510852D02*
X-7674434Y-7536375D01*
X-7674434Y-7536375D02*
X-7647030Y-7562838D01*
X-7647030Y-7562838D02*
X-7618687Y-7643168D01*
X-7618687Y-7643168D02*
X-7617746Y-7697034D01*
X-7617746Y-7697034D02*
X-7643269Y-7778304D01*
X-7643269Y-7778304D02*
X-7749122Y-7887918D01*
X-7749122Y-7887918D02*
X-7774645Y-7969188D01*
X-7774645Y-7969188D02*
X-7773705Y-8023055D01*
X-7773705Y-8023055D02*
X-7745361Y-8103384D01*
X-7745361Y-8103384D02*
X-7635747Y-8209237D01*
X-7635747Y-8209237D02*
X-7554477Y-8234760D01*
X-7554477Y-8234760D02*
X-7500611Y-8233820D01*
X-7500611Y-8233820D02*
X-7420281Y-8205476D01*
X-7420281Y-8205476D02*
X-7314428Y-8095863D01*
X-7314428Y-8095863D02*
X-7288905Y-8014593D01*
X-7288905Y-8014593D02*
X-7289846Y-7960726D01*
X-7289846Y-7960726D02*
X-7318189Y-7880396D01*
X-7318189Y-7880396D02*
X-7427803Y-7774543D01*
X-7427803Y-7774543D02*
X-7509073Y-7749021D01*
X-7509073Y-7749021D02*
X-7562940Y-7749961D01*
X-7562940Y-7749961D02*
X-7643269Y-7778304D01*
X-7440026Y-7074278D02*
X-7387100Y-7019471D01*
X-7387100Y-7019471D02*
X-7306770Y-6991127D01*
X-7306770Y-6991127D02*
X-7252903Y-6990187D01*
X-7252903Y-6990187D02*
X-7171633Y-7015710D01*
X-7171633Y-7015710D02*
X-7035556Y-7094159D01*
X-7035556Y-7094159D02*
X-6898539Y-7226475D01*
X-6898539Y-7226475D02*
X-6815389Y-7359731D01*
X-6815389Y-7359731D02*
X-6787045Y-7440061D01*
X-6787045Y-7440061D02*
X-6786105Y-7493927D01*
X-6786105Y-7493927D02*
X-6811628Y-7575197D01*
X-6811628Y-7575197D02*
X-6864554Y-7630004D01*
X-6864554Y-7630004D02*
X-6944884Y-7658348D01*
X-6944884Y-7658348D02*
X-6998751Y-7659288D01*
X-6998751Y-7659288D02*
X-7080021Y-7633765D01*
X-7080021Y-7633765D02*
X-7216097Y-7555316D01*
X-7216097Y-7555316D02*
X-7353115Y-7423000D01*
X-7353115Y-7423000D02*
X-7436265Y-7289744D01*
X-7436265Y-7289744D02*
X-7464609Y-7209414D01*
X-7464609Y-7209414D02*
X-7465549Y-7155548D01*
X-7465549Y-7155548D02*
X-7440026Y-7074278D01*
X10009819Y-712072D02*
X10037738Y87440D01*
X10037738Y87440D02*
X10228098Y80792D01*
X10228098Y80792D02*
X10340985Y38732D01*
X10340985Y38732D02*
X10414470Y-40070D01*
X10414470Y-40070D02*
X10449883Y-117544D01*
X10449883Y-117544D02*
X10482637Y-271161D01*
X10482637Y-271161D02*
X10478648Y-385377D01*
X10478648Y-385377D02*
X10435258Y-536336D01*
X10435258Y-536336D02*
X10394527Y-611151D01*
X10394527Y-611151D02*
X10315724Y-684636D01*
X10315724Y-684636D02*
X10200179Y-718719D01*
X10200179Y-718719D02*
X10009819Y-712072D01*
X10796520Y-15293D02*
X10835921Y21448D01*
X10835921Y21448D02*
X10913395Y56861D01*
X10913395Y56861D02*
X11103755Y50214D01*
X11103755Y50214D02*
X11178570Y9483D01*
X11178570Y9483D02*
X11215312Y-29918D01*
X11215312Y-29918D02*
X11250725Y-107391D01*
X11250725Y-107391D02*
X11248066Y-183535D01*
X11248066Y-183535D02*
X11206006Y-296422D01*
X11206006Y-296422D02*
X10733187Y-737332D01*
X10733187Y-737332D02*
X11228124Y-754616D01*
X11522548Y35589D02*
X12017484Y18306D01*
X12017484Y18306D02*
X11740344Y-276963D01*
X11740344Y-276963D02*
X11854560Y-280951D01*
X11854560Y-280951D02*
X11929374Y-321683D01*
X11929374Y-321683D02*
X11966117Y-361084D01*
X11966117Y-361084D02*
X12001530Y-438558D01*
X12001530Y-438558D02*
X11994882Y-628918D01*
X11994882Y-628918D02*
X11954151Y-703732D01*
X11954151Y-703732D02*
X11914750Y-740475D01*
X11914750Y-740475D02*
X11837276Y-775888D01*
X11837276Y-775888D02*
X11608844Y-767911D01*
X11608844Y-767911D02*
X11534030Y-727180D01*
X11534030Y-727180D02*
X11497287Y-687778D01*
X-10963974Y-4820517D02*
X-11263660Y-4078770D01*
X-11263660Y-4078770D02*
X-11087053Y-4007417D01*
X-11087053Y-4007417D02*
X-10966819Y-3999926D01*
X-10966819Y-3999926D02*
X-10867635Y-4042027D01*
X-10867635Y-4042027D02*
X-10803772Y-4098399D01*
X-10803772Y-4098399D02*
X-10711368Y-4225413D01*
X-10711368Y-4225413D02*
X-10668555Y-4331377D01*
X-10668555Y-4331377D02*
X-10646794Y-4486933D01*
X-10646794Y-4486933D02*
X-10653574Y-4571846D01*
X-10653574Y-4571846D02*
X-10695675Y-4671030D01*
X-10695675Y-4671030D02*
X-10787368Y-4749164D01*
X-10787368Y-4749164D02*
X-10963974Y-4820517D01*
X-10592555Y-3807627D02*
X-10098057Y-3607836D01*
X-10098057Y-3607836D02*
X-10116263Y-4478020D01*
X-9397700Y-3612483D02*
X-9197910Y-4106981D01*
X-9688472Y-3401266D02*
X-9651018Y-4002439D01*
X-9651018Y-4002439D02*
X-9191841Y-3816920D01*
X-10127343Y6393959D02*
X-9679989Y7057189D01*
X-9679989Y7057189D02*
X-9522077Y6950676D01*
X-9522077Y6950676D02*
X-9448633Y6855186D01*
X-9448633Y6855186D02*
X-9428073Y6749416D01*
X-9428073Y6749416D02*
X-9439096Y6664949D01*
X-9439096Y6664949D02*
X-9492724Y6517317D01*
X-9492724Y6517317D02*
X-9556632Y6422570D01*
X-9556632Y6422570D02*
X-9673424Y6317543D01*
X-9673424Y6317543D02*
X-9747612Y6275681D01*
X-9747612Y6275681D02*
X-9853382Y6255121D01*
X-9853382Y6255121D02*
X-9969431Y6287446D01*
X-9969431Y6287446D02*
X-10127343Y6393959D01*
X-8732518Y6418112D02*
X-8858847Y6503322D01*
X-8858847Y6503322D02*
X-8943314Y6514345D01*
X-8943314Y6514345D02*
X-8996199Y6504065D01*
X-8996199Y6504065D02*
X-9123272Y6451923D01*
X-9123272Y6451923D02*
X-9240065Y6346896D01*
X-9240065Y6346896D02*
X-9410485Y6094237D01*
X-9410485Y6094237D02*
X-9421508Y6009770D01*
X-9421508Y6009770D02*
X-9411228Y5956885D01*
X-9411228Y5956885D02*
X-9369366Y5882697D01*
X-9369366Y5882697D02*
X-9243037Y5797487D01*
X-9243037Y5797487D02*
X-9158569Y5786464D01*
X-9158569Y5786464D02*
X-9105684Y5796744D01*
X-9105684Y5796744D02*
X-9031497Y5838606D01*
X-9031497Y5838606D02*
X-8924984Y5996518D01*
X-8924984Y5996518D02*
X-8913961Y6080985D01*
X-8913961Y6080985D02*
X-8924241Y6133870D01*
X-8924241Y6133870D02*
X-8966103Y6208058D01*
X-8966103Y6208058D02*
X-9092433Y6293268D01*
X-9092433Y6293268D02*
X-9176900Y6304291D01*
X-9176900Y6304291D02*
X-9229785Y6294011D01*
X-9229785Y6294011D02*
X-9303972Y6252149D01*
X-8258782Y6098573D02*
X-8195617Y6055968D01*
X-8195617Y6055968D02*
X-8153755Y5981780D01*
X-8153755Y5981780D02*
X-8143475Y5928895D01*
X-8143475Y5928895D02*
X-8154498Y5844428D01*
X-8154498Y5844428D02*
X-8208126Y5696796D01*
X-8208126Y5696796D02*
X-8314639Y5538884D01*
X-8314639Y5538884D02*
X-8431431Y5433857D01*
X-8431431Y5433857D02*
X-8505619Y5391995D01*
X-8505619Y5391995D02*
X-8558504Y5381715D01*
X-8558504Y5381715D02*
X-8642971Y5392738D01*
X-8642971Y5392738D02*
X-8706136Y5435343D01*
X-8706136Y5435343D02*
X-8747998Y5509530D01*
X-8747998Y5509530D02*
X-8758278Y5562415D01*
X-8758278Y5562415D02*
X-8747255Y5646883D01*
X-8747255Y5646883D02*
X-8693627Y5794515D01*
X-8693627Y5794515D02*
X-8587114Y5952427D01*
X-8587114Y5952427D02*
X-8470322Y6057454D01*
X-8470322Y6057454D02*
X-8396134Y6099316D01*
X-8396134Y6099316D02*
X-8343249Y6109596D01*
X-8343249Y6109596D02*
X-8258782Y6098573D01*
X7210264Y-6979625D02*
X7745569Y-6385109D01*
X7745569Y-6385109D02*
X7887120Y-6512562D01*
X7887120Y-6512562D02*
X7946560Y-6617345D01*
X7946560Y-6617345D02*
X7952200Y-6724946D01*
X7952200Y-6724946D02*
X7929528Y-6807058D01*
X7929528Y-6807058D02*
X7855876Y-6945790D01*
X7855876Y-6945790D02*
X7779404Y-7030720D01*
X7779404Y-7030720D02*
X7649131Y-7118471D01*
X7649131Y-7118471D02*
X7569839Y-7149601D01*
X7569839Y-7149601D02*
X7462237Y-7155240D01*
X7462237Y-7155240D02*
X7351816Y-7107078D01*
X7351816Y-7107078D02*
X7210264Y-6979625D01*
X8116193Y-7795327D02*
X7776470Y-7489438D01*
X7946332Y-7642383D02*
X8481636Y-7047867D01*
X8481636Y-7047867D02*
X8348543Y-7081816D01*
X8348543Y-7081816D02*
X8240942Y-7087455D01*
X8240942Y-7087455D02*
X8158830Y-7064784D01*
X8849670Y-7379246D02*
X9217704Y-7710625D01*
X9217704Y-7710625D02*
X8815606Y-7758672D01*
X8815606Y-7758672D02*
X8900537Y-7835144D01*
X8900537Y-7835144D02*
X8931667Y-7914436D01*
X8931667Y-7914436D02*
X8934486Y-7968237D01*
X8934486Y-7968237D02*
X8911815Y-8050348D01*
X8911815Y-8050348D02*
X8784362Y-8191899D01*
X8784362Y-8191899D02*
X8705070Y-8223029D01*
X8705070Y-8223029D02*
X8651269Y-8225849D01*
X8651269Y-8225849D02*
X8569158Y-8203178D01*
X8569158Y-8203178D02*
X8399296Y-8050234D01*
X8399296Y-8050234D02*
X8368166Y-7970942D01*
X8368166Y-7970942D02*
X8365347Y-7917141D01*
X9434025Y3420882D02*
X9134339Y4162629D01*
X9134339Y4162629D02*
X9310946Y4233982D01*
X9310946Y4233982D02*
X9431180Y4241473D01*
X9431180Y4241473D02*
X9530364Y4199372D01*
X9530364Y4199372D02*
X9594227Y4143000D01*
X9594227Y4143000D02*
X9686631Y4015986D01*
X9686631Y4015986D02*
X9729444Y3910022D01*
X9729444Y3910022D02*
X9751205Y3754466D01*
X9751205Y3754466D02*
X9744425Y3669553D01*
X9744425Y3669553D02*
X9702324Y3570369D01*
X9702324Y3570369D02*
X9610631Y3492235D01*
X9610631Y3492235D02*
X9434025Y3420882D01*
X9869307Y4377401D02*
X9890357Y4426993D01*
X9890357Y4426993D02*
X9946729Y4490855D01*
X9946729Y4490855D02*
X10123335Y4562209D01*
X10123335Y4562209D02*
X10208249Y4555429D01*
X10208249Y4555429D02*
X10257841Y4534379D01*
X10257841Y4534379D02*
X10321703Y4478007D01*
X10321703Y4478007D02*
X10350245Y4407364D01*
X10350245Y4407364D02*
X10357736Y4287130D01*
X10357736Y4287130D02*
X10105129Y3692025D01*
X10105129Y3692025D02*
X10564306Y3877545D01*
X10917519Y4020252D02*
X11058804Y4077335D01*
X11058804Y4077335D02*
X11115176Y4141198D01*
X11115176Y4141198D02*
X11136227Y4190790D01*
X11136227Y4190790D02*
X11164057Y4325295D01*
X11164057Y4325295D02*
X11142295Y4480851D01*
X11142295Y4480851D02*
X11028129Y4763421D01*
X11028129Y4763421D02*
X10964267Y4819793D01*
X10964267Y4819793D02*
X10914675Y4840844D01*
X10914675Y4840844D02*
X10829761Y4847624D01*
X10829761Y4847624D02*
X10688476Y4790541D01*
X10688476Y4790541D02*
X10632104Y4726678D01*
X10632104Y4726678D02*
X10611054Y4677086D01*
X10611054Y4677086D02*
X10604274Y4592173D01*
X10604274Y4592173D02*
X10675628Y4415566D01*
X10675628Y4415566D02*
X10739490Y4359194D01*
X10739490Y4359194D02*
X10789082Y4338144D01*
X10789082Y4338144D02*
X10873996Y4331364D01*
X10873996Y4331364D02*
X11015281Y4388447D01*
X11015281Y4388447D02*
X11071653Y4452310D01*
X11071653Y4452310D02*
X11092703Y4501902D01*
X11092703Y4501902D02*
X11099483Y4586815D01*
X7679552Y-6459721D02*
X8172081Y-5829312D01*
X8172081Y-5829312D02*
X8322178Y-5946581D01*
X8322178Y-5946581D02*
X8388783Y-6046962D01*
X8388783Y-6046962D02*
X8401914Y-6153908D01*
X8401914Y-6153908D02*
X8385026Y-6237401D01*
X8385026Y-6237401D02*
X8321231Y-6380933D01*
X8321231Y-6380933D02*
X8250869Y-6470991D01*
X8250869Y-6470991D02*
X8127035Y-6567615D01*
X8127035Y-6567615D02*
X8050108Y-6604200D01*
X8050108Y-6604200D02*
X7943161Y-6617331D01*
X7943161Y-6617331D02*
X7829649Y-6576990D01*
X7829649Y-6576990D02*
X7679552Y-6459721D01*
X8640175Y-7210241D02*
X8279941Y-6928796D01*
X8460058Y-7069519D02*
X8952587Y-6439110D01*
X8952587Y-6439110D02*
X8822187Y-6482261D01*
X8822187Y-6482261D02*
X8715240Y-6495392D01*
X8715240Y-6495392D02*
X8631748Y-6478504D01*
X9508878Y-7212137D02*
X9180525Y-7632409D01*
X9546411Y-6854713D02*
X9044507Y-7187736D01*
X9044507Y-7187736D02*
X9434760Y-7492635D01*
X362295Y-11590475D02*
X-437704Y-11590475D01*
X-437704Y-11590475D02*
X-437704Y-11399999D01*
X-437704Y-11399999D02*
X-399609Y-11285713D01*
X-399609Y-11285713D02*
X-323419Y-11209523D01*
X-323419Y-11209523D02*
X-247228Y-11171428D01*
X-247228Y-11171428D02*
X-94847Y-11133332D01*
X-94847Y-11133332D02*
X19438Y-11133332D01*
X19438Y-11133332D02*
X171819Y-11171428D01*
X171819Y-11171428D02*
X248009Y-11209523D01*
X248009Y-11209523D02*
X324200Y-11285713D01*
X324200Y-11285713D02*
X362295Y-11399999D01*
X362295Y-11399999D02*
X362295Y-11590475D01*
X362295Y-10371428D02*
X362295Y-10828571D01*
X362295Y-10599999D02*
X-437704Y-10599999D01*
X-437704Y-10599999D02*
X-323419Y-10676190D01*
X-323419Y-10676190D02*
X-247228Y-10752380D01*
X-247228Y-10752380D02*
X-209133Y-10828571D01*
X1089952Y-10358592D02*
X1882166Y-10247253D01*
X1882166Y-10247253D02*
X1908675Y-10435876D01*
X1908675Y-10435876D02*
X1886856Y-10554351D01*
X1886856Y-10554351D02*
X1822011Y-10640404D01*
X1822011Y-10640404D02*
X1751864Y-10688732D01*
X1751864Y-10688732D02*
X1606268Y-10747664D01*
X1606268Y-10747664D02*
X1493094Y-10763569D01*
X1493094Y-10763569D02*
X1336894Y-10747052D01*
X1336894Y-10747052D02*
X1256144Y-10719931D01*
X1256144Y-10719931D02*
X1170091Y-10655086D01*
X1170091Y-10655086D02*
X1116461Y-10547214D01*
X1116461Y-10547214D02*
X1089952Y-10358592D01*
X1982901Y-10964019D02*
X2051825Y-11454437D01*
X2051825Y-11454437D02*
X1712916Y-11232781D01*
X1712916Y-11232781D02*
X1728822Y-11345954D01*
X1728822Y-11345954D02*
X1701701Y-11426705D01*
X1701701Y-11426705D02*
X1669278Y-11469731D01*
X1669278Y-11469731D02*
X1599131Y-11518059D01*
X1599131Y-11518059D02*
X1410508Y-11544569D01*
X1410508Y-11544569D02*
X1329758Y-11517448D01*
X1329758Y-11517448D02*
X1286731Y-11485025D01*
X1286731Y-11485025D02*
X1238403Y-11414878D01*
X1238403Y-11414878D02*
X1206592Y-11188531D01*
X1206592Y-11188531D02*
X1233713Y-11107780D01*
X1233713Y-11107780D02*
X1266136Y-11064754D01*
X9935722Y-1408568D02*
X10019345Y-612951D01*
X10019345Y-612951D02*
X10208778Y-632861D01*
X10208778Y-632861D02*
X10318455Y-682693D01*
X10318455Y-682693D02*
X10386264Y-766431D01*
X10386264Y-766431D02*
X10416187Y-846186D01*
X10416187Y-846186D02*
X10438145Y-1001714D01*
X10438145Y-1001714D02*
X10426199Y-1115374D01*
X10426199Y-1115374D02*
X10372384Y-1262938D01*
X10372384Y-1262938D02*
X10326534Y-1334729D01*
X10326534Y-1334729D02*
X10242797Y-1402538D01*
X10242797Y-1402538D02*
X10125155Y-1428478D01*
X10125155Y-1428478D02*
X9935722Y-1408568D01*
X10769112Y-768364D02*
X10810980Y-734460D01*
X10810980Y-734460D02*
X10890735Y-704537D01*
X10890735Y-704537D02*
X11080168Y-724448D01*
X11080168Y-724448D02*
X11151959Y-770298D01*
X11151959Y-770298D02*
X11185864Y-812167D01*
X11185864Y-812167D02*
X11215786Y-891922D01*
X11215786Y-891922D02*
X11207822Y-967695D01*
X11207822Y-967695D02*
X11157990Y-1077373D01*
X11157990Y-1077373D02*
X10655567Y-1484227D01*
X10655567Y-1484227D02*
X11148092Y-1535993D01*
X11526843Y-848005D02*
X11568712Y-814101D01*
X11568712Y-814101D02*
X11648467Y-784178D01*
X11648467Y-784178D02*
X11837899Y-804088D01*
X11837899Y-804088D02*
X11909691Y-849939D01*
X11909691Y-849939D02*
X11943595Y-891808D01*
X11943595Y-891808D02*
X11973517Y-971563D01*
X11973517Y-971563D02*
X11965553Y-1047336D01*
X11965553Y-1047336D02*
X11915721Y-1157013D01*
X11915721Y-1157013D02*
X11413298Y-1563868D01*
X11413298Y-1563868D02*
X11905823Y-1615634D01*
X362295Y10028571D02*
X-437704Y10028571D01*
X-437704Y10028571D02*
X-437704Y10219047D01*
X-437704Y10219047D02*
X-399609Y10333333D01*
X-399609Y10333333D02*
X-323419Y10409523D01*
X-323419Y10409523D02*
X-247228Y10447618D01*
X-247228Y10447618D02*
X-94847Y10485714D01*
X-94847Y10485714D02*
X19438Y10485714D01*
X19438Y10485714D02*
X171819Y10447618D01*
X171819Y10447618D02*
X248009Y10409523D01*
X248009Y10409523D02*
X324200Y10333333D01*
X324200Y10333333D02*
X362295Y10219047D01*
X362295Y10219047D02*
X362295Y10028571D01*
X-171038Y11171428D02*
X362295Y11171428D01*
X-475800Y10980952D02*
X95628Y10790475D01*
X95628Y10790475D02*
X95628Y11285714D01*
X-437704Y11933333D02*
X-437704Y11780952D01*
X-437704Y11780952D02*
X-399609Y11704761D01*
X-399609Y11704761D02*
X-361514Y11666666D01*
X-361514Y11666666D02*
X-247228Y11590476D01*
X-247228Y11590476D02*
X-94847Y11552380D01*
X-94847Y11552380D02*
X209914Y11552380D01*
X209914Y11552380D02*
X286104Y11590476D01*
X286104Y11590476D02*
X324200Y11628571D01*
X324200Y11628571D02*
X362295Y11704761D01*
X362295Y11704761D02*
X362295Y11857142D01*
X362295Y11857142D02*
X324200Y11933333D01*
X324200Y11933333D02*
X286104Y11971428D01*
X286104Y11971428D02*
X209914Y12009523D01*
X209914Y12009523D02*
X19438Y12009523D01*
X19438Y12009523D02*
X-56752Y11971428D01*
X-56752Y11971428D02*
X-94847Y11933333D01*
X-94847Y11933333D02*
X-132942Y11857142D01*
X-132942Y11857142D02*
X-132942Y11704761D01*
X-132942Y11704761D02*
X-94847Y11628571D01*
X-94847Y11628571D02*
X-56752Y11590476D01*
X-56752Y11590476D02*
X19438Y11552380D01*
X6187711Y7900345D02*
X5540497Y8370573D01*
X5540497Y8370573D02*
X5652456Y8524672D01*
X5652456Y8524672D02*
X5750452Y8594739D01*
X5750452Y8594739D02*
X5856875Y8611595D01*
X5856875Y8611595D02*
X5940906Y8597631D01*
X5940906Y8597631D02*
X6086576Y8538883D01*
X6086576Y8538883D02*
X6179036Y8471708D01*
X6179036Y8471708D02*
X6279923Y8351321D01*
X6279923Y8351321D02*
X6319170Y8275718D01*
X6319170Y8275718D02*
X6336026Y8169295D01*
X6336026Y8169295D02*
X6299670Y8054444D01*
X6299670Y8054444D02*
X6187711Y7900345D01*
X5965942Y8956148D02*
X6257036Y9356804D01*
X6257036Y9356804D02*
X6346850Y8961931D01*
X6346850Y8961931D02*
X6414026Y9054390D01*
X6414026Y9054390D02*
X6489629Y9093638D01*
X6489629Y9093638D02*
X6542841Y9102066D01*
X6542841Y9102066D02*
X6626872Y9088102D01*
X6626872Y9088102D02*
X6780970Y8976143D01*
X6780970Y8976143D02*
X6820218Y8900539D01*
X6820218Y8900539D02*
X6828646Y8847328D01*
X6828646Y8847328D02*
X6814682Y8763297D01*
X6814682Y8763297D02*
X6680331Y8578379D01*
X6680331Y8578379D02*
X6604728Y8539131D01*
X6604728Y8539131D02*
X6551516Y8530703D01*
X6413778Y9572542D02*
X6727264Y10004018D01*
X6727264Y10004018D02*
X7172951Y9256412D01*
X-11235411Y4148689D02*
X-10935726Y4890436D01*
X-10935726Y4890436D02*
X-10759119Y4819082D01*
X-10759119Y4819082D02*
X-10667426Y4740949D01*
X-10667426Y4740949D02*
X-10625325Y4641765D01*
X-10625325Y4641765D02*
X-10618545Y4556851D01*
X-10618545Y4556851D02*
X-10640307Y4401296D01*
X-10640307Y4401296D02*
X-10683119Y4295332D01*
X-10683119Y4295332D02*
X-10775523Y4168317D01*
X-10775523Y4168317D02*
X-10839386Y4111945D01*
X-10839386Y4111945D02*
X-10938570Y4069844D01*
X-10938570Y4069844D02*
X-11058804Y4077335D01*
X-11058804Y4077335D02*
X-11235411Y4148689D01*
X-9876087Y4462314D02*
X-10017372Y4519397D01*
X-10017372Y4519397D02*
X-10102285Y4512617D01*
X-10102285Y4512617D02*
X-10151877Y4491567D01*
X-10151877Y4491567D02*
X-10265332Y4414144D01*
X-10265332Y4414144D02*
X-10357736Y4287130D01*
X-10357736Y4287130D02*
X-10471902Y4004559D01*
X-10471902Y4004559D02*
X-10465122Y3919646D01*
X-10465122Y3919646D02*
X-10444072Y3870054D01*
X-10444072Y3870054D02*
X-10387700Y3806191D01*
X-10387700Y3806191D02*
X-10246415Y3749108D01*
X-10246415Y3749108D02*
X-10161501Y3755888D01*
X-10161501Y3755888D02*
X-10111909Y3776939D01*
X-10111909Y3776939D02*
X-10048047Y3833311D01*
X-10048047Y3833311D02*
X-9976693Y4009917D01*
X-9976693Y4009917D02*
X-9983473Y4094830D01*
X-9983473Y4094830D02*
X-10004523Y4144422D01*
X-10004523Y4144422D02*
X-10060895Y4208285D01*
X-10060895Y4208285D02*
X-10202180Y4265368D01*
X-10202180Y4265368D02*
X-10287094Y4258588D01*
X-10287094Y4258588D02*
X-10336686Y4237538D01*
X-10336686Y4237538D02*
X-10400548Y4181166D01*
X-9558195Y4333877D02*
X-9099018Y4148358D01*
X-9099018Y4148358D02*
X-9460433Y3965683D01*
X-9460433Y3965683D02*
X-9354469Y3922871D01*
X-9354469Y3922871D02*
X-9298097Y3859008D01*
X-9298097Y3859008D02*
X-9277047Y3809416D01*
X-9277047Y3809416D02*
X-9270267Y3724503D01*
X-9270267Y3724503D02*
X-9341621Y3547896D01*
X-9341621Y3547896D02*
X-9405483Y3491524D01*
X-9405483Y3491524D02*
X-9455075Y3470474D01*
X-9455075Y3470474D02*
X-9539989Y3463694D01*
X-9539989Y3463694D02*
X-9751916Y3549318D01*
X-9751916Y3549318D02*
X-9808288Y3613181D01*
X-9808288Y3613181D02*
X-9829339Y3662773D01*
X-9210545Y-7655863D02*
X-9703074Y-7025455D01*
X-9703074Y-7025455D02*
X-9552977Y-6908186D01*
X-9552977Y-6908186D02*
X-9439464Y-6867844D01*
X-9439464Y-6867844D02*
X-9332518Y-6880975D01*
X-9332518Y-6880975D02*
X-9255591Y-6917561D01*
X-9255591Y-6917561D02*
X-9131756Y-7014185D01*
X-9131756Y-7014185D02*
X-9061395Y-7104243D01*
X-9061395Y-7104243D02*
X-8997599Y-7247775D01*
X-8997599Y-7247775D02*
X-8980711Y-7331267D01*
X-8980711Y-7331267D02*
X-8993843Y-7438214D01*
X-8993843Y-7438214D02*
X-9060447Y-7538594D01*
X-9060447Y-7538594D02*
X-9210545Y-7655863D01*
X-9132704Y-6579833D02*
X-8712432Y-6251480D01*
X-8712432Y-6251480D02*
X-8490078Y-7092973D01*
X-8171134Y-6263664D02*
X-8254626Y-6280552D01*
X-8254626Y-6280552D02*
X-8308099Y-6273986D01*
X-8308099Y-6273986D02*
X-8385026Y-6237401D01*
X-8385026Y-6237401D02*
X-8408480Y-6207382D01*
X-8408480Y-6207382D02*
X-8425368Y-6123889D01*
X-8425368Y-6123889D02*
X-8418803Y-6070416D01*
X-8418803Y-6070416D02*
X-8382217Y-5993489D01*
X-8382217Y-5993489D02*
X-8262140Y-5899674D01*
X-8262140Y-5899674D02*
X-8178647Y-5882786D01*
X-8178647Y-5882786D02*
X-8125174Y-5889351D01*
X-8125174Y-5889351D02*
X-8048247Y-5925936D01*
X-8048247Y-5925936D02*
X-8024793Y-5955956D01*
X-8024793Y-5955956D02*
X-8007905Y-6039448D01*
X-8007905Y-6039448D02*
X-8014471Y-6092922D01*
X-8014471Y-6092922D02*
X-8051056Y-6169849D01*
X-8051056Y-6169849D02*
X-8171134Y-6263664D01*
X-8171134Y-6263664D02*
X-8207719Y-6340591D01*
X-8207719Y-6340591D02*
X-8214284Y-6394064D01*
X-8214284Y-6394064D02*
X-8197396Y-6477557D01*
X-8197396Y-6477557D02*
X-8103581Y-6597635D01*
X-8103581Y-6597635D02*
X-8026654Y-6634220D01*
X-8026654Y-6634220D02*
X-7973181Y-6640785D01*
X-7973181Y-6640785D02*
X-7889688Y-6623897D01*
X-7889688Y-6623897D02*
X-7769610Y-6530082D01*
X-7769610Y-6530082D02*
X-7733025Y-6453155D01*
X-7733025Y-6453155D02*
X-7726460Y-6399682D01*
X-7726460Y-6399682D02*
X-7743348Y-6316189D01*
X-7743348Y-6316189D02*
X-7837163Y-6196111D01*
X-7837163Y-6196111D02*
X-7914090Y-6159526D01*
X-7914090Y-6159526D02*
X-7967563Y-6152961D01*
X-7967563Y-6152961D02*
X-8051056Y-6169849D01*
X-3754002Y-11373356D02*
X-4505756Y-11099740D01*
X-4505756Y-11099740D02*
X-4440609Y-10920751D01*
X-4440609Y-10920751D02*
X-4365723Y-10826387D01*
X-4365723Y-10826387D02*
X-4268069Y-10780850D01*
X-4268069Y-10780850D02*
X-4183444Y-10771111D01*
X-4183444Y-10771111D02*
X-4027223Y-10787430D01*
X-4027223Y-10787430D02*
X-3919830Y-10826518D01*
X-3919830Y-10826518D02*
X-3789668Y-10914434D01*
X-3789668Y-10914434D02*
X-3731102Y-10976290D01*
X-3731102Y-10976290D02*
X-3685565Y-11073944D01*
X-3685565Y-11073944D02*
X-3688855Y-11194367D01*
X-3688855Y-11194367D02*
X-3754002Y-11373356D01*
X-3870871Y-10357857D02*
X-3932728Y-10416423D01*
X-3932728Y-10416423D02*
X-3981555Y-10439191D01*
X-3981555Y-10439191D02*
X-4066180Y-10448931D01*
X-4066180Y-10448931D02*
X-4101978Y-10435901D01*
X-4101978Y-10435901D02*
X-4160544Y-10374045D01*
X-4160544Y-10374045D02*
X-4183312Y-10325218D01*
X-4183312Y-10325218D02*
X-4193052Y-10240593D01*
X-4193052Y-10240593D02*
X-4140934Y-10097401D01*
X-4140934Y-10097401D02*
X-4079078Y-10038835D01*
X-4079078Y-10038835D02*
X-4030251Y-10016067D01*
X-4030251Y-10016067D02*
X-3945626Y-10006327D01*
X-3945626Y-10006327D02*
X-3909828Y-10019357D01*
X-3909828Y-10019357D02*
X-3851261Y-10081213D01*
X-3851261Y-10081213D02*
X-3828493Y-10130040D01*
X-3828493Y-10130040D02*
X-3818754Y-10214665D01*
X-3818754Y-10214665D02*
X-3870871Y-10357857D01*
X-3870871Y-10357857D02*
X-3861132Y-10442482D01*
X-3861132Y-10442482D02*
X-3838364Y-10491309D01*
X-3838364Y-10491309D02*
X-3779797Y-10553165D01*
X-3779797Y-10553165D02*
X-3636606Y-10605283D01*
X-3636606Y-10605283D02*
X-3551981Y-10595543D01*
X-3551981Y-10595543D02*
X-3503154Y-10572775D01*
X-3503154Y-10572775D02*
X-3441297Y-10514209D01*
X-3441297Y-10514209D02*
X-3389180Y-10371017D01*
X-3389180Y-10371017D02*
X-3398919Y-10286392D01*
X-3398919Y-10286392D02*
X-3421688Y-10237565D01*
X-3421688Y-10237565D02*
X-3480254Y-10175709D01*
X-3480254Y-10175709D02*
X-3623445Y-10123591D01*
X-3623445Y-10123591D02*
X-3708070Y-10133331D01*
X-3708070Y-10133331D02*
X-3756897Y-10156099D01*
X-3756897Y-10156099D02*
X-3818754Y-10214665D01*
X-3854289Y-9309849D02*
X-3906406Y-9453040D01*
X-3906406Y-9453040D02*
X-3896667Y-9537665D01*
X-3896667Y-9537665D02*
X-3873898Y-9586493D01*
X-3873898Y-9586493D02*
X-3792564Y-9697176D01*
X-3792564Y-9697176D02*
X-3662402Y-9785091D01*
X-3662402Y-9785091D02*
X-3376019Y-9889326D01*
X-3376019Y-9889326D02*
X-3291394Y-9879587D01*
X-3291394Y-9879587D02*
X-3242567Y-9856818D01*
X-3242567Y-9856818D02*
X-3180711Y-9798252D01*
X-3180711Y-9798252D02*
X-3128593Y-9655061D01*
X-3128593Y-9655061D02*
X-3138332Y-9570436D01*
X-3138332Y-9570436D02*
X-3161101Y-9521609D01*
X-3161101Y-9521609D02*
X-3219667Y-9459752D01*
X-3219667Y-9459752D02*
X-3398656Y-9394606D01*
X-3398656Y-9394606D02*
X-3483281Y-9404345D01*
X-3483281Y-9404345D02*
X-3532108Y-9427113D01*
X-3532108Y-9427113D02*
X-3593965Y-9485680D01*
X-3593965Y-9485680D02*
X-3646082Y-9628871D01*
X-3646082Y-9628871D02*
X-3636343Y-9713496D01*
X-3636343Y-9713496D02*
X-3613575Y-9762323D01*
X-3613575Y-9762323D02*
X-3555008Y-9824179D01*
X689819Y2306666D02*
X1404104Y2306666D01*
X1404104Y2306666D02*
X1546961Y2259047D01*
X1546961Y2259047D02*
X1642200Y2163809D01*
X1642200Y2163809D02*
X1689819Y2020952D01*
X1689819Y2020952D02*
X1689819Y1925714D01*
X1689819Y3306666D02*
X1689819Y2735238D01*
X1689819Y3020952D02*
X689819Y3020952D01*
X689819Y3020952D02*
X832676Y2925714D01*
X832676Y2925714D02*
X927914Y2830476D01*
X927914Y2830476D02*
X975533Y2735238D01*
X-5300370Y-10740208D02*
X-6006728Y-10364630D01*
X-6006728Y-10364630D02*
X-5917305Y-10196450D01*
X-5917305Y-10196450D02*
X-5830015Y-10113426D01*
X-5830015Y-10113426D02*
X-5726973Y-10081923D01*
X-5726973Y-10081923D02*
X-5641817Y-10084056D01*
X-5641817Y-10084056D02*
X-5489388Y-10121959D01*
X-5489388Y-10121959D02*
X-5388479Y-10175613D01*
X-5388479Y-10175613D02*
X-5271820Y-10280787D01*
X-5271820Y-10280787D02*
X-5222432Y-10350193D01*
X-5222432Y-10350193D02*
X-5190929Y-10453234D01*
X-5190929Y-10453234D02*
X-5210947Y-10572027D01*
X-5210947Y-10572027D02*
X-5300370Y-10740208D01*
X-5274772Y-9718326D02*
X-5344177Y-9767713D01*
X-5344177Y-9767713D02*
X-5395698Y-9783465D01*
X-5395698Y-9783465D02*
X-5480855Y-9781331D01*
X-5480855Y-9781331D02*
X-5514491Y-9763447D01*
X-5514491Y-9763447D02*
X-5563879Y-9694041D01*
X-5563879Y-9694041D02*
X-5579630Y-9642521D01*
X-5579630Y-9642521D02*
X-5577497Y-9557364D01*
X-5577497Y-9557364D02*
X-5505958Y-9422820D01*
X-5505958Y-9422820D02*
X-5436553Y-9373432D01*
X-5436553Y-9373432D02*
X-5385032Y-9357680D01*
X-5385032Y-9357680D02*
X-5299875Y-9359814D01*
X-5299875Y-9359814D02*
X-5266239Y-9377698D01*
X-5266239Y-9377698D02*
X-5216852Y-9447104D01*
X-5216852Y-9447104D02*
X-5201100Y-9498624D01*
X-5201100Y-9498624D02*
X-5203234Y-9583781D01*
X-5203234Y-9583781D02*
X-5274772Y-9718326D01*
X-5274772Y-9718326D02*
X-5276905Y-9803482D01*
X-5276905Y-9803482D02*
X-5261154Y-9855003D01*
X-5261154Y-9855003D02*
X-5211766Y-9924409D01*
X-5211766Y-9924409D02*
X-5077222Y-9995947D01*
X-5077222Y-9995947D02*
X-4992065Y-9998080D01*
X-4992065Y-9998080D02*
X-4940544Y-9982329D01*
X-4940544Y-9982329D02*
X-4871139Y-9932941D01*
X-4871139Y-9932941D02*
X-4799600Y-9798397D01*
X-4799600Y-9798397D02*
X-4797467Y-9713240D01*
X-4797467Y-9713240D02*
X-4813219Y-9661719D01*
X-4813219Y-9661719D02*
X-4862606Y-9592314D01*
X-4862606Y-9592314D02*
X-4997151Y-9520775D01*
X-4997151Y-9520775D02*
X-5082307Y-9518642D01*
X-5082307Y-9518642D02*
X-5133828Y-9534394D01*
X-5133828Y-9534394D02*
X-5203234Y-9583781D01*
X-4877044Y-8808018D02*
X-4406138Y-9058402D01*
X-5235556Y-8833121D02*
X-4820437Y-9269571D01*
X-4820437Y-9269571D02*
X-4587937Y-8832302D01*
X-5940145Y10400033D02*
X-5233787Y10775610D01*
X-5233787Y10775610D02*
X-5144364Y10607430D01*
X-5144364Y10607430D02*
X-5124346Y10488637D01*
X-5124346Y10488637D02*
X-5155849Y10385595D01*
X-5155849Y10385595D02*
X-5205237Y10316190D01*
X-5205237Y10316190D02*
X-5321897Y10211015D01*
X-5321897Y10211015D02*
X-5422805Y10157361D01*
X-5422805Y10157361D02*
X-5575234Y10119459D01*
X-5575234Y10119459D02*
X-5660391Y10117326D01*
X-5660391Y10117326D02*
X-5763432Y10148829D01*
X-5763432Y10148829D02*
X-5850722Y10231852D01*
X-5850722Y10231852D02*
X-5940145Y10400033D01*
X-4679364Y9732891D02*
X-4858210Y10069252D01*
X-4858210Y10069252D02*
X-5212456Y9924042D01*
X-5212456Y9924042D02*
X-5160935Y9908290D01*
X-5160935Y9908290D02*
X-5091530Y9858903D01*
X-5091530Y9858903D02*
X-5002106Y9690722D01*
X-5002106Y9690722D02*
X-4999973Y9605566D01*
X-4999973Y9605566D02*
X-5015725Y9554045D01*
X-5015725Y9554045D02*
X-5065112Y9484639D01*
X-5065112Y9484639D02*
X-5233293Y9395216D01*
X-5233293Y9395216D02*
X-5318450Y9393083D01*
X-5318450Y9393083D02*
X-5369970Y9408835D01*
X-5369970Y9408835D02*
X-5439376Y9458222D01*
X-5439376Y9458222D02*
X-5528799Y9626403D01*
X-5528799Y9626403D02*
X-5530932Y9711559D01*
X-5530932Y9711559D02*
X-5515181Y9763080D01*
X-4536287Y9463802D02*
X-4303786Y9026533D01*
X-4303786Y9026533D02*
X-4698068Y9118908D01*
X-4698068Y9118908D02*
X-4644414Y9018000D01*
X-4644414Y9018000D02*
X-4642281Y8932843D01*
X-4642281Y8932843D02*
X-4658032Y8881323D01*
X-4658032Y8881323D02*
X-4707420Y8811917D01*
X-4707420Y8811917D02*
X-4875600Y8722494D01*
X-4875600Y8722494D02*
X-4960757Y8720361D01*
X-4960757Y8720361D02*
X-5012278Y8736112D01*
X-5012278Y8736112D02*
X-5081683Y8785500D01*
X-5081683Y8785500D02*
X-5188991Y8987317D01*
X-5188991Y8987317D02*
X-5191124Y9072473D01*
X-5191124Y9072473D02*
X-5175372Y9123994D01*
X3770397Y9299843D02*
X3018643Y9573459D01*
X3018643Y9573459D02*
X3083790Y9752448D01*
X3083790Y9752448D02*
X3158676Y9846812D01*
X3158676Y9846812D02*
X3256330Y9892349D01*
X3256330Y9892349D02*
X3340955Y9902088D01*
X3340955Y9902088D02*
X3497176Y9885769D01*
X3497176Y9885769D02*
X3604569Y9846681D01*
X3604569Y9846681D02*
X3734731Y9758765D01*
X3734731Y9758765D02*
X3793297Y9696909D01*
X3793297Y9696909D02*
X3838834Y9599255D01*
X3838834Y9599255D02*
X3835544Y9478832D01*
X3835544Y9478832D02*
X3770397Y9299843D01*
X3660108Y10556188D02*
X4161278Y10373777D01*
X3308579Y10481434D02*
X3780400Y10107004D01*
X3780400Y10107004D02*
X3949781Y10572376D01*
X4447923Y11161329D02*
X4291571Y10731756D01*
X4369747Y10946542D02*
X3617993Y11220159D01*
X3617993Y11220159D02*
X3699328Y11109475D01*
X3699328Y11109475D02*
X3744865Y11011821D01*
X3744865Y11011821D02*
X3754604Y10927196D01*
X-1962295Y509523D02*
X-2609914Y509523D01*
X-2609914Y509523D02*
X-2686104Y471428D01*
X-2686104Y471428D02*
X-2724200Y433333D01*
X-2724200Y433333D02*
X-2762295Y357142D01*
X-2762295Y357142D02*
X-2762295Y204761D01*
X-2762295Y204761D02*
X-2724200Y128571D01*
X-2724200Y128571D02*
X-2686104Y90476D01*
X-2686104Y90476D02*
X-2609914Y52380D01*
X-2609914Y52380D02*
X-1962295Y52380D01*
X-2762295Y-747618D02*
X-2762295Y-290475D01*
X-2762295Y-519047D02*
X-1962295Y-519047D01*
X-1962295Y-519047D02*
X-2076580Y-442856D01*
X-2076580Y-442856D02*
X-2152771Y-366666D01*
X-2152771Y-366666D02*
X-2190866Y-290475D01*
X-1962295Y509523D02*
X-2609914Y509523D01*
X-2609914Y509523D02*
X-2686104Y471428D01*
X-2686104Y471428D02*
X-2724200Y433333D01*
X-2724200Y433333D02*
X-2762295Y357142D01*
X-2762295Y357142D02*
X-2762295Y204761D01*
X-2762295Y204761D02*
X-2724200Y128571D01*
X-2724200Y128571D02*
X-2686104Y90476D01*
X-2686104Y90476D02*
X-2609914Y52380D01*
X-2609914Y52380D02*
X-1962295Y52380D01*
X-2762295Y-747618D02*
X-2762295Y-290475D01*
X-2762295Y-519047D02*
X-1962295Y-519047D01*
X-1962295Y-519047D02*
X-2076580Y-442856D01*
X-2076580Y-442856D02*
X-2152771Y-366666D01*
X-2152771Y-366666D02*
X-2190866Y-290475D01*
X9818373Y2074556D02*
X9624836Y2850793D01*
X9624836Y2850793D02*
X9809654Y2896873D01*
X9809654Y2896873D02*
X9929761Y2887558D01*
X9929761Y2887558D02*
X10022121Y2832062D01*
X10022121Y2832062D02*
X10077516Y2767351D01*
X10077516Y2767351D02*
X10151344Y2628713D01*
X10151344Y2628713D02*
X10178993Y2517822D01*
X10178993Y2517822D02*
X10178893Y2360751D01*
X10178893Y2360751D02*
X10160362Y2277608D01*
X10160362Y2277608D02*
X10104867Y2185248D01*
X10104867Y2185248D02*
X10003192Y2120636D01*
X10003192Y2120636D02*
X9818373Y2074556D01*
X10382541Y2961187D02*
X10410289Y3007367D01*
X10410289Y3007367D02*
X10475000Y3062762D01*
X10475000Y3062762D02*
X10659818Y3108843D01*
X10659818Y3108843D02*
X10742961Y3090311D01*
X10742961Y3090311D02*
X10789141Y3062564D01*
X10789141Y3062564D02*
X10844537Y2997852D01*
X10844537Y2997852D02*
X10862969Y2923925D01*
X10862969Y2923925D02*
X10853654Y2803818D01*
X10853654Y2803818D02*
X10520683Y2249661D01*
X10520683Y2249661D02*
X11001210Y2369470D01*
X11066418Y3210220D02*
X11583909Y3339245D01*
X11583909Y3339245D02*
X11444774Y2480063D01*
X9425760Y-3443575D02*
X9672974Y-2682730D01*
X9672974Y-2682730D02*
X9854128Y-2741590D01*
X9854128Y-2741590D02*
X9951048Y-2813137D01*
X9951048Y-2813137D02*
X9999965Y-2909142D01*
X9999965Y-2909142D02*
X10012652Y-2993376D01*
X10012652Y-2993376D02*
X10001794Y-3150071D01*
X10001794Y-3150071D02*
X9966478Y-3258763D01*
X9966478Y-3258763D02*
X9883159Y-3391914D01*
X9883159Y-3391914D02*
X9823384Y-3452603D01*
X9823384Y-3452603D02*
X9727378Y-3501521D01*
X9727378Y-3501521D02*
X9606914Y-3502435D01*
X9606914Y-3502435D02*
X9425760Y-3443575D01*
X10585144Y-3820281D02*
X10150375Y-3679016D01*
X10367759Y-3749649D02*
X10614973Y-2988803D01*
X10614973Y-2988803D02*
X10507195Y-3073952D01*
X10507195Y-3073952D02*
X10411190Y-3122869D01*
X10411190Y-3122869D02*
X10326956Y-3135555D01*
X10947451Y-3938002D02*
X11092374Y-3985090D01*
X11092374Y-3985090D02*
X11176607Y-3972404D01*
X11176607Y-3972404D02*
X11224610Y-3947945D01*
X11224610Y-3947945D02*
X11332388Y-3862797D01*
X11332388Y-3862797D02*
X11415707Y-3729646D01*
X11415707Y-3729646D02*
X11509884Y-3439800D01*
X11509884Y-3439800D02*
X11497197Y-3355567D01*
X11497197Y-3355567D02*
X11472738Y-3307564D01*
X11472738Y-3307564D02*
X11412049Y-3247789D01*
X11412049Y-3247789D02*
X11267126Y-3200701D01*
X11267126Y-3200701D02*
X11182893Y-3213388D01*
X11182893Y-3213388D02*
X11134890Y-3237846D01*
X11134890Y-3237846D02*
X11075115Y-3298536D01*
X11075115Y-3298536D02*
X11016255Y-3479689D01*
X11016255Y-3479689D02*
X11028941Y-3563923D01*
X11028941Y-3563923D02*
X11053400Y-3611925D01*
X11053400Y-3611925D02*
X11114089Y-3671700D01*
X11114089Y-3671700D02*
X11259012Y-3718789D01*
X11259012Y-3718789D02*
X11343246Y-3706102D01*
X11343246Y-3706102D02*
X11391248Y-3681643D01*
X11391248Y-3681643D02*
X11451023Y-3620954D01*
X5621564Y8312694D02*
X4943126Y8736629D01*
X4943126Y8736629D02*
X5044063Y8898162D01*
X5044063Y8898162D02*
X5136932Y8974895D01*
X5136932Y8974895D02*
X5241920Y8999133D01*
X5241920Y8999133D02*
X5326720Y8991065D01*
X5326720Y8991065D02*
X5476134Y8942622D01*
X5476134Y8942622D02*
X5573054Y8882060D01*
X5573054Y8882060D02*
X5682093Y8769003D01*
X5682093Y8769003D02*
X5726519Y8696322D01*
X5726519Y8696322D02*
X5750757Y8591334D01*
X5750757Y8591334D02*
X5722501Y8474227D01*
X5722501Y8474227D02*
X5621564Y8312694D01*
X5326687Y9350455D02*
X5589123Y9770440D01*
X5589123Y9770440D02*
X5706264Y9382795D01*
X5706264Y9382795D02*
X5766826Y9479715D01*
X5766826Y9479715D02*
X5839507Y9524141D01*
X5839507Y9524141D02*
X5892001Y9536260D01*
X5892001Y9536260D02*
X5976802Y9528192D01*
X5976802Y9528192D02*
X6138335Y9427255D01*
X6138335Y9427255D02*
X6182761Y9354573D01*
X6182761Y9354573D02*
X6194880Y9302079D01*
X6194880Y9302079D02*
X6186812Y9217279D01*
X6186812Y9217279D02*
X6065687Y9023439D01*
X6065687Y9023439D02*
X5993006Y8979013D01*
X5993006Y8979013D02*
X5940512Y8966894D01*
X6122131Y9976433D02*
X6049450Y9932007D01*
X6049450Y9932007D02*
X5996956Y9919888D01*
X5996956Y9919888D02*
X5912155Y9927956D01*
X5912155Y9927956D02*
X5879848Y9948144D01*
X5879848Y9948144D02*
X5835423Y10020825D01*
X5835423Y10020825D02*
X5823304Y10073319D01*
X5823304Y10073319D02*
X5831372Y10158120D01*
X5831372Y10158120D02*
X5912121Y10287346D01*
X5912121Y10287346D02*
X5984803Y10331772D01*
X5984803Y10331772D02*
X6037297Y10343891D01*
X6037297Y10343891D02*
X6122097Y10335823D01*
X6122097Y10335823D02*
X6154404Y10315635D01*
X6154404Y10315635D02*
X6198830Y10242954D01*
X6198830Y10242954D02*
X6210949Y10190460D01*
X6210949Y10190460D02*
X6202881Y10105659D01*
X6202881Y10105659D02*
X6122131Y9976433D01*
X6122131Y9976433D02*
X6114063Y9891632D01*
X6114063Y9891632D02*
X6126182Y9839138D01*
X6126182Y9839138D02*
X6170608Y9766457D01*
X6170608Y9766457D02*
X6299834Y9685707D01*
X6299834Y9685707D02*
X6384635Y9677639D01*
X6384635Y9677639D02*
X6437129Y9689758D01*
X6437129Y9689758D02*
X6509810Y9734184D01*
X6509810Y9734184D02*
X6590560Y9863411D01*
X6590560Y9863411D02*
X6598628Y9948211D01*
X6598628Y9948211D02*
X6586509Y10000705D01*
X6586509Y10000705D02*
X6542083Y10073387D01*
X6542083Y10073387D02*
X6412857Y10154136D01*
X6412857Y10154136D02*
X6328056Y10162204D01*
X6328056Y10162204D02*
X6275562Y10150085D01*
X6275562Y10150085D02*
X6202881Y10105659D01*
X5208951Y-9019735D02*
X5887390Y-8595799D01*
X5887390Y-8595799D02*
X5988327Y-8757332D01*
X5988327Y-8757332D02*
X6016582Y-8874440D01*
X6016582Y-8874440D02*
X5992344Y-8979428D01*
X5992344Y-8979428D02*
X5947918Y-9052109D01*
X5947918Y-9052109D02*
X5838879Y-9165165D01*
X5838879Y-9165165D02*
X5741959Y-9225727D01*
X5741959Y-9225727D02*
X5592546Y-9274170D01*
X5592546Y-9274170D02*
X5507745Y-9282239D01*
X5507745Y-9282239D02*
X5402757Y-9258000D01*
X5402757Y-9258000D02*
X5309888Y-9181268D01*
X5309888Y-9181268D02*
X5208951Y-9019735D01*
X5653074Y-9730480D02*
X5733824Y-9859706D01*
X5733824Y-9859706D02*
X5806505Y-9904132D01*
X5806505Y-9904132D02*
X5858999Y-9916251D01*
X5858999Y-9916251D02*
X5996294Y-9920302D01*
X5996294Y-9920302D02*
X6145707Y-9871859D01*
X6145707Y-9871859D02*
X6404160Y-9710360D01*
X6404160Y-9710360D02*
X6448586Y-9637679D01*
X6448586Y-9637679D02*
X6460705Y-9585185D01*
X6460705Y-9585185D02*
X6452637Y-9500384D01*
X6452637Y-9500384D02*
X6371887Y-9371158D01*
X6371887Y-9371158D02*
X6299206Y-9326732D01*
X6299206Y-9326732D02*
X6246712Y-9314613D01*
X6246712Y-9314613D02*
X6161911Y-9322681D01*
X6161911Y-9322681D02*
X6000378Y-9423618D01*
X6000378Y-9423618D02*
X5955953Y-9496299D01*
X5955953Y-9496299D02*
X5943833Y-9548793D01*
X5943833Y-9548793D02*
X5951902Y-9633594D01*
X5951902Y-9633594D02*
X6032651Y-9762820D01*
X6032651Y-9762820D02*
X6105333Y-9807246D01*
X6105333Y-9807246D02*
X6157827Y-9819365D01*
X6157827Y-9819365D02*
X6242627Y-9811297D01*
X-6743488Y-9898054D02*
X-7390702Y-9427826D01*
X-7390702Y-9427826D02*
X-7278743Y-9273727D01*
X-7278743Y-9273727D02*
X-7180747Y-9203660D01*
X-7180747Y-9203660D02*
X-7074324Y-9186804D01*
X-7074324Y-9186804D02*
X-6990293Y-9200768D01*
X-6990293Y-9200768D02*
X-6844623Y-9259516D01*
X-6844623Y-9259516D02*
X-6752163Y-9326691D01*
X-6752163Y-9326691D02*
X-6651276Y-9447078D01*
X-6651276Y-9447078D02*
X-6612029Y-9522681D01*
X-6612029Y-9522681D02*
X-6595173Y-9629104D01*
X-6595173Y-9629104D02*
X-6631529Y-9743955D01*
X-6631529Y-9743955D02*
X-6743488Y-9898054D01*
X-6575921Y-8889679D02*
X-6651524Y-8928927D01*
X-6651524Y-8928927D02*
X-6704736Y-8937355D01*
X-6704736Y-8937355D02*
X-6788767Y-8923391D01*
X-6788767Y-8923391D02*
X-6819586Y-8900999D01*
X-6819586Y-8900999D02*
X-6858834Y-8825396D01*
X-6858834Y-8825396D02*
X-6867262Y-8772184D01*
X-6867262Y-8772184D02*
X-6853298Y-8688153D01*
X-6853298Y-8688153D02*
X-6763731Y-8564874D01*
X-6763731Y-8564874D02*
X-6688127Y-8525626D01*
X-6688127Y-8525626D02*
X-6634916Y-8517199D01*
X-6634916Y-8517199D02*
X-6550885Y-8531163D01*
X-6550885Y-8531163D02*
X-6520065Y-8553554D01*
X-6520065Y-8553554D02*
X-6480817Y-8629158D01*
X-6480817Y-8629158D02*
X-6472389Y-8682369D01*
X-6472389Y-8682369D02*
X-6486353Y-8766400D01*
X-6486353Y-8766400D02*
X-6575921Y-8889679D01*
X-6575921Y-8889679D02*
X-6589885Y-8973710D01*
X-6589885Y-8973710D02*
X-6581457Y-9026922D01*
X-6581457Y-9026922D02*
X-6542209Y-9102525D01*
X-6542209Y-9102525D02*
X-6418930Y-9192093D01*
X-6418930Y-9192093D02*
X-6334899Y-9206056D01*
X-6334899Y-9206056D02*
X-6281688Y-9197629D01*
X-6281688Y-9197629D02*
X-6206084Y-9158381D01*
X-6206084Y-9158381D02*
X-6116517Y-9035102D01*
X-6116517Y-9035102D02*
X-6102553Y-8951071D01*
X-6102553Y-8951071D02*
X-6110981Y-8897860D01*
X-6110981Y-8897860D02*
X-6150229Y-8822256D01*
X-6150229Y-8822256D02*
X-6273507Y-8732689D01*
X-6273507Y-8732689D02*
X-6357539Y-8718725D01*
X-6357539Y-8718725D02*
X-6410750Y-8727153D01*
X-6410750Y-8727153D02*
X-6486353Y-8766400D01*
X-6433389Y-8239821D02*
X-6441817Y-8186610D01*
X-6441817Y-8186610D02*
X-6427853Y-8102578D01*
X-6427853Y-8102578D02*
X-6315894Y-7948480D01*
X-6315894Y-7948480D02*
X-6240291Y-7909232D01*
X-6240291Y-7909232D02*
X-6187079Y-7900805D01*
X-6187079Y-7900805D02*
X-6103048Y-7914768D01*
X-6103048Y-7914768D02*
X-6041409Y-7959552D01*
X-6041409Y-7959552D02*
X-5971341Y-8057547D01*
X-5971341Y-8057547D02*
X-5870207Y-8696085D01*
X-5870207Y-8696085D02*
X-5579113Y-8295429D01*
X-387704Y-5712969D02*
X-768657Y-5979636D01*
X-387704Y-6170112D02*
X-1187704Y-6170112D01*
X-1187704Y-6170112D02*
X-1187704Y-5865350D01*
X-1187704Y-5865350D02*
X-1149609Y-5789160D01*
X-1149609Y-5789160D02*
X-1111514Y-5751065D01*
X-1111514Y-5751065D02*
X-1035323Y-5712969D01*
X-1035323Y-5712969D02*
X-921038Y-5712969D01*
X-921038Y-5712969D02*
X-844847Y-5751065D01*
X-844847Y-5751065D02*
X-806752Y-5789160D01*
X-806752Y-5789160D02*
X-768657Y-5865350D01*
X-768657Y-5865350D02*
X-768657Y-6170112D01*
X-387704Y-4951065D02*
X-387704Y-5408208D01*
X-387704Y-5179636D02*
X-1187704Y-5179636D01*
X-1187704Y-5179636D02*
X-1073419Y-5255827D01*
X-1073419Y-5255827D02*
X-997228Y-5332017D01*
X-997228Y-5332017D02*
X-959133Y-5408208D01*
X-387704Y-4033332D02*
X-768657Y-4299999D01*
X-387704Y-4490475D02*
X-1187704Y-4490475D01*
X-1187704Y-4490475D02*
X-1187704Y-4185713D01*
X-1187704Y-4185713D02*
X-1149609Y-4109523D01*
X-1149609Y-4109523D02*
X-1111514Y-4071428D01*
X-1111514Y-4071428D02*
X-1035323Y-4033332D01*
X-1035323Y-4033332D02*
X-921038Y-4033332D01*
X-921038Y-4033332D02*
X-844847Y-4071428D01*
X-844847Y-4071428D02*
X-806752Y-4109523D01*
X-806752Y-4109523D02*
X-768657Y-4185713D01*
X-768657Y-4185713D02*
X-768657Y-4490475D01*
X-387704Y-3271428D02*
X-387704Y-3728571D01*
X-387704Y-3499999D02*
X-1187704Y-3499999D01*
X-1187704Y-3499999D02*
X-1073419Y-3576190D01*
X-1073419Y-3576190D02*
X-997228Y-3652380D01*
X-997228Y-3652380D02*
X-959133Y-3728571D01*
X5028029Y8684591D02*
X4321671Y9060169D01*
X4321671Y9060169D02*
X4411094Y9228349D01*
X4411094Y9228349D02*
X4498384Y9311373D01*
X4498384Y9311373D02*
X4601426Y9342876D01*
X4601426Y9342876D02*
X4686582Y9340743D01*
X4686582Y9340743D02*
X4839011Y9302840D01*
X4839011Y9302840D02*
X4939920Y9249186D01*
X4939920Y9249186D02*
X5056579Y9144012D01*
X5056579Y9144012D02*
X5105967Y9074606D01*
X5105967Y9074606D02*
X5137470Y8971565D01*
X5137470Y8971565D02*
X5117452Y8852772D01*
X5117452Y8852772D02*
X5028029Y8684591D01*
X4661479Y9699255D02*
X4893979Y10136524D01*
X4893979Y10136524D02*
X5037875Y9757994D01*
X5037875Y9757994D02*
X5091529Y9858902D01*
X5091529Y9858902D02*
X5160935Y9908290D01*
X5160935Y9908290D02*
X5212455Y9924041D01*
X5212455Y9924041D02*
X5297612Y9921908D01*
X5297612Y9921908D02*
X5465793Y9832485D01*
X5465793Y9832485D02*
X5515180Y9763080D01*
X5515180Y9763080D02*
X5530932Y9711559D01*
X5530932Y9711559D02*
X5528799Y9626402D01*
X5528799Y9626402D02*
X5421491Y9424586D01*
X5421491Y9424586D02*
X5352086Y9375198D01*
X5352086Y9375198D02*
X5300565Y9359447D01*
X5779184Y10097308D02*
X5850722Y10231852D01*
X5850722Y10231852D02*
X5852855Y10317009D01*
X5852855Y10317009D02*
X5837104Y10368530D01*
X5837104Y10368530D02*
X5771965Y10489456D01*
X5771965Y10489456D02*
X5655305Y10594630D01*
X5655305Y10594630D02*
X5386216Y10737708D01*
X5386216Y10737708D02*
X5301059Y10739841D01*
X5301059Y10739841D02*
X5249539Y10724089D01*
X5249539Y10724089D02*
X5180133Y10674702D01*
X5180133Y10674702D02*
X5108595Y10540157D01*
X5108595Y10540157D02*
X5106462Y10455000D01*
X5106462Y10455000D02*
X5122213Y10403480D01*
X5122213Y10403480D02*
X5171601Y10334074D01*
X5171601Y10334074D02*
X5339781Y10244651D01*
X5339781Y10244651D02*
X5424938Y10242518D01*
X5424938Y10242518D02*
X5476459Y10258269D01*
X5476459Y10258269D02*
X5545864Y10307657D01*
X5545864Y10307657D02*
X5617403Y10442201D01*
X5617403Y10442201D02*
X5619536Y10527358D01*
X5619536Y10527358D02*
X5603784Y10578879D01*
X5603784Y10578879D02*
X5554397Y10648284D01*
X-7972656Y8937778D02*
X-7359821Y9452008D01*
X-7359821Y9452008D02*
X-7237385Y9306095D01*
X-7237385Y9306095D02*
X-7193106Y9194060D01*
X-7193106Y9194060D02*
X-7202497Y9086720D01*
X-7202497Y9086720D02*
X-7236375Y9008564D01*
X-7236375Y9008564D02*
X-7328619Y8881432D01*
X-7328619Y8881432D02*
X-7416167Y8807971D01*
X-7416167Y8807971D02*
X-7557384Y8739205D01*
X-7557384Y8739205D02*
X-7640237Y8719413D01*
X-7640237Y8719413D02*
X-7747576Y8728804D01*
X-7747576Y8728804D02*
X-7850220Y8791865D01*
X-7850220Y8791865D02*
X-7972656Y8937778D01*
X-6600719Y8547346D02*
X-6845591Y8839173D01*
X-6845591Y8839173D02*
X-7161904Y8623484D01*
X-7161904Y8623484D02*
X-7108234Y8618788D01*
X-7108234Y8618788D02*
X-7030077Y8584910D01*
X-7030077Y8584910D02*
X-6907642Y8438997D01*
X-6907642Y8438997D02*
X-6887850Y8356145D01*
X-6887850Y8356145D02*
X-6892545Y8302475D01*
X-6892545Y8302475D02*
X-6926424Y8224318D01*
X-6926424Y8224318D02*
X-7072337Y8101882D01*
X-7072337Y8101882D02*
X-7155189Y8082091D01*
X-7155189Y8082091D02*
X-7208859Y8086786D01*
X-7208859Y8086786D02*
X-7287016Y8120664D01*
X-7287016Y8120664D02*
X-7409452Y8266577D01*
X-7409452Y8266577D02*
X-7429243Y8349430D01*
X-7429243Y8349430D02*
X-7424548Y8403100D01*
X-6135463Y7992876D02*
X-6233412Y8109606D01*
X-6233412Y8109606D02*
X-6311569Y8143485D01*
X-6311569Y8143485D02*
X-6365238Y8148180D01*
X-6365238Y8148180D02*
X-6501761Y8133084D01*
X-6501761Y8133084D02*
X-6642978Y8064318D01*
X-6642978Y8064318D02*
X-6876440Y7868421D01*
X-6876440Y7868421D02*
X-6910318Y7790264D01*
X-6910318Y7790264D02*
X-6915013Y7736594D01*
X-6915013Y7736594D02*
X-6895222Y7653742D01*
X-6895222Y7653742D02*
X-6797273Y7537011D01*
X-6797273Y7537011D02*
X-6719116Y7503133D01*
X-6719116Y7503133D02*
X-6665446Y7498437D01*
X-6665446Y7498437D02*
X-6582594Y7518229D01*
X-6582594Y7518229D02*
X-6436681Y7640665D01*
X-6436681Y7640665D02*
X-6402802Y7718822D01*
X-6402802Y7718822D02*
X-6398107Y7772492D01*
X-6398107Y7772492D02*
X-6417899Y7855344D01*
X-6417899Y7855344D02*
X-6515847Y7972075D01*
X-6515847Y7972075D02*
X-6594004Y8005953D01*
X-6594004Y8005953D02*
X-6647674Y8010648D01*
X-6647674Y8010648D02*
X-6730526Y7990857D01*
X364697Y-10409434D02*
X1162749Y-10353629D01*
X1162749Y-10353629D02*
X1176035Y-10543642D01*
X1176035Y-10543642D02*
X1146005Y-10660306D01*
X1146005Y-10660306D02*
X1075315Y-10741626D01*
X1075315Y-10741626D02*
X1001968Y-10784943D01*
X1001968Y-10784943D02*
X852615Y-10833575D01*
X852615Y-10833575D02*
X738608Y-10841547D01*
X738608Y-10841547D02*
X583941Y-10814174D01*
X583941Y-10814174D02*
X505278Y-10781487D01*
X505278Y-10781487D02*
X423959Y-10710797D01*
X423959Y-10710797D02*
X377984Y-10599447D01*
X377984Y-10599447D02*
X364697Y-10409434D01*
X1139891Y-11118993D02*
X1180551Y-11154338D01*
X1180551Y-11154338D02*
X1223868Y-11227685D01*
X1223868Y-11227685D02*
X1237155Y-11417698D01*
X1237155Y-11417698D02*
X1204468Y-11496360D01*
X1204468Y-11496360D02*
X1169123Y-11537020D01*
X1169123Y-11537020D02*
X1095775Y-11580337D01*
X1095775Y-11580337D02*
X1019770Y-11585652D01*
X1019770Y-11585652D02*
X903106Y-11555621D01*
X903106Y-11555621D02*
X415188Y-11131481D01*
X415188Y-11131481D02*
X449734Y-11625513D01*
X463076Y-3004730D02*
X463076Y-3814253D01*
X463076Y-3814253D02*
X510695Y-3909491D01*
X510695Y-3909491D02*
X558314Y-3957111D01*
X558314Y-3957111D02*
X653552Y-4004730D01*
X653552Y-4004730D02*
X844028Y-4004730D01*
X844028Y-4004730D02*
X939266Y-3957111D01*
X939266Y-3957111D02*
X986885Y-3909491D01*
X986885Y-3909491D02*
X1034504Y-3814253D01*
X1034504Y-3814253D02*
X1034504Y-3004730D01*
X1463076Y-3099968D02*
X1510695Y-3052349D01*
X1510695Y-3052349D02*
X1605933Y-3004730D01*
X1605933Y-3004730D02*
X1844028Y-3004730D01*
X1844028Y-3004730D02*
X1939266Y-3052349D01*
X1939266Y-3052349D02*
X1986885Y-3099968D01*
X1986885Y-3099968D02*
X2034504Y-3195206D01*
X2034504Y-3195206D02*
X2034504Y-3290444D01*
X2034504Y-3290444D02*
X1986885Y-3433301D01*
X1986885Y-3433301D02*
X1415457Y-4004730D01*
X1415457Y-4004730D02*
X2034504Y-4004730D01*
X-8654089Y-8279650D02*
X-9189393Y-7685134D01*
X-9189393Y-7685134D02*
X-9047842Y-7557681D01*
X-9047842Y-7557681D02*
X-8937421Y-7509519D01*
X-8937421Y-7509519D02*
X-8829819Y-7515158D01*
X-8829819Y-7515158D02*
X-8750527Y-7546288D01*
X-8750527Y-7546288D02*
X-8620254Y-7634038D01*
X-8620254Y-7634038D02*
X-8543782Y-7718969D01*
X-8543782Y-7718969D02*
X-8470129Y-7857701D01*
X-8470129Y-7857701D02*
X-8447458Y-7939812D01*
X-8447458Y-7939812D02*
X-8453097Y-8047414D01*
X-8453097Y-8047414D02*
X-8512538Y-8152197D01*
X-8512538Y-8152197D02*
X-8654089Y-8279650D01*
X-8651498Y-7200811D02*
X-8255154Y-6843941D01*
X-8255154Y-6843941D02*
X-7974642Y-7667874D01*
X-7465057Y-7209041D02*
X-7351816Y-7107078D01*
X-7351816Y-7107078D02*
X-7320686Y-7027787D01*
X-7320686Y-7027787D02*
X-7317866Y-6973986D01*
X-7317866Y-6973986D02*
X-7337718Y-6838073D01*
X-7337718Y-6838073D02*
X-7411370Y-6699342D01*
X-7411370Y-6699342D02*
X-7615296Y-6472859D01*
X-7615296Y-6472859D02*
X-7694588Y-6441729D01*
X-7694588Y-6441729D02*
X-7748389Y-6438910D01*
X-7748389Y-6438910D02*
X-7830500Y-6461581D01*
X-7830500Y-6461581D02*
X-7943741Y-6563544D01*
X-7943741Y-6563544D02*
X-7974871Y-6642835D01*
X-7974871Y-6642835D02*
X-7977690Y-6696636D01*
X-7977690Y-6696636D02*
X-7955019Y-6778748D01*
X-7955019Y-6778748D02*
X-7827566Y-6920299D01*
X-7827566Y-6920299D02*
X-7748274Y-6951429D01*
X-7748274Y-6951429D02*
X-7694473Y-6954248D01*
X-7694473Y-6954248D02*
X-7612362Y-6931577D01*
X-7612362Y-6931577D02*
X-7499121Y-6829615D01*
X-7499121Y-6829615D02*
X-7467991Y-6750323D01*
X-7467991Y-6750323D02*
X-7465171Y-6696522D01*
X-7465171Y-6696522D02*
X-7487843Y-6614411D01*
X-6651122Y9960331D02*
X-5972684Y10384266D01*
X-5972684Y10384266D02*
X-5871747Y10222733D01*
X-5871747Y10222733D02*
X-5843491Y10105626D01*
X-5843491Y10105626D02*
X-5867729Y10000638D01*
X-5867729Y10000638D02*
X-5912155Y9927956D01*
X-5912155Y9927956D02*
X-6021194Y9814900D01*
X-6021194Y9814900D02*
X-6118114Y9754338D01*
X-6118114Y9754338D02*
X-6267528Y9705895D01*
X-6267528Y9705895D02*
X-6352328Y9697827D01*
X-6352328Y9697827D02*
X-6457316Y9722065D01*
X-6457316Y9722065D02*
X-6550185Y9798798D01*
X-6550185Y9798798D02*
X-6651122Y9960331D01*
X-5346874Y9382762D02*
X-5548748Y9705828D01*
X-5548748Y9705828D02*
X-5892002Y9536260D01*
X-5892002Y9536260D02*
X-5839508Y9524141D01*
X-5839508Y9524141D02*
X-5766826Y9479715D01*
X-5766826Y9479715D02*
X-5665889Y9318182D01*
X-5665889Y9318182D02*
X-5657821Y9233382D01*
X-5657821Y9233382D02*
X-5669940Y9180888D01*
X-5669940Y9180888D02*
X-5714366Y9108206D01*
X-5714366Y9108206D02*
X-5875899Y9007269D01*
X-5875899Y9007269D02*
X-5960700Y8999201D01*
X-5960700Y8999201D02*
X-6013194Y9011320D01*
X-6013194Y9011320D02*
X-6085875Y9055746D01*
X-6085875Y9055746D02*
X-6186812Y9217279D01*
X-6186812Y9217279D02*
X-6194880Y9302080D01*
X-6194880Y9302080D02*
X-6182761Y9354574D01*
X-5189460Y8627624D02*
X-5641752Y8345001D01*
X-5031944Y8950657D02*
X-5617480Y8809378D01*
X-5617480Y8809378D02*
X-5355044Y8389393D01*
X-11528226Y-3247643D02*
X-11721763Y-2471406D01*
X-11721763Y-2471406D02*
X-11536945Y-2425326D01*
X-11536945Y-2425326D02*
X-11416838Y-2434641D01*
X-11416838Y-2434641D02*
X-11324478Y-2490137D01*
X-11324478Y-2490137D02*
X-11269083Y-2554848D01*
X-11269083Y-2554848D02*
X-11195255Y-2693486D01*
X-11195255Y-2693486D02*
X-11167606Y-2804377D01*
X-11167606Y-2804377D02*
X-11167706Y-2961448D01*
X-11167706Y-2961448D02*
X-11186237Y-3044591D01*
X-11186237Y-3044591D02*
X-11241732Y-3136951D01*
X-11241732Y-3136951D02*
X-11343407Y-3201563D01*
X-11343407Y-3201563D02*
X-11528226Y-3247643D01*
X-11019454Y-2296301D02*
X-10501963Y-2167276D01*
X-10501963Y-2167276D02*
X-10641098Y-3026457D01*
X-10224785Y-2176691D02*
X-10197037Y-2130511D01*
X-10197037Y-2130511D02*
X-10132326Y-2075115D01*
X-10132326Y-2075115D02*
X-9947508Y-2029035D01*
X-9947508Y-2029035D02*
X-9864364Y-2047566D01*
X-9864364Y-2047566D02*
X-9818185Y-2075314D01*
X-9818185Y-2075314D02*
X-9762789Y-2140025D01*
X-9762789Y-2140025D02*
X-9744357Y-2213952D01*
X-9744357Y-2213952D02*
X-9753672Y-2334059D01*
X-9753672Y-2334059D02*
X-10086643Y-2888216D01*
X-10086643Y-2888216D02*
X-9606116Y-2768407D01*
X1060949Y9978865D02*
X262898Y10034670D01*
X262898Y10034670D02*
X276184Y10224682D01*
X276184Y10224682D02*
X322159Y10336032D01*
X322159Y10336032D02*
X403479Y10406722D01*
X403479Y10406722D02*
X482141Y10439410D01*
X482141Y10439410D02*
X636808Y10466783D01*
X636808Y10466783D02*
X750815Y10458810D01*
X750815Y10458810D02*
X900168Y10410178D01*
X900168Y10410178D02*
X973515Y10366861D01*
X973515Y10366861D02*
X1044205Y10285542D01*
X1044205Y10285542D02*
X1074236Y10168877D01*
X1074236Y10168877D02*
X1060949Y9978865D01*
X608636Y11156141D02*
X1140670Y11118938D01*
X291330Y10987388D02*
X848079Y10757515D01*
X848079Y10757515D02*
X882626Y11251547D01*
X398424Y11972794D02*
X371851Y11592770D01*
X371851Y11592770D02*
X749218Y11528194D01*
X749218Y11528194D02*
X713872Y11568854D01*
X713872Y11568854D02*
X681185Y11647516D01*
X681185Y11647516D02*
X694472Y11837528D01*
X694472Y11837528D02*
X737789Y11910876D01*
X737789Y11910876D02*
X778449Y11946221D01*
X778449Y11946221D02*
X857111Y11978908D01*
X857111Y11978908D02*
X1047123Y11965621D01*
X1047123Y11965621D02*
X1120471Y11922304D01*
X1120471Y11922304D02*
X1155816Y11881644D01*
X1155816Y11881644D02*
X1188503Y11802982D01*
X1188503Y11802982D02*
X1175217Y11612970D01*
X1175217Y11612970D02*
X1131899Y11539622D01*
X1131899Y11539622D02*
X1091239Y11504277D01*
X8111456Y-5908240D02*
X8558810Y-5245010D01*
X8558810Y-5245010D02*
X8716722Y-5351523D01*
X8716722Y-5351523D02*
X8790166Y-5447013D01*
X8790166Y-5447013D02*
X8810726Y-5552783D01*
X8810726Y-5552783D02*
X8799703Y-5637250D01*
X8799703Y-5637250D02*
X8746075Y-5784882D01*
X8746075Y-5784882D02*
X8682167Y-5879629D01*
X8682167Y-5879629D02*
X8565375Y-5984656D01*
X8565375Y-5984656D02*
X8491187Y-6026518D01*
X8491187Y-6026518D02*
X8385417Y-6047078D01*
X8385417Y-6047078D02*
X8269368Y-6014753D01*
X8269368Y-6014753D02*
X8111456Y-5908240D01*
X9122092Y-6589923D02*
X8743103Y-6334292D01*
X8932598Y-6462107D02*
X9379952Y-5798877D01*
X9379952Y-5798877D02*
X9252879Y-5851019D01*
X9252879Y-5851019D02*
X9147109Y-5871579D01*
X9147109Y-5871579D02*
X9062642Y-5860556D01*
X10169512Y-6331442D02*
X9853688Y-6118416D01*
X9853688Y-6118416D02*
X9609080Y-6412937D01*
X9609080Y-6412937D02*
X9661965Y-6402657D01*
X9661965Y-6402657D02*
X9746432Y-6413680D01*
X9746432Y-6413680D02*
X9904344Y-6520193D01*
X9904344Y-6520193D02*
X9946206Y-6594381D01*
X9946206Y-6594381D02*
X9956486Y-6647266D01*
X9956486Y-6647266D02*
X9945463Y-6731733D01*
X9945463Y-6731733D02*
X9838950Y-6889645D01*
X9838950Y-6889645D02*
X9764763Y-6931507D01*
X9764763Y-6931507D02*
X9711878Y-6941787D01*
X9711878Y-6941787D02*
X9627410Y-6930764D01*
X9627410Y-6930764D02*
X9469498Y-6824251D01*
X9469498Y-6824251D02*
X9427636Y-6750064D01*
X9427636Y-6750064D02*
X9417356Y-6697179D01*
X4567100Y-9361128D02*
X5273458Y-8985550D01*
X5273458Y-8985550D02*
X5362881Y-9153731D01*
X5362881Y-9153731D02*
X5382899Y-9272524D01*
X5382899Y-9272524D02*
X5351396Y-9375565D01*
X5351396Y-9375565D02*
X5302009Y-9444971D01*
X5302009Y-9444971D02*
X5185349Y-9550145D01*
X5185349Y-9550145D02*
X5084441Y-9603799D01*
X5084441Y-9603799D02*
X4932012Y-9641702D01*
X4932012Y-9641702D02*
X4846855Y-9643835D01*
X4846855Y-9643835D02*
X4743813Y-9612332D01*
X4743813Y-9612332D02*
X4656523Y-9529308D01*
X4656523Y-9529308D02*
X4567100Y-9361128D01*
X5399965Y-9953778D02*
X5397831Y-9868622D01*
X5397831Y-9868622D02*
X5413583Y-9817101D01*
X5413583Y-9817101D02*
X5462970Y-9747695D01*
X5462970Y-9747695D02*
X5496606Y-9729811D01*
X5496606Y-9729811D02*
X5581763Y-9727678D01*
X5581763Y-9727678D02*
X5633284Y-9743429D01*
X5633284Y-9743429D02*
X5702689Y-9792817D01*
X5702689Y-9792817D02*
X5774228Y-9927361D01*
X5774228Y-9927361D02*
X5776361Y-10012518D01*
X5776361Y-10012518D02*
X5760610Y-10064039D01*
X5760610Y-10064039D02*
X5711222Y-10133444D01*
X5711222Y-10133444D02*
X5677586Y-10151329D01*
X5677586Y-10151329D02*
X5592429Y-10153462D01*
X5592429Y-10153462D02*
X5540908Y-10137710D01*
X5540908Y-10137710D02*
X5471503Y-10088323D01*
X5471503Y-10088323D02*
X5399965Y-9953778D01*
X5399965Y-9953778D02*
X5330559Y-9904391D01*
X5330559Y-9904391D02*
X5279038Y-9888639D01*
X5279038Y-9888639D02*
X5193882Y-9890773D01*
X5193882Y-9890773D02*
X5059337Y-9962311D01*
X5059337Y-9962311D02*
X5009950Y-10031716D01*
X5009950Y-10031716D02*
X4994198Y-10083237D01*
X4994198Y-10083237D02*
X4996331Y-10168394D01*
X4996331Y-10168394D02*
X5067870Y-10302938D01*
X5067870Y-10302938D02*
X5137275Y-10352326D01*
X5137275Y-10352326D02*
X5188796Y-10368077D01*
X5188796Y-10368077D02*
X5273953Y-10365944D01*
X5273953Y-10365944D02*
X5408497Y-10294406D01*
X5408497Y-10294406D02*
X5457885Y-10225000D01*
X5457885Y-10225000D02*
X5473636Y-10173480D01*
X5473636Y-10173480D02*
X5471503Y-10088323D01*
X-11976780Y55727D02*
X-11948861Y855240D01*
X-11948861Y855240D02*
X-11758501Y848592D01*
X-11758501Y848592D02*
X-11645614Y806532D01*
X-11645614Y806532D02*
X-11572129Y727729D01*
X-11572129Y727729D02*
X-11536716Y650255D01*
X-11536716Y650255D02*
X-11503962Y496638D01*
X-11503962Y496638D02*
X-11507951Y382422D01*
X-11507951Y382422D02*
X-11551341Y231463D01*
X-11551341Y231463D02*
X-11592072Y156648D01*
X-11592072Y156648D02*
X-11670875Y83163D01*
X-11670875Y83163D02*
X-11786420Y49080D01*
X-11786420Y49080D02*
X-11976780Y55727D01*
X-10806700Y815355D02*
X-10958988Y820673D01*
X-10958988Y820673D02*
X-11036462Y785260D01*
X-11036462Y785260D02*
X-11075863Y748517D01*
X-11075863Y748517D02*
X-11155996Y636960D01*
X-11155996Y636960D02*
X-11199386Y486002D01*
X-11199386Y486002D02*
X-11210022Y181425D01*
X-11210022Y181425D02*
X-11174609Y103952D01*
X-11174609Y103952D02*
X-11137866Y64550D01*
X-11137866Y64550D02*
X-11063052Y23819D01*
X-11063052Y23819D02*
X-10910764Y18501D01*
X-10910764Y18501D02*
X-10833290Y53914D01*
X-10833290Y53914D02*
X-10793888Y90657D01*
X-10793888Y90657D02*
X-10753157Y165471D01*
X-10753157Y165471D02*
X-10746510Y355831D01*
X-10746510Y355831D02*
X-10781923Y433305D01*
X-10781923Y433305D02*
X-10818665Y472707D01*
X-10818665Y472707D02*
X-10893480Y513438D01*
X-10893480Y513438D02*
X-11045768Y518756D01*
X-11045768Y518756D02*
X-11123242Y483343D01*
X-11123242Y483343D02*
X-11162643Y446600D01*
X-11162643Y446600D02*
X-11203374Y371786D01*
X-10285657Y454094D02*
X-10360471Y494825D01*
X-10360471Y494825D02*
X-10397214Y534226D01*
X-10397214Y534226D02*
X-10432627Y611700D01*
X-10432627Y611700D02*
X-10431297Y649772D01*
X-10431297Y649772D02*
X-10390566Y724586D01*
X-10390566Y724586D02*
X-10351165Y761329D01*
X-10351165Y761329D02*
X-10273691Y796742D01*
X-10273691Y796742D02*
X-10121403Y791424D01*
X-10121403Y791424D02*
X-10046589Y750693D01*
X-10046589Y750693D02*
X-10009846Y711291D01*
X-10009846Y711291D02*
X-9974433Y633818D01*
X-9974433Y633818D02*
X-9975763Y595746D01*
X-9975763Y595746D02*
X-10016494Y520931D01*
X-10016494Y520931D02*
X-10055895Y484189D01*
X-10055895Y484189D02*
X-10133369Y448775D01*
X-10133369Y448775D02*
X-10285657Y454094D01*
X-10285657Y454094D02*
X-10363130Y418680D01*
X-10363130Y418680D02*
X-10402532Y381938D01*
X-10402532Y381938D02*
X-10443263Y307123D01*
X-10443263Y307123D02*
X-10448581Y154835D01*
X-10448581Y154835D02*
X-10413168Y77362D01*
X-10413168Y77362D02*
X-10376425Y37960D01*
X-10376425Y37960D02*
X-10301611Y-2770D01*
X-10301611Y-2770D02*
X-10149323Y-8088D01*
X-10149323Y-8088D02*
X-10071849Y27324D01*
X-10071849Y27324D02*
X-10032448Y64067D01*
X-10032448Y64067D02*
X-9991717Y138881D01*
X-9991717Y138881D02*
X-9986399Y291169D01*
X-9986399Y291169D02*
X-10021812Y368643D01*
X-10021812Y368643D02*
X-10058554Y408044D01*
X-10058554Y408044D02*
X-10133369Y448775D01*
X7227002Y6962241D02*
X6651530Y7517967D01*
X6651530Y7517967D02*
X6783846Y7654984D01*
X6783846Y7654984D02*
X6890639Y7710732D01*
X6890639Y7710732D02*
X6998372Y7712612D01*
X6998372Y7712612D02*
X7079642Y7687089D01*
X7079642Y7687089D02*
X7215719Y7608640D01*
X7215719Y7608640D02*
X7297929Y7529250D01*
X7297929Y7529250D02*
X7381080Y7395994D01*
X7381080Y7395994D02*
X7409423Y7315664D01*
X7409423Y7315664D02*
X7411304Y7207931D01*
X7411304Y7207931D02*
X7359318Y7099258D01*
X7359318Y7099258D02*
X7227002Y6962241D01*
X7154330Y8038632D02*
X7498352Y8394877D01*
X7498352Y8394877D02*
X7532337Y7991347D01*
X7532337Y7991347D02*
X7611726Y8073558D01*
X7611726Y8073558D02*
X7692056Y8101901D01*
X7692056Y8101901D02*
X7745923Y8102842D01*
X7745923Y8102842D02*
X7827193Y8077319D01*
X7827193Y8077319D02*
X7964210Y7945003D01*
X7964210Y7945003D02*
X7992553Y7864673D01*
X7992553Y7864673D02*
X7993494Y7810806D01*
X7993494Y7810806D02*
X7967971Y7729536D01*
X7967971Y7729536D02*
X7809192Y7565116D01*
X7809192Y7565116D02*
X7728862Y7536772D01*
X7728862Y7536772D02*
X7674995Y7535832D01*
X8001152Y8915542D02*
X7736520Y8641508D01*
X7736520Y8641508D02*
X7984091Y8349473D01*
X7984091Y8349473D02*
X7983151Y8403339D01*
X7983151Y8403339D02*
X8008674Y8484609D01*
X8008674Y8484609D02*
X8140990Y8621626D01*
X8140990Y8621626D02*
X8221320Y8649970D01*
X8221320Y8649970D02*
X8275186Y8650910D01*
X8275186Y8650910D02*
X8356456Y8625387D01*
X8356456Y8625387D02*
X8493473Y8493071D01*
X8493473Y8493071D02*
X8521817Y8412742D01*
X8521817Y8412742D02*
X8522757Y8358875D01*
X8522757Y8358875D02*
X8497234Y8277605D01*
X8497234Y8277605D02*
X8364918Y8140588D01*
X8364918Y8140588D02*
X8284589Y8112244D01*
X8284589Y8112244D02*
X8230722Y8111304D01*
X-11497439Y3354824D02*
X-11250225Y4115669D01*
X-11250225Y4115669D02*
X-11069071Y4056809D01*
X-11069071Y4056809D02*
X-10972151Y3985262D01*
X-10972151Y3985262D02*
X-10923234Y3889257D01*
X-10923234Y3889257D02*
X-10910547Y3805023D01*
X-10910547Y3805023D02*
X-10921405Y3648328D01*
X-10921405Y3648328D02*
X-10956721Y3539636D01*
X-10956721Y3539636D02*
X-11040040Y3406485D01*
X-11040040Y3406485D02*
X-11099815Y3345796D01*
X-11099815Y3345796D02*
X-11195821Y3296878D01*
X-11195821Y3296878D02*
X-11316285Y3295964D01*
X-11316285Y3295964D02*
X-11497439Y3354824D01*
X-10163303Y3762507D02*
X-10308226Y3809596D01*
X-10308226Y3809596D02*
X-10392460Y3796909D01*
X-10392460Y3796909D02*
X-10440462Y3772450D01*
X-10440462Y3772450D02*
X-10548240Y3687302D01*
X-10548240Y3687302D02*
X-10631559Y3554151D01*
X-10631559Y3554151D02*
X-10725736Y3264306D01*
X-10725736Y3264306D02*
X-10713049Y3180072D01*
X-10713049Y3180072D02*
X-10688591Y3132069D01*
X-10688591Y3132069D02*
X-10627901Y3072294D01*
X-10627901Y3072294D02*
X-10482978Y3025206D01*
X-10482978Y3025206D02*
X-10398745Y3037893D01*
X-10398745Y3037893D02*
X-10350742Y3062351D01*
X-10350742Y3062351D02*
X-10290967Y3123041D01*
X-10290967Y3123041D02*
X-10232107Y3304194D01*
X-10232107Y3304194D02*
X-10244793Y3388428D01*
X-10244793Y3388428D02*
X-10269252Y3436431D01*
X-10269252Y3436431D02*
X-10329941Y3496206D01*
X-10329941Y3496206D02*
X-10474864Y3543294D01*
X-10474864Y3543294D02*
X-10559098Y3530607D01*
X-10559098Y3530607D02*
X-10607101Y3506149D01*
X-10607101Y3506149D02*
X-10666875Y3445459D01*
X-9521093Y3273451D02*
X-9685902Y2766220D01*
X-9608070Y3622157D02*
X-9965805Y3137556D01*
X-9965805Y3137556D02*
X-9494805Y2984519D01*
X-637704Y4887030D02*
X-1018657Y4620363D01*
X-637704Y4429887D02*
X-1437704Y4429887D01*
X-1437704Y4429887D02*
X-1437704Y4734649D01*
X-1437704Y4734649D02*
X-1399609Y4810839D01*
X-1399609Y4810839D02*
X-1361514Y4848934D01*
X-1361514Y4848934D02*
X-1285323Y4887030D01*
X-1285323Y4887030D02*
X-1171038Y4887030D01*
X-1171038Y4887030D02*
X-1094847Y4848934D01*
X-1094847Y4848934D02*
X-1056752Y4810839D01*
X-1056752Y4810839D02*
X-1018657Y4734649D01*
X-1018657Y4734649D02*
X-1018657Y4429887D01*
X-1437704Y5153696D02*
X-1437704Y5648934D01*
X-1437704Y5648934D02*
X-1132942Y5382268D01*
X-1132942Y5382268D02*
X-1132942Y5496553D01*
X-1132942Y5496553D02*
X-1094847Y5572744D01*
X-1094847Y5572744D02*
X-1056752Y5610839D01*
X-1056752Y5610839D02*
X-980561Y5648934D01*
X-980561Y5648934D02*
X-790085Y5648934D01*
X-790085Y5648934D02*
X-713895Y5610839D01*
X-713895Y5610839D02*
X-675800Y5572744D01*
X-675800Y5572744D02*
X-637704Y5496553D01*
X-637704Y5496553D02*
X-637704Y5267982D01*
X-637704Y5267982D02*
X-675800Y5191791D01*
X-675800Y5191791D02*
X-713895Y5153696D01*
X-237704Y3166667D02*
X-618657Y2900000D01*
X-237704Y2709524D02*
X-1037704Y2709524D01*
X-1037704Y2709524D02*
X-1037704Y3014286D01*
X-1037704Y3014286D02*
X-999609Y3090476D01*
X-999609Y3090476D02*
X-961514Y3128571D01*
X-961514Y3128571D02*
X-885323Y3166667D01*
X-885323Y3166667D02*
X-771038Y3166667D01*
X-771038Y3166667D02*
X-694847Y3128571D01*
X-694847Y3128571D02*
X-656752Y3090476D01*
X-656752Y3090476D02*
X-618657Y3014286D01*
X-618657Y3014286D02*
X-618657Y2709524D01*
X-1037704Y3433333D02*
X-1037704Y3928571D01*
X-1037704Y3928571D02*
X-732942Y3661905D01*
X-732942Y3661905D02*
X-732942Y3776190D01*
X-732942Y3776190D02*
X-694847Y3852381D01*
X-694847Y3852381D02*
X-656752Y3890476D01*
X-656752Y3890476D02*
X-580561Y3928571D01*
X-580561Y3928571D02*
X-390085Y3928571D01*
X-390085Y3928571D02*
X-313895Y3890476D01*
X-313895Y3890476D02*
X-275800Y3852381D01*
X-275800Y3852381D02*
X-237704Y3776190D01*
X-237704Y3776190D02*
X-237704Y3547619D01*
X-237704Y3547619D02*
X-275800Y3471428D01*
X-275800Y3471428D02*
X-313895Y3433333D01*
X3219799Y-9905646D02*
X3971553Y-9632030D01*
X3971553Y-9632030D02*
X4036700Y-9811019D01*
X4036700Y-9811019D02*
X4039990Y-9931442D01*
X4039990Y-9931442D02*
X3994453Y-10029096D01*
X3994453Y-10029096D02*
X3935886Y-10090953D01*
X3935886Y-10090953D02*
X3805725Y-10178868D01*
X3805725Y-10178868D02*
X3698331Y-10217956D01*
X3698331Y-10217956D02*
X3542111Y-10234275D01*
X3542111Y-10234275D02*
X3457486Y-10224536D01*
X3457486Y-10224536D02*
X3359831Y-10178999D01*
X3359831Y-10178999D02*
X3284945Y-10084635D01*
X3284945Y-10084635D02*
X3219799Y-9905646D01*
X4362433Y-10705964D02*
X4310316Y-10562773D01*
X4310316Y-10562773D02*
X4248459Y-10504207D01*
X4248459Y-10504207D02*
X4199632Y-10481438D01*
X4199632Y-10481438D02*
X4066180Y-10448931D01*
X4066180Y-10448931D02*
X3909959Y-10465250D01*
X3909959Y-10465250D02*
X3623577Y-10569485D01*
X3623577Y-10569485D02*
X3565010Y-10631341D01*
X3565010Y-10631341D02*
X3542242Y-10680169D01*
X3542242Y-10680169D02*
X3532503Y-10764794D01*
X3532503Y-10764794D02*
X3584620Y-10907985D01*
X3584620Y-10907985D02*
X3646477Y-10966551D01*
X3646477Y-10966551D02*
X3695304Y-10989320D01*
X3695304Y-10989320D02*
X3779929Y-10999059D01*
X3779929Y-10999059D02*
X3958918Y-10933912D01*
X3958918Y-10933912D02*
X4017484Y-10872056D01*
X4017484Y-10872056D02*
X4040253Y-10823228D01*
X4040253Y-10823228D02*
X4049992Y-10738603D01*
X4049992Y-10738603D02*
X3997874Y-10595412D01*
X3997874Y-10595412D02*
X3936018Y-10536846D01*
X3936018Y-10536846D02*
X3887191Y-10514077D01*
X3887191Y-10514077D02*
X3802566Y-10504338D01*
X-2024866Y11804453D02*
X-1232651Y11915791D01*
X-1232651Y11915791D02*
X-1206142Y11727169D01*
X-1206142Y11727169D02*
X-1227961Y11608693D01*
X-1227961Y11608693D02*
X-1292806Y11522641D01*
X-1292806Y11522641D02*
X-1362954Y11474313D01*
X-1362954Y11474313D02*
X-1508550Y11415381D01*
X-1508550Y11415381D02*
X-1621723Y11399475D01*
X-1621723Y11399475D02*
X-1777923Y11415992D01*
X-1777923Y11415992D02*
X-1858674Y11443113D01*
X-1858674Y11443113D02*
X-1944727Y11507959D01*
X-1944727Y11507959D02*
X-1998357Y11615830D01*
X-1998357Y11615830D02*
X-2024866Y11804453D01*
X-1337668Y10746943D02*
X-1865811Y10672718D01*
X-1062381Y10977981D02*
X-1654758Y11087076D01*
X-1654758Y11087076D02*
X-1585834Y10596657D01*
X-1338891Y10208197D02*
X-1311770Y10288947D01*
X-1311770Y10288947D02*
X-1279348Y10331974D01*
X-1279348Y10331974D02*
X-1209200Y10380302D01*
X-1209200Y10380302D02*
X-1171476Y10385604D01*
X-1171476Y10385604D02*
X-1090725Y10358483D01*
X-1090725Y10358483D02*
X-1047699Y10326060D01*
X-1047699Y10326060D02*
X-999371Y10255913D01*
X-999371Y10255913D02*
X-978163Y10105015D01*
X-978163Y10105015D02*
X-1005284Y10024264D01*
X-1005284Y10024264D02*
X-1037707Y9981238D01*
X-1037707Y9981238D02*
X-1107854Y9932910D01*
X-1107854Y9932910D02*
X-1145578Y9927608D01*
X-1145578Y9927608D02*
X-1226329Y9954729D01*
X-1226329Y9954729D02*
X-1269356Y9987151D01*
X-1269356Y9987151D02*
X-1317684Y10057299D01*
X-1317684Y10057299D02*
X-1338891Y10208197D01*
X-1338891Y10208197D02*
X-1387219Y10278344D01*
X-1387219Y10278344D02*
X-1430246Y10310766D01*
X-1430246Y10310766D02*
X-1510996Y10337887D01*
X-1510996Y10337887D02*
X-1661894Y10316680D01*
X-1661894Y10316680D02*
X-1732042Y10268352D01*
X-1732042Y10268352D02*
X-1764464Y10225325D01*
X-1764464Y10225325D02*
X-1791585Y10144575D01*
X-1791585Y10144575D02*
X-1770378Y9993677D01*
X-1770378Y9993677D02*
X-1722050Y9923529D01*
X-1722050Y9923529D02*
X-1679023Y9891107D01*
X-1679023Y9891107D02*
X-1598272Y9863986D01*
X-1598272Y9863986D02*
X-1447374Y9885193D01*
X-1447374Y9885193D02*
X-1377227Y9933521D01*
X-1377227Y9933521D02*
X-1344805Y9976548D01*
X-1344805Y9976548D02*
X-1317684Y10057299D01*
X4386104Y-3653696D02*
X4424200Y-3691792D01*
X4424200Y-3691792D02*
X4462295Y-3806077D01*
X4462295Y-3806077D02*
X4462295Y-3882268D01*
X4462295Y-3882268D02*
X4424200Y-3996554D01*
X4424200Y-3996554D02*
X4348009Y-4072744D01*
X4348009Y-4072744D02*
X4271819Y-4110839D01*
X4271819Y-4110839D02*
X4119438Y-4148935D01*
X4119438Y-4148935D02*
X4005152Y-4148935D01*
X4005152Y-4148935D02*
X3852771Y-4110839D01*
X3852771Y-4110839D02*
X3776580Y-4072744D01*
X3776580Y-4072744D02*
X3700390Y-3996554D01*
X3700390Y-3996554D02*
X3662295Y-3882268D01*
X3662295Y-3882268D02*
X3662295Y-3806077D01*
X3662295Y-3806077D02*
X3700390Y-3691792D01*
X3700390Y-3691792D02*
X3738485Y-3653696D01*
X4462295Y-2891792D02*
X4462295Y-3348935D01*
X4462295Y-3120363D02*
X3662295Y-3120363D01*
X3662295Y-3120363D02*
X3776580Y-3196554D01*
X3776580Y-3196554D02*
X3852771Y-3272744D01*
X3852771Y-3272744D02*
X3890866Y-3348935D01*
X3386104Y-3833332D02*
X3424200Y-3871428D01*
X3424200Y-3871428D02*
X3462295Y-3985713D01*
X3462295Y-3985713D02*
X3462295Y-4061904D01*
X3462295Y-4061904D02*
X3424200Y-4176190D01*
X3424200Y-4176190D02*
X3348009Y-4252380D01*
X3348009Y-4252380D02*
X3271819Y-4290475D01*
X3271819Y-4290475D02*
X3119438Y-4328571D01*
X3119438Y-4328571D02*
X3005152Y-4328571D01*
X3005152Y-4328571D02*
X2852771Y-4290475D01*
X2852771Y-4290475D02*
X2776580Y-4252380D01*
X2776580Y-4252380D02*
X2700390Y-4176190D01*
X2700390Y-4176190D02*
X2662295Y-4061904D01*
X2662295Y-4061904D02*
X2662295Y-3985713D01*
X2662295Y-3985713D02*
X2700390Y-3871428D01*
X2700390Y-3871428D02*
X2738485Y-3833332D01*
X3462295Y-3071428D02*
X3462295Y-3528571D01*
X3462295Y-3299999D02*
X2662295Y-3299999D01*
X2662295Y-3299999D02*
X2776580Y-3376190D01*
X2776580Y-3376190D02*
X2852771Y-3452380D01*
X2852771Y-3452380D02*
X2890866Y-3528571D01*
X-8576624Y8359815D02*
X-8001152Y8915542D01*
X-8001152Y8915542D02*
X-7868836Y8778525D01*
X-7868836Y8778525D02*
X-7816850Y8669852D01*
X-7816850Y8669852D02*
X-7818731Y8562118D01*
X-7818731Y8562118D02*
X-7847074Y8481789D01*
X-7847074Y8481789D02*
X-7930225Y8348533D01*
X-7930225Y8348533D02*
X-8012435Y8269143D01*
X-8012435Y8269143D02*
X-8148512Y8190694D01*
X-8148512Y8190694D02*
X-8229782Y8165171D01*
X-8229782Y8165171D02*
X-8337515Y8167051D01*
X-8337515Y8167051D02*
X-8444308Y8222798D01*
X-8444308Y8222798D02*
X-8576624Y8359815D01*
X-7180794Y8066036D02*
X-7445426Y8340070D01*
X-7445426Y8340070D02*
X-7745923Y8102842D01*
X-7745923Y8102842D02*
X-7692056Y8101902D01*
X-7692056Y8101902D02*
X-7611727Y8073558D01*
X-7611727Y8073558D02*
X-7479411Y7936541D01*
X-7479411Y7936541D02*
X-7453888Y7855271D01*
X-7453888Y7855271D02*
X-7454828Y7801404D01*
X-7454828Y7801404D02*
X-7483172Y7721075D01*
X-7483172Y7721075D02*
X-7620189Y7588759D01*
X-7620189Y7588759D02*
X-7701459Y7563236D01*
X-7701459Y7563236D02*
X-7755325Y7564176D01*
X-7755325Y7564176D02*
X-7835655Y7592520D01*
X-7835655Y7592520D02*
X-7967971Y7729537D01*
X-7967971Y7729537D02*
X-7993494Y7810807D01*
X-7993494Y7810807D02*
X-7992554Y7864673D01*
X-6969088Y7846809D02*
X-6598604Y7463161D01*
X-6598604Y7463161D02*
X-7412244Y7154065D01*
X-10548729Y5671957D02*
X-10148729Y6364777D01*
X-10148729Y6364777D02*
X-9983772Y6269539D01*
X-9983772Y6269539D02*
X-9903845Y6179405D01*
X-9903845Y6179405D02*
X-9875958Y6075327D01*
X-9875958Y6075327D02*
X-9881061Y5990296D01*
X-9881061Y5990296D02*
X-9924260Y5839283D01*
X-9924260Y5839283D02*
X-9981403Y5740309D01*
X-9981403Y5740309D02*
X-10090585Y5627390D01*
X-10090585Y5627390D02*
X-10161672Y5580455D01*
X-10161672Y5580455D02*
X-10265750Y5552568D01*
X-10265750Y5552568D02*
X-10383772Y5576719D01*
X-10383772Y5576719D02*
X-10548729Y5671957D01*
X-9158986Y5793349D02*
X-9290952Y5869539D01*
X-9290952Y5869539D02*
X-9375982Y5874643D01*
X-9375982Y5874643D02*
X-9428021Y5860699D01*
X-9428021Y5860699D02*
X-9551147Y5799820D01*
X-9551147Y5799820D02*
X-9660329Y5686902D01*
X-9660329Y5686902D02*
X-9812710Y5422970D01*
X-9812710Y5422970D02*
X-9817814Y5337940D01*
X-9817814Y5337940D02*
X-9803870Y5285901D01*
X-9803870Y5285901D02*
X-9756934Y5214814D01*
X-9756934Y5214814D02*
X-9624969Y5138624D01*
X-9624969Y5138624D02*
X-9539938Y5133520D01*
X-9539938Y5133520D02*
X-9487899Y5147464D01*
X-9487899Y5147464D02*
X-9416812Y5194399D01*
X-9416812Y5194399D02*
X-9321574Y5359356D01*
X-9321574Y5359356D02*
X-9316471Y5444387D01*
X-9316471Y5444387D02*
X-9330414Y5496426D01*
X-9330414Y5496426D02*
X-9377350Y5567512D01*
X-9377350Y5567512D02*
X-9509315Y5643703D01*
X-9509315Y5643703D02*
X-9594346Y5648807D01*
X-9594346Y5648807D02*
X-9646385Y5634863D01*
X-9646385Y5634863D02*
X-9717472Y5587928D01*
X-8833174Y4681481D02*
X-9229071Y4910052D01*
X-9031123Y4795766D02*
X-8631123Y5488587D01*
X-8631123Y5488587D02*
X-8754248Y5427708D01*
X-8754248Y5427708D02*
X-8858326Y5399820D01*
X-8858326Y5399820D02*
X-8943357Y5404924D01*
X-2453696Y3263895D02*
X-2491792Y3225800D01*
X-2491792Y3225800D02*
X-2606077Y3187704D01*
X-2606077Y3187704D02*
X-2682268Y3187704D01*
X-2682268Y3187704D02*
X-2796554Y3225800D01*
X-2796554Y3225800D02*
X-2872744Y3301990D01*
X-2872744Y3301990D02*
X-2910839Y3378180D01*
X-2910839Y3378180D02*
X-2948935Y3530561D01*
X-2948935Y3530561D02*
X-2948935Y3644847D01*
X-2948935Y3644847D02*
X-2910839Y3797228D01*
X-2910839Y3797228D02*
X-2872744Y3873419D01*
X-2872744Y3873419D02*
X-2796554Y3949609D01*
X-2796554Y3949609D02*
X-2682268Y3987704D01*
X-2682268Y3987704D02*
X-2606077Y3987704D01*
X-2606077Y3987704D02*
X-2491792Y3949609D01*
X-2491792Y3949609D02*
X-2453696Y3911514D01*
X-1767982Y3721038D02*
X-1767982Y3187704D01*
X-1958458Y4025800D02*
X-2148935Y3454371D01*
X-2148935Y3454371D02*
X-1653696Y3454371D01*
X-4133332Y3263895D02*
X-4171428Y3225800D01*
X-4171428Y3225800D02*
X-4285713Y3187704D01*
X-4285713Y3187704D02*
X-4361904Y3187704D01*
X-4361904Y3187704D02*
X-4476190Y3225800D01*
X-4476190Y3225800D02*
X-4552380Y3301990D01*
X-4552380Y3301990D02*
X-4590475Y3378180D01*
X-4590475Y3378180D02*
X-4628571Y3530561D01*
X-4628571Y3530561D02*
X-4628571Y3644847D01*
X-4628571Y3644847D02*
X-4590475Y3797228D01*
X-4590475Y3797228D02*
X-4552380Y3873419D01*
X-4552380Y3873419D02*
X-4476190Y3949609D01*
X-4476190Y3949609D02*
X-4361904Y3987704D01*
X-4361904Y3987704D02*
X-4285713Y3987704D01*
X-4285713Y3987704D02*
X-4171428Y3949609D01*
X-4171428Y3949609D02*
X-4133332Y3911514D01*
X-3447618Y3721038D02*
X-3447618Y3187704D01*
X-3638094Y4025800D02*
X-3828571Y3454371D01*
X-3828571Y3454371D02*
X-3333332Y3454371D01*
X-11951493Y-779876D02*
X-11979412Y19635D01*
X-11979412Y19635D02*
X-11789052Y26283D01*
X-11789052Y26283D02*
X-11673506Y-7800D01*
X-11673506Y-7800D02*
X-11594703Y-81285D01*
X-11594703Y-81285D02*
X-11553972Y-156099D01*
X-11553972Y-156099D02*
X-11510582Y-307058D01*
X-11510582Y-307058D02*
X-11506594Y-421274D01*
X-11506594Y-421274D02*
X-11539348Y-574892D01*
X-11539348Y-574892D02*
X-11574761Y-652365D01*
X-11574761Y-652365D02*
X-11648246Y-731168D01*
X-11648246Y-731168D02*
X-11761132Y-773229D01*
X-11761132Y-773229D02*
X-11951493Y-779876D01*
X-10837251Y59520D02*
X-10989539Y54202D01*
X-10989539Y54202D02*
X-11064354Y13471D01*
X-11064354Y13471D02*
X-11101096Y-25929D01*
X-11101096Y-25929D02*
X-11173252Y-142804D01*
X-11173252Y-142804D02*
X-11206006Y-296422D01*
X-11206006Y-296422D02*
X-11195370Y-600998D01*
X-11195370Y-600998D02*
X-11154639Y-675813D01*
X-11154639Y-675813D02*
X-11115237Y-712555D01*
X-11115237Y-712555D02*
X-11037764Y-747968D01*
X-11037764Y-747968D02*
X-10885476Y-742650D01*
X-10885476Y-742650D02*
X-10810661Y-701919D01*
X-10810661Y-701919D02*
X-10773919Y-662518D01*
X-10773919Y-662518D02*
X-10738506Y-585044D01*
X-10738506Y-585044D02*
X-10745153Y-394684D01*
X-10745153Y-394684D02*
X-10785884Y-319869D01*
X-10785884Y-319869D02*
X-10825286Y-283127D01*
X-10825286Y-283127D02*
X-10902759Y-247714D01*
X-10902759Y-247714D02*
X-11055047Y-253032D01*
X-11055047Y-253032D02*
X-11129862Y-293763D01*
X-11129862Y-293763D02*
X-11166605Y-333164D01*
X-11166605Y-333164D02*
X-11202018Y-410638D01*
X-10352467Y-724037D02*
X-10200179Y-718719D01*
X-10200179Y-718719D02*
X-10125364Y-677988D01*
X-10125364Y-677988D02*
X-10088622Y-638587D01*
X-10088622Y-638587D02*
X-10016466Y-521712D01*
X-10016466Y-521712D02*
X-9983712Y-368094D01*
X-9983712Y-368094D02*
X-9994348Y-63518D01*
X-9994348Y-63518D02*
X-10035079Y11296D01*
X-10035079Y11296D02*
X-10074481Y48038D01*
X-10074481Y48038D02*
X-10151954Y83451D01*
X-10151954Y83451D02*
X-10304243Y78133D01*
X-10304243Y78133D02*
X-10379057Y37402D01*
X-10379057Y37402D02*
X-10415800Y-1998D01*
X-10415800Y-1998D02*
X-10451213Y-79472D01*
X-10451213Y-79472D02*
X-10444565Y-269832D01*
X-10444565Y-269832D02*
X-10403834Y-344646D01*
X-10403834Y-344646D02*
X-10364433Y-381389D01*
X-10364433Y-381389D02*
X-10286959Y-416802D01*
X-10286959Y-416802D02*
X-10134671Y-411484D01*
X-10134671Y-411484D02*
X-10059856Y-370753D01*
X-10059856Y-370753D02*
X-10023114Y-331351D01*
X-10023114Y-331351D02*
X-9987701Y-253878D01*
X-10600994Y-5573575D02*
X-10951691Y-4854539D01*
X-10951691Y-4854539D02*
X-10780492Y-4771040D01*
X-10780492Y-4771040D02*
X-10661073Y-4755180D01*
X-10661073Y-4755180D02*
X-10559194Y-4790260D01*
X-10559194Y-4790260D02*
X-10491554Y-4842040D01*
X-10491554Y-4842040D02*
X-10390515Y-4962299D01*
X-10390515Y-4962299D02*
X-10340416Y-5065018D01*
X-10340416Y-5065018D02*
X-10307856Y-5218677D01*
X-10307856Y-5218677D02*
X-10308696Y-5303857D01*
X-10308696Y-5303857D02*
X-10343776Y-5405736D01*
X-10343776Y-5405736D02*
X-10429795Y-5490075D01*
X-10429795Y-5490075D02*
X-10600994Y-5573575D01*
X-10301135Y-4537242D02*
X-9821779Y-4303444D01*
X-9821779Y-4303444D02*
X-9779240Y-5172778D01*
X-9205462Y-4002847D02*
X-9547860Y-4169845D01*
X-9547860Y-4169845D02*
X-9415101Y-4528943D01*
X-9415101Y-4528943D02*
X-9397561Y-4478003D01*
X-9397561Y-4478003D02*
X-9345782Y-4410364D01*
X-9345782Y-4410364D02*
X-9174583Y-4326865D01*
X-9174583Y-4326865D02*
X-9089404Y-4327705D01*
X-9089404Y-4327705D02*
X-9038464Y-4345245D01*
X-9038464Y-4345245D02*
X-8970824Y-4397024D01*
X-8970824Y-4397024D02*
X-8887325Y-4568223D01*
X-8887325Y-4568223D02*
X-8888165Y-4653402D01*
X-8888165Y-4653402D02*
X-8905705Y-4704342D01*
X-8905705Y-4704342D02*
X-8957485Y-4771982D01*
X-8957485Y-4771982D02*
X-9128684Y-4855481D01*
X-9128684Y-4855481D02*
X-9213863Y-4854641D01*
X-9213863Y-4854641D02*
X-9264803Y-4837101D01*
X-11703520Y2544576D02*
X-11509982Y3320812D01*
X-11509982Y3320812D02*
X-11325164Y3274732D01*
X-11325164Y3274732D02*
X-11223489Y3210120D01*
X-11223489Y3210120D02*
X-11167994Y3117761D01*
X-11167994Y3117761D02*
X-11149463Y3034617D01*
X-11149463Y3034617D02*
X-11149363Y2877547D01*
X-11149363Y2877547D02*
X-11177011Y2766656D01*
X-11177011Y2766656D02*
X-11250839Y2628017D01*
X-11250839Y2628017D02*
X-11306235Y2563306D01*
X-11306235Y2563306D02*
X-11398595Y2507811D01*
X-11398595Y2507811D02*
X-11518702Y2498496D01*
X-11518702Y2498496D02*
X-11703520Y2544576D01*
X-10401073Y3044330D02*
X-10548928Y3081195D01*
X-10548928Y3081195D02*
X-10632071Y3062663D01*
X-10632071Y3062663D02*
X-10678251Y3034916D01*
X-10678251Y3034916D02*
X-10779826Y2942457D01*
X-10779826Y2942457D02*
X-10853654Y2803818D01*
X-10853654Y2803818D02*
X-10927383Y2508109D01*
X-10927383Y2508109D02*
X-10908851Y2424966D01*
X-10908851Y2424966D02*
X-10881104Y2378786D01*
X-10881104Y2378786D02*
X-10816392Y2323390D01*
X-10816392Y2323390D02*
X-10668538Y2286526D01*
X-10668538Y2286526D02*
X-10585394Y2305057D01*
X-10585394Y2305057D02*
X-10539215Y2332805D01*
X-10539215Y2332805D02*
X-10483819Y2397516D01*
X-10483819Y2397516D02*
X-10437739Y2582334D01*
X-10437739Y2582334D02*
X-10456270Y2665478D01*
X-10456270Y2665478D02*
X-10484018Y2711657D01*
X-10484018Y2711657D02*
X-10548729Y2767053D01*
X-10548729Y2767053D02*
X-10696583Y2803918D01*
X-10696583Y2803918D02*
X-10779727Y2785386D01*
X-10779727Y2785386D02*
X-10825906Y2757638D01*
X-10825906Y2757638D02*
X-10881302Y2692927D01*
X-9624836Y2850793D02*
X-9994473Y2942953D01*
X-9994473Y2942953D02*
X-10123597Y2582533D01*
X-10123597Y2582533D02*
X-10077417Y2610281D01*
X-10077417Y2610281D02*
X-9994274Y2628812D01*
X-9994274Y2628812D02*
X-9809456Y2582732D01*
X-9809456Y2582732D02*
X-9744744Y2527336D01*
X-9744744Y2527336D02*
X-9716997Y2481156D01*
X-9716997Y2481156D02*
X-9698465Y2398013D01*
X-9698465Y2398013D02*
X-9744546Y2213195D01*
X-9744546Y2213195D02*
X-9799942Y2148483D01*
X-9799942Y2148483D02*
X-9846121Y2120736D01*
X-9846121Y2120736D02*
X-9929265Y2102204D01*
X-9929265Y2102204D02*
X-10114083Y2148285D01*
X-10114083Y2148285D02*
X-10178794Y2203681D01*
X-10178794Y2203681D02*
X-10206542Y2249860D01*
X1809854Y-10257352D02*
X2592373Y-10091023D01*
X2592373Y-10091023D02*
X2631975Y-10277337D01*
X2631975Y-10277337D02*
X2618473Y-10397046D01*
X2618473Y-10397046D02*
X2559789Y-10487412D01*
X2559789Y-10487412D02*
X2493184Y-10540516D01*
X2493184Y-10540516D02*
X2352053Y-10609460D01*
X2352053Y-10609460D02*
X2240265Y-10633222D01*
X2240265Y-10633222D02*
X2083293Y-10627641D01*
X2083293Y-10627641D02*
X2000847Y-10606219D01*
X2000847Y-10606219D02*
X1910481Y-10547534D01*
X1910481Y-10547534D02*
X1849457Y-10443666D01*
X1849457Y-10443666D02*
X1809854Y-10257352D01*
X2569147Y-11264349D02*
X2047468Y-11375235D01*
X2827646Y-11014672D02*
X2229103Y-10947165D01*
X2229103Y-10947165D02*
X2332069Y-11431581D01*
X2887030Y-686104D02*
X2848934Y-724200D01*
X2848934Y-724200D02*
X2734649Y-762295D01*
X2734649Y-762295D02*
X2658458Y-762295D01*
X2658458Y-762295D02*
X2544172Y-724200D01*
X2544172Y-724200D02*
X2467982Y-648009D01*
X2467982Y-648009D02*
X2429887Y-571819D01*
X2429887Y-571819D02*
X2391791Y-419438D01*
X2391791Y-419438D02*
X2391791Y-305152D01*
X2391791Y-305152D02*
X2429887Y-152771D01*
X2429887Y-152771D02*
X2467982Y-76580D01*
X2467982Y-76580D02*
X2544172Y-390D01*
X2544172Y-390D02*
X2658458Y37704D01*
X2658458Y37704D02*
X2734649Y37704D01*
X2734649Y37704D02*
X2848934Y-390D01*
X2848934Y-390D02*
X2887030Y-38485D01*
X3153696Y37704D02*
X3648934Y37704D01*
X3648934Y37704D02*
X3382268Y-267057D01*
X3382268Y-267057D02*
X3496553Y-267057D01*
X3496553Y-267057D02*
X3572744Y-305152D01*
X3572744Y-305152D02*
X3610839Y-343247D01*
X3610839Y-343247D02*
X3648934Y-419438D01*
X3648934Y-419438D02*
X3648934Y-609914D01*
X3648934Y-609914D02*
X3610839Y-686104D01*
X3610839Y-686104D02*
X3572744Y-724200D01*
X3572744Y-724200D02*
X3496553Y-762295D01*
X3496553Y-762295D02*
X3267982Y-762295D01*
X3267982Y-762295D02*
X3191791Y-724200D01*
X3191791Y-724200D02*
X3153696Y-686104D01*
X4766667Y-686104D02*
X4728571Y-724200D01*
X4728571Y-724200D02*
X4614286Y-762295D01*
X4614286Y-762295D02*
X4538095Y-762295D01*
X4538095Y-762295D02*
X4423809Y-724200D01*
X4423809Y-724200D02*
X4347619Y-648009D01*
X4347619Y-648009D02*
X4309524Y-571819D01*
X4309524Y-571819D02*
X4271428Y-419438D01*
X4271428Y-419438D02*
X4271428Y-305152D01*
X4271428Y-305152D02*
X4309524Y-152771D01*
X4309524Y-152771D02*
X4347619Y-76580D01*
X4347619Y-76580D02*
X4423809Y-390D01*
X4423809Y-390D02*
X4538095Y37704D01*
X4538095Y37704D02*
X4614286Y37704D01*
X4614286Y37704D02*
X4728571Y-390D01*
X4728571Y-390D02*
X4766667Y-38485D01*
X5033333Y37704D02*
X5528571Y37704D01*
X5528571Y37704D02*
X5261905Y-267057D01*
X5261905Y-267057D02*
X5376190Y-267057D01*
X5376190Y-267057D02*
X5452381Y-305152D01*
X5452381Y-305152D02*
X5490476Y-343247D01*
X5490476Y-343247D02*
X5528571Y-419438D01*
X5528571Y-419438D02*
X5528571Y-609914D01*
X5528571Y-609914D02*
X5490476Y-686104D01*
X5490476Y-686104D02*
X5452381Y-724200D01*
X5452381Y-724200D02*
X5376190Y-762295D01*
X5376190Y-762295D02*
X5147619Y-762295D01*
X5147619Y-762295D02*
X5071428Y-724200D01*
X5071428Y-724200D02*
X5033333Y-686104D01*
X10035106Y-12076D02*
X10007187Y787435D01*
X10007187Y787435D02*
X10197547Y794083D01*
X10197547Y794083D02*
X10313093Y759999D01*
X10313093Y759999D02*
X10391896Y686514D01*
X10391896Y686514D02*
X10432627Y611700D01*
X10432627Y611700D02*
X10476017Y460741D01*
X10476017Y460741D02*
X10480005Y346525D01*
X10480005Y346525D02*
X10447251Y192907D01*
X10447251Y192907D02*
X10411838Y115434D01*
X10411838Y115434D02*
X10338353Y36631D01*
X10338353Y36631D02*
X10225467Y-5429D01*
X10225467Y-5429D02*
X10035106Y-12076D01*
X10771286Y737881D02*
X10808029Y777283D01*
X10808029Y777283D02*
X10882844Y818014D01*
X10882844Y818014D02*
X11073204Y824661D01*
X11073204Y824661D02*
X11150677Y789248D01*
X11150677Y789248D02*
X11190079Y752506D01*
X11190079Y752506D02*
X11230810Y677691D01*
X11230810Y677691D02*
X11233469Y601547D01*
X11233469Y601547D02*
X11199385Y486002D01*
X11199385Y486002D02*
X10758475Y13183D01*
X10758475Y13183D02*
X11253411Y30467D01*
X11920095Y587406D02*
X11938708Y54398D01*
X11719099Y885335D02*
X11548681Y307607D01*
X11548681Y307607D02*
X12043618Y324891D01*
X-7417588Y-9403536D02*
X-8030423Y-8889306D01*
X-8030423Y-8889306D02*
X-7907987Y-8743393D01*
X-7907987Y-8743393D02*
X-7805343Y-8680332D01*
X-7805343Y-8680332D02*
X-7698004Y-8670941D01*
X-7698004Y-8670941D02*
X-7615151Y-8690733D01*
X-7615151Y-8690733D02*
X-7473934Y-8759499D01*
X-7473934Y-8759499D02*
X-7386386Y-8832960D01*
X-7386386Y-8832960D02*
X-7294142Y-8960091D01*
X-7294142Y-8960091D02*
X-7260264Y-9038248D01*
X-7260264Y-9038248D02*
X-7250873Y-9145588D01*
X-7250873Y-9145588D02*
X-7295152Y-9257623D01*
X-7295152Y-9257623D02*
X-7417588Y-9403536D01*
X-7180088Y-8409307D02*
X-7258245Y-8443185D01*
X-7258245Y-8443185D02*
X-7311915Y-8447880D01*
X-7311915Y-8447880D02*
X-7394767Y-8428089D01*
X-7394767Y-8428089D02*
X-7423950Y-8403602D01*
X-7423950Y-8403602D02*
X-7457828Y-8325445D01*
X-7457828Y-8325445D02*
X-7462523Y-8271775D01*
X-7462523Y-8271775D02*
X-7442732Y-8188922D01*
X-7442732Y-8188922D02*
X-7344783Y-8072192D01*
X-7344783Y-8072192D02*
X-7266626Y-8038314D01*
X-7266626Y-8038314D02*
X-7212956Y-8033618D01*
X-7212956Y-8033618D02*
X-7130104Y-8053410D01*
X-7130104Y-8053410D02*
X-7100921Y-8077897D01*
X-7100921Y-8077897D02*
X-7067043Y-8156054D01*
X-7067043Y-8156054D02*
X-7062348Y-8209724D01*
X-7062348Y-8209724D02*
X-7082139Y-8292576D01*
X-7082139Y-8292576D02*
X-7180088Y-8409307D01*
X-7180088Y-8409307D02*
X-7199880Y-8492159D01*
X-7199880Y-8492159D02*
X-7195184Y-8545829D01*
X-7195184Y-8545829D02*
X-7161306Y-8623986D01*
X-7161306Y-8623986D02*
X-7044575Y-8721935D01*
X-7044575Y-8721935D02*
X-6961723Y-8741726D01*
X-6961723Y-8741726D02*
X-6908053Y-8737031D01*
X-6908053Y-8737031D02*
X-6829896Y-8703153D01*
X-6829896Y-8703153D02*
X-6731948Y-8586422D01*
X-6731948Y-8586422D02*
X-6712156Y-8503570D01*
X-6712156Y-8503570D02*
X-6716851Y-8449900D01*
X-6716851Y-8449900D02*
X-6750730Y-8371743D01*
X-6750730Y-8371743D02*
X-6867460Y-8273794D01*
X-6867460Y-8273794D02*
X-6950313Y-8254003D01*
X-6950313Y-8254003D02*
X-7003982Y-8258698D01*
X-7003982Y-8258698D02*
X-7082139Y-8292576D01*
X-6144256Y-7886038D02*
X-6438102Y-8236230D01*
X-6291179Y-8061134D02*
X-6904014Y-7546904D01*
X-6904014Y-7546904D02*
X-6865441Y-7678731D01*
X-6865441Y-7678731D02*
X-6856050Y-7786070D01*
X-6856050Y-7786070D02*
X-6875841Y-7868923D01*
X-3447142Y-458773D02*
X-3507618Y-519250D01*
X-3507618Y-519250D02*
X-3689047Y-579726D01*
X-3689047Y-579726D02*
X-3809999Y-579726D01*
X-3809999Y-579726D02*
X-3991428Y-519250D01*
X-3991428Y-519250D02*
X-4112380Y-398297D01*
X-4112380Y-398297D02*
X-4172857Y-277345D01*
X-4172857Y-277345D02*
X-4233333Y-35440D01*
X-4233333Y-35440D02*
X-4233333Y145988D01*
X-4233333Y145988D02*
X-4172857Y387892D01*
X-4172857Y387892D02*
X-4112380Y508845D01*
X-4112380Y508845D02*
X-3991428Y629797D01*
X-3991428Y629797D02*
X-3809999Y690273D01*
X-3809999Y690273D02*
X-3689047Y690273D01*
X-3689047Y690273D02*
X-3507618Y629797D01*
X-3507618Y629797D02*
X-3447142Y569321D01*
X-2177142Y-579726D02*
X-2600476Y25035D01*
X-2902857Y-579726D02*
X-2902857Y690273D01*
X-2902857Y690273D02*
X-2419047Y690273D01*
X-2419047Y690273D02*
X-2298095Y629797D01*
X-2298095Y629797D02*
X-2237618Y569321D01*
X-2237618Y569321D02*
X-2177142Y448369D01*
X-2177142Y448369D02*
X-2177142Y266940D01*
X-2177142Y266940D02*
X-2237618Y145988D01*
X-2237618Y145988D02*
X-2298095Y85511D01*
X-2298095Y85511D02*
X-2419047Y25035D01*
X-2419047Y25035D02*
X-2902857Y25035D01*
X-1632857Y-95916D02*
X-665238Y-95916D01*
X-120952Y569321D02*
X-60476Y629797D01*
X-60476Y629797D02*
X60476Y690273D01*
X60476Y690273D02*
X362857Y690273D01*
X362857Y690273D02*
X483809Y629797D01*
X483809Y629797D02*
X544285Y569321D01*
X544285Y569321D02*
X604762Y448369D01*
X604762Y448369D02*
X604762Y327416D01*
X604762Y327416D02*
X544285Y145988D01*
X544285Y145988D02*
X-181428Y-579726D01*
X-181428Y-579726D02*
X604762Y-579726D01*
X1390952Y690273D02*
X1511905Y690273D01*
X1511905Y690273D02*
X1632857Y629797D01*
X1632857Y629797D02*
X1693333Y569321D01*
X1693333Y569321D02*
X1753809Y448369D01*
X1753809Y448369D02*
X1814286Y206464D01*
X1814286Y206464D02*
X1814286Y-95916D01*
X1814286Y-95916D02*
X1753809Y-337821D01*
X1753809Y-337821D02*
X1693333Y-458773D01*
X1693333Y-458773D02*
X1632857Y-519250D01*
X1632857Y-519250D02*
X1511905Y-579726D01*
X1511905Y-579726D02*
X1390952Y-579726D01*
X1390952Y-579726D02*
X1270000Y-519250D01*
X1270000Y-519250D02*
X1209524Y-458773D01*
X1209524Y-458773D02*
X1149047Y-337821D01*
X1149047Y-337821D02*
X1088571Y-95916D01*
X1088571Y-95916D02*
X1088571Y206464D01*
X1088571Y206464D02*
X1149047Y448369D01*
X1149047Y448369D02*
X1209524Y569321D01*
X1209524Y569321D02*
X1270000Y629797D01*
X1270000Y629797D02*
X1390952Y690273D01*
X2237619Y690273D02*
X3023810Y690273D01*
X3023810Y690273D02*
X2600476Y206464D01*
X2600476Y206464D02*
X2781905Y206464D01*
X2781905Y206464D02*
X2902857Y145988D01*
X2902857Y145988D02*
X2963333Y85511D01*
X2963333Y85511D02*
X3023810Y-35440D01*
X3023810Y-35440D02*
X3023810Y-337821D01*
X3023810Y-337821D02*
X2963333Y-458773D01*
X2963333Y-458773D02*
X2902857Y-519250D01*
X2902857Y-519250D02*
X2781905Y-579726D01*
X2781905Y-579726D02*
X2419048Y-579726D01*
X2419048Y-579726D02*
X2298095Y-519250D01*
X2298095Y-519250D02*
X2237619Y-458773D01*
X3507619Y569321D02*
X3568095Y629797D01*
X3568095Y629797D02*
X3689048Y690273D01*
X3689048Y690273D02*
X3991429Y690273D01*
X3991429Y690273D02*
X4112381Y629797D01*
X4112381Y629797D02*
X4172857Y569321D01*
X4172857Y569321D02*
X4233334Y448369D01*
X4233334Y448369D02*
X4233334Y327416D01*
X4233334Y327416D02*
X4172857Y145988D01*
X4172857Y145988D02*
X3447143Y-579726D01*
X3447143Y-579726D02*
X4233334Y-579726D01*
D11*
%TO.C,D30*%
X9327710Y4827613D02*
X9481140Y4513035D01*
X9481140Y4513035D02*
X9681715Y4443972D01*
X9681715Y4443972D02*
X10445690Y4816587D01*
X10226504Y5265984D02*
X9327710Y4827613D01*
X10445690Y4816587D02*
X10226504Y5265984D01*
%TO.C,D70*%
X-11463093Y-953434D02*
X-11410829Y-1450695D01*
X-11410829Y-1450695D02*
X-10416307Y-1346166D01*
X-10617749Y-864585D02*
X-11463093Y-953434D01*
X-10452892Y-998084D02*
X-10617749Y-864585D01*
X-10416307Y-1346166D02*
X-10452892Y-998084D01*
%TO.C,D49*%
X-2635493Y11196696D02*
X-2427581Y10218548D01*
X-2427581Y10218548D02*
X-2085229Y10291317D01*
X-2146419Y11300652D02*
X-2635493Y11196696D01*
X-2085229Y10291317D02*
X-1969694Y10469226D01*
X-1969694Y10469226D02*
X-2146419Y11300652D01*
%TO.C,D12*%
X7218235Y-7834596D02*
X7808694Y-8446034D01*
X7221937Y-7622496D02*
X7218235Y-7834596D01*
X7473706Y-7379366D02*
X7221937Y-7622496D01*
X7808694Y-8446034D02*
X8168364Y-8098705D01*
X8168364Y-8098705D02*
X7473706Y-7379366D01*
%TO.C,D76*%
X-10084313Y-5533494D02*
X-9834313Y-5966506D01*
X-9834313Y-5966506D02*
X-8968287Y-5466506D01*
X-9348191Y-5108494D02*
X-10084313Y-5533494D01*
X-9143287Y-5163397D02*
X-9348191Y-5108494D01*
X-8968287Y-5466506D02*
X-9143287Y-5163397D01*
%TO.C,D43*%
X1938507Y10322504D02*
X2280859Y10249735D01*
X2146419Y11300652D02*
X1938507Y10322504D01*
X2280859Y10249735D02*
X2458768Y10365270D01*
X2458768Y10365270D02*
X2635493Y11196696D01*
X2635493Y11196696D02*
X2146419Y11300652D01*
%TO.C,D21*%
X10323131Y-1921757D02*
X10444805Y-2095525D01*
X10383908Y-1577074D02*
X10323131Y-1921757D01*
X10444805Y-2095525D02*
X11281892Y-2243126D01*
X11281892Y-2243126D02*
X11368716Y-1750722D01*
X11368716Y-1750722D02*
X10383908Y-1577074D01*
%TO.C,D67*%
X-11463093Y953434D02*
X-10468571Y848905D01*
X-11410829Y1450695D02*
X-11463093Y953434D01*
X-10565485Y1361848D02*
X-11410829Y1450695D01*
X-10468571Y848905D02*
X-10431986Y1196988D01*
X-10431986Y1196988D02*
X-10565485Y1361848D01*
%TO.C,D47*%
X-1051569Y11454543D02*
X-981813Y10456979D01*
X-981813Y10456979D02*
X-632665Y10481394D01*
X-632665Y10481394D02*
X-493494Y10641492D01*
X-552787Y11489421D02*
X-1051569Y11454543D01*
X-493494Y10641492D02*
X-552787Y11489421D01*
%TO.C,D83*%
X-6306072Y-9620044D02*
X-5882048Y-9885004D01*
X-5882048Y-9885004D02*
X-5352128Y-9036956D01*
X-5855640Y-8899203D02*
X-6306072Y-9620044D01*
X-5648945Y-8851484D02*
X-5855640Y-8899203D01*
X-5352128Y-9036956D02*
X-5648945Y-8851484D01*
%TO.C,D90*%
X-1051569Y-11454543D02*
X-552787Y-11489421D01*
X-992276Y-10606613D02*
X-1051569Y-11454543D01*
X-832178Y-10467442D02*
X-992276Y-10606613D01*
X-552787Y-11489421D02*
X-483031Y-10491857D01*
X-483031Y-10491857D02*
X-832178Y-10467442D01*
%TO.C,U3*%
D12*
X5650000Y3300000D02*
X2750000Y3300000D01*
X2750000Y700000D01*
X5650000Y700000D01*
X5650000Y3300000D01*
X5650000Y2800000D02*
X5150000Y3300000D01*
X5650000Y3300000D01*
X5650000Y2800000D01*
G36*
X5650000Y2800000D02*
G01*
X5150000Y3300000D01*
X5650000Y3300000D01*
X5650000Y2800000D01*
G37*
D13*
X5650000Y3300000D02*
X2750000Y3300000D01*
X2750000Y700000D01*
X5650000Y700000D01*
X5650000Y3300000D01*
X5650000Y2800000D02*
X5150000Y3300000D01*
X5650000Y3300000D01*
X5650000Y2800000D01*
G36*
X5650000Y2800000D02*
G01*
X5150000Y3300000D01*
X5650000Y3300000D01*
X5650000Y2800000D01*
G37*
D11*
%TO.C,D31*%
X8968287Y5466506D02*
X9143287Y5163397D01*
X9143287Y5163397D02*
X9348191Y5108494D01*
X9348191Y5108494D02*
X10084313Y5533494D01*
X9834313Y5966506D02*
X8968287Y5466506D01*
X10084313Y5533494D02*
X9834313Y5966506D01*
%TO.C,D50*%
X-3410134Y10985622D02*
X-3134497Y10024360D01*
X-3134497Y10024360D02*
X-2798055Y10120833D01*
X-2929503Y11123440D02*
X-3410134Y10985622D01*
X-2798055Y10120833D02*
X-2695212Y10306368D01*
X-2695212Y10306368D02*
X-2929503Y11123440D01*
%TO.C,D51*%
X-4168133Y10720941D02*
X-3826113Y9781249D01*
X-3826113Y9781249D02*
X-3497221Y9900956D01*
X-3698287Y10891951D02*
X-4168133Y10720941D01*
X-3497221Y9900956D02*
X-3407570Y10093213D01*
X-3407570Y10093213D02*
X-3698287Y10891951D01*
%TO.C,D32*%
X8565083Y6078763D02*
X8760801Y5788600D01*
X8760801Y5788600D02*
X8969035Y5748123D01*
X8969035Y5748123D02*
X9673717Y6223437D01*
X9394121Y6637956D02*
X8565083Y6078763D01*
X9673717Y6223437D02*
X9394121Y6637956D01*
%TO.C,D40*%
X4042345Y9693911D02*
X4362086Y9551554D01*
X4362086Y9551554D02*
X4560129Y9627575D01*
X4449082Y10607457D02*
X4042345Y9693911D01*
X4560129Y9627575D02*
X4905855Y10404089D01*
X4905855Y10404089D02*
X4449082Y10607457D01*
%TO.C,D26*%
X10297084Y2069478D02*
X10357861Y1724795D01*
X10357861Y1724795D02*
X10531629Y1603121D01*
X10531629Y1603121D02*
X11368716Y1750722D01*
X11281892Y2243126D02*
X10297084Y2069478D01*
X11368716Y1750722D02*
X11281892Y2243126D01*
%TO.C,D33*%
X8120179Y6661472D02*
X8335661Y6385668D01*
X8335661Y6385668D02*
X8546212Y6359816D01*
X8546212Y6359816D02*
X9216021Y6883128D01*
X8908190Y7277133D02*
X8120179Y6661472D01*
X9216021Y6883128D02*
X8908190Y7277133D01*
%TO.C,D36*%
X6557795Y8204175D02*
X6825911Y7979199D01*
X6825911Y7979199D02*
X7037235Y7997688D01*
X7037235Y7997688D02*
X7583605Y8648825D01*
X7200583Y8970219D02*
X6557795Y8204175D01*
X7583605Y8648825D02*
X7200583Y8970219D01*
%TO.C,D34*%
X7635745Y7211621D02*
X7869941Y6951520D01*
X7869941Y6951520D02*
X8081782Y6940418D01*
X8081782Y6940418D02*
X8713455Y7509179D01*
X8378891Y7880752D02*
X7635745Y7211621D01*
X8713455Y7509179D02*
X8378891Y7880752D01*
%TO.C,D20*%
X10163960Y-2637169D02*
X10273216Y-2819001D01*
X10248633Y-2297565D02*
X10163960Y-2637169D01*
X10273216Y-2819001D02*
X11097967Y-3024635D01*
X11097967Y-3024635D02*
X11218928Y-2539487D01*
X11218928Y-2539487D02*
X10248633Y-2297565D01*
%TO.C,D87*%
X-3410134Y-10985622D02*
X-2929503Y-11123440D01*
X-3175842Y-10168549D02*
X-3410134Y-10985622D01*
X-2990307Y-10065704D02*
X-3175842Y-10168549D01*
X-2929503Y-11123440D02*
X-2653866Y-10162178D01*
X-2653866Y-10162178D02*
X-2990307Y-10065704D01*
%TO.C,D62*%
X-10445690Y4816587D02*
X-9546896Y4378216D01*
X-10226504Y5265984D02*
X-10445690Y4816587D01*
X-9546896Y4378216D02*
X-9393466Y4692794D01*
X-9462529Y4893369D02*
X-10226504Y5265984D01*
X-9393466Y4692794D02*
X-9462529Y4893369D01*
%TO.C,D89*%
X-1848054Y-11353241D02*
X-1352921Y-11422827D01*
X-1729756Y-10511513D02*
X-1848054Y-11353241D01*
X-1560340Y-10383849D02*
X-1729756Y-10511513D01*
X-1352921Y-11422827D02*
X-1213746Y-10432559D01*
X-1213746Y-10432559D02*
X-1560340Y-10383849D01*
%TO.C,D25*%
X10416307Y1346166D02*
X10452892Y998084D01*
X10452892Y998084D02*
X10617749Y864585D01*
X10617749Y864585D02*
X11463093Y953434D01*
X11410829Y1450695D02*
X10416307Y1346166D01*
X11463093Y953434D02*
X11410829Y1450695D01*
%TO.C,D28*%
X9908817Y3482457D02*
X10016973Y3149586D01*
X10016973Y3149586D02*
X10205984Y3053280D01*
X10205984Y3053280D02*
X11014383Y3315943D01*
X10859874Y3791473D02*
X9908817Y3482457D01*
X11014383Y3315943D02*
X10859874Y3791473D01*
%TO.C,D71*%
X-11368716Y-1750722D02*
X-11281892Y-2243126D01*
X-11281892Y-2243126D02*
X-10297084Y-2069478D01*
X-10531629Y-1603121D02*
X-11368716Y-1750722D01*
X-10357861Y-1724795D02*
X-10531629Y-1603121D01*
X-10297084Y-2069478D02*
X-10357861Y-1724795D01*
%TO.C,D42*%
X2653866Y10162178D02*
X2990307Y10065704D01*
X2929503Y11123440D02*
X2653866Y10162178D01*
X2990307Y10065704D02*
X3175842Y10168549D01*
X3175842Y10168549D02*
X3410134Y10985622D01*
X3410134Y10985622D02*
X2929503Y11123440D01*
%TO.C,D59*%
X-9216021Y6883128D02*
X-8428010Y6267467D01*
X-8908190Y7277133D02*
X-9216021Y6883128D01*
X-8428010Y6267467D02*
X-8212528Y6543270D01*
X-8238381Y6753821D02*
X-8908190Y7277133D01*
X-8212528Y6543270D02*
X-8238381Y6753821D01*
%TO.C,D85*%
X-4905855Y-10404089D02*
X-4449082Y-10607457D01*
X-4560129Y-9627575D02*
X-4905855Y-10404089D01*
X-4449082Y-10607457D02*
X-4042345Y-9693911D01*
X-4362086Y-9551554D02*
X-4560129Y-9627575D01*
X-4042345Y-9693911D02*
X-4362086Y-9551554D01*
%TO.C,D11*%
X6654213Y-8319081D02*
X7200583Y-8970219D01*
X6672702Y-8107757D02*
X6654213Y-8319081D01*
X6940817Y-7882781D02*
X6672702Y-8107757D01*
X7200583Y-8970219D02*
X7583605Y-8648825D01*
X7583605Y-8648825D02*
X6940817Y-7882781D01*
%TO.C,D44*%
X1213746Y10432559D02*
X1560340Y10383849D01*
X1352921Y11422827D02*
X1213746Y10432559D01*
X1560340Y10383849D02*
X1729756Y10511513D01*
X1729756Y10511513D02*
X1848054Y11353241D01*
X1848054Y11353241D02*
X1352921Y11422827D01*
%TO.C,D18*%
X9697947Y-4026115D02*
X9780834Y-4221384D01*
X9780834Y-4221384D02*
X10568940Y-4539799D01*
X9829060Y-3701601D02*
X9697947Y-4026115D01*
X10568940Y-4539799D02*
X10756244Y-4076207D01*
X10756244Y-4076207D02*
X9829060Y-3701601D01*
%TO.C,D16*%
X9043287Y-5336603D02*
X9098191Y-5541506D01*
X9098191Y-5541506D02*
X9834313Y-5966506D01*
X9218287Y-5033494D02*
X9043287Y-5336603D01*
X9834313Y-5966506D02*
X10084313Y-5533494D01*
X10084313Y-5533494D02*
X9218287Y-5033494D01*
%TO.C,D55*%
X-6961747Y9156762D02*
X-6373962Y8347745D01*
X-6557238Y9450655D02*
X-6961747Y9156762D01*
X-6373962Y8347745D02*
X-6090806Y8553470D01*
X-6090806Y8553470D02*
X-6057621Y8762990D01*
X-6057621Y8762990D02*
X-6557238Y9450655D01*
%TO.C,D52*%
X-4905855Y10404089D02*
X-4499118Y9490543D01*
X-4499118Y9490543D02*
X-4179377Y9632901D01*
X-4449082Y10607457D02*
X-4905855Y10404089D01*
X-4179377Y9632901D02*
X-4103356Y9830943D01*
X-4103356Y9830943D02*
X-4449082Y10607457D01*
%TO.C,D10*%
X6057621Y-8762990D02*
X6557238Y-9450655D01*
X6090806Y-8553470D02*
X6057621Y-8762990D01*
X6373962Y-8347745D02*
X6090806Y-8553470D01*
X6557238Y-9450655D02*
X6961747Y-9156762D01*
X6961747Y-9156762D02*
X6373962Y-8347745D01*
D13*
%TO.C,R2*%
X1100000Y-1250000D02*
X2100000Y-1250000D01*
X1100000Y-1750000D02*
X1100000Y-1250000D01*
X2100000Y-1250000D02*
X2100000Y-1750000D01*
X2100000Y-1750000D02*
X1100000Y-1750000D01*
D11*
%TO.C,D77*%
X-9673717Y-6223437D02*
X-9394121Y-6637956D01*
X-9394121Y-6637956D02*
X-8565083Y-6078763D01*
X-8969035Y-5748123D02*
X-9673717Y-6223437D01*
X-8760801Y-5788600D02*
X-8969035Y-5748123D01*
X-8565083Y-6078763D02*
X-8760801Y-5788600D01*
%TO.C,D58*%
X-8713455Y7509179D02*
X-7970309Y6840048D01*
X-8378891Y7880752D02*
X-8713455Y7509179D01*
X-7970309Y6840048D02*
X-7736115Y7100149D01*
X-7747217Y7311990D02*
X-8378891Y7880752D01*
X-7736115Y7100149D02*
X-7747217Y7311990D01*
%TO.C,D73*%
X-11014383Y-3315943D02*
X-10859874Y-3791473D01*
X-10859874Y-3791473D02*
X-9908817Y-3482457D01*
X-10205984Y-3053280D02*
X-11014383Y-3315943D01*
X-10016973Y-3149586D02*
X-10205984Y-3053280D01*
X-9908817Y-3482457D02*
X-10016973Y-3149586D01*
%TO.C,D88*%
X-2635493Y-11196696D02*
X-2146419Y-11300652D01*
X-2458768Y-10365270D02*
X-2635493Y-11196696D01*
X-2280859Y-10249735D02*
X-2458768Y-10365270D01*
X-2146419Y-11300652D02*
X-1938507Y-10322504D01*
X-1938507Y-10322504D02*
X-2280859Y-10249735D01*
%TO.C,D66*%
X-11368716Y1750722D02*
X-10383908Y1577074D01*
X-11281892Y2243126D02*
X-11368716Y1750722D01*
X-10444805Y2095525D02*
X-11281892Y2243126D01*
X-10383908Y1577074D02*
X-10323131Y1921757D01*
X-10323131Y1921757D02*
X-10444805Y2095525D01*
D13*
%TO.C,C2*%
X-4500000Y2950000D02*
X-3500000Y2950000D01*
X-4500000Y2450000D02*
X-4500000Y2950000D01*
X-3500000Y2950000D02*
X-3500000Y2450000D01*
X-3500000Y2450000D02*
X-4500000Y2450000D01*
D11*
%TO.C,D7*%
X4103356Y-9830943D02*
X4449082Y-10607457D01*
X4179377Y-9632901D02*
X4103356Y-9830943D01*
X4449082Y-10607457D02*
X4905855Y-10404089D01*
X4499118Y-9490543D02*
X4179377Y-9632901D01*
X4905855Y-10404089D02*
X4499118Y-9490543D01*
%TO.C,D17*%
X9393466Y-4692794D02*
X9462529Y-4893369D01*
X9462529Y-4893369D02*
X10226504Y-5265984D01*
X9546896Y-4378216D02*
X9393466Y-4692794D01*
X10226504Y-5265984D02*
X10445690Y-4816587D01*
X10445690Y-4816587D02*
X9546896Y-4378216D01*
%TO.C,D5*%
X2695212Y-10306368D02*
X2929503Y-11123440D01*
X2798055Y-10120833D02*
X2695212Y-10306368D01*
X2929503Y-11123440D02*
X3410134Y-10985622D01*
X3134497Y-10024360D02*
X2798055Y-10120833D01*
X3410134Y-10985622D02*
X3134497Y-10024360D01*
%TO.C,D80*%
X-8168364Y-8098705D02*
X-7808694Y-8446034D01*
X-7808694Y-8446034D02*
X-7114036Y-7726695D01*
X-7577905Y-7487266D02*
X-8168364Y-8098705D01*
X-7365805Y-7483564D02*
X-7577905Y-7487266D01*
X-7114036Y-7726695D02*
X-7365805Y-7483564D01*
%TO.C,D23*%
X10490115Y-466389D02*
X10634788Y-621533D01*
X10502329Y-116603D02*
X10490115Y-466389D01*
X10634788Y-621533D02*
X11484271Y-651197D01*
X11484271Y-651197D02*
X11501720Y-151502D01*
X11501720Y-151502D02*
X10502329Y-116603D01*
%TO.C,D74*%
X-10756244Y-4076207D02*
X-10568940Y-4539799D01*
X-10568940Y-4539799D02*
X-9641756Y-4165193D01*
X-9968137Y-3757792D02*
X-10756244Y-4076207D01*
X-9772869Y-3840678D02*
X-9968137Y-3757792D01*
X-9641756Y-4165193D02*
X-9772869Y-3840678D01*
%TO.C,D60*%
X-9673717Y6223437D02*
X-8844679Y5664244D01*
X-9394121Y6637956D02*
X-9673717Y6223437D01*
X-8844679Y5664244D02*
X-8648962Y5954407D01*
X-8689439Y6162642D02*
X-9394121Y6637956D01*
X-8648962Y5954407D02*
X-8689439Y6162642D01*
%TO.C,D13*%
X7736115Y-7100149D02*
X7747217Y-7311990D01*
X7747217Y-7311990D02*
X8378891Y-7880752D01*
X7970309Y-6840048D02*
X7736115Y-7100149D01*
X8378891Y-7880752D02*
X8713455Y-7509179D01*
X8713455Y-7509179D02*
X7970309Y-6840048D01*
%TO.C,D29*%
X9641756Y4165193D02*
X9772869Y3840678D01*
X9772869Y3840678D02*
X9968137Y3757792D01*
X9968137Y3757792D02*
X10756244Y4076207D01*
X10568940Y4539799D02*
X9641756Y4165193D01*
X10756244Y4076207D02*
X10568940Y4539799D01*
%TO.C,D14*%
X8212528Y-6543270D02*
X8238381Y-6753821D01*
X8238381Y-6753821D02*
X8908190Y-7277133D01*
X8428010Y-6267467D02*
X8212528Y-6543270D01*
X8908190Y-7277133D02*
X9216021Y-6883128D01*
X9216021Y-6883128D02*
X8428010Y-6267467D01*
%TO.C,D1*%
X-250000Y-10650000D02*
X-250000Y-11500000D01*
X-250000Y-11500000D02*
X250000Y-11500000D01*
X-100000Y-10500000D02*
X-250000Y-10650000D01*
X250000Y-10500000D02*
X-100000Y-10500000D01*
X250000Y-11500000D02*
X250000Y-10500000D01*
%TO.C,D3*%
X1234622Y-10581098D02*
X1352921Y-11422827D01*
X1352921Y-11422827D02*
X1848054Y-11353241D01*
X1362287Y-10411683D02*
X1234622Y-10581098D01*
X1708879Y-10362973D02*
X1362287Y-10411683D01*
X1848054Y-11353241D02*
X1708879Y-10362973D01*
%TO.C,D22*%
X10431986Y-1196988D02*
X10565485Y-1361848D01*
X10468571Y-848905D02*
X10431986Y-1196988D01*
X10565485Y-1361848D02*
X11410829Y-1450695D01*
X11410829Y-1450695D02*
X11463093Y-953434D01*
X11463093Y-953434D02*
X10468571Y-848905D01*
%TO.C,D46*%
X-250000Y11500000D02*
X-250000Y10500000D01*
X-250000Y10500000D02*
X100000Y10500000D01*
X100000Y10500000D02*
X250000Y10650000D01*
X250000Y11500000D02*
X-250000Y11500000D01*
X250000Y10650000D02*
X250000Y11500000D01*
%TO.C,D37*%
X5969453Y8641638D02*
X6252609Y8435913D01*
X6252609Y8435913D02*
X6462129Y8469098D01*
X6462129Y8469098D02*
X6961747Y9156762D01*
X6557238Y9450655D02*
X5969453Y8641638D01*
X6961747Y9156762D02*
X6557238Y9450655D01*
%TO.C,D63*%
X-10756244Y4076207D02*
X-9829060Y3701601D01*
X-10568940Y4539799D02*
X-10756244Y4076207D01*
X-9829060Y3701601D02*
X-9697947Y4026115D01*
X-9780834Y4221384D02*
X-10568940Y4539799D01*
X-9697947Y4026115D02*
X-9780834Y4221384D01*
%TO.C,D78*%
X-9216021Y-6883128D02*
X-8908190Y-7277133D01*
X-8908190Y-7277133D02*
X-8120179Y-6661472D01*
X-8546212Y-6359816D02*
X-9216021Y-6883128D01*
X-8335661Y-6385668D02*
X-8546212Y-6359816D01*
X-8120179Y-6661472D02*
X-8335661Y-6385668D01*
%TO.C,D86*%
X-4168133Y-10720941D02*
X-3698287Y-10891951D01*
X-3877416Y-9922203D02*
X-4168133Y-10720941D01*
X-3698287Y-10891951D02*
X-3356267Y-9952259D01*
X-3685159Y-9832552D02*
X-3877416Y-9922203D01*
X-3356267Y-9952259D02*
X-3685159Y-9832552D01*
D12*
%TO.C,J1*%
X2505000Y1370000D02*
X2505000Y735000D01*
X2505000Y735000D02*
X1870000Y735000D01*
D11*
%TO.C,D84*%
X-5619673Y-10036506D02*
X-5178199Y-10271242D01*
X-5220622Y-9286000D02*
X-5619673Y-10036506D01*
X-5178199Y-10271242D02*
X-4708727Y-9388294D01*
X-5017759Y-9223979D02*
X-5220622Y-9286000D01*
X-4708727Y-9388294D02*
X-5017759Y-9223979D01*
%TO.C,D53*%
X-5619673Y10036506D02*
X-5150201Y9153558D01*
X-5178199Y10271242D02*
X-5619673Y10036506D01*
X-5150201Y9153558D02*
X-4841169Y9317872D01*
X-4841169Y9317872D02*
X-4779148Y9520736D01*
X-4779148Y9520736D02*
X-5178199Y10271242D01*
%TO.C,D41*%
X3356267Y9952259D02*
X3685159Y9832552D01*
X3685159Y9832552D02*
X3877416Y9922203D01*
X3698287Y10891951D02*
X3356267Y9952259D01*
X3877416Y9922203D02*
X4168133Y10720941D01*
X4168133Y10720941D02*
X3698287Y10891951D01*
D12*
%TO.C,U1*%
X-4500000Y2000000D02*
X-4500000Y1600000D01*
X-4500000Y2000000D02*
X-4100000Y2000000D01*
X-4500000Y-2200000D02*
X-4500000Y-1800000D01*
X-4500000Y-2200000D02*
X-4100000Y-2200000D01*
X-300000Y2000000D02*
X-700000Y2000000D01*
X-300000Y2000000D02*
X-300000Y1600000D01*
X-300000Y-2200000D02*
X-700000Y-2200000D01*
X-300000Y-2200000D02*
X-300000Y-1800000D01*
X-300000Y1600000D02*
X-700000Y2000000D01*
X-300000Y2000000D01*
X-300000Y1600000D01*
G36*
X-300000Y1600000D02*
G01*
X-700000Y2000000D01*
X-300000Y2000000D01*
X-300000Y1600000D01*
G37*
D13*
X-400000Y1900000D02*
X-4400000Y1900000D01*
X-4400000Y-2100000D01*
X-400000Y-2100000D01*
X-400000Y1900000D01*
X-400000Y1400000D02*
X-900000Y1900000D01*
X-400000Y1900000D01*
X-400000Y1400000D01*
G36*
X-400000Y1400000D02*
G01*
X-900000Y1900000D01*
X-400000Y1900000D01*
X-400000Y1400000D01*
G37*
D11*
%TO.C,D27*%
X10127672Y2782713D02*
X10212344Y2443109D01*
X10212344Y2443109D02*
X10394177Y2333853D01*
X10394177Y2333853D02*
X11218928Y2539487D01*
X11097967Y3024635D02*
X10127672Y2782713D01*
X11218928Y2539487D02*
X11097967Y3024635D01*
%TO.C,D19*%
X9955170Y-3339797D02*
X10051476Y-3528808D01*
X10051476Y-3528808D02*
X10859874Y-3791473D01*
X10063326Y-3006927D02*
X9955170Y-3339797D01*
X10859874Y-3791473D02*
X11014383Y-3315943D01*
X11014383Y-3315943D02*
X10063326Y-3006927D01*
%TO.C,D38*%
X5352128Y9036956D02*
X5648945Y8851484D01*
X5648945Y8851484D02*
X5855640Y8899203D01*
X5855640Y8899203D02*
X6306072Y9620044D01*
X5882048Y9885004D02*
X5352128Y9036956D01*
X6306072Y9620044D02*
X5882048Y9885004D01*
%TO.C,D9*%
X5431616Y-9164163D02*
X5882048Y-9885004D01*
X5479336Y-8957468D02*
X5431616Y-9164163D01*
X5776152Y-8771996D02*
X5479336Y-8957468D01*
X5882048Y-9885004D02*
X6306072Y-9620044D01*
X6306072Y-9620044D02*
X5776152Y-8771996D01*
%TO.C,D82*%
X-6961747Y-9156762D02*
X-6557238Y-9450655D01*
X-6557238Y-9450655D02*
X-5969453Y-8641638D01*
X-6462129Y-8469098D02*
X-6961747Y-9156762D01*
X-6252609Y-8435913D02*
X-6462129Y-8469098D01*
X-5969453Y-8641638D02*
X-6252609Y-8435913D01*
D13*
%TO.C,R1*%
X-1000000Y-3400000D02*
X-500000Y-3400000D01*
X-1000000Y-4400000D02*
X-1000000Y-3400000D01*
X-500000Y-3400000D02*
X-500000Y-4400000D01*
X-500000Y-4400000D02*
X-1000000Y-4400000D01*
D11*
%TO.C,D39*%
X4708727Y9388294D02*
X5017759Y9223979D01*
X5017759Y9223979D02*
X5220622Y9286000D01*
X5178199Y10271242D02*
X4708727Y9388294D01*
X5220622Y9286000D02*
X5619673Y10036506D01*
X5619673Y10036506D02*
X5178199Y10271242D01*
%TO.C,D56*%
X-7583605Y8648825D02*
X-6940817Y7882781D01*
X-7200583Y8970219D02*
X-7583605Y8648825D01*
X-6940817Y7882781D02*
X-6672702Y8107757D01*
X-6672702Y8107757D02*
X-6654213Y8319081D01*
X-6654213Y8319081D02*
X-7200583Y8970219D01*
%TO.C,D2*%
X493494Y-10641492D02*
X552787Y-11489421D01*
X552787Y-11489421D02*
X1051569Y-11454543D01*
X632665Y-10481394D02*
X493494Y-10641492D01*
X981813Y-10456979D02*
X632665Y-10481394D01*
X1051569Y-11454543D02*
X981813Y-10456979D01*
D13*
%TO.C,U2*%
X64973Y-4699924D02*
X64973Y-4589941D01*
X65024Y-2399924D02*
X65024Y-2509906D01*
X685014Y-2399924D02*
X65024Y-2399924D01*
X685014Y-4699924D02*
X64973Y-4699924D01*
X1764948Y-2399898D02*
X2384989Y-2399898D01*
X1764973Y-4699847D02*
X2384989Y-4699847D01*
X2384989Y-2399898D02*
X2384989Y-2509881D01*
X2384989Y-4699847D02*
X2384989Y-4589865D01*
D14*
X262484Y-2549936D02*
G75*
G02*
X202540Y-2549936I-29972J0D01*
G01*
X202540Y-2549936D02*
G75*
G02*
X262484Y-2549936I29972J0D01*
G01*
X254991Y-2549911D02*
G75*
G02*
X195047Y-2549911I-29972J0D01*
G01*
X195047Y-2549911D02*
G75*
G02*
X254991Y-2549911I29972J0D01*
G01*
D11*
%TO.C,D79*%
X-8713455Y-7509179D02*
X-8378891Y-7880752D01*
X-8378891Y-7880752D02*
X-7635745Y-7211621D01*
X-8081782Y-6940418D02*
X-8713455Y-7509179D01*
X-7869941Y-6951520D02*
X-8081782Y-6940418D01*
X-7635745Y-7211621D02*
X-7869941Y-6951520D01*
%TO.C,D54*%
X-6306072Y9620044D02*
X-5776152Y8771996D01*
X-5882048Y9885004D02*
X-6306072Y9620044D01*
X-5776152Y8771996D02*
X-5479336Y8957468D01*
X-5479336Y8957468D02*
X-5431616Y9164163D01*
X-5431616Y9164163D02*
X-5882048Y9885004D01*
%TO.C,D72*%
X-11218928Y-2539487D02*
X-11097967Y-3024635D01*
X-11097967Y-3024635D02*
X-10127672Y-2782713D01*
X-10394177Y-2333853D02*
X-11218928Y-2539487D01*
X-10212344Y-2443109D02*
X-10394177Y-2333853D01*
X-10127672Y-2782713D02*
X-10212344Y-2443109D01*
%TO.C,D45*%
X483031Y10491857D02*
X832178Y10467442D01*
X552787Y11489421D02*
X483031Y10491857D01*
X832178Y10467442D02*
X992276Y10606613D01*
X992276Y10606613D02*
X1051569Y11454543D01*
X1051569Y11454543D02*
X552787Y11489421D01*
%TO.C,D15*%
X8648962Y-5954407D02*
X8689439Y-6162642D01*
X8689439Y-6162642D02*
X9394121Y-6637956D01*
X8844679Y-5664244D02*
X8648962Y-5954407D01*
X9394121Y-6637956D02*
X9673717Y-6223437D01*
X9673717Y-6223437D02*
X8844679Y-5664244D01*
%TO.C,D8*%
X4779148Y-9520736D02*
X5178199Y-10271242D01*
X4841169Y-9317872D02*
X4779148Y-9520736D01*
X5150201Y-9153558D02*
X4841169Y-9317872D01*
X5178199Y-10271242D02*
X5619673Y-10036506D01*
X5619673Y-10036506D02*
X5150201Y-9153558D01*
%TO.C,D68*%
X-11501720Y151502D02*
X-10502329Y116603D01*
X-11484271Y651197D02*
X-11501720Y151502D01*
X-10634788Y621533D02*
X-11484271Y651197D01*
X-10502329Y116603D02*
X-10490115Y466389D01*
X-10490115Y466389D02*
X-10634788Y621533D01*
%TO.C,D35*%
X7114036Y7726695D02*
X7365805Y7483564D01*
X7365805Y7483564D02*
X7577905Y7487266D01*
X7577905Y7487266D02*
X8168364Y8098705D01*
X7808694Y8446034D02*
X7114036Y7726695D01*
X8168364Y8098705D02*
X7808694Y8446034D01*
%TO.C,D64*%
X-11014383Y3315943D02*
X-10063326Y3006927D01*
X-10859874Y3791473D02*
X-11014383Y3315943D01*
X-10063326Y3006927D02*
X-9955170Y3339797D01*
X-10051476Y3528808D02*
X-10859874Y3791473D01*
X-9955170Y3339797D02*
X-10051476Y3528808D01*
D13*
%TO.C,R3*%
X-850000Y3800000D02*
X-350000Y3800000D01*
X-850000Y2800000D02*
X-850000Y3800000D01*
X-350000Y3800000D02*
X-350000Y2800000D01*
X-350000Y2800000D02*
X-850000Y2800000D01*
D11*
%TO.C,D6*%
X3407570Y-10093213D02*
X3698287Y-10891951D01*
X3497221Y-9900956D02*
X3407570Y-10093213D01*
X3698287Y-10891951D02*
X4168133Y-10720941D01*
X3826113Y-9781249D02*
X3497221Y-9900956D01*
X4168133Y-10720941D02*
X3826113Y-9781249D01*
%TO.C,D48*%
X-1848054Y11353241D02*
X-1708879Y10362973D01*
X-1708879Y10362973D02*
X-1362287Y10411683D01*
X-1362287Y10411683D02*
X-1234622Y10581098D01*
X-1352921Y11422827D02*
X-1848054Y11353241D01*
X-1234622Y10581098D02*
X-1352921Y11422827D01*
D13*
%TO.C,C1*%
X2850000Y-3200000D02*
X3350000Y-3200000D01*
X2850000Y-4200000D02*
X2850000Y-3200000D01*
X3350000Y-3200000D02*
X3350000Y-4200000D01*
X3350000Y-4200000D02*
X2850000Y-4200000D01*
D11*
%TO.C,D57*%
X-8168364Y8098705D02*
X-7473706Y7379366D01*
X-7808694Y8446034D02*
X-8168364Y8098705D01*
X-7473706Y7379366D02*
X-7221937Y7622496D01*
X-7221937Y7622496D02*
X-7218235Y7834596D01*
X-7218235Y7834596D02*
X-7808694Y8446034D01*
%TO.C,D61*%
X-10084313Y5533494D02*
X-9218287Y5033494D01*
X-9834313Y5966506D02*
X-10084313Y5533494D01*
X-9218287Y5033494D02*
X-9043287Y5336603D01*
X-9098191Y5541506D02*
X-9834313Y5966506D01*
X-9043287Y5336603D02*
X-9098191Y5541506D01*
D13*
%TO.C,C4*%
X-4500000Y3800000D02*
X-3500000Y3800000D01*
X-4500000Y3300000D02*
X-4500000Y3800000D01*
X-3500000Y3800000D02*
X-3500000Y3300000D01*
X-3500000Y3300000D02*
X-4500000Y3300000D01*
D11*
%TO.C,D69*%
X-11501720Y-151502D02*
X-11484271Y-651197D01*
X-11484271Y-651197D02*
X-10484880Y-616298D01*
X-10652238Y-121837D02*
X-11501720Y-151502D01*
X-10497095Y-266511D02*
X-10652238Y-121837D01*
X-10484880Y-616298D02*
X-10497095Y-266511D01*
%TO.C,D75*%
X-10445690Y-4816587D02*
X-10226504Y-5265984D01*
X-10226504Y-5265984D02*
X-9327710Y-4827613D01*
X-9681715Y-4443972D02*
X-10445690Y-4816587D01*
X-9481140Y-4513035D02*
X-9681715Y-4443972D01*
X-9327710Y-4827613D02*
X-9481140Y-4513035D01*
%TO.C,D65*%
X-11218928Y2539487D02*
X-10248633Y2297565D01*
X-11097967Y3024635D02*
X-11218928Y2539487D01*
X-10273216Y2819001D02*
X-11097967Y3024635D01*
X-10248633Y2297565D02*
X-10163960Y2637169D01*
X-10163960Y2637169D02*
X-10273216Y2819001D01*
%TO.C,D4*%
X1969694Y-10469226D02*
X2146419Y-11300652D01*
X2085229Y-10291317D02*
X1969694Y-10469226D01*
X2146419Y-11300652D02*
X2635493Y-11196696D01*
X2427581Y-10218548D02*
X2085229Y-10291317D01*
X2635493Y-11196696D02*
X2427581Y-10218548D01*
D13*
%TO.C,C3*%
X4400000Y-150000D02*
X5400000Y-150000D01*
X4400000Y-650000D02*
X4400000Y-150000D01*
X5400000Y-150000D02*
X5400000Y-650000D01*
X5400000Y-650000D02*
X4400000Y-650000D01*
D11*
%TO.C,D24*%
X10484880Y616298D02*
X10497095Y266511D01*
X10497095Y266511D02*
X10652238Y121837D01*
X10652238Y121837D02*
X11501720Y151502D01*
X11484271Y651197D02*
X10484880Y616298D01*
X11501720Y151502D02*
X11484271Y651197D01*
%TO.C,D81*%
X-7583605Y-8648825D02*
X-7200583Y-8970219D01*
X-7200583Y-8970219D02*
X-6557795Y-8204175D01*
X-7037235Y-7997688D02*
X-7583605Y-8648825D01*
X-6825911Y-7979199D02*
X-7037235Y-7997688D01*
X-6557795Y-8204175D02*
X-6825911Y-7979199D01*
%TD*%
M02*
