%TF.GenerationSoftware,KiCad,Pcbnew,9.0.7*%
%TF.CreationDate,2026-03-08T09:15:12+01:00*%
%TF.ProjectId,halo-90,68616c6f-2d39-4302-9e6b-696361645f70,0V8*%
%TF.SameCoordinates,Original*%
%TF.FileFunction,Copper,L3,Inr*%
%TF.FilePolarity,Positive*%
%FSLAX46Y46*%
G04 Gerber Fmt 4.6, Leading zero omitted, Abs format (unit mm)*
G04 Created by KiCad (PCBNEW 9.0.7) date 2026-03-08 09:15:12*
%MOMM*%
%LPD*%
G01*
G04 APERTURE LIST*
%TA.AperFunction,ViaPad*%
%ADD10C,0.450000*%
%TD*%
%TA.AperFunction,Conductor*%
%ADD11C,0.128000*%
%TD*%
%TA.AperFunction,Conductor*%
%ADD12C,0.127000*%
%TD*%
%TA.AperFunction,Conductor*%
%ADD13C,0.300000*%
%TD*%
G04 APERTURE END LIST*
D10*
%TO.N,+3V*%
X4900000Y4400000D03*
X6300000Y1400000D03*
X3400000Y-5500000D03*
X-400000Y-6500000D03*
X-5100000Y4100000D03*
X3100000Y5600000D03*
%TO.N,GND*%
X3800000Y-2600000D03*
X3100000Y2200000D03*
X4400000Y-1000000D03*
X-3900000Y4100000D03*
%TO.N,CPX-0*%
X-9271800Y3746100D03*
X-5299200Y8480500D03*
X-1400000Y6300000D03*
X697600Y9975600D03*
X-9169300Y-2286200D03*
X8761900Y-3540000D03*
X-659200Y-9427000D03*
X-6074300Y-7239100D03*
X6074300Y7239100D03*
X6427900Y7660400D03*
X9169300Y2286200D03*
X-6427900Y-7660400D03*
X-8761900Y3540000D03*
X659200Y9427000D03*
X9271800Y-3746100D03*
X-697600Y-9975600D03*
X-9703000Y-2419200D03*
X9703000Y2419200D03*
X-5007700Y8014100D03*
%TO.N,CPX-9*%
X-7941300Y2580300D03*
X5877900Y-8090200D03*
X5877900Y8090200D03*
X9510600Y-3090200D03*
X4908000Y-6755300D03*
X0Y8350000D03*
X-4908000Y6755300D03*
X-9510600Y-3090200D03*
X4908000Y6755300D03*
X7941300Y2580300D03*
X7941300Y-2580300D03*
X-7941300Y-2580300D03*
X0Y-8350000D03*
X9510600Y3090200D03*
X-5877900Y8090200D03*
X0Y10000000D03*
X-9510600Y3090200D03*
X-6181900Y-2008600D03*
X0Y-10000000D03*
%TO.N,CPX-8*%
X-6427900Y7660400D03*
X4716300Y7547600D03*
X5720800Y-6817800D03*
X5299200Y8480500D03*
X-5720800Y6817800D03*
X-9703000Y2419200D03*
X9703000Y-2419200D03*
X9271800Y3746100D03*
X-5227894Y-4000000D03*
X-620800Y8878300D03*
X-5877900Y-8090200D03*
X6427900Y-7660400D03*
X-8635600Y2153100D03*
X697600Y-9975600D03*
X-697600Y9975600D03*
X8251900Y3334000D03*
X-5231300Y-7200300D03*
X8635600Y-2153100D03*
X620800Y-8878300D03*
%TO.N,CPX-7*%
X4694700Y8829500D03*
X9306400Y-1641000D03*
X8987900Y4383700D03*
X-9271800Y-3746100D03*
X-3200000Y5500000D03*
X-1391700Y9902700D03*
X-6946600Y7193400D03*
X6946600Y-7193400D03*
X1391700Y-9902700D03*
X-5299200Y-8480500D03*
%TO.N,CPX-6*%
X-9848100Y1736500D03*
X8660300Y5000000D03*
X-4694700Y-8829500D03*
X-8987900Y-4383700D03*
X7431400Y-6691300D03*
X9945200Y-1045300D03*
X-6200000Y1600000D03*
X1736100Y-8167500D03*
X4067400Y9135500D03*
X-2079100Y9781500D03*
X-1736100Y8167500D03*
X-7504900Y-3660400D03*
X6205300Y-5587200D03*
X7231300Y4175000D03*
X3396300Y7628100D03*
X-8000000Y1500000D03*
X2079100Y-9781500D03*
X-3920100Y-7372600D03*
X8304300Y-872800D03*
%TO.N,CPX-5*%
X2756400Y-9612600D03*
X-7707600Y-4450000D03*
X-4067400Y-9135500D03*
X9993900Y-349000D03*
X3420200Y9396900D03*
X7880100Y-6156600D03*
X-3620000Y-8130600D03*
X-8660300Y-5000000D03*
X8290400Y5591900D03*
X7378400Y4976800D03*
X2453200Y-8555200D03*
X-6614000Y5955300D03*
X-6400000Y700000D03*
X-9945200Y1045300D03*
X7013300Y-5479400D03*
X8894600Y-310600D03*
X-7431400Y6691300D03*
X3044000Y8363300D03*
X-8851200Y930300D03*
%TO.N,CPX-4*%
X-7834400Y-5284400D03*
X9444200Y329800D03*
X8290400Y-5591900D03*
X7834400Y-5284400D03*
X3232100Y-8880100D03*
X-7880100Y6156600D03*
X3420200Y-9396900D03*
X-3420200Y-9396900D03*
X-2756400Y9612600D03*
X-8290400Y-5591900D03*
X7880100Y6156600D03*
X7446700Y5818000D03*
X-9993900Y349000D03*
X9993900Y349000D03*
X-9444200Y329800D03*
X-3232100Y-8880100D03*
X-7446700Y5818000D03*
X-6400000Y-500000D03*
X-2604800Y9083900D03*
%TO.N,CPX-3*%
X-4016857Y4920650D03*
X-2756400Y-9612600D03*
X8660300Y-5000000D03*
X9945200Y1045300D03*
X-7880100Y-6156600D03*
X-3420200Y9396900D03*
X4067400Y-9135500D03*
X-9993900Y-349000D03*
X-8290400Y5591900D03*
X2756400Y9612600D03*
%TO.N,CPX-2*%
X-1736100Y-8167500D03*
X-8304300Y-872800D03*
X-8660300Y5000000D03*
X4694700Y-8829500D03*
X2079100Y9781500D03*
X-2079100Y-9781500D03*
X6205300Y5587200D03*
X-6205300Y-5587200D03*
X-7231300Y4175000D03*
X7431400Y6691300D03*
X-7431400Y-6691300D03*
X7504900Y-3660400D03*
X1736100Y8167500D03*
X-6300000Y-1200000D03*
X-3396300Y7628100D03*
X8987900Y-4383700D03*
X-4067400Y9135500D03*
X3920100Y-7372600D03*
X-9945200Y-1045300D03*
%TO.N,CPX-1*%
X-9848100Y-1736500D03*
X-6182500Y-6402100D03*
X-6946600Y-7193400D03*
X-8987900Y4383700D03*
X4716300Y-7547600D03*
X-4694700Y8829500D03*
X6946600Y7193400D03*
X1391700Y9902700D03*
X5299200Y-8480500D03*
X6182500Y6402100D03*
X-1391700Y-9902700D03*
X8764800Y1545500D03*
X-7999300Y3901500D03*
X1238600Y8813400D03*
X-4178300Y7858200D03*
X-1238600Y-8813400D03*
X-2300000Y6100000D03*
X-8764800Y-1545500D03*
X9848100Y1736500D03*
%TO.N,XL-INT2*%
X-1900000Y-6200000D03*
X2100000Y-6100000D03*
%TO.N,XL-INT1*%
X-1100000Y-6400000D03*
X400000Y-6500000D03*
%TO.N,HALL*%
X4000000Y5200000D03*
X-5900000Y2600000D03*
%TD*%
D11*
%TO.N,CPX-9*%
X6792400Y1820000D02*
X6759600Y1938300D01*
X978700Y-6963600D02*
X1100000Y-6945400D01*
X-6902800Y1341800D02*
X-6925200Y1221100D01*
X4133300Y-5689000D02*
X4232000Y-5616000D01*
X-3082600Y6320300D02*
X-3192500Y6265600D01*
X6902800Y1341800D02*
X6878300Y1462000D01*
X2289400Y-6648900D02*
X2405100Y-6607900D01*
X6373200Y-2971900D02*
X6424100Y-2860200D01*
X-368000Y7022400D02*
X-490500Y7014900D01*
X245400Y7027700D02*
X122700Y7030900D01*
X-4425400Y-5464900D02*
X-4329300Y-5541300D01*
X6265600Y-3192500D02*
X6320300Y-3082600D01*
X7005200Y612900D02*
X6993500Y735000D01*
X-5897500Y-3829900D02*
X-5829800Y-3932200D01*
X490500Y-7014900D02*
X612900Y-7005200D01*
X6993500Y-735000D02*
X7005200Y-612900D01*
X-7022400Y-368000D02*
X-7014900Y-490500D01*
X6473000Y2747600D02*
X6424100Y2860200D01*
X6208900Y-3301300D02*
X6265600Y-3192500D01*
X-5307100Y4613400D02*
X-5386800Y4520100D01*
X-7014900Y490500D02*
X-7022400Y368000D01*
X-5058400Y-4884800D02*
X-4972400Y-4972400D01*
X3516000Y-6089900D02*
X3621700Y-6027600D01*
X3829900Y-5897500D02*
X3932200Y-5829800D01*
X4795800Y5142900D02*
X4705300Y5225800D01*
X-6208900Y-3301300D02*
X-6150300Y-3409200D01*
X-4705300Y5225800D02*
X-4795800Y5142900D01*
X-5142900Y4795800D02*
X-5225800Y4705300D01*
X-7032000Y0D02*
X-7030900Y-122700D01*
X-4972400Y-4972400D02*
X-4884800Y-5058400D01*
X-2056000Y6724700D02*
X-2173000Y6687800D01*
X-735000Y-6993500D02*
X-612900Y-7005200D01*
X-6724700Y2056000D02*
X-6759600Y1938300D01*
X-5464900Y4425400D02*
X-5541300Y4329300D01*
X4613400Y5307100D02*
X4520100Y5386800D01*
X6150300Y-3409200D02*
X6208900Y-3301300D01*
X0Y-7032000D02*
X122700Y-7030900D01*
X7032000Y0D02*
X7030900Y122700D01*
X-4033400Y5760300D02*
X-4133300Y5689000D01*
X-5829800Y3932200D02*
X-5897500Y3829900D01*
X-3409200Y6150300D02*
X-3516000Y6089900D01*
X-2634200Y-6520000D02*
X-2520000Y-6564900D01*
X4133300Y5689000D02*
X4033400Y5760300D01*
X6607900Y2405100D02*
X6564900Y2520000D01*
X-122700Y7030900D02*
X-245400Y7027700D01*
X-6473000Y-2747600D02*
X-6424100Y-2860200D01*
X-490500Y-7014900D02*
X-368000Y-7022400D01*
X-2747600Y6473000D02*
X-2860200Y6424100D01*
X-6473000Y2747600D02*
X-6520000Y2634200D01*
X6925200Y1221100D02*
X6902800Y1341800D01*
X3829900Y5897500D02*
X3726400Y5963500D01*
X-5963500Y-3726400D02*
X-5897500Y-3829900D01*
X-2405100Y-6607900D02*
X-2289400Y-6648900D01*
X-6520000Y-2634200D02*
X-6473000Y-2747600D01*
X-1820000Y-6792400D02*
X-1701200Y-6823100D01*
X-6150300Y-3409200D02*
X-6089900Y-3516000D01*
X6925200Y-1221100D02*
X6945400Y-1100000D01*
X4425400Y-5464900D02*
X4520100Y-5386800D01*
X-4972400Y4972400D02*
X-5058400Y4884800D01*
X7941300Y2580300D02*
X6687800Y2173000D01*
X-3301300Y6208900D02*
X-3409200Y6150300D01*
X1221100Y-6925200D02*
X1341800Y-6902800D01*
X-5616000Y-4232000D02*
X-5541300Y-4329300D01*
X-368000Y-7022400D02*
X-245400Y-7027700D01*
X6823100Y1701200D02*
X6792400Y1820000D01*
X6878300Y-1462000D02*
X6902800Y-1341800D01*
X-978700Y6963600D02*
X-1100000Y6945400D01*
X3932200Y5829800D02*
X3829900Y5897500D01*
X-5386800Y-4520100D02*
X-5307100Y-4613400D01*
X-4795800Y-5142900D02*
X-4705300Y-5225800D01*
X-2520000Y-6564900D02*
X-2405100Y-6607900D01*
X-6878300Y1462000D02*
X-6902800Y1341800D01*
X2747600Y-6473000D02*
X2860200Y-6424100D01*
X-5689000Y-4133300D02*
X-5616000Y-4232000D01*
X2405100Y-6607900D02*
X2520000Y-6564900D01*
X6320300Y-3082600D02*
X6373200Y-2971900D01*
X3301300Y-6208900D02*
X3409200Y-6150300D01*
X-6687800Y-2173000D02*
X-6648900Y-2289400D01*
X-5464900Y-4425400D02*
X-5386800Y-4520100D01*
X612900Y7005200D02*
X490500Y7014900D01*
X-6607900Y2405100D02*
X-6648900Y2289400D01*
X-4795800Y5142900D02*
X-4884800Y5058400D01*
X-7005200Y-612900D02*
X-6993500Y-735000D01*
X4705300Y-5225800D02*
X4795800Y-5142900D01*
X1820000Y-6792400D02*
X1938300Y-6759600D01*
X3301300Y6208900D02*
X3192500Y6265600D01*
X-1221100Y6925200D02*
X-1341800Y6902800D01*
X-1701200Y-6823100D02*
X-1581900Y-6851800D01*
X-4232000Y5616000D02*
X-4329300Y5541300D01*
X-2173000Y6687800D02*
X-2289400Y6648900D01*
X2634200Y6520000D02*
X2520000Y6564900D01*
X6687800Y2173000D02*
X6648900Y2289400D01*
X5616000Y-4232000D02*
X5689000Y-4133300D01*
X-7014900Y-490500D02*
X-7005200Y-612900D01*
X-1100000Y-6945400D02*
X-978700Y-6963600D01*
X6963600Y978700D02*
X6945400Y1100000D01*
X-6823100Y1701200D02*
X-6851800Y1581900D01*
X2971900Y-6373200D02*
X3082600Y-6320300D01*
X-2520000Y6564900D02*
X-2634200Y6520000D01*
X4033400Y-5760300D02*
X4133300Y-5689000D01*
X-6963600Y978700D02*
X-6979600Y857000D01*
X-6687800Y2173000D02*
X-6724700Y2056000D01*
X-3829900Y-5897500D02*
X-3726400Y-5963500D01*
X-4133300Y5689000D02*
X-4232000Y5616000D01*
X-6925200Y1221100D02*
X-6945400Y1100000D01*
X-6373200Y-2971900D02*
X-6320300Y-3082600D01*
X-1581900Y-6851800D02*
X-1462000Y-6878300D01*
X-5897500Y3829900D02*
X-5963500Y3726400D01*
X-1341800Y-6902800D02*
X-1221100Y-6925200D01*
X1581900Y-6851800D02*
X1701200Y-6823100D01*
X3409200Y6150300D02*
X3301300Y6208900D01*
X2860200Y-6424100D02*
X2971900Y-6373200D01*
X6724700Y2056000D02*
X6687800Y2173000D01*
X7027700Y245400D02*
X7022400Y368000D01*
X-5963500Y3726400D02*
X-6027600Y3621700D01*
X6424100Y-2860200D02*
X6473000Y-2747600D01*
X0Y7032000D02*
X-122700Y7030900D01*
X-6724700Y-2056000D02*
X-6687800Y-2173000D01*
X-5386800Y4520100D02*
X-5464900Y4425400D01*
X-245400Y7027700D02*
X-368000Y7022400D01*
X-5225800Y-4705300D02*
X-5142900Y-4795800D01*
X-1820000Y6792400D02*
X-1938300Y6759600D01*
X3082600Y6320300D02*
X2971900Y6373200D01*
X2405100Y6607900D02*
X2289400Y6648900D01*
X-857000Y6979600D02*
X-978700Y6963600D01*
X0Y-8350000D02*
X0Y-7032000D01*
X978700Y6963600D02*
X857000Y6979600D01*
X3192500Y-6265600D02*
X3301300Y-6208900D01*
X6520000Y-2634200D02*
X6564900Y-2520000D01*
X4795800Y-5142900D02*
X4884800Y-5058400D01*
X-7022400Y368000D02*
X-7027700Y245400D01*
X6979600Y857000D02*
X6963600Y978700D01*
X6759600Y-1938300D02*
X6792400Y-1820000D01*
X5386800Y4520100D02*
X5307100Y4613400D01*
X-5829800Y-3932200D02*
X-5760300Y-4033400D01*
X-4613400Y5307100D02*
X-4705300Y5225800D01*
X6945400Y1100000D02*
X6925200Y1221100D01*
X6963600Y-978700D02*
X6979600Y-857000D01*
X1938300Y6759600D02*
X1820000Y6792400D01*
X4613400Y-5307100D02*
X4705300Y-5225800D01*
X-6851800Y1581900D02*
X-6878300Y1462000D01*
X-6607900Y-2405100D02*
X-6564900Y-2520000D01*
X-5541300Y4329300D02*
X-5616000Y4232000D01*
X3409200Y-6150300D02*
X3516000Y-6089900D01*
X122700Y-7030900D02*
X245400Y-7027700D01*
X5897500Y3829900D02*
X5829800Y3932200D01*
X-612900Y7005200D02*
X-735000Y6993500D01*
X6473000Y-2747600D02*
X6520000Y-2634200D01*
X6564900Y-2520000D02*
X6607900Y-2405100D01*
X6648900Y-2289400D02*
X6687800Y-2173000D01*
X368000Y-7022400D02*
X490500Y-7014900D01*
X-1100000Y6945400D02*
X-1221100Y6925200D01*
X245400Y-7027700D02*
X368000Y-7022400D01*
X6564900Y2520000D02*
X6520000Y2634200D01*
X-4884800Y5058400D02*
X-4972400Y4972400D01*
X5058400Y4884800D02*
X4972400Y4972400D01*
X6993500Y735000D02*
X6979600Y857000D01*
X5689000Y4133300D02*
X5616000Y4232000D01*
X-4520100Y-5386800D02*
X-4425400Y-5464900D01*
X-6945400Y1100000D02*
X-6963600Y978700D01*
X6607900Y-2405100D02*
X6648900Y-2289400D01*
X-2289400Y-6648900D02*
X-2173000Y-6687800D01*
X-2173000Y-6687800D02*
X-2056000Y-6724700D01*
X5963500Y3726400D02*
X5897500Y3829900D01*
X-3409200Y-6150300D02*
X-3301300Y-6208900D01*
X-1462000Y6878300D02*
X-1581900Y6851800D01*
X5464900Y-4425400D02*
X5541300Y-4329300D01*
X-5541300Y-4329300D02*
X-5464900Y-4425400D01*
X4908000Y6755300D02*
X4133300Y5689000D01*
X4884800Y5058400D02*
X4795800Y5142900D01*
X-6902800Y-1341800D02*
X-6878300Y-1462000D01*
X6823100Y-1701200D02*
X6851800Y-1581900D01*
X5307100Y4613400D02*
X5225800Y4705300D01*
X-4705300Y-5225800D02*
X-4613400Y-5307100D01*
X-4520100Y5386800D02*
X-4613400Y5307100D01*
X1581900Y6851800D02*
X1462000Y6878300D01*
X-4329300Y-5541300D02*
X-4232000Y-5616000D01*
X6320300Y3082600D02*
X6265600Y3192500D01*
X-1581900Y6851800D02*
X-1701200Y6823100D01*
X-6993500Y-735000D02*
X-6979600Y-857000D01*
X-4329300Y5541300D02*
X-4425400Y5464900D01*
X3516000Y6089900D02*
X3409200Y6150300D01*
X6759600Y1938300D02*
X6724700Y2056000D01*
X2634200Y-6520000D02*
X2747600Y-6473000D01*
X-6320300Y-3082600D02*
X-6265600Y-3192500D01*
X4972400Y-4972400D02*
X5058400Y-4884800D01*
X-6564900Y2520000D02*
X-6607900Y2405100D01*
X-5307100Y-4613400D02*
X-5225800Y-4705300D01*
X5541300Y4329300D02*
X5464900Y4425400D01*
X122700Y7030900D02*
X0Y7032000D01*
X-7027700Y-245400D02*
X-7022400Y-368000D01*
X-2747600Y-6473000D02*
X-2634200Y-6520000D01*
X-3726400Y5963500D02*
X-3829900Y5897500D01*
X857000Y-6979600D02*
X978700Y-6963600D01*
X368000Y7022400D02*
X245400Y7027700D01*
X-4613400Y-5307100D02*
X-4520100Y-5386800D01*
X-2971900Y-6373200D02*
X-2860200Y-6424100D01*
X-6759600Y-1938300D02*
X-6724700Y-2056000D01*
X7022400Y368000D02*
X7014900Y490500D01*
X-2860200Y-6424100D02*
X-2747600Y-6473000D01*
X1462000Y-6878300D02*
X1581900Y-6851800D01*
X-978700Y-6963600D02*
X-857000Y-6979600D01*
X6648900Y2289400D02*
X6607900Y2405100D01*
X-6792400Y-1820000D02*
X-6759600Y-1938300D01*
X-4908000Y6755300D02*
X-4133300Y5689000D01*
X-735000Y6993500D02*
X-857000Y6979600D01*
X1701200Y6823100D02*
X1581900Y6851800D01*
X1341800Y-6902800D02*
X1462000Y-6878300D01*
X6979600Y-857000D02*
X6993500Y-735000D01*
X-6150300Y3409200D02*
X-6208900Y3301300D01*
X-2056000Y-6724700D02*
X-1938300Y-6759600D01*
X-1938300Y-6759600D02*
X-1820000Y-6792400D01*
X-6979600Y-857000D02*
X-6963600Y-978700D01*
X6687800Y-2173000D02*
X6724700Y-2056000D01*
X4520100Y-5386800D02*
X4613400Y-5307100D01*
X5464900Y4425400D02*
X5386800Y4520100D01*
X-1341800Y6902800D02*
X-1462000Y6878300D01*
X-4425400Y5464900D02*
X-4520100Y5386800D01*
X2971900Y6373200D02*
X2860200Y6424100D01*
X-7941300Y2580300D02*
X-6687800Y2173000D01*
X-6945400Y-1100000D02*
X-6925200Y-1221100D01*
X5386800Y-4520100D02*
X5464900Y-4425400D01*
X7030900Y-122700D02*
X7032000Y0D01*
X-1462000Y-6878300D02*
X-1341800Y-6902800D01*
X2056000Y6724700D02*
X1938300Y6759600D01*
X-6027600Y-3621700D02*
X-5963500Y-3726400D01*
X-6648900Y-2289400D02*
X-6607900Y-2405100D01*
X4884800Y-5058400D02*
X4972400Y-4972400D01*
X5225800Y4705300D02*
X5142900Y4795800D01*
X-1221100Y-6925200D02*
X-1100000Y-6945400D01*
X4520100Y5386800D02*
X4425400Y5464900D01*
X-6208900Y3301300D02*
X-6265600Y3192500D01*
X5225800Y-4705300D02*
X5307100Y-4613400D01*
X-5225800Y4705300D02*
X-5307100Y4613400D01*
X-6265600Y-3192500D02*
X-6208900Y-3301300D01*
X4033400Y5760300D02*
X3932200Y5829800D01*
X-6320300Y3082600D02*
X-6373200Y2971900D01*
X735000Y-6993500D02*
X857000Y-6979600D01*
X-6878300Y-1462000D02*
X-6851800Y-1581900D01*
X-2860200Y6424100D02*
X-2971900Y6373200D01*
X7030900Y122700D02*
X7027700Y245400D01*
X-3932200Y-5829800D02*
X-3829900Y-5897500D01*
X1100000Y6945400D02*
X978700Y6963600D01*
X-3192500Y6265600D02*
X-3301300Y6208900D01*
X5142900Y4795800D02*
X5058400Y4884800D01*
X-5616000Y4232000D02*
X-5689000Y4133300D01*
X-3829900Y5897500D02*
X-3932200Y5829800D01*
X6150300Y3409200D02*
X6089900Y3516000D01*
X-6851800Y-1581900D02*
X-6823100Y-1701200D01*
X7014900Y-490500D02*
X7022400Y-368000D01*
X-6979600Y857000D02*
X-6993500Y735000D01*
X1100000Y-6945400D02*
X1221100Y-6925200D01*
X1938300Y-6759600D02*
X2056000Y-6724700D01*
X2173000Y-6687800D02*
X2289400Y-6648900D01*
X-612900Y-7005200D02*
X-490500Y-7014900D01*
X5689000Y-4133300D02*
X5760300Y-4033400D01*
X-2405100Y6607900D02*
X-2520000Y6564900D01*
X3932200Y-5829800D02*
X4033400Y-5760300D01*
X2860200Y6424100D02*
X2747600Y6473000D01*
X-5142900Y-4795800D02*
X-5058400Y-4884800D01*
X-4884800Y-5058400D02*
X-4795800Y-5142900D01*
X612900Y-7005200D02*
X735000Y-6993500D01*
X7022400Y-368000D02*
X7027700Y-245400D01*
X-4033400Y-5760300D02*
X-3932200Y-5829800D01*
X4329300Y-5541300D02*
X4425400Y-5464900D01*
X6792400Y-1820000D02*
X6823100Y-1701200D01*
X-3516000Y6089900D02*
X-3621700Y6027600D01*
X-7030900Y122700D02*
X-7032000Y0D01*
X2747600Y6473000D02*
X2634200Y6520000D01*
X7941300Y-2580300D02*
X6687800Y-2173000D01*
X-6963600Y-978700D02*
X-6945400Y-1100000D01*
X-3192500Y-6265600D02*
X-3082600Y-6320300D01*
X-6993500Y735000D02*
X-7005200Y612900D01*
X4329300Y5541300D02*
X4232000Y5616000D01*
X2520000Y-6564900D02*
X2634200Y-6520000D01*
X-6520000Y2634200D02*
X-6564900Y2520000D01*
X6265600Y3192500D02*
X6208900Y3301300D01*
X-6925200Y-1221100D02*
X-6902800Y-1341800D01*
X-6089900Y-3516000D02*
X-6027600Y-3621700D01*
X4232000Y-5616000D02*
X4329300Y-5541300D01*
X5963500Y-3726400D02*
X6027600Y-3621700D01*
X6851800Y1581900D02*
X6823100Y1701200D01*
X-5689000Y4133300D02*
X-5760300Y4033400D01*
X3082600Y-6320300D02*
X3192500Y-6265600D01*
X6878300Y1462000D02*
X6851800Y1581900D01*
X-3726400Y-5963500D02*
X-3621700Y-6027600D01*
X4705300Y5225800D02*
X4613400Y5307100D01*
X-3301300Y-6208900D02*
X-3192500Y-6265600D01*
X-2971900Y6373200D02*
X-3082600Y6320300D01*
X6902800Y-1341800D02*
X6925200Y-1221100D01*
X7027700Y-245400D02*
X7030900Y-122700D01*
X-6027600Y3621700D02*
X-6089900Y3516000D01*
X-857000Y-6979600D02*
X-735000Y-6993500D01*
X2289400Y6648900D02*
X2173000Y6687800D01*
X-490500Y7014900D02*
X-612900Y7005200D01*
X-3082600Y-6320300D02*
X-2971900Y-6373200D01*
X-6373200Y2971900D02*
X-6424100Y2860200D01*
X-2289400Y6648900D02*
X-2405100Y6607900D01*
X6027600Y3621700D02*
X5963500Y3726400D01*
X1701200Y-6823100D02*
X1820000Y-6792400D01*
X-7941300Y-2580300D02*
X-6687800Y-2173000D01*
X6520000Y2634200D02*
X6473000Y2747600D01*
X-2634200Y6520000D02*
X-2747600Y6473000D01*
X3621700Y-6027600D02*
X3726400Y-5963500D01*
X-3932200Y5829800D02*
X-4033400Y5760300D01*
X6424100Y2860200D02*
X6373200Y2971900D01*
X4232000Y5616000D02*
X4133300Y5689000D01*
X-7030900Y-122700D02*
X-7027700Y-245400D01*
X-6759600Y1938300D02*
X-6792400Y1820000D01*
X5760300Y-4033400D02*
X5829800Y-3932200D01*
X4425400Y5464900D02*
X4329300Y5541300D01*
X-6089900Y3516000D02*
X-6150300Y3409200D01*
X3621700Y6027600D02*
X3516000Y6089900D01*
X3726400Y5963500D02*
X3621700Y6027600D01*
X-6265600Y3192500D02*
X-6320300Y3082600D01*
X5829800Y3932200D02*
X5760300Y4033400D01*
X-4133300Y-5689000D02*
X-4033400Y-5760300D01*
X1221100Y6925200D02*
X1100000Y6945400D01*
X-3621700Y6027600D02*
X-3726400Y5963500D01*
X6945400Y-1100000D02*
X6963600Y-978700D01*
X2056000Y-6724700D02*
X2173000Y-6687800D01*
X5541300Y-4329300D02*
X5616000Y-4232000D01*
X5058400Y-4884800D02*
X5142900Y-4795800D01*
X-245400Y-7027700D02*
X-122700Y-7030900D01*
X6027600Y-3621700D02*
X6089900Y-3516000D01*
X3192500Y6265600D02*
X3082600Y6320300D01*
X-7005200Y612900D02*
X-7014900Y490500D01*
X-3516000Y-6089900D02*
X-3409200Y-6150300D01*
X6724700Y-2056000D02*
X6759600Y-1938300D01*
X-1701200Y6823100D02*
X-1820000Y6792400D01*
X-5058400Y4884800D02*
X-5142900Y4795800D01*
X-6648900Y2289400D02*
X-6687800Y2173000D01*
X5829800Y-3932200D02*
X5897500Y-3829900D01*
X-122700Y-7030900D02*
X0Y-7032000D01*
X6851800Y-1581900D02*
X6878300Y-1462000D01*
X-5760300Y4033400D02*
X-5829800Y3932200D01*
X-6424100Y-2860200D02*
X-6373200Y-2971900D01*
X-7027700Y245400D02*
X-7030900Y122700D01*
X-6823100Y-1701200D02*
X-6792400Y-1820000D01*
X5616000Y4232000D02*
X5541300Y4329300D01*
X-6564900Y-2520000D02*
X-6520000Y-2634200D01*
X-6792400Y1820000D02*
X-6823100Y1701200D01*
X1341800Y6902800D02*
X1221100Y6925200D01*
X6208900Y3301300D02*
X6150300Y3409200D01*
X2173000Y6687800D02*
X2056000Y6724700D01*
X5760300Y4033400D02*
X5689000Y4133300D01*
X7005200Y-612900D02*
X7014900Y-490500D01*
X6089900Y3516000D02*
X6027600Y3621700D01*
X857000Y6979600D02*
X735000Y6993500D01*
X0Y8350000D02*
X0Y7032000D01*
X4972400Y4972400D02*
X4884800Y5058400D01*
X5307100Y-4613400D02*
X5386800Y-4520100D01*
X6373200Y2971900D02*
X6320300Y3082600D01*
X-4232000Y-5616000D02*
X-4133300Y-5689000D01*
X1462000Y6878300D02*
X1341800Y6902800D01*
X490500Y7014900D02*
X368000Y7022400D01*
X5142900Y-4795800D02*
X5225800Y-4705300D01*
X2520000Y6564900D02*
X2405100Y6607900D01*
X-5760300Y-4033400D02*
X-5689000Y-4133300D01*
X-3621700Y-6027600D02*
X-3516000Y-6089900D01*
X735000Y6993500D02*
X612900Y7005200D01*
X5897500Y-3829900D02*
X5963500Y-3726400D01*
X-1938300Y6759600D02*
X-2056000Y6724700D01*
X3726400Y-5963500D02*
X3829900Y-5897500D01*
X7014900Y490500D02*
X7005200Y612900D01*
X1820000Y6792400D02*
X1701200Y6823100D01*
X6089900Y-3516000D02*
X6150300Y-3409200D01*
X4908000Y-6755300D02*
X4133300Y-5689000D01*
X-6424100Y2860200D02*
X-6473000Y2747600D01*
%TO.N,CPX-8*%
X-4970400Y5330100D02*
X-4876600Y5416000D01*
X1515300Y-7128700D02*
X1639400Y-7101200D01*
X-2847600Y-6708600D02*
X-2730100Y-6757300D01*
X5356200Y-7107900D02*
X5479400Y-7013300D01*
X-7260300Y635200D02*
X-7248100Y761800D01*
X7270200Y-508400D02*
X7260300Y-635200D01*
X5231300Y7200300D02*
X5104800Y7290500D01*
X8464400Y-2750300D02*
X8511100Y-2602100D01*
X-761800Y-7248100D02*
X-635200Y-7260300D01*
X2611800Y-6803900D02*
X2730100Y-6757300D01*
X5663800Y4586500D02*
X5743000Y4486900D01*
X7071500Y1763100D02*
X7101200Y1639400D01*
X-5231300Y-7200300D02*
X-4283800Y-5896100D01*
X6493700Y3308700D02*
X6550400Y3194800D01*
X-155300Y8898600D02*
X-310600Y8894600D01*
X4876600Y5416000D02*
X4970400Y5330100D01*
X7248100Y761800D02*
X7260300Y635200D01*
X6180600Y-3862100D02*
X6112200Y-3969300D01*
X-4781400Y5500300D02*
X-4684600Y5582900D01*
X8363300Y3044000D02*
X8308900Y3189500D01*
D12*
X-5231300Y7200300D02*
X-4700000Y7300000D01*
D11*
X-1515300Y7128700D02*
X-1390600Y7154100D01*
X-3753600Y-6247000D02*
X-3644000Y-6311600D01*
X-3421500Y6434900D02*
X-3308700Y6493700D01*
X-7283600Y-254300D02*
X-7286900Y-127200D01*
X-2372700Y6890900D02*
X-2252100Y6931300D01*
X6042000Y4075400D02*
X6112200Y3969300D01*
X2252100Y-6931300D02*
X2130800Y-6969500D01*
X-2372700Y-6890900D02*
X-2252100Y-6931300D01*
D12*
X8300000Y2200000D02*
X7071500Y1763100D01*
D11*
X5582900Y4684600D02*
X5663800Y4586500D01*
X5479400Y-7013300D02*
X5601000Y-6916600D01*
X5062700Y-5242500D02*
X4970400Y-5330100D01*
X2130800Y6969500D02*
X2252100Y6931300D01*
X-7154100Y1390600D02*
X-7128700Y1515300D01*
X-2130800Y6969500D02*
X-2008800Y7005700D01*
X-5970000Y4180200D02*
X-5896100Y4283800D01*
X1014300Y7217100D02*
X1140100Y7198300D01*
D12*
X8464400Y2750300D02*
X8300000Y2200000D01*
D11*
X2964300Y6657900D02*
X3080000Y6605200D01*
X-7071500Y-1763100D02*
X-7101200Y-1639400D01*
X-5416000Y4876600D02*
X-5330100Y4970400D01*
X6374200Y3533300D02*
X6434900Y3421500D01*
X-2008800Y-7005700D02*
X-1886300Y-7039700D01*
X-2847600Y6708600D02*
X-2730100Y6757300D01*
X-5820500Y4386000D02*
X-5743000Y4486900D01*
D12*
X-4200000Y6800000D02*
X-3862100Y6180600D01*
D11*
X7198300Y1140100D02*
X7217100Y1014300D01*
X5896100Y-4283800D02*
X5820500Y-4386000D01*
X0Y-8900000D02*
X155300Y-8898600D01*
X-7286900Y127200D02*
X-7283600Y254300D01*
X-7270200Y508400D02*
X-7260300Y635200D01*
X888200Y7233700D02*
X1014300Y7217100D01*
X0Y8900000D02*
X-155300Y8898600D01*
D12*
X-4700000Y7300000D02*
X-4200000Y6800000D01*
D11*
X-7128700Y1515300D02*
X-7101200Y1639400D01*
X2372700Y-6890900D02*
X2492600Y-6848500D01*
X-5601000Y-6916600D02*
X-5479400Y-7013300D01*
X3421500Y6434900D02*
X3533300Y6374200D01*
X-6657900Y2964300D02*
X-6605200Y3080000D01*
X-2492600Y-6848500D02*
X-2372700Y-6890900D01*
X6434900Y3421500D02*
X6493700Y3308700D01*
X1265500Y7177300D02*
X1390600Y7154100D01*
X7154100Y-1390600D02*
X7128700Y-1515300D01*
X5601000Y-6916600D02*
X5720800Y-6817800D01*
X-1886300Y-7039700D02*
X-1763100Y-7071500D01*
X2730100Y6757300D02*
X2847600Y6708600D01*
X-5720800Y-6817800D02*
X-5601000Y-6916600D01*
X1886300Y7039700D02*
X2008800Y7005700D01*
X-2611800Y-6803900D02*
X-2492600Y-6848500D01*
X4970400Y-5330100D02*
X4876600Y-5416000D01*
X7233700Y888200D02*
X7248100Y761800D01*
X761800Y-7248100D02*
X888200Y-7233700D01*
X2492600Y-6848500D02*
X2372700Y-6890900D01*
X5231300Y-7200300D02*
X5356200Y-7107900D01*
X888200Y-7233700D02*
X761800Y-7248100D01*
X-3194800Y-6550400D02*
X-3080000Y-6605200D01*
X155300Y-8898600D02*
X310600Y-8894600D01*
D12*
X4700000Y-8200000D02*
X3600000Y-7900000D01*
D11*
X-6605200Y3080000D02*
X-6550400Y3194800D01*
X-6112200Y3969300D02*
X-6042000Y4075400D01*
X2847600Y-6708600D02*
X2964300Y-6657900D01*
X2252100Y6931300D02*
X2372700Y6890900D01*
X-1763100Y-7071500D02*
X-1639400Y-7101200D01*
X4781400Y-5500300D02*
X4684600Y-5582900D01*
D12*
X-5720800Y-6817800D02*
X-5700000Y-5100000D01*
D11*
X-1265500Y7177300D02*
X-1140100Y7198300D01*
X5242500Y-5062700D02*
X5153400Y-5153400D01*
X1515300Y-7128700D02*
X1390600Y-7154100D01*
D12*
X5200000Y-7900000D02*
X4700000Y-8200000D01*
D11*
X-5356200Y7107900D02*
X-5479400Y7013300D01*
X7101200Y1639400D02*
X7128700Y1515300D01*
X4876600Y-5416000D02*
X4781400Y-5500300D01*
X6434900Y-3421500D02*
X6374200Y-3533300D01*
X-620800Y8878300D02*
X-508400Y7270200D01*
X6247000Y-3753600D02*
X6180600Y-3862100D01*
X5663800Y-4586500D02*
X5582900Y-4684600D01*
X-5663800Y4586500D02*
X-5582900Y4684600D01*
X-5720800Y6817800D02*
X-4684600Y5582900D01*
X-6434900Y3421500D02*
X-6374200Y3533300D01*
X-7154100Y-1390600D02*
X-7177300Y-1265500D01*
X-6493700Y3308700D02*
X-6434900Y3421500D01*
X6112200Y3969300D02*
X6180600Y3862100D01*
X8464400Y2750300D02*
X8415100Y2897600D01*
D12*
X5231300Y7200300D02*
X5400000Y6700000D01*
D11*
X-5153400Y5153400D02*
X-5062700Y5242500D01*
D12*
X-8300000Y-3200000D02*
X-8600000Y-2700000D01*
D11*
X-1140100Y-7198300D02*
X-1014300Y-7217100D01*
X-5479400Y7013300D02*
X-5601000Y6916600D01*
D12*
X500000Y8700000D02*
X600000Y8000000D01*
D11*
X-5500300Y4781400D02*
X-5416000Y4876600D01*
X2847600Y6708600D02*
X2964300Y6657900D01*
X-1515300Y-7128700D02*
X-1390600Y-7154100D01*
X-8555200Y2453200D02*
X-8596700Y2303500D01*
X-3862100Y-6180600D02*
X-3753600Y-6247000D01*
D12*
X5231300Y-7200300D02*
X5200000Y-7900000D01*
D11*
X3644000Y6311600D02*
X3753600Y6247000D01*
X4847300Y7464200D02*
X4716300Y7547600D01*
X5153400Y-5153400D02*
X5062700Y-5242500D01*
D12*
X3300000Y-7200000D02*
X3080000Y-6605200D01*
D11*
X6311600Y-3644000D02*
X6247000Y-3753600D01*
D12*
X-7500000Y3100000D02*
X-6757300Y2730100D01*
D11*
X-8464400Y2750300D02*
X-8511100Y2602100D01*
X5820500Y-4386000D02*
X5743000Y-4486900D01*
X2252100Y-6931300D02*
X2372700Y-6890900D01*
D12*
X-5700000Y-5100000D02*
X-7200000Y-3100000D01*
D11*
X1140100Y-7198300D02*
X1014300Y-7217100D01*
X-5242500Y5062700D02*
X-5153400Y5153400D01*
X-2008800Y7005700D02*
X-1886300Y7039700D01*
X6708600Y-2847600D02*
X6657900Y-2964300D01*
X7198300Y-1140100D02*
X7177300Y-1265500D01*
X1140100Y7198300D02*
X1265500Y7177300D01*
X-465800Y8887800D02*
X-620800Y8878300D01*
X6605200Y-3080000D02*
X6550400Y-3194800D01*
X-4075400Y-6042000D02*
X-3969300Y-6112200D01*
D12*
X-8464400Y2750300D02*
X-8100000Y3100000D01*
D11*
X1014300Y-7217100D02*
X1140100Y-7198300D01*
X888200Y-7233700D02*
X1014300Y-7217100D01*
X5970000Y-4180200D02*
X5896100Y-4283800D01*
X-1390600Y-7154100D02*
X-1265500Y-7177300D01*
X-2492600Y6848500D02*
X-2372700Y6890900D01*
X3753600Y6247000D02*
X3862100Y6180600D01*
X7233700Y-888200D02*
X7217100Y-1014300D01*
X-2252100Y6931300D02*
X-2130800Y6969500D01*
X-7278000Y-381400D02*
X-7283600Y-254300D01*
X3194800Y6550400D02*
X3308700Y6493700D01*
X6657900Y-2964300D02*
X6605200Y-3080000D01*
X1014300Y-7217100D02*
X888200Y-7233700D01*
X2008800Y7005700D02*
X2130800Y6969500D01*
X-2964300Y-6657900D02*
X-2847600Y-6708600D01*
X5062700Y5242500D02*
X5153400Y5153400D01*
X-7217100Y-1014300D02*
X-7233700Y-888200D01*
X8596700Y-2303500D02*
X8635600Y-2153100D01*
X-6550400Y3194800D02*
X-6493700Y3308700D01*
X-5479400Y-7013300D02*
X-5356200Y-7107900D01*
X-635200Y-7260300D02*
X-508400Y-7270200D01*
D12*
X-400000Y-8700000D02*
X-500000Y-8300000D01*
D11*
X7270200Y508400D02*
X7278000Y381400D01*
X6247000Y3753600D02*
X6311600Y3644000D01*
X3533300Y6374200D02*
X3644000Y6311600D01*
X-7101200Y-1639400D02*
X-7128700Y-1515300D01*
X-7101200Y1639400D02*
X-7071500Y1763100D01*
X4684600Y5582900D02*
X4781400Y5500300D01*
X5720800Y-6817800D02*
X4684600Y-5582900D01*
X8511100Y-2602100D02*
X8555200Y-2453200D01*
X2492600Y6848500D02*
X2611800Y6803900D01*
X2611800Y-6803900D02*
X2492600Y-6848500D01*
D12*
X5400000Y6700000D02*
X5100000Y6100000D01*
D11*
X7101200Y-1639400D02*
X7071500Y-1763100D01*
X-7177300Y1265500D02*
X-7154100Y1390600D01*
X-3969300Y-6112200D02*
X-3862100Y-6180600D01*
X-3644000Y6311600D02*
X-3533300Y6374200D01*
X1140100Y-7198300D02*
X1265500Y-7177300D01*
D12*
X8464400Y-2750300D02*
X8100000Y-3200000D01*
D11*
X-1639400Y-7101200D02*
X-1515300Y-7128700D01*
X1763100Y7071500D02*
X1886300Y7039700D01*
X5896100Y4283800D02*
X5970000Y4180200D01*
X7278000Y-381400D02*
X7270200Y-508400D01*
X-8596700Y2303500D02*
X-8635600Y2153100D01*
D12*
X7400000Y-3100000D02*
X6757300Y-2730100D01*
D11*
X-888200Y-7233700D02*
X-761800Y-7248100D01*
X508400Y7270200D02*
X635200Y7260300D01*
X7260300Y-635200D02*
X7248100Y-761800D01*
X-4283800Y-5896100D02*
X-4180200Y-5970000D01*
X7217100Y-1014300D02*
X7198300Y-1140100D01*
X-7288000Y0D02*
X-7286900Y127200D01*
X-7198300Y-1140100D02*
X-7217100Y-1014300D01*
X8635600Y-2153100D02*
X7071500Y-1763100D01*
X-7198300Y1140100D02*
X-7177300Y1265500D01*
X-5896100Y4283800D02*
X-5820500Y4386000D01*
X2964300Y-6657900D02*
X3080000Y-6605200D01*
X-7177300Y-1265500D02*
X-7198300Y-1140100D01*
X-310600Y8894600D02*
X-465800Y8887800D01*
X5582900Y-4684600D02*
X5500300Y-4781400D01*
X7177300Y-1265500D02*
X7154100Y-1390600D01*
X4970400Y5330100D02*
X5062700Y5242500D01*
X1390600Y-7154100D02*
X1265500Y-7177300D01*
X-7278000Y381400D02*
X-7270200Y508400D01*
X-635200Y7260300D02*
X-508400Y7270200D01*
X-7128700Y-1515300D02*
X-7154100Y-1390600D01*
X5242500Y5062700D02*
X5330100Y4970400D01*
X1886300Y-7039700D02*
X2008800Y-7005700D01*
D12*
X-8600000Y-2700000D02*
X-8400000Y-2000000D01*
D11*
X5820500Y4386000D02*
X5896100Y4283800D01*
X310600Y-8894600D02*
X465800Y-8887800D01*
X5330100Y-4970400D02*
X5242500Y-5062700D01*
X-7248100Y-761800D02*
X-7260300Y-635200D01*
X1639400Y-7101200D02*
X1515300Y-7128700D01*
X4781400Y5500300D02*
X4876600Y5416000D01*
X5416000Y-4876600D02*
X5330100Y-4970400D01*
X7283600Y254300D02*
X7286900Y127200D01*
X-5231300Y7200300D02*
X-5356200Y7107900D01*
X1639400Y-7101200D02*
X1763100Y-7071500D01*
X620800Y-8878300D02*
X508400Y-7270200D01*
X3080000Y6605200D02*
X3194800Y6550400D01*
X2372700Y-6890900D02*
X2252100Y-6931300D01*
X-1763100Y7071500D02*
X-1639400Y7101200D01*
X2964300Y-6657900D02*
X2847600Y-6708600D01*
X-2130800Y-6969500D02*
X-2008800Y-7005700D01*
X-1639400Y7101200D02*
X-1515300Y7128700D01*
X-2252100Y-6931300D02*
X-2130800Y-6969500D01*
X-6757300Y2730100D02*
X-6708600Y2847600D01*
X-2730100Y-6757300D02*
X-2611800Y-6803900D01*
X1763100Y-7071500D02*
X1886300Y-7039700D01*
X5970000Y4180200D02*
X6042000Y4075400D01*
X1265500Y-7177300D02*
X1390600Y-7154100D01*
X-3753600Y6247000D02*
X-3644000Y6311600D01*
X635200Y-7260300D02*
X761800Y-7248100D01*
X-2730100Y6757300D02*
X-2611800Y6803900D01*
X7154100Y1390600D02*
X7177300Y1265500D01*
X-7233700Y888200D02*
X-7217100Y1014300D01*
X2372700Y6890900D02*
X2492600Y6848500D01*
X-4180200Y-5970000D02*
X-4075400Y-6042000D01*
X-1265500Y-7177300D02*
X-1140100Y-7198300D01*
X-7248100Y761800D02*
X-7233700Y888200D01*
X508400Y-7270200D02*
X635200Y-7260300D01*
X-1140100Y7198300D02*
X-1014300Y7217100D01*
X2611800Y6803900D02*
X2730100Y6757300D01*
D12*
X8100000Y-3200000D02*
X7400000Y-3100000D01*
D11*
X4716300Y7547600D02*
X3862100Y6180600D01*
D12*
X3600000Y-7900000D02*
X3300000Y-7200000D01*
X-8100000Y3100000D02*
X-7500000Y3100000D01*
X0Y8900000D02*
X500000Y8700000D01*
D11*
X-7217100Y1014300D02*
X-7198300Y1140100D01*
X761800Y7248100D02*
X888200Y7233700D01*
X3080000Y-6605200D02*
X2964300Y-6657900D01*
X-1014300Y7217100D02*
X-888200Y7233700D01*
X-7233700Y-888200D02*
X-7248100Y-761800D01*
X1390600Y7154100D02*
X1515300Y7128700D01*
D12*
X-7200000Y-3100000D02*
X-8300000Y-3200000D01*
D11*
X761800Y-7248100D02*
X635200Y-7260300D01*
X3308700Y6493700D02*
X3421500Y6434900D01*
X-508400Y-7270200D02*
X-381400Y-7278000D01*
X7286900Y127200D02*
X7288000Y0D01*
X-3194800Y6550400D02*
X-3080000Y6605200D01*
X-761800Y7248100D02*
X-635200Y7260300D01*
X635200Y7260300D02*
X761800Y7248100D01*
X-5330100Y4970400D02*
X-5242500Y5062700D01*
X-8511100Y2602100D02*
X-8555200Y2453200D01*
X1639400Y7101200D02*
X1763100Y7071500D01*
X-6311600Y3644000D02*
X-6247000Y3753600D01*
X1515300Y7128700D02*
X1639400Y7101200D01*
X6493700Y-3308700D02*
X6434900Y-3421500D01*
X5500300Y-4781400D02*
X5416000Y-4876600D01*
X4976800Y7378400D02*
X4847300Y7464200D01*
X-6708600Y2847600D02*
X-6657900Y2964300D01*
X7217100Y1014300D02*
X7233700Y888200D01*
X-6247000Y3753600D02*
X-6180600Y3862100D01*
X-5356200Y-7107900D02*
X-5231300Y-7200300D01*
X-7270200Y-508400D02*
X-7278000Y-381400D01*
X2008800Y-7005700D02*
X1886300Y-7039700D01*
X7278000Y381400D02*
X7283600Y254300D01*
X-3080000Y-6605200D02*
X-2964300Y-6657900D01*
X5500300Y4781400D02*
X5582900Y4684600D01*
X-6180600Y3862100D02*
X-6112200Y3969300D01*
X5743000Y-4486900D02*
X5663800Y-4586500D01*
X-3080000Y6605200D02*
X-2964300Y6657900D01*
X1265500Y-7177300D02*
X1140100Y-7198300D01*
X8251900Y3334000D02*
X6757300Y2730100D01*
X7286900Y-127200D02*
X7283600Y-254300D01*
X6311600Y3644000D02*
X6374200Y3533300D01*
X-3862100Y6180600D02*
X-3753600Y6247000D01*
X5743000Y4486900D02*
X5820500Y4386000D01*
D12*
X5100000Y6100000D02*
X4684600Y5582900D01*
D11*
X6374200Y-3533300D02*
X6311600Y-3644000D01*
X7128700Y-1515300D02*
X7101200Y-1639400D01*
D12*
X0Y-8900000D02*
X-400000Y-8700000D01*
D11*
X6657900Y2964300D02*
X6708600Y2847600D01*
X7128700Y1515300D02*
X7154100Y1390600D01*
X2008800Y-7005700D02*
X2130800Y-6969500D01*
X-2964300Y6657900D02*
X-2847600Y6708600D01*
D12*
X600000Y8000000D02*
X508400Y7270200D01*
D11*
X1886300Y-7039700D02*
X1763100Y-7071500D01*
X-3644000Y-6311600D02*
X-3533300Y-6374200D01*
X5153400Y5153400D02*
X5242500Y5062700D01*
X-1390600Y7154100D02*
X-1265500Y7177300D01*
X-3533300Y-6374200D02*
X-3421500Y-6434900D01*
X6757300Y-2730100D02*
X6708600Y-2847600D01*
X-4876600Y5416000D02*
X-4781400Y5500300D01*
X7177300Y1265500D02*
X7198300Y1140100D01*
X8308900Y3189500D02*
X8251900Y3334000D01*
X-3533300Y6374200D02*
X-3421500Y6434900D01*
X1390600Y-7154100D02*
X1515300Y-7128700D01*
X6112200Y-3969300D02*
X6042000Y-4075400D01*
X-1886300Y7039700D02*
X-1763100Y7071500D01*
X-888200Y7233700D02*
X-761800Y7248100D01*
X2130800Y-6969500D02*
X2008800Y-7005700D01*
X-5601000Y6916600D02*
X-5720800Y6817800D01*
X2492600Y-6848500D02*
X2611800Y-6803900D01*
X-7283600Y254300D02*
X-7278000Y381400D01*
D12*
X-500000Y-8300000D02*
X-381400Y-7278000D01*
X-8400000Y-2000000D02*
X-7071500Y-1763100D01*
D11*
X6708600Y2847600D02*
X6757300Y2730100D01*
X2730100Y-6757300D02*
X2847600Y-6708600D01*
X-7260300Y-635200D02*
X-7270200Y-508400D01*
X6550400Y-3194800D02*
X6493700Y-3308700D01*
X-3421500Y-6434900D02*
X-3308700Y-6493700D01*
X-5062700Y5242500D02*
X-4970400Y5330100D01*
X-2611800Y6803900D02*
X-2492600Y6848500D01*
X8415100Y2897600D02*
X8363300Y3044000D01*
X7283600Y-254300D02*
X7278000Y-381400D01*
X-1014300Y-7217100D02*
X-888200Y-7233700D01*
X-3308700Y-6493700D02*
X-3194800Y-6550400D01*
X6605200Y3080000D02*
X6657900Y2964300D01*
X2130800Y-6969500D02*
X2252100Y-6931300D01*
X-5582900Y4684600D02*
X-5500300Y4781400D01*
X-5743000Y4486900D02*
X-5663800Y4586500D01*
X2847600Y-6708600D02*
X2730100Y-6757300D01*
X2730100Y-6757300D02*
X2611800Y-6803900D01*
X-3308700Y6493700D02*
X-3194800Y6550400D01*
X6180600Y3862100D02*
X6247000Y3753600D01*
X8555200Y-2453200D02*
X8596700Y-2303500D01*
X1763100Y-7071500D02*
X1639400Y-7101200D01*
X5330100Y4970400D02*
X5416000Y4876600D01*
X7288000Y0D02*
X7286900Y-127200D01*
X5416000Y4876600D02*
X5500300Y4781400D01*
X5104800Y7290500D02*
X4976800Y7378400D01*
X7260300Y635200D02*
X7270200Y508400D01*
X-6374200Y3533300D02*
X-6311600Y3644000D01*
X635200Y-7260300D02*
X508400Y-7270200D01*
X6550400Y3194800D02*
X6605200Y3080000D01*
X7248100Y-761800D02*
X7233700Y-888200D01*
X-7286900Y-127200D02*
X-7288000Y0D01*
X-6042000Y4075400D02*
X-5970000Y4180200D01*
X6042000Y-4075400D02*
X5970000Y-4180200D01*
X-8635600Y2153100D02*
X-7071500Y1763100D01*
X465800Y-8887800D02*
X620800Y-8878300D01*
%TO.N,CPX-7*%
X-9801100Y4993900D02*
X-9886700Y4822100D01*
X-10718100Y-2474500D02*
X-10673300Y-2661100D01*
X8668100Y6772300D02*
X8548600Y6922500D01*
X-9801100Y-4993900D02*
X-9712400Y-5164200D01*
X2098900Y-10797900D02*
X2287000Y-10759600D01*
X-767300Y-10973200D02*
X-575700Y-10984900D01*
X5332900Y9620800D02*
X5164200Y9712400D01*
X-5164200Y9712400D02*
X-5332900Y9620800D01*
X-4993900Y-9801100D02*
X-4822100Y-9886700D01*
X-6309300Y9010700D02*
X-6465600Y8899200D01*
X-3399200Y10461600D02*
X-3581200Y10400700D01*
X-10461600Y3399200D02*
X-10519400Y3216100D01*
X-10993300Y383900D02*
X-10998300Y192000D01*
X-10625200Y2847000D02*
X-10673300Y2661100D01*
X6151100Y-9119400D02*
X6309300Y-9010700D01*
X-10336600Y3762200D02*
X-10400700Y3581200D01*
X10973200Y-767300D02*
X10984900Y-575700D01*
X2474500Y-10718100D02*
X2661100Y-10673300D01*
X-9119400Y-6151100D02*
X-9010700Y-6309300D01*
X-5332900Y9620800D02*
X-5500000Y9526300D01*
X-192000Y-10998300D02*
X0Y-11000000D01*
X9801100Y4993900D02*
X9712400Y5164200D01*
X1530900Y-10892900D02*
X1391700Y-9902700D01*
X1340600Y-10918000D02*
X1530900Y-10892900D01*
X10759600Y2287000D02*
X10718100Y2474500D01*
X10519400Y-3216100D02*
X10573900Y-3032000D01*
X-575700Y-10984900D02*
X-383900Y-10993300D01*
X5164200Y-9712400D02*
X5332900Y-9620800D01*
X8785000Y6620000D02*
X8668100Y6772300D01*
X-2287000Y10759600D02*
X-2474500Y10718100D01*
X-8899200Y6465600D02*
X-9010700Y6309300D01*
X-8785000Y-6620000D02*
X-8668100Y-6772300D01*
X8668100Y-6772300D02*
X8785000Y-6620000D01*
X9886700Y-4822100D02*
X9969400Y-4648800D01*
X-8301800Y-7216600D02*
X-8174600Y-7360400D01*
X3399200Y10461600D02*
X3216100Y10519400D01*
X-9119400Y6151100D02*
X-9225400Y5991000D01*
X10573900Y-3032000D02*
X10625200Y-2847000D01*
X-7641200Y7912700D02*
X-7778200Y7778200D01*
X-7216600Y8301800D02*
X-7360400Y8174600D01*
X575700Y10984900D02*
X383900Y10993300D01*
X5991000Y-9225400D02*
X6151100Y-9119400D01*
X-9526300Y-5500000D02*
X-9428800Y-5665400D01*
X-10892900Y1530900D02*
X-10918000Y1340600D01*
X6772300Y8668100D02*
X6620000Y8785000D01*
X4993900Y9801100D02*
X4822100Y9886700D01*
X3216100Y-10519400D02*
X3399200Y-10461600D01*
X1910100Y10832900D02*
X1720800Y10864600D01*
X9712400Y-5164200D02*
X9801100Y-4993900D01*
X-8044900Y7502000D02*
X-8174600Y7360400D01*
X7778200Y7778200D02*
X7641200Y7912700D01*
X9886700Y4822100D02*
X8987900Y4383700D01*
X3942000Y10269400D02*
X3762200Y10336600D01*
X8301800Y-7216600D02*
X8426500Y-7070700D01*
X-10984900Y-575700D02*
X-10973200Y-767300D01*
X-958700Y-10958100D02*
X-767300Y-10973200D01*
X-10400700Y3581200D02*
X-10461600Y3399200D01*
X-5829100Y-9328500D02*
X-5299200Y-8480500D01*
X-10918000Y-1340600D02*
X-10892900Y-1530900D01*
X-10199000Y4120700D02*
X-10269400Y3942000D01*
X-9328500Y-5829100D02*
X-9225400Y-5991000D01*
X-8044900Y-7502000D02*
X-7912700Y-7641200D01*
X-10049000Y4474100D02*
X-10125600Y4298000D01*
X-5665400Y9428800D02*
X-5829100Y9328500D01*
X767300Y10973200D02*
X575700Y10984900D01*
X-2474500Y10718100D02*
X-2661100Y10673300D01*
X10269400Y-3942000D02*
X10336600Y-3762200D01*
X10918000Y1340600D02*
X10892900Y1530900D01*
X10199000Y4120700D02*
X10125600Y4298000D01*
X-1530900Y10892900D02*
X-1720800Y10864600D01*
X1530900Y10892900D02*
X1340600Y10918000D01*
X383900Y10993300D02*
X192000Y10998300D01*
X-3032000Y10573900D02*
X-3216100Y10519400D01*
X8044900Y-7502000D02*
X8174600Y-7360400D01*
X-10573900Y-3032000D02*
X-10519400Y-3216100D01*
X-10269400Y-3942000D02*
X-10199000Y-4120700D01*
X-4648800Y-9969400D02*
X-4474100Y-10049000D01*
X9526300Y5500000D02*
X9428800Y5665400D01*
X-767300Y10973200D02*
X-958700Y10958100D01*
X-10939700Y-1149800D02*
X-10918000Y-1340600D01*
X-10993300Y-383900D02*
X-10984900Y-575700D01*
X-4822100Y9886700D02*
X-4993900Y9801100D01*
X10797900Y-2098900D02*
X10832900Y-1910100D01*
X6620000Y-8785000D02*
X6772300Y-8668100D01*
X10673300Y2661100D02*
X10625200Y2847000D01*
X-10864600Y-1720800D02*
X-10832900Y-1910100D01*
X8301800Y7216600D02*
X8174600Y7360400D01*
X-10797900Y2098900D02*
X-10832900Y1910100D01*
X-2661100Y10673300D02*
X-2847000Y10625200D01*
X1720800Y-10864600D02*
X1910100Y-10832900D01*
X-9428800Y-5665400D02*
X-9328500Y-5829100D01*
X-383900Y10993300D02*
X-575700Y10984900D01*
X9969400Y-4648800D02*
X10049000Y-4474100D01*
X-10759600Y2287000D02*
X-10797900Y2098900D01*
X-7778200Y7778200D02*
X-7912700Y7641200D01*
X8548600Y-6922500D02*
X8668100Y-6772300D01*
X-7641200Y7912700D02*
X-6946600Y7193400D01*
X-6465600Y-8899200D02*
X-6309300Y-9010700D01*
X-10939700Y1149800D02*
X-10958100Y958700D01*
X9225400Y5991000D02*
X9119400Y6151100D01*
X10461600Y-3399200D02*
X10519400Y-3216100D01*
X-1720800Y-10864600D02*
X-1530900Y-10892900D01*
X-4298000Y-10125600D02*
X-4120700Y-10199000D01*
X-6151100Y9119400D02*
X-6309300Y9010700D01*
X7641200Y-7912700D02*
X6946600Y-7193400D01*
X-9620800Y5332900D02*
X-9712400Y5164200D01*
X-9526300Y5500000D02*
X-9620800Y5332900D01*
X-10625200Y-2847000D02*
X-10573900Y-3032000D01*
X-8301800Y7216600D02*
X-8426500Y7070700D01*
X-3762200Y10336600D02*
X-3942000Y10269400D01*
X-10759600Y-2287000D02*
X-10718100Y-2474500D01*
X7641200Y7912700D02*
X7502000Y8044900D01*
X-3032000Y-10573900D02*
X-2847000Y-10625200D01*
X-7070700Y8426500D02*
X-7216600Y8301800D01*
X0Y11000000D02*
X-192000Y10998300D01*
X9886700Y4822100D02*
X9801100Y4993900D01*
X4648800Y9969400D02*
X4474100Y10049000D01*
X-3216100Y-10519400D02*
X-3032000Y-10573900D01*
X-11000000Y0D02*
X-10998300Y-192000D01*
X10400700Y-3581200D02*
X10461600Y-3399200D01*
X-7502000Y8044900D02*
X-7641200Y7912700D01*
X10832900Y1910100D02*
X10797900Y2098900D01*
X10958100Y-958700D02*
X10973200Y-767300D01*
X10125600Y-4298000D02*
X10199000Y-4120700D01*
X4298000Y-10125600D02*
X4474100Y-10049000D01*
X9801100Y-4993900D02*
X9886700Y-4822100D01*
X-10519400Y3216100D02*
X-10573900Y3032000D01*
X-7216600Y-8301800D02*
X-7070700Y-8426500D01*
X-7070700Y-8426500D02*
X-6922500Y-8548600D01*
X-6922500Y-8548600D02*
X-6772300Y-8668100D01*
X0Y-11000000D02*
X192000Y-10998300D01*
X3399200Y-10461600D02*
X3581200Y-10400700D01*
X-1340600Y-10918000D02*
X-1149800Y-10939700D01*
X-10125600Y-4298000D02*
X-10049000Y-4474100D01*
X3216100Y10519400D02*
X3032000Y10573900D01*
X-9712400Y5164200D02*
X-9801100Y4993900D01*
X-8174600Y7360400D02*
X-8301800Y7216600D01*
X3581200Y-10400700D02*
X3762200Y-10336600D01*
X6620000Y8785000D02*
X6465600Y8899200D01*
X4474100Y-10049000D02*
X4648800Y-9969400D01*
X-8548600Y-6922500D02*
X-8426500Y-7070700D01*
X7070700Y8426500D02*
X6922500Y8548600D01*
X-1340600Y10918000D02*
X-1530900Y10892900D01*
X-9225400Y5991000D02*
X-9328500Y5829100D01*
X-3762200Y-10336600D02*
X-3581200Y-10400700D01*
X-4298000Y10125600D02*
X-4474100Y10049000D01*
X-10864600Y1720800D02*
X-10892900Y1530900D01*
X10673300Y-2661100D02*
X10718100Y-2474500D01*
X-2661100Y-10673300D02*
X-2474500Y-10718100D01*
X8174600Y7360400D02*
X8044900Y7502000D01*
X7912700Y7641200D02*
X7778200Y7778200D01*
X9712400Y5164200D02*
X9620800Y5332900D01*
X-10832900Y-1910100D02*
X-10797900Y-2098900D01*
X9328500Y5829100D02*
X9225400Y5991000D01*
X7641200Y-7912700D02*
X7778200Y-7778200D01*
X10864600Y-1720800D02*
X10892900Y-1530900D01*
X-4648800Y9969400D02*
X-4822100Y9886700D01*
X1340600Y10918000D02*
X1149800Y10939700D01*
X-8899200Y-6465600D02*
X-8785000Y-6620000D01*
X10984900Y575700D02*
X10973200Y767300D01*
X-2098900Y-10797900D02*
X-1910100Y-10832900D01*
X-958700Y10958100D02*
X-1149800Y10939700D01*
X-3216100Y10519400D02*
X-3399200Y10461600D01*
X5164200Y9712400D02*
X4694700Y8829500D01*
X10519400Y3216100D02*
X10461600Y3399200D01*
X2098900Y10797900D02*
X1910100Y10832900D01*
X-6309300Y-9010700D02*
X-6151100Y-9119400D01*
X-2847000Y10625200D02*
X-3032000Y10573900D01*
X958700Y-10958100D02*
X1149800Y-10939700D01*
X5500000Y9526300D02*
X5332900Y9620800D01*
X-10199000Y-4120700D02*
X-9271800Y-3746100D01*
X-1530900Y10892900D02*
X-1391700Y9902700D01*
X-1720800Y10864600D02*
X-1910100Y10832900D01*
X3032000Y10573900D02*
X2847000Y10625200D01*
X9328500Y-5829100D02*
X9428800Y-5665400D01*
X9010700Y-6309300D02*
X9119400Y-6151100D01*
X-10718100Y2474500D02*
X-10759600Y2287000D01*
X10336600Y3762200D02*
X10269400Y3942000D01*
X-10461600Y-3399200D02*
X-10400700Y-3581200D01*
X9620800Y5332900D02*
X9526300Y5500000D01*
X5829100Y9328500D02*
X5665400Y9428800D01*
X10973200Y767300D02*
X10958100Y958700D01*
X10939700Y1149800D02*
X10918000Y1340600D01*
X10939700Y-1149800D02*
X10958100Y-958700D01*
X4120700Y10199000D02*
X3942000Y10269400D01*
X2847000Y10625200D02*
X2661100Y10673300D01*
X-10336600Y-3762200D02*
X-10269400Y-3942000D01*
X-3581200Y10400700D02*
X-3762200Y10336600D01*
X-5829100Y9328500D02*
X-5991000Y9225400D01*
X-9428800Y5665400D02*
X-9526300Y5500000D01*
X-7912700Y-7641200D02*
X-7778200Y-7778200D01*
X7502000Y-8044900D02*
X7641200Y-7912700D01*
X-6151100Y-9119400D02*
X-5991000Y-9225400D01*
X-10519400Y-3216100D02*
X-10461600Y-3399200D01*
X10269400Y3942000D02*
X10199000Y4120700D01*
X575700Y-10984900D02*
X767300Y-10973200D01*
X-7912700Y7641200D02*
X-8044900Y7502000D01*
X2661100Y-10673300D02*
X2847000Y-10625200D01*
X9969400Y4648800D02*
X9886700Y4822100D01*
X-10573900Y3032000D02*
X-10625200Y2847000D01*
X8899200Y6465600D02*
X8785000Y6620000D01*
X6309300Y9010700D02*
X6151100Y9119400D01*
X-3399200Y-10461600D02*
X-3216100Y-10519400D01*
X-5500000Y9526300D02*
X-5665400Y9428800D01*
X9428800Y5665400D02*
X9328500Y5829100D01*
X-10673300Y-2661100D02*
X-10625200Y-2847000D01*
X9526300Y-5500000D02*
X9620800Y-5332900D01*
X9428800Y-5665400D02*
X9526300Y-5500000D01*
X-7641200Y-7912700D02*
X-7502000Y-8044900D01*
X2847000Y-10625200D02*
X3032000Y-10573900D01*
X10718100Y-2474500D02*
X10759600Y-2287000D01*
X-9010700Y6309300D02*
X-9119400Y6151100D01*
X10892900Y-1530900D02*
X10918000Y-1340600D01*
X9119400Y6151100D02*
X9010700Y6309300D01*
X-10832900Y1910100D02*
X-10864600Y1720800D01*
X4298000Y10125600D02*
X4120700Y10199000D01*
X10993300Y-383900D02*
X10998300Y-192000D01*
X8785000Y-6620000D02*
X8899200Y-6465600D01*
X-1149800Y10939700D02*
X-1340600Y10918000D01*
X192000Y-10998300D02*
X383900Y-10993300D01*
X-3942000Y-10269400D02*
X-3762200Y-10336600D01*
X1720800Y10864600D02*
X1530900Y10892900D01*
X5991000Y9225400D02*
X5829100Y9328500D01*
X10892900Y1530900D02*
X10864600Y1720800D01*
X-10918000Y1340600D02*
X-10939700Y1149800D01*
X-7360400Y-8174600D02*
X-7216600Y-8301800D01*
X-9886700Y4822100D02*
X-9969400Y4648800D01*
X10400700Y3581200D02*
X10336600Y3762200D01*
X9119400Y-6151100D02*
X9225400Y-5991000D01*
X-10958100Y-958700D02*
X-10939700Y-1149800D01*
X6151100Y9119400D02*
X5991000Y9225400D01*
X-5164200Y-9712400D02*
X-4993900Y-9801100D01*
X4648800Y-9969400D02*
X4822100Y-9886700D01*
X-8785000Y6620000D02*
X-8899200Y6465600D01*
X-5665400Y-9428800D02*
X-5500000Y-9526300D01*
X-6465600Y8899200D02*
X-6620000Y8785000D01*
X-9010700Y-6309300D02*
X-8899200Y-6465600D01*
X-9886700Y-4822100D02*
X-9801100Y-4993900D01*
X-9328500Y5829100D02*
X-9428800Y5665400D01*
X7912700Y-7641200D02*
X8044900Y-7502000D01*
X2474500Y10718100D02*
X2287000Y10759600D01*
X7778200Y-7778200D02*
X7912700Y-7641200D01*
X-8426500Y7070700D02*
X-8548600Y6922500D01*
X-10199000Y-4120700D02*
X-10125600Y-4298000D01*
X9225400Y-5991000D02*
X9328500Y-5829100D01*
X8426500Y-7070700D02*
X8548600Y-6922500D01*
X6772300Y-8668100D02*
X6922500Y-8548600D01*
X7502000Y8044900D02*
X7360400Y8174600D01*
X-1530900Y-10892900D02*
X-1340600Y-10918000D01*
X10461600Y3399200D02*
X10400700Y3581200D01*
X192000Y10998300D02*
X0Y11000000D01*
X2287000Y-10759600D02*
X2474500Y-10718100D01*
X-5991000Y9225400D02*
X-6151100Y9119400D01*
X5164200Y9712400D02*
X4993900Y9801100D01*
X4120700Y-10199000D02*
X4298000Y-10125600D01*
X3762200Y-10336600D02*
X3942000Y-10269400D01*
X-8174600Y-7360400D02*
X-8044900Y-7502000D01*
X7070700Y-8426500D02*
X7216600Y-8301800D01*
X7216600Y-8301800D02*
X7360400Y-8174600D01*
X10832900Y-1910100D02*
X10864600Y-1720800D01*
X-10958100Y958700D02*
X-10973200Y767300D01*
X10797900Y2098900D02*
X10759600Y2287000D01*
X-383900Y-10993300D02*
X-192000Y-10998300D01*
X-9225400Y-5991000D02*
X-9119400Y-6151100D01*
X-6922500Y8548600D02*
X-7070700Y8426500D01*
X-10973200Y-767300D02*
X-10958100Y-958700D01*
X-5829100Y-9328500D02*
X-5665400Y-9428800D01*
X-10125600Y4298000D02*
X-10199000Y4120700D01*
X-9969400Y4648800D02*
X-10049000Y4474100D01*
X-4120700Y10199000D02*
X-4298000Y10125600D01*
X7360400Y-8174600D02*
X7502000Y-8044900D01*
X6922500Y-8548600D02*
X7070700Y-8426500D01*
X-10049000Y-4474100D02*
X-9969400Y-4648800D01*
X5500000Y-9526300D02*
X5665400Y-9428800D01*
X8548600Y6922500D02*
X8426500Y7070700D01*
X-8668100Y6772300D02*
X-8785000Y6620000D01*
X6309300Y-9010700D02*
X6465600Y-8899200D01*
X-10400700Y-3581200D02*
X-10336600Y-3762200D01*
X2661100Y10673300D02*
X2474500Y10718100D01*
X1910100Y-10832900D02*
X2098900Y-10797900D01*
X1149800Y-10939700D02*
X1340600Y-10918000D01*
X-575700Y10984900D02*
X-767300Y10973200D01*
X10984900Y-575700D02*
X10993300Y-383900D01*
X3581200Y10400700D02*
X3399200Y10461600D01*
X-10673300Y2661100D02*
X-10718100Y2474500D01*
X383900Y-10993300D02*
X575700Y-10984900D01*
X-4120700Y-10199000D02*
X-3942000Y-10269400D01*
X10998300Y192000D02*
X10993300Y383900D01*
X10918000Y-1340600D02*
X10939700Y-1149800D01*
X-9969400Y-4648800D02*
X-9886700Y-4822100D01*
X10759600Y-2287000D02*
X10797900Y-2098900D01*
X10998300Y-192000D02*
X11000000Y0D01*
X3032000Y-10573900D02*
X3216100Y-10519400D01*
X-1910100Y-10832900D02*
X-1720800Y-10864600D01*
X10993300Y383900D02*
X10984900Y575700D01*
X10958100Y958700D02*
X10939700Y1149800D01*
X-10269400Y3942000D02*
X-10336600Y3762200D01*
X10049000Y4474100D02*
X9969400Y4648800D01*
X8426500Y7070700D02*
X8301800Y7216600D01*
X-7778200Y-7778200D02*
X-7641200Y-7912700D01*
X10125600Y4298000D02*
X10049000Y4474100D01*
X6465600Y-8899200D02*
X6620000Y-8785000D01*
D12*
X10832900Y-1910100D02*
X9306400Y-1641000D01*
D11*
X10199000Y-4120700D02*
X10269400Y-3942000D01*
X-192000Y10998300D02*
X-383900Y10993300D01*
X-6772300Y-8668100D02*
X-6620000Y-8785000D01*
X6922500Y8548600D02*
X6772300Y8668100D01*
X-10998300Y192000D02*
X-11000000Y0D01*
X-1910100Y10832900D02*
X-2098900Y10797900D01*
X8174600Y-7360400D02*
X8301800Y-7216600D01*
X9620800Y-5332900D02*
X9712400Y-5164200D01*
X-8668100Y-6772300D02*
X-8548600Y-6922500D01*
X4993900Y-9801100D02*
X5164200Y-9712400D01*
X-10892900Y-1530900D02*
X-10864600Y-1720800D01*
X10336600Y-3762200D02*
X10400700Y-3581200D01*
X5332900Y-9620800D02*
X5500000Y-9526300D01*
X1149800Y10939700D02*
X958700Y10958100D01*
X4822100Y9886700D02*
X4648800Y9969400D01*
X5665400Y9428800D02*
X5500000Y9526300D01*
X-10984900Y575700D02*
X-10993300Y383900D01*
X-4822100Y-9886700D02*
X-4648800Y-9969400D01*
X-10797900Y-2098900D02*
X-10759600Y-2287000D01*
X-5332900Y-9620800D02*
X-5164200Y-9712400D01*
X3762200Y10336600D02*
X3581200Y10400700D01*
X-9620800Y-5332900D02*
X-9526300Y-5500000D01*
X10718100Y2474500D02*
X10673300Y2661100D01*
X7216600Y8301800D02*
X7070700Y8426500D01*
X-10998300Y-192000D02*
X-10993300Y-383900D01*
X-6620000Y8785000D02*
X-6772300Y8668100D01*
X-10973200Y767300D02*
X-10984900Y575700D01*
X958700Y10958100D02*
X767300Y10973200D01*
X-6772300Y8668100D02*
X-6922500Y8548600D01*
X2287000Y10759600D02*
X2098900Y10797900D01*
X11000000Y0D02*
X10998300Y192000D01*
X-5991000Y-9225400D02*
X-5829100Y-9328500D01*
X-3581200Y-10400700D02*
X-3399200Y-10461600D01*
X1530900Y-10892900D02*
X1720800Y-10864600D01*
X6465600Y8899200D02*
X6309300Y9010700D01*
X3942000Y-10269400D02*
X4120700Y-10199000D01*
X767300Y-10973200D02*
X958700Y-10958100D01*
X8044900Y7502000D02*
X7912700Y7641200D01*
X-8426500Y-7070700D02*
X-8301800Y-7216600D01*
X-4474100Y10049000D02*
X-4648800Y9969400D01*
X-3942000Y10269400D02*
X-4120700Y10199000D01*
X10573900Y3032000D02*
X10519400Y3216100D01*
X-4474100Y-10049000D02*
X-4298000Y-10125600D01*
X-1149800Y-10939700D02*
X-958700Y-10958100D01*
X5829100Y-9328500D02*
X5991000Y-9225400D01*
X-2847000Y-10625200D02*
X-2661100Y-10673300D01*
X-5500000Y-9526300D02*
X-5332900Y-9620800D01*
X10832900Y-1910100D02*
X9848100Y-1736500D01*
X-2098900Y10797900D02*
X-2287000Y10759600D01*
X4822100Y-9886700D02*
X4993900Y-9801100D01*
X-6620000Y-8785000D02*
X-6465600Y-8899200D01*
X-2474500Y-10718100D02*
X-2287000Y-10759600D01*
X9010700Y6309300D02*
X8899200Y6465600D01*
X7360400Y8174600D02*
X7216600Y8301800D01*
X-2287000Y-10759600D02*
X-2098900Y-10797900D01*
X-4993900Y9801100D02*
X-5164200Y9712400D01*
X10625200Y2847000D02*
X10573900Y3032000D01*
X5665400Y-9428800D02*
X5829100Y-9328500D01*
X-7502000Y-8044900D02*
X-7360400Y-8174600D01*
X10049000Y-4474100D02*
X10125600Y-4298000D01*
X-8548600Y6922500D02*
X-8668100Y6772300D01*
X4474100Y10049000D02*
X4298000Y10125600D01*
X8899200Y-6465600D02*
X9010700Y-6309300D01*
X10864600Y1720800D02*
X10832900Y1910100D01*
X-9712400Y-5164200D02*
X-9620800Y-5332900D01*
X10625200Y-2847000D02*
X10673300Y-2661100D01*
X-7360400Y8174600D02*
X-7502000Y8044900D01*
D13*
%TO.N,XL-INT2*%
X1400000Y-5400000D02*
X2100000Y-6100000D01*
X-1900000Y-6200000D02*
X-1100000Y-5400000D01*
X-1100000Y-5400000D02*
X1400000Y-5400000D01*
%TO.N,XL-INT1*%
X400000Y-6300000D02*
X0Y-5900000D01*
X0Y-5900000D02*
X-600000Y-5900000D01*
X400000Y-6500000D02*
X400000Y-6300000D01*
X-600000Y-5900000D02*
X-1100000Y-6400000D01*
%TO.N,HALL*%
X4000000Y5200000D02*
X1400000Y2600000D01*
X1400000Y2600000D02*
X-5900000Y2600000D01*
%TD*%
M02*
