G04 #@! TF.GenerationSoftware,KiCad,Pcbnew,9.0.7*
G04 #@! TF.CreationDate,2026-03-08T11:54:30+01:00*
G04 #@! TF.ProjectId,halo-90,68616c6f-2d39-4302-9e6b-696361645f70,0V8*
G04 #@! TF.SameCoordinates,Original*
G04 #@! TF.FileFunction,Legend,Top*
G04 #@! TF.FilePolarity,Positive*
%FSLAX46Y46*%
G04 Gerber Fmt 4.6, Leading zero omitted, Abs format (unit mm)*
G04 Created by KiCad (PCBNEW 9.0.7) date 2026-03-08 11:54:30*
%MOMM*%
%LPD*%
G01*
G04 APERTURE LIST*
G04 Aperture macros list*
%AMRoundRect*
0 Rectangle with rounded corners*
0 $1 Rounding radius*
0 $2 $3 $4 $5 $6 $7 $8 $9 X,Y pos of 4 corners*
0 Add a 4 corners polygon primitive as box body*
4,1,4,$2,$3,$4,$5,$6,$7,$8,$9,$2,$3,0*
0 Add four circle primitives for the rounded corners*
1,1,$1+$1,$2,$3*
1,1,$1+$1,$4,$5*
1,1,$1+$1,$6,$7*
1,1,$1+$1,$8,$9*
0 Add four rect primitives between the rounded corners*
20,1,$1+$1,$2,$3,$4,$5,0*
20,1,$1+$1,$4,$5,$6,$7,0*
20,1,$1+$1,$6,$7,$8,$9,0*
20,1,$1+$1,$8,$9,$2,$3,0*%
%AMOutline5P*
0 Free polygon, 5 corners , with rotation*
0 The origin of the aperture is its center*
0 number of corners: always 5*
0 $1 to $10 corner X, Y*
0 $11 Rotation angle, in degrees counterclockwise*
0 create outline with 5 corners*
4,1,5,$1,$2,$3,$4,$5,$6,$7,$8,$9,$10,$1,$2,$11*%
%AMOutline6P*
0 Free polygon, 6 corners , with rotation*
0 The origin of the aperture is its center*
0 number of corners: always 6*
0 $1 to $12 corner X, Y*
0 $13 Rotation angle, in degrees counterclockwise*
0 create outline with 6 corners*
4,1,6,$1,$2,$3,$4,$5,$6,$7,$8,$9,$10,$11,$12,$1,$2,$13*%
%AMOutline7P*
0 Free polygon, 7 corners , with rotation*
0 The origin of the aperture is its center*
0 number of corners: always 7*
0 $1 to $14 corner X, Y*
0 $15 Rotation angle, in degrees counterclockwise*
0 create outline with 7 corners*
4,1,7,$1,$2,$3,$4,$5,$6,$7,$8,$9,$10,$11,$12,$13,$14,$1,$2,$15*%
%AMOutline8P*
0 Free polygon, 8 corners , with rotation*
0 The origin of the aperture is its center*
0 number of corners: always 8*
0 $1 to $16 corner X, Y*
0 $17 Rotation angle, in degrees counterclockwise*
0 create outline with 8 corners*
4,1,8,$1,$2,$3,$4,$5,$6,$7,$8,$9,$10,$11,$12,$13,$14,$15,$16,$1,$2,$17*%
%AMFreePoly0*
4,1,18,-0.137500,0.181250,-0.132267,0.207559,-0.117364,0.229864,-0.095059,0.244767,-0.068750,0.250000,0.068750,0.250000,0.095059,0.244767,0.117364,0.229864,0.132267,0.207559,0.137500,0.181250,0.137500,-0.112500,0.000000,-0.250000,-0.068750,-0.250000,-0.095059,-0.244767,-0.117364,-0.229864,-0.132267,-0.207559,-0.137500,-0.181250,-0.137500,0.181250,-0.137500,0.181250,$1*%
%AMFreePoly1*
4,1,21,-0.137500,0.181250,-0.132267,0.207559,-0.117364,0.229864,-0.095059,0.244767,-0.068750,0.250000,0.068750,0.250000,0.095059,0.244767,0.117364,0.229864,0.132267,0.207559,0.137500,0.181250,0.137500,-0.181250,0.132267,-0.207559,0.117364,-0.229864,0.095059,-0.244767,0.068750,-0.250000,-0.068750,-0.250000,-0.095059,-0.244767,-0.117364,-0.229864,-0.132267,-0.207559,-0.137500,-0.181250,
-0.137500,0.181250,-0.137500,0.181250,$1*%
%AMFreePoly2*
4,1,18,-0.137500,0.181250,-0.132267,0.207559,-0.117364,0.229864,-0.095059,0.244767,-0.068750,0.250000,0.068750,0.250000,0.095059,0.244767,0.117364,0.229864,0.132267,0.207559,0.137500,0.181250,0.137500,-0.181250,0.132267,-0.207559,0.117364,-0.229864,0.095059,-0.244767,0.068750,-0.250000,0.000000,-0.250000,-0.137500,-0.112500,-0.137500,0.181250,-0.137500,0.181250,$1*%
G04 Aperture macros list end*
%ADD10C,0.080000*%
%ADD11RoundRect,0.030000X-0.000454X-0.272809X0.215256X-0.167600X0.000454X0.272809X-0.215256X0.167600X0*%
%ADD12RoundRect,0.075000X-0.020265X0.212637X-0.155084X0.146881X0.020265X-0.212637X0.155084X-0.146881X0*%
%ADD13RoundRect,0.030000X0.093733X0.256201X-0.144952X0.231114X-0.093733X-0.256201X0.144952X-0.231114X0*%
%ADD14RoundRect,0.075000X-0.053683X-0.206744X0.095495X-0.191065X0.053683X0.206744X-0.095495X0.191065X0*%
%ADD15RoundRect,0.030000X0.264596X-0.066439X0.214697X0.168316X-0.264596X0.066439X-0.214697X-0.168316X0*%
%ADD16RoundRect,0.075000X-0.211223X0.031779X-0.180036X-0.114943X0.211223X-0.031779X0.180036X0.114943X0*%
%ADD17RoundRect,0.030000X-0.259597X-0.083871X-0.092879X-0.256512X0.259597X0.083871X0.092879X0.256512X0*%
%ADD18RoundRect,0.075000X0.195967X0.084981X0.091769X0.192882X-0.195967X-0.084981X-0.091769X-0.192882X0*%
%ADD19RoundRect,0.030000X-0.018577X0.272176X-0.226423X0.152176X0.018577X-0.272176X0.226423X-0.152176X0*%
%ADD20RoundRect,0.075000X0.035048X-0.210705X0.164952X-0.135705X-0.035048X0.210705X-0.164952X0.135705X0*%
%ADD21RoundRect,0.030000X0.214697X-0.168316X0.264596X0.066439X-0.214697X0.168316X-0.264596X-0.066439X0*%
%ADD22RoundRect,0.075000X-0.180036X0.114943X-0.211223X-0.031779X0.180036X-0.114943X0.211223X0.031779X0*%
%ADD23RoundRect,0.030000X-0.160721X-0.220440X0.075633X-0.262116X0.160721X0.220440X-0.075633X0.262116X0*%
%ADD24RoundRect,0.075000X0.108590X0.183938X-0.039131X0.209985X-0.108590X-0.183938X0.039131X-0.209985X0*%
%ADD25RoundRect,0.030000X0.144952X0.231114X-0.093733X0.256201X-0.144952X-0.231114X0.093733X-0.256201X0*%
%ADD26RoundRect,0.075000X-0.095495X-0.191065X0.053683X-0.206744X0.095495X0.191065X-0.053683X0.206744X0*%
%ADD27RoundRect,0.030000X0.252774X-0.102617X0.236032X0.136798X-0.252774X0.102617X-0.236032X-0.136798X0*%
%ADD28RoundRect,0.075000X-0.204745X0.060866X-0.194281X-0.088769X0.204745X-0.060866X0.194281X0.088769X0*%
%ADD29RoundRect,0.030000X-0.144181X0.231596X-0.271362X0.028064X0.144181X-0.231596X0.271362X-0.028064X0*%
%ADD30RoundRect,0.075000X0.129866X-0.169587X0.209354X-0.042380X-0.129866X0.169587X-0.209354X0.042380X0*%
%ADD31RoundRect,0.030000X-0.236032X0.136798X-0.252774X-0.102617X0.236032X-0.136798X0.252774X0.102617X0*%
%ADD32RoundRect,0.075000X0.194281X-0.088769X0.204745X0.060866X-0.194281X0.088769X-0.204745X-0.060866X0*%
%ADD33Outline5P,-0.350000X0.500000X0.350000X0.500000X0.350000X-0.500000X-0.210000X-0.500000X-0.350000X-0.360000X0.000000*%
%ADD34R,0.700000X1.000000*%
%ADD35RoundRect,0.030000X0.018577X-0.272176X0.226423X-0.152176X-0.018577X0.272176X-0.226423X0.152176X0*%
%ADD36RoundRect,0.075000X-0.035048X0.210705X-0.164952X0.135705X0.035048X-0.210705X0.164952X-0.135705X0*%
%ADD37RoundRect,0.030000X0.268586X-0.047820X0.202433X0.182883X-0.268586X0.047820X-0.202433X-0.182883X0*%
%ADD38RoundRect,0.075000X-0.212925X0.016967X-0.171580X-0.127222X0.212925X-0.016967X0.171580X0.127222X0*%
%ADD39RoundRect,0.030000X0.271267X-0.028968X0.189182X0.196558X-0.271267X0.028968X-0.189182X-0.196558X0*%
%ADD40RoundRect,0.075000X-0.213590X0.002073X-0.162287X-0.138881X0.213590X-0.002073X0.162287X0.138881X0*%
%ADD41RoundRect,0.030000X0.037518X-0.270217X0.236487X-0.136011X-0.037518X0.270217X-0.236487X0.136011X0*%
%ADD42RoundRect,0.075000X-0.049661X0.207747X-0.174016X0.123868X0.049661X-0.207747X0.174016X-0.123868X0*%
%ADD43RoundRect,0.030000X0.175010X-0.209276X0.272627X0.009975X-0.175010X0.209276X-0.272627X-0.009975X0*%
%ADD44RoundRect,0.075000X-0.152204X0.149863X-0.213214X0.012831X0.152204X-0.149863X0.213214X-0.012831X0*%
%ADD45RoundRect,0.030000X-0.075633X-0.262116X0.160721X-0.220440X0.075633X0.262116X-0.160721X0.220440X0*%
%ADD46RoundRect,0.075000X0.039131X0.209985X-0.108590X0.183938X-0.039131X-0.209985X0.108590X-0.183938X0*%
%ADD47RoundRect,0.030000X0.056276X-0.266942X0.245398X-0.119183X-0.056276X0.266942X-0.245398X0.119183X0*%
%ADD48RoundRect,0.075000X-0.064031X0.203777X-0.182233X0.111428X0.064031X-0.203777X0.182233X-0.111428X0*%
%ADD49RoundRect,0.030000X0.110546X-0.249408X0.264815X-0.065558X-0.110546X0.249408X-0.264815X0.065558X0*%
%ADD50RoundRect,0.075000X-0.105000X0.186011X-0.201418X0.071104X0.105000X-0.186011X0.201418X-0.071104X0*%
%ADD51RoundRect,0.030000X0.074760X-0.262366X0.253114X-0.101775X-0.074760X0.262366X-0.253114X0.101775X0*%
%ADD52RoundRect,0.075000X-0.078090X0.198814X-0.189562X0.098444X0.078090X-0.198814X0.189562X-0.098444X0*%
%ADD53RoundRect,0.030000X-0.175706X-0.208692X0.057165X-0.266753X0.175706X0.208692X-0.057165X0.266753X0*%
%ADD54RoundRect,0.075000X0.121157X0.175915X-0.024388X0.212203X-0.121157X-0.175915X0.024388X-0.212203X0*%
%ADD55RoundRect,0.030000X-0.202433X0.182883X-0.268586X-0.047820X0.202433X-0.182883X0.268586X0.047820X0*%
%ADD56RoundRect,0.075000X0.171580X-0.127222X0.212925X0.016967X-0.171580X0.127222X-0.212925X-0.016967X0*%
%ADD57RoundRect,0.030000X0.215256X0.167600X-0.000454X0.272809X-0.215256X-0.167600X0.000454X-0.272809X0*%
%ADD58RoundRect,0.075000X-0.155084X-0.146881X-0.020265X-0.212637X0.155084X0.146881X0.020265X0.212637X0*%
%ADD59RoundRect,0.030000X-0.225915X0.152930X-0.259316X-0.084735X0.225915X-0.152930X0.259316X0.084735X0*%
%ADD60RoundRect,0.075000X0.187616X-0.102105X0.208492X0.046435X-0.187616X0.102105X-0.208492X-0.046435X0*%
%ADD61RoundRect,0.030000X-0.093733X-0.256201X0.144952X-0.231114X0.093733X0.256201X-0.144952X0.231114X0*%
%ADD62RoundRect,0.075000X0.053683X0.206744X-0.095495X0.191065X-0.053683X-0.206744X0.095495X-0.191065X0*%
%ADD63RoundRect,0.030000X-0.038418X-0.270091X0.189836X-0.195927X0.038418X0.270091X-0.189836X0.195927X0*%
%ADD64RoundRect,0.075000X0.009526X0.213388X-0.133133X0.167035X-0.009526X-0.213388X0.133133X-0.167035X0*%
%ADD65RoundRect,0.030000X0.075633X0.262116X-0.160721X0.220440X-0.075633X-0.262116X0.160721X-0.220440X0*%
%ADD66RoundRect,0.075000X-0.039131X-0.209985X0.108590X-0.183938X0.039131X0.209985X-0.108590X0.183938X0*%
%ADD67RoundRect,0.030000X0.202433X-0.182883X0.268586X0.047820X-0.202433X0.182883X-0.268586X-0.047820X0*%
%ADD68RoundRect,0.075000X-0.171580X0.127222X-0.212925X-0.016967X0.171580X-0.127222X0.212925X0.016967X0*%
%ADD69RoundRect,0.030000X0.245398X0.119183X0.056276X0.266942X-0.245398X-0.119183X-0.056276X-0.266942X0*%
%ADD70RoundRect,0.075000X-0.182233X-0.111428X-0.064031X-0.203777X0.182233X0.111428X0.064031X0.203777X0*%
%ADD71RoundRect,0.030000X-0.175010X0.209276X-0.272627X-0.009975X0.175010X-0.209276X0.272627X0.009975X0*%
%ADD72RoundRect,0.075000X0.152204X-0.149863X0.213214X-0.012831X-0.152204X0.149863X-0.213214X0.012831X0*%
%ADD73RoundRect,0.030000X-0.264815X-0.065558X-0.110546X-0.249408X0.264815X0.065558X0.110546X0.249408X0*%
%ADD74RoundRect,0.075000X0.201418X0.071104X0.105000X0.186011X-0.201418X-0.071104X-0.105000X-0.186011X0*%
%ADD75RoundRect,0.030000X0.225915X-0.152930X0.259316X0.084735X-0.225915X0.152930X-0.259316X-0.084735X0*%
%ADD76RoundRect,0.075000X-0.187616X0.102105X-0.208492X-0.046435X0.187616X-0.102105X0.208492X0.046435X0*%
%ADD77RoundRect,0.030000X-0.203041X-0.182207X0.019483X-0.272113X0.203041X0.182207X-0.019483X0.272113X0*%
%ADD78RoundRect,0.075000X0.144460X0.157341X0.005383X0.213532X-0.144460X-0.157341X-0.005383X-0.213532X0*%
%ADD79RoundRect,0.030000X-0.226423X-0.152176X-0.018577X-0.272176X0.226423X0.152176X0.018577X0.272176X0*%
%ADD80RoundRect,0.075000X0.164952X0.135705X0.035048X0.210705X-0.164952X-0.135705X-0.035048X-0.210705X0*%
%ADD81RoundRect,0.030000X0.268743X0.046925X0.127675X0.241089X-0.268743X-0.046925X-0.127675X-0.241089X0*%
%ADD82RoundRect,0.075000X-0.205887X-0.056881X-0.117720X-0.178233X0.205887X0.056881X0.117720X0.178233X0*%
%ADD83RoundRect,0.030000X0.272627X-0.009975X0.175010X0.209276X-0.272627X0.009975X-0.175010X-0.209276X0*%
%ADD84RoundRect,0.075000X-0.213214X-0.012831X-0.152204X-0.149863X0.213214X0.012831X0.152204X0.149863X0*%
%ADD85RoundRect,0.030000X-0.268743X-0.046925X-0.127675X-0.241089X0.268743X0.046925X0.127675X0.241089X0*%
%ADD86RoundRect,0.075000X0.205887X0.056881X0.117720X0.178233X-0.205887X-0.056881X-0.117720X-0.178233X0*%
%ADD87RoundRect,0.150000X-0.150000X-0.150000X0.150000X-0.150000X0.150000X0.150000X-0.150000X0.150000X0*%
%ADD88RoundRect,0.030000X-0.037518X0.270217X-0.236487X0.136011X0.037518X-0.270217X0.236487X-0.136011X0*%
%ADD89RoundRect,0.075000X0.049661X-0.207747X0.174016X-0.123868X-0.049661X0.207747X-0.174016X0.123868X0*%
%ADD90RoundRect,0.030000X0.253114X0.101775X0.074760X0.262366X-0.253114X-0.101775X-0.074760X-0.262366X0*%
%ADD91RoundRect,0.075000X-0.189562X-0.098444X-0.078090X-0.198814X0.189562X0.098444X0.078090X0.198814X0*%
%ADD92RoundRect,0.030000X0.038418X0.270091X-0.189836X0.195927X-0.038418X-0.270091X0.189836X-0.195927X0*%
%ADD93RoundRect,0.075000X-0.009526X-0.213388X0.133133X-0.167035X0.009526X0.213388X-0.133133X0.167035X0*%
%ADD94RoundRect,0.030000X-0.214697X0.168316X-0.264596X-0.066439X0.214697X-0.168316X0.264596X0.066439X0*%
%ADD95RoundRect,0.075000X0.180036X-0.114943X0.211223X0.031779X-0.180036X0.114943X-0.211223X-0.031779X0*%
%ADD96RoundRect,0.030000X0.160721X0.220440X-0.075633X0.262116X-0.160721X-0.220440X0.075633X-0.262116X0*%
%ADD97RoundRect,0.075000X-0.108590X-0.183938X0.039131X-0.209985X0.108590X0.183938X-0.039131X0.209985X0*%
%ADD98RoundRect,0.030000X-0.272627X0.009975X-0.175010X-0.209276X0.272627X-0.009975X0.175010X0.209276X0*%
%ADD99RoundRect,0.075000X0.213214X0.012831X0.152204X0.149863X-0.213214X-0.012831X-0.152204X-0.149863X0*%
%ADD100RoundRect,0.030000X-0.215256X-0.167600X0.000454X-0.272809X0.215256X0.167600X-0.000454X0.272809X0*%
%ADD101RoundRect,0.075000X0.155084X0.146881X0.020265X0.212637X-0.155084X-0.146881X-0.020265X-0.212637X0*%
%ADD102RoundRect,0.030000X-0.268586X0.047820X-0.202433X-0.182883X0.268586X-0.047820X0.202433X0.182883X0*%
%ADD103RoundRect,0.075000X0.212925X-0.016967X0.171580X0.127222X-0.212925X0.016967X-0.171580X-0.127222X0*%
%ADD104RoundRect,0.030000X-0.092879X0.256512X-0.259597X0.083871X0.092879X-0.256512X0.259597X-0.083871X0*%
%ADD105RoundRect,0.075000X0.091769X-0.192882X0.195967X-0.084981X-0.091769X0.192882X-0.195967X0.084981X0*%
%ADD106RoundRect,0.030000X-0.128477X-0.240663X0.111377X-0.249039X0.128477X0.240663X-0.111377X0.249039X0*%
%ADD107RoundRect,0.075000X0.081934X0.197261X-0.067974X0.202496X-0.081934X-0.197261X0.067974X-0.202496X0*%
%ADD108RoundRect,0.030000X0.019483X0.272113X-0.203041X0.182207X-0.019483X-0.272113X0.203041X-0.182207X0*%
%ADD109RoundRect,0.075000X0.005383X-0.213532X0.144460X-0.157341X-0.005383X0.213532X-0.144460X0.157341X0*%
%ADD110RoundRect,0.030000X0.236487X0.136011X0.037518X0.270217X-0.236487X-0.136011X-0.037518X-0.270217X0*%
%ADD111RoundRect,0.075000X-0.174016X-0.123868X-0.049661X-0.207747X0.174016X0.123868X0.049661X0.207747X0*%
%ADD112RoundRect,0.030000X-0.253114X-0.101775X-0.074760X-0.262366X0.253114X0.101775X0.074760X0.262366X0*%
%ADD113RoundRect,0.075000X0.189562X0.098444X0.078090X0.198814X-0.189562X-0.098444X-0.078090X-0.198814X0*%
%ADD114RoundRect,0.030000X-0.019483X-0.272113X0.203041X-0.182207X0.019483X0.272113X-0.203041X0.182207X0*%
%ADD115RoundRect,0.075000X-0.005383X0.213532X-0.144460X0.157341X0.005383X-0.213532X0.144460X-0.157341X0*%
%ADD116RoundRect,0.030000X-0.245398X-0.119183X-0.056276X-0.266942X0.245398X0.119183X0.056276X0.266942X0*%
%ADD117RoundRect,0.075000X0.182233X0.111428X0.064031X0.203777X-0.182233X-0.111428X-0.064031X-0.203777X0*%
%ADD118RoundRect,0.030000X-0.245000X0.120000X-0.245000X-0.120000X0.245000X-0.120000X0.245000X0.120000X0*%
%ADD119RoundRect,0.075000X0.200000X-0.075000X0.200000X0.075000X-0.200000X0.075000X-0.200000X-0.075000X0*%
%ADD120RoundRect,0.030000X-0.259316X0.084735X-0.225915X-0.152930X0.259316X-0.084735X0.225915X0.152930X0*%
%ADD121RoundRect,0.075000X0.208492X-0.046435X0.187616X0.102105X-0.208492X0.046435X-0.187616X-0.102105X0*%
%ADD122RoundRect,0.030000X-0.144952X-0.231114X0.093733X-0.256201X0.144952X0.231114X-0.093733X0.256201X0*%
%ADD123RoundRect,0.075000X0.095495X0.191065X-0.053683X0.206744X-0.095495X-0.191065X0.053683X-0.206744X0*%
%ADD124RoundRect,0.030000X0.245000X-0.120000X0.245000X0.120000X-0.245000X0.120000X-0.245000X-0.120000X0*%
%ADD125RoundRect,0.075000X-0.200000X0.075000X-0.200000X-0.075000X0.200000X-0.075000X0.200000X0.075000X0*%
%ADD126RoundRect,0.030000X0.127675X-0.241089X0.268743X-0.046925X-0.127675X0.241089X-0.268743X0.046925X0*%
%ADD127RoundRect,0.075000X-0.117720X0.178233X-0.205887X0.056881X0.117720X-0.178233X0.205887X-0.056881X0*%
%ADD128RoundRect,0.030000X0.203041X0.182207X-0.019483X0.272113X-0.203041X-0.182207X0.019483X-0.272113X0*%
%ADD129RoundRect,0.075000X-0.144460X-0.157341X-0.005383X-0.213532X0.144460X0.157341X0.005383X0.213532X0*%
%ADD130RoundRect,0.030000X-0.056276X0.266942X-0.245398X0.119183X0.056276X-0.266942X0.245398X-0.119183X0*%
%ADD131RoundRect,0.075000X0.064031X-0.203777X0.182233X-0.111428X-0.064031X0.203777X-0.182233X0.111428X0*%
%ADD132RoundRect,0.030000X-0.189182X0.196558X-0.271267X-0.028968X0.189182X-0.196558X0.271267X0.028968X0*%
%ADD133RoundRect,0.075000X0.162287X-0.138881X0.213590X0.002073X-0.162287X0.138881X-0.213590X-0.002073X0*%
%ADD134C,0.990600*%
%ADD135C,0.787400*%
%ADD136RoundRect,0.030000X-0.159986X0.220974X-0.272659X0.009067X0.159986X-0.220974X0.272659X-0.009067X0*%
%ADD137RoundRect,0.075000X0.141379X-0.160115X0.211800X-0.027673X-0.141379X0.160115X-0.211800X0.027673X0*%
%ADD138RoundRect,0.030000X0.272659X0.009067X0.159986X0.220974X-0.272659X-0.009067X-0.159986X-0.220974X0*%
%ADD139RoundRect,0.075000X-0.211800X-0.027673X-0.141379X-0.160115X0.211800X0.027673X0.141379X0.160115X0*%
%ADD140RoundRect,0.030000X0.189182X-0.196558X0.271267X0.028968X-0.189182X0.196558X-0.271267X-0.028968X0*%
%ADD141RoundRect,0.075000X-0.162287X0.138881X-0.213590X-0.002073X0.162287X-0.138881X0.213590X0.002073X0*%
%ADD142FreePoly0,0.000000*%
%ADD143FreePoly1,0.000000*%
%ADD144FreePoly2,0.000000*%
%ADD145FreePoly0,90.000000*%
%ADD146FreePoly1,90.000000*%
%ADD147FreePoly2,90.000000*%
%ADD148FreePoly0,180.000000*%
%ADD149FreePoly1,180.000000*%
%ADD150FreePoly2,180.000000*%
%ADD151FreePoly0,270.000000*%
%ADD152FreePoly1,270.000000*%
%ADD153FreePoly2,270.000000*%
%ADD154RoundRect,0.030000X-0.057165X-0.266753X0.175706X-0.208692X0.057165X0.266753X-0.175706X0.208692X0*%
%ADD155RoundRect,0.075000X0.024388X0.212203X-0.121157X0.175915X-0.024388X-0.212203X0.121157X-0.175915X0*%
%ADD156RoundRect,0.030000X-0.189836X-0.195927X0.038418X-0.270091X0.189836X0.195927X-0.038418X0.270091X0*%
%ADD157RoundRect,0.075000X0.133133X0.167035X-0.009526X0.213388X-0.133133X-0.167035X0.009526X-0.213388X0*%
%ADD158RoundRect,0.030000X0.144181X-0.231596X0.271362X-0.028064X-0.144181X0.231596X-0.271362X0.028064X0*%
%ADD159RoundRect,0.075000X-0.129866X0.169587X-0.209354X0.042380X0.129866X-0.169587X0.209354X-0.042380X0*%
%ADD160RoundRect,0.030000X-0.271362X-0.028064X-0.144181X-0.231596X0.271362X0.028064X0.144181X0.231596X0*%
%ADD161RoundRect,0.075000X0.209354X0.042380X0.129866X0.169587X-0.209354X-0.042380X-0.129866X-0.169587X0*%
%ADD162RoundRect,0.030000X-0.127675X0.241089X-0.268743X0.046925X0.127675X-0.241089X0.268743X-0.046925X0*%
%ADD163RoundRect,0.075000X0.117720X-0.178233X0.205887X-0.056881X-0.117720X0.178233X-0.205887X0.056881X0*%
%ADD164RoundRect,0.150000X-0.150000X0.150000X-0.150000X-0.150000X0.150000X-0.150000X0.150000X0.150000X0*%
%ADD165RoundRect,0.030000X0.159986X-0.220974X0.272659X-0.009067X-0.159986X0.220974X-0.272659X0.009067X0*%
%ADD166RoundRect,0.075000X-0.141379X0.160115X-0.211800X0.027673X0.141379X-0.160115X0.211800X-0.027673X0*%
%ADD167RoundRect,0.030000X0.264815X0.065558X0.110546X0.249408X-0.264815X-0.065558X-0.110546X-0.249408X0*%
%ADD168RoundRect,0.075000X-0.201418X-0.071104X-0.105000X-0.186011X0.201418X0.071104X0.105000X0.186011X0*%
%ADD169RoundRect,0.030000X-0.252774X0.102617X-0.236032X-0.136798X0.252774X-0.102617X0.236032X0.136798X0*%
%ADD170RoundRect,0.075000X0.204745X-0.060866X0.194281X0.088769X-0.204745X0.060866X-0.194281X-0.088769X0*%
%ADD171R,0.700000X0.280010*%
%ADD172R,0.280010X0.700000*%
%ADD173RoundRect,0.030000X-0.074760X0.262366X-0.253114X0.101775X0.074760X-0.262366X0.253114X-0.101775X0*%
%ADD174RoundRect,0.075000X0.078090X-0.198814X0.189562X-0.098444X-0.078090X0.198814X-0.189562X0.098444X0*%
%ADD175RoundRect,0.030000X0.271362X0.028064X0.144181X0.231596X-0.271362X-0.028064X-0.144181X-0.231596X0*%
%ADD176RoundRect,0.075000X-0.209354X-0.042380X-0.129866X-0.169587X0.209354X0.042380X0.129866X0.169587X0*%
%ADD177RoundRect,0.030000X0.057165X0.266753X-0.175706X0.208692X-0.057165X-0.266753X0.175706X-0.208692X0*%
%ADD178RoundRect,0.075000X-0.024388X-0.212203X0.121157X-0.175915X0.024388X0.212203X-0.121157X0.175915X0*%
%ADD179RoundRect,0.030000X0.236032X-0.136798X0.252774X0.102617X-0.236032X0.136798X-0.252774X-0.102617X0*%
%ADD180RoundRect,0.075000X-0.194281X0.088769X-0.204745X-0.060866X0.194281X-0.088769X0.204745X0.060866X0*%
%ADD181RoundRect,0.030000X-0.236487X-0.136011X-0.037518X-0.270217X0.236487X0.136011X0.037518X0.270217X0*%
%ADD182RoundRect,0.075000X0.174016X0.123868X0.049661X0.207747X-0.174016X-0.123868X-0.049661X-0.207747X0*%
%ADD183RoundRect,0.030000X-0.272659X-0.009067X-0.159986X-0.220974X0.272659X0.009067X0.159986X0.220974X0*%
%ADD184RoundRect,0.075000X0.211800X0.027673X0.141379X0.160115X-0.211800X-0.027673X-0.141379X-0.160115X0*%
%ADD185RoundRect,0.030000X0.128477X0.240663X-0.111377X0.249039X-0.128477X-0.240663X0.111377X-0.249039X0*%
%ADD186RoundRect,0.075000X-0.081934X-0.197261X0.067974X-0.202496X0.081934X0.197261X-0.067974X0.202496X0*%
%ADD187RoundRect,0.030000X0.092879X-0.256512X0.259597X-0.083871X-0.092879X0.256512X-0.259597X0.083871X0*%
%ADD188RoundRect,0.075000X-0.091769X0.192882X-0.195967X0.084981X0.091769X-0.192882X0.195967X-0.084981X0*%
%ADD189RoundRect,0.030000X0.189836X0.195927X-0.038418X0.270091X-0.189836X-0.195927X0.038418X-0.270091X0*%
%ADD190RoundRect,0.075000X-0.133133X-0.167035X0.009526X-0.213388X0.133133X0.167035X-0.009526X0.213388X0*%
%ADD191RoundRect,0.030000X-0.271267X0.028968X-0.189182X-0.196558X0.271267X-0.028968X0.189182X0.196558X0*%
%ADD192RoundRect,0.075000X0.213590X-0.002073X0.162287X0.138881X-0.213590X0.002073X-0.162287X-0.138881X0*%
%ADD193RoundRect,0.030000X0.259316X-0.084735X0.225915X0.152930X-0.259316X0.084735X-0.225915X-0.152930X0*%
%ADD194RoundRect,0.075000X-0.208492X0.046435X-0.187616X-0.102105X0.208492X-0.046435X0.187616X0.102105X0*%
%ADD195RoundRect,0.150000X0.150000X-0.150000X0.150000X0.150000X-0.150000X0.150000X-0.150000X-0.150000X0*%
%ADD196RoundRect,0.030000X0.259597X0.083871X0.092879X0.256512X-0.259597X-0.083871X-0.092879X-0.256512X0*%
%ADD197RoundRect,0.075000X-0.195967X-0.084981X-0.091769X-0.192882X0.195967X0.084981X0.091769X0.192882X0*%
%ADD198RoundRect,0.030000X0.226423X0.152176X0.018577X0.272176X-0.226423X-0.152176X-0.018577X-0.272176X0*%
%ADD199RoundRect,0.075000X-0.164952X-0.135705X-0.035048X-0.210705X0.164952X0.135705X0.035048X0.210705X0*%
%ADD200RoundRect,0.030000X0.111377X0.249039X-0.128477X0.240663X-0.111377X-0.249039X0.128477X-0.240663X0*%
%ADD201RoundRect,0.075000X-0.067974X-0.202496X0.081934X-0.197261X0.067974X0.202496X-0.081934X0.197261X0*%
%ADD202RoundRect,0.030000X0.000454X0.272809X-0.215256X0.167600X-0.000454X-0.272809X0.215256X-0.167600X0*%
%ADD203RoundRect,0.075000X0.020265X-0.212637X0.155084X-0.146881X-0.020265X0.212637X-0.155084X0.146881X0*%
%ADD204RoundRect,0.030000X0.175706X0.208692X-0.057165X0.266753X-0.175706X-0.208692X0.057165X-0.266753X0*%
%ADD205RoundRect,0.075000X-0.121157X-0.175915X0.024388X-0.212203X0.121157X0.175915X-0.024388X0.212203X0*%
%ADD206RoundRect,0.030000X-0.264596X0.066439X-0.214697X-0.168316X0.264596X-0.066439X0.214697X0.168316X0*%
%ADD207RoundRect,0.075000X0.211223X-0.031779X0.180036X0.114943X-0.211223X0.031779X-0.180036X-0.114943X0*%
%ADD208RoundRect,0.150000X0.150000X0.150000X-0.150000X0.150000X-0.150000X-0.150000X0.150000X-0.150000X0*%
%ADD209RoundRect,0.030000X-0.111377X-0.249039X0.128477X-0.240663X0.111377X0.249039X-0.128477X0.240663X0*%
%ADD210RoundRect,0.075000X0.067974X0.202496X-0.081934X0.197261X-0.067974X-0.202496X0.081934X-0.197261X0*%
%ADD211RoundRect,0.030000X-0.110546X0.249408X-0.264815X0.065558X0.110546X-0.249408X0.264815X-0.065558X0*%
%ADD212RoundRect,0.075000X0.105000X-0.186011X0.201418X-0.071104X-0.105000X0.186011X-0.201418X0.071104X0*%
G04 APERTURE END LIST*
D10*
X9751881Y4756344D02*
X9933845Y5067614D01*
X9794615Y4554667D02*
X9619267Y4914185D01*
X10021519Y4887856D02*
X10066459Y4909774D01*
X10109193Y4708097D02*
X9751881Y4756344D01*
X10109193Y4708097D02*
X9933845Y5067614D01*
X-11109784Y-966575D02*
X-11067973Y-1364384D01*
X-11109784Y-966575D02*
X-10790522Y-1134121D01*
X-11088878Y-1165479D02*
X-11138604Y-1170706D01*
X-10790522Y-1134121D02*
X-11067973Y-1364384D01*
X-10761701Y-929990D02*
X-10719890Y-1327799D01*
X-2318187Y10906322D02*
X-2328582Y10955230D01*
X-2255813Y10612878D02*
X-2513816Y10864740D01*
X-2122557Y10947904D02*
X-2513816Y10864740D01*
X-2122557Y10947904D02*
X-2255813Y10612878D01*
X-2049788Y10605553D02*
X-2441047Y10522388D01*
X7358400Y-7907764D02*
X7646136Y-7629900D01*
X7537001Y-7804799D02*
X7889267Y-7881669D01*
X7601531Y-8159533D02*
X7537001Y-7804799D01*
X7601531Y-8159533D02*
X7889267Y-7881669D01*
X7745399Y-8020601D02*
X7780132Y-8056568D01*
X-9756204Y-5401795D02*
X-9556204Y-5748205D01*
X-9756204Y-5401795D02*
X-9396396Y-5425000D01*
X-9656204Y-5575000D02*
X-9699505Y-5600000D01*
X-9453095Y-5226795D02*
X-9253095Y-5573205D01*
X-9396396Y-5425000D02*
X-9556204Y-5748205D01*
X2255813Y10612878D02*
X2122557Y10947904D01*
X2318187Y10906322D02*
X2328582Y10955230D01*
X2441047Y10522388D02*
X2049788Y10605553D01*
X2513816Y10864740D02*
X2122557Y10947904D01*
X2513816Y10864740D02*
X2255813Y10612878D01*
X10601209Y-2072332D02*
X10670668Y-1678409D01*
X10685179Y-1884053D02*
X11015351Y-1739186D01*
X10945893Y-2133109D02*
X10685179Y-1884053D01*
X10945893Y-2133109D02*
X11015351Y-1739186D01*
X10980621Y-1936147D02*
X11029863Y-1944830D01*
X-11088878Y1165479D02*
X-11138604Y1170706D01*
X-11067973Y1364384D02*
X-11109784Y966575D01*
X-11067973Y1364384D02*
X-10790522Y1134121D01*
X-10790522Y1134121D02*
X-11109784Y966575D01*
X-10719890Y1327799D02*
X-10761701Y929990D01*
X-777763Y11122835D02*
X-781251Y11172713D01*
X-756837Y10823565D02*
X-977276Y11108883D01*
X-578251Y11136786D02*
X-977276Y11108883D01*
X-578251Y11136786D02*
X-756837Y10823565D01*
X-553836Y10787638D02*
X-952862Y10759736D01*
X-6078198Y-9349723D02*
X-5749612Y-9201293D01*
X-6078198Y-9349723D02*
X-5738978Y-9561691D01*
X-5908588Y-9455707D02*
X-5935084Y-9498110D01*
X-5892726Y-9052907D02*
X-5553507Y-9264874D01*
X-5749612Y-9201293D02*
X-5738978Y-9561691D01*
X-977276Y-11108883D02*
X-756837Y-10823565D01*
X-977276Y-11108883D02*
X-578251Y-11136786D01*
X-952862Y-10759736D02*
X-553836Y-10787638D01*
X-777763Y-11122835D02*
X-781251Y-11172713D01*
X-756837Y-10823565D02*
X-578251Y-11136786D01*
X9396396Y5425000D02*
X9556204Y5748205D01*
X9453095Y5226795D02*
X9253095Y5573205D01*
X9656204Y5575000D02*
X9699505Y5600000D01*
X9756204Y5401795D02*
X9396396Y5425000D01*
X9756204Y5401795D02*
X9556204Y5748205D01*
X-3073346Y10718089D02*
X-3087127Y10766152D01*
X-2990654Y10429711D02*
X-3265598Y10662962D01*
X-2881093Y10773217D02*
X-3265598Y10662962D01*
X-2881093Y10773217D02*
X-2990654Y10429711D01*
X-2784620Y10436775D02*
X-3169125Y10326520D01*
X-3813503Y10477554D02*
X-3830604Y10524539D01*
X-3710897Y10195646D02*
X-4001442Y10409150D01*
X-3625564Y10545958D02*
X-4001442Y10409150D01*
X-3625564Y10545958D02*
X-3710897Y10195646D01*
X-3505857Y10217066D02*
X-3881734Y10080257D01*
X8995044Y6067221D02*
X9131917Y6400786D01*
X9065431Y5873454D02*
X8841754Y6205069D01*
X9243756Y6234979D02*
X9285208Y6262939D01*
X9355594Y6069171D02*
X8995044Y6067221D01*
X9355594Y6069171D02*
X9131917Y6400786D01*
X4413090Y9911968D02*
X4352401Y10267379D01*
X4535110Y10186032D02*
X4555447Y10231709D01*
X4575462Y9784944D02*
X4210044Y9947638D01*
X4717821Y10104684D02*
X4352401Y10267379D01*
X4717821Y10104684D02*
X4413090Y9911968D01*
X10670668Y1678409D02*
X10601209Y2072332D01*
X10685179Y1884053D02*
X10945893Y2133109D01*
X10980621Y1936147D02*
X11029863Y1944830D01*
X11015351Y1739186D02*
X10685179Y1884053D01*
X11015351Y1739186D02*
X10945893Y2133109D01*
X8549898Y6679951D02*
X8663169Y7022251D01*
X8633630Y6491566D02*
X8387366Y6806770D01*
X8786302Y6864649D02*
X8825702Y6895432D01*
X8909434Y6707047D02*
X8549898Y6679951D01*
X8909434Y6707047D02*
X8663169Y7022251D01*
X6974282Y8311593D02*
X7013909Y8669964D01*
X7095351Y8144734D02*
X6788934Y8401849D01*
X7167118Y8541407D02*
X7199258Y8579709D01*
X7320327Y8412849D02*
X6974282Y8311593D01*
X7320327Y8412849D02*
X7013909Y8669964D01*
X8063128Y7260030D02*
X8152246Y7609399D01*
X8159797Y7077945D02*
X7892145Y7375203D01*
X8286072Y7460770D02*
X8323229Y7494226D01*
X8419898Y7312141D02*
X8063128Y7260030D01*
X8419898Y7312141D02*
X8152246Y7609399D01*
X10430856Y-2806775D02*
X10527625Y-2418656D01*
X10527756Y-2624812D02*
X10867229Y-2503329D01*
X10770460Y-2891447D02*
X10527756Y-2624812D01*
X10770460Y-2891447D02*
X10867229Y-2503329D01*
X10818844Y-2697388D02*
X10867359Y-2709484D01*
X-3265598Y-10662962D02*
X-2990654Y-10429711D01*
X-3265598Y-10662962D02*
X-2881093Y-10773217D01*
X-3169125Y-10326520D02*
X-2784620Y-10436775D01*
X-3073346Y-10718089D02*
X-3087127Y-10766152D01*
X-2990654Y-10429711D02*
X-2881093Y-10773217D01*
X-10021519Y4887856D02*
X-10066459Y4909774D01*
X-9933845Y5067614D02*
X-10109193Y4708097D01*
X-9933845Y5067614D02*
X-9751881Y4756344D01*
X-9751881Y4756344D02*
X-10109193Y4708097D01*
X-9619267Y4914185D02*
X-9794615Y4554667D01*
X-1749830Y-11013606D02*
X-1510024Y-10744360D01*
X-1749830Y-11013606D02*
X-1353722Y-11069275D01*
X-1701119Y-10667012D02*
X-1305012Y-10722681D01*
X-1551776Y-11041440D02*
X-1558735Y-11090954D01*
X-1510024Y-10744360D02*
X-1353722Y-11069275D01*
X10761701Y929990D02*
X10719890Y1327799D01*
X10790522Y1134121D02*
X11067973Y1364384D01*
X11088878Y1165479D02*
X11138604Y1170706D01*
X11109784Y966575D02*
X10790522Y1134121D01*
X11109784Y966575D02*
X11067973Y1364384D01*
X10318942Y3352846D02*
X10542455Y3635764D01*
X10333192Y3147185D02*
X10209585Y3527608D01*
X10604258Y3445554D02*
X10651811Y3461003D01*
X10666062Y3255341D02*
X10318942Y3352846D01*
X10666062Y3255341D02*
X10542455Y3635764D01*
X-11015351Y-1739186D02*
X-10945893Y-2133109D01*
X-11015351Y-1739186D02*
X-10685179Y-1884053D01*
X-10980621Y-1936147D02*
X-11029863Y-1944830D01*
X-10685179Y-1884053D02*
X-10945893Y-2133109D01*
X-10670668Y-1678409D02*
X-10601209Y-2072332D01*
X2990654Y10429711D02*
X2881093Y10773217D01*
X3073346Y10718089D02*
X3087127Y10766152D01*
X3169125Y10326520D02*
X2784620Y10436775D01*
X3265598Y10662962D02*
X2881093Y10773217D01*
X3265598Y10662962D02*
X2990654Y10429711D01*
X-8786302Y6864649D02*
X-8825702Y6895432D01*
X-8663169Y7022251D02*
X-8909434Y6707047D01*
X-8663169Y7022251D02*
X-8549898Y6679951D01*
X-8549898Y6679951D02*
X-8909434Y6707047D01*
X-8387366Y6806770D02*
X-8633630Y6491566D01*
X-4717821Y-10104684D02*
X-4413090Y-9911968D01*
X-4717821Y-10104684D02*
X-4352401Y-10267379D01*
X-4575462Y-9784944D02*
X-4210044Y-9947638D01*
X-4535110Y-10186032D02*
X-4555447Y-10231709D01*
X-4413090Y-9911968D02*
X-4352401Y-10267379D01*
X6788934Y-8401849D02*
X7095351Y-8144734D01*
X6974282Y-8311593D02*
X7320327Y-8412849D01*
X7013909Y-8669964D02*
X6974282Y-8311593D01*
X7013909Y-8669964D02*
X7320327Y-8412849D01*
X7167118Y-8541407D02*
X7199258Y-8579709D01*
X1510024Y10744360D02*
X1353722Y11069275D01*
X1551776Y11041440D02*
X1558735Y11090954D01*
X1701119Y10667012D02*
X1305012Y10722681D01*
X1749830Y11013606D02*
X1353722Y11069275D01*
X1749830Y11013606D02*
X1510024Y10744360D01*
X9938642Y-4231215D02*
X10088485Y-3860342D01*
X10059922Y-4064509D02*
X10412999Y-3991454D01*
X10263156Y-4362328D02*
X10059922Y-4064509D01*
X10263156Y-4362328D02*
X10412999Y-3991454D01*
X10338078Y-4176891D02*
X10384437Y-4195621D01*
X9253095Y-5573205D02*
X9453095Y-5226795D01*
X9396396Y-5425000D02*
X9756204Y-5401795D01*
X9556204Y-5748205D02*
X9396396Y-5425000D01*
X9556204Y-5748205D02*
X9756204Y-5401795D01*
X9656204Y-5575000D02*
X9699505Y-5600000D01*
X-6553768Y9020553D02*
X-6583157Y9061003D01*
X-6391964Y9138110D02*
X-6715571Y8902995D01*
X-6391964Y9138110D02*
X-6377432Y8777847D01*
X-6377432Y8777847D02*
X-6715571Y8902995D01*
X-6186240Y8854954D02*
X-6509846Y8619840D01*
X-4535110Y10186032D02*
X-4555447Y10231709D01*
X-4413090Y9911968D02*
X-4717821Y10104684D01*
X-4352401Y10267379D02*
X-4717821Y10104684D01*
X-4352401Y10267379D02*
X-4413090Y9911968D01*
X-4210044Y9947638D02*
X-4575462Y9784944D01*
X6186240Y-8854954D02*
X6509846Y-8619840D01*
X6377432Y-8777847D02*
X6715571Y-8902995D01*
X6391964Y-9138110D02*
X6377432Y-8777847D01*
X6391964Y-9138110D02*
X6715571Y-8902995D01*
X6553768Y-9020553D02*
X6583157Y-9061003D01*
X-9355594Y-6069171D02*
X-9131917Y-6400786D01*
X-9355594Y-6069171D02*
X-8995044Y-6067221D01*
X-9243756Y-6234979D02*
X-9285208Y-6262939D01*
X-9065431Y-5873454D02*
X-8841754Y-6205069D01*
X-8995044Y-6067221D02*
X-9131917Y-6400786D01*
X-8286072Y7460770D02*
X-8323229Y7494226D01*
X-8152246Y7609399D02*
X-8419898Y7312141D01*
X-8152246Y7609399D02*
X-8063128Y7260030D01*
X-8063128Y7260030D02*
X-8419898Y7312141D01*
X-7892145Y7375203D02*
X-8159797Y7077945D01*
X-10666062Y-3255341D02*
X-10542455Y-3635764D01*
X-10666062Y-3255341D02*
X-10318942Y-3352846D01*
X-10604258Y-3445554D02*
X-10651811Y-3461003D01*
X-10333192Y-3147185D02*
X-10209585Y-3527608D01*
X-10318942Y-3352846D02*
X-10542455Y-3635764D01*
X-2513816Y-10864740D02*
X-2255813Y-10612878D01*
X-2513816Y-10864740D02*
X-2122557Y-10947904D01*
X-2441047Y-10522388D02*
X-2049788Y-10605553D01*
X-2318187Y-10906322D02*
X-2328582Y-10955230D01*
X-2255813Y-10612878D02*
X-2122557Y-10947904D01*
X-10980621Y1936147D02*
X-11029863Y1944830D01*
X-10945893Y2133109D02*
X-11015351Y1739186D01*
X-10945893Y2133109D02*
X-10685179Y1884053D01*
X-10685179Y1884053D02*
X-11015351Y1739186D01*
X-10601209Y2072332D02*
X-10670668Y1678409D01*
X4210044Y-9947638D02*
X4575462Y-9784944D01*
X4352401Y-10267379D02*
X4413090Y-9911968D01*
X4352401Y-10267379D02*
X4717821Y-10104684D01*
X4413090Y-9911968D02*
X4717821Y-10104684D01*
X4535110Y-10186032D02*
X4555447Y-10231709D01*
X9619267Y-4914185D02*
X9794615Y-4554667D01*
X9751881Y-4756344D02*
X10109193Y-4708097D01*
X9933845Y-5067614D02*
X9751881Y-4756344D01*
X9933845Y-5067614D02*
X10109193Y-4708097D01*
X10021519Y-4887856D02*
X10066459Y-4909774D01*
X2784620Y-10436775D02*
X3169125Y-10326520D01*
X2881093Y-10773217D02*
X2990654Y-10429711D01*
X2881093Y-10773217D02*
X3265598Y-10662962D01*
X2990654Y-10429711D02*
X3265598Y-10662962D01*
X3073346Y-10718089D02*
X3087127Y-10766152D01*
X-7889267Y-7881669D02*
X-7601531Y-8159533D01*
X-7889267Y-7881669D02*
X-7537001Y-7804799D01*
X-7745399Y-8020601D02*
X-7780132Y-8056568D01*
X-7646136Y-7629900D02*
X-7358400Y-7907764D01*
X-7537001Y-7804799D02*
X-7601531Y-8159533D01*
X10786442Y-576798D02*
X10800402Y-177042D01*
X10843391Y-378665D02*
X11150189Y-189257D01*
X11136229Y-589013D02*
X10843391Y-378665D01*
X11136229Y-589013D02*
X11150189Y-189257D01*
X11143209Y-389135D02*
X11193178Y-390880D01*
X-10412999Y-3991454D02*
X-10263156Y-4362328D01*
X-10412999Y-3991454D02*
X-10059922Y-4064509D01*
X-10338078Y-4176891D02*
X-10384437Y-4195621D01*
X-10088485Y-3860342D02*
X-9938642Y-4231215D01*
X-10059922Y-4064509D02*
X-10263156Y-4362328D01*
X-9243756Y6234979D02*
X-9285208Y6262939D01*
X-9131917Y6400786D02*
X-9355594Y6069171D01*
X-9131917Y6400786D02*
X-8995044Y6067221D01*
X-8995044Y6067221D02*
X-9355594Y6069171D01*
X-8841754Y6205069D02*
X-9065431Y5873454D01*
X7892145Y-7375203D02*
X8159797Y-7077945D01*
X8063128Y-7260030D02*
X8419898Y-7312141D01*
X8152246Y-7609399D02*
X8063128Y-7260030D01*
X8152246Y-7609399D02*
X8419898Y-7312141D01*
X8286072Y-7460770D02*
X8323229Y-7494226D01*
X10059922Y4064509D02*
X10263156Y4362328D01*
X10088485Y3860342D02*
X9938642Y4231215D01*
X10338078Y4176891D02*
X10384437Y4195621D01*
X10412999Y3991454D02*
X10059922Y4064509D01*
X10412999Y3991454D02*
X10263156Y4362328D01*
X8387366Y-6806770D02*
X8633630Y-6491566D01*
X8549898Y-6679951D02*
X8909434Y-6707047D01*
X8663169Y-7022251D02*
X8549898Y-6679951D01*
X8663169Y-7022251D02*
X8909434Y-6707047D01*
X8786302Y-6864649D02*
X8825702Y-6895432D01*
X-200000Y-10800000D02*
X200000Y-10800000D01*
X-200000Y-11150000D02*
X0Y-10850000D01*
X-200000Y-11150000D02*
X200000Y-11150000D01*
X0Y-10850000D02*
X200000Y-11150000D01*
X0Y-11150000D02*
X0Y-11200000D01*
X1305012Y-10722681D02*
X1701119Y-10667012D01*
X1353722Y-11069275D02*
X1510024Y-10744360D01*
X1353722Y-11069275D02*
X1749830Y-11013606D01*
X1510024Y-10744360D02*
X1749830Y-11013606D01*
X1551776Y-11041440D02*
X1558735Y-11090954D01*
X10719890Y-1327799D02*
X10761701Y-929990D01*
X10790522Y-1134121D02*
X11109784Y-966575D01*
X11067973Y-1364384D02*
X10790522Y-1134121D01*
X11067973Y-1364384D02*
X11109784Y-966575D01*
X11088878Y-1165479D02*
X11138604Y-1170706D01*
X0Y11150000D02*
X0Y11200000D01*
X0Y10850000D02*
X-200000Y11150000D01*
X200000Y11150000D02*
X-200000Y11150000D01*
X200000Y11150000D02*
X0Y10850000D01*
X200000Y10800000D02*
X-200000Y10800000D01*
X6377432Y8777847D02*
X6391964Y9138110D01*
X6509846Y8619840D02*
X6186240Y8854954D01*
X6553768Y9020553D02*
X6583157Y9061003D01*
X6715571Y8902995D02*
X6377432Y8777847D01*
X6715571Y8902995D02*
X6391964Y9138110D01*
X-10338078Y4176891D02*
X-10384437Y4195621D01*
X-10263156Y4362328D02*
X-10412999Y3991454D01*
X-10263156Y4362328D02*
X-10059922Y4064509D01*
X-10059922Y4064509D02*
X-10412999Y3991454D01*
X-9938642Y4231215D02*
X-10088485Y3860342D01*
X-8909434Y-6707047D02*
X-8663169Y-7022251D01*
X-8909434Y-6707047D02*
X-8549898Y-6679951D01*
X-8786302Y-6864649D02*
X-8825702Y-6895432D01*
X-8633630Y-6491566D02*
X-8387366Y-6806770D01*
X-8549898Y-6679951D02*
X-8663169Y-7022251D01*
X-4001442Y-10409150D02*
X-3710897Y-10195646D01*
X-4001442Y-10409150D02*
X-3625564Y-10545958D01*
X-3881734Y-10080257D02*
X-3505857Y-10217066D01*
X-3813503Y-10477554D02*
X-3830604Y-10524539D01*
X-3710897Y-10195646D02*
X-3625564Y-10545958D01*
X-5411210Y-9750948D02*
X-5093779Y-9579958D01*
X-5411210Y-9750948D02*
X-5058031Y-9938736D01*
X-5246895Y-9441916D02*
X-4893716Y-9629705D01*
X-5234621Y-9844842D02*
X-5258093Y-9888990D01*
X-5093779Y-9579958D02*
X-5058031Y-9938736D01*
X-5234621Y9844842D02*
X-5258093Y9888990D01*
X-5093779Y9579958D02*
X-5411210Y9750948D01*
X-5058031Y9938736D02*
X-5411210Y9750948D01*
X-5058031Y9938736D02*
X-5093779Y9579958D01*
X-4893716Y9629705D02*
X-5246895Y9441916D01*
X3710897Y10195646D02*
X3625564Y10545958D01*
X3813503Y10477554D02*
X3830604Y10524539D01*
X3881734Y10080257D02*
X3505857Y10217066D01*
X4001442Y10409150D02*
X3625564Y10545958D01*
X4001442Y10409150D02*
X3710897Y10195646D01*
X10527625Y2418656D02*
X10430856Y2806775D01*
X10527756Y2624812D02*
X10770460Y2891447D01*
X10818844Y2697388D02*
X10867359Y2709484D01*
X10867229Y2503329D02*
X10527756Y2624812D01*
X10867229Y2503329D02*
X10770460Y2891447D01*
X10209585Y-3527608D02*
X10333192Y-3147185D01*
X10318942Y-3352846D02*
X10666062Y-3255341D01*
X10542455Y-3635764D02*
X10318942Y-3352846D01*
X10542455Y-3635764D02*
X10666062Y-3255341D01*
X10604258Y-3445554D02*
X10651811Y-3461003D01*
X5749612Y9201293D02*
X5738978Y9561691D01*
X5892726Y9052907D02*
X5553507Y9264874D01*
X5908588Y9455707D02*
X5935084Y9498110D01*
X6078198Y9349723D02*
X5738978Y9561691D01*
X6078198Y9349723D02*
X5749612Y9201293D01*
X5553507Y-9264874D02*
X5892726Y-9052907D01*
X5738978Y-9561691D02*
X5749612Y-9201293D01*
X5738978Y-9561691D02*
X6078198Y-9349723D01*
X5749612Y-9201293D02*
X6078198Y-9349723D01*
X5908588Y-9455707D02*
X5935084Y-9498110D01*
X-6715571Y-8902995D02*
X-6391964Y-9138110D01*
X-6715571Y-8902995D02*
X-6377432Y-8777847D01*
X-6553768Y-9020553D02*
X-6583157Y-9061003D01*
X-6509846Y-8619840D02*
X-6186240Y-8854954D01*
X-6377432Y-8777847D02*
X-6391964Y-9138110D01*
X5093779Y9579958D02*
X5058031Y9938736D01*
X5234621Y9844842D02*
X5258093Y9888990D01*
X5246895Y9441916D02*
X4893716Y9629705D01*
X5411210Y9750948D02*
X5058031Y9938736D01*
X5411210Y9750948D02*
X5093779Y9579958D01*
X-7167118Y8541407D02*
X-7199258Y8579709D01*
X-7013909Y8669964D02*
X-7320327Y8412849D01*
X-7013909Y8669964D02*
X-6974282Y8311593D01*
X-6974282Y8311593D02*
X-7320327Y8412849D01*
X-6788934Y8401849D02*
X-7095351Y8144734D01*
X553836Y-10787638D02*
X952862Y-10759736D01*
X578251Y-11136786D02*
X756837Y-10823565D01*
X578251Y-11136786D02*
X977276Y-11108883D01*
X756837Y-10823565D02*
X977276Y-11108883D01*
X777763Y-11122835D02*
X781251Y-11172713D01*
X-8419898Y-7312141D02*
X-8152246Y-7609399D01*
X-8419898Y-7312141D02*
X-8063128Y-7260030D01*
X-8286072Y-7460770D02*
X-8323229Y-7494226D01*
X-8159797Y-7077945D02*
X-7892145Y-7375203D01*
X-8063128Y-7260030D02*
X-8152246Y-7609399D01*
X-5908588Y9455707D02*
X-5935084Y9498110D01*
X-5749612Y9201293D02*
X-6078198Y9349723D01*
X-5738978Y9561691D02*
X-6078198Y9349723D01*
X-5738978Y9561691D02*
X-5749612Y9201293D01*
X-5553507Y9264874D02*
X-5892726Y9052907D01*
X-10867229Y-2503329D02*
X-10770460Y-2891447D01*
X-10867229Y-2503329D02*
X-10527756Y-2624812D01*
X-10818844Y-2697388D02*
X-10867359Y-2709484D01*
X-10527756Y-2624812D02*
X-10770460Y-2891447D01*
X-10527625Y-2418656D02*
X-10430856Y-2806775D01*
X756837Y10823565D02*
X578251Y11136786D01*
X777763Y11122835D02*
X781251Y11172713D01*
X952862Y10759736D02*
X553836Y10787638D01*
X977276Y11108883D02*
X578251Y11136786D01*
X977276Y11108883D02*
X756837Y10823565D01*
X8841754Y-6205069D02*
X9065431Y-5873454D01*
X8995044Y-6067221D02*
X9355594Y-6069171D01*
X9131917Y-6400786D02*
X8995044Y-6067221D01*
X9131917Y-6400786D02*
X9355594Y-6069171D01*
X9243756Y-6234979D02*
X9285208Y-6262939D01*
X4893716Y-9629705D02*
X5246895Y-9441916D01*
X5058031Y-9938736D02*
X5093779Y-9579958D01*
X5058031Y-9938736D02*
X5411210Y-9750948D01*
X5093779Y-9579958D02*
X5411210Y-9750948D01*
X5234621Y-9844842D02*
X5258093Y-9888990D01*
X-11143209Y389135D02*
X-11193178Y390880D01*
X-11136229Y589013D02*
X-11150189Y189257D01*
X-11136229Y589013D02*
X-10843391Y378665D01*
X-10843391Y378665D02*
X-11150189Y189257D01*
X-10786442Y576798D02*
X-10800402Y177042D01*
X7537001Y7804799D02*
X7601531Y8159533D01*
X7646136Y7629900D02*
X7358400Y7907764D01*
X7745399Y8020601D02*
X7780132Y8056568D01*
X7889267Y7881669D02*
X7537001Y7804799D01*
X7889267Y7881669D02*
X7601531Y8159533D01*
X-10604258Y3445554D02*
X-10651811Y3461003D01*
X-10542455Y3635764D02*
X-10666062Y3255341D01*
X-10542455Y3635764D02*
X-10318942Y3352846D01*
X-10318942Y3352846D02*
X-10666062Y3255341D01*
X-10209585Y3527608D02*
X-10333192Y3147185D01*
X3505857Y-10217066D02*
X3881734Y-10080257D01*
X3625564Y-10545958D02*
X3710897Y-10195646D01*
X3625564Y-10545958D02*
X4001442Y-10409150D01*
X3710897Y-10195646D02*
X4001442Y-10409150D01*
X3813503Y-10477554D02*
X3830604Y-10524539D01*
X-1551776Y11041440D02*
X-1558735Y11090954D01*
X-1510024Y10744360D02*
X-1749830Y11013606D01*
X-1353722Y11069275D02*
X-1749830Y11013606D01*
X-1353722Y11069275D02*
X-1510024Y10744360D01*
X-1305012Y10722681D02*
X-1701119Y10667012D01*
X-7745399Y8020601D02*
X-7780132Y8056568D01*
X-7601531Y8159533D02*
X-7889267Y7881669D01*
X-7601531Y8159533D02*
X-7537001Y7804799D01*
X-7537001Y7804799D02*
X-7889267Y7881669D01*
X-7358400Y7907764D02*
X-7646136Y7629900D01*
X-9656204Y5575000D02*
X-9699505Y5600000D01*
X-9556204Y5748205D02*
X-9756204Y5401795D01*
X-9556204Y5748205D02*
X-9396396Y5425000D01*
X-9396396Y5425000D02*
X-9756204Y5401795D01*
X-9253095Y5573205D02*
X-9453095Y5226795D01*
X-11150189Y-189257D02*
X-11136229Y-589013D01*
X-11150189Y-189257D02*
X-10843391Y-378665D01*
X-11143209Y-389135D02*
X-11193178Y-390880D01*
X-10843391Y-378665D02*
X-11136229Y-589013D01*
X-10800402Y-177042D02*
X-10786442Y-576798D01*
X-10109193Y-4708097D02*
X-9933845Y-5067614D01*
X-10109193Y-4708097D02*
X-9751881Y-4756344D01*
X-10021519Y-4887856D02*
X-10066459Y-4909774D01*
X-9794615Y-4554667D02*
X-9619267Y-4914185D01*
X-9751881Y-4756344D02*
X-9933845Y-5067614D01*
X-10818844Y2697388D02*
X-10867359Y2709484D01*
X-10770460Y2891447D02*
X-10867229Y2503329D01*
X-10770460Y2891447D02*
X-10527756Y2624812D01*
X-10527756Y2624812D02*
X-10867229Y2503329D01*
X-10430856Y2806775D02*
X-10527625Y2418656D01*
X2049788Y-10605553D02*
X2441047Y-10522388D01*
X2122557Y-10947904D02*
X2255813Y-10612878D01*
X2122557Y-10947904D02*
X2513816Y-10864740D01*
X2255813Y-10612878D02*
X2513816Y-10864740D01*
X2318187Y-10906322D02*
X2328582Y-10955230D01*
X10800402Y177042D02*
X10786442Y576798D01*
X10843391Y378665D02*
X11136229Y589013D01*
X11143209Y389135D02*
X11193178Y390880D01*
X11150189Y189257D02*
X10843391Y378665D01*
X11150189Y189257D02*
X11136229Y589013D01*
X-7320327Y-8412849D02*
X-7013909Y-8669964D01*
X-7320327Y-8412849D02*
X-6974282Y-8311593D01*
X-7167118Y-8541407D02*
X-7199258Y-8579709D01*
X-7095351Y-8144734D02*
X-6788934Y-8401849D01*
X-6974282Y-8311593D02*
X-7013909Y-8669964D01*
%LPC*%
D11*
X9527182Y4646752D03*
D12*
X10246218Y4997448D03*
D13*
X-10541891Y-1107989D03*
D14*
X-11337509Y-1191611D03*
D15*
X-2203835Y10368341D03*
D16*
X-2370165Y11150859D03*
D17*
X7363337Y-7624964D03*
D18*
X7919063Y-8200436D03*
D19*
X-9179890Y-5300000D03*
D20*
X-9872710Y-5700000D03*
D21*
X2203835Y10368341D03*
D22*
X2370165Y11150859D03*
D23*
X10438977Y-1840641D03*
D24*
X11226823Y-1979559D03*
D25*
X-10541891Y1107989D03*
D26*
X-11337509Y1191611D03*
D27*
X-739397Y10574174D03*
D28*
X-795203Y11372226D03*
D29*
X-5617132Y-8989281D03*
D30*
X-6041068Y-9667719D03*
D31*
X-739397Y-10574174D03*
D32*
X-795203Y-11372226D03*
D33*
X5350000Y2300000D03*
D34*
X3450000Y2300000D03*
X4400000Y-100000D03*
D35*
X9179890Y5300000D03*
D36*
X9872710Y5700000D03*
D37*
X-2921745Y10189395D03*
D38*
X-3142255Y10958405D03*
D39*
X-3625392Y9960723D03*
D40*
X-3899008Y10712477D03*
D41*
X8787785Y5927423D03*
D42*
X9451015Y6374777D03*
D43*
X4311405Y9683582D03*
D44*
X4636795Y10414418D03*
D45*
X10438977Y1840641D03*
D46*
X11226823Y1979559D03*
D47*
X8352896Y6526035D03*
D48*
X8983304Y7018565D03*
D49*
X6813585Y8120082D03*
D50*
X7327815Y8732918D03*
D51*
X7877342Y7092748D03*
D52*
X8471858Y7628052D03*
D53*
X10285182Y-2564331D03*
D54*
X11061418Y-2757869D03*
D55*
X-2921745Y-10189395D03*
D56*
X-3142255Y-10958405D03*
D57*
X-9527182Y4646752D03*
D58*
X-10246218Y4997448D03*
D59*
X-1475231Y-10496793D03*
D60*
X-1586569Y-11289007D03*
D61*
X10541891Y1107989D03*
D62*
X11337509Y1191611D03*
D63*
X10081177Y3275593D03*
D64*
X10842023Y3522807D03*
D65*
X-10438977Y-1840641D03*
D66*
X-11226823Y-1979559D03*
D67*
X2921745Y10189395D03*
D68*
X3142255Y10958405D03*
D69*
X-8352896Y6526035D03*
D70*
X-8983304Y7018565D03*
D71*
X-4311405Y-9683582D03*
D72*
X-4636795Y-10414418D03*
D73*
X6813585Y-8120082D03*
D74*
X7327815Y-8732918D03*
D75*
X1475231Y10496793D03*
D76*
X1586569Y11289007D03*
D77*
X9828126Y-3970857D03*
D78*
X10569874Y-4270543D03*
D79*
X9179890Y-5300000D03*
D80*
X9872710Y-5700000D03*
D81*
X-6230486Y8575593D03*
D82*
X-6700714Y9222807D03*
D83*
X-4311405Y9683582D03*
D84*
X-4636795Y10414418D03*
D85*
X6230486Y-8575593D03*
D86*
X6700714Y-9222807D03*
D87*
X1100000Y-1500000D03*
X2100000Y-1500000D03*
D88*
X-8787785Y-5927423D03*
D89*
X-9451015Y-6374777D03*
D90*
X-7877342Y7092748D03*
D91*
X-8471858Y7628052D03*
D92*
X-10081177Y-3275593D03*
D93*
X-10842023Y-3522807D03*
D94*
X-2203835Y-10368341D03*
D95*
X-2370165Y-11150859D03*
D96*
X-10438977Y1840641D03*
D97*
X-11226823Y1979559D03*
D87*
X-4500000Y2700000D03*
X-3500000Y2700000D03*
D98*
X4311405Y-9683582D03*
D99*
X4636795Y-10414418D03*
D100*
X9527182Y-4646752D03*
D101*
X10246218Y-4997448D03*
D102*
X2921745Y-10189395D03*
D103*
X3142255Y-10958405D03*
D104*
X-7363337Y-7624964D03*
D105*
X-7919063Y-8200436D03*
D106*
X10593544Y-369940D03*
D107*
X11393056Y-397860D03*
D108*
X-9828126Y-3970857D03*
D109*
X-10569874Y-4270543D03*
D110*
X-8787785Y5927423D03*
D111*
X-9451015Y6374777D03*
D112*
X7877342Y-7092748D03*
D113*
X8471858Y-7628052D03*
D114*
X9828126Y3970857D03*
D115*
X10569874Y4270543D03*
D116*
X8352896Y-6526035D03*
D117*
X8983304Y-7018565D03*
D118*
X0Y-10600000D03*
D119*
X0Y-11400000D03*
D120*
X1475231Y-10496793D03*
D121*
X1586569Y-11289007D03*
D122*
X10541891Y-1107989D03*
D123*
X11337509Y-1191611D03*
D124*
X0Y10600000D03*
D125*
X0Y11400000D03*
D126*
X6230486Y8575593D03*
D127*
X6700714Y9222807D03*
D128*
X-9828126Y3970857D03*
D129*
X-10569874Y4270543D03*
D130*
X-8352896Y-6526035D03*
D131*
X-8983304Y-7018565D03*
D132*
X-3625392Y-9960723D03*
D133*
X-3899008Y-10712477D03*
D134*
X1235000Y100000D03*
X219000Y5180000D03*
X2251000Y5180000D03*
D135*
X1870000Y1370000D03*
X600000Y1370000D03*
X1870000Y2640000D03*
X600000Y2640000D03*
X1870000Y3910000D03*
X600000Y3910000D03*
D136*
X-4976411Y-9359221D03*
D137*
X-5351989Y-10065579D03*
D138*
X-4976411Y9359221D03*
D139*
X-5351989Y10065579D03*
D140*
X3625392Y9960723D03*
D141*
X3899008Y10712477D03*
D142*
X-900000Y1800000D03*
D143*
X-1400000Y1800000D03*
X-1900000Y1800000D03*
X-2400000Y1800000D03*
X-2900000Y1800000D03*
X-3400000Y1800000D03*
D144*
X-3900000Y1800000D03*
D145*
X-4300000Y1400000D03*
D146*
X-4300000Y900000D03*
X-4300000Y400000D03*
X-4300000Y-100000D03*
X-4300000Y-600000D03*
X-4300000Y-1100000D03*
D147*
X-4300000Y-1600000D03*
D148*
X-3900000Y-2000000D03*
D149*
X-3400000Y-2000000D03*
X-2900000Y-2000000D03*
X-2400000Y-2000000D03*
X-1900000Y-2000000D03*
X-1400000Y-2000000D03*
D150*
X-900000Y-2000000D03*
D151*
X-500000Y-1600000D03*
D152*
X-500000Y-1100000D03*
X-500000Y-600000D03*
X-500000Y-100000D03*
X-500000Y400000D03*
X-500000Y900000D03*
D153*
X-500000Y1400000D03*
D154*
X10285182Y2564331D03*
D155*
X11061418Y2757869D03*
D156*
X10081177Y-3275593D03*
D157*
X10842023Y-3522807D03*
D158*
X5617132Y8989281D03*
D159*
X6041068Y9667719D03*
D160*
X5617132Y-8989281D03*
D161*
X6041068Y-9667719D03*
D162*
X-6230486Y-8575593D03*
D163*
X-6700714Y-9222807D03*
D164*
X-750000Y-3400000D03*
X-750000Y-4400000D03*
D165*
X4976411Y9359221D03*
D166*
X5351989Y10065579D03*
D167*
X-6813585Y8120082D03*
D168*
X-7327815Y8732918D03*
D169*
X739397Y-10574174D03*
D170*
X795203Y-11372226D03*
D171*
X250038Y-2799873D03*
X250038Y-3300000D03*
X250038Y-3799873D03*
X250038Y-4300000D03*
D172*
X975210Y-4524790D03*
X1475083Y-4524790D03*
D171*
X2200000Y-4300000D03*
X2200000Y-3799873D03*
X2200000Y-3300000D03*
X2200000Y-2799873D03*
D172*
X1475083Y-2574828D03*
X975210Y-2574828D03*
D173*
X-7877342Y-7092748D03*
D174*
X-8471858Y-7628052D03*
D175*
X-5617132Y8989281D03*
D176*
X-6041068Y9667719D03*
D177*
X-10285182Y-2564331D03*
D178*
X-11061418Y-2757869D03*
D179*
X739397Y10574174D03*
D180*
X795203Y11372226D03*
D181*
X8787785Y-5927423D03*
D182*
X9451015Y-6374777D03*
D183*
X4976411Y-9359221D03*
D184*
X5351989Y-10065579D03*
D185*
X-10593544Y369940D03*
D186*
X-11393056Y397860D03*
D187*
X7363337Y7624964D03*
D188*
X7919063Y8200436D03*
D189*
X-10081177Y3275593D03*
D190*
X-10842023Y3522807D03*
D164*
X-600000Y3800000D03*
X-600000Y2800000D03*
D87*
X3700000Y3700000D03*
X4700000Y3700000D03*
D191*
X3625392Y-9960723D03*
D192*
X3899008Y-10712477D03*
D193*
X-1475231Y10496793D03*
D194*
X-1586569Y11289007D03*
D195*
X3100000Y-4200000D03*
X3100000Y-3200000D03*
D196*
X-7363337Y7624964D03*
D197*
X-7919063Y8200436D03*
D198*
X-9179890Y5300000D03*
D199*
X-9872710Y5700000D03*
D87*
X-4500000Y3550000D03*
X-3500000Y3550000D03*
D200*
X-10593544Y-369940D03*
D201*
X-11393056Y-397860D03*
D202*
X-9527182Y-4646752D03*
D203*
X-10246218Y-4997448D03*
D204*
X-10285182Y2564331D03*
D205*
X-11061418Y2757869D03*
D206*
X2203835Y-10368341D03*
D207*
X2370165Y-11150859D03*
D208*
X5400000Y-1200000D03*
X4400000Y-1200000D03*
D209*
X10593544Y369940D03*
D210*
X11393056Y397860D03*
D211*
X-6813585Y-8120082D03*
D212*
X-7327815Y-8732918D03*
%LPD*%
M02*
